<?xml version="1.0" encoding="utf-8"?>
<!-- Generator: Adobe Illustrator 21.0.0, SVG Export Plug-In . SVG Version: 6.00 Build 0)  -->
<svg version="1.1" id="Capa_1" xmlns="http://www.w3.org/2000/svg" xmlns:xlink="http://www.w3.org/1999/xlink" x="0px" y="0px"
	 viewBox="0 0 296 296" style="enable-background:new 0 0 296 296;" xml:space="preserve">
<g>
	<path d="M148,0C66.4,0,0,66.4,0,148s66.4,148,148,148s148-66.4,148-148S229.6,0,148,0z M148,280c-36.3,0-69.1-14.7-93-38.4
		c-9.5-9.5-17.6-20.4-23.9-32.4C21.4,190.8,16,170,16,148C16,75.2,75.2,16,148,16c34.5,0,66,13.3,89.5,35.1
		c12.2,11.3,22.3,24.8,29.6,40c8.3,17.2,12.9,36.5,12.9,56.9C280,220.8,220.8,280,148,280z"/>
	<circle cx="98.7" cy="115" r="16"/>
	<circle cx="197.7" cy="115" r="16"/>
	<path d="M143.2,148.1c-34.4,1.8-65.6,23.3-79.4,54.9l14.6,6.4c11.5-26.1,37.2-43.9,65.6-45.4c28.6-1.5,56.2,13.7,70.3,38.6
		c1.2,2.2,2.4,4.4,3.4,6.7l14.6-6.4c-1.2-2.8-2.6-5.5-4.1-8.1C211.2,164.7,177.8,146.3,143.2,148.1z"/>
	<rect x="105.3" y="60" transform="matrix(0.5859 -0.8104 0.8104 0.5859 -14.6593 123.3129)" width="16" height="32"/>
	<rect x="166.7" y="68" transform="matrix(0.8104 -0.5859 0.5859 0.8104 -9.8934 121.4303)" width="32" height="16"/>
</g>
</svg>
