<?xml version="1.0" encoding="utf-8"?>
<!-- Generator: Adobe Illustrator 21.0.0, SVG Export Plug-In . SVG Version: 6.00 Build 0)  -->
<svg version="1.1" id="Capa_1" xmlns="http://www.w3.org/2000/svg" xmlns:xlink="http://www.w3.org/1999/xlink" x="0px" y="0px"
	 viewBox="0 0 296 296" style="enable-background:new 0 0 296 296;" xml:space="preserve">
<g>
	<path d="M148,0C66.4,0,0,66.4,0,148s66.4,148,148,148s148-66.4,148-148S229.6,0,148,0z M148,280c-36.3,0-69.1-14.7-93-38.4
		c-9.5-9.5-17.6-20.4-23.9-32.4C21.4,190.8,16,170,16,148C16,75.2,75.2,16,148,16c34.5,0,66,13.3,89.5,35.1
		c12.2,11.3,22.3,24.8,29.6,40c8.3,17.2,12.9,36.5,12.9,56.9C280,220.8,220.8,280,148,280z"/>
	<polygon points="79.9,148 98,129.9 116.1,148 127.4,136.6 109.4,118.7 127.4,100.8 116.1,89.4 98,107.5 79.9,89.4 68.6,100.8 
		86.5,118.7 68.6,136.6 	"/>
	<polygon points="179.9,148 198,129.9 216.1,148 227.4,136.6 209.4,118.7 227.4,100.8 216.1,89.4 198,107.5 179.9,89.4 168.6,100.8 
		186.5,118.7 168.6,136.6 	"/>
	<path d="M67.7,206h94v12c0,16.7,12.7,30.5,28.8,32.7c1.4,0.2,3,0.3,4.5,0.3c15.5,0,28.4-10.7,31.9-25.2c0.6-2.5,0.8-5.1,0.8-7.8
		v-28h-160V206z M177.7,206h34v12c0,9.4-7.6,17-17,17c-9.4,0-17-7.6-17-17V206z"/>
</g>
</svg>
