<?xml version="1.0" encoding="utf-8"?>
<!-- Generator: Adobe Illustrator 21.0.0, SVG Export Plug-In . SVG Version: 6.00 Build 0)  -->
<svg version="1.1" id="Capa_1" xmlns="http://www.w3.org/2000/svg" xmlns:xlink="http://www.w3.org/1999/xlink" x="0px" y="0px"
	 viewBox="0 0 296.3 296.3" style="enable-background:new 0 0 296.3 296.3;" xml:space="preserve">
<g>
	<path d="M98.5,115.1c-8.8,0-16,7.2-16,16c0,2.1,0.4,4.1,1.1,5.9c2.3,5.9,8.1,10.1,14.9,10.1c4.4,0,8.4-1.8,11.3-4.6
		c2.9-2.9,4.7-6.9,4.7-11.4C114.5,122.3,107.3,115.1,98.5,115.1z, M197.5,115.1c-8.8,0-16,7.2-16,16c0,4.4,1.8,8.5,4.7,11.4c2.9,2.9,6.9,4.6,11.3,4.6c6.8,0,12.5-4.2,14.9-10.1
		c0.7-1.8,1.1-3.8,1.1-5.9C213.5,122.3,206.3,115.1,197.5,115.1z"/>
	<rect x="114.7" y="206.1" width="66" height="16"/>
	<path d="M296.3,76.3c0-9.5-5.9-21.4-18.2-36.4c-8.4-10.3-16.7-18.2-17.1-18.5l-5.5-5.2l-5.5,5.2c-0.3,0.2-4.7,4.5-10.3,10.7
		c-25.2-20-57.1-31.9-91.7-31.9C66.4,0.1,0,66.5,0,148.1c0,81.6,66.4,148,148,148s148-66.4,148-148c0-16.6-2.8-32.6-7.8-47.5
		C293.2,93.8,296.3,85.4,296.3,76.3z M148,280.1c-36.3,0-69.1-14.7-93-38.4c-9.5-9.5-17.6-20.4-23.9-32.4c-9.6-18.3-15-39.1-15-61.1
		c0-72.8,59.2-132,132-132c30.7,0,59,10.5,81.4,28.2c-0.5,0.6-0.9,1.2-1.3,1.8c-9,12.1-13.3,22-13.3,30.2
		c0,22.5,18.3,40.8,40.8,40.8c5.3,0,10.5-1,15.1-2.9c1.5-0.6,3-1.3,4.4-2c3.3,11.5,5,23.6,5,36.1C280,220.9,220.8,280.1,148,280.1z
		 M255.5,101c-13.7,0-24.8-11.1-24.8-24.8c0-8.7,13.1-25.7,24.8-37.8c11.7,12.2,24.8,29.2,24.8,37.8C280.3,89.9,269.1,101,255.5,101
		z"/>
</g>
</svg>
