<?xml version="1.0" encoding="utf-8"?>
<!-- Generator: Adobe Illustrator 21.0.0, SVG Export Plug-In . SVG Version: 6.00 Build 0)  -->
<svg version="1.1" id="Capa_1" xmlns="http://www.w3.org/2000/svg" xmlns:xlink="http://www.w3.org/1999/xlink" x="0px" y="0px"
	 viewBox="0 0 420.7 420.7" style="enable-background:new 0 0 420.7 420.7;" xml:space="preserve">
<g>
	<path d="M109.8,226.1c-3.1,3.1-3.1,8.2,0,11.3c1.6,1.6,3.6,2.3,5.7,2.3c2,0,4.1-0.8,5.7-2.3c7.5-7.5,19.7-7.5,27.2,0
		c3.1,3.1,8.2,3.1,11.3,0c3.1-3.1,3.1-8.2,0-11.3C145.9,212.3,123.5,212.3,109.8,226.1z, M146.5,290.7c-7.5,7.5-19.7,7.5-27.2,0c-3.1-3.1-8.2-3.1-11.3,0c-3.1,3.1-3.1,8.2,0,11.3c6.9,6.9,15.9,10.3,24.9,10.3
		c9,0,18.1-3.4,24.9-10.3c3.1-3.1,3.1-8.2,0-11.3C154.7,287.5,149.7,287.5,146.5,290.7z, M301.4,290.7c-7.5,7.5-19.7,7.5-27.2,0c-3.1-3.1-8.2-3.1-11.3,0c-3.1,3.1-3.1,8.2,0,11.3c6.9,6.9,15.9,10.3,24.9,10.3
		s18.1-3.4,24.9-10.3c3.1-3.1,3.1-8.2,0-11.3C309.6,287.5,304.5,287.5,301.4,290.7z, M271.7,237.4c7.5-7.5,19.7-7.5,27.2,0c1.6,1.6,3.6,2.3,5.7,2.3c2,0,4.1-0.8,5.7-2.3c3.1-3.1,3.1-8.2,0-11.3
		c-13.7-13.7-36.1-13.7-49.8,0c-3.1,3.1-3.1,8.2,0,11.3C263.5,240.5,268.6,240.5,271.7,237.4z"/>
	<circle cx="132.9" cy="268.5" r="14"/>
	<circle cx="287.8" cy="268.5" r="14"/>
	<path d="M409.8,214.2c0-11.1-4.9-21.4-12.9-28.5c7.5-7,11.9-16.9,11.9-27.7c0-11.3-5-21.8-13.3-28.9c2.8-5.4,4.3-11.4,4.3-17.6
		c0-16.2-10.1-30.1-24.6-35.6c1.4-4,2.1-8.1,2.1-12.4c0-21-17-38-38-38c-1.9,0-3.7,0.1-5.6,0.4C327.3,13.8,314.6,6,300.4,6
		C293,6,286,8.1,280,11.9C272.9,4.4,262.9,0,252.4,0c-7.2,0-14.2,2-20.3,5.9c-6-3.8-13-5.9-20.3-5.9c-0.5,0-1,0-1.5,0
		c-7.7-0.3-15.3,1.8-21.8,5.8c-6-3.8-13-5.9-20.3-5.9c-10.6,0-20.5,4.4-27.6,11.9c-6-3.8-13.1-5.9-20.4-5.9
		c-14.3,0-26.9,7.8-33.4,19.9c-1.8-0.3-3.7-0.4-5.6-0.4c-21,0-38,17-38,38c0,4.3,0.7,8.5,2.1,12.4C31,81.4,20.8,95.3,20.8,111.5
		c0,6.2,1.5,12.2,4.3,17.6c-8.4,7.1-13.3,17.6-13.3,28.9c0,10.8,4.4,20.7,11.9,27.7c-8,7.1-12.9,17.4-12.9,28.5
		c0,11.4,5.1,22,13.7,29.2c-1.2,3.9-1.8,8-1.8,12.2c0,20.4,14.7,37.5,34,41.2v33.8c0,17.5,7.2,34.7,19.7,47.2
		c12.4,12.3,28.7,19.1,45.9,19c11.3-0.1,22-2.9,31.7-8.4c11.5,20,32.8,32.4,56.4,32.4c23.6,0,44.8-12.5,56.4-32.4
		c9.6,5.5,20.4,8.3,31.7,8.4c0.1,0,0.3,0,0.4,0c17,0,33.2-6.7,45.5-19c12.5-12.5,19.7-29.7,19.7-47.2v-33.8
		c19.3-3.7,34-20.8,34-41.2c0-4.3-0.6-8.4-1.8-12.3C404.7,236.1,409.8,225.5,409.8,214.2z M56.8,280.3c-10.4-3.4-18-13.2-18-24.7
		c0-12.2,8.5-22.5,19.9-25.3C57.5,247,56.8,263.6,56.8,280.3z M333,366.4c-9.4,9.3-21.6,14.4-34.5,14.3c-11-0.1-21.4-3.7-30-10.4
		c-2-1.6-4.6-2.1-7-1.4c-2.4,0.7-4.4,2.4-5.3,4.8c-7.5,18.9-25.4,31.1-45.8,31.1c-20.3,0-38.3-12.2-45.8-31.1
		c-0.9-2.3-2.9-4.1-5.3-4.8c-0.7-0.2-1.4-0.3-2.1-0.3c-1.8,0-3.5,0.6-4.9,1.7c-8.6,6.8-19,10.4-30,10.4c-12.9,0.1-25.1-5-34.5-14.3
		c-9.5-9.5-15-22.5-15-35.8v-46.8c0-49.6,5-99.3,14.9-147.9c6.8,11.5,19.2,18.6,32.7,18.6c7.2,0,14.3-2.1,20.4-5.9
		c7.1,7.5,17.1,11.9,27.6,11.9c7.2,0,14.2-2.1,20.3-5.9c6,3.8,13,5.9,20.3,5.9c0.5,0,1,0,1.5,0c0.5,0,1,0,1.5,0
		c7.2,0,14.3-2.1,20.3-5.9c6,3.8,13,5.9,20.3,5.9c10.6,0,20.5-4.4,27.6-11.9c6,3.8,13.1,5.9,20.4,5.9c13.5,0,25.8-7.1,32.7-18.6
		c9.9,48.6,15,98.5,15,148.1v46.6h0C348,343.8,342.5,356.9,333,366.4z M364,280.3c-0.1-16.7-0.7-33.4-1.9-50
		c11.4,2.7,19.9,13,19.9,25.3C382,267.1,374.4,276.9,364,280.3z M388.3,228.7c-6.8-8.1-16.5-13.6-27.5-14.9
		c-2.6-28.1-6.8-56-12.5-83.6c-1.2-6-6.1-10.7-12.2-11.6c-0.2,0-0.3-0.1-0.5-0.1c-6.3-1.1-12.6,2.1-15.6,7.9
		c-3.8,7.4-11.3,11.9-19.6,11.9c-6.1,0-11.8-2.4-16-6.9c-1.8-1.8-4.3-2.8-6.8-2.4c-2.5,0.3-4.8,1.8-6,4c-3.9,7-11.3,11.3-19.2,11.3
		c-5.5,0-10.8-2.1-14.9-5.8c-3.1-2.8-7.8-2.8-10.8,0c-4.1,3.7-9.3,5.8-14.9,5.8c-0.4,0-0.7,0-1.1,0c-0.3,0-0.5,0-0.8,0
		c-0.4,0-0.7,0-1.1,0c-5.5,0-10.8-2.1-14.9-5.8c-3.1-2.8-7.8-2.8-10.8,0c-4.1,3.7-9.3,5.8-14.9,5.8c-8,0-15.3-4.3-19.2-11.3
		c-1.2-2.2-3.5-3.7-6-4c-2.5-0.3-5.1,0.6-6.8,2.4c-4.2,4.4-9.9,6.9-16,6.9c-8.3,0-15.8-4.6-19.6-11.9c-3-5.8-9.3-9-15.6-7.9
		c-0.2,0-0.3,0.1-0.5,0.1c-6.1,0.9-11,5.6-12.2,11.6l0,0.2c-5.7,27.5-9.8,55.4-12.4,83.4c-11,1.2-20.8,6.8-27.6,14.9
		c-3.5-4-5.5-9.1-5.5-14.6c0-9.3,5.9-17.6,14.6-20.7c3.1-1.1,5.3-4.1,5.3-7.4c0.1-3.3-2-6.4-5.1-7.6c-8.5-3.3-13.9-11.4-13.9-20.5
		c0-8.3,4.6-15.8,12.1-19.6c2.2-1.1,3.8-3.2,4.2-5.6s-0.2-4.9-1.8-6.8c-3.5-4-5.5-9.2-5.5-14.5c0-11.8,9.2-21.4,20.9-22
		c3-0.1,5.6-1.9,6.9-4.6c1.3-2.7,0.9-5.8-0.9-8.2c-2.9-3.8-4.4-8.4-4.4-13.2c0-12.1,9.9-22,22-22c2.6,0,5.1,0.4,7.5,1.3
		c2.1,0.8,4.4,0.6,6.3-0.4c2-1,3.4-2.7,4.1-4.8c2.8-9.2,11.4-15.6,21.1-15.6c6.1,0,11.8,2.4,16,6.9c1.8,1.9,4.3,2.8,6.8,2.4
		c2.5-0.3,4.8-1.8,6-4c3.9-7,11.3-11.3,19.2-11.3c5.5,0,10.8,2.1,14.8,5.8c3.1,2.8,7.8,2.8,10.8,0c4.1-3.7,9.4-5.8,14.9-5.8
		c0.3,0,0.7,0,1,0c0.3,0,0.6,0,1,0c0.3,0,0.7,0,1,0c5.5,0,10.8,2.1,14.9,5.8c3.1,2.8,7.8,2.8,10.8,0c4.1-3.7,9.3-5.8,14.9-5.8
		c8,0,15.3,4.3,19.2,11.3c1.2,2.2,3.5,3.7,6,4c2.5,0.3,5.1-0.6,6.8-2.4c4.2-4.4,9.9-6.9,16-6.9c9.8,0,18.2,6.3,21.1,15.6
		c0.6,2.1,2.1,3.9,4.1,4.8c2,1,4.3,1.1,6.3,0.4c2.4-0.9,4.9-1.3,7.5-1.3c12.1,0,22,9.9,22,22c0,4.8-1.5,9.4-4.4,13.2
		c-1.8,2.4-2.1,5.5-0.9,8.2c1.3,2.7,3.9,4.5,6.9,4.6c11.7,0.6,20.9,10.2,20.9,22c0,5.3-1.9,10.5-5.5,14.5c-1.6,1.9-2.3,4.4-1.8,6.8
		c0.5,2.4,2,4.5,4.2,5.6c7.4,3.8,12.1,11.3,12.1,19.6c0,9.1-5.5,17.1-13.9,20.5c-3.1,1.2-5.1,4.2-5.1,7.6s2.2,6.3,5.3,7.4
		c8.7,3.1,14.6,11.4,14.6,20.7C393.8,219.6,391.8,224.8,388.3,228.7z, M242.2,320.5h-63.7c-4.4,0-8,3.6-8,8c0,22,17.9,39.9,39.9,39.9s39.9-17.9,39.9-39.9C250.2,324.1,246.7,320.5,242.2,320.5z
		 M210.4,352.4c-10.4,0-19.2-6.6-22.5-15.9h45C229.6,345.7,220.7,352.4,210.4,352.4z"/>
</g>
</svg>
