<?xml version="1.0" encoding="utf-8"?>
<!-- Generator: Adobe Illustrator 21.0.0, SVG Export Plug-In . SVG Version: 6.00 Build 0)  -->
<svg version="1.1" id="Capa_1" xmlns="http://www.w3.org/2000/svg" xmlns:xlink="http://www.w3.org/1999/xlink" x="0px" y="0px"
	 viewBox="0 0 368 368" style="enable-background:new 0 0 368 368;" xml:space="preserve">
<g>
	<path d="M248,112c-13.2,0-24,10.8-24,24s10.8,24,24,24s24-10.8,24-24S261.2,112,248,112z M248,144c-4.4,0-8-3.6-8-8s3.6-8,8-8
		s8,3.6,8,8S252.4,144,248,144z, M120,160c13.2,0,24-10.8,24-24s-10.8-24-24-24s-24,10.8-24,24S106.8,160,120,160z M120,128c4.4,0,8,3.6,8,8s-3.6,8-8,8
		s-8-3.6-8-8S115.6,128,120,128z, M184,0C82.5,0,0,82.5,0,184s82.5,184,184,184s184-82.5,184-184S285.5,0,184,0z M184,352c-92.6,0-168-75.4-168-168
		S91.4,16,184,16s168,75.4,168,168S276.6,352,184,352z, M264,208H104c-4.4,0-8,3.6-8,8c0,48.5,39.5,88,88,88s88-39.5,88-88C272,211.6,268.4,208,264,208z M184,288
		c-37,0-67.6-28-71.6-64h143.1C251.6,260,221,288,184,288z"/>
</g>
</svg>
