<?xml version="1.0" encoding="utf-8"?>
<!-- Generator: Adobe Illustrator 21.0.0, SVG Export Plug-In . SVG Version: 6.00 Build 0)  -->
<svg version="1.1" id="Capa_1" xmlns="http://www.w3.org/2000/svg" xmlns:xlink="http://www.w3.org/1999/xlink" x="0px" y="0px"
	 viewBox="0 0 368 368" style="enable-background:new 0 0 368 368;" xml:space="preserve">
<g>
	<path d="M184,0C82.5,0,0,82.5,0,184s82.5,184,184,184s184-82.5,184-184S285.5,0,184,0z M184,352c-92.6,0-168-75.4-168-168
		S91.4,16,184,16s168,75.4,168,168S276.6,352,184,352z, M296,176H72c-4.4,0-8,3.6-8,8c0,66.2,53.8,120,120,120s120-53.8,120-120C304,179.6,300.4,176,296,176z M184,288
		c-54.7,0-99.6-42.4-103.7-96h207.4C283.6,245.6,238.7,288,184,288z, M216,144h48c4.4,0,8-3.6,8-8s-3.6-8-8-8h-33.1l23.7-35.6c2.5-3.7,1.5-8.6-2.2-11.1c-3.7-2.5-8.7-1.5-11.1,2.2l-32,48
		c-1.6,2.5-1.8,5.6-0.4,8.2C210.3,142.4,213,144,216,144z, M104,144h48c3,0,5.7-1.6,7.1-4.2c1.4-2.6,1.2-5.8-0.4-8.2l-32-48c-2.4-3.7-7.4-4.7-11.1-2.2c-3.7,2.4-4.7,7.4-2.2,11.1
		l23.7,35.6H104c-4.4,0-8,3.6-8,8S99.6,144,104,144z"/>
</g>
</svg>
