<?xml version="1.0" encoding="utf-8"?>
<!-- Generator: Adobe Illustrator 21.0.0, SVG Export Plug-In . SVG Version: 6.00 Build 0)  -->
<svg version="1.1" id="Capa_1" xmlns="http://www.w3.org/2000/svg" xmlns:xlink="http://www.w3.org/1999/xlink" x="0px" y="0px"
	 viewBox="0 0 423.2 423.2" style="enable-background:new 0 0 423.2 423.2;" xml:space="preserve">
<g>
	<path d="M136.3,254.6c5.1,0,10,2,13.6,5.6c1.6,1.6,3.6,2.3,5.7,2.3c2,0,4.1-0.8,5.7-2.3c3.1-3.1,3.1-8.2,0-11.3
		c-6.7-6.7-15.5-10.3-24.9-10.3c-9.4,0-18.3,3.7-24.9,10.3c-3.1,3.1-3.1,8.2,0,11.3c3.1,3.1,8.2,3.1,11.3,0
		C126.3,256.6,131.2,254.6,136.3,254.6z, M262,260.3c3.1,3.1,8.2,3.1,11.3,0c3.6-3.6,8.5-5.6,13.6-5.6s10,2,13.6,5.6c1.6,1.6,3.6,2.3,5.7,2.3c2,0,4.1-0.8,5.7-2.3
		c3.1-3.1,3.1-8.2,0-11.3c-6.7-6.7-15.5-10.3-24.9-10.3c-9.4,0-18.3,3.7-24.9,10.3C258.9,252.1,258.9,257.1,262,260.3z, M412.8,337.9c-12.2-30.7-39.9-49.3-50.8-55.6c18.1-4.7,31.5-21.1,31.5-40.7c0-8.5-2.6-16.8-7.4-23.7
		c2.7-12.5,4.1-25.4,4.1-38.3C390.3,80.6,309.7,0,210.7,0c-99,0-179.6,80.6-179.6,179.6c0,13.6,1.6,27.2,4.6,40.4
		c-3.8,6.3-6,13.7-6,21.7c0,19.5,13.4,36,31.5,40.7c-10.8,6.3-38.5,24.9-50.8,55.6c-15.1,37.8-0.5,78.4,0.2,80.1
		c0.8,2.1,2.4,3.8,4.5,4.7c1,0.4,2,0.6,3,0.6c1.2,0,2.4-0.3,3.6-0.8c1.6-0.8,40.1-20.2,55.2-58c2.7-6.8,4.4-13.6,5.5-20.3
		c5.2,9.4,11.5,18.3,18.7,26.4c28.1,31.6,68.4,49.7,110.6,49.7c42.2,0,82.6-18.1,110.6-49.7c7.2-8.2,13.5-17,18.7-26.4
		c1,6.7,2.8,13.5,5.5,20.3c15.1,37.8,53.6,57.2,55.2,58c1.1,0.6,2.3,0.8,3.5,0.8c1,0,2-0.2,3-0.6c2.1-0.8,3.8-2.5,4.5-4.7
		C413.3,416.3,427.9,375.7,412.8,337.9z M377.5,241.6C377.5,241.6,377.5,241.6,377.5,241.6c0,11.6-7.6,21.4-18,24.8v-16.8
		c2.3,0.5,4.7,0.9,7.1,1.3c0.4,0.1,0.8,0.1,1.2,0.1c3,0,5.7-1.7,7.1-4.4L377.5,241.6z M45.7,241.6c0-11.5,7.6-21.4,18-24.7v49.5
		C53.3,263,45.7,253.2,45.7,241.6z M61.9,358.4c-8.8,22.1-27.9,37.3-39,44.6c-3-12.9-6.5-37.1,2.3-59.2c8.8-22.1,27.9-37.3,39-44.6
		C67.3,312.2,70.8,336.3,61.9,358.4z M343.5,272.3c0,32.3-11.8,63.4-33.3,87.6c-25,28.2-61,44.4-98.7,44.4S138,388.1,113,359.9
		c-21.4-24.1-33.3-55.2-33.3-87.6v-60.2c5.4-2.7,14.1-8.1,22.8-17c9.5-9.8,20.3-25.5,25-49c4.6,6.5,10.4,13.9,17.4,21.3
		c26.6,28.1,58,43,90.9,43c2.9,0,5.6-1.6,7-4.2c1.4-2.6,1.3-5.7-0.3-8.1c-8.9-13.9-10.6-28.1-9.9-39.2c4.9,8.4,11.7,18.5,20.7,29.1
		c17.5,20.4,46.5,45.4,90.1,57.8V272.3z M266,178c-20.4-23.6-28.5-45.6-28.6-45.8c-1.1-3.1-4-5.2-7.3-5.3c-3.3-0.1-6.3,1.8-7.6,4.8
		c-0.6,1.4-12.8,30.2-0.2,61.7c-23.5-3.4-45.5-15.7-65.4-36.7c-18.2-19.1-27.7-38.6-27.8-38.8c-1.8-3.7-6.2-5.5-10.2-4
		c-3.1,1.2-5,4.3-5,7.6c-0.1,50.6-30.1,70.5-41,76c-2.2,1.1-17.7,4.8-23.5,8.5c-1.4-8.8-2.2-17.6-2.2-26.6
		C47.2,89.4,120.5,16,210.7,16c90.2,0,163.6,73.4,163.6,163.6c0,12.9-1.5,25.8-4.5,38.3c0,0,0,0.1,0,0.1c-1.2,4.8-6.3,16.1-6.3,16.1
		C324.5,226.7,291.8,207.9,266,178z M400.3,403.1c-11.1-7.3-30.2-22.4-39-44.6c-8.8-22.1-5.4-46.3-2.3-59.2
		c11.1,7.3,30.2,22.5,39,44.6C406.8,366,403.3,390.1,400.3,403.1z, M298.1,307c-8.2-15.6-26.4-22.8-43.3-17.1c-27.9,9.3-58.6,9.3-86.5,0c-16.9-5.6-35.1,1.6-43.3,17.1l-0.6,1.2
		c-4.9,9.3-5.5,20.2-1.6,30c3.9,9.8,11.9,17.4,22,20.8c21.5,7.3,44.2,10.9,66.8,10.9s45.3-3.6,66.8-10.9c10-3.4,18.1-11,22-20.8
		c3.9-9.8,3.3-20.7-1.6-30L298.1,307z M148.1,343.1c-4.7-2.1-8.5-6-10.4-10.8c-0.9-2.2-1.3-4.5-1.4-6.8c2.8,2,5.8,3.6,9.1,4.7
		c0.9,0.3,1.8,0.6,2.7,0.9V343.1z M148.1,318.4c-3.1-1.2-5.8-3.1-8-5.5c2-3.1,4.8-5.4,8-7V318.4z M176.9,350.8
		c-5.6-1-11.2-2.3-16.8-3.8v-12.4c5.5,1.4,11.1,2.6,16.8,3.5V350.8z M176.9,325.9c-5.6-1-11.2-2.3-16.8-3.8v-17.8
		c1.1,0.2,2.1,0.4,3.2,0.8c4.5,1.5,9,2.8,13.6,3.8V325.9z M205.6,353.8c-5.6-0.2-11.2-0.6-16.8-1.2v-12.8c5.6,0.6,11.2,1,16.8,1.2
		V353.8z M205.6,328.9c-5.6-0.2-11.2-0.6-16.8-1.2v-16.5c5.6,0.8,11.1,1.4,16.8,1.6V328.9z M234.4,352.6c-5.6,0.7-11.2,1.1-16.8,1.2
		v-12.9c5.6-0.2,11.2-0.5,16.8-1.2V352.6z M234.4,327.7c-5.6,0.6-11.2,1.1-16.8,1.2v-16.1c5.6-0.2,11.2-0.8,16.8-1.6V327.7z
		 M246.4,308.9c4.6-1.1,9.1-2.3,13.6-3.8c1.1-0.4,2.1-0.6,3.2-0.8v17.8c-5.5,1.5-11.1,2.8-16.8,3.8V308.9z M263.1,347
		c-5.5,1.5-11.1,2.8-16.8,3.8v-12.7c5.6-0.9,11.2-2.1,16.8-3.5V347z M275.1,306c3.2,1.5,6,3.9,8,7c-2.2,2.4-4.9,4.2-8,5.5V306z
		 M285.5,332.3c-1.9,4.9-5.7,8.7-10.4,10.8v-12c0.9-0.3,1.8-0.6,2.7-0.9c3.3-1.1,6.4-2.7,9.1-4.7
		C286.9,327.8,286.4,330.1,285.5,332.3z"/>
</g>
</svg>
