<?xml version="1.0" encoding="utf-8"?>
<!-- Generator: Adobe Illustrator 21.0.0, SVG Export Plug-In . SVG Version: 6.00 Build 0)  -->
<svg version="1.1" id="Capa_1" xmlns="http://www.w3.org/2000/svg" xmlns:xlink="http://www.w3.org/1999/xlink" x="0px" y="0px"
	 viewBox="0 0 567.4 567.4" style="enable-background:new 0 0 567.4 567.4;" xml:space="preserve">
<g>
	<path d="M377.2,242c18.1,0,32.7-14.6,32.7-32.7c0-18.1-14.6-32.7-32.7-32.7c-18,0-32.7,14.6-32.7,32.7
		C344.6,227.4,359.2,242,377.2,242z"/>
	<ellipse cx="189.3" cy="209.3" rx="32.7" ry="32.7"/>
	<path d="M308.7,334.7h-45.4c-57.5,0-104.2,47.3-104.2,105.4c0,7.4,6,13.5,13.5,13.5c7.4,0,13.5-6,13.5-13.5
		c0-43.3,34.7-78.5,77.3-78.5h45.4c42.6,0,77.3,35,77.3,77.9c0,7.4,6,13.5,13.5,13.5c7.4,0,13.5-6,13.5-13.5
		C413,381.8,366.2,334.7,308.7,334.7z"/>
	<path d="M283.7,0C127.3,0,0.1,127.3,0.1,283.7c0,156.4,127.2,283.7,283.6,283.7c156.4,0,283.6-127.3,283.6-283.7
		C567.3,127.3,440.1,0,283.7,0z M283.7,540.5C142.2,540.5,27,425.3,27,283.7C27,142.1,142.2,26.9,283.7,26.9
		c141.5,0,256.7,115.2,256.7,256.8C540.4,425.3,425.3,540.5,283.7,540.5z"/>
</g>
</svg>