<?xml version="1.0" encoding="utf-8"?>
<!-- Generator: Adobe Illustrator 21.0.0, SVG Export Plug-In . SVG Version: 6.00 Build 0)  -->
<svg version="1.1" id="Capa_1" xmlns="http://www.w3.org/2000/svg" xmlns:xlink="http://www.w3.org/1999/xlink" x="0px" y="0px"
	 viewBox="0 0 387 387" style="enable-background:new 0 0 387 387;" xml:space="preserve">
<g>
	<circle cx="112.8" cy="233.2" r="15.4"/>
	<circle cx="274.2" cy="233.2" r="15.4"/>
	<path d="M349.7,182v-6.7c0-86.1-70.1-156.2-156.2-156.2c-86.1,0-156.2,70.1-156.2,156.2v6.7C16.1,185.8,0,204.4,0,226.6
		c0,22.5,16.4,41.1,37.9,44.7c3,34.4,18.8,59.8,46.9,75.7c25.1,14.1,60.6,20.9,108.7,20.9c48.1,0,83.6-6.8,108.7-20.9
		c28.2-15.8,43.9-41.2,46.9-75.7c21.5-3.6,37.9-22.2,37.9-44.7C387,204.4,370.9,185.8,349.7,182z M37.3,254.9
		C25,251.4,16,240,16,226.6c0-13.4,9-24.7,21.3-28.2V254.9z M294.4,333c-22.6,12.7-55.6,18.9-100.9,18.9
		c-45.3,0-78.3-6.2-100.9-18.9c-26.5-14.9-39.3-39.2-39.3-74.3v-83.4C53.3,112,95.5,58.4,153.2,41c44,0.6,67.4,32.3,67.4,55.3
		c0,17.6-14.3,31.9-31.9,31.9c-13.2,0-23.9-10.7-23.9-23.9c0-9.7,7.9-17.6,17.6-17.6c4.4,0,8-3.6,8-8c0-4.4-3.6-8-8-8
		c-18.5,0-33.6,15.1-33.6,33.6c0,22,17.9,39.9,39.9,39.9c26.4,0,47.9-21.5,47.9-47.9c0-16.6-8.3-34.5-22.3-47.8
		c-5.6-5.3-12-9.8-18.9-13.4c76.4,1,138.3,63.5,138.3,140.2v83.4h0C333.7,293.9,320.9,318.2,294.4,333z M349.7,254.9v-56.4
		c12.3,3.5,21.3,14.8,21.3,28.2C371,240,362,251.4,349.7,254.9z, M224.5,255.2c-17.1,17.1-44.8,17.1-61.9,0c-3.1-3.1-8.2-3.1-11.3,0c-3.1,3.1-3.1,8.2,0,11.3c11.6,11.6,27,17.5,42.3,17.5
		s30.6-5.8,42.3-17.5c3.1-3.1,3.1-8.2,0-11.3C232.6,252.1,227.6,252.1,224.5,255.2z"/>
</g>
</svg>
