<?xml version="1.0" encoding="utf-8"?>
<!-- Generator: Adobe Illustrator 21.0.0, SVG Export Plug-In . SVG Version: 6.00 Build 0)  -->
<svg version="1.1" id="Capa_1" xmlns="http://www.w3.org/2000/svg" xmlns:xlink="http://www.w3.org/1999/xlink" x="0px" y="0px"
	 viewBox="0 0 421.6 421.6" style="enable-background:new 0 0 421.6 421.6;" xml:space="preserve">
<g>
	<path d="M142.7,203.5c-22.2,0-40.2,18.1-40.2,40.2s18.1,40.2,40.2,40.2c22.2,0,40.2-18.1,40.2-40.2S164.9,203.5,142.7,203.5z
		 M142.7,268c-13.4,0-24.2-10.9-24.2-24.2c0-13.4,10.9-24.2,24.2-24.2c13.4,0,24.2,10.9,24.2,24.2S156.1,268,142.7,268z, M391.8,397.9c-18.7-20.8-19.5-73.6-17.3-128.3c8.2-7.7,13.3-18.5,13.3-30.6c0-10.6-3.9-20.3-10.4-27.7
		c2.7-55.8,4.2-93.1-13.5-127.6c-12.1-23.5-31.6-43.2-58.1-58.4C274.9,7.6,239.7-1.2,204,0.1c-31.4,1.1-60.6,15.7-80.7,40.3
		c-26,1.5-49.7,15.7-62.4,37.6c-1.1,1.9-2.2,3.8-3.1,5.7C40,118.2,41.5,155.5,44.2,211.3c-6.5,7.4-10.4,17.1-10.4,27.7
		c0,12.1,5.1,22.9,13.3,30.6c2.2,54.7,1.4,107.6-17.3,128.3c-1.8,2-2.5,4.7-1.8,7.2c0.6,2.6,2.5,4.7,4.9,5.6
		c21.1,8,41.5,10.8,60,10.8c19.2,0,36.2-3.1,49.5-6.7c23.2-6.3,39.6-15.1,45.1-18.3c7.6,1.3,15.4,1.9,23.3,1.9
		c7.9,0,15.7-0.7,23.3-1.9c5.6,3.3,21.9,12.1,45.1,18.3c17.8,4.8,34.3,6.7,49.2,6.7c24.9,0,45.4-5.2,60.2-10.8
		c2.5-0.9,4.3-3,4.9-5.6C394.3,402.6,393.6,399.8,391.8,397.9z M371.8,238.9c0,11.6-7.7,21.5-18.2,24.8c0.2-2.7,0.2-5.5,0.2-8.3
		v-39.7c0-0.1,0-0.2,0-0.4v-1.2C364.2,217.6,371.8,227.4,371.8,238.9z M72,91c0.9-1.7,1.8-3.4,2.7-5c10.5-18.1,30.7-29.5,52.7-29.8
		c2.4,0,4.7-1.2,6.2-3.1c17.3-22.5,43.1-36,71-37c32.7-1.2,64.9,6.8,93.2,23.1c23.7,13.7,41.2,31.1,51.8,51.8
		c14.2,27.6,14.6,57.6,12.3,109.1c-2.6-1.1-5.3-1.9-8.1-2.4v-8.1c0-4.4-3.6-8-8-8c-4.4,0-8,3.6-8,8v18.2
		c-110.2,1.2-169.9-51.9-185.8-68.5c-1.9-2-4.6-2.8-7.3-2.3c-2.7,0.5-4.9,2.3-5.9,4.8c-11.6,28.3-31.9,43.1-63.9,46.6
		c-4.1,0.4-7.1,3.9-7.1,8v1.5c-2.8,0.5-5.5,1.4-8.1,2.4C57.4,148.6,57.8,118.6,72,91z M303.1,243.8c0,13.4-10.9,24.2-24.2,24.2
		c-13.4,0-24.2-10.9-24.2-24.2c0-13.4,10.9-24.2,24.2-24.2C292.2,219.5,303.1,230.4,303.1,243.8z M67.8,214.2v41.2
		c0,2.8,0.1,5.6,0.2,8.3c-10.6-3.3-18.2-13.2-18.2-24.8C49.8,227.4,57.4,217.6,67.8,214.2z M48.5,399.1
		c14.3-24.4,16.7-64.8,14.9-120.1c2.1,0.7,4.3,1.1,6.6,1.5c9.1,51.2,45.6,93.1,93.7,109.9C140.5,400.4,96.7,413.6,48.5,399.1z
		 M210.8,382.5c-70,0-127-57-127-127l0-52.2c30-4.9,51.4-19.7,64.9-44.9c11.5,10.5,30.2,24.9,56.4,37.6
		c15.1,7.2,30.9,13.1,47.4,17.5c-8.5,7.4-13.9,18.3-13.9,30.4c0,22.2,18.1,40.2,40.2,40.2c22.2,0,40.2-18.1,40.2-40.2
		c0-7.5-2.1-14.6-5.7-20.6c8,0.5,16.1,0.7,24.4,0.6v31.7C337.8,325.5,280.8,382.5,210.8,382.5z M284,399.6
		c-10.3-2.7-19.1-6.1-26.1-9.1c48.1-16.8,84.6-58.7,93.7-110c2.3-0.3,4.4-0.8,6.6-1.5c-1.8,55.2,0.7,95.7,14.9,120.1
		C344.8,407.7,314.9,407.8,284,399.6z, M228.6,306.6c-8.2,3.3-16.5,3.3-24.7,0c-4.1-1.6-8.8,0.4-10.4,4.5c-1.6,4.1,0.4,8.8,4.5,10.4c6,2.4,12.1,3.6,18.3,3.6
		c6.2,0,12.3-1.2,18.3-3.6c4.1-1.6,6.1-6.3,4.5-10.4C237.4,306.9,232.8,304.9,228.6,306.6z"/>
	<circle cx="142.7" cy="243.8" r="13.5"/>
	<circle cx="278.8" cy="243.8" r="13.5"/>
	<path d="M122.5,286H109c-4.4,0-8,3.6-8,8c0,4.4,3.6,8,8,8h13.5c4.4,0,8-3.6,8-8C130.5,289.6,126.9,286,122.5,286z, M320.6,294c0-4.4-3.6-8-8-8h-13.5c-4.4,0-8,3.6-8,8c0,4.4,3.6,8,8,8h13.5C317,302,320.6,298.4,320.6,294z"/>
</g>
</svg>
