<?xml version="1.0" encoding="utf-8"?>
<!-- Generator: Adobe Illustrator 21.0.0, SVG Export Plug-In . SVG Version: 6.00 Build 0)  -->
<svg version="1.1" id="Capa_1" xmlns="http://www.w3.org/2000/svg" xmlns:xlink="http://www.w3.org/1999/xlink" x="0px" y="0px"
	 viewBox="0 0 49.2 49.2" style="enable-background:new 0 0 49.2 49.2;" xml:space="preserve">
<g>
	<path d="M43.6,22.6c-4.4,0-8,3.6-8,8V32c-1.8-0.6-5.2-1.5-11-1.5c-5.8,0-9.2,0.8-11,1.5v-1.5c0-4.4-3.6-8-8-8c-2.8,0-5,2.2-5,5
		c0,2,1.2,3.8,3.1,4.6c0.6,0.2,0.9,0.8,0.9,1.4l1,4c0,3.6,2.7,6.6,6.2,7c-0.8,0.4-1.4,1.2-1.4,2.2c0,1.3,1.1,2.4,2.4,2.4
		s2.4-1.1,2.4-2.4c0-0.9-0.5-1.7-1.3-2.1h21.2c-0.8,0.4-1.3,1.2-1.3,2.1c0,1.3,1.1,2.4,2.4,2.4c1.3,0,2.4-1.1,2.4-2.4
		c0-1-0.6-1.8-1.4-2.2c3.5-0.4,6.2-3.4,6.2-7l1-4c0-0.6,0.4-1.1,0.9-1.4c1.9-0.8,3.1-2.6,3.1-4.6C48.6,24.8,46.3,22.6,43.6,22.6z, M16.3,28.2c2.1-0.4,4.8-0.7,8.3-0.7c3.5,0,6.2,0.3,8.3,0.7c0.8-3.6,3.4-6.6,6.8-7.9V15c0-8.3-6.7-15-15-15
		c-8.3,0-15,6.7-15,15v5.3C13,21.7,15.5,24.6,16.3,28.2z"/>
</g>
</svg>
