<?xml version="1.0" encoding="iso-8859-1"?>
<!-- Generator: Adobe Illustrator 18.0.0, SVG Export Plug-In . SVG Version: 6.00 Build 0)  -->
<!DOCTYPE svg PUBLIC "-//W3C//DTD SVG 1.1//EN" "http://www.w3.org/Graphics/SVG/1.1/DTD/svg11.dtd">
<svg version="1.1" id="Capa_1" xmlns="http://www.w3.org/2000/svg" xmlns:xlink="http://www.w3.org/1999/xlink" x="0px" y="0px"
	 viewBox="0 0 303.475 303.475" style="enable-background:new 0 0 303.475 303.475;" xml:space="preserve">
<path d="M275.173,86.991c-0.861-3.575-8.392-30.015-42.318-33.682V50.73c0-24.319-37.21-38.612-54.52-43.946
	C178.012,2.997,174.04,0,169.176,0c-4.862,0-8.833,2.996-9.158,6.784c-15.199,4.683-45.74,16.274-52.962,35.498
	c-6.257-4.522-13.575-7.777-22.744-8.9c-27.355-3.053-54.454,17.623-56.095,45.73c-1.594,29.163,24.879,44.807,41.772,54.729
	c10.009,5.532,19.102,9.774,27.118,14.973c-6.632,2.504-11.358,8.892-11.358,16.4c0,9.688,7.855,17.543,17.543,17.543
	c0.877,0,1.732-0.086,2.575-0.21c-4.137,9.911-7.081,22.88-7.081,40.78c0,21.551,7.058,41.629,19.873,56.534
	c13.091,15.228,31.032,23.613,50.518,23.613c19.331,0,37.085-8.394,49.993-23.636c12.429-14.677,19.671-34.717,20.393-56.429
	c1.167-35.064-7.56-53.605-15.259-69.962c-3.027-6.433-5.887-12.507-8.016-19.225c-5.833-18.402-5.223-33.758,1.717-43.238
	c4.777-6.525,12.427-9.975,22.124-9.975c9.169,0,20.072,3.135,31.531,9.066c0.362,0.187,0.756,0.279,1.148,0.279
	c0.008,0,0.014,0,0.021,0c1.381,0,2.5-1.119,2.5-2.5C275.327,87.552,275.272,87.261,275.173,86.991z M58.185,77.594
	c4.969-18.519,27.549-21.495,41.531-12.218c1.75,1.354,3.483,2.789,5.211,4.266c-0.621,4.132-0.951,8.33-0.951,12.582
	c0,13.821,8.127,24.953,15.298,34.774c6.061,8.302,11.786,16.144,11.786,24.243c0,3.475-1.288,6.44-3.394,9.525
	c-2.229-6.86-7.248-13.189-12.701-17.969C100.343,120.044,50.801,103.067,58.185,77.594z"/>
<g>
</g>
<g>
</g>
<g>
</g>
<g>
</g>
<g>
</g>
<g>
</g>
<g>
</g>
<g>
</g>
<g>
</g>
<g>
</g>
<g>
</g>
<g>
</g>
<g>
</g>
<g>
</g>
<g>
</g>
</svg>
