<?xml version="1.0" encoding="iso-8859-1"?>
<!-- Generator: Adobe Illustrator 18.0.0, SVG Export Plug-In . SVG Version: 6.00 Build 0)  -->
<!DOCTYPE svg PUBLIC "-//W3C//DTD SVG 1.1//EN" "http://www.w3.org/Graphics/SVG/1.1/DTD/svg11.dtd">
<svg version="1.1" id="Capa_1" xmlns="http://www.w3.org/2000/svg" xmlns:xlink="http://www.w3.org/1999/xlink" x="0px" y="0px"
	 viewBox="0 0 375.107 375.107" style="enable-background:new 0 0 375.107 375.107;" xml:space="preserve">
<g>
	<path d="M375.107,329.045l-7.82-19.272c-0.558-1.376-13.859-34.071-30.445-67.36c-30.659-61.532-46.545-74.14-60.965-74.14
		c-14.421,0-30.308,12.608-60.968,74.139c-3.075,6.172-6.036,12.322-8.825,18.257c-5.199-11.919-11.158-25.173-17.496-38.506
		c-36.673-77.16-54.565-92.661-71.547-92.661c-16.982,0-34.875,15.501-71.549,92.661C25.7,263.803,9.575,304.698,8.898,306.418
		L0,329.04h176.645l-0.002,0.006H375.107z"/>
	<path d="M221.992,59.935c-0.415-7.721-7.684-13.873-7.684-13.873s-7.269,6.152-7.684,13.873c2.48-0.527,5.049-0.81,7.684-0.81
		C216.943,59.125,219.512,59.408,221.992,59.935z"/>
	<path d="M206.625,132.188c0.414,7.72,7.684,13.873,7.684,13.873s7.27-6.153,7.684-13.873c-2.48,0.527-5.049,0.81-7.684,0.81
		C211.674,132.998,209.105,132.715,206.625,132.188z"/>
	<path d="M250.436,103.743c7.719-0.414,13.872-7.681,13.872-7.681s-6.153-7.268-13.873-7.682c0.527,2.479,0.81,5.048,0.81,7.682
		C251.245,98.696,250.963,101.264,250.436,103.743z"/>
	<path d="M178.181,103.743c-0.526-2.479-0.809-5.047-0.809-7.681c0-2.634,0.282-5.203,0.809-7.682
		c-7.721,0.416-13.873,7.682-13.873,7.682S170.461,103.328,178.181,103.743z"/>
	<path d="M234.391,127.038c5.75,5.187,15.271,4.379,15.271,4.379s0.808-9.523-4.377-15.274
		C242.456,120.492,238.739,124.209,234.391,127.038z"/>
	<path d="M194.225,65.087c-5.748-5.187-15.27-4.38-15.27-4.38s-0.809,9.52,4.378,15.273
		C186.161,71.631,189.877,67.915,194.225,65.087z"/>
	<path d="M178.957,131.417c0,0,9.52,0.805,15.27-4.379c-4.349-2.829-8.064-6.545-10.895-10.894
		C178.148,121.894,178.957,131.417,178.957,131.417z"/>
	<path d="M245.284,75.979c5.186-5.751,4.378-15.273,4.378-15.273s-9.52-0.808-15.271,4.379
		C238.739,67.915,242.455,71.631,245.284,75.979z"/>
	<path d="M214.309,122.445c14.548,0,26.384-11.835,26.384-26.383c0-14.548-11.836-26.384-26.384-26.384
		c-14.548,0-26.384,11.836-26.384,26.384C187.925,110.609,199.761,122.445,214.309,122.445z"/>
</g>
<g>
</g>
<g>
</g>
<g>
</g>
<g>
</g>
<g>
</g>
<g>
</g>
<g>
</g>
<g>
</g>
<g>
</g>
<g>
</g>
<g>
</g>
<g>
</g>
<g>
</g>
<g>
</g>
<g>
</g>
</svg>
