<?xml version="1.0" encoding="iso-8859-1"?>
<!-- Generator: Adobe Illustrator 18.0.0, SVG Export Plug-In . SVG Version: 6.00 Build 0)  -->
<!DOCTYPE svg PUBLIC "-//W3C//DTD SVG 1.1//EN" "http://www.w3.org/Graphics/SVG/1.1/DTD/svg11.dtd">
<svg version="1.1" id="Capa_1" xmlns="http://www.w3.org/2000/svg" xmlns:xlink="http://www.w3.org/1999/xlink" x="0px" y="0px"
	 viewBox="0 0 365.351 365.351" style="enable-background:new 0 0 365.351 365.351;" xml:space="preserve">
<path d="M363.299,68.592c-5.791-5.549-4.507-10.702-7.667-13.584c-5.63-5.133-42.162-3.719-44.417-4.771
	c-6.687-4.938-11.24-7.113-13.179-5.435c-2.208,1.913,1.007,7.299-1.98,8.469c-8.425,3.299-18.237,28.137-20.64,35.541
	c-5.581,17.191-10.886,36.658-35.89,28.371c-9.867-3.272-23.808-20.068-30.552-27.648c-14.194-15.951-36.176-9.664-51.535-21.922
	c-10.373-8.283-11.578-19.549-25.545-24.822c-11.407-4.307-14.391-7.305-27.202-3.074c-18.787,6.2-31.777,27.353-46.783,39.65
	c-12.255,10.04-27.196,13.835-38.538,25.938C5.509,120.091,9.132,134.3,6.075,150.956c-0.928,2.649-1.661,5.371-2.309,8.097
	c-1.965,8.269-4.834,17.084-3.362,25.623c0.547,3.172,5.365,1.822,4.821-1.331c-0.731-4.239-0.162-8.928,0.848-13.574
	c3.417,6.575,13.079,27.677,14.606,31.977c0.524,1.477,1.215,2.96,1.301,4.528c0.942,17.084-6.64,36.318-6.41,43.815
	c0.393,12.942,15.398,32.335,19.715,45.408c4.959,15.011,3.872,35.3,25.673,31.772c21.968-3.556-1.009-11.027-6.788-15.933
	c-9.97-7.569-13.071-31.67-13.114-31.724c0.241,0.299,0.338,0.49,0.353,0.604c1.767,3.254,9.461,19.588,10.548,25.082
	c0.286,1.053,0.817,3.977,3.091,4.363c5.122,0.491,18.504-0.328,19.483-0.357c8.552-0.247-9.81-8.793-11.169-10.152
	c-14.922-12.548-20.75-48.417-19.119-65.189c1.654-17.002,7.393-28.742,13.316-43.549c6.27-15.674,13.102-21.116,14.285-21.779
	c7.812-4.37,25.107,9.51,28.611,11.486c12.985,7.318,26.023,4.111,39.977,2.928c8.55-0.727,28.503-3.313,26.38,9.566
	c-2.459,14.92-4.491,29.703-7.587,44.508c-3.223,15.428-1.713,32.218-2.492,47.975c-0.213,4.309-4.313,15.424-2.338,19.283
	c3.123,6.098-4.059,9.801-1.843,13.879c2.379,4.381,34.054,6.792,30.182,1.418c-6.077-8.436-16.112-8.818-16.112-8.818
	s25.339,1.225,16.929-6.6c-4.259-3.963-11.358-2.162-12.485-10.16c-0.902-6.432-1.094-13.009-0.971-19.492
	c0.516-27.502,13.074-55.626,23.451-80.829c12.145-29.499,35.812-24.534,63.58-28.563c15.595-2.266,27.331-15.401,37.406-27.007
	c13.641-15.712,30.871-61.378,51.391-59.163c17.53,1.89,18.887,1.721,19.281-1.611C365.591,74.613,365.299,70.508,363.299,68.592z"
	/>
<g>
</g>
<g>
</g>
<g>
</g>
<g>
</g>
<g>
</g>
<g>
</g>
<g>
</g>
<g>
</g>
<g>
</g>
<g>
</g>
<g>
</g>
<g>
</g>
<g>
</g>
<g>
</g>
<g>
</g>
</svg>
