<?xml version="1.0" encoding="iso-8859-1"?>
<!-- Generator: Adobe Illustrator 18.0.0, SVG Export Plug-In . SVG Version: 6.00 Build 0)  -->
<!DOCTYPE svg PUBLIC "-//W3C//DTD SVG 1.1//EN" "http://www.w3.org/Graphics/SVG/1.1/DTD/svg11.dtd">
<svg version="1.1" id="Capa_1" xmlns="http://www.w3.org/2000/svg" xmlns:xlink="http://www.w3.org/1999/xlink" x="0px" y="0px"
	 viewBox="0 0 245.01 245.01" style="enable-background:new 0 0 245.01 245.01;" xml:space="preserve">
<path d="M244.914,188.109l-9.951-133.345c-0.39-5.22-4.738-9.256-9.973-9.256h-31.994v54.413h2.666c2.571,0,4.737,1.92,5.047,4.473
	l4.181,34.545c0.073,0.344,0.112,0.7,0.112,1.066c0,2.808-2.276,5.083-5.084,5.083c-0.005,0-0.013,0.001-0.02,0h-28.805
	c-1.455,0-2.84-0.623-3.805-1.711c-0.965-1.089-1.417-2.539-1.242-3.982l4.236-35c0.31-2.553,2.476-4.473,5.047-4.473h2.666V45.509
	H20c-5.234,0-9.583,4.036-9.973,9.256l-10,133.992c-0.207,2.773,0.751,5.509,2.644,7.547c1.892,2.039,4.548,3.197,7.329,3.197
	h224.99c0.008,0,0.016,0.001,0.02,0c5.523,0,10-4.478,10-10C245.01,189.028,244.978,188.564,244.914,188.109z"/>
<g>
</g>
<g>
</g>
<g>
</g>
<g>
</g>
<g>
</g>
<g>
</g>
<g>
</g>
<g>
</g>
<g>
</g>
<g>
</g>
<g>
</g>
<g>
</g>
<g>
</g>
<g>
</g>
<g>
</g>
</svg>
