<?xml version="1.0" encoding="iso-8859-1"?>
<!-- Generator: Adobe Illustrator 19.0.0, SVG Export Plug-In . SVG Version: 6.00 Build 0)  -->
<svg version="1.1" id="Capa_1" xmlns="http://www.w3.org/2000/svg" xmlns:xlink="http://www.w3.org/1999/xlink" x="0px" y="0px"
	 viewBox="0 0 512 512" style="enable-background:new 0 0 512 512;" xml:space="preserve">
<g>
	<g>
		<path d="M226,0c-16.5,0-30,13.5-30,30s13.5,31,30,31h58.801l2.399,12.5c2.4,11.7,7.8,21.901,16.501,30.3
			c11.1,11.4,26.1,18.2,42.299,18.2h45V25.199C332.8,6.599,283.9,0,226,0z"/>
	</g>
</g>
<g>
	<g>
		<path d="M497,31h-61c-5.4,0-10.201,0.899-15,2.699v324.6c4.799,1.8,9.6,2.701,15,2.701h61c8.401,0,15-6.601,15-15V46
			C512,37.599,505.401,31,497,31z"/>
	</g>
</g>
<g>
	<g>
		<path d="M206.605,486.394L157.211,436l19.395-19.395c4.292-4.292,5.581-10.737,3.252-16.348C177.543,394.647,172.064,391,166,391
			H15c-8.291,0-15,6.709-15,15v91c0,8.291,6.709,15,15,15h181c6.064,0,11.543-3.647,13.857-9.258
			C212.186,497.132,210.897,490.686,206.605,486.394z"/>
	</g>
</g>
<g>
	<g>
		<path d="M406,391H286c-3.984,0-7.793,1.582-10.605,4.395l-60,60c-5.859,5.859-5.859,15.352,0,21.211l30,31
			C248.207,510.418,252.016,512,256,512h150c8.291,0,15-6.709,15-15v-91C421,397.709,414.291,391,406,391z"/>
	</g>
</g>
<g>
	<g>
		<path d="M346,152c-24.3,0-46.8-10.099-63.9-27.199C271.601,114.6,264.101,101.399,259.9,87H80.2c-12.301,0-22.5,10.201-22.5,22.5
			c0,11.367,9.706,22.5,22.5,22.5h112.5c8.399,0,15,6.601,15,15c0,8.915-7.067,15-15,15H22.5C10.544,162,0,171.856,0,184.5
			C0,196.339,9.761,207,22.5,207h170.2c8.399,0,15,6.601,15,15c0,8.179-6.34,15-15,15H80.2c-12.746,0-22.5,10.577-22.5,22.5
			c0,11.588,9.677,22.5,22.5,22.5h112.5c8.85,0,15,7.28,15,15c0,8.401-6.601,15-15,15h-52.5c-10.201,0-18.9,6.899-21.601,16.5v0.3
			c-4.255,12.787,6.309,28.2,21.601,28.2h242.399c3.001,0,5.7,0,8.401-0.3V152H346z"/>
	</g>
</g>
<g>
</g>
<g>
</g>
<g>
</g>
<g>
</g>
<g>
</g>
<g>
</g>
<g>
</g>
<g>
</g>
<g>
</g>
<g>
</g>
<g>
</g>
<g>
</g>
<g>
</g>
<g>
</g>
<g>
</g>
</svg>
