<?xml version="1.0" encoding="iso-8859-1"?>
<!-- Generator: Adobe Illustrator 19.0.0, SVG Export Plug-In . SVG Version: 6.00 Build 0)  -->
<svg version="1.1" id="Capa_1" xmlns="http://www.w3.org/2000/svg" xmlns:xlink="http://www.w3.org/1999/xlink" x="0px" y="0px"
	 viewBox="0 0 512 512" style="enable-background:new 0 0 512 512;" xml:space="preserve">
<g>
	<g>
		<rect x="226.001" y="361" width="60" height="61"/>
	</g>
</g>
<g>
	<g>
		<path d="M360.52,488.631C358.099,467.702,340.42,452,319.352,452H192.651c-21.026,0-38.752,15.745-41.168,36.631
			c-0.318,2.744-0.482,5.536-0.482,8.369c0,8.291,6.709,15,15,15h180c8.291,0,15-6.709,15-15
			C361.001,494.167,360.837,491.375,360.52,488.631z"/>
	</g>
</g>
<g>
	<g>
		<path d="M380.54,227.128c-13.315-25.093-39.038-41.807-70.049-45.396c20.744-24.213,35.51-60.6,35.51-90.732
			c0-49.629-40.371-91-90-91c-49.629,0-90,41.371-90,91c0,30.073,14.707,66.401,35.391,90.601
			c-30.264,3.31-56.441,20.127-69.932,45.527c-13.447,25.298-13.887,55.562-1.187,80.962c7.021,14.041,21.371,22.91,37.069,22.91
			h177.316c15.698,0,30.049-8.869,37.069-22.91C394.427,282.69,393.988,252.426,380.54,227.128z"/>
	</g>
</g>
<g>
</g>
<g>
</g>
<g>
</g>
<g>
</g>
<g>
</g>
<g>
</g>
<g>
</g>
<g>
</g>
<g>
</g>
<g>
</g>
<g>
</g>
<g>
</g>
<g>
</g>
<g>
</g>
<g>
</g>
</svg>
