<?xml version="1.0" encoding="iso-8859-1"?>
<!-- Generator: Adobe Illustrator 19.0.0, SVG Export Plug-In . SVG Version: 6.00 Build 0)  -->
<svg version="1.1" id="Capa_1" xmlns="http://www.w3.org/2000/svg" xmlns:xlink="http://www.w3.org/1999/xlink" x="0px" y="0px"
	 viewBox="0 0 512 512" style="enable-background:new 0 0 512 512;" xml:space="preserve">
<g>
	<g>
		<path d="M507.603,4.397c-5.863-5.863-15.351-5.863-21.213,0l-41.321,41.321c-13.736-6.517-30.105-5.676-43.188,2.504
			c12.268,7.77,23.839,16.873,34.431,27.465c10.592,10.593,19.696,22.164,27.466,34.432c8.18-13.082,9.021-29.452,2.504-43.188
			l41.321-41.321C513.466,19.748,513.466,10.259,507.603,4.397z"/>
	</g>
</g>
<g>
	<g>
		<path d="M393.886,118.114c-9.519-9.519-78.731,15.092-169.706,106.066c-90.974,90.975-115.585,160.187-106.066,169.706
			c9.519,9.519,78.731-15.092,169.706-106.066C378.794,196.845,403.405,127.633,393.886,118.114z"/>
	</g>
</g>
<g>
	<g>
		<path d="M118.114,118.114c-87.733,87.732-97.241,220.957-21.213,296.985c-36.44-36.439,29.437-135.503,106.066-212.132
			C279.596,126.338,378.66,60.461,415.099,96.901C339.071,20.873,205.847,30.382,118.114,118.114z"/>
	</g>
</g>
<g>
	<g>
		<path d="M415.099,96.901c36.439,36.439-29.438,135.503-106.066,212.132C232.404,385.661,133.34,451.538,96.901,415.099
			c76.028,76.028,209.253,66.519,296.985-21.213C481.618,306.153,491.127,172.929,415.099,96.901z"/>
	</g>
</g>
<g>
	<g>
		<path d="M75.688,436.312c-10.592-10.592-19.696-22.164-27.466-34.431c-8.18,13.082-9.021,29.452-2.504,43.188L4.397,486.39
			c-5.863,5.862-5.863,15.351,0,21.213c5.863,5.863,15.35,5.863,21.213,0l41.321-41.321c13.736,6.517,30.106,5.676,43.188-2.504
			C97.851,456.008,86.28,446.905,75.688,436.312z"/>
	</g>
</g>
<g>
</g>
<g>
</g>
<g>
</g>
<g>
</g>
<g>
</g>
<g>
</g>
<g>
</g>
<g>
</g>
<g>
</g>
<g>
</g>
<g>
</g>
<g>
</g>
<g>
</g>
<g>
</g>
<g>
</g>
</svg>
