<?xml version="1.0" encoding="iso-8859-1"?>
<!-- Generator: Adobe Illustrator 19.0.0, SVG Export Plug-In . SVG Version: 6.00 Build 0)  -->
<svg version="1.1" id="Capa_1" xmlns="http://www.w3.org/2000/svg" xmlns:xlink="http://www.w3.org/1999/xlink" x="0px" y="0px"
	 viewBox="0 0 511.999 511.999" style="enable-background:new 0 0 511.999 511.999;" xml:space="preserve">
<g>
	<g>
		<path d="M503.208,452l-89.236-89.251l42.421-42.421c5.856-5.855,5.856-15.355,0-21.211
			c-37.356-37.331-95.866-40.218-136.965-9.408L25.451,4.24C19.504-1.531,10.012-1.399,4.24,4.563
			c-5.771,5.933-5.625,15.439,0.322,21.211l293.68,285.179c-30.561,41.084-27.599,99.392,9.662,136.653
			c5.859,5.859,15.352,5.859,21.211,0l0.271-0.271c2.161,15.621,8.956,30.707,20.94,42.692
			c14.224,14.224,33.31,21.973,53.012,21.973c19.915,0,38.354-8.326,52.541-22.487l4.909,4.909c11.7,11.7,30.706,11.7,42.421,0.015
			c5.669-5.669,8.789-13.213,8.789-21.226S508.877,457.669,503.208,452z M371.536,468.815c-17.549-17.548-17.549-46.083,0-63.631
			l63.363,63.353C417.219,486.095,389.175,486.454,371.536,468.815z"/>
	</g>
</g>
<g>
	<g>
		<path d="M213.763,310.952l20.706-20.133l-21.533-20.907l-20.362,19.797c-41.086-30.793-99.593-27.951-136.963,9.406
			c-5.856,5.855-5.856,15.355,0,21.211l42.421,42.421L8.796,451.999c-11.725,11.725-11.731,30.69,0,42.421
			c11.7,11.7,30.72,11.7,42.421,0l4.395-4.395c29.238,29.237,76.829,29.239,106.067,0c11.984-11.984,18.781-27.072,20.942-42.69
			l0.269,0.269c5.859,5.859,15.352,5.859,21.211,0C241.362,410.343,244.325,352.036,213.763,310.952z M140.469,468.815
			c-17.549,17.563-46.092,17.536-63.645,0.002l63.645-63.633c8.496,8.496,13.169,19.79,13.169,31.815
			C153.637,449.025,148.964,460.319,140.469,468.815z"/>
	</g>
</g>
<g>
	<g>
		<path d="M507.764,4.563c-5.786-5.962-15.264-6.094-21.211-0.322L277.535,207.195l21.535,20.907L507.442,25.774
			C513.389,20.003,513.536,10.496,507.764,4.563z"/>
	</g>
</g>
<g>
</g>
<g>
</g>
<g>
</g>
<g>
</g>
<g>
</g>
<g>
</g>
<g>
</g>
<g>
</g>
<g>
</g>
<g>
</g>
<g>
</g>
<g>
</g>
<g>
</g>
<g>
</g>
<g>
</g>
</svg>
