<?xml version="1.0" encoding="iso-8859-1"?>
<!-- Generator: Adobe Illustrator 19.0.0, SVG Export Plug-In . SVG Version: 6.00 Build 0)  -->
<svg version="1.1" id="Capa_1" xmlns="http://www.w3.org/2000/svg" xmlns:xlink="http://www.w3.org/1999/xlink" x="0px" y="0px"
	 viewBox="0 0 512 512" style="enable-background:new 0 0 512 512;" xml:space="preserve">
<g>
	<g>
		<path d="M497,482h-47.245c0.385-5.015,1.245-9.961,1.245-15c0-31.653-8.34-65.236-24.996-95.03
			c-9.479-16.809-21.442-32.256-35.618-45.778c-0.923,8.562-3.122,17.023-6.755,25.232C364.97,393.641,313.671,422,256,422
			c17.957,0,35.061,4.556,50.059,12.693c19.318,10.483,34.973,27.008,44.623,47.307H301v-35.374
			c-14.445,3.349-29.495,5.374-45,5.374s-30.555-2.025-45-5.374V482h-49.682c9.65-20.299,25.305-36.824,44.623-47.307
			C220.939,426.556,238.043,422,256,422c-57.671,0-108.97-28.359-127.632-70.576c-3.633-8.208-5.832-16.67-6.755-25.232
			c-14.176,13.522-26.138,28.969-35.618,45.778C68.999,402.374,61,436.734,61,467c0,5.039,0.861,9.985,1.245,15H15
			c-8.291,0-15,6.709-15,15c0,8.291,6.709,15,15,15c482.23,0,252.742,0,482,0c8.291,0,15-6.709,15-15
			C512,488.709,505.291,482,497,482z"/>
	</g>
</g>
<g>
	<g>
		<path d="M327.669,67.896C318.552,99.041,290.052,122,256,122s-62.552-22.959-71.669-54.104C172.784,83.194,166,101.974,166,122
			c0,49.629,40.371,90,90,90c49.629,0,90-40.371,90-90C346,101.974,339.216,83.194,327.669,67.896z"/>
	</g>
</g>
<g>
	<g>
		<path d="M256,0c-24.814,0-45,21.186-45,46c0,24.814,20.186,46,45,46c24.814,0,45-21.186,45-46C301,21.186,280.814,0,256,0z"/>
	</g>
</g>
<g>
	<g>
		<path d="M371.238,153.613C357.259,204.39,311.155,242,256,242c-55.155,0-101.259-37.61-115.237-88.387
			C91.439,183.95,61,232.815,61,287c0,17.946,3.8,35.299,10.25,51.835c15.344-22.013,34.702-41.431,57.506-57.124
			c5.065-11.984,12.469-23.729,22.537-34.805c5.596-6.108,15.103-6.548,21.196-1.011c6.123,5.581,6.577,15.073,1.011,21.196
			c-21.855,24.023-27.964,48.984-17.695,72.202C169.53,370.32,210.736,392,256,392c45.264,0,86.47-21.68,100.195-52.705
			c10.269-23.218,4.16-48.179-17.695-72.202c-5.566-6.123-5.112-15.615,1.011-21.196c6.137-5.538,15.615-5.098,21.196,1.01
			c10.067,11.076,17.472,22.82,22.537,34.805c22.804,15.692,42.162,35.11,57.506,57.124C447.201,322.299,451,304.946,451,287
			C451,232.815,420.561,183.95,371.238,153.613z M256,362c-8.284,0-15-6.716-15-15c0-8.286,6.716-15,15-15s15,6.714,15,15
			C271,355.284,264.284,362,256,362z"/>
	</g>
</g>
<g>
</g>
<g>
</g>
<g>
</g>
<g>
</g>
<g>
</g>
<g>
</g>
<g>
</g>
<g>
</g>
<g>
</g>
<g>
</g>
<g>
</g>
<g>
</g>
<g>
</g>
<g>
</g>
<g>
</g>
</svg>
