<?xml version="1.0" encoding="iso-8859-1"?>
<!-- Generator: Adobe Illustrator 19.0.0, SVG Export Plug-In . SVG Version: 6.00 Build 0)  -->
<svg version="1.1" id="Capa_1" xmlns="http://www.w3.org/2000/svg" xmlns:xlink="http://www.w3.org/1999/xlink" x="0px" y="0px"
	 viewBox="0 0 512 512" style="enable-background:new 0 0 512 512;" xml:space="preserve">
<g>
	<g>
		<path d="M195.003,482.002h-37.498l-14.999-29.999H67.508l-14.999,29.999H15.01c-8.291,0-14.999,6.709-14.999,14.999
			S6.719,512,15.01,512h179.993c8.291,0,14.999-6.709,14.999-14.999S203.293,482.002,195.003,482.002z"/>
	</g>
</g>
<g>
	<g>
		<path d="M496.99,482.002h-37.498l-14.999-29.999h-74.997l-14.999,29.999h-37.498c-8.291,0-14.999,6.709-14.999,14.999
			S308.707,512,316.998,512H496.99c8.291,0,14.999-6.709,14.999-14.999S505.282,482.002,496.99,482.002z"/>
	</g>
</g>
<g>
	<g>
		<path d="M494.752,248.125c-2.734-4.422-7.562-7.114-12.759-7.114H30.008c-5.199,0-10.027,2.692-12.76,7.114
			c-2.732,4.422-2.981,9.944-0.656,14.592l14.999,30.001c2.549,5.083,7.734,8.291,13.417,8.291c58.44,0,363.415,0,421.983,0
			c5.684,0,10.869-3.208,13.417-8.291l14.999-30.001C497.733,258.069,497.484,252.547,494.752,248.125z"/>
	</g>
</g>
<g>
	<g>
		<rect x="376.995" y="331.007" width="59.997" height="90.996"/>
	</g>
</g>
<g>
	<g>
		<path d="M506.058,3.082c-3.735-2.842-8.643-3.823-13.095-2.505C491.908,0.87,384.77,30.019,256,30.019S20.093,0.871,19.039,0.578
			C14.512-0.741,9.664,0.241,5.943,3.082C2.209,5.91,0.011,10.333,0.011,15.021v60.997c0,8.287,6.716,14.999,14.999,14.999h481.98
			c8.284,0,14.999-6.714,14.999-14.999V15.021C511.99,10.333,509.793,5.91,506.058,3.082z"/>
	</g>
</g>
<g>
	<g>
		<path d="M30.01,121.017v14.999c0,24.813,20.185,44.998,44.998,44.998v29.999h59.998v-29.999c24.813,0,44.998-20.185,44.998-44.998
			v-14.999H30.01z"/>
	</g>
</g>
<g>
	<g>
		<path d="M331.997,121.017v14.999c0,24.813,20.185,44.998,44.998,44.998v29.999h59.997v-29.999
			c24.813,0,44.998-20.185,44.998-44.998v-14.999H331.997z"/>
	</g>
</g>
<g>
	<g>
		<rect x="225.002" y="121.015" width="60.997" height="89.996"/>
	</g>
</g>
<g>
	<g>
		<rect x="75.008" y="331.007" width="59.998" height="90.996"/>
	</g>
</g>
<g>
</g>
<g>
</g>
<g>
</g>
<g>
</g>
<g>
</g>
<g>
</g>
<g>
</g>
<g>
</g>
<g>
</g>
<g>
</g>
<g>
</g>
<g>
</g>
<g>
</g>
<g>
</g>
<g>
</g>
</svg>
