<?xml version="1.0" encoding="iso-8859-1"?>
<!-- Generator: Adobe Illustrator 19.0.0, SVG Export Plug-In . SVG Version: 6.00 Build 0)  -->
<svg version="1.1" id="Capa_1" xmlns="http://www.w3.org/2000/svg" xmlns:xlink="http://www.w3.org/1999/xlink" x="0px" y="0px"
	 viewBox="0 0 512 512" style="enable-background:new 0 0 512 512;" xml:space="preserve">
<g>
	<g>
		<path d="M211,362C93.241,362,0,315.872,0,257v45c0,115.796,95.204,210,211,210s211-94.204,211-210v-45
			C422,315.872,328.759,362,211,362z"/>
	</g>
</g>
<g>
	<g>
		<path d="M211,182c-106.084,0-181,39.521-181,75s74.916,75,181,75s181-39.521,181-75S317.084,182,211,182z M179.418,293.709
			c-3.691,7.361-12.647,10.423-20.127,6.709l-60-30c-7.412-3.706-10.415-12.715-6.709-20.127
			c3.735-7.412,12.715-10.386,20.127-6.709l60,30C180.121,277.288,183.124,286.297,179.418,293.709z M322.709,270.418l-60,30
			c-7.487,3.718-16.439,0.646-20.127-6.709c-3.706-7.412-0.703-16.421,6.709-20.127l60-30c7.397-3.677,16.421-0.703,20.127,6.709
			C333.124,257.703,330.121,266.712,322.709,270.418z"/>
	</g>
</g>
<g>
	<g>
		<path d="M211,0C95.204,0,0,96.204,0,212v45c0-58.872,93.241-105,211-105s211,46.128,211,105v-45C422,96.204,326.796,0,211,0z"/>
	</g>
</g>
<g>
	<g>
		<path d="M497,332h-17.578c-9.84,0-19.486-2.029-28.7-5.255c-3.012,29.255-11.514,56.841-24.108,82.046
			c16.35,8.264,34.343,13.209,52.808,13.209H497c8.291,0,15-6.709,15-15v-60C512,338.709,505.291,332,497,332z"/>
	</g>
</g>
<g>
	<g>
		<path d="M437,422h-17.474c-16.153,27.825-38.718,52.037-64.27,71.349C373.902,505.267,396.709,512,419.422,512H437
			c8.291,0,15-6.709,15-15v-60C452,428.709,445.291,422,437,422z"/>
	</g>
</g>
<g>
</g>
<g>
</g>
<g>
</g>
<g>
</g>
<g>
</g>
<g>
</g>
<g>
</g>
<g>
</g>
<g>
</g>
<g>
</g>
<g>
</g>
<g>
</g>
<g>
</g>
<g>
</g>
<g>
</g>
</svg>
