<?xml version="1.0" encoding="iso-8859-1"?>
<!-- Generator: Adobe Illustrator 19.0.0, SVG Export Plug-In . SVG Version: 6.00 Build 0)  -->
<svg version="1.1" id="Capa_1" xmlns="http://www.w3.org/2000/svg" xmlns:xlink="http://www.w3.org/1999/xlink" x="0px" y="0px"
	 viewBox="0 0 512 512" style="enable-background:new 0 0 512 512;" xml:space="preserve">
<g>
	<g>
		<rect x="211" y="211" width="90" height="90"/>
	</g>
</g>
<g>
	<g>
		<path d="M90,331v91c75.991,0,135.009,0,211,0v-91H90z"/>
	</g>
</g>
<g>
	<g>
		<path d="M90,90c0,75.991,0,135.009,0,211h91V90H90z"/>
	</g>
</g>
<g>
	<g>
		<path d="M211,90v91h210V90C345.009,90,286.991,90,211,90z"/>
	</g>
</g>
<g>
	<g>
		<path d="M466,0H45C20.186,0,0,20.186,0,45v422c0,24.814,20.186,45,45,45h421c24.814,0,46-20.186,46-45V45
			C512,20.186,490.814,0,466,0z M451,150.199c0,3.048,0,4.035,0,4.004c0,14.201,0,73.175,0,282.797c0,8.291-6.709,15-15,15
			c-139.454,0-244.356,0-361,0c-8.291,0-15-6.709-15-15c0-139.454,0-245.356,0-362c0-8.291,6.709-15,15-15
			c116.505,0,221.356,0,361,0c8.291,0,15,6.709,15,15C451,122.813,451,142.718,451,150.199z"/>
	</g>
</g>
<g>
	<g>
		<path d="M331,211c0,75.991,0,135.009,0,211h90V211H331z"/>
	</g>
</g>
<g>
</g>
<g>
</g>
<g>
</g>
<g>
</g>
<g>
</g>
<g>
</g>
<g>
</g>
<g>
</g>
<g>
</g>
<g>
</g>
<g>
</g>
<g>
</g>
<g>
</g>
<g>
</g>
<g>
</g>
</svg>
