<?xml version="1.0" encoding="iso-8859-1"?>
<!-- Generator: Adobe Illustrator 19.0.0, SVG Export Plug-In . SVG Version: 6.00 Build 0)  -->
<svg version="1.1" id="Capa_1" xmlns="http://www.w3.org/2000/svg" xmlns:xlink="http://www.w3.org/1999/xlink" x="0px" y="0px"
	 viewBox="0 0 512 512" style="enable-background:new 0 0 512 512;" xml:space="preserve">
<g>
	<g>
		<polygon points="183.302,301 213.296,512 298.708,512 328.702,301 		"/>
	</g>
</g>
<g>
	<g>
		<path d="M448.483,217.68c-0.273-0.408-0.696-0.623-1-0.994c-2.992-3.693-7.82-5.685-11.481-5.685c-24.814,0-45-20.186-45-45
			v-53.91c0-7.925-1.917-15.359-5.096-22.09h20.096c24.814,0,45-20.186,45-45c0-24.814-20.186-45-45-45c-24.814,0-45,20.186-45,45
			v20.096c-6.731-3.18-14.165-5.097-22.09-5.097c-19.849,0-37.69,11.03-46.582,28.799l-9.492,18.999
			C279.073,115.327,271.5,120,263.077,120h-14.15c-8.423,0-15.996-4.673-19.761-12.188l-9.492-19.028
			C210.782,71.03,192.94,60,173.092,60c-7.925,0-15.359,1.917-22.09,5.096V45c0-24.814-20.186-45-45-45c-24.814,0-45,20.186-45,45
			c0,24.814,20.186,45,45,45h20.096c-3.179,6.731-5.096,14.165-5.096,22.09V166c0,24.814-20.186,45-45,45
			c-4.105,0-9.803,2.664-12.48,6.68c-15.308,22.96-26.312,47.732-33.547,73.295c12.251,5.277,24.76,8.635,37.414,9.659
			c28.726,2.3,56.426-6.855,77.988-25.884c2.739-2.417,6.27-3.75,9.917-3.75c115.696,0,84.859,0,201.416,0
			c3.647,0,7.178,1.333,9.917,3.75c28.149,24.805,70.794,35.046,115.353,15.996C474.744,265.263,463.745,240.57,448.483,217.68z
			 M391.002,45c0-8.276,6.724-15,15-15s15,6.724,15,15s-6.724,15-15,15h-15V45z M121.002,60h-15c-8.276,0-15-6.724-15-15
			s6.724-15,15-15s15,6.724,15,15V60z M286.002,241h-60c-8.291,0-15-6.709-15-15s6.709-15,15-15h60c8.291,0,15,6.709,15,15
			S294.293,241,286.002,241z"/>
	</g>
</g>
<g>
	<g>
		<path d="M153.677,305.827c-25.426,18.065-55.999,27.387-88.706,24.705c-11.942-0.963-26.133-3.701-41.631-9.721
			c-9.933,62.754,3.331,129.242,40.181,184.51c0.22,0.329,0.597,0.448,0.837,0.754c2.747,3.523,7.13,5.925,11.644,5.925h106.981
			L153.677,305.827z"/>
	</g>
</g>
<g>
	<g>
		<path d="M488.649,320.743c-48.861,18.768-96.472,9.146-130.368-14.589L329.021,512h106.981c4.527,0,8.906-2.416,11.644-5.925
			c0.24-0.306,0.617-0.425,0.837-0.754C485.346,450.032,498.603,383.517,488.649,320.743z"/>
	</g>
</g>
<g>
</g>
<g>
</g>
<g>
</g>
<g>
</g>
<g>
</g>
<g>
</g>
<g>
</g>
<g>
</g>
<g>
</g>
<g>
</g>
<g>
</g>
<g>
</g>
<g>
</g>
<g>
</g>
<g>
</g>
</svg>
