<?xml version="1.0" encoding="iso-8859-1"?>
<!-- Generator: Adobe Illustrator 19.0.0, SVG Export Plug-In . SVG Version: 6.00 Build 0)  -->
<svg version="1.1" id="Capa_1" xmlns="http://www.w3.org/2000/svg" xmlns:xlink="http://www.w3.org/1999/xlink" x="0px" y="0px"
	 viewBox="0 0 512 512" style="enable-background:new 0 0 512 512;" xml:space="preserve">
<g>
	<g>
		<path d="M503.94,1.662C498-1.306,491-0.246,486.332,4.422c-12.515,12.515-22.319,23.898-36.911,31.82
			c-14.729,8.18-31.971,12.496-48.578,11.667c-7.209,0-17.23-1.504-27.366-4.879c-5.939-1.697-12.517,0.636-15.909,5.727
			l-95.885,134.067l67.247,67.247l69.366-51.973c5.517-4.243,10.819-8.698,16.335-13.365c0,0,0,0,0.212-0.212
			c23.385-20.35,40.018-40.829,56.216-65.548c19.516-30.547,33.304-64.701,40.729-100.976C512.849,11.421,509.88,5.057,503.94,1.662
			z"/>
	</g>
</g>
<g>
	<g>
		<rect x="110.448" y="356.565" transform="matrix(0.7071 -0.7071 0.7071 0.7071 -236.5997 201.9272)" width="30" height="59.999"/>
	</g>
</g>
<g>
	<g>
		<rect x="68.008" y="398.985" transform="matrix(0.7071 -0.7071 0.7071 0.7071 -279.0254 184.3424)" width="30" height="59.999"/>
	</g>
</g>
<g>
	<g>
		<path d="M29.984,439.59L8.771,460.803c-11.694,11.694-11.694,30.732,0,42.427c11.694,11.694,30.732,11.694,42.426,0l21.213-21.213
			L29.984,439.59z"/>
	</g>
</g>
<g>
	<g>
		<path d="M210.562,301.406c-7.34-7.338-13.662-15.118-19.32-23.107l-55.192,55.225l42.427,42.426l55.192-55.225
			C225.68,315.067,217.9,308.745,210.562,301.406z"/>
	</g>
</g>
<g>
	<g>
		<path d="M376.082,251.946l-39.94,29.652c-5.971,4.434-14.289,3.822-19.548-1.437l-84.965-84.965
			c-5.182-5.182-5.861-13.348-1.607-19.314l28.523-40.01c-18.88-0.735-35.818,4.876-47.985,17.043
			c-29.738,29.737-20.416,85.65,21.213,127.279c41.629,41.629,97.541,50.951,127.279,21.213
			C371.595,288.864,377.202,271.395,376.082,251.946z"/>
	</g>
</g>
<g>
</g>
<g>
</g>
<g>
</g>
<g>
</g>
<g>
</g>
<g>
</g>
<g>
</g>
<g>
</g>
<g>
</g>
<g>
</g>
<g>
</g>
<g>
</g>
<g>
</g>
<g>
</g>
<g>
</g>
</svg>
