<?xml version="1.0" encoding="iso-8859-1"?>
<!-- Generator: Adobe Illustrator 19.0.0, SVG Export Plug-In . SVG Version: 6.00 Build 0)  -->
<svg version="1.1" id="Capa_1" xmlns="http://www.w3.org/2000/svg" xmlns:xlink="http://www.w3.org/1999/xlink" x="0px" y="0px"
	 viewBox="0 0 511.996 511.996" style="enable-background:new 0 0 511.996 511.996;" xml:space="preserve">
<g>
	<g>
		<path d="M23.763,424.706L13.27,435.202c-17.693,17.689-17.693,46.174,0,63.566c8.696,8.995,20.087,13.193,31.785,13.193
			c11.39,0,23.088-4.198,31.781-13.193l10.493-10.495L23.763,424.706z"/>
	</g>
</g>
<g>
	<g>
		<polygon points="66.041,382.129 45.055,403.419 108.617,466.984 129.907,445.995 		"/>
	</g>
</g>
<g>
	<g>
		<polygon points="108.617,339.853 87.329,360.84 151.194,424.706 172.185,403.419 		"/>
	</g>
</g>
<g>
	<g>
		<path d="M266.436,307.968c-7.496,5.099-16.192,8.097-25.489,8.097c-11.991,0-23.088-4.796-31.781-13.193
			c-8.396-8.694-13.195-19.788-13.195-31.783c0-9.295,3.001-17.989,8.097-25.485c-0.301-0.3-0.301-0.601-0.601-0.901l-73.859,73.861
			l63.865,63.865l73.862-74.161C267.035,308.269,266.735,308.269,266.436,307.968z"/>
	</g>
</g>
<g>
	<g>
		<path d="M497.008,149.955h-16.514c-2.803-25.346-12.547-48.903-28.443-68.781l11.636-11.64c5.856-5.856,5.856-15.344,0-21.2
			s-15.344-5.856-21.2,0l-11.67,11.671c-20.365-16.253-44.101-25.758-68.737-28.5V15.028c0-8.286-6.705-14.992-14.992-14.992
			s-14.992,6.705-14.992,14.992v16.478c-24.637,2.742-48.372,12.248-68.737,28.502l-11.669-11.672c-5.856-5.856-15.344-5.856-21.2,0
			s-5.856,15.344,0,21.2l11.636,11.64c-15.896,19.878-25.639,43.435-28.443,68.781h-16.514c-8.286,0-14.992,6.705-14.992,14.992
			s6.705,14.992,14.992,14.992h16.513c2.803,25.346,12.547,48.903,28.443,68.781l-11.636,11.64c-5.856,5.856-5.856,15.344,0,21.2
			c2.928,2.928,6.764,4.393,10.599,4.393s7.672-1.464,10.599-4.393l11.669-11.672c20.365,16.251,44.101,25.758,68.737,28.496v16.483
			c0,8.286,6.705,14.992,14.992,14.992s14.992-6.705,14.992-14.992v-16.483c24.64-2.74,48.372-12.245,68.737-28.495l11.669,11.671
			c2.928,2.928,6.764,4.393,10.599,4.393c3.835,0,7.672-1.464,10.599-4.393c5.856-5.856,5.856-15.344,0-21.2l-11.636-11.64
			c15.896-19.878,25.639-43.435,28.443-68.781h16.514c8.287,0,14.992-6.705,14.992-14.992
			C511.996,156.661,505.295,149.955,497.008,149.955z M357.689,175.547c-5.856,5.856-15.344,5.856-21.2,0
			c-5.856-5.855-5.856-15.347,0-21.202c5.856-5.855,15.344-5.855,21.2,0C363.545,160.2,363.546,169.692,357.689,175.547z"/>
	</g>
</g>
<g>
</g>
<g>
</g>
<g>
</g>
<g>
</g>
<g>
</g>
<g>
</g>
<g>
</g>
<g>
</g>
<g>
</g>
<g>
</g>
<g>
</g>
<g>
</g>
<g>
</g>
<g>
</g>
<g>
</g>
</svg>
