<?xml version="1.0" encoding="iso-8859-1"?>
<!-- Generator: Adobe Illustrator 19.0.0, SVG Export Plug-In . SVG Version: 6.00 Build 0)  -->
<svg version="1.1" id="Capa_1" xmlns="http://www.w3.org/2000/svg" xmlns:xlink="http://www.w3.org/1999/xlink" x="0px" y="0px"
	 viewBox="0 0 512 512" style="enable-background:new 0 0 512 512;" xml:space="preserve">
<g>
	<g>
		<path d="M507.605,65.395l-61-61C443.793,1.582,439.984,0,436,0H76c-3.984,0-7.793,1.582-10.605,4.395l-61,61
			C1.582,68.207,0,72.016,0,76v360c0,3.984,1.582,7.793,4.395,10.605l61,61C68.207,510.418,72.016,512,76,512h360
			c3.984,0,7.793-1.582,10.605-4.395l61-61C510.418,443.793,512,439.984,512,436V76C512,72.016,510.418,68.207,507.605,65.395z
			 M451,286c0,8.291-6.709,15-15,15h-21.504c-15.6,55.181-58.535,98.188-113.496,113.745V436c0,8.291-6.709,15-15,15h-60
			c-8.291,0-15-6.709-15-15v-21.255C156.039,399.188,113.104,356.181,97.504,301H76c-8.291,0-15-6.709-15-15v-60
			c0-8.291,6.709-15,15-15h21.504c15.6-55.181,58.535-98.188,113.496-113.745V76c0-8.291,6.709-15,15-15h60c8.291,0,15,6.709,15,15
			v21.255c54.961,15.557,97.896,58.564,113.496,113.745H436c8.291,0,15,6.709,15,15V286z"/>
	</g>
</g>
<g>
	<g>
		<path d="M402.719,241c-7.119,0-13.272-5.01-14.693-11.997c-10.884-53.159-52.104-94.482-105.015-105.278
			c-6.987-1.421-12.012-7.559-12.012-14.692V91h-30v18.032c0,7.134-5.024,13.271-12.012,14.692
			c-52.91,10.796-94.131,52.119-105.015,105.278C122.553,235.99,116.4,241,109.281,241H91v30h18.281
			c7.119,0,13.271,5.01,14.692,11.997c10.884,53.159,52.104,94.482,105.015,105.278c6.987,1.421,12.012,7.559,12.012,14.692V421h30
			v-18.032c0-7.134,5.024-13.271,12.012-14.692c52.91-10.796,94.131-52.119,105.015-105.278C389.447,276.01,395.6,271,402.719,271
			H421v-30H402.719z M211,286c0,8.291-6.709,15-15,15s-15-6.709-15-15v-60c0-8.291,6.709-15,15-15s15,6.709,15,15V286z M331,286
			c0,8.291-6.709,15-15,15c-8.291,0-15-6.709-15-15v-60c0-8.291,6.709-15,15-15c8.291,0,15,6.709,15,15V286z"/>
	</g>
</g>
<g>
</g>
<g>
</g>
<g>
</g>
<g>
</g>
<g>
</g>
<g>
</g>
<g>
</g>
<g>
</g>
<g>
</g>
<g>
</g>
<g>
</g>
<g>
</g>
<g>
</g>
<g>
</g>
<g>
</g>
</svg>
