<?xml version="1.0" encoding="iso-8859-1"?>
<!-- Generator: Adobe Illustrator 19.0.0, SVG Export Plug-In . SVG Version: 6.00 Build 0)  -->
<svg version="1.1" id="Capa_1" xmlns="http://www.w3.org/2000/svg" xmlns:xlink="http://www.w3.org/1999/xlink" x="0px" y="0px"
	 viewBox="0 0 512 512" style="enable-background:new 0 0 512 512;" xml:space="preserve">
<g>
	<g>
		<rect x="211" y="270" width="90" height="30"/>
	</g>
</g>
<g>
	<g>
		<path d="M121,180v242h270V180H121z M331,315c0,8.291-6.709,15-15,15H196c-8.291,0-15-6.709-15-15v-60c0-8.291,6.709-15,15-15h120
			c8.291,0,15,6.709,15,15V315z"/>
	</g>
</g>
<g>
	<g>
		<path d="M122.518,452c6.969,34.191,37.266,60,73.482,60h120c36.217,0,66.513-25.809,73.482-60H122.518z"/>
	</g>
</g>
<g>
	<g>
		<path d="M324.531,90.756L284.028,30H346c8.291,0,15-6.709,15-15s-6.709-15-15-15H166c-8.291,0-15,6.709-15,15s6.709,15,15,15
			h61.972l-40.503,60.756c-32.325,3.711-58.542,27.801-64.951,59.244h266.964C383.073,118.557,356.856,94.468,324.531,90.756z
			 M224.028,90L256,42.041L287.972,90H224.028z"/>
	</g>
</g>
<g>
</g>
<g>
</g>
<g>
</g>
<g>
</g>
<g>
</g>
<g>
</g>
<g>
</g>
<g>
</g>
<g>
</g>
<g>
</g>
<g>
</g>
<g>
</g>
<g>
</g>
<g>
</g>
<g>
</g>
</svg>
