<?xml version="1.0" encoding="iso-8859-1"?>
<!-- Generator: Adobe Illustrator 19.0.0, SVG Export Plug-In . SVG Version: 6.00 Build 0)  -->
<svg version="1.1" id="Capa_1" xmlns="http://www.w3.org/2000/svg" xmlns:xlink="http://www.w3.org/1999/xlink" x="0px" y="0px"
	 viewBox="0 0 511.999 511.999" style="enable-background:new 0 0 511.999 511.999;" xml:space="preserve">
<g>
	<g>
		<path d="M427.986,27.638C366.903-16.902,279.944-5.873,225.647,53.09c-50.266,54.507-78.474,121.317-83.564,198.095
			c-0.637,8.696-3.818,16.119-8.908,21.209l-25.663,25.663l42.419,42.419l25.663-25.663c15.269-15.27,24.602-36.481,26.088-59.599
			c4.453-62.991,27.36-117.287,68.082-161.403c33.511-36.48,86.534-44.116,123.227-17.604c4.241,2.969,8.06,6.364,11.453,9.757
			l42.418-42.419C440.712,37.396,434.774,32.304,427.986,27.638z"/>
	</g>
</g>
<g>
	<g>
		<polygon points="86.301,319.268 36.268,369.334 78.687,411.752 128.721,361.686 		"/>
	</g>
</g>
<g>
	<g>
		<polygon points="149.93,382.896 99.896,432.962 142.315,475.381 192.348,425.315 		"/>
	</g>
</g>
<g>
	<g>
		<path d="M511.549,158.714c-2.755-35.421-18.239-68.72-43.478-93.959l-42.419,42.419c15.059,15.059,24.179,34.784,26.088,56.629
			c2.121,26.299-7.425,51.964-26.088,70.627c-45.388,45.389-102.229,70.839-169.251,75.504
			c-23.118,1.486-44.328,10.818-59.598,26.088l-25.663,25.663l42.418,42.419l25.663-25.663c5.09-5.09,12.513-8.271,21.209-8.908
			c81.657-5.301,151.436-36.479,207.64-92.683C499.036,245.884,514.943,202.829,511.549,158.714z"/>
	</g>
</g>
<g>
	<g>
		<path d="M15.059,390.543L4.454,401.148c-5.938,5.938-5.939,15.27,0,21.209c5.939,5.939,15.271,5.938,21.209,0l10.605-10.605
			L15.059,390.543z"/>
	</g>
</g>
<g>
	<g>
		<path d="M57.477,432.962l-10.604,10.605c-5.939,5.938-5.94,15.27-0.001,21.209c5.939,5.939,15.271,5.938,21.209,0l10.605-10.605
			L57.477,432.962z"/>
	</g>
</g>
<g>
	<g>
		<path d="M99.896,475.381l-10.605,10.605c-5.938,5.938-5.939,15.27,0,21.209c5.94,5.939,15.272,5.938,21.21-0.001l10.604-10.604
			L99.896,475.381z"/>
	</g>
</g>
<g>
</g>
<g>
</g>
<g>
</g>
<g>
</g>
<g>
</g>
<g>
</g>
<g>
</g>
<g>
</g>
<g>
</g>
<g>
</g>
<g>
</g>
<g>
</g>
<g>
</g>
<g>
</g>
<g>
</g>
</svg>
