<?xml version="1.0" encoding="iso-8859-1"?>
<!-- Generator: Adobe Illustrator 19.0.0, SVG Export Plug-In . SVG Version: 6.00 Build 0)  -->
<svg version="1.1" id="Capa_1" xmlns="http://www.w3.org/2000/svg" xmlns:xlink="http://www.w3.org/1999/xlink" x="0px" y="0px"
	 viewBox="0 0 512 512" style="enable-background:new 0 0 512 512;" xml:space="preserve">
<g>
	<g>
		<path d="M386.605,364.394l-60.115-60.115c2.807-5.867,4.51-12.353,4.51-19.279c0-24.814-20.186-45-45-45
			c-24.814,0-45,20.186-45,45c0,24.814,20.186,45,45,45c6.927,0,13.413-1.703,19.279-4.51l60.115,60.115
			c5.86,5.859,15.352,5.859,21.211,0S392.464,370.253,386.605,364.394z"/>
	</g>
</g>
<g>
	<g>
		<path d="M512,15c0-8.291-6.709-15-15-15c-8.291,0-15,6.709-15,15c0,24.814-20.186,45-45,45c-22.414,0-84.485,0-106,0V45
			c0-24.814-20.186-45-45-45h-60c-24.814,0-45,20.186-45,45v15c-79.626,0-70.455,0-106,0c-24.814,0-45-20.186-45-45
			c0-8.291-6.709-15-15-15S0,6.709,0,15c0,36.216,25.809,66.513,60,73.482v336.281C42.578,430.976,30,447.47,30,467v30
			c0,8.291,6.709,15,15,15h422c8.291,0,15-6.709,15-15v-30c0-19.53-12.577-36.024-30-42.237V88.482
			C486.191,81.513,512,51.216,512,15z M211,45c0-8.276,6.724-15,15-15h60c8.276,0,15,6.724,15,15v15h-90V45z M326.781,90
			l-11.122,44.517C297.591,125.526,277.517,120,256,120c-21.517,0-41.591,5.526-59.659,14.517L185.219,90
			C237.492,90,274.869,90,326.781,90z M422,422H90V90c24.237,0,40.354,0,64.296,0l15.498,61.981C140.23,176.765,121,213.49,121,255
			c0,74.443,60.557,135,135,135c20.779,0,40.241-5.107,57.839-13.528l-17.249-17.249c-3.5,0.513-7.03,0.777-10.59,0.777
			c-41.353,0-75-33.647-75-75c0-41.353,33.647-75,75-75c41.353,0,75,33.647,75,75c0,3.56-0.264,7.09-0.776,10.591l17.249,17.249
			C385.893,295.241,391,275.779,391,255c0-41.51-19.23-78.235-48.794-103.019L357.704,90c23.942,0,40.059,0,64.296,0V422z"/>
	</g>
</g>
<g>
</g>
<g>
</g>
<g>
</g>
<g>
</g>
<g>
</g>
<g>
</g>
<g>
</g>
<g>
</g>
<g>
</g>
<g>
</g>
<g>
</g>
<g>
</g>
<g>
</g>
<g>
</g>
<g>
</g>
</svg>
