<?xml version="1.0" encoding="iso-8859-1"?>
<!-- Generator: Adobe Illustrator 19.0.0, SVG Export Plug-In . SVG Version: 6.00 Build 0)  -->
<svg version="1.1" id="Capa_1" xmlns="http://www.w3.org/2000/svg" xmlns:xlink="http://www.w3.org/1999/xlink" x="0px" y="0px"
	 viewBox="0 0 512 512" style="enable-background:new 0 0 512 512;" xml:space="preserve">
<g>
	<g>
		<path d="M196,302c-24.814,0-45,20.186-45,45v120c0,24.814,20.186,45,45,45c24.814,0,45-20.186,45-45V347
			C241,322.186,220.814,302,196,302z"/>
	</g>
</g>
<g>
	<g>
		<path d="M467,302c-24.814,0-45,20.186-45,45v120c0,24.814,20.186,45,45,45c24.814,0,45-20.186,45-45V347
			C512,322.186,491.814,302,467,302z"/>
	</g>
</g>
<g>
	<g>
		<path d="M181,105C81.742,105,0,187.742,0,287c0,58.491,29.594,113.54,77.465,147.261c2.534,1.787,5.552,2.739,8.643,2.739H121v-90
			c0-41.353,33.647-75,75-75c41.353,0,75,33.647,75,75h79.287C357.082,327.823,361,307.667,361,287C361,187.742,280.258,105,181,105
			z"/>
	</g>
</g>
<g>
	<g>
		<path d="M181,0C123.688,0,77.099,46.214,76.17,103.308c10.113-5.858,20.757-10.833,31.84-14.96C115.626,55.009,145.388,30,181,30
			s65.374,25.009,72.99,58.348c11.083,4.127,21.727,9.102,31.84,14.96C284.901,46.214,238.312,0,181,0z"/>
	</g>
</g>
<g>
	<g>
		<rect x="271" y="377" width="121" height="60"/>
	</g>
</g>
<g>
</g>
<g>
</g>
<g>
</g>
<g>
</g>
<g>
</g>
<g>
</g>
<g>
</g>
<g>
</g>
<g>
</g>
<g>
</g>
<g>
</g>
<g>
</g>
<g>
</g>
<g>
</g>
<g>
</g>
</svg>
