<?xml version="1.0" encoding="iso-8859-1"?>
<!-- Generator: Adobe Illustrator 19.0.0, SVG Export Plug-In . SVG Version: 6.00 Build 0)  -->
<svg version="1.1" id="Capa_1" xmlns="http://www.w3.org/2000/svg" xmlns:xlink="http://www.w3.org/1999/xlink" x="0px" y="0px"
	 viewBox="0 0 511.999 511.999" style="enable-background:new 0 0 511.999 511.999;" xml:space="preserve">
<g>
	<g>
		<path d="M294.378,307.122c13.354-1.769,24.526-8.265,31.457-18.298L508.83,23.503c4.127-5.948,3.403-13.995-1.717-19.116
			c-5.12-5.12-13.168-5.844-19.116-1.717L223.675,186.666c-10.033,6.931-16.53,18.103-18.298,31.457
			c-2.504,18.909-11.317,36.763-24.805,50.251l-1.82,1.82l-21.785-21.785c33.38-42.048,37.745-100.761,9.589-147.682L149.22,71.827
			c-3.423-5.762-10.344-8.523-16.83-6.734c-6.496,1.8-11.373,7.707-11.363,14.441v59.913c-0.01,12.01-4.298,23.295-12.791,31.787
			L83.42,196.049c-29.202,29.202-29.202,76.722,0,105.923L210.528,429.08c29.202,29.202,76.722,29.202,105.923,0l24.816-24.816
			c8.493-8.493,19.777-12.781,31.787-12.791h59.913c6.734,0.01,12.64-4.866,14.441-11.363c1.79-6.486-0.952-13.406-6.734-16.83
			l-28.901-17.337c-46.921-28.156-105.634-23.791-147.682,9.589l-21.785-21.785l1.821-1.821
			C257.615,318.439,275.469,309.626,294.378,307.122z"/>
	</g>
</g>
<g>
	<g>
		<path d="M104.606,450.262l42.369-42.37l-42.37-42.368l-42.369,42.369l-10.592-10.593c-11.7-11.7-30.669-11.7-42.37,0
			c-11.699,11.699-11.7,30.669,0,42.369l63.554,63.554c11.7,11.7,30.67,11.699,42.369,0c11.7-11.7,11.7-30.669,0-42.369
			L104.606,450.262z"/>
	</g>
</g>
<g>
</g>
<g>
</g>
<g>
</g>
<g>
</g>
<g>
</g>
<g>
</g>
<g>
</g>
<g>
</g>
<g>
</g>
<g>
</g>
<g>
</g>
<g>
</g>
<g>
</g>
<g>
</g>
<g>
</g>
</svg>
