<?xml version="1.0" encoding="iso-8859-1"?>
<!-- Generator: Adobe Illustrator 19.0.0, SVG Export Plug-In . SVG Version: 6.00 Build 0)  -->
<svg version="1.1" id="Capa_1" xmlns="http://www.w3.org/2000/svg" xmlns:xlink="http://www.w3.org/1999/xlink" x="0px" y="0px"
	 viewBox="0 0 512.002 512.002" style="enable-background:new 0 0 512.002 512.002;" xml:space="preserve">
<g>
	<g>
		<path d="M256.001,422c-38.668,0-74.652-14.095-105-38.088V437c0,41.353,33.647,75,75,75h60c41.353,0,75-33.647,75-75v-53.088
			C330.653,407.904,294.669,422,256.001,422z"/>
	</g>
</g>
<g>
	<g>
		<path d="M412.538,121H271.001v60h150C421.001,159.308,417.645,139.522,412.538,121z"/>
	</g>
</g>
<g>
	<g>
		<path d="M92.883,211c2.401,21.193,7.268,42.332,14.266,61h133.852v-61H92.883z"/>
	</g>
</g>
<g>
	<g>
		<path d="M271.001,211v61h133.852c6.998-18.667,11.865-39.807,14.266-61H271.001z"/>
	</g>
</g>
<g>
	<g>
		<path d="M99.464,121c-5.107,18.521-8.463,38.307-8.463,60h150v-60H99.464z"/>
	</g>
</g>
<g>
	<g>
		<path d="M271.001,0v91h130.446C377.109,39.612,330.966,4.761,271.001,0z"/>
	</g>
</g>
<g>
	<g>
		<path d="M271.001,302v89.033c49.708-5.736,93.06-39.627,120.212-89.033H271.001z"/>
	</g>
</g>
<g>
	<g>
		<path d="M120.789,302c27.152,49.406,70.504,83.297,120.212,89.034V302H120.789z"/>
	</g>
</g>
<g>
	<g>
		<path d="M110.555,91h130.446V0C181.036,4.761,134.893,39.611,110.555,91z"/>
	</g>
</g>
<g>
	<g>
		<path d="M505.043,424.343c-38.756-24.642-71.389-58.971-92.956-99.102c-6.397,10.533-13.401,20.441-21.086,29.54V437
			c0,20.85-6.284,40.192-16.809,56.548c7.584,6.475,15.881,12.259,25.1,16.87c4.845,2.406,10.547,2.051,15.029-0.938l91-60
			c4.219-2.813,6.738-7.573,6.68-12.642C511.942,431.77,509.335,427.067,505.043,424.343z"/>
	</g>
</g>
<g>
	<g>
		<path d="M121.001,437.001v-82.22c-7.685-9.099-14.689-19.006-21.086-29.539c-21.566,40.131-54.199,74.46-92.956,99.102
			c-4.292,2.725-6.899,7.427-6.958,12.495c-0.059,5.068,2.461,9.829,6.68,12.642l91,60c4.483,2.988,10.184,3.343,15.029,0.938
			c9.219-4.611,17.516-10.395,25.1-16.87C127.285,477.192,121.001,457.851,121.001,437.001z"/>
	</g>
</g>
<g>
</g>
<g>
</g>
<g>
</g>
<g>
</g>
<g>
</g>
<g>
</g>
<g>
</g>
<g>
</g>
<g>
</g>
<g>
</g>
<g>
</g>
<g>
</g>
<g>
</g>
<g>
</g>
<g>
</g>
</svg>
