<?xml version="1.0" encoding="iso-8859-1"?>
<!-- Generator: Adobe Illustrator 19.0.0, SVG Export Plug-In . SVG Version: 6.00 Build 0)  -->
<svg version="1.1" id="Capa_1" xmlns="http://www.w3.org/2000/svg" xmlns:xlink="http://www.w3.org/1999/xlink" x="0px" y="0px"
	 viewBox="0 0 512 512" style="enable-background:new 0 0 512 512;" xml:space="preserve">
<g>
	<g>
		<path d="M439.53,105.965c-19.937-10.723-43.359-11.646-64.38-2.476c-21.563,9.434-37.266,27.905-43.11,50.771l-10.653,43.059
			c82.44-19.872,145.155-70.799,145.8-71.315l2.695-2.252C461.111,118.187,451.05,112.161,439.53,105.965z"/>
	</g>
</g>
<g>
	<g>
		<path d="M226.791,234.168c-12.686-1.465-25.122-3.472-37.134-6.05c-2.99-0.663-5.718-1.65-8.657-2.386v180.806
			c20.209,4.612,40.227,7.313,60,8.25V247.311C239.544,245.315,237.326,235.362,226.791,234.168z"/>
	</g>
</g>
<g>
	<g>
		<path d="M322.46,228.103c-12.129,2.593-24.565,4.6-37.251,6.065c-10.519,1.193-12.799,11.21-14.209,13.144v167.477
			c19.774-0.938,39.791-3.638,60-8.25V225.75C328.1,226.475,325.41,227.448,322.46,228.103z"/>
	</g>
</g>
<g>
	<g>
		<path d="M24.639,149.075c-4.468-3.764-10.738-4.541-15.982-2.109C3.384,149.441,0,154.729,0,160.56v47.402
			c0,54.739,23.52,104.683,61,140.52V173.721C39.243,160.061,24.937,149.319,24.639,149.075z"/>
	</g>
</g>
<g>
	<g>
		<path d="M91,190.968v181.088c10.261,6.485,20.98,12.391,32.607,16.961c9.148,3.596,18.274,6.588,27.393,9.459V216.993
			C128.595,209.301,108.446,200.171,91,190.968z"/>
	</g>
</g>
<g>
	<g>
		<path d="M503.328,146.966c-5.288-2.476-11.499-1.641-15.981,2.109c-0.293,0.249-14.581,11.014-36.347,24.693v174.714
			c37.48-35.837,61-85.781,61-140.52V160.56C512,154.729,508.616,149.427,503.328,146.966z"/>
	</g>
</g>
<g>
	<g>
		<path d="M361,217.029v181.447c9.119-2.871,18.245-5.863,27.393-9.459c11.627-4.568,22.348-10.474,32.607-16.959V191.026
			C403.568,200.218,383.423,209.344,361,217.029z"/>
	</g>
</g>
<g>
	<g>
		<path d="M179.93,154.143c-5.815-22.749-21.519-41.221-43.081-50.654c-20.976-9.17-44.472-8.247-64.35,2.461
			c-11.53,6.204-21.599,12.235-30.377,17.802l2.75,2.296c0.588,0.473,63.151,51.264,145.737,71.257L179.93,154.143z"/>
	</g>
</g>
<g>
</g>
<g>
</g>
<g>
</g>
<g>
</g>
<g>
</g>
<g>
</g>
<g>
</g>
<g>
</g>
<g>
</g>
<g>
</g>
<g>
</g>
<g>
</g>
<g>
</g>
<g>
</g>
<g>
</g>
</svg>
