<?xml version="1.0" encoding="iso-8859-1"?>
<!-- Generator: Adobe Illustrator 19.0.0, SVG Export Plug-In . SVG Version: 6.00 Build 0)  -->
<svg version="1.1" id="Capa_1" xmlns="http://www.w3.org/2000/svg" xmlns:xlink="http://www.w3.org/1999/xlink" x="0px" y="0px"
	 viewBox="0 0 512 512" style="enable-background:new 0 0 512 512;" xml:space="preserve">
<g>
	<g>
		<path d="M511.893,241.799C496.468,114.55,385.885,18.604,255.999,18.604S15.532,114.55,0.107,241.799
			c-0.82,6.87,3.149,13.418,9.639,15.85l49.939,18.309C57.783,164.219,148.188,78.605,255.999,78.605
			c105.601,0,198.103,83.692,196.328,197.348l49.926-18.303C508.743,255.217,512.713,248.669,511.893,241.799z"/>
	</g>
</g>
<g>
	<g>
		<path d="M255.999,108.602c-95.021,0-174.395,78.319-165.775,178.777c18.358,6.868,65.274,24.713,130.219,48.96
			c-5.834,7.59-9.443,16.968-9.443,27.259c0,24.814,20.186,44.999,44.999,44.999s44.999-20.186,44.999-44.999
			c0-10.291-3.609-19.669-9.443-27.259c50.126-18.715,104.078-39.182,130.506-49.068
			C430.815,188.271,351.43,108.602,255.999,108.602z M163.91,283.223c0.168-0.308,0.284-0.648,0.456-0.954
			c9.549-16.92,16.298-21.632,25.752-29.333l30.975,51.635L163.91,283.223z M255.999,304.434l-40.577-67.633
			c25.872-10.767,55.247-10.774,81.153,0.002L255.999,304.434z M290.907,304.572l30.977-51.638
			c12.212,9.945,18.179,15.715,26.208,30.289L290.907,304.572z"/>
	</g>
</g>
<g>
	<g>
		<path d="M326.604,442.991l-22.412-22.412c-13.074,11.076-29.758,18.018-48.192,18.018c-18.435,0-35.119-6.941-48.192-18.018
			l-22.412,22.412c-5.859,5.859-5.859,15.352,0,21.211c19.468,19.468,45.028,29.193,70.604,29.193
			c25.576,0,51.137-9.727,70.604-29.193C332.463,458.342,332.463,448.85,326.604,442.991z"/>
	</g>
</g>
<g>
</g>
<g>
</g>
<g>
</g>
<g>
</g>
<g>
</g>
<g>
</g>
<g>
</g>
<g>
</g>
<g>
</g>
<g>
</g>
<g>
</g>
<g>
</g>
<g>
</g>
<g>
</g>
<g>
</g>
</svg>
