<?xml version="1.0" encoding="iso-8859-1"?>
<!-- Generator: Adobe Illustrator 19.0.0, SVG Export Plug-In . SVG Version: 6.00 Build 0)  -->
<svg version="1.1" id="Capa_1" xmlns="http://www.w3.org/2000/svg" xmlns:xlink="http://www.w3.org/1999/xlink" x="0px" y="0px"
	 viewBox="0 0 512 512" style="enable-background:new 0 0 512 512;" xml:space="preserve">
<g>
	<g>
		<path d="M286,0c-8.291,0-15,6.709-15,15v61c0,8.291,6.709,15,15,15c8.291,0,15-6.709,15-15V15C301,6.709,294.291,0,286,0z"/>
	</g>
</g>
<g>
	<g>
		<path d="M511.487,102.118c-2.124-8.012-10.385-12.7-18.369-10.605l-56.986,15c-7.998,2.139-12.744,10.371-10.605,18.369
			c2.141,8.037,10.411,12.751,18.369,10.605l56.986-15C508.88,118.348,513.626,110.116,511.487,102.118z"/>
	</g>
</g>
<g>
	<g>
		<path d="M139.882,106.513l-55.986-15c-7.954-2.08-16.216,2.622-18.369,10.605c-2.139,7.998,2.607,16.23,10.605,18.369l55.986,15
			c7.896,2.129,16.214-2.534,18.369-10.605C152.626,116.884,147.88,108.652,139.882,106.513z"/>
	</g>
</g>
<g>
	<g>
		<path d="M206.605,65.395l-30-30c-5.859-5.859-15.352-5.859-21.211,0c-5.859,5.859-5.859,15.352,0,21.211l30,30
			c5.859,5.859,15.352,5.859,21.211,0C212.464,80.747,212.464,71.254,206.605,65.395z"/>
	</g>
</g>
<g>
	<g>
		<path d="M416.606,35.395c-5.859-5.859-15.352-5.859-21.211,0l-30,30c-5.86,5.859-5.86,15.351,0,21.211
			c5.859,5.859,15.352,5.859,21.211,0l30-30C422.465,50.747,422.465,41.254,416.606,35.395z"/>
	</g>
</g>
<g>
	<g>
		<path d="M499.164,349.798l-18.144-36.295L481,407c0,41.353-33.647,75-75,75c-24.507,0-46.304-11.821-60-30.044
			C332.304,470.179,310.507,482,286,482c-15.934,0-30.443-5.374-42.605-13.877c7.386,25.21,32.216,43.877,60.564,43.877h90.571
			c44.692,0,85.635-24.023,104.326-61.201C515.043,418.587,515.16,381.776,499.164,349.798z"/>
	</g>
</g>
<g>
	<g>
		<path d="M406,151c-24.814,0-45,20.186-45,45v1.941c0,7.212-5.846,13.059-13.059,13.059h-3.882
			c-7.212,0-13.059-5.847-13.059-13.059V166h0.04c-0.236-25.902-21.072-45-45.04-45c-24.814,0-45,20.186-45,45v31.941
			c0,7.212-5.846,13.059-13.059,13.059h-3.882c-7.212,0-13.059-5.847-13.059-13.059V196h0.04c-0.547-59.949-90.04-58.995-90.04,0
			v31.941c0,7.212-5.846,13.059-13.059,13.059h-3.882C96.847,241,91,235.153,91,227.941V226h0.04c-0.236-25.902-21.072-45-45.04-45
			c-24.814,0-46,20.186-46,45v181c0,24.814,21.186,45,46,45s45-20.288,45-45V287.941C91,278.584,98.584,271,107.941,271h0.178
			c7.114,0,12.881,5.768,12.881,12.881V407c0,24.814,20.186,45,45,45c24.814,0,45-20.288,45-45V287.941
			c0-9.357,7.584-16.941,16.941-16.941c7.213,0,13.059,5.847,13.059,13.059V407c0,24.814,20.186,45,45,45c24.814,0,45-20.288,45-45
			V284.059c0-7.212,5.847-13.059,13.059-13.059h3.882c7.213,0,13.059,5.847,13.059,13.059V407c0,24.814,20.186,45,45,45
			c24.814,0,45-20.288,45-45V196h0.04C450.804,170.098,429.968,151,406,151z"/>
	</g>
</g>
<g>
</g>
<g>
</g>
<g>
</g>
<g>
</g>
<g>
</g>
<g>
</g>
<g>
</g>
<g>
</g>
<g>
</g>
<g>
</g>
<g>
</g>
<g>
</g>
<g>
</g>
<g>
</g>
<g>
</g>
</svg>
