<?xml version="1.0" encoding="iso-8859-1"?>
<!-- Generator: Adobe Illustrator 19.0.0, SVG Export Plug-In . SVG Version: 6.00 Build 0)  -->
<svg version="1.1" id="Capa_1" xmlns="http://www.w3.org/2000/svg" xmlns:xlink="http://www.w3.org/1999/xlink" x="0px" y="0px"
	 viewBox="0 0 512 512" style="enable-background:new 0 0 512 512;" xml:space="preserve">
<g>
	<g>
		<path d="M467,0H45c-8.291,0-15,6.709-15,15v106h110.444c0.062-0.002,0.119,0.002,0.181,0H482V15C482,6.709,475.291,0,467,0z
			 M317,91H195c-8.291,0-15-6.709-15-15s6.709-15,15-15h122c8.291,0,15,6.709,15,15S325.291,91,317,91z"/>
	</g>
</g>
<g>
	<g>
		<path d="M25.133,151C8.784,206.219,0,264.183,0,321.863V497c0,8.291,6.709,15,15,15h60c8.349,0,11.757-4.968,15-11.455V321.863
			c0-58.121,10.364-116.078,29.731-170.863H25.133z"/>
	</g>
</g>
<g>
	<g>
		<path d="M486.867,151h-94.598C411.636,205.785,422,263.742,422,321.863v178.682c3.243,6.487,6.651,11.455,15,11.455h60
			c8.291,0,15-6.709,15-15V321.863C512,264.183,503.217,206.219,486.867,151z"/>
	</g>
</g>
<g>
	<g>
		<path d="M360.557,151H151.443C130.809,205.598,120,263.638,120,321.863v178.682c3.243,6.487,6.651,11.455,15,11.455h60
			c6.694,0,12.583-4.438,14.429-10.884l32.157-109.043c2.871-10.078,11.763-10.869,14.414-10.869s11.543,0.791,14.414,10.869
			l31.157,109.043C303.417,507.562,310.306,512,317,512h60c8.349,0,11.757-4.968,15-11.455V321.863
			C392,263.637,381.191,205.598,360.557,151z"/>
	</g>
</g>
<g>
</g>
<g>
</g>
<g>
</g>
<g>
</g>
<g>
</g>
<g>
</g>
<g>
</g>
<g>
</g>
<g>
</g>
<g>
</g>
<g>
</g>
<g>
</g>
<g>
</g>
<g>
</g>
<g>
</g>
</svg>
