<?xml version="1.0" encoding="iso-8859-1"?>
<!-- Generator: Adobe Illustrator 19.0.0, SVG Export Plug-In . SVG Version: 6.00 Build 0)  -->
<svg version="1.1" id="Capa_1" xmlns="http://www.w3.org/2000/svg" xmlns:xlink="http://www.w3.org/1999/xlink" x="0px" y="0px"
	 viewBox="0 0 512.001 512.001" style="enable-background:new 0 0 512.001 512.001;" xml:space="preserve">
<g>
	<g>
		<path d="M203.93,203.931c0.915,7.716,10.16,27.385,31.448,51.478l20.03-20.03C231.315,214.091,211.645,204.846,203.93,203.931z"/>
	</g>
</g>
<g>
	<g>
		<path d="M276.622,256.593l-20.03,20.03c24.093,21.288,43.762,30.533,51.478,31.448
			C307.154,300.355,297.91,280.686,276.622,256.593z"/>
	</g>
</g>
<g>
	<g>
		<path d="M184.242,235.464c-5.886,20.713-3.041,43.393,9.192,61.89l20.499-20.499C201.758,263.342,191.429,249.123,184.242,235.464
			z"/>
	</g>
</g>
<g>
	<g>
		<path d="M235.145,298.069l-20.498,20.498c18.497,12.233,41.177,15.077,61.889,9.193
			C262.878,320.573,248.659,310.243,235.145,298.069z"/>
	</g>
</g>
<g>
	<g>
		<path d="M318.566,214.649l-20.498,20.498c12.175,13.513,22.504,27.732,29.691,41.391
			C333.644,255.826,330.799,233.146,318.566,214.649z"/>
	</g>
</g>
<g>
	<g>
		<path d="M235.464,184.242c13.658,7.187,27.877,17.517,41.391,29.691l20.498-20.498
			C278.856,181.202,256.176,178.358,235.464,184.242z"/>
	</g>
</g>
<g>
	<g>
		<path d="M507.604,89.25L422.75,4.398c-5.863-5.863-15.351-5.863-21.213,0L382.83,23.105
			c-13.869,13.869-17.491,10.924-36.115,17.139c-22.995,7.665-44.239,20.789-61.402,37.952l-14.118,14.118
			c-49.418-4.651-97.117,12.264-131.868,47.015c-34.751,34.751-51.666,82.45-47.015,131.868l-14.118,14.118
			c-17.163,17.163-30.287,38.407-37.952,61.402c-6.215,18.624-3.27,22.246-17.139,36.115L4.397,401.538
			c-5.863,5.863-5.863,15.351,0,21.213l84.853,84.853c5.863,5.863,15.351,5.863,21.213,0l18.707-18.707
			c13.89-13.89,17.502-10.935,36.115-17.139c23.036-7.686,44.26-20.809,61.402-37.952l14.118-14.118
			c49.418,4.651,97.117-12.264,131.868-47.015c34.751-34.751,51.666-82.45,47.015-131.868l14.118-14.118
			c17.142-17.142,30.266-38.366,37.952-61.402c6.205-18.614,3.249-22.225,17.139-36.115l18.707-18.707
			C513.467,104.6,513.467,95.112,507.604,89.25z M118.114,415.1c-5.857,5.857-15.356,5.857-21.213,0
			c-5.859-5.859-5.857-15.356,0-21.213c5.858-5.857,15.354-5.859,21.213,0C123.972,399.744,123.972,409.243,118.114,415.1z
			 M183.877,391.763c-4.941,4.941-12.813,5.894-18.862,1.896c-9.208-6.08-17.847-13.144-25.688-20.985s-14.905-16.48-20.985-25.688
			c-4.568-6.909-2.631-16.221,4.247-20.778c6.909-4.568,16.2-2.672,20.778,4.247c4.972,7.52,10.752,14.584,17.174,21.006
			s13.486,12.202,21.006,17.174C189.454,373.866,190.611,385.03,183.877,391.763z M330.246,330.247
			c-40.935,40.935-107.558,40.935-148.492,0c-40.935-40.935-40.935-107.558,0-148.492c40.935-40.935,107.557-40.935,148.492,0
			C371.181,222.689,371.181,289.312,330.246,330.247z M391.762,183.878c-6.731,6.731-17.896,5.579-23.129-2.331
			c-4.972-7.52-10.752-14.584-17.174-21.006s-13.486-12.202-21.006-17.174c-6.919-4.578-8.815-13.869-4.247-20.778
			c4.578-6.919,13.869-8.815,20.778-4.247c9.208,6.08,17.847,13.144,25.688,20.985s14.905,16.479,20.985,25.688
			C397.656,171.065,396.703,178.938,391.762,183.878z M415.099,118.115c-5.857,5.857-15.356,5.857-21.213,0
			c-5.859-5.859-5.858-15.356,0-21.213c5.858-5.857,15.354-5.859,21.213,0C420.957,102.759,420.957,112.258,415.099,118.115z"/>
	</g>
</g>
<g>
</g>
<g>
</g>
<g>
</g>
<g>
</g>
<g>
</g>
<g>
</g>
<g>
</g>
<g>
</g>
<g>
</g>
<g>
</g>
<g>
</g>
<g>
</g>
<g>
</g>
<g>
</g>
<g>
</g>
</svg>
