<?xml version="1.0" encoding="iso-8859-1"?>
<!-- Generator: Adobe Illustrator 19.0.0, SVG Export Plug-In . SVG Version: 6.00 Build 0)  -->
<svg version="1.1" id="Capa_1" xmlns="http://www.w3.org/2000/svg" xmlns:xlink="http://www.w3.org/1999/xlink" x="0px" y="0px"
	 viewBox="0 0 512 512" style="enable-background:new 0 0 512 512;" xml:space="preserve">
<g>
	<g>
		<path d="M120,421v45c0,8.284,6.716,15,15,15h242c8.284,0,15-6.716,15-15v-45H120z"/>
	</g>
</g>
<g>
	<g>
		<path d="M482,31c-16.538,0-30,13.462-30,30v30H60V61c0-16.538-13.462-30-30-30S0,44.462,0,61v210h60v-30h392v30h60V61
			C512,44.462,498.538,31,482,31z M452,211H60v-30h392V211z M452,151H60v-30h392V151z"/>
	</g>
</g>
<g>
	<g>
		<rect x="150" y="361" width="212" height="30"/>
	</g>
</g>
<g>
	<g>
		<path d="M362,301v30h15c8.401,0,15,6.599,15,15v45h15c8.401,0,15,6.599,15,15v45h75c8.291,0,15-6.709,15-15V301H362z"/>
	</g>
</g>
<g>
	<g>
		<rect x="180" y="301" width="152" height="30"/>
	</g>
</g>
<g>
	<g>
		<path d="M0,301v135c0,8.291,6.709,15,15,15h75v-45c0-8.401,6.599-15,15-15h15v-45c0-8.401,6.599-15,15-15h15v-30H0z"/>
	</g>
</g>
<g>
</g>
<g>
</g>
<g>
</g>
<g>
</g>
<g>
</g>
<g>
</g>
<g>
</g>
<g>
</g>
<g>
</g>
<g>
</g>
<g>
</g>
<g>
</g>
<g>
</g>
<g>
</g>
<g>
</g>
</svg>
