<?xml version="1.0" encoding="iso-8859-1"?>
<!-- Generator: Adobe Illustrator 19.0.0, SVG Export Plug-In . SVG Version: 6.00 Build 0)  -->
<svg version="1.1" id="Capa_1" xmlns="http://www.w3.org/2000/svg" xmlns:xlink="http://www.w3.org/1999/xlink" x="0px" y="0px"
	 viewBox="0 0 512 512" style="enable-background:new 0 0 512 512;" xml:space="preserve">
<g>
	<g>
		<path d="M60,46.002c-16.54,0-30,13.46-30,30s13.46,30,30,30h30v-60H60z"/>
	</g>
</g>
<g>
	<g>
		<path d="M509.755,37.121c-2.739-4.424-7.559-7.119-12.759-7.119H149.999v-15c0-8.291-6.709-15-15-15c-8.291,0-15,6.709-15,15
			c0,12.692,0,107.222,0,119.999c0,8.291,6.709,15,15,15c8.291,0,15-6.709,15-15v-15h249.923c47.095,0,89.428-26.162,110.492-68.29
			C512.743,47.068,512.494,41.545,509.755,37.121z"/>
	</g>
</g>
<g>
	<g>
		<path d="M449.755,217.119c-2.739-4.424-7.559-7.119-12.759-7.119H149.999v-15c0-8.291-6.709-15-15-15c-8.291,0-15,6.709-15,15
			c0,12.692,0,107.222,0,119.999c0,8.291,6.709,15,15,15c8.291,0,15-6.709,15-15v-15h188.923c47.095,0,90.428-26.162,111.492-68.29
			C452.743,227.065,452.494,221.543,449.755,217.119z"/>
	</g>
</g>
<g>
	<g>
		<path d="M436.997,421.999h-75.999v-15c0-19.53-12.577-36.024-30-42.237v-34.763H179.999v34.763c-17.422,6.213-30,22.707-30,42.237
			v15H74.999C33.647,421.999,0,455.646,0,496.998c0,8.291,6.709,15,15,15h481.996c8.291,0,15-6.709,15-15
			C511.996,455.647,478.349,421.999,436.997,421.999z M285.998,451.999h-61c-8.291,0-15-6.709-15-15c0-8.291,6.709-15,15-15h61
			c8.291,0,15,6.709,15,15C300.998,445.29,294.289,451.999,285.998,451.999z"/>
	</g>
</g>
<g>
	<g>
		<rect x="179.999" y="149.999" width="150.999" height="30"/>
	</g>
</g>
<g>
	<g>
		<path d="M60,225c-16.538,0-30,13.462-30,30s13.462,30,30,30h30V225H60z"/>
	</g>
</g>
<g>
</g>
<g>
</g>
<g>
</g>
<g>
</g>
<g>
</g>
<g>
</g>
<g>
</g>
<g>
</g>
<g>
</g>
<g>
</g>
<g>
</g>
<g>
</g>
<g>
</g>
<g>
</g>
<g>
</g>
</svg>
