<?xml version="1.0" encoding="iso-8859-1"?>
<!-- Generator: Adobe Illustrator 19.0.0, SVG Export Plug-In . SVG Version: 6.00 Build 0)  -->
<svg version="1.1" id="Capa_1" xmlns="http://www.w3.org/2000/svg" xmlns:xlink="http://www.w3.org/1999/xlink" x="0px" y="0px"
	 viewBox="0 0 511.999 511.999" style="enable-background:new 0 0 511.999 511.999;" xml:space="preserve">
<g>
	<g>
		<path d="M279.333,317.076l-32.957,32.955c-5.858,5.858-15.348,5.858-21.207,0l-63.372-63.372c-5.858-5.858-5.858-15.349,0-21.207
			l32.955-32.955c-29.309-9.935-57.713-6.171-75.53,11.645c-29.715,29.731-20.401,85.634,21.208,127.257
			c41.226,41.226,97.262,51.201,127.256,21.207C285.512,374.78,289.263,346.371,279.333,317.076z"/>
	</g>
</g>
<g>
	<g>
		<path d="M119.223,392.605c-7.336-7.338-13.653-15.116-19.31-23.104l-44.319,44.318l42.418,42.418l44.247-44.254
			C134.231,406.287,126.482,399.861,119.223,392.605z"/>
	</g>
</g>
<g>
	<g>
		<path d="M34.388,435.027L8.809,460.606c-11.8,11.77-11.672,30.816-0.059,42.399c11.723,11.783,30.753,11.749,42.458,0.044
			l25.599-25.602L34.388,435.027z"/>
	</g>
</g>
<g>
	<g>
		<path d="M503.228,8.601c-11.398-11.098-31.195-11.398-42.593,0l-267.149,267.45l42.292,42.291l267.45-267.148
			C514.923,39.496,514.923,20.299,503.228,8.601z"/>
	</g>
</g>
<g>
</g>
<g>
</g>
<g>
</g>
<g>
</g>
<g>
</g>
<g>
</g>
<g>
</g>
<g>
</g>
<g>
</g>
<g>
</g>
<g>
</g>
<g>
</g>
<g>
</g>
<g>
</g>
<g>
</g>
</svg>
