<?xml version="1.0" encoding="iso-8859-1"?>
<!-- Generator: Adobe Illustrator 19.0.0, SVG Export Plug-In . SVG Version: 6.00 Build 0)  -->
<svg version="1.1" id="Capa_1" xmlns="http://www.w3.org/2000/svg" xmlns:xlink="http://www.w3.org/1999/xlink" x="0px" y="0px"
	 viewBox="0 0 512 512" style="enable-background:new 0 0 512 512;" xml:space="preserve">
<g>
	<g>
		<path d="M229.682,133.827c-15.062-15.062-33.73-25.668-53.881-30.972l-21.213,21.213c20.151,5.303,38.819,15.91,53.881,30.972
			c15.062,15.062,25.668,33.729,30.972,53.881l21.213-21.213C255.351,167.557,244.744,148.889,229.682,133.827z"/>
	</g>
</g>
<g>
	<g>
		<path d="M187.256,176.253c-16.122-16.122-37.334-25.031-58.761-26.092l-63.852,63.852c23.228,3.301,39.798,6.704,58.973,25.879
			c19.176,19.176,22.579,35.746,25.88,58.974l63.852-63.852C212.288,213.587,203.379,192.375,187.256,176.253z"/>
	</g>
</g>
<g>
	<g>
		<path d="M102.403,261.105c-23.399-23.399-61.454-23.399-84.853,0c-23.399,23.399-23.399,61.454,0,84.853s61.454,23.399,84.853,0
			C125.802,322.559,125.802,284.504,102.403,261.105z"/>
	</g>
</g>
<g>
	<g>
		<path d="M476.909,35.09c-46.787-46.787-122.918-46.787-169.706,0l-26.007,26.007c-22.977-13.452-53.076-10.564-72.729,9.089
			l-8.909,8.909c19.303,7.425,36.698,18.88,51.336,33.517c14.638,14.638,26.093,32.033,33.518,51.337l8.909-8.909
			c19.653-19.653,22.542-49.752,9.089-72.729l26.007-26.007c35.093-35.093,92.186-35.093,127.279,0
			c35.093,35.093,35.093,92.186,0,127.279l-26.007,26.007c-22.977-13.453-53.076-10.564-72.729,9.089l-8.909,8.909
			c19.303,7.425,36.698,18.88,51.336,33.517c14.637,14.637,26.092,32.032,33.517,51.336l8.909-8.909
			c19.653-19.653,22.542-49.752,9.089-72.729l26.007-26.007C523.696,158.009,523.696,81.877,476.909,35.09z"/>
	</g>
</g>
<g>
	<g>
		<path d="M378.174,282.319c-15.061-15.062-33.729-25.669-53.881-30.972L303.08,272.56c20.151,5.303,38.819,15.91,53.881,30.972
			c15.062,15.062,25.668,33.73,30.972,53.881l21.213-21.213C403.843,316.049,393.236,297.381,378.174,282.319z"/>
	</g>
</g>
<g>
	<g>
		<path d="M335.748,324.744c-16.122-16.122-37.334-25.031-58.761-26.092l-63.852,63.853c23.228,3.301,39.798,6.704,58.973,25.879
			c19.176,19.176,22.579,35.745,25.88,58.973l63.852-63.852C360.78,362.078,351.871,340.866,335.748,324.744z"/>
	</g>
</g>
<g>
	<g>
		<path d="M250.895,409.598c-23.398-23.399-61.454-23.399-84.853,0s-23.399,61.454,0,84.853c23.399,23.399,61.454,23.399,84.853,0
			C274.294,471.052,274.294,432.997,250.895,409.598z"/>
	</g>
</g>
<g>
</g>
<g>
</g>
<g>
</g>
<g>
</g>
<g>
</g>
<g>
</g>
<g>
</g>
<g>
</g>
<g>
</g>
<g>
</g>
<g>
</g>
<g>
</g>
<g>
</g>
<g>
</g>
<g>
</g>
</svg>
