<?xml version="1.0" encoding="iso-8859-1"?>
<!-- Generator: Adobe Illustrator 19.0.0, SVG Export Plug-In . SVG Version: 6.00 Build 0)  -->
<svg version="1.1" id="Capa_1" xmlns="http://www.w3.org/2000/svg" xmlns:xlink="http://www.w3.org/1999/xlink" x="0px" y="0px"
	 viewBox="0 0 512 512" style="enable-background:new 0 0 512 512;" xml:space="preserve">
<g>
	<g>
		<path d="M320.541,104.14c-11.47,7.529-21.387,17.109-29.297,28.271C306.522,143.471,316,161.371,316,181c0,33.091-26.909,60-60,60
			c-27.744,0-48.325-15.308-56.484-42.012c-8.862-28.975-1.099-71.235,24.067-104.795C148.07,109.311,91,176.107,91,256
			c0,9.873,0.879,19.731,2.622,29.399c11.411,5.317,23.643,8.628,36.167,9.8c1.948-18.765,12.7-35.918,29.707-45.732
			c28.638-16.523,65.435-6.68,81.958,21.958c13.301,23.042,11.045,47.754-6.211,67.778c-20.64,23.936-57.627,36.504-94.878,34.497
			C170.849,403.803,211.952,421,256,421c36.855,0,72.715-12.437,101.66-35.127c0.059-12.744-2.109-25.386-6.387-37.368
			c-17.827,6.211-37.925,3.691-53.994-7.588c-27.1-18.97-33.721-56.455-14.751-83.555c14.971-21.387,37.793-29.897,62.71-23.394
			c28.682,7.485,54.976,33.311,69.917,65.522C419.022,285.385,421,270.751,421,256C421,190.053,380.922,129.921,320.541,104.14z"/>
	</g>
</g>
<g>
	<g>
		<path d="M256,0C115.39,0,0,115.39,0,256s115.39,256,256,256s256-115.39,256-256S396.61,0,256,0z M425.497,352.343
			c-7.228,12.648-26.483,8.501-27.949-5.933c-4.351-43.008-34.468-76.772-59.883-83.408c-12.729-3.354-22.793,0.469-30.557,11.558
			c-9.492,13.55-6.182,32.3,7.368,41.777c10.664,7.441,24.785,7.236,35.156-0.513c7.216-5.412,17.903-3.265,22.28,5.112
			c11.704,22.559,17.065,47.871,15.483,73.184c-0.249,4.058-2.153,7.852-5.259,10.488C346.938,434.521,302.143,451,256,451
			c-67.925,0-129.917-34.57-165.82-92.476c-7.592-12.218,4.828-27.076,18.237-21.87c39.932,15.703,86.06,3.896,104.092-17.021
			c8.921-10.356,9.888-21.211,2.959-33.208c-8.276-14.355-26.66-19.263-40.972-10.972c-11.235,6.489-17.021,19.38-14.385,32.065
			c1.884,9.082-4.856,17.634-14.048,18.032c-25.313,1.069-50.581-4.746-72.876-16.89c-3.794-2.065-6.504-5.669-7.456-9.888
			C62.597,284.813,61,270.414,61,256c0-107.52,87.48-195,195-195c2.856,0,5.713,0.059,8.54,0.19
			c14.431,0.654,19.645,19.374,7.72,27.422c-37.266,25.137-52.866,72.832-44.063,101.616C232.475,204.203,241.571,211,256,211
			c16.538,0,30-13.462,30-30c0-12.979-8.262-24.434-20.581-28.506c-8.719-2.875-12.88-12.93-8.584-21.182
			c12.48-23.921,31.465-43.608,54.902-56.924c3.867-2.212,8.525-2.534,12.686-1.011C400.141,101.84,451,175.229,451,256
			C451,289.794,442.182,323.104,425.497,352.343z"/>
	</g>
</g>
<g>
</g>
<g>
</g>
<g>
</g>
<g>
</g>
<g>
</g>
<g>
</g>
<g>
</g>
<g>
</g>
<g>
</g>
<g>
</g>
<g>
</g>
<g>
</g>
<g>
</g>
<g>
</g>
<g>
</g>
</svg>
