<?xml version="1.0" encoding="iso-8859-1"?>
<!-- Generator: Adobe Illustrator 19.0.0, SVG Export Plug-In . SVG Version: 6.00 Build 0)  -->
<svg version="1.1" id="Capa_1" xmlns="http://www.w3.org/2000/svg" xmlns:xlink="http://www.w3.org/1999/xlink" x="0px" y="0px"
	 viewBox="0 0 512 512" style="enable-background:new 0 0 512 512;" xml:space="preserve">
<g>
	<g>
		<path d="M75,0C58.462,0,45,13.462,45,30v92h60V30C105,13.462,91.538,0,75,0z"/>
	</g>
</g>
<g>
	<g>
		<path d="M256,0c-16.538,0-30,13.462-30,30v92h60V30C286,13.462,272.538,0,256,0z"/>
	</g>
</g>
<g>
	<g>
		<path d="M451,0c-33.091,0-60,26.909-60,60v212c0,33.091-26.909,60-60,60s-60-26.909-60-60v-4.612c8.8-5.237,15-14.431,15-25.388
			h-60c0,10.957,6.2,20.151,15,25.388V272c0,49.629,40.371,90,90,90c49.629,0,90-40.371,90-90V60c0-16.538,13.462-30,30-30
			c16.538,0,31,13.462,31,30v287c0,74.443-61.557,135-136,135H226c-74.443,0-136-60.557-136-135v-79.612
			c8.8-5.237,15-14.431,15-25.388H45c0,10.957,6.2,20.151,15,25.388V347c0,90.981,75.019,165,166,165h120
			c90.981,0,166-74.019,166-165V60C512,26.909,484.091,0,451,0z"/>
	</g>
</g>
<g>
	<g>
		<path d="M135,152H15c-8.284,0-15,6.716-15,15c0,24.814,20.186,45,45,45h60c24.814,0,45-20.186,45-45
			C150,158.716,143.284,152,135,152z"/>
	</g>
</g>
<g>
	<g>
		<path d="M316,152H196c-8.284,0-15,6.716-15,15c0,24.814,20.186,45,45,45h60c24.814,0,45-20.186,45-45
			C331,158.716,324.284,152,316,152z"/>
	</g>
</g>
<g>
</g>
<g>
</g>
<g>
</g>
<g>
</g>
<g>
</g>
<g>
</g>
<g>
</g>
<g>
</g>
<g>
</g>
<g>
</g>
<g>
</g>
<g>
</g>
<g>
</g>
<g>
</g>
<g>
</g>
</svg>
