<?xml version="1.0" encoding="iso-8859-1"?>
<!-- Generator: Adobe Illustrator 19.0.0, SVG Export Plug-In . SVG Version: 6.00 Build 0)  -->
<svg version="1.1" id="Capa_1" xmlns="http://www.w3.org/2000/svg" xmlns:xlink="http://www.w3.org/1999/xlink" x="0px" y="0px"
	 viewBox="0 0 512 512" style="enable-background:new 0 0 512 512;" xml:space="preserve">
<g>
	<g>
		<path d="M241.629,85.974c-24.814,0-45,20.185-45,44.999c0,24.814,20.186,44.999,45,44.999c24.814,0,44.999-20.186,44.999-44.999
			S266.443,85.974,241.629,85.974z"/>
	</g>
</g>
<g>
	<g>
		<path d="M353.498,30.002H215.737c-6.213-17.422-22.707-30-42.236-30h-8.335c7.357,12.667,10.052,27.286,7.163,41.763
			l-9.651,48.236H173.5c19.53,0,36.024-12.578,42.236-30h137.761c8.291,0,15-6.709,15-15S361.789,30.002,353.498,30.002z"/>
	</g>
</g>
<g>
	<g>
		<path d="M445.138,457.037L293.499,350.939V248.672l114.638,20.845c16.878,2.971,31.971-8.25,34.878-24.141
			c2.971-16.339-7.818-31.917-24.155-34.893l-299.968-54.535L142.915,35.89c3.25-16.281-7.311-32.066-23.525-35.303
			C102.977-2.67,87.313,7.952,84.087,24.113l-30,149.998c-3.334,16.7,7.848,32.478,24.053,35.405l95.36,17.358v104.186
			l-67.294,16.831c-13.374,3.34-22.705,15.308-22.705,29.106v104.999c0,16.538,13.462,30,30,30c16.538,0,30-13.462,30-30v-81.562
			l84.403-21.108l183.938,127.63c13.751,9.156,32.374,5.536,41.617-8.317C462.699,484.761,458.846,466.165,445.138,457.037z"/>
	</g>
</g>
<g>
</g>
<g>
</g>
<g>
</g>
<g>
</g>
<g>
</g>
<g>
</g>
<g>
</g>
<g>
</g>
<g>
</g>
<g>
</g>
<g>
</g>
<g>
</g>
<g>
</g>
<g>
</g>
<g>
</g>
</svg>
