<?xml version="1.0" encoding="iso-8859-1"?>
<!-- Generator: Adobe Illustrator 19.0.0, SVG Export Plug-In . SVG Version: 6.00 Build 0)  -->
<svg version="1.1" id="Capa_1" xmlns="http://www.w3.org/2000/svg" xmlns:xlink="http://www.w3.org/1999/xlink" x="0px" y="0px"
	 viewBox="0 0 512 512" style="enable-background:new 0 0 512 512;" xml:space="preserve">
<g>
	<g>
		<path d="M495.235,8.77c-11.694-11.694-30.732-11.694-42.427,0l-236.345,239.9l42.426,42.426l236.345-239.9
			C506.929,39.502,506.929,20.465,495.235,8.77z"/>
	</g>
</g>
<g>
	<g>
		<path d="M322.529,460.802l-74.246-74.247l-42.426,42.427l74.246,74.246c11.694,11.695,30.732,11.695,42.426,0
			C334.223,491.534,334.223,472.496,322.529,460.802z"/>
	</g>
</g>
<g>
	<g>
		<path d="M237.676,312.31l-42.426-42.426c-11.694-11.694-30.732-11.694-42.426,0l-21.213,21.213l42.426,42.427
			c5.863,5.862,5.863,15.351,0,21.213c-5.863,5.863-15.351,5.863-21.213,0l-42.426-42.426L67.97,354.736l42.426,42.427
			c5.863,5.862,5.863,15.351,0,21.213c-5.863,5.863-15.351,5.863-21.213,0l-42.426-42.427l-21.213,21.213
			c-23.399,23.398-23.399,61.454,0,84.853s61.454,23.399,84.853,0l127.279-127.279C249.37,343.042,249.37,324.004,237.676,312.31z"
			/>
	</g>
</g>
<g>
</g>
<g>
</g>
<g>
</g>
<g>
</g>
<g>
</g>
<g>
</g>
<g>
</g>
<g>
</g>
<g>
</g>
<g>
</g>
<g>
</g>
<g>
</g>
<g>
</g>
<g>
</g>
<g>
</g>
</svg>
