<?xml version="1.0" encoding="iso-8859-1"?>
<!-- Generator: Adobe Illustrator 19.0.0, SVG Export Plug-In . SVG Version: 6.00 Build 0)  -->
<svg version="1.1" id="Capa_1" xmlns="http://www.w3.org/2000/svg" xmlns:xlink="http://www.w3.org/1999/xlink" x="0px" y="0px"
	 viewBox="0 0 511.999 511.999" style="enable-background:new 0 0 511.999 511.999;" xml:space="preserve">
<g>
	<g>
		<path d="M382.871,501.001c-16.331-24.047-20.35-50.81-21.595-72.001c-1.229-20.741-19.1-37.001-40.692-37.001
			c-15.615,0-29.663,8.672-36.636,22.632l-5.127,10.254c25.386,6.519,47.607,23.833,61.86,48.999
			c8.558,15.119,21.975,26.558,37.635,32.794c1.553,0.619,3.329,0.152,4.376-1.154C383.739,504.22,383.811,502.386,382.871,501.001z
			"/>
	</g>
</g>
<g>
	<g>
		<path d="M228.049,414.631c-6.972-13.96-21.02-22.632-36.635-22.632c-21.592,0-39.463,16.26-40.693,37.002
			c-1.256,21.387-5.338,48.45-22.042,72.669c-0.883,1.28-0.829,2.987,0.134,4.21c0.96,1.221,2.608,1.677,4.06,1.119
			c16.003-6.164,29.736-17.734,38.443-33.115c14.253-25.166,36.475-42.48,61.86-48.999L228.049,414.631z"/>
	</g>
</g>
<g>
	<g>
		<path d="M314.578,488.679c-13.008-22.969-34.907-36.68-58.579-36.68s-45.571,13.711-58.579,36.68
			c-1.93,3.406-4.136,6.592-6.403,9.721c20.451,8.767,42.586,13.599,64.982,13.599s44.531-4.832,64.982-13.599
			C318.714,495.271,316.508,492.085,314.578,488.679z"/>
	</g>
</g>
<g>
	<g>
		<path d="M255.999,331.999c-63.234,0-120.78-6.515-165-13.634v28.634c0,33.327,10.137,65.035,28.738,92.415
			c0.474-4.048,0.802-8.113,1.042-12.171c2.168-36.592,33.194-65.244,70.635-65.244c27.056,0,51.372,15.029,63.472,39.214
			l1.113,2.229l1.113-2.229c12.1-24.185,36.416-39.214,63.472-39.214c37.441,0,68.467,28.652,70.635,65.244
			c0.241,4.058,0.567,8.123,1.04,12.171c18.603-27.38,28.74-59.088,28.74-92.415v-28.634
			C376.775,325.484,319.229,331.999,255.999,331.999z"/>
	</g>
</g>
<g>
	<g>
		<path d="M507.605,246.394l-241-242c-5.859-5.859-15.352-5.859-21.211,0l-241,242c-3.779,3.765-5.244,9.258-3.896,14.414
			c1.348,5.156,5.332,9.199,10.459,10.635c4.481,1.244,111.976,30.556,245.042,30.556s240.56-29.312,245.043-30.557
			c5.127-1.435,9.111-5.478,10.459-10.634C512.849,255.652,511.384,250.159,507.605,246.394z"/>
	</g>
</g>
<g>
</g>
<g>
</g>
<g>
</g>
<g>
</g>
<g>
</g>
<g>
</g>
<g>
</g>
<g>
</g>
<g>
</g>
<g>
</g>
<g>
</g>
<g>
</g>
<g>
</g>
<g>
</g>
<g>
</g>
</svg>
