<?xml version="1.0" encoding="iso-8859-1"?>
<!-- Generator: Adobe Illustrator 19.0.0, SVG Export Plug-In . SVG Version: 6.00 Build 0)  -->
<svg version="1.1" id="Capa_1" xmlns="http://www.w3.org/2000/svg" xmlns:xlink="http://www.w3.org/1999/xlink" x="0px" y="0px"
	 viewBox="0 0 512 512" style="enable-background:new 0 0 512 512;" xml:space="preserve">
<g>
	<g>
		<path d="M347,0h-31c-24.393,0-45.866,11.907-59.568,30c10.323,0,95.245,0,105.568,0V15C362,6.709,355.291,0,347,0z"/>
	</g>
</g>
<g>
	<g>
		<path d="M195,0h-30c-8.291,0-15,6.709-15,15v15c35.756,0,66.031,0,105.568,0C241.866,11.907,219.393,0,195,0z"/>
	</g>
</g>
<g>
	<g>
		<path d="M0,392v45c0,8.291,6.709,15,15,15h75c0-21.911,0-38.727,0-60H0z"/>
	</g>
</g>
<g>
	<g>
		<path d="M195,180h46c0-41.727,0-62.616,0-120H105C47.01,60,0,107.01,0,165v197h90V165c0-8.291,6.709-15,15-15s15,6.709,15,15
			c0,10.743,0,329.36,0,332c0,8.284,6.716,15,15,15h60c16.963,0,33.422-5.942,46-15.471c0-58.402,0-45.762,0-104.529h-46
			c-8.291,0-15-6.709-15-15c0-8.291,6.709-15,15-15h46v-60h-46c-8.291,0-15-6.709-15-15c0-8.291,6.709-15,15-15h46v-62h-46
			c-8.291,0-15-6.709-15-15S186.709,180,195,180z"/>
	</g>
</g>
<g>
	<g>
		<path d="M422,392c0,21.273,0,38.089,0,60h75c8.291,0,15-6.709,15-15v-45H422z"/>
	</g>
</g>
<g>
	<g>
		<path d="M407,60H271c0,60.385,0,75.906,0,120h45c8.291,0,15,6.709,15,15s-6.709,15-15,15h-45v62h45c8.291,0,15,6.709,15,15
			c0,8.291-6.709,15-15,15h-45v60h45c8.291,0,15,6.709,15,15c0,8.291-6.709,15-15,15h-45c0,58.616,0,45.971,0,104.528
			c12.578,9.53,28.037,15.472,45,15.472h61c8.284,0,15-6.716,15-15c0-70.786,0,81.369,0-332c0-8.291,6.709-15,15-15
			c8.291,0,15,6.709,15,15v197h90V165C512,107.01,464.99,60,407,60z"/>
	</g>
</g>
<g>
</g>
<g>
</g>
<g>
</g>
<g>
</g>
<g>
</g>
<g>
</g>
<g>
</g>
<g>
</g>
<g>
</g>
<g>
</g>
<g>
</g>
<g>
</g>
<g>
</g>
<g>
</g>
<g>
</g>
</svg>
