<?xml version="1.0" encoding="iso-8859-1"?>
<!-- Generator: Adobe Illustrator 19.0.0, SVG Export Plug-In . SVG Version: 6.00 Build 0)  -->
<svg version="1.1" id="Capa_1" xmlns="http://www.w3.org/2000/svg" xmlns:xlink="http://www.w3.org/1999/xlink" x="0px" y="0px"
	 viewBox="0 0 512 512" style="enable-background:new 0 0 512 512;" xml:space="preserve">
<g>
	<g>
		<path d="M78.082,150.253c-1.055-7.368-1.582-14.795-1.582-22.222c0-1.611,0.428-3.105,0.476-4.706
			C42.38,131.571,15.5,162.548,15.5,199.633c0,21.006,8.174,40.752,23.027,55.605l63.626,62.626L78.082,150.253z"/>
	</g>
</g>
<g>
	<g>
		<path d="M369.469,121H233.531c-3.882,0-7.031,3.149-7.031,7.031L234,181h135l7.412-51.929C376.5,124.149,373.351,121,369.469,121z
			"/>
	</g>
</g>
<g>
	<g>
		<path d="M369.469,0H233.531C163.482,0,106.5,57.982,106.5,128.031c0,6.006,0.425,12.026,1.274,17.974L134.204,331h65.059
			c6.213-17.422,22.707-30,42.237-30h120c19.53,0,36.024,12.578,42.237,30h65.059l26.43-185.01
			c0.85-5.933,1.274-11.953,1.274-17.959C496.5,57.982,439.518,0,369.469,0z M396.861,198.124
			c-1.055,7.383-7.383,12.876-14.854,12.876h-161.03c-7.471,0-13.799-5.493-14.854-12.876c-9.654-68.517-9.624-65.387-9.624-70.093
			c0-20.42,16.611-37.031,37.031-37.031h135.937c20.42,0,37.031,16.611,37.031,37.031
			C406.5,132.468,406.637,128.875,396.861,198.124z"/>
	</g>
</g>
<g>
	<g>
		<path d="M136.5,361v136c0,8.291,6.709,15,15,15h45V361H136.5z"/>
	</g>
</g>
<g>
	<g>
		<path d="M406.5,361v151h45c8.291,0,15-6.709,15-15V361H406.5z"/>
	</g>
</g>
<g>
	<g>
		<path d="M361.5,331h-120c-8.276,0-15,6.724-15,15v166h150V346C376.5,337.724,369.776,331,361.5,331z M342.105,425.395
			c5.859,5.859,5.859,15.352,0,21.211s-15.352,5.859-21.211,0L301.5,427.211l-19.395,19.395c-5.859,5.859-15.352,5.859-21.211,0
			s-5.859-15.352,0-21.211L280.289,406l-19.395-19.395c-5.859-5.859-5.859-15.352,0-21.211c5.859-5.859,15.352-5.859,21.211,0
			l19.395,19.395l19.395-19.395c5.859-5.859,15.352-5.859,21.211,0s5.859,15.352,0,21.211L322.711,406L342.105,425.395z"/>
	</g>
</g>
<g>
</g>
<g>
</g>
<g>
</g>
<g>
</g>
<g>
</g>
<g>
</g>
<g>
</g>
<g>
</g>
<g>
</g>
<g>
</g>
<g>
</g>
<g>
</g>
<g>
</g>
<g>
</g>
<g>
</g>
</svg>
