<?xml version="1.0" encoding="iso-8859-1"?>
<!-- Generator: Adobe Illustrator 19.0.0, SVG Export Plug-In . SVG Version: 6.00 Build 0)  -->
<svg version="1.1" id="Capa_1" xmlns="http://www.w3.org/2000/svg" xmlns:xlink="http://www.w3.org/1999/xlink" x="0px" y="0px"
	 viewBox="0 0 512.001 512.001" style="enable-background:new 0 0 512.001 512.001;" xml:space="preserve">
<g>
	<g>
		<path d="M83.485,428.6c-7.338-7.339-13.661-15.119-19.319-23.107l-55.395,55.31c-11.695,11.695-11.695,30.733,0,42.427
			c11.694,11.694,30.732,11.694,42.426,0l55.395-55.311C98.603,442.261,90.823,435.939,83.485,428.6z"/>
	</g>
</g>
<g>
	<g>
		<path d="M309.192,63.734c-6.151-1.06-12.092,1.485-15.484,6.576L161.126,269.077l-26.941,40.518l3.377,3.377l175.467-105.318
			c55.747-33.469,94.391-90.393,105.553-155.059C384.555,66.937,346.589,71.214,309.192,63.734z"/>
	</g>
</g>
<g>
	<g>
		<path d="M486.536,4.337c-12.777,12.777-18.599,18.93-35.907,30.653c-6.716,82.518-52.526,156.579-122.166,198.373L159.416,334.826
			l43.712,43.712l40.941-24.819l115.188-68.944c94.399-56.639,152.735-159.947,152.734-269.831
			C512.45,1.719,495.854-4.982,486.536,4.337z"/>
	</g>
</g>
<g>
	<g>
		<path d="M208.526,410.288c-5.904,3.542-13.455,2.621-18.323-2.248l-85.93-85.93c-5.055-5.055-5.832-12.979-1.875-18.924
			l26.767-40.146c-17.943-0.192-34.013,5.402-45.68,17.069c-29.738,29.738-20.416,85.65,21.213,127.279
			c41.629,41.629,97.541,50.951,127.279,21.213c10.921-10.921,16.52-25.86,17.004-42.586L208.526,410.288z"/>
	</g>
</g>
<g>
</g>
<g>
</g>
<g>
</g>
<g>
</g>
<g>
</g>
<g>
</g>
<g>
</g>
<g>
</g>
<g>
</g>
<g>
</g>
<g>
</g>
<g>
</g>
<g>
</g>
<g>
</g>
<g>
</g>
</svg>
