<?xml version="1.0" encoding="iso-8859-1"?>
<!-- Generator: Adobe Illustrator 19.0.0, SVG Export Plug-In . SVG Version: 6.00 Build 0)  -->
<svg version="1.1" id="Capa_1" xmlns="http://www.w3.org/2000/svg" xmlns:xlink="http://www.w3.org/1999/xlink" x="0px" y="0px"
	 viewBox="0 0 512 512" style="enable-background:new 0 0 512 512;" xml:space="preserve">
<g>
	<g>
		<path d="M117.748,12.041L12.041,117.748l77.014,38.007c16.467-27.319,39.38-50.233,66.7-66.7L117.748,12.041z"/>
	</g>
</g>
<g>
	<g>
		<path d="M75.489,182.516L0,145.272v221.451l75.489-37.242C66.213,306.779,61,281.999,61,256
			C61,230.001,66.213,205.219,75.489,182.516z"/>
	</g>
</g>
<g>
	<g>
		<path d="M394.25,12.039l-38.005,77.016c27.319,16.467,50.233,39.38,66.7,66.7l77.016-38.005L394.25,12.039z"/>
	</g>
</g>
<g>
	<g>
		<path d="M436.513,182.516C445.789,205.219,451,230.001,451,256c0,26.001-5.211,50.781-14.489,73.484L512,366.731V145.274
			L436.513,182.516z"/>
	</g>
</g>
<g>
	<g>
		<path d="M89.056,356.246L12.039,394.25l105.713,105.713l38.009-77.014C128.44,406.48,105.524,383.567,89.056,356.246z"/>
	</g>
</g>
<g>
	<g>
		<path d="M256,151c-8.276,0-15,6.724-15,15s6.724,15,15,15s15-6.724,15-15S264.276,151,256,151z"/>
	</g>
</g>
<g>
	<g>
		<path d="M422.944,356.245c-16.466,27.319-39.38,50.233-66.699,66.7l38.007,77.014l105.705-105.705L422.944,356.245z"/>
	</g>
</g>
<g>
	<g>
		<path d="M350.396,120.87C356.992,134.597,361,149.782,361,166c0,57.891-47.109,105-105,105c-41.353,0-75,33.647-75,75
			c0,41.353,33.647,75,75,75c90.981,0,165-74.019,165-165C421,200.124,393.016,150.733,350.396,120.87z M256,391
			c-24.814,0-45-20.186-45-45c0-24.814,20.186-45,45-45c24.814,0,45,20.186,45,45C301,370.814,280.814,391,256,391z"/>
	</g>
</g>
<g>
	<g>
		<path d="M145.272,0l37.244,75.489C205.219,66.211,229.999,61,256,61c25.999,0,50.781,5.211,73.484,14.487L366.726,0H145.272z"/>
	</g>
</g>
<g>
	<g>
		<path d="M329.483,436.511C306.781,445.787,281.999,451,256,451c-25.997,0-50.775-5.211-73.477-14.487L145.276,512h221.451
			L329.483,436.511z"/>
	</g>
</g>
<g>
	<g>
		<path d="M256,91c-90.981,0-165,74.019-165,165c0,55.876,27.984,105.267,70.604,135.13C155.008,377.403,151,362.218,151,346
			c0-57.891,47.109-105,105-105c41.353,0,75-33.647,75-75C331,124.647,297.353,91,256,91z M256,211c-24.814,0-45-20.186-45-45
			c0-24.814,20.186-45,45-45c24.814,0,45,20.186,45,45C301,190.814,280.814,211,256,211z"/>
	</g>
</g>
<g>
	<g>
		<path d="M256,331c-8.276,0-15,6.724-15,15s6.724,15,15,15s15-6.724,15-15S264.276,331,256,331z"/>
	</g>
</g>
<g>
</g>
<g>
</g>
<g>
</g>
<g>
</g>
<g>
</g>
<g>
</g>
<g>
</g>
<g>
</g>
<g>
</g>
<g>
</g>
<g>
</g>
<g>
</g>
<g>
</g>
<g>
</g>
<g>
</g>
</svg>
