<?xml version="1.0" encoding="iso-8859-1"?>
<!-- Generator: Adobe Illustrator 19.0.0, SVG Export Plug-In . SVG Version: 6.00 Build 0)  -->
<svg version="1.1" id="Capa_1" xmlns="http://www.w3.org/2000/svg" xmlns:xlink="http://www.w3.org/1999/xlink" x="0px" y="0px"
	 viewBox="0 0 512 512" style="enable-background:new 0 0 512 512;" xml:space="preserve">
<g>
	<g>
		<path d="M158.502,75.997c-24.813,0-44.998,20.185-44.998,44.998c0,24.813,20.185,44.998,44.998,44.998
			c24.813,0,44.998-20.185,44.998-44.998C203.5,96.182,183.315,75.997,158.502,75.997z"/>
	</g>
</g>
<g>
	<g>
		<path d="M276.999,229.291l-119.996-59.998c-4.2-2.1-8.701-3.3-13.5-3.3c-8.101,0-15.6,2.999-21.3,8.699l-17.399,17.7
			c-33,32.998-51.299,76.797-51.299,123.595c0,25.101,0,57.943,0,82.922l-41.834,69.654c-7.441,14.854-1.386,32.866,13.417,40.253
			c14.754,7.377,32.779,1.531,40.253-13.417l44.998-75.997c2.065-4.131,3.164-8.774,3.164-13.418v-33.917l29.999,20.117v89.797
			c0,16.499,13.5,29.999,29.999,29.999s29.999-13.5,29.999-29.999V375.986c0-9.901-5.099-19.5-13.499-24.9l-75.896-50.698
			l2.399-10.199c3.9-18.299,12.301-34.8,24.9-49.198l7.5-8.699L250,282.69c12.355,7.055,32.05,3.1,40.199-13.2
			C297.806,254.279,291.462,235.919,276.999,229.291z"/>
	</g>
</g>
<g>
	<g>
		<path d="M368.494,345.987c-24.813,0-44.998,20.185-44.998,44.998c0,24.813,20.185,44.998,44.998,44.998
			c24.814,0,44.998-20.185,44.998-44.998C413.492,366.172,393.307,345.987,368.494,345.987z"/>
	</g>
</g>
<g>
	<g>
		<path d="M486.924,3.164c-14.417-7.181-33.293-0.509-40.268,13.417l-29.999,60.998c-2.065,4.131-3.164,8.774-3.164,13.418v48.916
			l-29.999-20.117V29.999C383.495,13.5,369.995,0,353.496,0s-29.999,13.5-29.999,29.999v105.996c0,9.901,5.099,19.5,13.5,24.9
			l75.896,50.698c-7.126,30.297-8.589,37.697-34.798,68.096l-54.899-27.299c0.901,10.499-1.199,20.999-6,30.6
			c-4.799,9.3-11.999,17.398-20.699,22.797l73.497,36.9c12.338,6.169,26.073,3.327,34.8-5.399l17.398-17.7
			c30.79-30.788,48.572-71.018,50.843-114.274l0.456,0.156V98.071l26.835-54.655C507.767,28.563,501.721,10.563,486.924,3.164z"/>
	</g>
</g>
<g>
</g>
<g>
</g>
<g>
</g>
<g>
</g>
<g>
</g>
<g>
</g>
<g>
</g>
<g>
</g>
<g>
</g>
<g>
</g>
<g>
</g>
<g>
</g>
<g>
</g>
<g>
</g>
<g>
</g>
</svg>
