<?xml version="1.0" encoding="iso-8859-1"?>
<!-- Generator: Adobe Illustrator 19.0.0, SVG Export Plug-In . SVG Version: 6.00 Build 0)  -->
<svg version="1.1" id="Capa_1" xmlns="http://www.w3.org/2000/svg" xmlns:xlink="http://www.w3.org/1999/xlink" x="0px" y="0px"
	 viewBox="0 0 511.999 511.999" style="enable-background:new 0 0 511.999 511.999;" xml:space="preserve">
<g>
	<g>
		<path d="M333.524,8.771c-11.694-11.694-30.732-11.694-42.426,0l-42.426,42.426l42.426,42.426l42.426-42.426
			C345.218,39.503,345.218,20.465,333.524,8.771z"/>
	</g>
</g>
<g>
	<g>
		<path d="M397.163,72.411c-11.694-11.694-30.732-11.694-42.426,0l-42.426,42.426l42.426,42.426l42.426-42.426
			C408.857,103.143,408.857,84.105,397.163,72.411z"/>
	</g>
</g>
<g>
	<g>
		<path d="M460.803,136.05c-11.694-11.694-30.732-11.694-42.426,0l-42.426,42.426l42.426,42.426l42.426-42.426
			C472.497,166.782,472.497,147.744,460.803,136.05z"/>
	</g>
</g>
<g>
	<g>
		<path d="M102.825,202.336c-4.836,9.236-9.76,18.419-15.077,27.349l215.781,215.781c8.93-5.317,18.114-10.241,27.349-15.077
			L102.825,202.336z"/>
	</g>
</g>
<g>
	<g>
		<path d="M344.13,273.936l-84.853-84.853c-5.852-5.852-15.361-5.852-21.213,0c-5.852,5.853-5.852,15.361,0,21.213l84.853,84.853
			c5.852,5.852,15.361,5.852,21.213,0C349.982,289.296,349.982,279.788,344.13,273.936z"/>
	</g>
</g>
<g>
	<g>
		<path d="M227.458,72.41L121.392,178.476l233.345,233.345l106.066-106.066L227.458,72.41z M301.704,316.363l-84.853-84.853
			c-17.547-17.546-17.547-46.093,0-63.64s46.093-17.547,63.64,0l84.853,84.853c17.546,17.546,17.546,46.093,0,63.64
			C347.797,333.909,319.251,333.909,301.704,316.363z"/>
	</g>
</g>
<g>
	<g>
		<path d="M503.229,220.902c-11.694-11.693-30.732-11.693-42.426,0.001l-21.213,21.213l42.426,42.426l21.213-21.213
			C514.923,251.635,514.923,232.597,503.229,220.902z"/>
	</g>
</g>
<g>
	<g>
		<path d="M143.723,71.292c-9.311,9.312-16.438,20.83-21.14,35.455l-6.034,34.145l93.987-93.987
			C186.034,44.952,161.693,53.322,143.723,71.292z"/>
	</g>
</g>
<g>
	<g>
		<path d="M71.089,255.454c-20.525,30.582-32.695,34.642-58.881,60.828l-7.764,7.691c-5.905,5.85-5.928,15.386-0.05,21.263
			l170.495,162.37c5.838,5.838,15.297,5.861,21.163,0.05l7.865-7.791c26.186-26.186,43.26-17.216,73.843-37.742L71.089,255.454z"/>
	</g>
</g>
<g>
</g>
<g>
</g>
<g>
</g>
<g>
</g>
<g>
</g>
<g>
</g>
<g>
</g>
<g>
</g>
<g>
</g>
<g>
</g>
<g>
</g>
<g>
</g>
<g>
</g>
<g>
</g>
<g>
</g>
</svg>
