<?xml version="1.0" encoding="iso-8859-1"?>
<!-- Generator: Adobe Illustrator 19.0.0, SVG Export Plug-In . SVG Version: 6.00 Build 0)  -->
<svg version="1.1" id="Capa_1" xmlns="http://www.w3.org/2000/svg" xmlns:xlink="http://www.w3.org/1999/xlink" x="0px" y="0px"
	 viewBox="0 0 512 512" style="enable-background:new 0 0 512 512;" xml:space="preserve">
<g>
	<g>
		<path d="M278,30v122.621c77.39,7.71,150.522,47.721,199.018,112.403C485.651,276.505,504,270.365,504,256
			C504,131.928,402.072,30,278,30z"/>
	</g>
</g>
<g>
	<g>
		<rect x="8" y="332" width="60" height="30"/>
	</g>
</g>
<g>
	<g>
		<rect x="8" y="392" width="60" height="30"/>
	</g>
</g>
<g>
	<g>
		<path d="M8,452v30c0,16.538,13.462,30,30,30s30-13.462,30-30v-30H8z"/>
	</g>
</g>
<g>
	<g>
		<rect x="188" y="271" width="60" height="31"/>
	</g>
</g>
<g>
	<g>
		<rect x="188" y="211" width="60" height="30"/>
	</g>
</g>
<g>
	<g>
		<path d="M218,0c-16.538,0-30,13.462-30,30v151h60V30C248,13.462,234.538,0,218,0z"/>
	</g>
</g>
<g>
	<g>
		<path d="M188,332v30c0,10.957,6.2,20.151,15,25.388V452c0,16.538-13.462,30-30,30c-16.538,0-30-13.462-30-30V181
			c0-33.091-26.909-60-60-60s-60,26.909-60,60v64.612C14.2,250.849,8,260.043,8,271v31h60v-31c0-10.957-6.2-20.151-15-25.388V181
			c0-16.538,13.462-30,30-30s30,13.462,30,30v271c0,33.091,26.909,60,60,60s60-26.909,60-60v-64.612c8.8-5.237,15-14.431,15-25.388
			v-30H188z"/>
	</g>
</g>
<g>
</g>
<g>
</g>
<g>
</g>
<g>
</g>
<g>
</g>
<g>
</g>
<g>
</g>
<g>
</g>
<g>
</g>
<g>
</g>
<g>
</g>
<g>
</g>
<g>
</g>
<g>
</g>
<g>
</g>
</svg>
