<?xml version="1.0" encoding="iso-8859-1"?>
<!-- Generator: Adobe Illustrator 19.0.0, SVG Export Plug-In . SVG Version: 6.00 Build 0)  -->
<svg version="1.1" id="Capa_1" xmlns="http://www.w3.org/2000/svg" xmlns:xlink="http://www.w3.org/1999/xlink" x="0px" y="0px"
	 viewBox="0 0 512 512" style="enable-background:new 0 0 512 512;" xml:space="preserve">
<g>
	<g>
		<path d="M136,0c-27.979,0-52.141,15.584-65.03,38.354C83.983,33.054,98.15,30,113.046,30h45.908
			c14.896,0,29.063,3.054,42.076,8.354C188.141,15.584,163.979,0,136,0z"/>
	</g>
</g>
<g>
	<g>
		<path d="M136,482c-15.8,0-30.742-3.538-44.442-9.474C94.32,494.713,113.077,512,136,512c22.923,0,41.68-17.287,44.442-39.474
			C166.742,478.462,151.8,482,136,482z"/>
	</g>
</g>
<g>
	<g>
		<path d="M376,0c-27.979,0-52.141,15.584-65.03,38.354c13.013-5.3,27.18-8.354,42.076-8.354h45.908
			c14.896,0,29.063,3.054,42.076,8.354C428.141,15.584,403.979,0,376,0z"/>
	</g>
</g>
<g>
	<g>
		<path d="M76,150c-21.99,0-38.165,0-61,0c-8.291,0-15,6.709-15,15s6.709,15,15,15c22.788,0,39.145,0,61,0c8.276,0,15-6.724,15-15
			S84.276,150,76,150z"/>
	</g>
</g>
<g>
	<g>
		<path d="M196,150c-8.276,0-15,6.724-15,15s6.724,15,15,15h43.469l1.033-9.287c0.337-3.018,0.498-6.064,0.498-9.097V150H196z"/>
	</g>
</g>
<g>
	<g>
		<path d="M140.746,299.223C139.208,299.736,137.597,300,136,300s-3.208-0.264-4.746-0.776l-88.748-29.583l3.279,29.48L136,329.194
			l90.214-30.068l3.281-29.489L140.746,299.223z"/>
	</g>
</g>
<g>
	<g>
		<path d="M151,165c0-24.814,20.186-45,45-45h41.609c-9.705-34.49-41.107-60-78.655-60h-45.908c-37.548,0-68.95,25.51-78.655,60H76
			c24.814,0,45,20.186,45,45c0,24.814-20.186,45-45,45H35.872l2.983,26.812L136,269.194l97.148-32.386L236.131,210H196
			C171.186,210,151,189.814,151,165z"/>
	</g>
</g>
<g>
	<g>
		<path d="M380.746,299.223C379.208,299.736,377.597,300,376,300s-3.208-0.264-4.746-0.776l-88.748-29.584l3.279,29.482L376,329.194
			l90.214-30.068l3.281-29.489L380.746,299.223z"/>
	</g>
</g>
<g>
	<g>
		<path d="M497,150c-22.07,0-38.546,0-61,0c-8.276,0-15,6.724-15,15s6.724,15,15,15c6.777,0,54.223,0,61,0c8.291,0,15-6.709,15-15
			S505.291,150,497,150z"/>
	</g>
</g>
<g>
	<g>
		<path d="M391,165c0-24.814,20.186-45,45-45h41.609c-9.705-34.49-41.107-60-78.655-60h-45.908c-37.548,0-68.95,25.51-78.655,60H316
			c24.814,0,45,20.186,45,45c0,24.814-20.186,45-45,45h-40.129l2.983,26.811L376,269.194l97.148-32.386L476.131,210H436
			C411.186,210,391,189.814,391,165z"/>
	</g>
</g>
<g>
	<g>
		<path d="M316,150h-45v11.616c0,3.032,0.161,6.079,0.498,9.067l1.036,9.316H316c8.276,0.001,15-6.723,15-14.999
			S324.276,150,316,150z"/>
	</g>
</g>
<g>
	<g>
		<path d="M376,482c-15.8,0-30.742-3.538-44.442-9.474C334.32,494.713,353.077,512,376,512c22.923,0,41.68-17.287,44.442-39.474
			C406.742,478.462,391.8,482,376,482z"/>
	</g>
</g>
<g>
	<g>
		<path d="M497,330h-28.579l-19.041,6.347l-68.633,22.877c-1.539,0.512-3.15,0.776-4.747,0.776s-3.208-0.264-4.746-0.776
			l-50.702-16.902L283.59,330H271v30h21.559l1.893,17.021C299.081,418.623,334.149,452,376,452s76.919-33.377,81.548-74.979
			L459.441,360H497c8.284,0,15-6.716,15-15C512,336.714,505.284,330,497,330z"/>
	</g>
</g>
<g>
	<g>
		<path d="M228.1,330l-36.899,12.299c-0.013,0.037-0.002,0.075-0.013,0.112l-50.442,16.813C139.208,359.736,137.597,360,136,360
			s-3.208-0.264-4.746-0.776L80.812,342.41c-0.011-0.037,0-0.073-0.013-0.11l-37.2-12.3H15c-8.401,0-15,6.599-15,15
			c0,8.399,6.599,15,15,15h37.559l1.893,17.021C59.081,418.623,94.149,452,136,452s76.919-33.377,81.548-74.979L219.441,360H241v-30
			H228.1z"/>
	</g>
</g>
<g>
</g>
<g>
</g>
<g>
</g>
<g>
</g>
<g>
</g>
<g>
</g>
<g>
</g>
<g>
</g>
<g>
</g>
<g>
</g>
<g>
</g>
<g>
</g>
<g>
</g>
<g>
</g>
<g>
</g>
</svg>
