<?xml version="1.0" encoding="iso-8859-1"?>
<!-- Generator: Adobe Illustrator 19.0.0, SVG Export Plug-In . SVG Version: 6.00 Build 0)  -->
<svg version="1.1" id="Capa_1" xmlns="http://www.w3.org/2000/svg" xmlns:xlink="http://www.w3.org/1999/xlink" x="0px" y="0px"
	 viewBox="0 0 512 512" style="enable-background:new 0 0 512 512;" xml:space="preserve">
<g>
	<g>
		<path d="M451,120H301c-16.538,0-30,13.462-30,30c0,16.538,13.462,30,30,30h150c16.538,0,30-13.462,30-30
			C481,133.462,467.538,120,451,120z"/>
	</g>
</g>
<g>
	<g>
		<path d="M211,60H61c-16.538,0-30,13.462-30,30s13.462,30,30,30h150c16.538,0,30-13.462,30-30S227.538,60,211,60z"/>
	</g>
</g>
<g>
	<g>
		<path d="M211,240H91c-16.538,0-30,13.462-30,30c0,16.538,13.462,30,30,30h120c16.538,0,30-13.462,30-30
			C241,253.462,227.538,240,211,240z"/>
	</g>
</g>
<g>
	<g>
		<path d="M322,0.599C320.2,0.3,318.1,0,316,0H196c-2.1,0-4.2,0.3-6,0.599c-13.799,2.701-24,15-24,29.401h45
			c32.999,0,60,26.999,60,60c0,2.999-0.601,6-0.901,8.699C279.101,93.3,289.6,90,301,90h45V30C346,15.599,335.799,3.3,322,0.599z"/>
	</g>
</g>
<g>
	<g>
		<path d="M301,210c-32.999,0-60-27.001-60-60c0-3.001,0.601-6,0.901-8.701C232.899,146.7,222.4,150,211,150h-45v60h45
			c32.999,0,60,26.999,60,60c0,2.999-0.601,6-0.901,8.699C279.101,273.3,289.6,270,301,270h45v-60H301z"/>
	</g>
</g>
<g>
	<g>
		<path d="M451,300H301c-16.538,0-30,13.462-30,30c0,16.538,13.462,30,30,30h120v30c0,16.538,13.462,30,30,30
			c16.538,0,30-13.462,30-30v-60C481,313.462,467.538,300,451,300z"/>
	</g>
</g>
<g>
	<g>
		<path d="M301,390c-32.999,0-60-27.001-60-60c0-3.001,0.601-6,0.901-8.701C232.899,326.7,222.4,330,211,330h-45v90h180v-30H301z"/>
	</g>
</g>
<g>
	<g>
		<path d="M376,450H136c-8.284,0-15,6.714-15,15v32c0,8.291,6.709,15,15,15h240c8.291,0,15-6.709,15-15v-32
			C391,456.714,384.284,450,376,450z"/>
	</g>
</g>
<g>
</g>
<g>
</g>
<g>
</g>
<g>
</g>
<g>
</g>
<g>
</g>
<g>
</g>
<g>
</g>
<g>
</g>
<g>
</g>
<g>
</g>
<g>
</g>
<g>
</g>
<g>
</g>
<g>
</g>
</svg>
