<?xml version="1.0" encoding="iso-8859-1"?>
<!-- Generator: Adobe Illustrator 19.0.0, SVG Export Plug-In . SVG Version: 6.00 Build 0)  -->
<svg version="1.1" id="Capa_1" xmlns="http://www.w3.org/2000/svg" xmlns:xlink="http://www.w3.org/1999/xlink" x="0px" y="0px"
	 viewBox="0 0 512 512" style="enable-background:new 0 0 512 512;" xml:space="preserve">
<g>
	<g>
		<path d="M429.49,272.196c-3.182-6.421-10.453-9.705-17.343-7.843c-16.86,4.545-34.672,3.856-51.063-1.773v-13.59
			c16.39-5.615,34.217-6.289,51.063-1.759c6.891,1.877,14.162-1.422,17.343-7.843l47.983-97.037
			c2.229-4.501,2.053-9.808-0.454-14.161c-2.507-4.354-7.023-7.154-12.036-7.477l-108.032-6.964
			c-7.125-0.234-13.605,4.192-15.467,11.098c-4.853,18.106-15.202,33.91-29.614,45.491l-9.162-9.177
			c3.357-16.904,11.714-32.634,23.956-44.876c5.058-5.058,5.85-12.99,1.877-18.941L268.491,6.268c-5.57-8.357-19.411-8.357-24.981,0
			l-60.049,91.074c-3.973,5.952-3.182,13.883,1.877,18.941c12.241,12.241,20.598,27.972,23.956,44.876l-9.162,9.177
			c-14.411-11.581-24.761-27.385-29.614-45.491c-1.862-6.905-8.298-11.362-15.467-11.098l-108.032,6.964
			c-5.014,0.322-9.529,3.123-12.036,7.477c-2.507,4.354-2.683,9.661-0.454,14.161l47.983,97.037
			c3.182,6.421,10.482,9.72,17.343,7.843c16.845-4.516,34.672-3.856,51.063,1.759v13.605c-16.39,5.6-34.188,6.303-51.062,1.758
			c-6.861-1.862-14.162,1.422-17.343,7.843l-47.983,97.037c-2.229,4.501-2.053,9.808,0.454,14.162
			c2.507,4.354,7.023,7.154,12.036,7.477l108.032,6.964c7.198,0.249,13.605-4.192,15.467-11.098
			c4.853-18.12,15.217-33.924,29.614-45.491l9.162,9.177c-3.357,16.904-11.714,32.634-23.956,44.876
			c-5.058,5.058-5.85,12.99-1.877,18.941l60.049,91.074c2.785,4.178,7.477,6.685,12.49,6.685c5.013,0,9.705-2.507,12.49-6.685
			l60.049-91.074c3.973-5.952,3.182-13.883-1.877-18.941c-12.241-12.241-20.598-27.972-23.956-44.876l9.162-9.177
			c14.397,11.567,24.761,27.371,29.614,45.491c1.862,6.905,8.313,11.332,15.467,11.098l108.032-6.964
			c5.014-0.322,9.529-3.123,12.036-7.477c2.507-4.355,2.683-9.661,0.454-14.162L429.49,272.196z M256.002,300.828
			c-24.834,0-45.037-20.202-45.037-45.037c0-24.834,20.202-45.037,45.037-45.037s45.037,20.202,45.037,45.037
			S280.836,300.828,256.002,300.828z"/>
	</g>
</g>
<g>
	<g>
		<path d="M256.002,240.78c-8.283,0-15.012,6.729-15.012,15.012c0,8.283,6.729,15.012,15.012,15.012
			c8.283,0,15.012-6.729,15.012-15.012C271.014,247.509,264.285,240.78,256.002,240.78z"/>
	</g>
</g>
<g>
</g>
<g>
</g>
<g>
</g>
<g>
</g>
<g>
</g>
<g>
</g>
<g>
</g>
<g>
</g>
<g>
</g>
<g>
</g>
<g>
</g>
<g>
</g>
<g>
</g>
<g>
</g>
<g>
</g>
</svg>
