<?xml version="1.0" encoding="iso-8859-1"?>
<!-- Generator: Adobe Illustrator 19.0.0, SVG Export Plug-In . SVG Version: 6.00 Build 0)  -->
<svg version="1.1" id="Capa_1" xmlns="http://www.w3.org/2000/svg" xmlns:xlink="http://www.w3.org/1999/xlink" x="0px" y="0px"
	 viewBox="0 0 512 512" style="enable-background:new 0 0 512 512;" xml:space="preserve">
<g>
	<g>
		<path d="M256,0c-34.504,0-67.562,10.635-95.032,30c4.968-0.151,182.453-0.231,190.064,0C323.562,10.635,290.504,0,256,0z"/>
	</g>
</g>
<g>
	<g>
		<path d="M271,437c0-16.948,5.865-32.426,15.383-45h-60.765C235.135,404.574,241,420.052,241,437v30c0,5.136-0.529,10.151-1.518,15
			h33.036c-0.989-4.849-1.518-9.864-1.518-15V437z"/>
	</g>
</g>
<g>
	<g>
		<path d="M286,150h-60c-8.276,0-15,6.724-15,15s6.724,15,15,15h60c8.276,0,15-6.724,15-15S294.276,150,286,150z"/>
	</g>
</g>
<g>
	<g>
		<path d="M346,60H166C91.441,60,31,120.441,31,195v182c0,74.559,60.441,135,135,135c24.853,0,45-20.147,45-45v-30
			c0-24.853-20.147-45-45-45h-30c-8.284,0-15-6.716-15-15v-92c0-24.853,20.147-45,45-45h180c24.853,0,45,20.147,45,45v92
			c0,8.284-6.716,15-15,15h-30c-24.853,0-45,20.147-45,45v30c0,24.853,20.147,45,45,45c74.559,0,135-60.441,135-135V195
			C481,120.441,420.559,60,346,60z M286,210h-60c-24.814,0-45-20.186-45-45c0-24.814,20.186-45,45-45h60c24.814,0,45,20.186,45,45
			C331,189.814,310.814,210,286,210z"/>
	</g>
</g>
<g>
</g>
<g>
</g>
<g>
</g>
<g>
</g>
<g>
</g>
<g>
</g>
<g>
</g>
<g>
</g>
<g>
</g>
<g>
</g>
<g>
</g>
<g>
</g>
<g>
</g>
<g>
</g>
<g>
</g>
</svg>
