<?xml version="1.0" encoding="iso-8859-1"?>
<!-- Generator: Adobe Illustrator 19.0.0, SVG Export Plug-In . SVG Version: 6.00 Build 0)  -->
<svg version="1.1" id="Capa_1" xmlns="http://www.w3.org/2000/svg" xmlns:xlink="http://www.w3.org/1999/xlink" x="0px" y="0px"
	 viewBox="0 0 512 512" style="enable-background:new 0 0 512 512;" xml:space="preserve">
<g>
	<g>
		<path d="M256,0C123.701,0,17.401,45,2.1,105c6,24.3,27.999,45.899,59.2,63.3c-0.3-1.199-0.3-2.1-0.3-3.3
			c0-98.401,390-98.401,390,0c0,1.199,0,2.1-0.3,3.3c31.201-17.401,53.2-39,59.2-63.3C494.599,45,388.299,0,256,0z"/>
	</g>
</g>
<g>
	<g>
		<path d="M420.224,492.254l-57.098-173.295l0.005-0.002l-28.079-84.245c-2.17,0.297-4.515,0.41-6.707,0.683L301,317.432V512h105
			C416.257,512,423.482,501.935,420.224,492.254z"/>
	</g>
</g>
<g>
	<g>
		<path d="M364.931,229.515l27.369,82.112C466.3,290.42,512,253.457,512,210v-49.948
			C481.962,192.251,429.622,216.562,364.931,229.515z"/>
	</g>
</g>
<g>
	<g>
		<path d="M0,160.052V210c0,43.345,45.734,80.385,119.7,101.625l27.411-82.233C82.392,216.492,30.031,192.242,0,160.052z"/>
	</g>
</g>
<g>
	<g>
		<path d="M183.664,235.417c-2.265-0.28-4.374-0.709-6.612-1.015l-28.187,84.565l0.005,0.002L91.776,492.254
			C88.518,501.935,95.743,512,106,512h105V317.432L183.664,235.417z"/>
	</g>
</g>
<g>
	<g>
		<path d="M256,240c-13.559,0-26.741-0.513-39.642-1.344l23.866,71.598c0.513,1.538,0.776,3.135,0.776,4.746v-30
			c0-8.291,6.709-15,15-15s15,6.709,15,15v30c0-1.611,0.264-3.208,0.776-4.746l23.866-71.592C282.763,239.517,269.561,240,256,240z"
			/>
	</g>
</g>
<g>
</g>
<g>
</g>
<g>
</g>
<g>
</g>
<g>
</g>
<g>
</g>
<g>
</g>
<g>
</g>
<g>
</g>
<g>
</g>
<g>
</g>
<g>
</g>
<g>
</g>
<g>
</g>
<g>
</g>
</svg>
