<?xml version="1.0" encoding="iso-8859-1"?>
<!-- Generator: Adobe Illustrator 19.0.0, SVG Export Plug-In . SVG Version: 6.00 Build 0)  -->
<svg version="1.1" id="Capa_1" xmlns="http://www.w3.org/2000/svg" xmlns:xlink="http://www.w3.org/1999/xlink" x="0px" y="0px"
	 viewBox="0 0 512 512" style="enable-background:new 0 0 512 512;" xml:space="preserve">
<g>
	<g>
		<path d="M407.309,271c-16.538,0-30,13.462-30,30c0,45.493-33.922,83.205-77.802,89.176c-7.181,0.976-12.198,7.701-12.198,14.949
			V451h-60v-31.437c-38.097-2.262-75.59-8.478-111.98-19.54c12.446,14.037,27.217,26.039,43.835,34.57l8.145,4.189V497
			c0,8.284,6.716,15,15,15h30c8.284,0,15-6.716,15-15v-16h60v16c0,8.284,6.716,15,15,15h30c8.284,0,15-6.716,15-15v-58.217
			l8.174-4.189c50.464-25.811,81.826-77.007,81.826-133.594C437.309,284.462,423.847,271,407.309,271z"/>
	</g>
</g>
<g>
	<g>
		<path d="M435.228,35.728C378.905,12.026,319.359,0,256.385,0c-34.66,0-68.718,4.301-102.061,11.97
			c48.706,25.421,83.179,90.588,87.189,169.03h33.558c6.213-17.422,22.707-30,42.237-30c19.53,0,36.024,12.578,42.237,30h151.972
			C507.568,112.742,477.515,53.527,435.228,35.728z"/>
	</g>
</g>
<g>
	<g>
		<path d="M317.309,181c-8.276,0-15,6.724-15,15s6.724,15,15,15s15-6.724,15-15S325.585,181,317.309,181z"/>
	</g>
</g>
<g>
	<g>
		<path d="M511.692,211H359.545c-6.212,17.422-22.706,30-42.236,30c-19.53,0-36.024-12.578-42.237-30h-33.558
			c-4.01,78.442-38.483,142.61-87.189,168.03c33.344,7.668,67.401,11.97,102.061,11.97h3.475
			c5.211-15.965,18.651-28.27,35.651-30.557c29.502-4.014,51.797-29.575,51.797-59.443c0-33.091,26.909-60,60-60s60,26.909,60,60
			c0,11.695-1.485,23.082-3.64,34.268C490.64,308.302,508.695,262.623,511.692,211z"/>
	</g>
</g>
<g>
	<g>
		<path d="M107.309,30c-60.548,0-107,77.782-107,166c0,88.242,46.467,165,107,165c58.872,0,105-72.48,105-165S166.181,30,107.309,30
			z M107.309,271c-25.649,0-45-32.241-45-75c0-42.759,19.35-75,45-75c25.649,0,45,32.241,45,75
			C152.309,238.759,132.958,271,107.309,271z"/>
	</g>
</g>
<g>
	<g>
		<path d="M107.309,151c-3.735,0-15,15.967-15,45s11.264,45,15,45c3.735,0,15-15.967,15-45S111.044,151,107.309,151z"/>
	</g>
</g>
<g>
</g>
<g>
</g>
<g>
</g>
<g>
</g>
<g>
</g>
<g>
</g>
<g>
</g>
<g>
</g>
<g>
</g>
<g>
</g>
<g>
</g>
<g>
</g>
<g>
</g>
<g>
</g>
<g>
</g>
</svg>
