<?xml version="1.0" encoding="iso-8859-1"?>
<!-- Generator: Adobe Illustrator 19.0.0, SVG Export Plug-In . SVG Version: 6.00 Build 0)  -->
<svg version="1.1" id="Capa_1" xmlns="http://www.w3.org/2000/svg" xmlns:xlink="http://www.w3.org/1999/xlink" x="0px" y="0px"
	 viewBox="0 0 512 512" style="enable-background:new 0 0 512 512;" xml:space="preserve">
<g>
	<g>
		<path d="M163.377,319.542c-34.938-23.73-81.88-23.73-116.818,0C17.412,339.345,0.01,371.994,0,406.869
			c0.01,28.122,11.321,54.783,30.981,74.443c36.727,36.728,92.759,39.808,132.396,12.886c29.147-19.805,46.549-52.453,46.559-87.328
			C209.926,371.995,192.483,339.367,163.377,319.542z M136.788,438.689c-17.546,17.546-46.093,17.546-63.64,0
			c-17.546-17.547-17.546-46.093,0-63.64s46.093-17.547,63.64,0C154.335,392.595,154.335,421.142,136.788,438.689z"/>
	</g>
</g>
<g>
	<g>
		<path d="M115.575,396.263c-5.852-5.852-15.361-5.852-21.213,0s-5.852,15.361,0,21.213c5.852,5.852,15.36,5.852,21.213,0
			C121.427,411.624,121.427,402.115,115.575,396.263z"/>
	</g>
</g>
<g>
	<g>
		<path d="M491.011,1.123L261.239,111.075c-13.124,5.977-22.663,17.982-25.501,32.151l-12.703,63.511l30.425,30.425l53.033-53.033
			c5.863-5.863,15.351-5.863,21.213,0c5.863,5.863,5.863,15.351,0,21.213l-53.033,53.033l30.425,30.425l63.511-12.703
			c14.17-2.838,26.175-12.378,32.151-25.501L510.877,20.989C516.036,9.616,502.384-4.036,491.011,1.123z"/>
	</g>
</g>
<g>
	<g>
		<path d="M211.034,237.163l-47.825,47.826c5.861,2.808,11.57,6.026,17.031,9.734c20.422,13.915,36.214,32.724,46.422,54.092
			l48.012-48.012L211.034,237.163z"/>
	</g>
</g>
<g>
</g>
<g>
</g>
<g>
</g>
<g>
</g>
<g>
</g>
<g>
</g>
<g>
</g>
<g>
</g>
<g>
</g>
<g>
</g>
<g>
</g>
<g>
</g>
<g>
</g>
<g>
</g>
<g>
</g>
</svg>
