<?xml version="1.0" encoding="iso-8859-1"?>
<!-- Generator: Adobe Illustrator 19.0.0, SVG Export Plug-In . SVG Version: 6.00 Build 0)  -->
<svg version="1.1" id="Capa_1" xmlns="http://www.w3.org/2000/svg" xmlns:xlink="http://www.w3.org/1999/xlink" x="0px" y="0px"
	 viewBox="0 0 512 512" style="enable-background:new 0 0 512 512;" xml:space="preserve">
<g>
	<g>
		<polygon points="151,270 151,300 221.844,300 233.842,270 		"/>
	</g>
</g>
<g>
	<g>
		<polygon points="276.806,270 286.806,300 361,300 361,270 		"/>
	</g>
</g>
<g>
	<g>
		<polygon points="204.124,90 259.56,173.007 311.439,90 		"/>
	</g>
</g>
<g>
	<g>
		<path d="M390.381,494.535L363.3,330h-66.495l33.419,100.254c2.622,7.866-1.626,17.362-9.478,19.97
			c-8.745,2.915-16.487-3.028-18.97-10.478l-47.051-141.152l-8.893,22.233c-0.004,0.009-0.007,0.016-0.007,0.016l-35.894,89.724
			c-3.076,7.69-11.865,11.411-19.497,8.364c-7.69-3.076-11.44-11.807-8.364-19.497L209.843,330H148.7l-27.087,164.535
			C120.089,503.678,127.14,512,136.408,512h239.177C384.854,512,391.904,503.678,390.381,494.535z"/>
	</g>
</g>
<g>
	<g>
		<path d="M447.7,44.699l-51.301-34.2L253.001,240H361v-75c0-8.401,6.599-15,15-15s15,6.599,15,15v150c0,8.284,6.716,15,15,15h60
			c8.284,0,15-6.716,15-15V107.1C481,81.899,468.401,58.799,447.7,44.699z"/>
	</g>
</g>
<g>
	<g>
		<polygon points="144.022,0 184.091,60 330.189,60 367.689,0 		"/>
	</g>
</g>
<g>
	<g>
		<path d="M241.6,200.4L115.3,10.8l-51,33.9C43.599,58.799,31,81.899,31,107.1V315c0,8.284,6.716,15,15,15h60
			c8.284,0,15-6.716,15-15V165c0-8.401,6.599-15,15-15s15,6.599,15,15v75h66.599l24.6-39.3C242.199,200.4,241.901,200.4,241.6,200.4
			z"/>
	</g>
</g>
<g>
</g>
<g>
</g>
<g>
</g>
<g>
</g>
<g>
</g>
<g>
</g>
<g>
</g>
<g>
</g>
<g>
</g>
<g>
</g>
<g>
</g>
<g>
</g>
<g>
</g>
<g>
</g>
<g>
</g>
</svg>
