<?xml version="1.0" encoding="iso-8859-1"?>
<!-- Generator: Adobe Illustrator 19.0.0, SVG Export Plug-In . SVG Version: 6.00 Build 0)  -->
<svg version="1.1" id="Capa_1" xmlns="http://www.w3.org/2000/svg" xmlns:xlink="http://www.w3.org/1999/xlink" x="0px" y="0px"
	 viewBox="0 0 512 512" style="enable-background:new 0 0 512 512;" xml:space="preserve">
<g>
	<g>
		<path d="M492.334,13.158c-17.547-17.546-46.098-17.547-63.659,0.014L206.948,235.45c-16.429-7.857-37.139-5.269-51.217,8.809
			c-4.649,4.649-121.18,121.18-127.29,127.29c-29.246,29.245-29.246,76.831,0,106.075c29.313,29.314,76.76,29.318,106.075,0
			l53.038-53.038l74.253,74.254c17.55,17.548,46.1,17.545,63.645,0c17.59-17.589,17.591-46.056,0-63.646l-74.253-74.254
			l10.608-10.607c13.832-13.832,16.751-34.5,8.776-51.227L492.334,76.803C509.881,59.256,509.881,30.705,492.334,13.158z
			 M113.3,456.41c-17.588,17.589-46.055,17.59-63.645,0c-17.547-17.548-17.547-46.098,0-63.646l10.608-10.607l31.823,31.823
			c5.857,5.859,15.357,5.859,21.215,0c5.859-5.859,5.859-15.356,0-21.215l-31.823-31.823l42.431-42.43l31.823,31.822
			c5.857,5.859,15.357,5.859,21.215,0c5.859-5.859,5.859-15.356,0-21.215l-31.823-31.822l31.823-31.823
			c5.862-5.863,15.35-5.864,21.215,0l42.43,42.43c5.862,5.864,5.863,15.351,0,21.215L113.3,456.41z M304.237,456.41
			c5.849,5.849,5.849,15.366,0,21.215c-5.849,5.85-15.366,5.849-21.215,0l-74.253-74.254l21.215-21.215L304.237,456.41z
			 M471.106,55.601L251.185,276.069l-21.215-21.215L449.903,34.373c5.851-5.85,15.367-5.849,21.215,0
			C476.968,40.222,476.968,49.739,471.106,55.601z"/>
	</g>
</g>
<g>
</g>
<g>
</g>
<g>
</g>
<g>
</g>
<g>
</g>
<g>
</g>
<g>
</g>
<g>
</g>
<g>
</g>
<g>
</g>
<g>
</g>
<g>
</g>
<g>
</g>
<g>
</g>
<g>
</g>
</svg>
