<?xml version="1.0" encoding="iso-8859-1"?>
<!-- Generator: Adobe Illustrator 19.0.0, SVG Export Plug-In . SVG Version: 6.00 Build 0)  -->
<svg version="1.1" id="Capa_1" xmlns="http://www.w3.org/2000/svg" xmlns:xlink="http://www.w3.org/1999/xlink" x="0px" y="0px"
	 viewBox="0 0 512.001 512.001" style="enable-background:new 0 0 512.001 512.001;" xml:space="preserve">
<g>
	<g>
		<path d="M507.608,4.394c-5.857-5.858-15.355-5.858-21.213,0l-41.299,41.299c-16.724-7.966-37.382-5.044-51.209,8.782
			l-14.838,14.838c-74.97-43.034-183.593-28.539-260.934,48.802C39.408,196.82,27.134,305.567,69.313,379.049l-14.838,14.838
			c-13.912,13.913-16.769,34.584-8.801,51.228l-41.28,41.28c-5.858,5.858-5.858,15.355,0,21.213
			c2.93,2.928,6.768,4.392,10.607,4.392s7.678-1.464,10.606-4.394l41.299-41.299c16.808,8.007,37.433,4.995,51.209-8.782
			l14.836-14.836c74.956,43.026,183.585,28.548,260.936-48.804c78.706-78.705,90.981-187.452,48.801-260.933l14.838-14.838
			c13.828-13.827,16.749-34.485,8.782-51.209l41.299-41.299C513.466,19.749,513.466,10.252,507.608,4.394z M139.328,139.328
			C202.482,76.175,292.5,58.559,358.094,92.094c-52.286,17.991-115.206,70.954-155.126,110.875
			c-40.129,40.128-92.975,103.094-110.876,155.134C60.212,295.752,73.176,205.48,139.328,139.328z M96.902,436.313
			c-5.849,5.849-15.363,5.85-21.214,0c-5.863-5.864-5.863-15.35,0-21.213l11.069-11.069c3.202,3.811,6.578,7.5,10.132,11.056
			c0.005,0.004,0.009,0.009,0.013,0.014c0.006,0.006,0.013,0.012,0.019,0.018c3.553,3.552,7.247,6.919,11.056,10.12L96.902,436.313z
			 M118.116,393.886c-9.623-9.624,15.45-79.09,106.065-169.706c88.157-88.157,159.4-116.366,169.706-106.066
			c9.598,9.6-15.36,78.998-106.065,169.706C198.748,376.892,128.175,403.939,118.116,393.886z M372.674,372.673
			c-66.214,66.213-156.462,79.087-218.769,47.231c52.307-17.992,115.239-70.981,155.13-110.872
			c40.129-40.128,92.974-103.094,110.876-155.133C451.846,216.359,438.732,306.615,372.674,372.673z M436.314,96.903l-11.069,11.069
			c-3.206-3.817-6.586-7.511-10.145-11.07c-3.559-3.559-7.253-6.939-11.068-10.145L415.1,75.689c5.85-5.848,15.366-5.849,21.214,0
			C442.163,81.538,442.163,91.054,436.314,96.903z"/>
	</g>
</g>
<g>
</g>
<g>
</g>
<g>
</g>
<g>
</g>
<g>
</g>
<g>
</g>
<g>
</g>
<g>
</g>
<g>
</g>
<g>
</g>
<g>
</g>
<g>
</g>
<g>
</g>
<g>
</g>
<g>
</g>
</svg>
