<?xml version="1.0" encoding="iso-8859-1"?>
<!-- Generator: Adobe Illustrator 19.0.0, SVG Export Plug-In . SVG Version: 6.00 Build 0)  -->
<svg version="1.1" id="Capa_1" xmlns="http://www.w3.org/2000/svg" xmlns:xlink="http://www.w3.org/1999/xlink" x="0px" y="0px"
	 viewBox="0 0 512.001 512.001" style="enable-background:new 0 0 512.001 512.001;" xml:space="preserve">
<g>
	<g>
		<path d="M502.741,1.142c-5.606-2.322-12.059-1.038-16.348,3.251l-8.368,8.368c-43.847,43.847-106.926,63.589-169.01,51.172
			c-5.931-1.185-11.992,1.305-15.376,6.317l-138.72,205.515c-30.566-11.296-59.724-7.458-78.116,10.934
			c-23.474,23.473-20.676,60.212-5.582,90.439l-58.06,58.06c-17.546,17.546-17.546,46.096,0,63.642
			c8.772,8.773,20.297,13.159,31.821,13.159s23.048-4.386,31.821-13.159l58.059-58.059c30.115,15.038,66.924,17.934,90.439-5.583
			c17.574-17.574,21.86-45.37,12.148-74.651l115.219-69.132c46.772-28.063,86.584-68.842,115.131-117.928
			C496.715,123.767,512,68.963,512,15.002C512.001,8.935,508.346,3.464,502.741,1.142z M313.062,95.103
			c10.959,1.672,21.923,2.494,32.836,2.493c21.744-0.001,43.225-3.281,63.771-9.613c-17.197,49.81-51.428,92.506-96.792,119.729
			c-0.044,0.026-0.087,0.053-0.131,0.079l-129.369,79.438L313.062,95.103z M55.59,477.626c-5.849,5.85-15.366,5.85-21.215,0.001
			s-5.849-15.366,0-21.214l10.607-10.607l21.214,21.214L55.59,477.626z M87.411,445.806l-21.214-21.215l21.741-21.741
			c3.137,3.835,6.502,7.556,10.08,11.134c3.578,3.578,7.299,6.943,11.133,10.08L87.411,445.806z M204.087,413.985
			c-16.682,16.683-55.333,8.309-84.856-21.214c-28.748-28.748-38.463-67.607-21.214-84.856c8.493-8.494,23.065-10.574,39.417-6.244
			c-23.772,35.217-17.53,25.971-20.029,29.672c-4.019,5.953-3.253,13.921,1.826,19l42.428,42.429
			c4.866,4.867,12.422,5.797,18.325,2.256l30.873-18.524C214.596,392.126,212.317,405.756,204.087,413.985z M337.233,265.69
			c-5.305,3.183-148.391,89.035-162.641,97.585l-21.96-21.961l175.747-107.916C386.989,198.2,429.193,140.24,445.071,73.55
			c12.01-6.189,23.496-13.53,34.288-21.972C467.094,137.288,413.057,220.196,337.233,265.69z"/>
	</g>
</g>
<g>
</g>
<g>
</g>
<g>
</g>
<g>
</g>
<g>
</g>
<g>
</g>
<g>
</g>
<g>
</g>
<g>
</g>
<g>
</g>
<g>
</g>
<g>
</g>
<g>
</g>
<g>
</g>
<g>
</g>
</svg>
