<?xml version="1.0" encoding="iso-8859-1"?>
<!-- Generator: Adobe Illustrator 19.0.0, SVG Export Plug-In . SVG Version: 6.00 Build 0)  -->
<svg version="1.1" id="Capa_1" xmlns="http://www.w3.org/2000/svg" xmlns:xlink="http://www.w3.org/1999/xlink" x="0px" y="0px"
	 viewBox="0 0 512 512" style="enable-background:new 0 0 512 512;" xml:space="preserve">
<g>
	<g>
		<path d="M497,0h-60c-17.93,0-33.438,10.543-40.666,25.752C341.46,8.66,284.552,0,227,0c-24.813,0-45,20.187-45,45
			c0,5.257,0.906,10.307,2.57,15H107c-24.813,0-45,20.187-45,45c0,5.257,0.906,10.307,2.57,15H47c-24.813,0-45,20.187-45,45
			s20.187,44.8,45,44.8h17.57C62.906,214.493,62,219.743,62,225c0,24.813,20.187,45,45,45h17.57c-1.664,4.693-2.57,9.743-2.57,15
			c0,24.813,20.187,45,45,45h60c57.552,0,114.461-8.66,169.334-25.752C403.562,319.457,419.07,330,437,330h60
			c8.284,0,15-6.716,15-15V15C512,6.716,505.284,0,497,0z M392,274.155C338.606,291.307,283.126,300,227,300h-60
			c-8.271,0-15-6.729-15-15s6.729-15,15-15h90c8.284,0,15-6.716,15-15s-6.716-15-15-15c-6.657,0-143.487,0-150,0
			c-8.271,0-15-6.729-15-15s6.729-15,15-15h150c8.284,0,15-6.716,15-15s-6.716-15-15-15H107H47c-8.271,0-15-6.729-15-15
			s6.729-15,15-15h60h150c8.284,0,15-6.716,15-15s-6.716-15-15-15H107c-8.271,0-15-6.729-15-15s6.729-15,15-15
			c6.351,0,159.757,0,166.507,0c6.97,34.191,37.274,60,73.493,60c8.284,0,15-6.716,15-15s-6.716-15-15-15c-24.813,0-45-20.187-45-45
			c0-8.284-6.716-15-15-15h-60c-8.271,0-15-6.729-15-15s6.729-15.2,15-15.2c56.124,0,111.605,8.893,165,26.045V274.155z M482,300
			h-45c-8.271,0-15-6.729-15-15V45c0-8.271,6.729-15,15-15h45V300z"/>
	</g>
</g>
<g>
	<g>
		<path d="M207.48,488.679l-53.178-79.768l21.305-21.305c4.29-4.29,5.573-10.742,3.252-16.347c-2.322-5.605-7.791-9.26-13.858-9.26
			H15c-8.284,0-15,6.716-15,15v120c0,8.284,6.716,15,15,15h180C206.972,511.999,214.109,498.622,207.48,488.679z M30,482v-90h98.787
			l-4.394,4.394c-5.056,5.056-5.841,12.978-1.874,18.927L166.973,482H30z"/>
	</g>
</g>
<g>
	<g>
		<path d="M405,362H285.001c-3.979,0-7.794,1.58-10.606,4.393l-60.001,60c-4.565,4.565-5.697,11.541-2.81,17.315l30,60
			C244.124,508.79,249.318,512,255,512h150c8.284,0,15-6.716,15-15V377C420,368.716,413.284,362,405,362z M390,482H264.271
			l-21.02-42.038L291.214,392H390V482z"/>
	</g>
</g>
<g>
</g>
<g>
</g>
<g>
</g>
<g>
</g>
<g>
</g>
<g>
</g>
<g>
</g>
<g>
</g>
<g>
</g>
<g>
</g>
<g>
</g>
<g>
</g>
<g>
</g>
<g>
</g>
<g>
</g>
</svg>
