<?xml version="1.0" encoding="iso-8859-1"?>
<!-- Generator: Adobe Illustrator 19.0.0, SVG Export Plug-In . SVG Version: 6.00 Build 0)  -->
<svg version="1.1" id="Capa_1" xmlns="http://www.w3.org/2000/svg" xmlns:xlink="http://www.w3.org/1999/xlink" x="0px" y="0px"
	 viewBox="0 0 512.001 512.001" style="enable-background:new 0 0 512.001 512.001;" xml:space="preserve">
<g>
	<g>
		<path d="M507.607,245.394l-241-241c-5.857-5.858-15.355-5.858-21.213,0l-241,241c-3.774,3.774-5.259,9.269-3.898,14.43
			c1.36,5.161,5.361,9.21,10.505,10.633c2.35,0.65,32.672,8.919,79.999,16.689V316c0,33.499,9.893,65.507,28.66,92.953
			c-3.369,27.746-13.909,56.401-50.368,74.631c-6.222,3.111-9.489,10.092-7.891,16.863C63,507.217,69.044,512.001,76,512.001h30
			c33.776,0,65.354-16.353,84.976-43.336c20.436,8.746,42.654,13.336,65.024,13.336s44.589-4.59,65.024-13.336
			c19.622,26.983,51.2,43.336,84.976,43.336h30c6.957,0,13-4.783,14.599-11.554s-1.668-13.751-7.891-16.863
			c-36.459-18.23-46.999-46.885-50.368-74.631C411.107,381.507,421,349.5,421,316.001v-28.854
			c47.327-7.77,77.649-16.04,79.999-16.689c5.144-1.423,9.145-5.472,10.505-10.633C512.866,254.663,511.381,249.168,507.607,245.394
			z M171.32,443.886c-10.635,18.788-28.758,31.888-49.378,36.393c22.369-26.445,27.353-57.967,28.787-82.269
			c1.224-20.753,19.099-37.01,40.693-37.01c15.61,0,29.644,8.673,36.625,22.635l5.168,10.337
			C208.037,400.648,185.818,418.277,171.32,443.886z M256.001,452.001c-16.267,0-32.427-2.964-47.547-8.636
			c12.949-14.237,29.834-22.364,47.547-22.364s34.598,8.127,47.547,22.364C288.428,449.037,272.268,452.001,256.001,452.001z
			 M340.68,443.887c-14.498-25.609-36.717-43.237-61.895-49.914l5.168-10.337C290.934,369.674,304.968,361,320.578,361
			c21.594,0,39.469,16.257,40.693,37.01c1.434,24.302,6.417,55.824,28.787,82.269C369.438,475.774,351.316,462.674,340.68,443.887z
			 M391,316.001c0,17.142-3.187,33.795-9.31,49.363c-12.319-20.609-35.17-34.363-61.112-34.363
			c-25.754,0-50.409,13.121-64.578,41.459c-14.208-28.415-38.938-41.459-64.578-41.459c-25.942,0-48.793,13.754-61.112,34.363
			c-6.123-15.568-9.31-32.222-9.31-49.363v-24.362c38.654,5.228,85.018,9.362,135,9.362s96.346-4.134,135-9.362V316.001z
			 M256,271.001c-91.493,0-172.064-14.718-211.438-23.348L256,36.214l211.438,211.438C428.063,256.283,347.494,271.001,256,271.001z
			"/>
	</g>
</g>
<g>
</g>
<g>
</g>
<g>
</g>
<g>
</g>
<g>
</g>
<g>
</g>
<g>
</g>
<g>
</g>
<g>
</g>
<g>
</g>
<g>
</g>
<g>
</g>
<g>
</g>
<g>
</g>
<g>
</g>
</svg>
