<?xml version="1.0" encoding="iso-8859-1"?>
<!-- Generator: Adobe Illustrator 19.0.0, SVG Export Plug-In . SVG Version: 6.00 Build 0)  -->
<svg version="1.1" id="Capa_1" xmlns="http://www.w3.org/2000/svg" xmlns:xlink="http://www.w3.org/1999/xlink" x="0px" y="0px"
	 viewBox="0 0 512 512" style="enable-background:new 0 0 512 512;" xml:space="preserve">
<g>
	<g>
		<path d="M497,482h-46.581c0.38-4.988,0.581-9.997,0.581-15c0-34.768-9.093-68.405-25.826-97.774
			C442.1,344.232,451,315.665,451,286c0-66.764-44.354-121.51-106.676-147.693C345.419,132.704,346,126.919,346,121
			c0-32.505-17.761-62.99-45.109-78.969C299.356,18.598,279.815,0,256,0s-43.356,18.598-44.891,42.031
			C183.761,58.01,166,88.495,166,121c0,5.919,0.581,11.704,1.676,17.307C105.464,164.444,61,219.137,61,286
			c0,29.665,8.9,58.232,25.826,83.226C70.093,398.595,61,432.232,61,467c0,5.003,0.201,10.012,0.581,15H15c-8.284,0-15,6.716-15,15
			s6.716,15,15,15h63.488c6.222,0,412.513,0,418.512,0c8.284,0,15-6.716,15-15S505.284,482,497,482z M256,30c8.271,0,15,6.729,15,15
			s-6.729,15-15,15s-15-6.729-15-15S247.729,30,256,30z M220.072,72.06C228.293,82.948,241.337,90,256,90
			c14.663,0,27.707-7.052,35.928-17.94C306.712,83.403,316,101.651,316,121c0,33.084-26.916,60-60,60s-60-26.916-60-60
			C196,101.651,205.288,83.403,220.072,72.06z M91.674,482C91.226,477.021,91,472.007,91,467c0-40.728,14.665-79.614,40.819-109.613
			c12.004,21.913,33.064,39.56,59.083,50.656c-29.338,16.543-51.285,43.216-62.186,73.957H91.674z M211,482h-49.921
			c10.496-22.441,28.283-40.238,49.921-50.682V482z M271,482h-30v-59.887c10.123-1.483,19.874-1.483,30,0V482z M301,482v-50.682
			c21.638,10.444,39.425,28.24,49.921,50.682H301z M420.326,482h-37.042c-10.911-30.767-32.871-57.427-62.186-73.957
			c26.019-11.096,47.079-28.743,59.083-50.656C406.335,387.386,421,426.272,421,467C421,472.007,420.774,477.021,420.326,482z
			 M406.577,342.155c-4.978-6.071-10.347-11.851-16.075-17.317c3.14-29.534-9.483-56.591-29.797-78.93
			c-5.573-6.13-15.061-6.579-21.189-1.006c-6.129,5.573-6.579,15.06-1.006,21.189C396.945,330.355,331.427,391,256,391
			c-75.528,0-140.923-60.669-82.51-124.909c5.573-6.129,5.123-15.616-1.006-21.189c-6.129-5.574-15.616-5.125-21.189,1.006
			c-20.328,22.355-32.935,49.412-29.797,78.93c-5.729,5.466-11.098,11.246-16.075,17.317C95.944,324.753,91,305.655,91,286
			c0-50.919,33.855-96.711,87.312-119.611C193.951,193.054,222.917,211,256,211s62.049-17.946,77.688-44.611
			C387.145,189.289,421,235.081,421,286C421,305.655,416.056,324.753,406.577,342.155z"/>
	</g>
</g>
<g>
	<g>
		<circle cx="256" cy="346" r="15"/>
	</g>
</g>
<g>
</g>
<g>
</g>
<g>
</g>
<g>
</g>
<g>
</g>
<g>
</g>
<g>
</g>
<g>
</g>
<g>
</g>
<g>
</g>
<g>
</g>
<g>
</g>
<g>
</g>
<g>
</g>
<g>
</g>
</svg>
