<?xml version="1.0" encoding="iso-8859-1"?>
<!-- Generator: Adobe Illustrator 19.0.0, SVG Export Plug-In . SVG Version: 6.00 Build 0)  -->
<svg version="1.1" id="Capa_1" xmlns="http://www.w3.org/2000/svg" xmlns:xlink="http://www.w3.org/1999/xlink" x="0px" y="0px"
	 viewBox="0 0 512 512" style="enable-background:new 0 0 512 512;" xml:space="preserve">
<g>
	<g>
		<path d="M452,0c-33.084,0-60,26.916-60,60v211c0,33.084-27.364,60-61,60c-30.638,0-60-23.561-60-62.58
			c17.459-6.192,30-22.865,30-42.42v-17.58c17.459-6.192,30-22.865,30-42.42v-30c0-8.284-6.716-15-15-15h-15V45
			c0-24.813-20.187-45-45-45s-45,20.187-45,45v76h-15c-8.284,0-15,6.716-15,15v30c0,19.555,12.541,36.228,30,42.42V226
			c0,19.555,12.541,36.228,30,42.42c0,55.829,43.088,92.58,90,92.58c24.05,0,46.794-9.328,64.042-26.264
			C412.426,317.667,422,295.031,422,271V60c0-16.542,13.458-30,30-30s30,13.458,30,30v286c0,74.991-61.009,136-136,136H226
			c-74.991,0-136-61.009-136-136v-77.58c17.459-6.192,30-22.865,30-42.42v-17.58c17.459-6.192,30-22.865,30-42.42v-30
			c0-8.284-6.716-15-15-15h-15V45c0-24.813-20.187-45-45-45S30,20.187,30,45v76H15c-8.284,0-15,6.716-15,15v30
			c0,19.555,12.541,36.228,30,42.42V226c0,19.555,12.541,36.228,30,42.42V346c0,44.073,17.341,85.686,48.828,117.172
			C140.314,494.659,181.927,512,226,512h120c44.073,0,85.686-17.341,117.172-48.828C494.659,431.686,512,390.073,512,346V60
			C512,26.916,485.084,0,452,0z M241,45c0-8.271,6.729-15,15-15s15,6.729,15,15v76h-30V45z M226,181c-8.271,0-15-6.729-15-15v-15
			c14.8,0,80.875,0,90,0v15c0,8.271-6.729,15-15,15H226z M256,241c-8.271,0-15-6.729-15-15v-15h30v15
			C271,234.271,264.271,241,256,241z M60,45c0-8.271,6.729-15,15-15s15,6.729,15,15v76H60V45z M45,181c-8.271,0-15-6.729-15-15v-15
			c14.8,0,80.875,0,90,0v15c0,8.271-6.729,15-15,15H45z M75,241c-8.271,0-15-6.729-15-15v-15h30v15C90,234.271,83.271,241,75,241z"
			/>
	</g>
</g>
<g>
</g>
<g>
</g>
<g>
</g>
<g>
</g>
<g>
</g>
<g>
</g>
<g>
</g>
<g>
</g>
<g>
</g>
<g>
</g>
<g>
</g>
<g>
</g>
<g>
</g>
<g>
</g>
<g>
</g>
</svg>
