<?xml version="1.0" encoding="iso-8859-1"?>
<!-- Generator: Adobe Illustrator 19.0.0, SVG Export Plug-In . SVG Version: 6.00 Build 0)  -->
<svg version="1.1" id="Capa_1" xmlns="http://www.w3.org/2000/svg" xmlns:xlink="http://www.w3.org/1999/xlink" x="0px" y="0px"
	 viewBox="0 0 511.998 511.998" style="enable-background:new 0 0 511.998 511.998;" xml:space="preserve">
<g>
	<g>
		<path d="M463.735,47.579c-0.028-0.028-0.051-0.059-0.079-0.087c-0.043-0.043-0.09-0.078-0.133-0.12
			C394.646-21.575,285.541-12.737,220.692,57.5c-52.688,57.092-82.131,126.817-87.511,207.227c-0.331,4.889-1.955,9.128-4.51,11.684
			C31.787,374.303,57.612,348.323,4.395,401.539c-5.858,5.857-5.858,15.355,0,21.213c5.857,5.858,15.355,5.858,21.213,0l31.82-31.82
			l21.213,21.213l-31.82,31.82c-5.858,5.858-5.858,15.355,0,21.213c5.857,5.857,15.355,5.858,21.213,0l31.82-31.82l21.214,21.214
			l-31.82,31.82c-5.858,5.857-5.858,15.355,0,21.213c5.857,5.858,15.355,5.858,21.213,0
			c141.137-141.135,34.021-33.933,124.403-125.256c2.462-2.461,6.641-4.059,11.46-4.382c85.457-5.697,158.584-38.382,217.349-97.147
			C527.611,216.881,528.576,112.716,463.735,47.579z M149.94,297.568c7.669-7.67,12.348-18.615,13.174-30.828
			c4.912-73.412,31.701-136.965,79.622-188.892c50.111-54.273,132.021-64.776,188.538-19.187l-21.377,21.377
			C365.845,46.569,303.29,56.482,264.775,98.187c-43.155,46.773-67.287,104.161-71.726,170.57
			c-1.3,19.439-9.077,37.205-21.897,50.025c-0.002,0.002-0.004,0.005-0.007,0.008l-29.139,29.442l-21.213-21.213L149.94,297.568z
			 M400.032,217.18c-42.896,42.896-96.629,66.779-159.708,70.984c-7.056,0.473-13.964,1.581-20.639,3.287
			c1.712-6.694,2.823-13.62,3.297-20.693c3.97-59.401,25.449-110.618,63.836-152.223c29.981-32.465,80.138-40.503,113.308-7.349
			C429.698,140.759,428.96,188.252,400.032,217.18z M99.799,390.877l-21.158-21.158l21.213-21.213l21.048,21.048L99.799,390.877z
			 M142.226,433.304l-21.213-21.213l21.104-21.323l21.213,21.213L142.226,433.304z M442.459,259.607
			c-53.476,53.476-120.137,83.227-198.137,88.427c-12.144,0.813-23.037,5.467-30.727,13.157l-29.164,29.467l-21.213-21.213
			l29.22-29.524c12.774-12.773,30.492-20.524,49.886-21.823c70.537-4.702,130.734-31.519,178.92-79.704
			c37.509-37.508,40.618-96.4,9.878-137.158L452.44,79.92C495.741,134.148,490.679,211.388,442.459,259.607z"/>
	</g>
</g>
<g>
</g>
<g>
</g>
<g>
</g>
<g>
</g>
<g>
</g>
<g>
</g>
<g>
</g>
<g>
</g>
<g>
</g>
<g>
</g>
<g>
</g>
<g>
</g>
<g>
</g>
<g>
</g>
<g>
</g>
</svg>
