<?xml version="1.0" encoding="iso-8859-1"?>
<!-- Generator: Adobe Illustrator 19.0.0, SVG Export Plug-In . SVG Version: 6.00 Build 0)  -->
<svg version="1.1" id="Capa_1" xmlns="http://www.w3.org/2000/svg" xmlns:xlink="http://www.w3.org/1999/xlink" x="0px" y="0px"
	 viewBox="0 0 512 512" style="enable-background:new 0 0 512 512;" xml:space="preserve">
<g>
	<g>
		<path d="M445.029,95.832C402.019,53.379,345.186,30,285,30h-17.58C261.228,12.542,244.555,0,225,0c-24.813,0-45,20.187-45,45v301
			c0,19.555,12.541,36.228,30,42.42V452c0,16.542-13.458,30-30,30s-30-13.458-30-30V180c0-33.084-26.916-60-60-60s-60,26.916-60,60
			v62.58C12.541,248.772,0,265.445,0,285v182c0,24.813,20.187,45,45,45s45-20.187,45-45V285c0-19.555-12.541-36.228-30-42.42V180
			c0-16.542,13.458-30,30-30s30,13.458,30,30v272c0,33.084,26.916,60,60,60s60-26.916,60-60v-63.58c17.459-6.192,30-22.865,30-42.42
			V150.267c84.221,3.65,163.268,44.757,213.351,111.534L485,264c8.636,11.514,27,5.394,27-9
			C512,194.984,488.216,138.458,445.029,95.832z M60,467c0,8.271-6.729,15-15,15s-15-6.729-15-15v-15h30V467z M60,422H30v-31h30V422
			z M60,361H30v-31h30V361z M60,300H30v-15c0-8.271,6.729-15,15-15s15,6.729,15,15V300z M240,346c0,8.271-6.729,15-15,15
			s-15-6.729-15-15v-16h30V346z M240,300h-30v-30h30V300z M240,240h-30v-30h30V240z M240,135v45h-30V45c0-8.271,6.729-15,15-15
			s15,6.729,15,15V135z M270,120.24V60h15c92.462,0,170.25,63.376,191.353,148.551C421.625,155.252,347.75,123.291,270,120.24z"/>
	</g>
</g>
<g>
</g>
<g>
</g>
<g>
</g>
<g>
</g>
<g>
</g>
<g>
</g>
<g>
</g>
<g>
</g>
<g>
</g>
<g>
</g>
<g>
</g>
<g>
</g>
<g>
</g>
<g>
</g>
<g>
</g>
</svg>
