<?xml version="1.0" encoding="iso-8859-1"?>
<!-- Generator: Adobe Illustrator 19.0.0, SVG Export Plug-In . SVG Version: 6.00 Build 0)  -->
<svg version="1.1" id="Capa_1" xmlns="http://www.w3.org/2000/svg" xmlns:xlink="http://www.w3.org/1999/xlink" x="0px" y="0px"
	 viewBox="0 0 512 512" style="enable-background:new 0 0 512 512;" xml:space="preserve">
<g>
	<g>
		<path d="M476.637,35.351C453.847,12.561,423.714,0.01,391.79,0.01s-62.058,12.551-84.847,35.34l-22.546,22.546
			c-22.817-13.508-52.987-10.647-72.906,9.271L17.584,261.073c-23.369,23.367-23.521,61.328,0,84.847
			c23.392,23.392,61.453,23.394,84.847,0c0.002-0.002,0.003-0.003,0.005-0.005l193.901-193.901
			c19.918-19.917,22.781-50.087,9.271-72.907l22.547-22.546c35.684-35.684,91.588-35.684,127.27,0
			c35.418,35.417,35.436,91.835,0,127.27l-22.554,22.555c-22.998-13.555-53.168-10.469-72.899,9.263L166.066,409.556
			c-0.042,0.042-0.081,0.087-0.123,0.129c-23.279,23.419-23.247,61.078-0.115,84.468c0.081,0.082,0.156,0.168,0.237,0.25
			c23.448,23.448,61.398,23.449,84.847,0l193.906-193.906c19.731-19.732,22.818-49.9,9.263-72.899l22.553-22.554
			C523.78,157.901,523.797,82.51,476.637,35.351z M81.22,324.708c-12.49,12.49-33.198,11.562-44.477-2.271
			c-0.012-0.015-0.023-0.03-0.035-0.045c-9.582-11.797-8.838-29.183,2.088-40.107c11.696-11.696,30.727-11.696,42.424,0
			C92.944,294.009,92.944,312.984,81.22,324.708z M197.041,208.888l-79.073,79.073c-2.683-10.076-7.966-19.318-15.537-26.887
			c-7.724-7.724-17.052-12.881-26.919-15.504l79.106-79.106c11.336-0.359,22.199,3.907,30.358,12.066
			C193.134,186.689,197.401,197.553,197.041,208.888z M239.465,166.464l-16.695,16.695c-3.504-9.546-9.095-18.353-16.583-25.84
			c-7.487-7.487-16.295-13.079-25.841-16.583l16.695-16.695c11.334-0.36,22.2,3.907,30.358,12.066
			C235.558,144.265,239.824,155.128,239.465,166.464z M275.125,130.803l-9.931,9.931c-3.505-9.546-9.095-18.353-16.583-25.84
			c-7.488-7.487-16.295-13.078-25.841-16.583l9.932-9.932c11.724-11.723,30.698-11.725,42.423,0
			C286.85,100.105,286.849,119.078,275.125,130.803z M229.702,473.19c-11.677,11.678-30.65,11.774-42.423,0.001
			c-0.039-0.039-0.075-0.08-0.113-0.119c-11.535-11.661-11.545-30.504-0.015-42.17c0.044-0.044,0.084-0.091,0.128-0.135
			c11.724-11.723,30.698-11.724,42.423,0C241.426,442.491,241.426,461.465,229.702,473.19z M345.523,357.371l-79.073,79.073
			c-2.684-10.076-7.966-19.318-15.537-26.887c-7.569-7.57-16.811-12.853-26.887-15.537l79.074-79.074
			c11.331-0.359,22.199,3.907,30.358,12.066S345.883,346.034,345.523,357.371z M387.947,314.947l-16.695,16.695
			c-3.504-9.546-9.095-18.353-16.583-25.84s-16.294-13.079-25.84-16.583l16.695-16.695c11.335-0.36,22.199,3.906,30.358,12.065
			C384.04,292.748,388.307,303.611,387.947,314.947z M423.608,279.285l-9.932,9.932c-3.504-9.546-9.095-18.353-16.583-25.84
			c-7.488-7.487-16.295-13.079-25.841-16.583l9.932-9.932c11.696-11.696,30.726-11.695,42.422-0.001
			c0.001,0.001,0.001,0.001,0.001,0.001c0.001,0.001,0.002,0.001,0.002,0.002C435.304,248.56,435.303,267.59,423.608,279.285z"/>
	</g>
</g>
<g>
</g>
<g>
</g>
<g>
</g>
<g>
</g>
<g>
</g>
<g>
</g>
<g>
</g>
<g>
</g>
<g>
</g>
<g>
</g>
<g>
</g>
<g>
</g>
<g>
</g>
<g>
</g>
<g>
</g>
</svg>
