<?xml version="1.0" encoding="iso-8859-1"?>
<!-- Generator: Adobe Illustrator 19.0.0, SVG Export Plug-In . SVG Version: 6.00 Build 0)  -->
<svg version="1.1" id="Capa_1" xmlns="http://www.w3.org/2000/svg" xmlns:xlink="http://www.w3.org/1999/xlink" x="0px" y="0px"
	 viewBox="0 0 512.001 512.001" style="enable-background:new 0 0 512.001 512.001;" xml:space="preserve">
<g>
	<g>
		<path d="M105.017,361.96c-24.899,0-44.997,20.094-44.997,44.997c0,24.899,20.094,44.997,44.997,44.997
			c24.904,0,44.997-20.101,44.997-44.997C150.014,382.059,129.919,361.96,105.017,361.96z M105.017,421.945
			c-8.313,0-14.988-6.673-14.988-14.988c0-8.313,6.673-14.988,14.988-14.988c8.312,0,14.988,6.673,14.988,14.988
			C120.005,415.269,113.331,421.945,105.017,421.945z"/>
	</g>
</g>
<g>
	<g>
		<path d="M507.579,4.395c-4.422-4.422-11.124-5.638-16.818-3.05l-219.419,99.736c-13.143,5.975-22.681,17.993-25.512,32.15
			l-17.313,86.569l-49.226,49.226c-0.001,0.001-0.003,0.002-0.004,0.004c-0.001,0.002-0.002,0.003-0.004,0.004l-38.908,38.908
			c-11.177-3.968-23.1-6.029-35.356-6.029c-60.28,0-104.99,49.35-104.99,105.043c0,55.701,44.728,105.043,104.99,105.043
			c60.28,0,104.99-49.35,104.99-105.043c0-12.162-2.122-24.05-6.113-35.219c9.541-9.541,47.702-47.702,88.278-88.278l86.569-17.314
			c14.157-2.832,26.176-12.369,32.15-25.513l99.736-219.419C513.216,15.519,512.001,8.817,507.579,4.395z M146.577,469.485
			c-48.446,32.912-116.541-1.909-116.541-62.528c0-40.857,32.655-74.995,74.981-74.995c41.059,0,74.981,32.933,74.981,74.995
			C179.998,432.265,167.816,455.056,146.577,469.485z M189.079,344.113c-5.939-7.961-13.043-15.136-21.159-21.279l21.973-21.973
			l21.219,21.219L189.079,344.113z M232.333,300.86l-21.219-21.219l31.222-31.223l10.607,10.607
			c0.001,0.001,0.002,0.002,0.002,0.003s0.002,0.002,0.003,0.002l10.607,10.607L232.333,300.86z M383.574,228.216
			c-1.992,4.381-5.998,7.56-10.717,8.504l-83.149,16.63l-4.931-4.931l53.049-53.049c5.86-5.86,5.86-15.359,0-21.219
			c-5.859-5.859-15.359-5.859-21.219,0l-53.049,53.049l-4.931-4.931l16.63-83.149c0.944-4.719,4.123-8.726,8.505-10.717
			l182.995-83.179L383.574,228.216z"/>
	</g>
</g>
<g>
</g>
<g>
</g>
<g>
</g>
<g>
</g>
<g>
</g>
<g>
</g>
<g>
</g>
<g>
</g>
<g>
</g>
<g>
</g>
<g>
</g>
<g>
</g>
<g>
</g>
<g>
</g>
<g>
</g>
</svg>
