<?xml version="1.0" encoding="iso-8859-1"?>
<!-- Generator: Adobe Illustrator 19.0.0, SVG Export Plug-In . SVG Version: 6.00 Build 0)  -->
<svg version="1.1" id="Capa_1" xmlns="http://www.w3.org/2000/svg" xmlns:xlink="http://www.w3.org/1999/xlink" x="0px" y="0px"
	 viewBox="0 0 512 512" style="enable-background:new 0 0 512 512;" xml:space="preserve">
<g>
	<g>
		<path d="M432.255,32.528C384.661,11.552,322.065,0,256,0S127.339,11.552,79.745,32.528C28.321,55.192,0,86.612,0,121v90
			c0,26.662,17.083,51.553,49.401,71.982c25.628,16.2,59.802,29.003,99.468,37.343L91.765,492.272
			C88.545,501.966,95.771,512,106,512h120c8.284,0,15-6.716,15-15V331h30v166c0,8.284,6.716,15,15,15h120
			c10.213,0,17.46-10.02,14.235-19.728l-57.102-171.941c39.185-8.233,73.008-20.828,98.567-36.779
			C494.606,263.014,512,237.926,512,211v-90C512,86.612,483.679,55.192,432.255,32.528z M30,211v-32.38
			c6.217,5.455,13.362,10.682,21.43,15.638c35.542,21.834,85.249,35.746,125.726,40.892l-18.766,56.505
			C82.297,276.266,30,243.715,30,211z M91,166c0-4.857,8.875-17,42.464-28.196C165.973,126.968,209.49,121,256,121
			s90.027,5.968,122.536,16.804C412.125,149,421,161.143,421,166s-8.875,17-42.464,28.196C341.477,206.549,295.31,211,256,211
			c-46.51,0-90.027-5.968-122.536-16.804C99.875,183,91,170.857,91,166z M211,482h-84.213l69.239-208.487L211,318.435V482z
			 M275.188,301H271v-15c0-8.284-6.716-15-15-15s-15,6.716-15,15v15h-4.188l-20-60h78.377L275.188,301z M385.213,482H301V318.435
			l14.974-44.922L385.213,482z M482,211c0,20.265-19.677,36.799-36.184,47.102c-22.969,14.335-55.367,26.086-92.207,33.552
			l-18.765-56.504c42.819-6.711,88.076-17.842,125.725-40.941c8.068-4.95,15.214-10.171,21.431-15.621V211z M450.975,164.69
			c-0.585-16.179-12.282-38.456-62.952-55.346C352.536,97.514,305.649,91,256,91s-96.536,6.514-132.022,18.344
			c-50.715,16.905-62.387,39.206-62.953,55.388C40.957,150.988,30,135.624,30,121c0-43.042,92.815-91,226-91s226,47.958,226,91
			C482,135.616,471.042,150.965,450.975,164.69z"/>
	</g>
</g>
<g>
</g>
<g>
</g>
<g>
</g>
<g>
</g>
<g>
</g>
<g>
</g>
<g>
</g>
<g>
</g>
<g>
</g>
<g>
</g>
<g>
</g>
<g>
</g>
<g>
</g>
<g>
</g>
<g>
</g>
</svg>
