<?xml version="1.0" encoding="iso-8859-1"?>
<!-- Generator: Adobe Illustrator 19.0.0, SVG Export Plug-In . SVG Version: 6.00 Build 0)  -->
<svg version="1.1" id="Capa_1" xmlns="http://www.w3.org/2000/svg" xmlns:xlink="http://www.w3.org/1999/xlink" x="0px" y="0px"
	 viewBox="0 0 512.002 512.002" style="enable-background:new 0 0 512.002 512.002;" xml:space="preserve">
<g>
	<g>
		<path d="M294.581,306.543c13.368-1.772,24.558-8.276,31.507-18.315L509.333,23.539c4.126-5.96,3.399-14.02-1.727-19.146
			c-5.125-5.125-13.185-5.853-19.146-1.726L223.773,185.914c-10.038,6.95-16.544,18.14-18.315,31.507
			c-2.511,18.943-11.336,36.816-24.849,50.329l-1.82,1.82l-21.818-21.819c33.432-42.096,37.81-100.898,9.616-147.886l-17.363-28.939
			c-3.47-5.782-10.373-8.537-16.867-6.739c-6.498,1.8-10.996,7.714-10.996,14.457v60.002c0,12.019-4.681,23.321-13.182,31.821
			l-24.854,24.854c-29.312,29.311-29.315,76.755,0,106.07l31.821,31.821l-50.776,50.776c-16.724-7.966-37.383-5.045-51.21,8.782
			c-17.547,17.547-17.547,46.096,0,63.643l42.428,42.428c17.546,17.546,46.096,17.547,63.643,0
			c13.902-13.9,16.777-34.57,8.802-51.23l50.756-50.756l31.821,31.821c29.243,29.243,76.825,29.244,106.069,0l24.854-24.854
			c8.5-8.5,19.802-13.181,31.821-13.181h60.002c6.742,0,12.657-4.498,14.457-10.996c1.8-6.498-0.957-13.398-6.738-16.867
			l-28.939-17.365c-46.986-28.192-105.789-23.816-147.887,9.617l-21.819-21.819l1.82-1.82
			C257.764,317.879,275.638,309.054,294.581,306.543z M98.017,477.627c-5.849,5.848-15.364,5.85-21.215,0l-42.428-42.429
			c-5.849-5.848-5.849-15.366,0-21.214c5.848-5.849,15.366-5.849,21.214,0l42.429,42.429
			C103.88,462.276,103.88,471.764,98.017,477.627z M108.624,424.592l-21.215-21.214l48.952-48.951l15.503,15.503l5.711,5.711
			L108.624,424.592z M210.61,343.819l42.428,42.429c5.856,5.858,15.355,5.858,21.214,0c26.226-26.225,63.941-35.373,98.255-25.603
			c-19.716,0.218-38.221,7.997-52.187,21.963l-24.854,24.854c-17.589,17.588-46.052,17.59-63.643,0l-76.37-76.37l-8.485-8.485
			c0,0-0.001-0.001-0.002-0.002l-42.427-42.427c-17.587-17.588-17.589-46.053,0-63.643l24.854-24.854
			c13.967-13.967,21.746-32.471,21.964-52.186c9.767,34.312,0.62,72.031-25.603,98.254c-5.858,5.858-5.858,15.356,0,21.214
			l42.428,42.429c5.852,5.854,15.358,5.857,21.214,0l12.427-12.427c18.15-18.15,30.003-42.158,33.376-67.601
			c0.374-2.825,1.606-7.982,5.65-10.782L437.705,74.296L301.421,271.152c-2.8,4.044-7.957,5.276-10.783,5.651
			c-25.442,3.373-49.449,15.227-67.6,33.376l-12.428,12.428C204.752,328.464,204.752,337.961,210.61,343.819z"/>
	</g>
</g>
<g>
</g>
<g>
</g>
<g>
</g>
<g>
</g>
<g>
</g>
<g>
</g>
<g>
</g>
<g>
</g>
<g>
</g>
<g>
</g>
<g>
</g>
<g>
</g>
<g>
</g>
<g>
</g>
<g>
</g>
</svg>
