<?xml version="1.0" encoding="iso-8859-1"?>
<!-- Generator: Adobe Illustrator 19.0.0, SVG Export Plug-In . SVG Version: 6.00 Build 0)  -->
<svg version="1.1" id="Capa_1" xmlns="http://www.w3.org/2000/svg" xmlns:xlink="http://www.w3.org/1999/xlink" x="0px" y="0px"
	 viewBox="0 0 511.997 511.997" style="enable-background:new 0 0 511.997 511.997;" xml:space="preserve">
<g>
	<g>
		<path d="M498.823,13.158c-17.545-17.545-46.093-17.545-63.638,0L209.676,238.668c-34.291-17.1-69.6-15.251-90.439,5.588
			c-23.432,23.432-20.713,60.135-5.583,90.433l-36.842,36.843l-63.639,63.638c-17.545,17.546-17.544,46.093,0,63.638
			c17.587,17.587,46.051,17.588,63.639,0l63.636-63.636c0.001-0.001,0.002-0.002,0.003-0.002c0.001,0,0.001-0.002,0.002-0.003
			l36.841-36.841c30.114,15.037,66.919,17.933,90.433-5.582c20.84-20.84,22.688-56.149,5.588-90.44L498.823,76.797
			C516.369,59.251,516.369,30.703,498.823,13.158z M55.599,477.596c-5.864,5.863-15.35,5.863-21.214,0
			c-5.849-5.848-5.849-15.365,0-21.213l10.607-10.607l21.213,21.214L55.599,477.596z M87.418,445.777l-21.213-21.213l21.213-21.213
			l21.213,21.213L87.418,445.777z M129.843,403.351l-21.213-21.213l21.74-21.74c3.137,3.835,6.502,7.555,10.08,11.134
			c3.578,3.578,7.299,6.943,11.134,10.08L129.843,403.351z M246.513,371.533c-17.263,17.262-56.131,7.508-84.852-21.213
			c-28.746-28.746-38.46-67.604-21.213-84.851c9.752-9.753,27.469-10.921,46.43-4.004l-25.216,25.216
			c-5.853,5.852-5.858,15.356,0,21.213l42.425,42.425c5.857,5.857,15.355,5.858,21.213,0l25.217-25.217
			C257.434,344.062,256.266,361.78,246.513,371.533z M477.61,55.584L214.694,318.501l-21.213-21.213L456.399,34.371
			c5.848-5.848,15.365-5.848,21.213,0C483.459,40.219,483.459,49.736,477.61,55.584z"/>
	</g>
</g>
<g>
</g>
<g>
</g>
<g>
</g>
<g>
</g>
<g>
</g>
<g>
</g>
<g>
</g>
<g>
</g>
<g>
</g>
<g>
</g>
<g>
</g>
<g>
</g>
<g>
</g>
<g>
</g>
<g>
</g>
</svg>
