<?xml version="1.0" encoding="iso-8859-1"?>
<!-- Generator: Adobe Illustrator 19.0.0, SVG Export Plug-In . SVG Version: 6.00 Build 0)  -->
<svg version="1.1" id="Capa_1" xmlns="http://www.w3.org/2000/svg" xmlns:xlink="http://www.w3.org/1999/xlink" x="0px" y="0px"
	 viewBox="0 0 512 512" style="enable-background:new 0 0 512 512;" xml:space="preserve">
<g>
	<g>
		<path d="M256,0C115.03,0,0,115.05,0,256c0,68.113,26.702,132.327,75.188,180.812C123.673,485.298,187.887,512,256,512
			c140.97,0,256-115.05,256-256C512,115.03,396.95,0,256,0z M256,482C131.383,482,30,380.617,30,256S131.383,30,256,30
			s226,101.383,226,226S380.617,482,256,482z"/>
	</g>
</g>
<g>
	<g>
		<path d="M324.429,73.39c-4.167-1.567-8.813-1.202-12.683,0.997c-23.437,13.307-42.427,32.996-54.916,56.938
			c-4.274,8.193-0.184,18.279,8.593,21.18C277.731,156.573,286,168.024,286,181c0,16.542-13.458,30-30,30
			c-14.43,0-23.523-6.796-27.798-20.777c-4.277-13.99-2.542-33.278,4.643-51.596c8.059-20.547,22.057-38.313,39.416-50.022
			c11.967-8.073,6.653-26.799-7.741-27.421C261.695,61.062,258.829,61,256,61C148.477,61,61,148.477,61,256
			c0,14.422,1.591,28.816,4.729,42.782c0.947,4.216,3.667,7.818,7.461,9.885c22.279,12.133,47.48,17.968,72.868,16.883
			c9.235-0.396,15.922-8.983,14.045-18.032c-2.631-12.692,3.151-25.579,14.389-32.066c14.358-8.291,32.689-3.381,40.981,10.98
			c6.922,11.99,5.954,22.85-2.962,33.199c-18.021,20.918-64.15,32.752-104.095,17.025c-13.372-5.266-25.838,9.619-18.242,21.864
			C125.83,416.002,188.435,451,256,451c46.146,0,90.943-16.476,126.14-46.393c3.105-2.639,5.002-6.428,5.256-10.495
			c1.58-25.316-3.779-50.618-15.495-73.17c-4.262-8.202-14.869-10.634-22.278-5.109c-10.391,7.749-24.515,7.954-35.143,0.512
			c-13.551-9.488-16.855-28.232-7.368-41.782c7.78-11.111,17.775-14.892,30.556-11.559c12.887,3.359,26.663,13.635,37.795,28.191
			c12.266,16.039,20.111,35.648,22.09,55.217c0.657,6.49,5.433,11.813,11.815,13.165c6.384,1.352,12.907-1.577,16.139-7.243
			C442.185,323.092,451,289.781,451,256C451,172.541,398.43,101.201,324.429,73.39z M415.16,299.486
			c-14.944-32.215-41.242-58.035-69.923-65.512c-24.899-6.491-47.749,2.032-62.699,23.381
			c-18.977,27.101-12.367,64.587,14.734,83.563c16.083,11.262,36.169,13.762,53.997,7.596c4.276,11.977,6.448,24.615,6.397,37.354
			C328.712,408.567,292.862,421,256,421c-44.029,0-85.125-17.187-115.612-47.276c11.521,0.592,23.168-0.21,34.527-2.441
			c25.378-4.985,46.802-16.375,60.325-32.071c17.254-20.029,19.519-44.733,6.213-67.78c-16.582-28.721-53.239-38.543-81.961-21.961
			c-17.002,9.816-27.758,26.963-29.704,45.728c-12.516-1.173-24.757-4.485-36.167-9.807C91.88,275.734,91,265.877,91,256
			c0-79.909,57.09-146.73,132.63-161.812c-7.652,10.162-13.997,21.459-18.714,33.485c-9.717,24.775-11.687,50.771-5.403,71.322
			C207.676,225.69,228.265,241,256,241c33.084,0,60-26.916,60-60c0-19.634-9.474-37.524-24.754-48.591
			c7.912-11.164,17.826-20.737,29.3-28.261C380.922,129.921,421,190.052,421,256C421,270.742,419.016,285.378,415.16,299.486z"/>
	</g>
</g>
<g>
</g>
<g>
</g>
<g>
</g>
<g>
</g>
<g>
</g>
<g>
</g>
<g>
</g>
<g>
</g>
<g>
</g>
<g>
</g>
<g>
</g>
<g>
</g>
<g>
</g>
<g>
</g>
<g>
</g>
</svg>
