<?xml version="1.0" encoding="iso-8859-1"?>
<!-- Generator: Adobe Illustrator 19.0.0, SVG Export Plug-In . SVG Version: 6.00 Build 0)  -->
<svg version="1.1" id="Capa_1" xmlns="http://www.w3.org/2000/svg" xmlns:xlink="http://www.w3.org/1999/xlink" x="0px" y="0px"
	 viewBox="0 0 512.001 512.001" style="enable-background:new 0 0 512.001 512.001;" xml:space="preserve">
<g>
	<g>
		<path d="M445.957,429.557l-129.96-86.64v-61.27l97.017,17.64c24.864,4.409,47.867-12.12,52.256-36.244
			c2.147-11.821-0.438-23.774-7.279-33.657c-6.845-9.887-17.128-16.515-28.951-18.661l-135.368-24.612
			c9.596-10.64,15.45-24.719,15.45-40.142c0-33.084-26.916-59.999-59.999-59.999s-59.999,26.916-59.999,59.999
			c0,7.723,1.483,15.101,4.152,21.888l-49.169-8.939l13.782-68.919h23.109c19.555,0,36.228-12.542,42.42-30h137.579
			c8.284,0,15-6.716,15-15s-6.716-15-15-15H223.418c-6.192-17.458-22.865-30-42.42-30h-59.621
			c-21.029-0.221-40.171,14.464-44.5,36.169l-30,149.995c-4.966,24.786,11.507,48.659,36.077,53.111l83.044,15.098v64.987
			l-55.921,13.98C90.013,338.363,76,356.316,76,376.999v89.999c0,24.813,20.187,45,45,45c24.813,0,45-20.187,45-45v-54.864
			l66.603-16.648l163.424,108.949c20.623,13.769,48.59,8.24,62.412-12.478C472.2,471.304,466.599,443.311,445.957,429.557z
			 M180.999,30.002c8.271,0,15,6.729,15,15c0,8.271-6.729,15-15,15h-17.111l1.233-6.167c1.651-8.249,0.917-16.43-1.716-23.833
			H180.999z M249.122,115.973c16.542,0,30,13.458,30,30c0,16.542-13.458,30-30,30c-16.542,0-30-13.458-30-30
			C219.122,129.431,232.58,115.973,249.122,115.973z M433.479,475.314c-4.588,6.876-13.901,8.773-20.804,4.165L243.722,366.844
			c-3.443-2.295-7.776-3.117-11.958-2.071l-84.403,21.097c-6.678,1.669-11.363,7.669-11.363,14.552v66.576c0,8.271-6.729,15-15,15
			s-15-6.729-15-15v-89.999c0-6.896,4.672-12.881,11.358-14.554l67.279-16.82c6.677-1.669,11.362-7.669,11.362-14.552v-89.218
			c0-7.25-5.185-13.461-12.317-14.758l-95.37-17.34c-8.107-1.468-13.689-9.361-12.018-17.704l30.002-150.006
			c1.616-8.106,9.494-13.381,17.648-11.751c8.109,1.624,13.385,9.541,11.761,17.653l-4.796,23.983
			c-0.007,0.034-0.014,0.069-0.021,0.104l-19.192,95.971c-1.645,8.225,3.783,16.201,12.026,17.699l299.957,54.536
			c8.161,1.482,13.555,9.298,12.076,17.433c-1.451,7.976-9.039,13.571-17.437,12.083l-114.638-20.843
			c-9.192-1.672-17.683,5.397-17.683,14.758v87.271c0,5.015,2.506,9.699,6.68,12.481l136.643,91.095
			C436.198,459.104,438.062,468.435,433.479,475.314z"/>
	</g>
</g>
<g>
</g>
<g>
</g>
<g>
</g>
<g>
</g>
<g>
</g>
<g>
</g>
<g>
</g>
<g>
</g>
<g>
</g>
<g>
</g>
<g>
</g>
<g>
</g>
<g>
</g>
<g>
</g>
<g>
</g>
</svg>
