<?xml version="1.0" encoding="iso-8859-1"?>
<!-- Generator: Adobe Illustrator 19.0.0, SVG Export Plug-In . SVG Version: 6.00 Build 0)  -->
<svg version="1.1" id="Capa_1" xmlns="http://www.w3.org/2000/svg" xmlns:xlink="http://www.w3.org/1999/xlink" x="0px" y="0px"
	 viewBox="0 0 511.999 511.999" style="enable-background:new 0 0 511.999 511.999;" xml:space="preserve">
<g>
	<g>
		<path d="M496.986,481.986h-20.661l-24.337-49.485V300.997h14.999c5.682,0,10.875-3.21,13.415-8.292l29.998-59.997
			c4.974-9.947-2.267-21.707-13.415-21.707h-44.997v-32.578c17.458-6.192,29.998-22.864,29.998-42.418v-17.579
			c17.458-6.192,29.998-22.864,29.998-42.417V15.014c0-4.683-2.189-9.096-5.915-11.933c-3.727-2.837-8.565-3.77-13.079-2.524
			c-1.067,0.295-108.206,29.456-236.991,29.456S20.077,0.851,19.014,0.558c-4.515-1.249-9.354-0.317-13.081,2.52
			c-3.729,2.837-5.917,7.252-5.917,11.936V76.01c0,19.554,12.54,36.226,29.998,42.417v17.579c0,19.554,12.54,36.226,29.998,42.418
			v32.578H15.015c-11.123,0-18.401,11.736-13.415,21.707l29.998,59.996c2.54,5.082,7.734,8.292,13.415,8.292h14.999v131.504
			l-24.337,49.485H15.015c-8.284,0-14.999,6.716-14.999,14.999s6.716,14.999,14.999,14.999c7.147,0,172.841,0,179.989,0
			c8.284,0,14.999-6.716,14.999-14.999s-6.716-14.999-14.999-14.999h-20.661l-24.337-49.485V300.997h211.988v131.504l-24.337,49.485
			h-20.661c-8.284,0-14.999,6.716-14.999,14.999s6.716,14.999,14.999,14.999c7.147,0,172.841,0,179.989,0
			c8.284,0,14.999-6.716,14.999-14.999S505.27,481.986,496.986,481.986z M451.989,136.007c0,8.271-6.729,14.999-14.999,14.999
			h-59.996c-8.271,0-14.999-6.729-14.999-14.999v-14.999h89.995V136.007z M421.991,181.004v29.998h-29.998v-29.998H421.991z
			 M45.013,91.009c-8.271,0-14.999-6.729-14.999-14.999V34.199c37.059,8.598,123.993,25.813,225.987,25.813
			s188.928-17.215,225.987-25.813V76.01c0,8.271-6.729,14.999-14.999,14.999c-10.503,0-231.312,0-241.986,0
			C217.748,91.009,52.557,91.009,45.013,91.009z M361.994,178.424v32.578h-59.996v-89.995h29.998v14.999
			C331.996,155.561,344.536,172.233,361.994,178.424z M272,121.008v89.995h-31.998v-89.995h0H272z M75.011,151.006
			c-8.271,0-14.999-6.729-14.999-14.999v-14.999h89.995v14.999c0,8.271-6.729,14.999-14.999,14.999H75.011z M120.009,181.004v29.998
			H90.01v-29.998H120.009z M150.007,178.424c17.458-6.192,29.998-22.864,29.998-42.418v-14.999h29.998v89.995h-59.996V178.424z
			 M69.105,481.986l15.245-30.998h41.32l15.245,30.998H69.105z M90.01,420.99V300.997h29.998V420.99H90.01z M54.283,270.999
			l-14.999-29.998c11.05,0,431.6,0,433.434,0l-14.999,29.998H54.283z M421.991,300.997V420.99h-29.998V300.997H421.991z
			 M371.087,481.986l15.245-30.998h41.32l15.245,30.998H371.087z"/>
	</g>
</g>
<g>
</g>
<g>
</g>
<g>
</g>
<g>
</g>
<g>
</g>
<g>
</g>
<g>
</g>
<g>
</g>
<g>
</g>
<g>
</g>
<g>
</g>
<g>
</g>
<g>
</g>
<g>
</g>
<g>
</g>
</svg>
