<?xml version="1.0" encoding="iso-8859-1"?>
<!-- Generator: Adobe Illustrator 19.0.0, SVG Export Plug-In . SVG Version: 6.00 Build 0)  -->
<svg version="1.1" id="Capa_1" xmlns="http://www.w3.org/2000/svg" xmlns:xlink="http://www.w3.org/1999/xlink" x="0px" y="0px"
	 viewBox="0 0 512 512" style="enable-background:new 0 0 512 512;" xml:space="preserve">
<g>
	<g>
		<path d="M406,61h-45V15c0-8.284-6.716-15-15-15h-30c-20.038,0-38.915,8.022-53.153,22.588c-2.486,2.543-4.763,5.234-6.847,8.042
			c-2.084-2.807-4.361-5.499-6.847-8.042C234.915,8.022,216.038,0,196,0h-30c-8.284,0-15,6.716-15,15v46h-45
			C47.551,61,0,108.103,0,166c0,6.791,0,263.746,0,271c0,8.284,6.716,15,15,15h76v45c0,8.284,6.716,15,15,15h90
			c24.507,0,46.306-11.814,60-30.047C269.695,500.186,291.493,512,316,512h90c8.284,0,15-6.716,15-15v-45h76c8.284,0,15-6.716,15-15
			c0-7.254,0-264.21,0-271C512,108.103,464.449,61,406,61z M181,30h15c19.283,0,36.201,13.167,42.442,31H181V30z M91,422H30v-30h61
			V422z M241,181h-45c-8.284,0-15,6.716-15,15s6.716,15,15,15h45v60h-45c-8.284,0-15,6.716-15,15s6.716,15,15,15h45v61h-45
			c-8.284,0-15,6.716-15,15s6.716,15,15,15h45v45c0,24.813-20.187,45-45,45h-75c0-17.093,0-300.974,0-316c0-8.284-6.716-15-15-15
			s-15,6.716-15,15v196H30V166c0-41.355,34.093-75,76-75c6.724,0,128.082,0,135,0V181z M316,30h15v31h-57.442
			C279.799,43.167,296.717,30,316,30z M482,422h-61v-30h61V422z M482,362h-61V166c0-8.284-6.716-15-15-15s-15,6.716-15,15
			c0,14.793,0,302.354,0,316h-75c-24.813,0-45-20.187-45-45v-45h45c8.284,0,15-6.716,15-15s-6.716-15-15-15h-45v-61h45
			c8.284,0,15-6.716,15-15s-6.716-15-15-15h-45v-60h45c8.284,0,15-6.716,15-15s-6.716-15-15-15h-45V91c6.925,0,128.318,0,135,0
			c41.907,0,76,33.645,76,75V362z"/>
	</g>
</g>
<g>
</g>
<g>
</g>
<g>
</g>
<g>
</g>
<g>
</g>
<g>
</g>
<g>
</g>
<g>
</g>
<g>
</g>
<g>
</g>
<g>
</g>
<g>
</g>
<g>
</g>
<g>
</g>
<g>
</g>
</svg>
