<?xml version="1.0" encoding="iso-8859-1"?>
<!-- Generator: Adobe Illustrator 19.0.0, SVG Export Plug-In . SVG Version: 6.00 Build 0)  -->
<svg version="1.1" id="Capa_1" xmlns="http://www.w3.org/2000/svg" xmlns:xlink="http://www.w3.org/1999/xlink" x="0px" y="0px"
	 viewBox="0 0 512.001 512.001" style="enable-background:new 0 0 512.001 512.001;" xml:space="preserve">
<g>
	<g>
		<path d="M511.89,241.759c-7.456-61.185-37.631-117.652-84.965-158.999C379.54,41.368,318.838,18.573,256,18.573
			S132.461,41.368,85.076,82.76C37.742,124.106,7.567,180.574,0.111,241.759c-0.839,6.881,3.147,13.441,9.642,15.867l210.529,78.621
			c-5.815,7.583-9.282,17.056-9.282,27.327c0,14.642,7.033,27.669,17.895,35.893l-43.501,43.501c-5.858,5.858-5.858,15.355,0,21.213
			c18.859,18.86,43.935,29.247,70.606,29.247c26.672,0,51.747-10.387,70.606-29.247c5.858-5.858,5.858-15.355,0-21.213
			l-43.501-43.501c10.862-8.223,17.895-21.25,17.895-35.893c0-10.271-3.467-19.745-9.281-27.327l210.53-78.621
			C508.743,255.2,512.729,248.64,511.89,241.759z M163.893,283.165c6.591-11.988,15.413-22.447,25.824-30.91l31.358,52.264
			L163.893,283.165z M293.653,452.438c-11.137,7.155-24.099,10.988-37.652,10.988c-13.553,0-26.516-3.833-37.652-10.988
			l37.652-37.652L293.653,452.438z M241,363.573c0-8.271,6.729-15,15-15c8.271,0,15,6.729,15,15c0.001,8.27-6.727,14.999-14.997,15
			c-0.002,0-0.003,0-0.005,0C247.728,378.572,241,371.843,241,363.573z M256.001,304.418l-40.56-67.599
			c12.631-5.325,26.378-8.246,40.56-8.246c14.181,0,27.929,2.921,40.56,8.246L256.001,304.418z M290.926,304.518l31.358-52.263
			c10.411,8.462,19.233,18.922,25.824,30.909L290.926,304.518z M376.467,272.574c-22.091-43.674-67.635-74.001-120.466-74.001
			c-52.166,0-98.087,29.759-120.466,74.001l-45.412-16.959c8.577-83.258,79.487-147.042,165.878-147.042
			s157.302,63.785,165.878,147.042L376.467,272.574z M450.768,244.827c-6.181-42.903-26.625-82.3-58.776-112.541
			c-36.823-34.637-85.119-53.713-135.991-53.713c-50.872,0-99.168,19.076-135.992,53.713
			c-32.15,30.241-52.594,69.638-58.775,112.541L31.62,233.768C50.36,127.398,144.786,48.573,256,48.573
			c111.215,0,205.641,78.825,224.381,185.195L450.768,244.827z"/>
	</g>
</g>
<g>
</g>
<g>
</g>
<g>
</g>
<g>
</g>
<g>
</g>
<g>
</g>
<g>
</g>
<g>
</g>
<g>
</g>
<g>
</g>
<g>
</g>
<g>
</g>
<g>
</g>
<g>
</g>
<g>
</g>
</svg>
