<?xml version="1.0" encoding="iso-8859-1"?>
<!-- Generator: Adobe Illustrator 19.0.0, SVG Export Plug-In . SVG Version: 6.00 Build 0)  -->
<svg version="1.1" id="Capa_1" xmlns="http://www.w3.org/2000/svg" xmlns:xlink="http://www.w3.org/1999/xlink" x="0px" y="0px"
	 viewBox="0 0 511.999 511.999" style="enable-background:new 0 0 511.999 511.999;" xml:space="preserve">
<g>
	<g>
		<path d="M488.219,161.756c-4.144-4.145-8.906-7.297-13.987-9.485c9.829-17.195,7.423-39.532-7.24-54.196
			c-7.918-7.918-18.267-12.519-29.363-13.116c-0.589-10.683-4.949-21.195-13.091-29.337c-8.148-8.149-18.669-12.509-29.36-13.093
			c-0.584-10.691-4.945-21.212-13.093-29.361c-17.557-17.556-46.124-17.556-63.68,0L282.51,49.062l-13.665-4.555
			c-30.851-10.283-64.299-2.389-87.294,20.607c-12.472,12.471-20.007,29.027-21.149,35.478l-15.597,88.231
			c-27.54,54.897-48.433,88.829-90.786,131.183L15.01,359.015c-5.862,5.862-5.862,15.365,0,21.227l127.362,127.361
			c5.861,5.862,15.366,5.862,21.227,0l39.009-39.009c42.854-42.854,77.071-63.732,133.123-91.757
			c0.052-0.026,0.099-0.061,0.151-0.087c3.896-2.005-5.617,6.641,152.338-151.314C505.775,207.88,505.775,179.312,488.219,161.756z
			 M445.763,119.303c5.854,5.852,5.854,15.374,0.001,21.227l-31.841,31.841l-21.228-21.227l31.841-31.841
			C430.403,113.437,439.896,113.436,445.763,119.303z M403.311,76.847c5.852,5.854,5.852,15.376,0,21.228l-31.841,31.841
			l-21.227-21.228l31.841-31.841C387.937,70.997,397.459,70.995,403.311,76.847z M339.63,34.394c5.853-5.852,15.375-5.851,21.227,0
			c5.866,5.867,5.867,15.36,0,21.228l-31.841,31.841l-21.228-21.227L339.63,34.394z M189.757,106.971
			c2.74-7.722,7.226-14.837,13.018-20.629c14.758-14.759,36.161-19.913,55.993-13.539l-76.493,76.493L189.757,106.971z
			 M181.38,447.367l-28.395,28.395L46.85,369.628l28.395-28.395c23.702-23.702,41.294-45.277,56.792-68.666l118.009,118.009
			C226.657,406.074,205.082,423.665,181.38,447.367z M276.32,374.395L148.217,246.292c5.015-8.718,9.953-17.816,14.981-27.474
			l140.596,140.596C294.136,364.442,285.038,369.381,276.32,374.395z M329.017,342.184L180.428,193.597L286.563,87.462
			L435.15,236.05L329.017,342.184z M466.992,204.209l-10.614,10.614l-21.227-21.227l10.614-10.614
			c5.853-5.852,15.375-5.853,21.227,0C472.844,188.835,472.844,198.358,466.992,204.209z"/>
	</g>
</g>
<g>
	<g>
		<path d="M360.857,204.208l-42.453-42.453c-17.598-17.598-46.082-17.599-63.68,0.001c-17.556,17.556-17.556,46.124,0,63.68
			l42.453,42.453c17.556,17.557,46.125,17.556,63.68,0C378.456,250.29,378.456,221.808,360.857,204.208z M339.63,246.663
			c-5.852,5.853-15.374,5.854-21.227,0l-42.453-42.453c-5.852-5.853-5.852-15.375,0-21.227c5.867-5.867,15.359-5.867,21.227,0
			l42.453,42.453C345.497,231.304,345.497,240.796,339.63,246.663z"/>
	</g>
</g>
<g>
</g>
<g>
</g>
<g>
</g>
<g>
</g>
<g>
</g>
<g>
</g>
<g>
</g>
<g>
</g>
<g>
</g>
<g>
</g>
<g>
</g>
<g>
</g>
<g>
</g>
<g>
</g>
<g>
</g>
</svg>
