<?xml version="1.0" encoding="iso-8859-1"?>
<!-- Generator: Adobe Illustrator 19.0.0, SVG Export Plug-In . SVG Version: 6.00 Build 0)  -->
<svg version="1.1" id="Capa_1" xmlns="http://www.w3.org/2000/svg" xmlns:xlink="http://www.w3.org/1999/xlink" x="0px" y="0px"
	 viewBox="0 0 512 512" style="enable-background:new 0 0 512 512;" xml:space="preserve">
<g>
	<g>
		<path d="M497,331h-34.226l14.846-133.452c0.001-0.008,0.002-0.016,0.003-0.024L479.461,181H497c8.284,0,15-6.716,15-15
			s-6.716-15-15-15h-16v-7.955c0-24.898-11.255-47.954-30-63.375c0-21.658-5.62-40.481-21.847-57.081C414.915,8.022,396.038,0,376,0
			c-37.304,0-75,28.913-75,79.669c-18.705,15.389-30,38.426-30,63.375V151h-30v-7.955c0-24.898-11.255-47.954-30-63.375
			c0-21.658-5.62-40.481-21.847-57.081C174.915,8.022,156.038,0,136,0C98.696,0,61,28.913,61,79.669
			c-18.705,15.389-30,38.426-30,63.375V151H15c-8.284,0-15,6.716-15,15s6.716,15,15,15h17.539l1.838,16.523
			c0.001,0.009,0.002,0.018,0.003,0.026L49.226,331H15c-8.284,0-15,6.716-15,15s6.716,15,15,15h37.564l1.894,17.027
			C57.256,403.175,71.183,424.57,91,437.571V466c0,24.868,20.096,46,45,46c24.874,0,45-21.098,45-46v-28.429
			c19.817-13.001,33.744-34.396,36.542-59.544L219.436,361h73.128l1.894,17.027c2.798,25.148,16.725,46.543,36.542,59.544V466
			c0,24.868,20.096,46,45,46c24.874,0,45-21.098,45-46v-28.429c19.817-13.001,33.744-34.396,36.542-59.544L459.436,361H497
			c8.284,0,15-6.716,15-15S505.284,331,497,331z M136,30c20.187,0,37.769,14.433,43.236,33.541
			C172.747,61.885,165.953,61,158.955,61h-45.91c-6.998,0-13.792,0.885-20.28,2.541C98.231,44.433,115.813,30,136,30z
			 M61.319,168.369C61.107,166.466,61,164.53,61,162.615V151h15c8.271,0,15,6.729,15,15s-6.729,15-15,15H62.724L61.319,168.369z
			 M151,466c0,8.523-7.009,16-15,16c-7.991,0-15-7.477-15-16v-16.375c4.87,0.899,9.883,1.375,15,1.375s10.13-0.476,15-1.375V466z
			 M191.09,344.455c-0.001,0.006-0.001,0.012-0.002,0.018l-3.364,30.236C184.784,401.151,162.502,421,136,421
			c-26.509,0-48.785-19.857-51.726-46.291l-3.364-30.235c-0.001-0.007-0.002-0.014-0.002-0.02l-0.116-1.046l50.464,16.822
			c3.077,1.026,6.408,1.026,9.487,0l50.464-16.822L191.09,344.455z M194.862,310.567L136,330.188l-58.861-19.621l-3.279-29.469
			l57.397,19.132c3.009,1.002,6.336,1.05,9.486,0l57.397-19.132L194.862,310.567z M201.793,248.257L136,270.188l-65.793-21.931
			L66.062,211H76c24.813,0,45-20.187,45-45s-20.187-45-45-45H65.914c8.315-17.706,26.31-30,47.131-30h45.91
			c20.821,0,38.816,12.294,47.131,30H196c-24.813,0-45,20.187-45,45s20.187,45,45,45h9.938L201.793,248.257z M211,162.615
			c0,1.915-0.107,3.851-0.319,5.754L209.276,181H196c-8.271,0-15-6.729-15-15s6.729-15,15-15h15V162.615z M222.774,331
			l14.846-133.452c0.001-0.008,0.002-0.016,0.003-0.024L239.461,181h33.078l1.838,16.523c0.001,0.009,0.002,0.018,0.003,0.026
			L289.226,331H222.774z M376,30c20.187,0,37.769,14.433,43.236,33.541C412.747,61.885,405.953,61,398.955,61h-45.91
			c-6.998,0-13.792,0.885-20.28,2.541C338.231,44.433,355.813,30,376,30z M301.319,168.369c-0.211-1.902-0.319-3.838-0.319-5.754
			V151h15c8.271,0,15,6.729,15,15s-6.729,15-15,15h-13.276L301.319,168.369z M391,466c0,8.523-7.009,16-15,16
			c-7.991,0-15-7.477-15-16v-16.375c4.87,0.899,9.883,1.375,15,1.375s10.13-0.476,15-1.375V466z M431.09,344.455
			c-0.001,0.006-0.001,0.012-0.002,0.018l-3.364,30.236c-2.016,18.138-13.151,33.21-28.539,40.863
			c-0.02,0.01-0.041,0.019-0.061,0.029C392.139,419.064,384.279,421,376,421c-26.509,0-48.785-19.857-51.726-46.291l-3.364-30.235
			c-0.001-0.007-0.002-0.014-0.002-0.02l-0.116-1.046l50.464,16.822c3.077,1.026,6.408,1.026,9.487,0l50.464-16.822L431.09,344.455z
			 M434.862,310.567L376,330.188l-58.861-19.621l-3.279-29.469l57.397,19.132c3.009,1.002,6.336,1.05,9.486,0l57.397-19.132
			L434.862,310.567z M441.793,248.257L376,270.188l-65.793-21.931L306.062,211H316c24.813,0,45-20.187,45-45s-20.187-45-45-45
			h-10.086c8.315-17.706,26.31-30,47.131-30h45.91c20.821,0,38.816,12.294,47.131,30H436c-24.813,0-45,20.187-45,45s20.187,45,45,45
			h9.938L441.793,248.257z M451,162.615c0,1.915-0.107,3.851-0.319,5.754L449.276,181H436c-8.271,0-15-6.729-15-15s6.729-15,15-15
			h15V162.615z"/>
	</g>
</g>
<g>
</g>
<g>
</g>
<g>
</g>
<g>
</g>
<g>
</g>
<g>
</g>
<g>
</g>
<g>
</g>
<g>
</g>
<g>
</g>
<g>
</g>
<g>
</g>
<g>
</g>
<g>
</g>
<g>
</g>
</svg>
