<?xml version="1.0" encoding="iso-8859-1"?>
<!-- Generator: Adobe Illustrator 19.0.0, SVG Export Plug-In . SVG Version: 6.00 Build 0)  -->
<svg version="1.1" id="Capa_1" xmlns="http://www.w3.org/2000/svg" xmlns:xlink="http://www.w3.org/1999/xlink" x="0px" y="0px"
	 viewBox="0 0 512 512" style="enable-background:new 0 0 512 512;" xml:space="preserve">
<g>
	<g>
		<path d="M324.395,91.482L283.858,30H346c8.284,0,15-6.716,15-15s-6.716-15-15-15h-89.84c-0.005,0-0.009,0-0.013,0h-0.286
			c-0.008,0-0.016,0-0.024,0H166c-8.284,0-15,6.716-15,15s6.716,15,15,15h62.142l-40.538,61.482C150.188,95.67,121,127.484,121,166
			v271c0,41.355,33.645,75,75,75h120c41.355,0,75-33.645,75-75V166C391,127.484,361.812,95.67,324.395,91.482z M256,42.251
			L288.142,91h-64.285L256,42.251z M195.968,121.001c0.006,0,0.012,0.001,0.018,0.001c0.008,0,0.016-0.001,0.024-0.001h119.98
			c0.008,0,0.016,0.001,0.024,0.001c0.006,0,0.012-0.001,0.018-0.001c19.541,0.014,36.199,12.55,42.388,29.999H153.58
			C159.769,133.551,176.427,121.015,195.968,121.001z M316,482H196c-19.555,0-36.228-12.742-42.42-30.2h204.84
			C352.228,469.258,335.555,482,316,482z M361,422H151V181h210V422z"/>
	</g>
</g>
<g>
	<g>
		<path d="M316,242H196c-8.284,0-15,6.716-15,15v60c0,8.284,6.716,15,15,15h120c8.284,0,15-6.716,15-15v-60
			C331,248.716,324.284,242,316,242z M301,302h-90v-30h90V302z"/>
	</g>
</g>
<g>
</g>
<g>
</g>
<g>
</g>
<g>
</g>
<g>
</g>
<g>
</g>
<g>
</g>
<g>
</g>
<g>
</g>
<g>
</g>
<g>
</g>
<g>
</g>
<g>
</g>
<g>
</g>
<g>
</g>
</svg>
