<?xml version="1.0" encoding="iso-8859-1"?>
<!-- Generator: Adobe Illustrator 19.0.0, SVG Export Plug-In . SVG Version: 6.00 Build 0)  -->
<svg version="1.1" id="Capa_1" xmlns="http://www.w3.org/2000/svg" xmlns:xlink="http://www.w3.org/1999/xlink" x="0px" y="0px"
	 viewBox="0 0 512.002 512.002" style="enable-background:new 0 0 512.002 512.002;" xml:space="preserve">
<g>
	<g>
		<path d="M504.078,1.777c-5.831-3.12-13.013-2.057-17.686,2.619l-16.206,16.207C444.97,45.818,408.288,54.479,374.458,43.2
			c-6.201-2.067-13.036,0.123-16.881,5.416l-73.145,100.707c-31.372-12.325-61.506-8.745-80.346,10.093
			c-23.474,23.474-20.676,60.213-5.583,90.439C198.245,250.113,76.8,371.559,76.8,371.559c-6.072,6.072-54.848,54.848-63.64,63.641
			c-17.547,17.546-17.547,46.096,0,63.643c17.546,17.545,46.095,17.546,63.642,0c0.006-0.006,63.644-63.645,63.644-63.645
			c9.163-9.164,116.028-116.028,121.7-121.7c30.151,15.057,66.959,17.897,90.439-5.582c10.936-10.936,16.896-25.878,17.233-43.212
			c0.238-12.204-2.359-25.204-7.545-38.114l29.453-22.09c59.994-44.996,105.969-116.48,119.985-186.555
			C513.006,11.462,509.905,4.896,504.078,1.777z M55.589,477.626c-5.848,5.849-15.365,5.849-21.214,0.001
			c-2.833-2.833-4.394-6.6-4.394-10.607s1.561-7.773,4.394-10.607l10.606-10.606l21.215,21.213L55.589,477.626z M87.41,445.805
			l-21.215-21.214l21.215-21.214l21.214,21.214L87.41,445.805z M129.838,403.377l-21.214-21.214l21.214-21.214l21.215,21.214
			L129.838,403.377z M172.266,360.95l-21.214-21.214l64.169-64.169c3.137,3.835,6.502,7.555,10.08,11.133
			c3.578,3.578,7.299,6.943,11.134,10.08L172.266,360.95z M331.371,286.701c-16.596,16.596-55.193,8.448-84.856-21.215
			c-29.724-29.723-37.773-68.296-21.214-84.856c8.711-8.712,23.815-10.681,40.679-5.9l-20.995,28.906
			c-4.335,5.969-3.687,14.206,1.53,19.422l42.429,42.429c5.279,5.28,13.637,5.871,19.607,1.394l28.569-21.427
			C342.133,262.543,340.237,277.835,331.371,286.701z M373.725,180.498l-72.768,54.576l-24.171-24.171l98.92-136.193
			c18.605,4.387,38.004,4.405,56.72-0.013c12.239-2.889,23.894-7.606,34.599-13.952
			C447.366,106.901,414.054,150.252,373.725,180.498z"/>
	</g>
</g>
<g>
</g>
<g>
</g>
<g>
</g>
<g>
</g>
<g>
</g>
<g>
</g>
<g>
</g>
<g>
</g>
<g>
</g>
<g>
</g>
<g>
</g>
<g>
</g>
<g>
</g>
<g>
</g>
<g>
</g>
</svg>
