<?xml version="1.0" encoding="iso-8859-1"?>
<!-- Generator: Adobe Illustrator 19.0.0, SVG Export Plug-In . SVG Version: 6.00 Build 0)  -->
<svg version="1.1" id="Capa_1" xmlns="http://www.w3.org/2000/svg" xmlns:xlink="http://www.w3.org/1999/xlink" x="0px" y="0px"
	 viewBox="0 0 512 512" style="enable-background:new 0 0 512 512;" xml:space="preserve">
<g>
	<g>
		<path d="M491.241,95.719c-14.04-29.646-33.514-50.388-56.316-59.986C378.592,12.022,319.038,0,257.917,0h-1.835
			C194.515,0,132.615,12.356,77.075,35.733C29.176,55.893,0,123.481,0,195c0,70.592,28.37,137.006,74.805,158.268
			c15.403,33.687,42.252,61.747,75.195,78.674V497c0,8.284,6.716,15,15,15h60c8.284,0,15-6.716,15-15v-17h32v17
			c0,8.284,6.716,15,15,15h60c8.284,0,15-6.716,15-15v-65.047c33.734-17.254,59.931-45.251,75.157-78.667
			c21.841-9.987,40.505-30.331,54.084-59.004C504.822,265.606,512,231.275,512,195C512,158.725,504.822,124.394,491.241,95.719z
			 M256.083,30h1.834c57.102,0,112.74,11.232,165.37,33.384c31.246,13.152,54.621,60.92,58.225,116.616H359.42
			c-6.192-17.459-22.865-30-42.42-30c-19.555,0-36.228,12.541-42.42,30h-65.004c-2.081-37.132-11.862-71.764-28.074-98.783
			c-9.742-16.236-21.263-28.877-33.964-37.543C182.759,34.669,219.474,30,256.083,30z M332,195c0,8.271-6.729,15-15,15
			s-15-6.729-15-15s6.729-15,15-15S332,186.729,332,195z M105,330c-40.512,0-75-61.444-75-135c0-73.244,34.31-135,75-135
			c40.654,0,75,61.823,75,135S145.654,330,105,330z M210,482h-30v-59.527c0-5.956-3.524-11.348-8.98-13.739
			c-19.829-8.689-37.325-22.211-50.904-38.932c29.076,8.847,59.313,14.872,89.884,17.907V482z M272,450h-32v-60.286
			c1.521,0.053,9.913,0.283,9.913,0.283v0.002c0.022,0,0.103,0.001,22.087,0.001V450z M340.98,408.734
			c-5.456,2.391-8.98,7.783-8.98,13.739V482h-30v-93.068c50.817-7.301,90-51.127,90-103.932c0-8.271,6.729-15,15-15s15,6.729,15,15
			C422,338.599,390.198,387.167,340.98,408.734z M450.928,303.635C451.626,297.494,452,291.277,452,285c0-24.813-20.187-45-45-45
			s-45,20.187-45,45c0,41.355-33.645,75-75,75c-39.686,0-80.383,1.43-139.462-13.673c12.701-8.666,24.222-21.307,33.964-37.543
			c16.212-27.02,25.993-61.652,28.074-98.783h65.004c6.192,17.459,22.865,30,42.42,30s36.228-12.741,42.42-30.2h122.093
			C479.084,247.337,467.675,281.47,450.928,303.635z"/>
	</g>
</g>
<g>
	<g>
		<path d="M105,120c-27.649,0-45,35.173-45,75c0,39.854,17.366,75,45,75c30.165,0,45-39.809,45-75C150,155.277,132.705,120,105,120z
			 M105,240c-3.321,0-15-15.281-15-45c0-29.199,11.471-45,15-45c3.321,0,15,15.281,15,45C120,224.199,108.529,240,105,240z"/>
	</g>
</g>
<g>
</g>
<g>
</g>
<g>
</g>
<g>
</g>
<g>
</g>
<g>
</g>
<g>
</g>
<g>
</g>
<g>
</g>
<g>
</g>
<g>
</g>
<g>
</g>
<g>
</g>
<g>
</g>
<g>
</g>
</svg>
