<?xml version="1.0" encoding="iso-8859-1"?>
<!-- Generator: Adobe Illustrator 19.0.0, SVG Export Plug-In . SVG Version: 6.00 Build 0)  -->
<svg version="1.1" id="Capa_1" xmlns="http://www.w3.org/2000/svg" xmlns:xlink="http://www.w3.org/1999/xlink" x="0px" y="0px"
	 viewBox="0 0 512 512" style="enable-background:new 0 0 512 512;" xml:space="preserve">
<g>
	<g>
		<path d="M505.045,424.34c-50.042-31.802-88.191-78.786-108.261-133.027c0.079-0.264,0.142-0.534,0.207-0.804
			C412.219,258.566,421,221.07,421,181C421,66.491,348.594,0.002,256.003,0c-0.001,0-0.002,0-0.003,0s-0.002,0-0.003,0
			C164.219,0.002,91,65.714,91,181c0,40.07,8.781,77.566,24.01,109.51c0.065,0.27,0.127,0.54,0.207,0.804
			C95.146,345.554,56.998,392.538,6.955,424.34c-9.171,5.827-9.283,19.202-0.212,25.183l91,60c4.47,2.947,10.176,3.289,14.965,0.893
			c18.548-9.274,34.388-23.032,46.178-39.996C171.197,495.043,196.649,512,226,512h60c29.351,0,54.803-16.957,67.114-41.58
			c11.789,16.965,27.629,30.722,46.178,39.996c4.809,2.404,10.511,2.043,14.965-0.893l91-60
			C514.328,443.542,514.216,430.168,505.045,424.34z M271,30.686C313.845,34.674,347.552,55.91,368.195,90H271V30.686z M271,119.8
			h110.86c5.972,18.139,9.14,38.799,9.14,61.2H271V119.8z M271,210.8h118.136c-2.7,21.586-8.306,42.387-16.569,61.2H271V210.8z
			 M241,30.686V90h-97.195C164.448,55.91,198.155,34.674,241,30.686z M130.14,119.8H241V181H121
			C121,158.599,124.168,137.939,130.14,119.8z M241,211v61H139.433c-8.263-18.813-13.869-39.414-16.569-61H241z M151,399.918
			c0,32.821-16.786,62.593-44.327,79.559l-64.853-42.76c39.979-29.831,71.836-68.912,92.516-113.341
			c5.182,7.235,10.748,14.012,16.664,20.268C151,354.374,151,389.057,151,399.918z M155.918,302H241v58.868
			C205.271,355.509,176.164,331.953,155.918,302z M331,437c0,24.813-20.187,45-45,45h-60c-24.813,0-45-20.187-45-45
			c0-24.673,0-43.299,0-68.084C203.514,383.67,229.011,392,256,392s52.486-8.33,75-23.084C331,393.301,331,413.379,331,437z
			 M271,360.868V301.8h85.083C335.83,331.761,306.72,355.51,271,360.868z M405.327,479.477C377.786,462.511,361,432.739,361,399.918
			c0-10.855,0-45.503,0-56.274c5.916-6.256,11.482-13.033,16.664-20.268c20.679,44.429,52.536,83.509,92.516,113.341
			L405.327,479.477z"/>
	</g>
</g>
<g>
</g>
<g>
</g>
<g>
</g>
<g>
</g>
<g>
</g>
<g>
</g>
<g>
</g>
<g>
</g>
<g>
</g>
<g>
</g>
<g>
</g>
<g>
</g>
<g>
</g>
<g>
</g>
<g>
</g>
</svg>
