<?xml version="1.0" encoding="iso-8859-1"?>
<!-- Generator: Adobe Illustrator 19.0.0, SVG Export Plug-In . SVG Version: 6.00 Build 0)  -->
<svg version="1.1" id="Capa_1" xmlns="http://www.w3.org/2000/svg" xmlns:xlink="http://www.w3.org/1999/xlink" x="0px" y="0px"
	 viewBox="0 0 512 512" style="enable-background:new 0 0 512 512;" xml:space="preserve">
<g>
	<g>
		<path d="M487.106,4.769C465.269-6.15,438.07,2.22,426.733,24.894c-0.029,0.058-0.058,0.116-0.086,0.175l-29.959,61.917
			c-3.075,6.186-4.699,13.11-4.699,20.027V45.018c0-24.811-20.185-44.996-44.996-44.996s-44.996,20.185-44.996,44.996v91.992
			c0,15.079,7.49,29.074,20.037,37.439l67.454,44.97c-3.596,15.811-10.966,30.352-21.665,42.73
			C249.1,203.371,303.06,230.108,184.284,171.21c15.533-10.854,25.721-28.854,25.721-49.199c0-33.081-26.914-59.995-59.995-59.995
			c-33.081,0-59.995,26.914-59.995,59.995c0,15.675,6.049,29.958,15.928,40.656c-0.943,0.798-1.86,1.637-2.746,2.522
			c-20.678,20.678-73.177,65.562-73.177,151.805v79.376L4.769,446.857c-11.124,22.249-2.126,49.248,20.124,60.374
			c21.837,10.918,49.036,2.55,60.373-20.124l29.997-59.995c3.106-6.211,4.748-13.17,4.748-20.124v59.995
			c0,24.811,20.185,44.996,44.996,44.996c24.811,0,44.996-20.185,44.996-44.996V376.99c0-15.079-7.49-29.073-20.037-37.439
			l-67.454-44.97c3.593-15.797,10.952-30.326,21.636-42.696c119.758,59.879,59.925,30.215,183.47,90.975
			c-15.477,10.861-25.622,28.827-25.622,49.128c0,33.081,26.914,59.995,59.995,59.995s59.995-26.914,59.995-59.995
			c0-15.679-6.052-29.965-15.935-40.664c0.944-0.798,1.867-1.629,2.753-2.514c20.678-20.678,73.177-65.562,73.177-151.805v-79.49
			l25.305-52.482C518.331,42.795,509.311,15.871,487.106,4.769z M150.009,92.014c16.541,0,29.997,13.457,29.997,29.997
			c0,16.541-13.457,29.997-29.997,29.997c-16.541,0-29.997-13.457-29.997-29.997C120.012,105.471,133.469,92.014,150.009,92.014z
			 M90.014,406.988c0,2.32-0.547,4.641-1.581,6.708l-29.997,59.995c-3.77,7.54-12.842,10.352-20.127,6.709
			c-7.417-3.709-10.419-12.706-6.709-20.126l26.834-53.652c1.042-2.083,1.584-4.38,1.584-6.709v-38.839l29.997,19.998V406.988z
			 M269.42,263.703c-3.751,7.492-13.739,10.418-21.126,6.716l-0.033-0.016L147.634,220.09c-5.772-2.886-12.747-1.755-17.313,2.81
			c-21.457,21.457-35.048,45.828-39.166,76.734c-0.756,5.674,1.784,11.285,6.547,14.461l75.623,50.416
			c4.183,2.789,6.679,7.453,6.679,12.479v89.992c0,8.27-6.728,14.999-14.999,14.999c-8.27,0-14.999-6.728-14.999-14.999v-73.939
			c0-5.015-2.506-9.698-6.679-12.48c-1.199-0.799-74.095-49.397-76.634-51.09c-4.183-2.789-6.679-7.453-6.679-12.479
			c0-42.691,16.626-82.828,46.813-113.016l17.568-17.568c4.573-4.566,11.551-5.687,17.366-2.802l120.946,59.973
			C270.137,247.295,273.122,256.298,269.42,263.703z M361.991,421.986c-16.541,0-29.997-13.457-29.997-29.997
			c0-16.541,13.457-29.997,29.997-29.997c16.541,0,29.997,13.457,29.997,29.997C391.988,408.529,378.532,421.986,361.991,421.986z
			 M405.169,310.021l-17.568,17.568c-4.569,4.563-11.546,5.689-17.41,2.78l-83.126-40.882c3.731-3.524,6.84-7.683,9.183-12.363
			c2.349-4.698,3.837-9.671,4.451-14.735l63.717,31.545c5.767,2.856,12.711,1.714,17.26-2.836
			c21.457-21.457,35.048-45.828,39.166-76.734c0.756-5.675-1.784-11.285-6.547-14.461l-75.623-50.416
			c-4.183-2.789-6.679-7.453-6.679-12.479V45.018c0-8.27,6.728-14.999,14.999-14.999c8.27,0,14.999,6.728,14.999,14.999v75.938
			c0,5.015,2.506,9.698,6.679,12.48c1.172,0.782,74.085,49.39,76.634,51.09c4.183,2.789,6.679,7.453,6.679,12.479
			C451.983,239.696,435.358,279.833,405.169,310.021z M480.4,51.727c-0.032,0.064-0.063,0.129-0.095,0.193l-26.834,55.652
			c-0.98,2.032-1.489,4.259-1.489,6.514v38.84l-29.997-19.998v-25.916c0-2.322,0.546-4.642,1.581-6.709
			c0.029-0.058,0.058-0.116,0.086-0.175l29.947-61.891c3.786-7.475,12.816-10.276,20.092-6.638
			C481.111,35.31,484.109,44.307,480.4,51.727z"/>
	</g>
</g>
<g>
</g>
<g>
</g>
<g>
</g>
<g>
</g>
<g>
</g>
<g>
</g>
<g>
</g>
<g>
</g>
<g>
</g>
<g>
</g>
<g>
</g>
<g>
</g>
<g>
</g>
<g>
</g>
<g>
</g>
</svg>
