<?xml version="1.0" encoding="iso-8859-1"?>
<!-- Generator: Adobe Illustrator 19.0.0, SVG Export Plug-In . SVG Version: 6.00 Build 0)  -->
<svg version="1.1" id="Capa_1" xmlns="http://www.w3.org/2000/svg" xmlns:xlink="http://www.w3.org/1999/xlink" x="0px" y="0px"
	 viewBox="0 0 512 512" style="enable-background:new 0 0 512 512;" xml:space="preserve">
<g>
	<g>
		<path d="M503.703,243.588c-7.406-3.704-16.418-0.702-20.124,6.708c-12.234,24.468-33.955,41.812-59.504,48.569l14.17-129.267
			c8.657-77.917-41.69-150.163-117.609-169.142c-10.045-2.512-19.591,5.705-18.564,16.035l28.544,287.337
			C297.118,311.323,272,341.276,272,377.002c0,27.747,15.159,52.005,37.617,64.977c-4.808,7.16-7.618,15.768-7.618,25.022
			C302,491.813,322.186,512,346.999,512h59.999c24.813,0,44.999-20.187,44.999-44.999c0-19.555-12.541-36.227-30-42.419v-94.576
			c38.172-6.931,70.971-31.406,88.415-66.293C514.116,256.303,511.113,247.293,503.703,243.588z M408.427,166.307l-14.875,135.696
			h-32.971L334.234,36.776C383.546,58.859,414.564,111.07,408.427,166.307z M361.998,362.002v-30h30v30H361.998z M391.997,392.002
			v30h-30v-30H391.997z M301.999,377.002c0-19.555,12.541-36.227,30-42.419v84.839C314.539,413.23,301.999,396.557,301.999,377.002z
			 M406.997,482h-59.999c-8.271,0-15-6.729-15-15c0-8.271,6.729-15,15-15h59.999c8.271,0,15,6.729,15,15
			C421.997,475.272,415.269,482,406.997,482z"/>
	</g>
</g>
<g>
	<g>
		<path d="M240.001,377.002c-0.001-35.726-25.119-65.678-58.617-73.175l28.544-287.337c1.026-10.33-8.52-18.547-18.564-16.035
			C115.445,19.436,65.096,91.682,73.754,169.598l14.17,129.267c-25.55-6.757-47.27-24.102-59.504-48.569
			c-3.706-7.41-12.718-10.413-20.124-6.708c-7.41,3.705-10.413,12.715-6.708,20.124c17.444,34.887,50.242,59.362,88.415,66.293
			v94.577c-17.459,6.192-30,22.865-30,42.419c0,24.813,20.187,44.999,44.999,44.999h59.999c24.813,0,44.999-20.187,44.999-44.999
			c0-9.254-2.81-17.862-7.618-25.022C224.842,429.007,240.001,404.75,240.001,377.002z M177.765,36.776l-26.348,265.227h-32.971
			l-14.875-135.696C97.435,111.07,128.452,58.859,177.765,36.776z M120.001,362.002v-30h30v30H120.001z M150.001,392.002v30h-30v-30
			H150.001z M165.001,482h-59.999c-8.271,0-15-6.729-15-15c0-8.271,6.729-15,15-15h59.999c8.271,0,15,6.729,15,15
			C180,475.272,173.273,482,165.001,482z M180,419.421v-84.839c17.459,6.192,30,22.865,30,42.419S197.459,413.23,180,419.421z"/>
	</g>
</g>
<g>
</g>
<g>
</g>
<g>
</g>
<g>
</g>
<g>
</g>
<g>
</g>
<g>
</g>
<g>
</g>
<g>
</g>
<g>
</g>
<g>
</g>
<g>
</g>
<g>
</g>
<g>
</g>
<g>
</g>
</svg>
