<?xml version="1.0" encoding="iso-8859-1"?>
<!-- Generator: Adobe Illustrator 19.0.0, SVG Export Plug-In . SVG Version: 6.00 Build 0)  -->
<svg version="1.1" id="Capa_1" xmlns="http://www.w3.org/2000/svg" xmlns:xlink="http://www.w3.org/1999/xlink" x="0px" y="0px"
	 viewBox="0 0 512 512" style="enable-background:new 0 0 512 512;" xml:space="preserve">
<g>
	<g>
		<path d="M467,31c-24.813,0-45,20.187-45,45v15H90V76c0-24.813-20.187-45-45-45S0,51.187,0,76c0,4.227,0,349.156,0,360
			c0,8.284,6.716,15,15,15h75v15c0,8.284,6.716,15,15,15h302c8.284,0,15-6.716,15-15v-15h75c8.284,0,15-6.716,15-15
			c0-10.844,0-355.773,0-360C512,51.187,491.813,31,467,31z M90,121h332v30H90V121z M90,181h332v30H90V181z M90,241h332v30
			c-2.905,0-324.28,0-332,0V241z M362,361v30H150v-30C156.938,361,357.606,361,362,361z M180,331v-30h152v30H180z M30,76
			c0-8.271,6.729-15,15-15s15,6.729,15,15v195H30V76z M90,406v15H30V301h45h75v30h-15c-8.284,0-15,6.716-15,15v45h-15
			C96.716,391,90,397.716,90,406z M392,451H120v-30c2.772,0,269.234,0,272,0V451z M482,421h-60v-15c0-8.284-6.716-15-15-15h-15v-45
			c0-8.284-6.716-15-15-15h-15v-30c5.806,0,115.091,0,120,0V421z M482,271h-30V76c0-8.271,6.729-15,15-15s15,6.729,15,15V271z"/>
	</g>
</g>
<g>
</g>
<g>
</g>
<g>
</g>
<g>
</g>
<g>
</g>
<g>
</g>
<g>
</g>
<g>
</g>
<g>
</g>
<g>
</g>
<g>
</g>
<g>
</g>
<g>
</g>
<g>
</g>
<g>
</g>
</svg>
