<?xml version="1.0" encoding="iso-8859-1"?>
<!-- Generator: Adobe Illustrator 19.0.0, SVG Export Plug-In . SVG Version: 6.00 Build 0)  -->
<svg version="1.1" id="Capa_1" xmlns="http://www.w3.org/2000/svg" xmlns:xlink="http://www.w3.org/1999/xlink" x="0px" y="0px"
	 viewBox="0 0 512 512" style="enable-background:new 0 0 512 512;" xml:space="preserve">
<g>
	<g>
		<path d="M496.885,149.927h-15.871c-2.788-25.443-12.65-49.294-28.629-69.231l11.19-11.19c5.855-5.855,5.855-15.348,0-21.203
			c-5.854-5.855-15.348-5.855-21.203,0l-11.19,11.19c-19.937-15.979-43.789-25.842-69.231-28.629V14.993
			c0-8.28-6.713-14.993-14.993-14.993s-14.993,6.713-14.993,14.993v15.871c-25.444,2.788-49.295,12.651-69.231,28.629l-11.19-11.19
			c-5.854-5.855-15.348-5.855-21.203,0c-5.855,5.855-5.855,15.348,0,21.203l11.19,11.19c-15.978,19.936-25.841,43.788-28.629,69.231
			h-15.871c-8.28,0-14.993,6.713-14.993,14.993s6.713,14.993,14.993,14.993h15.871c1.656,15.124,5.809,29.687,12.265,43.198
			L13.3,435.24c-8.496,8.495-13.175,19.79-13.175,31.805c0,12.014,4.679,23.31,13.175,31.805C22.068,507.617,33.583,512,45.101,512
			c11.518,0,23.042-4.387,31.814-13.158l20.928-20.953c0.088-0.084,0.183-0.157,0.269-0.244c0.089-0.089,0.163-0.186,0.249-0.276
			l41.351-41.402c0.272-0.236,0.547-0.469,0.805-0.728c0.266-0.266,0.506-0.547,0.748-0.828l40.445-40.495
			c0.418-0.337,0.825-0.696,1.212-1.083c0.392-0.392,0.753-0.802,1.091-1.223l104.765-104.894
			c13.508,6.453,28.066,10.603,43.186,12.259v15.871c0,8.28,6.713,14.993,14.993,14.993s14.993-6.713,14.993-14.993v-15.872
			c25.444-2.788,49.295-12.651,69.231-28.629l11.19,11.19c2.928,2.928,6.765,4.392,10.601,4.392s7.674-1.463,10.601-4.392
			c5.855-5.855,5.855-15.348,0-21.203l-11.19-11.19c15.978-19.937,25.841-43.789,28.629-69.231h15.871
			c8.28,0,14.993-6.713,14.993-14.993S505.165,149.927,496.885,149.927z M55.704,477.646c-5.845,5.846-15.356,5.846-21.202,0
			c-2.832-2.832-4.392-6.597-4.392-10.602c0-4.005,1.56-7.769,4.398-10.608l10.588-10.601l21.203,21.203L55.704,477.646z
			 M87.49,445.822l-21.203-21.203l21.19-21.217l21.203,21.203L87.49,445.822z M129.869,403.39l-21.203-21.203l21.19-21.217
			l21.203,21.203L129.869,403.39z M172.25,360.957l-21.203-21.203l90.491-90.603c3.109,3.879,6.442,7.615,10.007,11.181
			c3.57,3.57,7.312,6.908,11.198,10.02L172.25,360.957z M436.911,179.914h13.882c-2.468,17.43-9.235,33.806-19.778,47.862
			l-9.848-9.848c-5.854-5.855-15.348-5.855-21.203,0s-5.855,15.348,0,21.203l9.848,9.848c-14.055,10.543-30.43,17.311-47.863,19.78
			v-13.882c0-8.28-6.713-14.993-14.993-14.993s-14.993,6.713-14.993,14.993v13.882c-17.432-2.47-33.807-9.237-47.863-19.78
			l9.848-9.848c5.855-5.855,5.855-15.348,0-21.203c-5.854-5.855-15.348-5.855-21.203,0l-9.848,9.848
			c-10.544-14.056-17.312-30.43-19.781-47.863H257c8.28,0,14.993-6.713,14.993-14.993S265.28,149.927,257,149.927h-13.882
			c2.47-17.432,9.237-33.808,19.78-47.863l9.848,9.848c2.928,2.928,6.765,4.392,10.601,4.392s7.674-1.463,10.601-4.392
			c5.855-5.855,5.855-15.347,0-21.203l-9.848-9.848c14.055-10.543,30.43-17.311,47.863-19.78v13.882
			c0,8.28,6.713,14.993,14.993,14.993s14.993-6.713,14.993-14.993V61.081c17.432,2.47,33.807,9.237,47.863,19.781l-9.848,9.848
			c-5.855,5.855-5.855,15.348,0,21.203c2.928,2.928,6.765,4.392,10.601,4.392s7.674-1.463,10.601-4.392l9.848-9.848
			c10.544,14.056,17.312,30.43,19.781,47.863h-13.882c-8.28,0-14.993,6.713-14.993,14.993S428.631,179.914,436.911,179.914z"/>
	</g>
</g>
<g>
	<g>
		<circle cx="346.953" cy="164.92" r="14.993"/>
	</g>
</g>
<g>
</g>
<g>
</g>
<g>
</g>
<g>
</g>
<g>
</g>
<g>
</g>
<g>
</g>
<g>
</g>
<g>
</g>
<g>
</g>
<g>
</g>
<g>
</g>
<g>
</g>
<g>
</g>
<g>
</g>
</svg>
