<?xml version="1.0" encoding="iso-8859-1"?>
<!-- Generator: Adobe Illustrator 19.0.0, SVG Export Plug-In . SVG Version: 6.00 Build 0)  -->
<svg version="1.1" id="Capa_1" xmlns="http://www.w3.org/2000/svg" xmlns:xlink="http://www.w3.org/1999/xlink" x="0px" y="0px"
	 viewBox="0 0 512 512" style="enable-background:new 0 0 512 512;" xml:space="preserve">
<g>
	<g>
		<path d="M437,422h-75v-15c0-19.555-12.541-36.228-30-42.42V301h7.918c22.96,0,45.419-6.38,64.949-18.451
			c19.531-12.071,35.281-29.305,45.549-49.841c2.325-4.65,2.077-10.172-0.656-14.594C447.026,213.692,442.198,211,437,211H332v-91
			h67.918c22.96,0,45.419-6.38,64.949-18.451c19.531-12.071,35.281-29.305,45.549-49.841c2.325-4.65,2.077-10.172-0.656-14.594
			C507.026,32.692,502.198,30,497,30H150V15c0-8.284-6.716-15-15-15s-15,6.716-15,15v15H45C20.187,30,0,50.187,0,75s20.187,45,45,45
			h75v15c0,8.284,6.716,15,15,15s15-6.716,15-15v-15h30v91h-30v-15c0-8.284-6.716-15-15-15s-15,6.716-15,15v15H75
			c-24.813,0-45,20.187-45,45s20.187,45,45,45h45v15c0,8.284,6.716,15,15,15s15-6.716,15-15v-15h30v63.58
			c-17.459,6.192-30,22.865-30,42.42v15H75c-41.355,0-75,33.645-75,75c0,8.284,6.716,15,15,15h482c8.284,0,15-6.716,15-15
			C512,455.645,478.355,422,437,422z M120,90H45c-8.271,0-15-6.729-15-15s6.729-15,15-15h75V90z M120,271H75
			c-8.271,0-15-6.729-15-15s6.729-15,15-15h45V271z M150,90V59.8h318.639C451.231,78.723,426.582,90,399.918,90H150z M302,120v91
			h-92v-91H302z M150,271v-30.2h258.639c-17.407,18.923-42.057,30.2-68.721,30.2H150z M302,301v61h-92v-61H302z M32.57,482
			c6.191-17.461,22.874-30,42.43-30h90c8.284,0,15-6.716,15-15v-30c0-8.271,6.729-15,15-15h122c8.271,0,15,6.729,15,15v30
			c0,8.284,6.716,15,15,15h90c19.557,0,36.239,12.539,42.43,30H32.57z"/>
	</g>
</g>
<g>
	<g>
		<path d="M287,422h-62c-8.284,0-15,6.716-15,15s6.716,15,15,15h62c8.284,0,15-6.716,15-15S295.284,422,287,422z"/>
	</g>
</g>
<g>
</g>
<g>
</g>
<g>
</g>
<g>
</g>
<g>
</g>
<g>
</g>
<g>
</g>
<g>
</g>
<g>
</g>
<g>
</g>
<g>
</g>
<g>
</g>
<g>
</g>
<g>
</g>
<g>
</g>
</svg>
