<?xml version="1.0" encoding="iso-8859-1"?>
<!-- Generator: Adobe Illustrator 19.0.0, SVG Export Plug-In . SVG Version: 6.00 Build 0)  -->
<svg version="1.1" id="Capa_1" xmlns="http://www.w3.org/2000/svg" xmlns:xlink="http://www.w3.org/1999/xlink" x="0px" y="0px"
	 viewBox="0 0 512 512" style="enable-background:new 0 0 512 512;" xml:space="preserve">
<g>
	<g>
		<path d="M467,301c-24.813,0-45,20.187-45,45v15h-78.33c10.734-23.395,16.33-48.901,16.33-75
			c0-62.094-31.606-116.944-79.574-149.312C283.461,126.796,285,116.521,285,106C285,47.934,237.881,0,180,0
			C122.164,0,75,47.881,75,106c0,10.521,1.539,20.796,4.574,30.688C31.606,169.056,0,223.906,0,286
			c0,58.493,28.587,113.545,76.471,147.264c2.528,1.78,5.545,2.736,8.637,2.736H150v31c0,24.813,20.187,45,45,45s45-20.187,45-45
			v-16h182v16c0,24.813,20.187,45,45,45s45-20.187,45-45V346C512,321.187,491.813,301,467,301z M180,30c41.355,0,75,34.094,75,76
			c0,5.317-0.549,10.542-1.635,15.644C230.946,111.597,206.115,106,180,106s-50.946,5.597-73.365,15.644
			C105.549,116.542,105,111.317,105,106C105,64.094,138.645,30,180,30z M210,467c0,8.271-6.729,15-15,15s-15-6.729-15-15V346
			c0-8.271,6.729-15,15-15s15,6.729,15,15C210,360.114,210,452.564,210,467z M195,301c-24.813,0-45,20.187-45,45v60H89.984
			C52.337,377.707,30,333.196,30,286c0-82.71,67.29-150,150-150s150,67.29,150,150c0,26.509-6.938,52.266-20.093,75H240v-15
			C240,321.187,219.813,301,195,301z M422,421H240v-30h182V421z M482,467c0,8.271-6.729,15-15,15s-15-6.729-15-15
			c0-12.956,0-108.17,0-121c0-8.271,6.729-15,15-15s15,6.729,15,15V467z"/>
	</g>
</g>
<g>
</g>
<g>
</g>
<g>
</g>
<g>
</g>
<g>
</g>
<g>
</g>
<g>
</g>
<g>
</g>
<g>
</g>
<g>
</g>
<g>
</g>
<g>
</g>
<g>
</g>
<g>
</g>
<g>
</g>
</svg>
