<?xml version="1.0" encoding="iso-8859-1"?>
<!-- Generator: Adobe Illustrator 19.0.0, SVG Export Plug-In . SVG Version: 6.00 Build 0)  -->
<svg version="1.1" id="Capa_1" xmlns="http://www.w3.org/2000/svg" xmlns:xlink="http://www.w3.org/1999/xlink" x="0px" y="0px"
	 viewBox="0 0 512 512" style="enable-background:new 0 0 512 512;" xml:space="preserve">
<g>
	<g>
		<path d="M447.602,44.707L384.32,2.519c-0.08-0.054-0.165-0.099-0.246-0.151C381.602,0.788,378.747,0,376,0H136
			c-2.784,0-5.598,0.787-8.067,2.364c-0.084,0.053-0.171,0.101-0.253,0.156L64.397,44.707C43.485,58.649,31,81.977,31,107.111V316
			c0,8.284,6.716,15,15,15h72.309L91.202,494.547C89.688,503.683,96.745,512,106,512h300c9.26,0,16.311-8.322,14.798-17.453
			L393.691,331H466c8.284,0,15-6.716,15-15V107.111C481,81.977,468.515,58.649,447.602,44.707z M348.996,29.8L330.323,60H183.889
			l-19.922-30.2H348.996z M311.651,89.8l-52.174,84.026L203.811,89.8H311.651z M121,301H61V107.111
			c0-15.08,7.491-29.077,20.038-37.442l50.779-33.853l109.85,165.421c0.128,0.193,0.26,0.383,0.396,0.568L217.668,241H151V105
			c0-8.284-6.716-15-15-15s-15,6.716-15,15C121,106.877,121,298.537,121,301z M233.844,271l-12,30H151v-30
			C162.298,271,222.312,271,233.844,271z M123.691,482l25.027-151h61.126l-27.772,69.429c-3.077,7.692,0.665,16.421,8.356,19.498
			c7.693,3.076,16.421-0.665,19.498-8.356c7.222-18.055,39.4-98.5,44.792-111.979c0.949,2.848,42.305,126.916,47.05,141.152
			c2.621,7.86,11.114,12.106,18.974,9.487c7.859-2.62,12.106-11.115,9.487-18.974L296.812,331h66.47l25.027,151H123.691z
			 M276.812,271H361v30h-74.188L276.812,271z M451,301h-60c0-2.556,0-194.194,0-196c0-8.284-6.716-15-15-15s-15,6.716-15,15v136
			H253.004L380.557,36.066l50.405,33.603C443.509,78.034,451,92.031,451,107.111V301z"/>
	</g>
</g>
<g>
</g>
<g>
</g>
<g>
</g>
<g>
</g>
<g>
</g>
<g>
</g>
<g>
</g>
<g>
</g>
<g>
</g>
<g>
</g>
<g>
</g>
<g>
</g>
<g>
</g>
<g>
</g>
<g>
</g>
</svg>
