<?xml version="1.0" encoding="iso-8859-1"?>
<!-- Generator: Adobe Illustrator 19.0.0, SVG Export Plug-In . SVG Version: 6.00 Build 0)  -->
<svg version="1.1" id="Capa_1" xmlns="http://www.w3.org/2000/svg" xmlns:xlink="http://www.w3.org/1999/xlink" x="0px" y="0px"
	 viewBox="0 0 512 512" style="enable-background:new 0 0 512 512;" xml:space="preserve">
<g>
	<g>
		<path d="M467,255.992h-63.185l-47.566-95.132c-7.61-15.207-23.326-24.867-40.289-24.869c9.438-12.543,15.04-28.128,15.04-44.999
			c0-41.355-33.645-75-75-75c-41.355,0-75,33.645-75,75c0,16.87,5.602,32.455,15.04,44.998c-16.929-0.015-32.662,9.66-40.292,24.876
			l-47.563,95.126H45c-24.813,0-45,20.187-45,45s20.187,44.8,45,44.8h18.582c-8.142,23.012,3.651,48.709,26.619,57.341
			l43.668,16.375c-11.826,12.113-16.329,30.428-10.006,47.294c8.399,22.344,33.759,35.307,57.936,26.331L256,465.308l74.246,27.843
			c24.013,8.914,49.451-3.897,57.896-26.36c6.319-16.856,1.816-35.167-10.012-47.281l43.68-16.38
			c22.954-8.627,34.746-34.116,26.607-57.137H467c24.813,0,45-20.187,45-45S491.813,255.992,467,255.992z M256,45.992
			c24.813,0,45,20.187,45,45s-20.187,45-45,45s-45-20.187-45-45S231.187,45.992,256,45.992z M100.745,375.047
			c-7.752-2.913-11.697-11.581-8.8-19.31c2.902-7.724,11.59-11.661,19.32-8.795l102.015,38.255l-42.734,16.025L100.745,375.047z
			 M165.305,335.166c4.453-3.831,8.203-8.559,10.947-14.048l4.748-9.495v29.429L165.305,335.166z M360.055,456.247
			c-2.794,7.432-11.211,11.806-19.32,8.796l-42.015-15.755l42.734-16.025l9.801,3.675
			C359.007,439.851,362.952,448.519,360.055,456.247z M411.266,375.043l-239.955,89.983c-8.228,3.055-16.595-1.409-19.36-8.767
			c-2.902-7.74,1.043-16.408,8.784-19.317l239.949-89.981c7.77-2.883,16.467,1.047,19.366,8.765
			C422.952,363.466,419.007,372.134,411.266,375.043z M331,341.052v-29.429l4.748,9.495c2.744,5.489,6.494,10.217,10.947,14.048
			L331,341.052z M467,315.992h-91c-5.721,0-10.862-3.177-13.42-8.29l-33.164-66.328c-3.11-6.223-10.092-9.488-16.862-7.891
			c-6.771,1.598-11.554,7.642-11.554,14.599v104.22l-45,16.875l-45-16.875v-104.22c0-6.957-4.783-13-11.554-14.599
			c-6.766-1.599-13.751,1.668-16.862,7.891l-33.164,66.328c-2.558,5.113-7.699,8.29-13.42,8.29H45c-8.271,0-15-6.729-15-15
			s6.729-15,15-15h72.455c5.682,0,10.876-3.21,13.416-8.292l51.701-103.402c2.492-4.97,7.569-8.172,13.074-8.31
			c0.117,0.002,0.235,0.004,0.354,0.004h120c0.117,0,0.234-0.001,0.351-0.004c5.512,0.137,10.587,3.335,13.069,8.294L381.129,277.7
			c2.54,5.082,7.734,8.292,13.416,8.292H467c8.271,0,15,6.729,15,15S475.271,315.992,467,315.992z"/>
	</g>
</g>
<g>
</g>
<g>
</g>
<g>
</g>
<g>
</g>
<g>
</g>
<g>
</g>
<g>
</g>
<g>
</g>
<g>
</g>
<g>
</g>
<g>
</g>
<g>
</g>
<g>
</g>
<g>
</g>
<g>
</g>
</svg>
