<?xml version="1.0" encoding="iso-8859-1"?>
<!-- Generator: Adobe Illustrator 19.0.0, SVG Export Plug-In . SVG Version: 6.00 Build 0)  -->
<svg version="1.1" id="Capa_1" xmlns="http://www.w3.org/2000/svg" xmlns:xlink="http://www.w3.org/1999/xlink" x="0px" y="0px"
	 viewBox="0 0 512 512" style="enable-background:new 0 0 512 512;" xml:space="preserve">
<g>
	<g>
		<path d="M512,160.104c-0.03-4.393-2.056-8.698-5.555-11.539c-0.016-0.013-0.029-0.028-0.045-0.041
			c-1.068-0.859-26.636-21.298-66.839-42.955c-20.071-10.813-43.65-11.683-64.694-2.39c-21.482,9.487-37.063,27.97-42.747,50.709
			l-18.918,75.672c-9.119,1.769-18.448,3.179-27.93,4.145c-5.11,0.521-9.599,3.62-11.896,8.214L256,276.673l-17.376-34.752
			c-2.297-4.595-6.786-7.694-11.896-8.215c-9.481-0.966-18.81-2.376-27.929-4.145l-18.918-75.672
			c-5.685-22.74-21.266-41.223-42.749-50.709c-21.042-9.292-44.623-8.421-64.693,2.391C32.235,127.227,6.668,147.665,5.6,148.525
			c-0.016,0.013-0.029,0.028-0.045,0.041c-3.563,2.894-5.522,7.253-5.554,11.539c0,0.017,0.002,0.033,0.002,0.05
			c0,0.02-0.003,0.038-0.003,0.058v47.255c0,39.137,11.73,77.023,33.921,109.561c32.545,47.719,74.253,69.175,127.355,84.34
			c20.408,6.76,59.94,13.846,94.724,13.846c38.479,0,78.303-8.388,94.724-13.846c53.692-15.332,95.029-36.944,127.354-84.34
			C500.271,284.49,512,246.604,512,207.467v-47.255c0-0.018-0.003-0.035-0.003-0.053S512,160.123,512,160.104z M61,303.183
			c-19.659-27.458-31-60.834-31-95.716v-17.794c8.435,5.659,18.861,12.245,31,19.138V303.183z M151,366.723
			c-21.807-7.463-39.92-15.133-60-31.542V224.505c17.362,8.322,37.641,16.757,60,23.775V366.723z M40.301,160.306
			c10.875-7.505,26.843-17.808,46.365-28.324c11.859-6.39,25.836-6.885,38.347-1.359c12.951,5.719,22.341,16.851,25.764,30.542
			l15.075,60.296C121.564,208.321,77.128,185.941,40.301,160.306z M241,384.811c-19.639-1.042-39.686-4.114-60-9.19V256.436
			c11.585,2.662,23.004,4.712,34.424,6.167L241,313.755V384.811z M331,375.621c-20.314,5.077-40.361,8.148-60,9.19v-71.055
			l25.576-51.153c11.404-1.453,22.821-3.501,34.424-6.167V375.621z M346.151,221.462l15.073-60.297
			c3.423-13.691,12.813-24.823,25.763-30.542c12.183-5.379,26.179-5.196,38.349,1.359c19.523,10.517,35.489,20.819,46.365,28.324
			C434.556,186.165,389.941,208.469,346.151,221.462z M421,335.182c-19.848,16.219-37.816,23.949-60,31.541V248.279
			c22.359-7.017,42.638-15.452,60-23.774V335.182z M482,207.466c0,34.883-11.341,68.259-31,95.717v-94.372
			c12.139-6.893,22.565-13.479,31-19.139V207.466z"/>
	</g>
</g>
<g>
</g>
<g>
</g>
<g>
</g>
<g>
</g>
<g>
</g>
<g>
</g>
<g>
</g>
<g>
</g>
<g>
</g>
<g>
</g>
<g>
</g>
<g>
</g>
<g>
</g>
<g>
</g>
<g>
</g>
</svg>
