<?xml version="1.0" encoding="iso-8859-1"?>
<!-- Generator: Adobe Illustrator 19.0.0, SVG Export Plug-In . SVG Version: 6.00 Build 0)  -->
<svg version="1.1" id="Capa_1" xmlns="http://www.w3.org/2000/svg" xmlns:xlink="http://www.w3.org/1999/xlink" x="0px" y="0px"
	 viewBox="0 0 512 512" style="enable-background:new 0 0 512 512;" xml:space="preserve">
<g>
	<g>
		<path d="M341.627,425.394L322.232,406l19.394-19.394c5.858-5.857,5.858-15.355,0-21.212c-5.857-5.858-15.355-5.858-21.213,0
			l-19.394,19.394l-19.394-19.394c-5.857-5.858-15.355-5.858-21.213,0c-5.858,5.858-5.858,15.355,0,21.213L279.807,406
			l-19.394,19.394c-5.858,5.858-5.858,15.355,0,21.213c5.857,5.858,15.356,5.858,21.213,0l19.394-19.394l19.394,19.394
			c5.857,5.858,15.356,5.858,21.213,0C347.485,440.749,347.485,431.252,341.627,425.394z"/>
	</g>
</g>
<g>
	<g>
		<path d="M368.982,0H233.057c-67.711,0-123.215,53.669-126.844,121.017c-1.637-0.022,2.022-0.017-11.554-0.017
			c-69.839,0-104.986,84.865-55.606,134.246l96.967,96.967V497c0,8.284,6.716,15,15,15c12.843,0,289.129,0,300,0
			c8.284,0,15-6.716,15-15V347.066l28.724-201.063c0.847-5.932,1.276-11.976,1.276-17.965C496.02,57.438,439.031,0,368.982,0z
			 M60.266,234.033C29.743,203.509,51.442,151,94.659,151c11.704,0,11.364-0.025,13.364,0.093l21.783,152.481L60.266,234.033z
			 M196.02,482h-30V361h30V482z M376.02,482h-150V346c0-8.271,6.729-15,15-15h120c8.271,0,15,6.729,15,15V482z M436.02,482h-30V361
			h30V482z M465.044,141.761L438.01,331h-34.571c-6.192-17.458-22.865-30-42.42-30h-120c-19.555,0-36.228,12.542-42.42,30h-34.571
			c-29.471-206.297-28.009-193.445-28.009-202.962C136.02,73.979,179.55,30,233.057,30h135.925
			c53.507,0,97.038,43.979,97.038,98.038C466.02,132.613,465.691,137.23,465.044,141.761z"/>
	</g>
</g>
<g>
	<g>
		<path d="M368.988,91H233.051c-22.645,0-39.865,20.191-36.661,42.272l9.263,64.849c1.056,7.39,7.384,12.879,14.849,12.879H381.53
			c7.465,0,13.794-5.489,14.849-12.879l9.246-64.744C408.94,111.314,391.683,91,368.988,91z M368.52,181H233.512
			c-7.929-55.506-7.493-52.163-7.493-52.969c0-3.877,3.154-7.031,7.031-7.031h135.937c3.877,0,7.031,3.154,7.031,7.031
			C376.02,128.747,376.5,125.127,368.52,181z"/>
	</g>
</g>
<g>
</g>
<g>
</g>
<g>
</g>
<g>
</g>
<g>
</g>
<g>
</g>
<g>
</g>
<g>
</g>
<g>
</g>
<g>
</g>
<g>
</g>
<g>
</g>
<g>
</g>
<g>
</g>
<g>
</g>
</svg>
