<?xml version="1.0" encoding="iso-8859-1"?>
<!-- Generator: Adobe Illustrator 19.0.0, SVG Export Plug-In . SVG Version: 6.00 Build 0)  -->
<svg version="1.1" id="Capa_1" xmlns="http://www.w3.org/2000/svg" xmlns:xlink="http://www.w3.org/1999/xlink" x="0px" y="0px"
	 viewBox="0 0 512 512" style="enable-background:new 0 0 512 512;" xml:space="preserve">
<g>
	<g>
		<path d="M388.704,67.927C357.226,25.296,308.002,0,256,0S154.774,25.296,123.296,67.927C69.722,85.836,31,136.479,31,196v181
			c0,74.439,60.561,135,135,135c24.484,0,46.262-11.796,59.959-30h60.082c13.697,18.204,35.475,30,59.959,30
			c74.439,0,135-60.561,135-135V196C481,136.479,442.278,85.836,388.704,67.927z M256,30c31.18,0,61.171,11.201,85.14,31H170.86
			C194.828,41.201,224.82,30,256,30z M272.509,452h-33.018c0.988-4.848,1.509-9.864,1.509-15s-0.521-10.352-1.509-15.2h33.018
			C271.521,426.648,271,431.865,271,437S271.521,447.151,272.509,452z M286.041,392h-60.082c-13.697-18.204-35.475-30-59.959-30
			c-8.271,0-15-6.729-15-15v-31c0-24.813,20.187-45,45-45h120c24.813,0,45,20.187,45,45v31c0,8.271-6.729,15-15,15
			C321.516,362,299.738,373.796,286.041,392z M451,377c0,57.897-47.103,105-105,105c-24.813,0-45-20.187-45-45s20.187-45,45-45
			s45-20.187,45-45v-31c0-41.355-33.645-75-75-75H196c-41.355,0-75,33.645-75,75v31c0,24.813,20.187,45,45,45s45,20.187,45,45
			s-20.187,45-45,45c-57.897,0-105-47.103-105-105V196c0-57.897,47.103-105,105-105h180c57.897,0,105,47.103,105,105V377z"/>
	</g>
</g>
<g>
	<g>
		<path d="M286,121h-60c-24.813,0-45,20.187-45,45s20.187,45,45,45h60c24.813,0,45-20.187,45-45S310.813,121,286,121z M286,181h-60
			c-8.271,0-15-6.729-15-15s6.729-15,15-15h60c8.271,0,15,6.729,15,15S294.271,181,286,181z"/>
	</g>
</g>
<g>
</g>
<g>
</g>
<g>
</g>
<g>
</g>
<g>
</g>
<g>
</g>
<g>
</g>
<g>
</g>
<g>
</g>
<g>
</g>
<g>
</g>
<g>
</g>
<g>
</g>
<g>
</g>
<g>
</g>
</svg>
