<?xml version="1.0" encoding="iso-8859-1"?>
<!-- Generator: Adobe Illustrator 19.0.0, SVG Export Plug-In . SVG Version: 6.00 Build 0)  -->
<svg version="1.1" id="Capa_1" xmlns="http://www.w3.org/2000/svg" xmlns:xlink="http://www.w3.org/1999/xlink" x="0px" y="0px"
	 viewBox="0 0 511.998 511.998" style="enable-background:new 0 0 511.998 511.998;" xml:space="preserve">
<g>
	<g>
		<path d="M429.355,272.389c-3.168-6.409-10.42-9.688-17.33-7.84c-16.843,4.513-34.643,3.857-51.024-1.763v-13.575
			c16.377-5.617,34.18-6.275,51.024-1.761c6.906,1.853,14.159-1.431,17.33-7.84l47.943-96.965c4.74-9.587-1.814-20.93-12.481-21.618
			l-107.945-6.961c-7.13-0.457-13.603,4.18-15.455,11.086c-4.85,18.098-15.196,33.895-29.589,45.459l-9.161-9.161
			c3.36-16.9,11.712-32.621,23.941-44.847c5.036-5.036,5.837-12.918,1.917-18.865L268.523,6.735c-5.914-8.969-19.118-8.991-25.047,0
			l-60.002,91.003c-3.92,5.946-3.119,13.828,1.917,18.865c12.228,12.227,20.581,27.948,23.941,44.847l-9.161,9.161
			c-14.393-11.564-24.74-27.362-29.589-45.459c-1.851-6.906-8.326-11.549-15.454-11.086l-107.947,6.96
			c-10.673,0.688-17.22,12.035-12.481,21.618l47.944,96.965c3.169,6.409,10.422,9.692,17.33,7.84
			c16.845-4.514,34.644-3.857,51.024,1.762v13.575c-16.38,5.617-34.182,6.275-51.024,1.762c-6.905-1.85-14.159,1.431-17.33,7.84
			l-47.943,96.964c-4.74,9.587,1.814,20.93,12.481,21.618l107.945,6.962c7.127,0.463,13.604-4.18,15.454-11.086
			c4.849-18.098,15.195-33.896,29.588-45.46l9.162,9.162c-3.36,16.899-11.712,32.62-23.941,44.848
			c-5.036,5.036-5.836,12.918-1.917,18.864l60.002,91.003c5.914,8.969,19.118,8.991,25.047,0l60.002-91.003
			c3.92-5.945,3.119-13.828-1.917-18.864c-12.228-12.228-20.581-27.949-23.941-44.848l9.162-9.162
			c14.392,11.564,24.739,27.363,29.588,45.46c1.851,6.907,8.322,11.546,15.455,11.086l107.945-6.962
			c10.673-0.688,17.22-12.035,12.481-21.618L429.355,272.389z M366.551,367.246c-9.288-24.195-26.247-44.564-48.672-58.169
			c-5.906-3.584-13.5-2.669-18.388,2.218l-24.1,24.1c-4.664,4.664-5.629,11.659-2.827,17.291
			c3.314,20.02,11.833,38.951,24.548,54.711l-41.115,62.359l-41.115-62.359c12.715-15.76,21.234-34.692,24.548-54.711
			c2.796-5.617,1.849-12.615-2.827-17.291l-24.098-24.1c-4.887-4.888-12.479-5.803-18.388-2.218
			c-22.426,13.604-39.384,33.974-48.672,58.169l-73.88-4.765l32.819-66.377c23.005,3.604,46.729,0.298,67.966-9.635
			c5.275-2.467,8.645-7.764,8.645-13.587v-33.765c0-5.823-3.37-11.12-8.645-13.587c-21.236-9.934-44.96-13.241-67.967-9.635
			l-32.819-66.377l73.881-4.765c9.288,24.194,26.247,44.562,48.672,58.168c5.909,3.585,13.501,2.669,18.388-2.218l24.099-24.099
			c4.7-4.699,5.606-11.705,2.827-17.291c-3.314-20.021-11.833-38.952-24.549-54.712l41.115-62.358l41.115,62.358
			c-12.715,15.76-21.235,34.692-24.549,54.712c-2.792,5.609-1.854,12.61,2.827,17.291l24.099,24.099
			c4.886,4.887,12.479,5.803,18.388,2.218c22.425-13.605,39.384-33.973,48.672-58.168l73.881,4.765l-32.819,66.377
			c-23.008-3.604-46.731-0.298-67.967,9.635c-5.274,2.467-8.645,7.764-8.645,13.587v33.766c0,5.823,3.37,11.12,8.645,13.587
			c21.238,9.932,44.962,13.239,67.966,9.635l32.819,66.377L366.551,367.246z"/>
	</g>
</g>
<g>
	<g>
		<path d="M255.999,210.998c-24.814,0-45.001,20.188-45.001,45.001S231.185,301,255.999,301S301,280.813,301,255.999
			S280.813,210.998,255.999,210.998z M255.999,270.999c-8.271,0-15-6.729-15-15c0-8.271,6.729-15,15-15c8.271,0,15,6.729,15,15
			C270.999,264.27,264.27,270.999,255.999,270.999z"/>
	</g>
</g>
<g>
</g>
<g>
</g>
<g>
</g>
<g>
</g>
<g>
</g>
<g>
</g>
<g>
</g>
<g>
</g>
<g>
</g>
<g>
</g>
<g>
</g>
<g>
</g>
<g>
</g>
<g>
</g>
<g>
</g>
</svg>
