<?xml version="1.0" encoding="iso-8859-1"?>
<!-- Generator: Adobe Illustrator 19.0.0, SVG Export Plug-In . SVG Version: 6.00 Build 0)  -->
<svg version="1.1" id="Capa_1" xmlns="http://www.w3.org/2000/svg" xmlns:xlink="http://www.w3.org/1999/xlink" x="0px" y="0px"
	 viewBox="0 0 512 512" style="enable-background:new 0 0 512 512;" xml:space="preserve">
<g>
	<g>
		<path d="M512,15c0-8.284-6.716-15-15-15s-15,6.716-15,15c0,24.813-20.187,45-45,45c-12.35,0-93.882,0-106,0V45
			c0-24.813-20.187-45-45-45h-60c-24.813,0-45,20.187-45,45v15h-15c-9.212,0-82.302,0-91,0c-24.813,0-45-20.187-45-45
			c0-8.284-6.716-15-15-15S0,6.716,0,15c0,36.219,25.808,66.522,60,73.491V424.58c-17.459,6.192-30,22.865-30,42.42v30
			c0,8.284,6.716,15,15,15h422c8.284,0,15-6.716,15-15v-30c0-19.555-12.541-36.228-30-42.42V88.491
			C486.192,81.522,512,51.219,512,15z M211,45c0-8.271,6.729-15,15-15h60c8.271,0,15,6.729,15,15v15h-90V45z M326.844,90
			l-11.104,44.961C297.719,126.031,277.438,121,256,121s-41.719,5.031-59.74,13.961L185.155,90C188.22,90,313.785,90,326.844,90z
			 M256,151c57.897,0,105,47.103,105,105c0,23.551-7.794,45.315-20.938,62.85l-13.46-13.46C329.419,299.515,331,292.939,331,286
			c0-24.813-20.187-45-45-45s-45,20.187-45,45s20.187,45,45,45c6.939,0,13.514-1.581,19.389-4.397l13.46,13.46
			C301.314,353.206,279.551,361,256,361c-57.897,0-105-47.103-105-105C151,198.103,198.103,151,256,151z M301,286
			c0,8.271-6.729,15-15,15s-15-6.729-15-15s6.729-15,15-15S301,277.729,301,286z M90,90c10.493,0,56.671,0,64.254,0l15.391,62.316
			C139.938,177.099,121,214.378,121,256c0,74.439,60.561,135,135,135c31.827,0,61.112-11.078,84.216-29.571l25.177,25.177
			c5.857,5.858,15.356,5.858,21.213,0c5.858-5.858,5.858-15.355,0-21.213l-25.177-25.177C379.922,317.112,391,287.827,391,256
			c0-41.622-18.938-78.901-48.645-103.684L357.746,90c7.637,0,53.791,0,64.254,0v332H90V90z M452,482H60v-15c0-8.271,6.729-15,15-15
			h362c8.271,0,15,6.729,15,15V482z"/>
	</g>
</g>
<g>
</g>
<g>
</g>
<g>
</g>
<g>
</g>
<g>
</g>
<g>
</g>
<g>
</g>
<g>
</g>
<g>
</g>
<g>
</g>
<g>
</g>
<g>
</g>
<g>
</g>
<g>
</g>
<g>
</g>
</svg>
