<?xml version="1.0" encoding="iso-8859-1"?>
<!-- Generator: Adobe Illustrator 19.0.0, SVG Export Plug-In . SVG Version: 6.00 Build 0)  -->
<svg version="1.1" id="Capa_1" xmlns="http://www.w3.org/2000/svg" xmlns:xlink="http://www.w3.org/1999/xlink" x="0px" y="0px"
	 viewBox="0 0 512 512" style="enable-background:new 0 0 512 512;" xml:space="preserve">
<g>
	<g>
		<path d="M196,211c-8.284,0-15,6.716-15,15v60c0,8.284,6.716,15,15,15s15-6.716,15-15v-60C211,217.716,204.284,211,196,211z"/>
	</g>
</g>
<g>
	<g>
		<path d="M316,211c-8.284,0-15,6.716-15,15v60c0,8.284,6.716,15,15,15s15-6.716,15-15v-60C331,217.716,324.284,211,316,211z"/>
	</g>
</g>
<g>
	<g>
		<path d="M507.606,65.394l-61-61C443.794,1.581,439.979,0,436,0H76c-3.979,0-7.794,1.581-10.606,4.394l-61,61
			C1.58,68.207,0,72.022,0,76v360c0,3.978,1.58,7.793,4.394,10.606l61,61C68.206,510.419,72.021,512,76,512h360
			c3.979,0,7.794-1.581,10.606-4.394l61-61C510.42,443.793,512,439.978,512,436V76C512,72.022,510.42,68.207,507.606,65.394z
			 M482,429.787L429.787,482H82.213L30,429.787V82.213L82.213,30h347.574L482,82.213V429.787z"/>
	</g>
</g>
<g>
	<g>
		<path d="M436,211h-21.516C398.955,156.222,355.851,112.819,301,97.256V76c0-8.284-6.716-15-15-15h-60c-8.284,0-15,6.716-15,15
			v21.256C156.225,112.797,113.067,156.146,97.515,211H76c-8.284,0-15,6.716-15,15v60c0,8.284,6.716,15,15,15h21.515
			c15.531,54.779,58.634,98.181,113.485,113.744V436c0,8.284,6.716,15,15,15h60c8.284,0,15-6.716,15-15v-21.256
			c54.776-15.541,97.934-58.889,113.484-113.744H436c8.284,0,15-6.716,15-15v-60C451,217.716,444.284,211,436,211z M421,271h-18.289
			c-7.126,0-13.268,5.013-14.695,11.994c-10.875,53.165-52.095,94.488-105.012,105.276c-6.986,1.424-12.004,7.568-12.004,14.698V421
			h-30v-18.032c0-7.129-5.018-13.273-12.004-14.698c-52.917-10.788-94.137-52.111-105.013-105.276
			c-1.428-6.981-7.569-11.994-14.695-11.994H91v-30h18.288c7.126,0,13.268-5.013,14.695-11.994
			c10.876-53.165,52.096-94.488,105.013-105.276c6.986-1.424,12.004-7.568,12.004-14.698V91h30v18.032
			c0,7.129,5.018,13.273,12.004,14.698c52.917,10.789,94.137,52.112,105.012,105.276c1.428,6.981,7.569,11.994,14.695,11.994H421
			V271z"/>
	</g>
</g>
<g>
</g>
<g>
</g>
<g>
</g>
<g>
</g>
<g>
</g>
<g>
</g>
<g>
</g>
<g>
</g>
<g>
</g>
<g>
</g>
<g>
</g>
<g>
</g>
<g>
</g>
<g>
</g>
<g>
</g>
</svg>
