<?xml version="1.0" encoding="iso-8859-1"?>
<!-- Generator: Adobe Illustrator 19.0.0, SVG Export Plug-In . SVG Version: 6.00 Build 0)  -->
<svg version="1.1" id="Capa_1" xmlns="http://www.w3.org/2000/svg" xmlns:xlink="http://www.w3.org/1999/xlink" x="0px" y="0px"
	 viewBox="0 0 512.001 512.001" style="enable-background:new 0 0 512.001 512.001;" xml:space="preserve">
<g>
	<g>
		<path d="M181.553,368.636c-7.516-4.971-14.585-10.75-21.012-17.178c-6.426-6.426-12.206-13.495-17.178-21.012
			c-4.57-6.91-13.876-8.806-20.786-4.236c-6.91,4.57-8.806,13.876-4.236,20.786c6.08,9.192,13.141,17.831,20.986,25.676
			c7.847,7.848,16.486,14.909,25.677,20.987c6.913,4.572,16.218,2.67,20.786-4.237C190.36,382.512,188.463,373.206,181.553,368.636z
			"/>
	</g>
</g>
<g>
	<g>
		<path d="M393.659,165.004c-6.075-9.187-13.136-17.826-20.986-25.677c-7.847-7.848-16.486-14.908-25.677-20.987
			c-6.908-4.569-16.215-2.673-20.785,4.236c-4.57,6.91-2.674,16.216,4.236,20.786c7.516,4.971,14.585,10.75,21.012,17.177
			c6.431,6.431,12.209,13.5,17.177,21.012c4.575,6.919,13.885,8.803,20.785,4.238C396.331,181.22,398.229,171.914,393.659,165.004z"
			/>
	</g>
</g>
<g>
	<g>
		<path d="M507.607,89.246L422.755,4.393c-5.852-5.853-15.357-5.858-21.213,0l-18.709,18.709
			c-9.231,9.231-12.45,10.148-23.114,13.187c-28.109,8.008-51.877,19.377-74.402,41.902l-14.124,14.124
			c-49.411-4.658-97.105,12.252-131.864,47.012c-34.759,34.759-51.669,82.455-47.012,131.864l-14.124,14.124
			c-22.377,22.377-33.817,46.035-41.902,74.402c-3.039,10.664-3.956,13.882-13.187,23.114L4.394,401.54
			c-5.858,5.858-5.858,15.355,0,21.213l84.853,84.853c5.857,5.858,15.356,5.858,21.213,0l18.709-18.709
			c9.233-9.233,12.452-10.15,23.117-13.188c28.173-8.028,51.912-19.413,74.399-41.901l14.124-14.124
			c5.387,0.508,10.745,0.759,16.077,0.759c43.572-0.001,84.82-16.802,115.789-47.771c34.759-34.759,51.669-82.456,47.012-131.864
			l14.123-14.124c22.332-22.332,33.803-45.977,41.901-74.398c3.038-10.666,3.955-13.884,13.188-23.118l18.709-18.709
			C513.466,104.601,513.466,95.104,507.607,89.246z M467.685,107.955c-14.054,14.054-16.938,22.461-20.828,36.11
			c-5.584,19.594-13.491,40.634-34.262,61.405l-19.251,19.252c-3.322,3.322-4.896,8.008-4.252,12.662
			c5.903,42.677-7.813,84.255-37.632,114.075c-29.818,29.818-71.399,43.534-114.076,37.632c-4.654-0.646-9.34,0.93-12.662,4.252
			l-19.251,19.251c-18.562,18.562-37.707,27.509-61.407,34.262c-13.649,3.889-22.056,6.773-36.109,20.827l-8.103,8.102l-63.64-63.64
			l8.102-8.103c14.052-14.052,16.937-22.458,20.826-36.105c5.527-19.391,13.372-40.518,34.264-61.41l19.252-19.251
			c3.322-3.322,4.896-8.009,4.252-12.662c-5.903-42.677,7.813-84.256,37.632-114.075c29.819-29.819,71.396-43.536,114.075-37.632
			c4.653,0.645,9.34-0.93,12.662-4.252l19.251-19.251c18.537-18.537,37.665-27.5,61.411-34.264
			c13.647-3.889,22.054-6.773,36.105-20.826l8.103-8.102l63.64,63.64L467.685,107.955z"/>
	</g>
</g>
<g>
	<g>
		<path d="M330.253,181.76c-0.002-0.003-0.004-0.005-0.006-0.007c-0.002-0.002-0.005-0.004-0.007-0.006
			c-40.939-40.932-107.547-40.931-148.485,0.007c-40.939,40.939-40.939,107.553,0,148.492c40.944,40.944,107.558,40.935,148.492,0
			C371.279,289.215,371.289,222.802,330.253,181.76z M297.359,193.427l-20.428,20.428c-13.959-12.557-28.339-22.914-41.612-29.92
			C256.456,177.908,279.148,181.381,297.359,193.427z M255.696,235.091l-20.603,20.603c-21.667-24.365-30.237-43.995-31.162-51.765
			C211.701,204.854,231.331,213.425,255.696,235.091z M193.428,297.358c-12.236-18.5-15.397-41.268-9.508-61.984
			c7.191,13.674,17.738,28.035,29.928,41.564L193.428,297.358z M214.641,318.571l20.42-20.421
			c13.527,12.189,27.886,22.74,41.559,29.93C255.906,333.968,233.141,330.806,214.641,318.571z M256.305,276.907l20.603-20.603
			c21.667,24.365,30.238,43.995,31.163,51.765C300.302,307.144,280.672,298.573,256.305,276.907z M328.093,276.734
			c-7.007-13.288-17.374-27.688-29.948-41.666l20.437-20.437C330.992,233.323,333.984,256.137,328.093,276.734z"/>
	</g>
</g>
<g>
	<g>
		<circle cx="404.49" cy="107.51" r="15"/>
	</g>
</g>
<g>
	<g>
		<circle cx="107.511" cy="404.49" r="15"/>
	</g>
</g>
<g>
</g>
<g>
</g>
<g>
</g>
<g>
</g>
<g>
</g>
<g>
</g>
<g>
</g>
<g>
</g>
<g>
</g>
<g>
</g>
<g>
</g>
<g>
</g>
<g>
</g>
<g>
</g>
<g>
</g>
</svg>
