<?xml version="1.0" encoding="iso-8859-1"?>
<!-- Generator: Adobe Illustrator 19.0.0, SVG Export Plug-In . SVG Version: 6.00 Build 0)  -->
<svg version="1.1" id="Capa_1" xmlns="http://www.w3.org/2000/svg" xmlns:xlink="http://www.w3.org/1999/xlink" x="0px" y="0px"
	 viewBox="0 0 512 512" style="enable-background:new 0 0 512 512;" xml:space="preserve">
<g>
	<g>
		<path d="M498.809,426.404l-74.243-74.243l31.819-31.819c5.853-5.852,5.858-15.355,0-21.212
			c-37.386-37.386-96.181-40.622-137.282-9.722l-41.571-40.368L507.44,25.788c5.942-5.771,6.082-15.267,0.312-21.21
			c-5.773-5.944-15.268-6.081-21.211-0.311L255.999,228.133L25.458,4.267c-5.941-5.77-15.437-5.631-21.21,0.312
			c-5.771,5.943-5.631,15.439,0.312,21.21L234.469,249.04l-41.571,40.368c-41.101-30.901-99.896-27.665-137.282,9.722
			c-5.853,5.852-5.858,15.355,0,21.212l31.819,31.819l-74.243,74.243c-17.586,17.584-17.589,46.05,0,63.636
			c14.314,14.314,35.572,16.819,52.276,8.271c29.466,20.775,70.216,17.724,96.21-8.271c11.93-11.93,18.987-26.911,21.183-42.453
			l0.029,0.029c5.857,5.858,15.353,5.858,21.212,0c37.909-37.909,40.247-96.499,9.981-136.964L256,269.947l41.918,40.704
			c-30.272,40.472-27.923,99.061,9.981,136.964c5.857,5.857,15.354,5.858,21.212,0l0.029-0.029
			c2.196,15.542,9.254,30.524,21.183,42.453c25.992,25.993,66.741,29.049,96.21,8.271c16.693,8.543,37.952,6.053,52.276-8.271
			C516.395,472.456,516.398,443.992,498.809,426.404z M55.614,468.827c-5.848,5.849-15.364,5.85-21.212,0.001
			c-5.863-5.863-5.863-15.348,0-21.212l74.243-74.243l10.607,10.606l10.606,10.606L55.614,468.827z M140.464,468.829
			c-13.828,13.827-34.491,16.758-51.214,8.789l60.002-60.002C157.221,434.339,154.292,455.001,140.464,468.829z M192.439,414.743
			c-11.087-11.087-91.828-91.828-103.942-103.942c29.105-19.248,68.781-16.068,94.391,9.542
			C208.758,346.212,211.597,385.897,192.439,414.743z M319.56,414.743c-19.11-28.774-16.381-68.469,9.551-94.401
			c25.608-25.609,65.284-28.789,94.391-9.541C411.411,322.892,330.765,403.539,319.56,414.743z M371.535,468.829
			c-13.827-13.827-16.757-34.49-8.789-51.213l30.002,30.001l30.002,30.001C406.024,485.587,385.362,482.656,371.535,468.829z
			 M477.597,468.829c-5.848,5.848-15.364,5.848-21.212,0l-74.244-74.243l10.607-10.606l10.607-10.606l74.243,74.243
			C483.46,453.479,483.459,462.965,477.597,468.829z"/>
	</g>
</g>
<g>
</g>
<g>
</g>
<g>
</g>
<g>
</g>
<g>
</g>
<g>
</g>
<g>
</g>
<g>
</g>
<g>
</g>
<g>
</g>
<g>
</g>
<g>
</g>
<g>
</g>
<g>
</g>
<g>
</g>
</svg>
