<?xml version="1.0" encoding="iso-8859-1"?>
<!-- Generator: Adobe Illustrator 19.0.0, SVG Export Plug-In . SVG Version: 6.00 Build 0)  -->
<svg version="1.1" id="Capa_1" xmlns="http://www.w3.org/2000/svg" xmlns:xlink="http://www.w3.org/1999/xlink" x="0px" y="0px"
	 viewBox="0 0 512 512" style="enable-background:new 0 0 512 512;" xml:space="preserve">
<g>
	<g>
		<path d="M436,271h-75v-60h75c24.813,0,45-20.187,45-45s-20.187-45-45-45h-75V45c0-24.813-20.187-45-45-45H196
			c-24.813,0-45,20.187-45,45v16H76c-24.813,0-45,20.187-45,45s20.187,45,45,45h75v60h-45c-24.813,0-45,20.187-45,45
			s20.187,45,45,45h45v123.58c-17.459,6.192-30,22.865-30,42.42v30c0,8.284,6.716,15,15,15h240c8.284,0,15-6.716,15-15v-30
			c0-19.555-12.541-36.228-30-42.42V361h30v15c0,24.813,20.187,45,45,45s45-20.187,45-45v-60C481,291.187,460.813,271,436,271z
			 M436,151c8.271,0,15,6.729,15,15s-6.729,15-15,15H316c-8.271,0-15-6.729-15-15s6.729-15,15-15H436z M181,45
			c0-8.271,6.729-15,15-15h120c8.271,0,15,6.729,15,15v76h-15c-24.813,0-45,20.187-45,45s20.187,45,45,45h15v60h-15
			c-24.813,0-45,20.187-45,45s20.187,45,45,45h15v61H181V301h15c24.813,0,45-20.187,45-45s-20.187-45-45-45h-15v-60h15
			c24.813,0,45-20.187,45-45s-20.187-45-45-45h-15V45z M76,121c-8.271,0-15-6.729-15-15s6.729-15,15-15h120c8.271,0,15,6.729,15,15
			s-6.729,15-15,15H76z M106,271c-8.271,0-15-6.729-15-15s6.729-15,15-15h90c8.271,0,15,6.729,15,15s-6.729,15-15,15H106z M361,482
			H151v-15c0-8.271,6.729-15,15-15h180c8.271,0,15,6.729,15,15V482z M451,376c0,8.271-6.729,15-15,15s-15-6.729-15-15v-30
			c0-8.284-6.716-15-15-15h-90c-8.271,0-15-6.729-15-15s6.729-15,15-15h120c8.271,0,15,6.729,15,15V376z"/>
	</g>
</g>
<g>
</g>
<g>
</g>
<g>
</g>
<g>
</g>
<g>
</g>
<g>
</g>
<g>
</g>
<g>
</g>
<g>
</g>
<g>
</g>
<g>
</g>
<g>
</g>
<g>
</g>
<g>
</g>
<g>
</g>
</svg>
