<?xml version="1.0" encoding="iso-8859-1"?>
<!-- Generator: Adobe Illustrator 19.0.0, SVG Export Plug-In . SVG Version: 6.00 Build 0)  -->
<svg version="1.1" id="Capa_1" xmlns="http://www.w3.org/2000/svg" xmlns:xlink="http://www.w3.org/1999/xlink" x="0px" y="0px"
	 viewBox="0 0 511.999 511.999" style="enable-background:new 0 0 511.999 511.999;" xml:space="preserve">
<g>
	<g>
		<path d="M255.999,120.999c-24.813,0-45,20.187-45,45s20.187,45,45,45s45-20.187,45-45S280.812,120.999,255.999,120.999z
			 M255.999,180.999c-8.271,0-15-6.729-15-15s6.729-15,15-15c8.271,0,15,6.729,15,15S264.27,180.999,255.999,180.999z"/>
	</g>
</g>
<g>
	<g>
		<path d="M255.999,300.998c-24.813,0-45,20.187-45,45s20.187,45,45,45c24.813,0,45-20.187,45-45S280.812,300.998,255.999,300.998z
			 M255.999,360.998c-8.271,0-15-6.729-15-15s6.729-15,15-15c8.271,0,15,6.729,15,15S264.27,360.998,255.999,360.998z"/>
	</g>
</g>
<g>
	<g>
		<path d="M511.981,135.657c-0.086-3.9-1.689-7.523-4.29-10.169c-0.03-0.031-0.056-0.065-0.087-0.096L386.605,4.393
			c-0.031-0.031-0.066-0.058-0.098-0.089c-2.641-2.595-6.262-4.2-10.161-4.287C376.23,0.015,376.115,0,375.999,0H136
			c-0.115,0-0.228,0.014-0.342,0.017c-3.861,0.085-7.509,1.677-10.166,4.287c-0.032,0.031-0.067,0.057-0.098,0.089L4.395,125.392
			c-0.032,0.032-0.058,0.067-0.09,0.099c-2.613,2.661-4.201,6.287-4.287,10.165c-0.003,0.115-0.017,0.227-0.017,0.342v239.999
			c0,0.115,0.014,0.228,0.017,0.342c0.085,3.846,1.642,7.482,4.302,10.182c0.026,0.027,0.049,0.056,0.075,0.083
			c0.89,0.89,120.198,120.202,121.091,121.082c2.861,2.813,6.797,4.313,10.503,4.313c0.033,0,0.066-0.003,0.099-0.003h239.824
			c0.033,0,0.066,0.003,0.099,0.003c0.193,0,0.386-0.025,0.579-0.033c3.839-0.151,7.331-1.732,9.918-4.275
			c0.032-0.031,0.067-0.057,0.098-0.089l120.999-120.999c0.028-0.028,0.051-0.059,0.078-0.086c2.658-2.7,4.212-6.328,4.298-10.177
			c0.003-0.115,0.017-0.228,0.017-0.342V135.999C511.998,135.884,511.984,135.771,511.981,135.657z M380.186,40.401l91.411,91.411
			l-48.421,23.908c-16.489-27.386-39.512-50.41-66.899-66.899L380.186,40.401z M161.098,390.898
			C118.728,361.003,91,311.68,91,255.998c0-90.98,74.019-164.999,164.999-164.999c41.355,0,75,33.645,75,75s-33.645,75-75,75
			C198.103,240.999,151,288.101,151,345.998C151,362.054,154.628,377.277,161.098,390.898z M255.999,270.998
			c57.897,0,104.999-47.103,104.999-104.999c0-16.056-3.628-31.279-10.098-44.9c42.37,29.895,70.098,79.218,70.098,134.899
			c0,90.98-74.019,164.999-164.999,164.999c-41.355,0-75-33.645-75-75C181,304.643,214.645,270.998,255.999,270.998z M351.864,30
			l-22.406,45.378c-21.895-8.937-45.762-14.001-70.753-14.344c-0.899-0.023-1.802-0.034-2.706-0.034
			c-25.976,0-50.775,5.118-73.46,14.378L160.135,30H351.864z M131.813,40.401l23.908,48.421
			c-27.387,16.489-50.41,39.512-66.899,66.899l-48.421-23.908L131.813,40.401z M30.001,351.863V160.134l45.378,22.406
			c-9.26,22.685-14.378,47.483-14.378,73.459c0,25.976,5.118,50.775,14.378,73.46L30.001,351.863z M131.826,471.61l-91.425-91.425
			l48.421-23.908c16.501,27.405,39.545,50.441,66.956,66.933L131.826,471.61z M160.158,481.997l22.443-45.353
			c21.878,8.922,45.724,13.977,70.692,14.319c0.899,0.023,1.802,0.034,2.706,0.034c25.976,0,50.775-5.118,73.46-14.378
			l22.406,45.378H160.158z M380.186,471.596l-23.908-48.421c27.386-16.489,50.41-39.512,66.899-66.899l48.421,23.908
			L380.186,471.596z M481.998,351.863l-45.378-22.405c9.26-22.685,14.378-47.484,14.378-73.46c0-25.976-5.118-50.774-14.378-73.459
			l45.378-22.406V351.863z"/>
	</g>
</g>
<g>
</g>
<g>
</g>
<g>
</g>
<g>
</g>
<g>
</g>
<g>
</g>
<g>
</g>
<g>
</g>
<g>
</g>
<g>
</g>
<g>
</g>
<g>
</g>
<g>
</g>
<g>
</g>
<g>
</g>
</svg>
