<?xml version="1.0" encoding="iso-8859-1"?>
<!-- Generator: Adobe Illustrator 19.0.0, SVG Export Plug-In . SVG Version: 6.00 Build 0)  -->
<svg version="1.1" id="Capa_1" xmlns="http://www.w3.org/2000/svg" xmlns:xlink="http://www.w3.org/1999/xlink" x="0px" y="0px"
	 viewBox="0 0 512 512" style="enable-background:new 0 0 512 512;" xml:space="preserve">
<g>
	<g>
		<path d="M467,0H45C20.187,0,0,20.187,0,45v422c0,24.813,20.187,45,45,45h422c24.813,0,45-20.187,45-45V45
			C512,20.187,491.813,0,467,0z M482,467c0,8.271-6.729,15-15,15H45c-8.271,0-15-6.729-15-15V45c0-8.271,6.729-15,15-15h422
			c8.271,0,15,6.729,15,15V467z"/>
	</g>
</g>
<g>
	<g>
		<path d="M437,60c-12.167,0-344.548,0-362,0c-8.284,0-15,6.716-15,15c0,12.167,0,344.548,0,362c0,8.284,6.716,15,15,15
			c19.348,0,350.419,0,362,0c8.284,0,15-6.716,15-15c0-5.169,0-356.618,0-362C452,66.716,445.284,60,437,60z M90,196V90h91v211H90
			V196z M301,422c-4.29,0-206.406,0-211,0v-91h211V422z M301,301h-90v-90h90V301z M422,422h-91c0-4.597,0-206.707,0-211h91V422z
			 M422,181H211V90c4.29,0,206.406,0,211,0V181z"/>
	</g>
</g>
<g>
</g>
<g>
</g>
<g>
</g>
<g>
</g>
<g>
</g>
<g>
</g>
<g>
</g>
<g>
</g>
<g>
</g>
<g>
</g>
<g>
</g>
<g>
</g>
<g>
</g>
<g>
</g>
<g>
</g>
</svg>
