<?xml version="1.0" encoding="iso-8859-1"?>
<!-- Generator: Adobe Illustrator 19.0.0, SVG Export Plug-In . SVG Version: 6.00 Build 0)  -->
<svg version="1.1" id="Capa_1" xmlns="http://www.w3.org/2000/svg" xmlns:xlink="http://www.w3.org/1999/xlink" x="0px" y="0px"
	 viewBox="0 0 512 512" style="enable-background:new 0 0 512 512;" xml:space="preserve">
<g>
	<g>
		<path d="M310.697,180.608c8.291-9.642,15.723-21.328,21.662-34.214c8.817-19.127,13.673-39.155,13.673-56.394
			c0-49.626-40.374-90-90-90c-49.626,0-90,40.374-90,90c0,17.239,4.855,37.267,13.673,56.394
			c5.939,12.887,13.372,24.573,21.662,34.214c-66.059,7.278-97.385,73.834-71.064,126.474l14.022,28.043
			c7.673,15.343,23.096,24.875,40.25,24.875h26.457v63.509c-34.192,6.968-60,37.271-60,73.491c0,8.284,6.716,15,15,15h180
			c8.284,0,15-6.716,15-15c0-36.219-25.808-66.522-60-73.491V360h26.459c17.152,0,32.574-9.53,40.248-24.874l14.022-28.045
			C407.566,255.472,377.895,188.007,310.697,180.608z M328.462,482H183.603c6.19-17.461,22.873-30,42.43-30h60
			C305.589,452,322.271,464.539,328.462,482z M241.032,422v-62h30v62H241.032z M354.93,293.665l-14.021,28.043
			c-2.559,5.115-7.699,8.292-13.417,8.292c-52.894,0-91.734,0-142.916,0c-5.719,0-10.86-3.178-13.418-8.292l-14.022-28.042
			c-8.367-16.736-8.05-36.726,0.851-53.474C167.731,221.851,189.126,210,212.494,210c0.002,0,0.004,0,0.005,0
			c3.342,0,13.53,0.863,21.62-8.234c8.856-9.963,7.656-24.912,0.227-30.764c-22.918-18.054-38.313-56.459-38.313-81.002
			c0-33.084,26.916-60,60-60c33.084,0,60,26.916,60,60c0,24.543-15.396,62.948-38.313,81.002
			c-7.355,5.794-8.661,20.757,0.237,30.763c4.653,5.234,11.338,8.235,18.338,8.235h3.272c23.369-0.001,44.767,11.85,54.513,30.192
			c0,0,0,0,0,0.001C362.979,256.94,363.297,276.93,354.93,293.665z"/>
	</g>
</g>
<g>
</g>
<g>
</g>
<g>
</g>
<g>
</g>
<g>
</g>
<g>
</g>
<g>
</g>
<g>
</g>
<g>
</g>
<g>
</g>
<g>
</g>
<g>
</g>
<g>
</g>
<g>
</g>
<g>
</g>
</svg>
