<?xml version="1.0" encoding="iso-8859-1"?>
<!-- Generator: Adobe Illustrator 17.1.0, SVG Export Plug-In . SVG Version: 6.00 Build 0)  -->
<!DOCTYPE svg PUBLIC "-//W3C//DTD SVG 1.1//EN" "http://www.w3.org/Graphics/SVG/1.1/DTD/svg11.dtd">
<svg version="1.1" id="Capa_1" xmlns="http://www.w3.org/2000/svg" xmlns:xlink="http://www.w3.org/1999/xlink" x="0px" y="0px"
	 viewBox="0 0 470.31 470.31" style="enable-background:new 0 0 470.31 470.31;" xml:space="preserve">
<g>
	<path d="M469.868,409.476l-40.733-137.231c-0.918-3.093-2.252-8.162-2.974-11.299L385.698,85.128
		c-1.113-4.835-5.463-9.776-10.117-11.493l-22.279-8.221c-1.24-0.458-2.547-0.689-3.884-0.689c-4.533,0-8.664,2.617-10.525,6.667
		L257.766,247.85c-1.383,3.008-1.264,6.156,0.326,8.637c1.59,2.48,4.4,3.903,7.711,3.903h69.695c2.967,0,5.727-1.169,7.771-3.292
		c2.046-2.123,3.112-4.925,3.002-7.89l-1.754-47.379l53.292,212.143c1.35,5.37,6.559,9.419,12.115,9.419
		c0.116,0,0.23-0.002,0.346-0.005l50.668-1.553c3.135-0.096,5.917-1.513,7.634-3.889S470.761,412.482,469.868,409.476z"/>
	<path d="M124.039,249.209c-0.11,2.965,0.956,5.767,3.002,7.89c2.045,2.123,4.805,3.292,7.771,3.292h69.695
		c3.311,0,6.121-1.423,7.711-3.903c1.59-2.48,1.709-5.628,0.326-8.638L131.418,71.391c-1.861-4.05-5.992-6.667-10.525-6.667
		c-1.337,0-2.644,0.232-3.883,0.689l-22.28,8.221c-4.654,1.717-9.004,6.658-10.117,11.493L44.149,260.946
		c-0.722,3.137-2.056,8.206-2.973,11.298L0.442,409.475c-0.893,3.006-0.421,6.093,1.296,8.468s4.499,3.793,7.634,3.889l50.667,1.553
		c0.115,0.003,0.231,0.005,0.346,0.005c5.558,0,10.767-4.049,12.117-9.42l53.291-212.142L124.039,249.209z"/>
	<path d="M120.463,298.009l-1.008,9.446c-0.316,2.972,0.619,5.92,2.567,8.087c1.948,2.167,4.779,3.409,7.769,3.409h210.73
		c2.988,0,5.82-1.243,7.768-3.409c1.948-2.167,2.884-5.114,2.567-8.087l-1.008-9.445c-0.623-5.852-5.722-10.436-11.607-10.436
		H132.07C126.184,287.574,121.086,292.158,120.463,298.009z"/>
	<path d="M358.851,379.888c-0.492-3.219-1.172-8.454-1.515-11.671l-1.242-11.647c-0.625-5.851-5.725-10.435-11.608-10.435H125.824
		c-5.884,0-10.983,4.583-11.608,10.436l-1.242,11.647c-0.343,3.216-1.022,8.452-1.515,11.67l-4.899,31.997
		c-0.459,2.998,0.369,5.988,2.271,8.202c1.901,2.215,4.731,3.485,7.764,3.485h237.123c3.032,0,5.862-1.27,7.764-3.485
		c1.901-2.214,2.729-5.204,2.271-8.203L358.851,379.888z"/>
	<path d="M228.106,214.209c2.141,4.658,5.643,5.161,7.049,5.161s4.908-0.503,7.049-5.161l69.837-151.901
		c1.237-2.691,1.308-5.776,0.192-8.464c-1.114-2.688-3.348-4.818-6.129-5.845l-0.513-0.189c-2.399-0.885-4.961-1.071-6.688-1.071
		c-3.026,0-5.934,0.55-8.185,1.55L238.611,71.42c-0.626,0.278-1.862,0.575-3.456,0.575s-2.83-0.297-3.456-0.574l-52.106-23.132
		c-2.251-1-5.158-1.55-8.185-1.55c-1.728,0-4.289,0.186-6.687,1.07L164.203,48c-2.778,1.026-5.012,3.156-6.126,5.844
		c-1.115,2.688-1.045,5.773,0.192,8.464L228.106,214.209z"/>
</g>
<g>
</g>
<g>
</g>
<g>
</g>
<g>
</g>
<g>
</g>
<g>
</g>
<g>
</g>
<g>
</g>
<g>
</g>
<g>
</g>
<g>
</g>
<g>
</g>
<g>
</g>
<g>
</g>
<g>
</g>
</svg>
