<?xml version="1.0" encoding="utf-8"?>
<!-- Generator: Adobe Illustrator 21.0.0, SVG Export Plug-In . SVG Version: 6.00 Build 0)  -->
<svg version="1.1" id="Capa_1" xmlns="http://www.w3.org/2000/svg" xmlns:xlink="http://www.w3.org/1999/xlink" x="0px" y="0px"
	 viewBox="0 0 49.7 49.7" style="enable-background:new 0 0 49.7 49.7;" xml:space="preserve">
<g>
	<path d="M32.5,10.7H17.1c-3.6,0-6.4,2.9-6.4,6.4v15.4c0,3.6,2.9,6.4,6.4,6.4h15.4c3.6,0,6.4-2.9,6.5-6.4V17.1
		C39,13.6,36.1,10.7,32.5,10.7z M24.8,33.7c-4.9,0-8.8-4-8.8-8.8c0-4.9,4-8.8,8.8-8.8c4.9,0,8.8,4,8.9,8.8
		C33.7,29.7,29.7,33.7,24.8,33.7z M35.6,17.2c-0.4,0.4-1,0.6-1.6,0.6c-0.6,0-1.2-0.2-1.6-0.6c-0.4-0.4-0.6-1-0.6-1.6
		c0-0.6,0.2-1.2,0.6-1.6s1-0.6,1.6-0.6c0.6,0,1.2,0.2,1.6,0.6s0.6,1,0.6,1.6C36.3,16.2,36,16.8,35.6,17.2z, M24.8,19c-3.2,0-5.8,2.6-5.8,5.8c0,3.2,2.6,5.8,5.8,5.8c3.2,0,5.8-2.6,5.8-5.8C30.6,21.6,28,19,24.8,19z, M24.8,0C11.1,0,0,11.1,0,24.8c0,13.7,11.1,24.8,24.8,24.8c13.7,0,24.8-11.1,24.8-24.8C49.7,11.1,38.5,0,24.8,0z M42,32.5
		c0,5.2-4.3,9.5-9.5,9.5H17.1c-5.2,0-9.5-4.3-9.5-9.5V17.1c0-5.2,4.2-9.5,9.5-9.5h15.4c5.2,0,9.5,4.2,9.5,9.5V32.5z"/>
</g>
</svg>
