<?xml version="1.0" encoding="utf-8"?>
<!-- Generator: Adobe Illustrator 21.0.0, SVG Export Plug-In . SVG Version: 6.00 Build 0)  -->
<svg version="1.1" id="Capa_1" xmlns="http://www.w3.org/2000/svg" xmlns:xlink="http://www.w3.org/1999/xlink" x="0px" y="0px"
	 viewBox="0 0 508.5 508.5" style="enable-background:new 0 0 508.5 508.5;" xml:space="preserve">
<style type="text/css">
	.st0{fill:#010002;}
</style>
<g>
	<path class="st0" d="M372.9,364.5c-52.3-28.8-111.8-44.1-171.8-44.1c-35.9,0-71.5,5.3-105.5,15.9c-10.6,3.3-16.4,25.6-13.2,36.1
		c3.2,10.6,14.4,16.4,24.9,13.2c30.2-9.4,61.8-14.1,93.7-14.1c53.3,0,106.1,13.5,152.6,39.1c3.1,1.7,6.3,2.4,9.6,2.4
		c7,0,13.8-3.7,17.4-10.3C386.1,393.1,382.5,369.8,372.9,364.5z, M407.6,262.1c-63.3-32.9-134.7-50.3-206.5-50.3c-40,0-79.9,5.3-118.3,15.8c-12.4,3.4-19.7,24.5-16.4,37
		c3.4,12.4,16.1,19.7,28.6,16.3c34.5-9.5,70.2-14.2,106.1-14.2c65.3,0,127.5,15.2,185.1,45.1c3.4,1.9,7,2.6,10.7,2.6
		c8.4,0,16.5-12.9,20.6-20.9C423.5,282,419,268,407.6,262.1z, M444.9,152.7c-76.1-37.9-158.2-57.2-243.8-57.2c-44.6,0-89,5.4-132.1,16.1c-14.3,3.5-23,20.7-19.4,35
		c3.5,14.3,17.9,22.9,32.2,19.4c38.9-9.6,79-14.5,119.3-14.5c77.2,0,151.3,17.3,220,51.6c3.8,1.9,7.9,2.8,11.8,2.8
		c9.8,0,19.2-8.2,23.9-17.5C463.4,175.2,458.1,159.3,444.9,152.7z"/>
</g>
</svg>
