<?xml version="1.0" encoding="utf-8"?>
<!-- Generator: Adobe Illustrator 21.0.0, SVG Export Plug-In . SVG Version: 6.00 Build 0)  -->
<svg version="1.1" id="Capa_1" xmlns="http://www.w3.org/2000/svg" xmlns:xlink="http://www.w3.org/1999/xlink" x="0px" y="0px"
	 viewBox="0 0 430.1 430.1" style="enable-background:new 0 0 430.1 430.1;" xml:space="preserve">
<path d="M215.1,2.1c-117.6,0-213,95.4-213,213s95.4,213,213,213s213-95.4,213-213S332.7,2.1,215.1,2.1z M271.8,353.6
	c-9.9,2.3-20.7,3.4-32.2,3.4c-13.1,0-20.8-1.6-30.9-4.9c-10.1-3.3-18.6-8-25.8-14c-7.1-6.1-12-12.5-14.8-19.4
	C165.4,312,164,302,164,289v-99.6h-38.9v-40.2c11.2-3.6,24.3-8.8,32.3-15.6c8-6.8,14.5-14.9,19.3-24.4c4.9-9.5,8.2-21.6,10-36.2
	h40.8v65.7h66.2v50.7h-66.2v72.8c0,16.5-0.2,26,1.5,30.7c1.7,4.7,6.1,9.5,10.9,12.3c6.4,3.8,13.6,5.6,21.7,5.6
	c14.5,0,28.9-4.7,43.3-14v44.8h0.1C292.8,347.3,281.7,351.3,271.8,353.6z"/>
</svg>
