<?xml version="1.0" encoding="utf-8"?>
<!-- Generator: Adobe Illustrator 21.0.0, SVG Export Plug-In . SVG Version: 6.00 Build 0)  -->
<svg version="1.1" id="Capa_1" xmlns="http://www.w3.org/2000/svg" xmlns:xlink="http://www.w3.org/1999/xlink" x="0px" y="0px"
	 viewBox="0 0 49.7 49.7" style="enable-background:new 0 0 49.7 49.7;" xml:space="preserve">
<path d="M41.1,16.5c0,0.4,0,0.7,0,1.1c0,11.1-8.5,24-24,24c-4.8,0-9.2-1.4-12.9-3.8c0.7,0.1,1.3,0.1,2,0.1c3.9,0,7.6-1.3,10.5-3.6
	c-3.7-0.1-6.8-2.5-7.9-5.8c0.5,0.1,1,0.2,1.6,0.2c0.8,0,1.5-0.1,2.2-0.3C8.9,27.5,6,24.1,6,20c0,0,0-0.1,0-0.1
	c1.1,0.6,2.4,1,3.8,1.1c-2.3-1.5-3.7-4.1-3.7-7c0-1.5,0.4-3,1.1-4.2c4.2,5.1,10.4,8.4,17.4,8.8c-0.1-0.6-0.2-1.3-0.2-1.9
	c0-4.6,3.8-8.4,8.4-8.4c2.4,0,4.6,1,6.1,2.7c1.9-0.4,3.7-1.1,5.3-2c-0.6,2-2,3.6-3.7,4.7c1.7-0.2,3.3-0.7,4.8-1.3
	C44.2,13.8,42.8,15.3,41.1,16.5z"/>
</svg>
