<?xml version="1.0" encoding="iso-8859-1"?>
<!-- Generator: Adobe Illustrator 16.0.0, SVG Export Plug-In . SVG Version: 6.00 Build 0)  -->
<!DOCTYPE svg PUBLIC "-//W3C//DTD SVG 1.1//EN" "http://www.w3.org/Graphics/SVG/1.1/DTD/svg11.dtd">
<svg version="1.1" id="Capa_1" xmlns="http://www.w3.org/2000/svg" xmlns:xlink="http://www.w3.org/1999/xlink" x="0px" y="0px"
	 width="69.787px" height="69.787px" viewBox="0 0 69.787 69.787" style="enable-background:new 0 0 69.787 69.787;"
	 xml:space="preserve">
	<g id="Page-1_8_">
		<path id="Fill-30" d="M58.192,68.076c-0.429,0.43-0.991,0.644-1.553,0.644
			c-0.562,0-1.124-0.214-1.554-0.644l-6.783-6.783c-0.207-0.208-0.371-0.455-0.482-0.728l-3.408-8.394
			c-0.064-0.006-0.129-0.004-0.195-0.012c-0.644-0.071-1.236-0.282-1.76-0.595l-6.3,6.401l1.225,9.339
			c0.157,1.202-0.689,2.305-1.892,2.463c-0.097,0.013-0.193,0.019-0.288,0.019c-1.086,0-2.03-0.805-2.175-1.91l-1.364-10.401
			c-0.088-0.671,0.138-1.345,0.612-1.827l8.054-8.181c0.004-0.054,0.004-0.106,0.01-0.159l1.992-17.869h-8.491
			c-0.331,0-0.658-0.075-0.956-0.219l-8.998-4.355c-1.075-0.521-1.53-1.801-1.039-2.882L11.309,3.588
			c-0.715-1.139-0.317-2.647,0.868-3.284l0.045-0.025c1.185-0.638,2.662-0.14,3.22,1.084l8.842,19.412
			c0.49-0.129,1.024-0.101,1.515,0.137l8.545,4.136c0,0,12.141,0.011,12.187,0.014c0.232-0.012,0.467-0.01,0.706,0.016
			c2.411,0.269,4.146,2.441,3.878,4.852l-2.046,18.352c-0.081,0.721-0.332,1.378-0.707,1.942l3.361,8.278l6.469,6.469
			C59.048,65.828,59.048,67.219,58.192,68.076L58.192,68.076z M47.374,21.927c3.45,0,6.246-2.796,6.246-6.246
			s-2.796-6.247-6.246-6.247s-6.247,2.797-6.247,6.247S43.923,21.927,47.374,21.927L47.374,21.927z M24.843,7.64
			c1.454,0,2.634-1.179,2.634-2.634s-1.18-2.634-2.634-2.634c-1.455,0-2.635,1.179-2.635,2.634S23.388,7.64,24.843,7.64L24.843,7.64
			z"/>
	</g>
</svg>
