<?xml version="1.0" encoding="iso-8859-1"?>
<!-- Generator: Adobe Illustrator 16.0.0, SVG Export Plug-In . SVG Version: 6.00 Build 0)  -->
<!DOCTYPE svg PUBLIC "-//W3C//DTD SVG 1.1//EN" "http://www.w3.org/Graphics/SVG/1.1/DTD/svg11.dtd">
<svg version="1.1" id="Capa_1" xmlns="http://www.w3.org/2000/svg" xmlns:xlink="http://www.w3.org/1999/xlink" x="0px" y="0px"
	 width="75.328px" height="75.328px" viewBox="0 0 75.328 75.328" style="enable-background:new 0 0 75.328 75.328;"
	 xml:space="preserve">

	<g id="Page-1_6_">
		<path id="Fill-22" d="M56.338,54.072c-0.902,2.213-3.035,3.553-5.287,3.553
			c-0.719,0-1.449-0.136-2.156-0.424c-13.472-5.498-23.599-13.658-30.099-24.253c-1.649-2.688-0.807-6.204,1.881-7.853
			c0.813-0.498,1.702-0.765,2.593-0.826c0.399-0.102,0.819-0.148,1.254-0.103l15.699,1.651l10.059-6.539
			c1.652-1.074,3.861-0.605,4.936,1.048c1.074,1.651,0.605,3.862-1.047,4.936L43.051,32.49c-0.58,0.377-1.257,0.576-1.945,0.576
			c-0.123,0-0.248-0.006-0.373-0.019l-8.453-0.889c4.338,5.147,9.966,9.361,17.033,12.744V30.974l6.024-3.917
			c0.417-0.271,0.785-0.593,1.111-0.951v23.96C56.88,51.328,56.881,52.742,56.338,54.072L56.338,54.072z M22.289,16.198
			c0-4.306-3.491-7.796-7.797-7.796c-4.305,0-7.796,3.49-7.796,7.796c0,4.306,3.491,7.796,7.796,7.796
			C18.798,23.994,22.289,20.504,22.289,16.198L22.289,16.198z M56.448,18.439V15.16c0-1.971-1.599-3.569-3.568-3.569
			c-1.971,0-3.567,1.598-3.567,3.569v2.214c0.883-0.526,1.881-0.814,2.91-0.814C53.855,16.56,55.375,17.254,56.448,18.439
			L56.448,18.439z M64.799,66.926c-3.205,0-4.537-1.167-5.609-2.105c-0.873-0.766-1.504-1.317-3.437-1.317
			c-1.93,0-2.562,0.552-3.435,1.317c-1.072,0.938-2.406,2.105-5.61,2.105c-3.203,0-4.537-1.167-5.608-2.105
			c-0.875-0.766-1.506-1.317-3.437-1.317c-1.93,0-2.561,0.552-3.435,1.317c-1.072,0.938-2.406,2.105-5.61,2.105
			c-3.203,0-4.537-1.167-5.609-2.105c-0.874-0.766-1.505-1.317-3.435-1.317c-1.931,0-2.562,0.552-3.436,1.317
			c-1.072,0.938-2.406,2.105-5.609,2.105c-3.204,0-4.538-1.167-5.61-2.105c-0.874-0.766-1.505-1.317-3.435-1.317
			C0.665,63.503,0,62.839,0,62.02s0.665-1.483,1.484-1.483c3.045,0,4.345,1.137,5.39,2.053c0.908,0.796,1.565,1.371,3.655,1.371
			c2.089,0,2.746-0.575,3.655-1.371c1.044-0.916,2.344-2.053,5.39-2.053c3.045,0,4.345,1.137,5.39,2.053
			c0.908,0.796,1.565,1.371,3.654,1.371c2.09,0,2.747-0.575,3.655-1.371c1.045-0.916,2.345-2.053,5.39-2.053
			c3.046,0,4.347,1.137,5.392,2.053c0.907,0.796,1.564,1.371,3.653,1.371c2.09,0,2.747-0.575,3.655-1.371
			c1.045-0.916,2.345-2.053,5.39-2.053c3.048,0,4.347,1.137,5.392,2.053c0.908,0.796,1.565,1.371,3.654,1.371
			c2.09,0,2.746-0.575,3.655-1.371c1.044-0.914,2.344-2.053,5.39-2.053c0.819,0,1.484,0.664,1.484,1.483s-0.665,1.483-1.484,1.483
			c-1.931,0-2.562,0.553-3.436,1.317C69.337,65.759,68.003,66.926,64.799,66.926L64.799,66.926z"/>
	</g>

</svg>
