<?xml version="1.0" encoding="iso-8859-1"?>
<!-- Generator: Adobe Illustrator 16.0.0, SVG Export Plug-In . SVG Version: 6.00 Build 0)  -->
<!DOCTYPE svg PUBLIC "-//W3C//DTD SVG 1.1//EN" "http://www.w3.org/Graphics/SVG/1.1/DTD/svg11.dtd">
<svg version="1.1" id="Capa_1" xmlns="http://www.w3.org/2000/svg" xmlns:xlink="http://www.w3.org/1999/xlink" x="0px" y="0px"
	 width="71.49px" height="71.491px" viewBox="0 0 71.49 71.491" style="enable-background:new 0 0 71.49 71.491;"
	 xml:space="preserve">

	<g id="Page-1_14_">
		<path id="Fill-2" d="M51.473,47.334L31.94,34.146l-7.43,10.938h8.287c1.706,0,3.089,1.383,3.089,3.089
			v10.392c0,1.705-1.383,3.088-3.089,3.088s-3.088-1.383-3.088-3.088v-7.304h-9.395l-1.736,2.556
			c-2.095,3.021-5.512,4.809-9.156,4.809H3.088C1.382,58.625,0,57.243,0,55.538c0-1.706,1.382-3.09,3.088-3.09h6.334
			c1.62,0,3.14-0.795,4.064-2.127l15.075-22.192c0.957-1.408,2.872-1.775,4.283-0.824L54.93,42.215
			c1.413,0.954,1.786,2.874,0.831,4.287C54.806,47.917,52.887,48.288,51.473,47.334L51.473,47.334z M37.177,24.053
			c4.009,0,7.259-3.25,7.259-7.259s-3.25-7.259-7.259-7.259s-7.259,3.25-7.259,7.259S33.168,24.053,37.177,24.053L37.177,24.053z
			 M66.359,51.45v-2.168c0-1.168-0.951-2.118-2.119-2.118h-3.769c-0.465,0-0.842,0.377-0.842,0.842s0.377,0.843,0.842,0.843h3.769
			c0.24,0,0.434,0.194,0.434,0.434v2.162h-6.217c-2.903,0-5.256,2.353-5.256,5.256c0,2.902,2.353,5.255,5.256,5.255h7.777
			c2.903,0,5.256-2.353,5.256-5.255C71.49,53.838,69.204,51.516,66.359,51.45L66.359,51.45z"/>
	</g>
</svg>
