<?xml version="1.0" encoding="iso-8859-1"?>
<!-- Generator: Adobe Illustrator 16.0.0, SVG Export Plug-In . SVG Version: 6.00 Build 0)  -->
<!DOCTYPE svg PUBLIC "-//W3C//DTD SVG 1.1//EN" "http://www.w3.org/Graphics/SVG/1.1/DTD/svg11.dtd">
<svg version="1.1" id="Capa_1" xmlns="http://www.w3.org/2000/svg" xmlns:xlink="http://www.w3.org/1999/xlink" x="0px" y="0px"
	 width="611.607px" height="611.608px" viewBox="0 0 611.607 611.608" style="enable-background:new 0 0 611.607 611.608;"
	 xml:space="preserve">
<g>
	<path id="Fill-15" d="M174.484,103.864c0-28.144,22.815-50.959,50.959-50.959
		c28.144,0,50.951,22.815,50.951,50.959c0,28.144-22.807,50.959-50.951,50.959C197.3,154.823,174.484,132.008,174.484,103.864
		L174.484,103.864z M274.665,470.607c3.484,3.419,8.013,5.116,12.534,5.116c1.95,0,3.893-0.392,5.761-1.028l3.737-1.746
		c1.167-0.734,2.293-1.566,3.305-2.603c6.919-7.059,6.797-18.418-0.27-25.329l-52.869-51.775c-1.371-1.338-2.946-2.456-4.659-3.288
		l-58.523-28.69l50.029-131.409l52.738,33.464l25.149-26.471c0,0-48.625-30.91-71.49-45.37
		c-20.457-12.933-43.705-15.104-58.36-13.04s-66.847,18.67-66.847,18.67c-3.117,0.874-5.94,2.571-8.176,4.913l-47.148,49.629
		c-6.813,7.173-6.52,18.515,0.653,25.329c3.468,3.289,7.899,4.929,12.338,4.929c4.733,0,9.465-1.869,12.991-5.581l43.737-46.039
		l30.853-8.617l-47.654,125.15c-2.905,7.654-2.986,15.675-0.816,22.954l-27.973,56.067l-73.375,34.32
		c-8.96,4.194-12.828,14.852-8.642,23.812c3.052,6.503,9.506,10.339,16.247,10.339c2.538,0,5.125-0.547,7.573-1.689l79.021-36.957
		c3.664-1.713,6.643-4.61,8.446-8.225l26.283-52.673c2.244,0.44,4.488,0.652,6.716,0.652c6.006,0,11.824-1.591,17.005-4.39
		l60.874,29.824L274.665,470.607L274.665,470.607z M602.199,286.297c0,0-95.35-60.294-105.836-67.067
		c-18.841-12.183-48.119-19.266-68.177-17.422c-12.224,1.118-78.099,20.751-78.099,20.751c-3.525,0.987-6.725,2.905-9.237,5.565
		l-53.334,56.124c-7.703,8.111-7.376,20.938,0.734,28.642c3.925,3.729,8.943,5.582,13.954,5.582c5.361,0,10.714-2.105,14.696-6.308
		l49.475-52.069l34.892-9.743l-53.889,141.552c-3.296,8.649-3.395,17.724-0.938,25.965l-31.636,63.403l-82.971,38.809
		c-10.135,4.75-14.517,16.802-9.775,26.944c3.443,7.353,10.747,11.678,18.368,11.678c2.872,0,5.793-0.604,8.568-1.91l89.377-41.787
		c4.145-1.934,7.507-5.223,9.547-9.311l29.735-59.576c2.537,0.498,5.066,0.742,7.597,0.742c6.781,0,13.366-1.803,19.225-4.961
		l68.854,33.733l57.471,56.279c3.934,3.86,9.05,5.786,14.166,5.786c5.263,0,10.518-2.04,14.476-6.088
		c7.834-7.988,7.687-20.824-0.294-28.657l-59.796-58.557c-1.543-1.518-3.33-2.774-5.264-3.721l-66.202-32.444l56.598-148.61
		l96.003,60.922c3.361,2.138,7.123,3.158,10.836,3.158c6.699,0,13.269-3.329,17.128-9.409
		C614.447,304.812,611.648,292.294,602.199,286.297L602.199,286.297z M475.131,174.717c31.824,0,57.635-25.802,57.635-57.634
		s-25.802-57.634-57.635-57.634c-31.832,0-57.634,25.802-57.634,57.634S443.299,174.717,475.131,174.717L475.131,174.717z"/>
</g>
</svg>
