<?xml version="1.0" encoding="iso-8859-1"?>
<!-- Generator: Adobe Illustrator 16.0.0, SVG Export Plug-In . SVG Version: 6.00 Build 0)  -->
<!DOCTYPE svg PUBLIC "-//W3C//DTD SVG 1.1//EN" "http://www.w3.org/Graphics/SVG/1.1/DTD/svg11.dtd">
<svg version="1.1" id="Capa_1" xmlns="http://www.w3.org/2000/svg" xmlns:xlink="http://www.w3.org/1999/xlink" x="0px" y="0px"
	 width="609.681px" height="609.681px" viewBox="0 0 609.681 609.681" style="enable-background:new 0 0 609.681 609.681;"
	 xml:space="preserve">
<g>
	<path id="Fill-6" d="M350.62,482.167c-7.637,0-15.239-3.077-20.799-9.163l-39.099-42.685
		c-10.516-11.481-9.741-29.324,1.75-39.841c11.49-10.524,29.324-9.74,39.849,1.75l39.091,42.693
		c10.516,11.481,9.74,29.324-1.75,39.841C364.248,479.718,357.421,482.167,350.62,482.167L350.62,482.167z M594.973,595.231
		l3.387-4.706c15.731-21.877,14.999-51.874-1.767-72.957L419.078,294.446c-4.853-6.094-13.723-7.094-19.816-2.258
		c-6.095,4.853-7.103,13.722-2.259,19.808l177.515,223.121c8.956,11.249,9.344,27.265,0.948,38.944l-3.388,4.706
		c-4.543,6.318-3.104,15.137,3.215,19.679c2.491,1.793,5.37,2.655,8.215,2.655C587.896,601.101,592.214,599.067,594.973,595.231
		L594.973,595.231z M311.927,305.591c-5.025-5.939-13.938-6.672-19.877-1.646c-5.939,5.043-6.68,13.93-1.646,19.877l105.359,124.356
		c3.663-4.008,7.077-8.067,9.947-11.886c-0.043-5.629,1.095-11.137,3.172-16.266L311.927,305.591L311.927,305.591z M495.061,521.756
		c-3.508,0.932-7.085,1.561-10.739,1.561c-12.835,0-24.816-5.715-32.885-15.688l-2.37-2.922c-0.923,0.975-1.888,1.982-2.879,3
		l28.522,33.669c9.292,10.964,10.171,26.953,2.146,38.883l-3.241,4.811c-4.354,6.456-2.646,15.213,3.81,19.566
		c2.423,1.629,5.155,2.404,7.87,2.404c4.525,0,8.981-2.181,11.697-6.223l3.249-4.811c15.042-22.351,13.404-52.304-4.008-72.862
		L495.061,521.756L495.061,521.756z M111.604,133.645C70.074,79.487,48.31,20.115,47.913,19.029
		C43.336,6.194,29.208-0.495,16.408,4.082C3.564,8.65-3.133,22.761,1.436,35.596c1.991,5.603,31.583,86.542,90.731,151.923
		C92.701,167.219,99.864,148.583,111.604,133.645L111.604,133.645z M232.539,268.94c6.18,0.853,12.429,1.508,18.868,1.741
		c4.5,0.173,8.921,0.242,13.309,0.242c162.671,0,251.98-110.772,255.798-115.625c8.413-10.671,6.595-26.118-4.06-34.574
		c-10.646-8.447-26.161-6.654-34.643,3.965c-3.207,4.008-77.448,94.946-212.761,96.826c-12.886,34.85-46.365,59.812-85.637,59.812
		c-0.121,0-0.224-0.017-0.345-0.017c-0.526,62.803,1.517,114.185,50.744,178.721c29.04,38.056,68.217,79.913,120.271,79.913
		c6.266,0,12.723-0.604,19.359-1.896c27.359-5.326,56.641-31.521,76.078-55.183l12.86,15.895
		c5.577,6.878,13.723,10.456,21.937,10.456c6.241,0,12.508-2.061,17.731-6.284c12.102-9.801,13.973-27.558,4.172-39.659
		l-36.418-44.995c-9.818-12.11-27.575-13.955-39.668-4.181c-8.095,6.56-11.49,16.653-10.008,26.256
		c-11.06,16.239-39.452,46.012-56.105,49.253c-19.636,3.81-45.788-0.275-90.973-59.511c-41.625-54.562-41.194-95.963-40.53-158.62
		C232.53,270.647,232.539,269.776,232.539,268.94L232.539,268.94z M183.406,112.682c-42.667,0-77.267,34.6-77.267,77.275
		c0,42.676,34.6,77.268,77.267,77.268c42.676,0,77.276-34.591,77.276-77.268C260.682,147.282,226.083,112.682,183.406,112.682
		L183.406,112.682z M183.406,112.682c-42.667,0-77.267,34.6-77.267,77.275c0,42.676,34.6,77.268,77.267,77.268
		c42.676,0,77.276-34.591,77.276-77.268C260.682,147.282,226.083,112.682,183.406,112.682L183.406,112.682z"/>
</g>
</svg>
