<?xml version="1.0" encoding="iso-8859-1"?>
<!-- Generator: Adobe Illustrator 16.0.0, SVG Export Plug-In . SVG Version: 6.00 Build 0)  -->
<!DOCTYPE svg PUBLIC "-//W3C//DTD SVG 1.1//EN" "http://www.w3.org/Graphics/SVG/1.1/DTD/svg11.dtd">
<svg version="1.1" id="Capa_1" xmlns="http://www.w3.org/2000/svg" xmlns:xlink="http://www.w3.org/1999/xlink" x="0px" y="0px"
	 width="69.231px" height="69.231px" viewBox="0 0 69.231 69.231" style="enable-background:new 0 0 69.231 69.231;"
	 xml:space="preserve">
	<g id="Page-1_10_">
		<path id="Fill-5" d="M52.532,7.371C52.532,3.3,55.833,0,59.904,0s7.371,3.3,7.371,7.371
			c0,4.071-3.3,7.372-7.371,7.372S52.532,11.442,52.532,7.371L52.532,7.371z M21.566,25.353c0.057-0.042,5.702-4.272,12.041-7.487
			c0.833-0.422,1.635-0.802,2.413-1.149c-9.906,7.285-15.206,17.255-17.161,31.766c-0.358,2.658,1.507,5.104,4.165,5.463
			c0.22,0.029,0.439,0.044,0.655,0.044c2.394,0,4.48-1.771,4.808-4.209c2.003-14.871,7.665-23.175,20.024-29.285
			c-1.586,3.032-5.843,5.76-7.573,6.655c-1.084,0.558-1.511,1.889-0.953,2.973c0.392,0.762,1.164,1.199,1.964,1.199
			c0.34,0,0.687-0.079,1.009-0.246c0.923-0.474,9.046-4.813,10.389-11.026c0.533-2.469-0.088-4.921-1.79-7.095
			c-0.455-0.707-1.071-1.262-1.776-1.642c-3.729-2.487-9.816-1.622-18.171,2.613c-6.682,3.39-12.455,7.716-12.698,7.899
			c-0.974,0.733-1.17,2.117-0.436,3.091C19.207,25.891,20.591,26.087,21.566,25.353L21.566,25.353z M59.335,37.932l0.25-2.043
			c0.089-0.726-0.429-1.387-1.154-1.477c-0.733-0.078-1.387,0.429-1.478,1.154l-0.25,2.044c-0.144,1.185-0.87,2.206-1.939,2.733
			L2.695,66.016c-0.656,0.324-0.926,1.117-0.602,1.773c0.231,0.469,0.701,0.74,1.189,0.74c0.197,0,0.397-0.044,0.585-0.137
			l52.067-25.672C57.81,41.797,59.08,40.006,59.335,37.932L59.335,37.932z M64.787,37.242c-0.723-0.078-1.387,0.428-1.476,1.154
			l-0.234,1.904c-0.131,1.076-0.789,2.004-1.76,2.481L12.766,66.719c-0.656,0.323-0.926,1.117-0.602,1.773
			c0.231,0.469,0.701,0.739,1.189,0.739c0.197,0,0.397-0.044,0.585-0.136l48.55-23.937c1.775-0.875,2.979-2.571,3.22-4.535
			l0.233-1.905C66.03,37.992,65.514,37.332,64.787,37.242L64.787,37.242z"/>
	</g>

</svg>
