<?xml version="1.0" encoding="iso-8859-1"?>
<!-- Generator: Adobe Illustrator 16.0.0, SVG Export Plug-In . SVG Version: 6.00 Build 0)  -->
<!DOCTYPE svg PUBLIC "-//W3C//DTD SVG 1.1//EN" "http://www.w3.org/Graphics/SVG/1.1/DTD/svg11.dtd">
<svg version="1.1" id="Capa_1" xmlns="http://www.w3.org/2000/svg" xmlns:xlink="http://www.w3.org/1999/xlink" x="0px" y="0px"
	 width="75.534px" height="75.534px" viewBox="0 0 75.534 75.534" style="enable-background:new 0 0 75.534 75.534;"
	 xml:space="preserve">

	<g id="Page-1_1_">
		<path id="Fill-12" d="M37.327,13.959c0-3.822,3.099-6.921,6.921-6.921s6.921,3.099,6.921,6.921
			c0,3.822-3.099,6.921-6.921,6.921S37.327,17.781,37.327,13.959L37.327,13.959z M58.393,21.494l-9.299,4.75l-10.729-4.133
			c-0.262-0.101-0.53-0.144-0.796-0.152c-0.326-0.051-0.655-0.067-0.981-0.051c-0.176-0.012-0.356-0.009-0.538,0.019L17.423,24.83
			c-1.328,0.207-2.236,1.451-2.029,2.779c0.187,1.2,1.222,2.059,2.401,2.059c0.124,0,0.25-0.011,0.377-0.03l12.337-1.923
			l-7.397,11.959c-0.237,0.385-0.41,0.789-0.53,1.201L13.195,49.6H2.433C1.089,49.6,0,50.689,0,52.033
			c0,1.343,1.089,2.433,2.433,2.433h11.718c0.615,0,1.206-0.232,1.657-0.65l8.388-7.797c0.157,0.126,0.319,0.246,0.495,0.355
			c0.254,0.157,0.52,0.278,0.789,0.385l2.066,9.584l-1.77,9.263c-0.253,1.319,0.613,2.594,1.933,2.847
			c0.154,0.03,0.308,0.044,0.459,0.044c1.144,0,2.164-0.812,2.387-1.977l1.864-9.748c0.061-0.321,0.058-0.65-0.011-0.97l-2.11-9.784
			c0.418-0.337,0.792-0.74,1.091-1.224l9.567-15.467c0.168-0.272,0.304-0.555,0.414-0.844l6.989,2.692
			c0.281,0.109,0.578,0.163,0.875,0.163c0.379,0,0.76-0.089,1.106-0.266l10.265-5.244c1.197-0.611,1.672-2.077,1.061-3.274
			C61.055,21.358,59.591,20.883,58.393,21.494L58.393,21.494z M69.29,12.493c-3.449,0-6.244,2.795-6.244,6.244
			c0,3.448,2.795,6.244,6.244,6.244c3.448,0,6.244-2.796,6.244-6.244C75.534,15.288,72.738,12.493,69.29,12.493L69.29,12.493z"/>
	</g>

</svg>
