<?xml version="1.0" encoding="iso-8859-1"?>
<!-- Generator: Adobe Illustrator 16.0.0, SVG Export Plug-In . SVG Version: 6.00 Build 0)  -->
<!DOCTYPE svg PUBLIC "-//W3C//DTD SVG 1.1//EN" "http://www.w3.org/Graphics/SVG/1.1/DTD/svg11.dtd">
<svg version="1.1" id="Capa_1" xmlns="http://www.w3.org/2000/svg" xmlns:xlink="http://www.w3.org/1999/xlink" x="0px" y="0px"
	 width="777.73px" height="777.73px" viewBox="0 0 777.73 777.73" style="enable-background:new 0 0 777.73 777.73;"
	 xml:space="preserve">
<g>
	<path id="Fill-23" d="M522.882,777.489c-1.238,0.184-2.49,0.241-3.707,0.241
		c-13.189,0-24.701-9.734-26.549-23.163l-23.922-172.68c-2.57,0.379-5.176,0.644-7.838,0.644c-4.064,0-8.035-0.494-11.857-1.366
		l-97.921,182.424c-4.844,9.022-14.107,14.142-23.68,14.142c-4.282,0-8.632-1.011-12.672-3.18
		c-13.062-7.014-17.975-23.289-10.961-36.352l105.165-195.911c-1.113-4.305-1.768-8.792-1.768-13.452
		c0-28.248-9.791-70.087-26.183-111.937c-16.701-42.584-32.988-67.01-39.714-74.081l-40.025,64.543l66.092,56.967
		c11.226,9.688,12.488,26.641,2.801,37.866c-5.303,6.164-12.81,9.332-20.351,9.332c-6.209,0-12.442-2.135-17.516-6.508
		l-83.47-71.946c-10.009-8.632-12.259-23.255-5.292-34.492c0,0,66.781-98.266,76.089-111.018
		c10.778-14.772,50.998-40.587,61.604-52.915c15.955-18.549,29.971-76.468,29.971-76.468l-72.153-117.25
		c-7.771-12.638-3.833-29.178,8.792-36.937c12.638-7.782,29.166-3.834,36.937,8.781l78.535,127.615
		c4.051,6.588,5.049,14.612,2.789,21.992l-36.789,119.179c42.412,55.44,82.299,163.313,85.111,238.943l31.393,226.696
		C547.837,761.913,537.597,775.457,522.882,777.489L522.882,777.489z M308.055,244.805c42.183,0,76.376-34.193,76.376-76.376
		c0-42.171-34.194-76.365-76.376-76.365s-76.376,34.194-76.376,76.365C231.679,210.612,265.873,244.805,308.055,244.805
		L308.055,244.805z"/>
</g>
</svg>
