<?xml version="1.0" encoding="iso-8859-1"?>
<!-- Generator: Adobe Illustrator 16.0.0, SVG Export Plug-In . SVG Version: 6.00 Build 0)  -->
<!DOCTYPE svg PUBLIC "-//W3C//DTD SVG 1.1//EN" "http://www.w3.org/Graphics/SVG/1.1/DTD/svg11.dtd">
<svg version="1.1" id="Capa_1" xmlns="http://www.w3.org/2000/svg" xmlns:xlink="http://www.w3.org/1999/xlink" x="0px" y="0px"
	 width="665.8px" height="665.801px" viewBox="0 0 665.8 665.801" style="enable-background:new 0 0 665.8 665.801;"
	 xml:space="preserve">
<g>
	<path id="Fill-13" d="M599.145,308.745c-3.348,9.143-12.008,14.809-21.206,14.809
		c-2.588,0-5.221-0.445-7.799-1.391l-106.433-39.075l-19.11,171.305l94.888,36.858c5.795,2.254,10.413,6.788,12.75,12.565
		l34.457,84.845c4.711,11.572-0.872,24.749-12.435,29.441c-2.782,1.131-5.656,1.678-8.494,1.678c-8.92,0-17.377-5.322-20.947-14.104
		l-30.785-75.823l-91.002-35.348c-7.029,4.442-15.301,6.992-24.072,6.992c-0.084,0-0.167-0.019-0.251-0.019l-23.145,73.635
		c-1.215,3.829-3.412,7.279-6.398,9.978l-82.741,74.868c-4.33,3.913-9.755,5.842-15.161,5.842c-6.157,0-12.305-2.514-16.756-7.438
		c-8.383-9.254-7.668-23.543,1.595-31.916l78.188-70.751l24.628-78.346c-4.08-7.733-5.98-16.719-4.924-26.065l20.938-187.838
		l-97.411-9.523c-7.427-0.732-14.029-5.082-17.618-11.637l-27.16-49.563c-34.318,15.819-66.467,30.34-94.072,42.748
		c-27.818,12.509-51,22.94-67.227,30.238c-16.265,7.224-25.556,11.35-25.556,11.35c-5.332,2.374-11.582-0.027-13.956-5.369
		c-2.355-5.304,0.009-11.507,5.267-13.909c0,0,9.245-4.229,25.426-11.628c16.218-7.326,39.381-17.794,67.181-30.35
		c27.178-12.287,58.826-26.52,92.829-41.514l-3.292-6.018c-6-10.942-1.984-24.675,8.958-30.674
		c10.951-5.99,24.684-1.984,30.683,8.958l5.128,9.356c22.987-10.181,46.494-20.595,70.074-31.045
		c3.756-1.669,7.511-3.311,11.276-4.97c-0.148,1.947-0.297,3.904-0.297,5.888c0,5.044,0.519,9.95,1.399,14.734
		c-1.483,0.677-2.939,1.363-4.423,2.031c-22.941,10.524-45.826,21.012-68.22,31.286l19.872,36.256l88.508,8.661
		c16.636,1.243,67.496,10.812,86.209,17.952l117.198,43.025C597.439,284.042,603.457,297.024,599.145,308.745L599.145,308.745z
		 M606.981,6.343c-8.401,3.014-18.185,7.631-29.571,12.49c-11.377,4.942-24.174,10.524-38.166,16.617
		c-18.806,8.178-39.762,17.303-62.091,27.021c4.368,3.496,8.374,7.4,11.935,11.711c20.011-9.337,38.824-18.109,55.868-26.065
		c13.825-6.444,26.492-12.351,37.722-17.59c11.191-5.323,21.113-9.588,28.939-13.891C627.269,8.077,634.781,0,634.781,0
		S623.764,0.278,606.981,6.343L606.981,6.343z M426.394,190.072c35.506,0,64.288-28.782,64.288-64.288S461.9,61.497,426.394,61.497
		c-35.505,0-64.287,28.783-64.287,64.288S390.889,190.072,426.394,190.072L426.394,190.072z"/>
</g>
</svg>
