<?xml version="1.0" encoding="iso-8859-1"?>
<!-- Generator: Adobe Illustrator 16.0.0, SVG Export Plug-In . SVG Version: 6.00 Build 0)  -->
<!DOCTYPE svg PUBLIC "-//W3C//DTD SVG 1.1//EN" "http://www.w3.org/Graphics/SVG/1.1/DTD/svg11.dtd">
<svg version="1.1" id="Capa_1" xmlns="http://www.w3.org/2000/svg" xmlns:xlink="http://www.w3.org/1999/xlink" x="0px" y="0px"
	 width="606.58px" height="606.58px" viewBox="0 0 606.58 606.58" style="enable-background:new 0 0 606.58 606.58;"
	 xml:space="preserve">
<g>
	<path id="Fill-21" d="M566.961,427.084c7.039-6.16,12.127-10.605,27.686-10.605
		c6.588,0,11.934-5.348,11.934-11.943c0-6.594-5.346-11.949-11.934-11.949c-24.537,0-35.004,9.172-43.412,16.531
		c-7.328,6.41-12.609,11.041-29.424,11.041c-16.838,0-22.113-4.631-29.441-11.057c-8.414-7.359-18.875-16.516-43.41-16.516
		c-24.529,0-34.99,9.156-43.404,16.516c-7.32,6.426-12.611,11.057-29.432,11.057c-16.83,0-22.113-4.631-29.426-11.057
		c-8.414-7.359-18.883-16.516-43.411-16.516s-34.989,9.156-43.404,16.516c-7.32,6.426-12.602,11.057-29.432,11.057
		s-22.112-4.631-29.432-11.057c-8.415-7.359-18.875-16.516-43.404-16.516c-24.521,0-34.989,9.156-43.404,16.516
		c-7.32,6.426-12.603,11.057-29.432,11.057c-16.83,0-22.113-4.631-29.433-11.057c-8.415-7.367-18.875-16.516-43.404-16.516
		C5.347,392.586,0,397.934,0,404.527c0,6.596,5.347,11.943,11.942,11.943c15.542,0,20.631,4.443,27.669,10.605
		c8.632,7.553,19.367,16.949,45.167,16.949c25.801,0,36.535-9.396,45.167-16.949c7.038-6.17,12.127-10.605,27.669-10.605
		s20.631,4.443,27.669,10.605c8.632,7.553,19.366,16.949,45.167,16.949s36.535-9.396,45.167-16.949
		c7.038-6.17,12.127-10.605,27.669-10.605c15.542,0,20.64,4.443,27.669,10.605c8.625,7.553,19.367,16.949,45.168,16.949
		s36.533-9.396,45.166-16.949c7.031-6.17,12.127-10.605,27.67-10.605c15.557,0,20.639,4.443,27.684,10.605
		c8.617,7.553,19.359,16.949,45.168,16.949C547.604,444.033,558.338,434.637,566.961,427.084L566.961,427.084z M566.961,427.084
		c7.039-6.16,12.127-10.605,27.686-10.605c6.588,0,11.934-5.348,11.934-11.943c0-6.594-5.346-11.949-11.934-11.949
		c-24.537,0-35.004,9.172-43.412,16.531c-7.328,6.41-12.609,11.041-29.424,11.041c-16.838,0-22.113-4.631-29.441-11.057
		c-8.414-7.359-18.875-16.516-43.41-16.516c-24.529,0-34.99,9.156-43.404,16.516c-7.32,6.426-12.611,11.057-29.432,11.057
		c-16.83,0-22.113-4.631-29.426-11.057c-8.414-7.359-18.883-16.516-43.411-16.516s-34.989,9.156-43.404,16.516
		c-7.32,6.426-12.602,11.057-29.432,11.057s-22.112-4.631-29.432-11.057c-8.415-7.359-18.875-16.516-43.404-16.516
		c-24.521,0-34.989,9.156-43.404,16.516c-7.32,6.426-12.603,11.057-29.432,11.057c-16.83,0-22.113-4.631-29.433-11.057
		c-8.415-7.367-18.875-16.516-43.404-16.516C5.347,392.586,0,397.934,0,404.527c0,6.596,5.347,11.943,11.942,11.943
		c15.542,0,20.631,4.443,27.669,10.605c8.632,7.553,19.367,16.949,45.167,16.949c25.801,0,36.535-9.396,45.167-16.949
		c7.038-6.17,12.127-10.605,27.669-10.605s20.631,4.443,27.669,10.605c8.632,7.553,19.366,16.949,45.167,16.949
		s36.535-9.396,45.167-16.949c7.038-6.17,12.127-10.605,27.669-10.605c15.542,0,20.64,4.443,27.669,10.605
		c8.625,7.553,19.367,16.949,45.168,16.949s36.533-9.396,45.166-16.949c7.031-6.17,12.127-10.605,27.67-10.605
		c15.557,0,20.639,4.443,27.684,10.605c8.617,7.553,19.359,16.949,45.168,16.949C547.604,444.033,558.338,434.637,566.961,427.084
		L566.961,427.084z M566.961,474.361c7.039-6.17,12.127-10.605,27.686-10.605c6.588,0,11.934-5.363,11.934-11.943
		c0-6.594-5.346-11.949-11.934-11.949c-24.537,0-35.004,9.164-43.412,16.523c-7.32,6.418-12.609,11.041-29.424,11.041
		c-16.838,0-22.113-4.623-29.441-11.041c-8.414-7.359-18.891-16.523-43.41-16.523c-24.529,0-34.99,9.164-43.404,16.523
		c-7.32,6.418-12.611,11.041-29.432,11.041c-16.83,0-22.113-4.623-29.426-11.041c-8.414-7.359-18.883-16.523-43.411-16.523
		s-34.989,9.164-43.403,16.523c-7.32,6.418-12.603,11.041-29.433,11.041s-22.112-4.623-29.432-11.041
		c-8.415-7.359-18.875-16.523-43.404-16.523c-24.521,0-34.989,9.164-43.404,16.523c-7.32,6.418-12.602,11.041-29.432,11.041
		s-22.113-4.623-29.433-11.041c-8.415-7.359-18.875-16.523-43.404-16.523C5.347,439.863,0,445.219,0,451.812
		c0,6.58,5.347,11.943,11.942,11.943c15.542,0,20.631,4.443,27.669,10.596c8.632,7.562,19.367,16.951,45.167,16.951
		c25.8,0,36.535-9.389,45.159-16.951c7.046-6.16,12.135-10.596,27.677-10.596s20.631,4.443,27.669,10.596
		c8.632,7.562,19.367,16.951,45.167,16.951c25.801,0,36.535-9.389,45.159-16.951c7.046-6.16,12.135-10.596,27.677-10.596
		c15.542,0,20.64,4.443,27.685,10.596c8.609,7.562,19.352,16.951,45.152,16.951s36.533-9.389,45.166-16.951
		c7.031-6.16,12.127-10.596,27.67-10.596c15.557,0,20.639,4.443,27.684,10.596c8.617,7.562,19.359,16.951,45.168,16.951
		C547.604,491.303,558.338,481.914,566.961,474.361L566.961,474.361z M240.967,182.372c0-37.058,30.044-67.095,67.104-67.095
		c37.057,0,67.094,30.037,67.094,67.095s-30.037,67.094-67.094,67.094C271.011,249.466,240.967,219.43,240.967,182.372
		L240.967,182.372z M489.285,346.299c-2.391,11.057-12.166,18.609-23.037,18.609c-1.643,0-3.318-0.168-5.002-0.539L347.77,339.824
		l-4.229,37.889c-9.607-4.992-22.395-9.012-40.247-9.012c-30.004,0-45.957,11.234-55.869,19.633l6.941-62.271l-101.673-9.928
		c-7.754-0.766-14.64-5.314-18.384-12.152l-42.349-77.256c-0.652-1.2-1.127-2.432-1.554-3.68c-16.838-9.688-28.2-27.822-28.2-48.638
		c0-30.994,25.124-56.126,56.119-56.126c31.003,0,56.127,25.132,56.127,56.126c0,21.605-12.224,40.328-30.125,49.709l25.35,46.254
		c0,0,74.358,7.336,98.653,9.639c24.295,2.303,60.717,7.481,76.338,10.855c15.623,3.374,126.547,27.371,126.547,27.371
		C483.955,321.006,492.031,333.561,489.285,346.299L489.285,346.299z"/>
</g>

</svg>
