<?xml version="1.0" encoding="iso-8859-1"?>
<!-- Generator: Adobe Illustrator 16.0.0, SVG Export Plug-In . SVG Version: 6.00 Build 0)  -->
<!DOCTYPE svg PUBLIC "-//W3C//DTD SVG 1.1//EN" "http://www.w3.org/Graphics/SVG/1.1/DTD/svg11.dtd">
<svg version="1.1" id="Capa_1" xmlns="http://www.w3.org/2000/svg" xmlns:xlink="http://www.w3.org/1999/xlink" x="0px" y="0px"
	 width="69.196px" height="69.196px" viewBox="0 0 69.196 69.196" style="enable-background:new 0 0 69.196 69.196;"
	 xml:space="preserve">
	<g id="Page-1_4_">
		<path id="Fill-3" d="M66.167,27.306c-0.581,0.399-1.24,0.593-1.888,0.593
			c-1.06,0-2.101-0.502-2.742-1.44l-3.062-4.425l-3.081,0.751c0.018-0.194,0.024-0.388,0.024-0.587c0-2.185-0.774-4.195-2.063-5.769
			l5.768-1.41c0.913-0.223,1.853-0.038,2.609,0.459L60.306,2.76c-0.095-0.83,0.504-1.579,1.335-1.672
			c0.832-0.093,1.579,0.505,1.672,1.335l1.993,17.782l1.708,2.471C68.055,24.189,67.68,26.265,66.167,27.306L66.167,27.306z
			 M26.904,27.73c0.556,0.351,1.174,0.52,1.785,0.52c1.096,0,2.173-0.55,2.809-1.549l2.899-4.552l2.838,0.823
			c-0.024-0.254-0.036-0.514-0.036-0.774c0-2.113,0.727-4.062,1.938-5.611l-5.285-1.531c-1.422-0.412-2.942,0.163-3.734,1.416
			l-0.164,0.257l0.93-15.123c0.051-0.834-0.584-1.552-1.418-1.603c-0.827-0.049-1.551,0.583-1.603,1.417l-1.266,20.584l-0.716,1.126
			C24.894,24.685,25.354,26.743,26.904,27.73L26.904,27.73z M46.307,29.49c4.028,0,7.295-3.266,7.295-7.294
			c0-4.029-3.267-7.295-7.295-7.295c-4.029,0-7.295,3.266-7.295,7.295C39.012,26.224,42.278,29.49,46.307,29.49L46.307,29.49z
			 M60.103,65.822l-0.673,0.267c-0.43,0.171-0.915,0.066-1.237-0.264l-2.562-2.624c0.174-0.117,0.341-0.25,0.494-0.402
			c1.302-1.303,1.302-3.408,0-4.709l-1.344-1.345c-0.424-9.193-1.465-18.562-5.423-25.971c-0.956,0.345-1.979,0.533-3.051,0.533
			c-2.742,0-5.199-1.217-6.869-3.135c-0.376,0.175-0.721,0.429-1.005,0.744c-5.732,6.251-11.845,14.992-16.881,24.108l-5.441,2.548
			c-1.665,0.781-2.385,2.76-1.604,4.424c0.1,0.214,0.22,0.411,0.357,0.593l-8.416,3.811C6.122,64.548,5.74,64.468,5.5,64.201
			l-1.273-1.402c-0.561-0.62-1.518-0.667-2.137-0.106c-0.619,0.562-0.666,1.52-0.105,2.138l1.272,1.404
			C4.005,67.06,5.043,67.5,6.104,67.5c0.536,0,1.079-0.112,1.592-0.345l25.852-11.708c0.761-0.345,1.099-1.241,0.754-2.002
			c-0.345-0.761-1.243-1.1-2.003-0.755l-3.921,1.777c4.29-7.504,9.259-14.603,13.995-19.978h1.41
			c2.902,5.798,3.852,13.342,4.266,20.947l-1.799-1.841c-0.584-0.6-1.543-0.609-2.14-0.026c-0.598,0.584-0.609,1.542-0.026,2.139
			l11.943,12.231c0.8,0.82,1.877,1.257,2.979,1.257c0.516,0,1.036-0.096,1.536-0.294l0.676-0.267
			c0.775-0.309,1.156-1.188,0.849-1.964C61.759,65.895,60.883,65.514,60.103,65.822L60.103,65.822z"/>
	</g>
</svg>
