<?xml version="1.0" encoding="utf-8"?>
<!-- Generator: Adobe Illustrator 21.0.0, SVG Export Plug-In . SVG Version: 6.00 Build 0)  -->
<svg version="1.1" id="Capa_1" xmlns="http://www.w3.org/2000/svg" xmlns:xlink="http://www.w3.org/1999/xlink" x="0px" y="0px"
	 viewBox="0 0 512 512" style="enable-background:new 0 0 512 512;" xml:space="preserve">
<style type="text/css">
	.st0{fill:#E6E7E8;}
	.st1{fill:#4C8056;}
	.st2{fill:#C03A2B;}
</style>
<g>
	<path class="st0" d="M494.3,79.4H256V138c26.6,8.6,49.9,26.9,64.4,52.5c-17.5-17.1-41.3-24.8-64.4-22.2v157.9
		c2.9,0.3,5.9,0.5,8.8,0.5c20.8,0,40.8-8.2,55.6-22.8c-14.6,25.6-37.8,43.9-64.4,52.5v76.2h238.3c9.7,0,17.6-7.9,17.7-17.7V97.1
		C512,87.4,504.1,79.5,494.3,79.4z M339.9,254.8l-7.7,24.8l-15-21.2l-25.9,0.3l15.5-20.8l-8.3-24.5l24.5,8.3l20.8-15.5l-0.3,25.9
		l21.1,15L339.9,254.8z"/>
	<path class="st1" d="M188.2,268c8.6,31.7,35.8,54.5,67.8,58.1V168.3c-10.8,1.2-21.5,4.6-31.3,10.4
		C193.7,196.8,178.8,233.4,188.2,268z"/>
	<path class="st1" d="M191.3,358.1c-50.4-13.3-85.5-58.9-85.5-111c0-52.1,35.1-97.6,85.5-111c21.9-5.8,44.2-4.8,64.7,1.8V79.4H17.7
		C7.9,79.5,0,87.4,0,97.1v317.8c0,9.7,7.9,17.6,17.7,17.7H256v-76.2C235.6,363,213.2,363.9,191.3,358.1z"/>
	<polygon class="st2" points="343.8,206.2 323,221.7 298.5,213.4 306.8,237.9 291.3,258.7 317.2,258.4 332.2,279.5 339.9,254.8 
		364.6,247.1 343.5,232.1 	"/>
	<path class="st2" d="M320.4,303.8c-14.8,14.6-34.8,22.8-55.6,22.8c-3,0-5.9-0.2-8.8-0.5v30.2C282.6,347.7,305.9,329.5,320.4,303.8z
		"/>
	<path class="st2" d="M320.4,190.5c-14.6-25.6-37.8-43.9-64.4-52.5v30.3C279.2,165.7,303,173.4,320.4,190.5z"/>
	<path class="st2" d="M191.3,136.2c-50.4,13.3-85.5,58.9-85.5,111c0,52.1,35.1,97.6,85.5,111c21.9,5.8,44.2,4.8,64.7-1.8v-30.2
		c-32.1-3.6-59.2-26.4-67.8-58.1c-9.4-34.6,5.6-71.2,36.5-89.3c9.8-5.8,20.5-9.2,31.3-10.4V138C235.6,131.4,213.2,130.4,191.3,136.2
		z"/>
</g>
</svg>
