<?xml version="1.0" encoding="utf-8"?>
<!-- Generator: Adobe Illustrator 21.0.0, SVG Export Plug-In . SVG Version: 6.00 Build 0)  -->
<svg version="1.1" id="Capa_1" xmlns="http://www.w3.org/2000/svg" xmlns:xlink="http://www.w3.org/1999/xlink" x="0px" y="0px"
	 viewBox="0 0 512 512" style="enable-background:new 0 0 512 512;" xml:space="preserve">
<style type="text/css">
	.st0{fill:none;}
	.st1{fill:#C03A2B;}
	.st2{fill:#FAC176;}
	.st3{fill:#285680;}
</style>
<g>
	<rect x="512" y="317.8" class="st0" width="0" height="0"/>
	<path class="st1" d="M494.3,432.6h-97.1v0L494.3,432.6c9.6,0,17.5-7.7,17.6-17.3C511.8,424.8,504,432.5,494.3,432.6z"/>
	<path class="st1" d="M0,414.9c0,9.7,7.9,17.6,17.7,17.6C7.9,432.5,0,424.6,0,414.9z"/>
	<path class="st1" d="M512,97.1c0-9.8-7.9-17.7-17.7-17.7H17.7C7.9,79.4,0,87.4,0,97.1v97.1h512V97.1z"/>
	<rect y="317.8" class="st1" width="512" height="0"/>
	<path class="st2" d="M0,414.9C0,414.9,0,414.9,0,414.9C0,414.9,0,414.9,0,414.9L0,414.9z"/>
	<path class="st2" d="M512,414.9c0,0.1,0,0.2,0,0.3C512,415.1,512,415,512,414.9l0-97.1h0V414.9z"/>
	<path class="st2" d="M512,317.8H0v97.1c0,0,0,0,0,0c0,9.7,7.9,17.6,17.7,17.6h379.6h97.1c9.6,0,17.4-7.7,17.6-17.3
		c0-0.1,0-0.2,0-0.3V317.8z"/>
	<rect x="512" y="194.2" class="st3" width="0" height="123.6"/>
	<rect y="194.2" class="st3" width="512" height="123.6"/>
</g>
</svg>
