<?xml version="1.0" encoding="utf-8"?>
<!-- Generator: Adobe Illustrator 21.0.0, SVG Export Plug-In . SVG Version: 6.00 Build 0)  -->
<svg version="1.1" id="Capa_1" xmlns="http://www.w3.org/2000/svg" xmlns:xlink="http://www.w3.org/1999/xlink" x="0px" y="0px"
	 viewBox="0 0 512 512" style="enable-background:new 0 0 512 512;" xml:space="preserve">
<style type="text/css">
	.st0{fill:#285680;}
	.st1{fill:#ECF0F1;}
	.st2{fill:#C03A2B;}
</style>
<g>
	<g>
		<path class="st0" d="M194.2,79.4v141.2H0V97.1c0-2,0.3-4,1.1-5.9C3.2,85,8.7,80.5,15.3,79.6c0.8-0.1,1.6-0.2,2.4-0.2
			C17.7,79.4,194.2,79.4,194.2,79.4z"/>
		<path class="st0" d="M194.2,79.4v141.2H0V97.1c0-9.7,7.9-17.6,17.7-17.7H194.2z"/>
		<path class="st0" d="M512,97.1v317.8c0,9.7-7.9,17.6-17.7,17.7H17.7c-9.7,0-17.6-7.9-17.7-17.7V220.7h194.2V79.4h300.1
			C504.1,79.5,512,87.4,512,97.1z"/>
	</g>
	<g>
		<polygon class="st1" points="104.6,256 116.7,286.6 148.1,277 131.7,305.5 158.9,324.1 126.3,329.1 128.8,361.9 104.6,339.6 
			80.4,361.9 82.8,329.1 50.2,324.1 77.4,305.5 61,277 92.5,286.6 		"/>
		<polygon class="st1" points="392.8,97.1 399.7,114.5 417.6,109 408.3,125.3 423.7,135.8 405.2,138.7 406.6,157.3 392.8,144.6 
			379.1,157.3 380.4,138.7 361.9,135.8 377.4,125.3 368,109 386,114.5 		"/>
		<polygon class="st1" points="348.7,167.7 355.6,185.1 373.5,179.7 364.1,195.9 379.6,206.5 361.1,209.3 362.4,228 348.7,215.3 
			334.9,228 336.3,209.3 317.8,206.5 333.2,195.9 323.9,179.7 341.8,185.1 		"/>
		<polygon class="st1" points="454.6,151.6 461.5,169 479.4,163.5 470.1,179.8 485.5,190.4 467,193.2 468.4,211.9 454.6,199.2 
			440.9,211.9 442.2,193.2 423.7,190.4 439.2,179.8 429.8,163.5 447.7,169 		"/>
		<polygon class="st1" points="384,284 390.9,301.4 408.8,296 399.4,312.2 414.9,322.8 396.4,325.6 397.8,344.3 384,331.6 
			370.2,344.3 371.6,325.6 353.1,322.8 368.6,312.2 359.2,296 377.1,301.4 		"/>
	</g>
	<g>
		<path class="st1" d="M114.8,173.6v11.2l49.4,36h15l-63-45.8C115.6,174.5,115.2,174.1,114.8,173.6z"/>
		<path class="st1" d="M5.1,84.7c0,0,0.1-0.1,0.1-0.1C5.2,84.6,5.2,84.7,5.1,84.7z"/>
		<polygon class="st1" points="114.8,167.7 136.4,167.7 194.2,209.7 194.2,198.9 151.4,167.7 114.8,167.7 		"/>
		<path class="st1" d="M7.8,82.5C7.8,82.5,7.8,82.5,7.8,82.5C7.8,82.5,7.8,82.5,7.8,82.5z"/>
		<path class="st1" d="M78,125.3c0.5,0.4,1,0.8,1.4,1.3v-11.2L30,79.4H17.7c-0.8,0-1.6,0.1-2.4,0.2l1.3,0.9L78,125.3z"/>
		<path class="st1" d="M4,85.9C4.1,85.9,4.1,85.9,4,85.9C4.1,85.9,4.1,85.9,4,85.9z"/>
		<path class="st1" d="M3.9,93.2l-2.8-2c0.4-1.1,0.8-2.1,1.4-3C0.9,90.8,0,93.8,0,97.1v4.1l42.8,31.2h15L3.9,93.2z"/>
		<path class="st1" d="M12.1,80.4c0.2-0.1,0.3-0.1,0.5-0.2C12.5,80.2,12.3,80.3,12.1,80.4z"/>
		<path class="st1" d="M9.2,81.7c0,0,0.1-0.1,0.1-0.1C9.3,81.6,9.2,81.6,9.2,81.7z"/>
		<path class="st1" d="M13.7,79.9c0.3-0.1,0.7-0.1,1-0.2C14.4,79.8,14,79.8,13.7,79.9z"/>
		<path class="st1" d="M10.7,80.9c0.1,0,0.2-0.1,0.2-0.1C10.9,80.8,10.8,80.8,10.7,80.9z"/>
		<path class="st1" d="M2.8,87.6c0.1-0.2,0.2-0.4,0.4-0.6C3,87.2,2.9,87.4,2.8,87.6z"/>
		<path class="st1" d="M78,174.9l-63,45.8h15l49.4-36v-11.2C79,174.1,78.6,174.5,78,174.9z"/>
		<path class="st1" d="M116.2,125.3l63-45.8h-15l-49.4,36v11.2C115.2,126.1,115.6,125.6,116.2,125.3z"/>
		<polygon class="st1" points="79.4,167.7 79.4,167.7 42.8,167.7 0,198.9 0,209.7 57.8,167.7 		"/>
		<polygon class="st1" points="151.4,132.4 194.2,101.3 194.2,90.4 136.4,132.4 		"/>
		<polygon class="st1" points="42.8,132.4 0,132.4 0,141.2 55,141.2 		"/>
		<polygon class="st1" points="88.3,79.4 79.4,79.4 79.4,115.4 88.3,121.8 		"/>
		<polygon class="st1" points="0,158.9 0,167.7 42.8,167.7 55,158.9 		"/>
		<polygon class="st1" points="114.8,115.4 114.8,79.4 105.9,79.4 105.9,121.8 		"/>
		<polygon class="st1" points="79.4,184.7 79.4,220.7 88.3,220.7 88.3,178.3 		"/>
		<polygon class="st1" points="151.4,167.7 194.2,167.7 194.2,158.9 139.2,158.9 		"/>
		<polygon class="st1" points="105.9,220.7 114.8,220.7 114.8,184.7 105.9,178.3 		"/>
		<polygon class="st1" points="194.2,141.2 194.2,132.4 151.4,132.4 139.2,141.2 		"/>
		<polygon class="st1" points="115,158.9 105.9,165.5 105.9,178.3 114.8,184.7 114.8,173.6 114.8,173.6 114.8,167.7 114.8,167.7 
			114.8,167.7 151.4,167.7 139.2,158.9 		"/>
		<polygon class="st1" points="79.2,141.2 88.3,134.7 88.3,121.8 79.4,115.4 79.4,126.6 79.4,132.4 57.8,132.4 42.8,132.4 55,141.2 
					"/>
		<polygon class="st1" points="114.8,132.4 114.8,132.4 114.8,126.6 114.8,126.6 114.8,115.4 105.9,121.8 105.9,134.7 115,141.2 
			139.2,141.2 151.4,132.4 136.4,132.4 		"/>
		<polygon class="st1" points="88.3,165.5 79.2,158.9 55,158.9 42.8,167.7 79.4,167.7 79.4,167.7 79.4,173.5 79.4,184.7 88.3,178.3 
					"/>
		<polygon class="st1" points="88.3,134.7 79.2,141.2 88.3,141.2 		"/>
		<polygon class="st1" points="79.2,158.9 88.3,165.5 88.3,158.9 		"/>
		<polygon class="st1" points="105.9,165.5 115,158.9 105.9,158.9 		"/>
		<polygon class="st1" points="115,141.2 105.9,134.7 105.9,141.2 		"/>
		<path class="st2" d="M114.8,167.7v5.8c0.4,0.5,0.9,1,1.4,1.3l63,45.8h15v-10.9l-57.8-42H114.8z"/>
		<rect x="114.8" y="167.7" class="st2" width="0" height="5.8"/>
		<path class="st2" d="M12.6,80.2c0.3-0.1,0.7-0.2,1.1-0.3C13.4,80,13,80.1,12.6,80.2z"/>
		<path class="st2" d="M15.3,79.6c-0.2,0-0.4,0.1-0.6,0.1C14.9,79.7,15.1,79.7,15.3,79.6L15.3,79.6z"/>
		<path class="st2" d="M11,80.8c0.4-0.2,0.8-0.3,1.2-0.4C11.7,80.5,11.4,80.6,11,80.8z"/>
		<path class="st2" d="M7.9,82.4c0.4-0.3,0.9-0.5,1.3-0.8C8.7,81.9,8.3,82.2,7.9,82.4z"/>
		<path class="st2" d="M4.1,85.9c0.3-0.4,0.7-0.8,1.1-1.2C4.8,85.1,4.4,85.5,4.1,85.9z"/>
		<path class="st2" d="M5.3,84.6c0.8-0.8,1.6-1.5,2.5-2.1C6.9,83.1,6,83.8,5.3,84.6z"/>
		<path class="st2" d="M9.3,81.6c0.5-0.3,0.9-0.5,1.4-0.7C10.2,81.1,9.8,81.3,9.3,81.6z"/>
		<path class="st2" d="M3.2,87.1c0.3-0.4,0.6-0.8,0.9-1.2C3.7,86.3,3.4,86.7,3.2,87.1z"/>
		<path class="st2" d="M2.5,88.2c0.1-0.2,0.2-0.4,0.4-0.6C2.7,87.8,2.6,88,2.5,88.2z"/>
		<path class="st2" d="M3.9,93.2l53.9,39.2h21.6v-5.8c-0.4-0.5-0.9-1-1.4-1.3L16.6,80.5l-1.3-0.9c-0.2,0-0.4,0.1-0.6,0.1
			c-0.3,0.1-0.7,0.1-1,0.2c-0.4,0.1-0.7,0.2-1.1,0.3c-0.2,0.1-0.3,0.1-0.5,0.2c-0.4,0.1-0.8,0.3-1.2,0.4c-0.1,0-0.2,0.1-0.2,0.1
			c-0.5,0.2-1,0.4-1.4,0.7c0,0-0.1,0.1-0.1,0.1c-0.4,0.2-0.9,0.5-1.3,0.8c0,0-0.1,0-0.1,0.1c-0.9,0.6-1.7,1.3-2.5,2.1
			c0,0-0.1,0.1-0.1,0.1c-0.4,0.4-0.7,0.8-1.1,1.2c0,0,0,0,0,0c-0.3,0.4-0.6,0.8-0.9,1.2c-0.1,0.2-0.2,0.4-0.4,0.6
			c-0.1,0.2-0.2,0.4-0.4,0.6c-0.6,0.9-1,1.9-1.4,3L3.9,93.2z"/>
		<path class="st2" d="M79.4,173.5v-5.8H57.8L0,209.7v10.9h15l63-45.8C78.6,174.5,79,174.1,79.4,173.5z"/>
		<path class="st2" d="M179.2,79.4l-63,45.8c-0.5,0.4-1,0.8-1.4,1.3v5.8h21.6l57.8-42V79.4H179.2z"/>
		<polygon class="st2" points="114.8,132.4 114.8,132.4 114.8,126.6 114.8,126.6 		"/>
		<polygon class="st2" points="127.1,150.1 127.1,150.1 139.2,158.9 194.2,158.9 194.2,141.2 139.2,141.2 		"/>
		<polygon class="st2" points="67.1,150.1 67.1,150.1 55,141.2 0,141.2 0,158.9 55,158.9 		"/>
		<polygon class="st2" points="139.2,158.9 127.1,150.1 115,158.9 		"/>
		<polygon class="st2" points="55,141.2 67.1,150.1 79.2,141.2 		"/>
		<polygon class="st2" points="127.1,150.1 139.2,141.2 115,141.2 127.1,150.1 		"/>
		<polygon class="st2" points="67.1,150.1 55,158.9 79.2,158.9 67.1,150.1 		"/>
		<polygon class="st2" points="105.9,158.9 115,158.9 127.1,150.1 115,141.2 105.9,141.2 		"/>
		<polygon class="st2" points="88.3,141.2 79.2,141.2 67.1,150.1 79.2,158.9 88.3,158.9 		"/>
		<polygon class="st2" points="97.1,128.3 105.9,121.8 105.9,79.4 88.3,79.4 88.3,121.8 		"/>
		<polygon class="st2" points="97.1,171.9 88.3,178.3 88.3,220.7 105.9,220.7 105.9,178.3 		"/>
		<polygon class="st2" points="97.1,128.3 88.3,121.8 88.3,134.7 97.1,128.3 		"/>
		<polygon class="st2" points="97.1,171.9 105.9,178.3 105.9,165.5 97.1,171.9 		"/>
		<polygon class="st2" points="88.3,178.3 97.1,171.9 88.3,165.5 		"/>
		<polygon class="st2" points="105.9,134.7 105.9,121.8 97.1,128.3 		"/>
		<polygon class="st2" points="88.3,158.9 88.3,165.5 97.1,171.9 97.1,171.9 105.9,165.5 105.9,158.9 		"/>
		<polygon class="st2" points="97.1,128.3 88.3,134.7 88.3,141.2 105.9,141.2 105.9,134.7 97.1,128.3 		"/>
		<rect x="88.3" y="141.2" class="st2" width="17.7" height="17.7"/>
	</g>
	<polygon class="st1" points="440,229.5 445.7,241.1 458.6,243 449.3,252.1 451.5,264.8 440,258.8 428.5,264.8 430.7,252.1 
		421.5,243 434.3,241.1 	"/>
</g>
</svg>
