<?xml version="1.0" encoding="utf-8"?>
<!-- Generator: Adobe Illustrator 21.0.0, SVG Export Plug-In . SVG Version: 6.00 Build 0)  -->
<svg version="1.1" id="Capa_1" xmlns="http://www.w3.org/2000/svg" xmlns:xlink="http://www.w3.org/1999/xlink" x="0px" y="0px"
	 viewBox="0 0 512 512" style="enable-background:new 0 0 512 512;" xml:space="preserve">
<style type="text/css">
	.st0{fill:#2C2F38;}
	.st1{fill:#3B97D3;}
	.st2{fill:#F0C419;}
</style>
<g>
	<path class="st0" d="M512,415.4c-0.1,1.6-0.3,3.2-0.8,4.7C511.7,418.6,511.9,417.1,512,415.4z"/>
	<path class="st0" d="M194.2,256l-48.6-44.1L5.5,84.4c3.3-3.2,7.6-5,12.2-4.9h476.7c6.4,0,12,3.4,15.1,8.5
		c-3.1-5.1-8.7-8.5-15.1-8.5H17.7c-4.6,0-8.9,1.8-12.2,4.9C2,87.7,0,92.3,0,97.1v317.8c0,4.8,2,9.4,5.5,12.7c0,0,0,0,0,0
		l140.2-127.5H512v0H145.7L194.2,256z"/>
	<path class="st0" d="M509.4,88c0.4,0.7,0.8,1.5,1.2,2.3C510.3,89.4,509.9,88.7,509.4,88z"/>
	<path class="st1" d="M510.6,90.2c-0.3-0.8-0.7-1.6-1.2-2.3c-3.1-5.1-8.7-8.5-15.1-8.5H17.7c-4.6,0-8.9,1.8-12.2,4.9l140.2,127.5
		H512V97.1C512,94.7,511.5,92.3,510.6,90.2z"/>
	<path class="st1" d="M512,414.9L512,414.9c0,0.2,0,0.3,0,0.5C512,415.2,512,415.1,512,414.9z"/>
	<path class="st1" d="M494.3,432.6H17.7c-4.6,0-8.9-1.8-12.2-4.9l0,0c3.3,3.2,7.6,5,12.2,4.9L494.3,432.6c7.3,0,13.6-4.5,16.3-10.8
		C507.9,428.1,501.6,432.5,494.3,432.6z"/>
	<path class="st1" d="M5.5,427.6c3.3,3.2,7.6,5,12.2,4.9h476.7c7.3,0,13.6-4.5,16.3-10.8c0.1-0.3,0.2-0.6,0.4-1
		c0.1-0.2,0.2-0.4,0.2-0.6c0.5-1.5,0.7-3.1,0.8-4.7c0-0.2,0-0.3,0-0.5V300.1H145.7L5.5,427.6z"/>
	<polygon class="st2" points="194.2,256 145.7,300.1 512,300.1 512,211.9 145.7,211.9 	"/>
</g>
</svg>
