<?xml version="1.0" encoding="iso-8859-1"?>
<!-- Generator: Adobe Illustrator 19.0.0, SVG Export Plug-In . SVG Version: 6.00 Build 0)  -->
<svg version="1.1" id="Capa_1" xmlns="http://www.w3.org/2000/svg" xmlns:xlink="http://www.w3.org/1999/xlink" x="0px" y="0px"
	 viewBox="0 0 512 512" style="enable-background:new 0 0 512 512;" xml:space="preserve">
<g>
	<path style="fill:#4C8056;" d="M397.241,432.552h97.103c9.751,0,17.655-7.905,17.655-17.655V97.103
		c0-9.751-7.905-17.655-17.655-17.655H17.655C7.904,79.448,0,87.353,0,97.103v317.793c0,9.751,7.904,17.655,17.655,17.655H397.241z"
		/>
	<polygon style="fill:#F3D55B;" points="79.448,247.172 256,361.931 432.552,247.172 256,132.414 	"/>
	<path style="fill:#3B97D3;" d="M317.793,247.172c0.065,12.942-4.019,25.565-11.652,36.017c-4.056,5.763-9.108,10.755-14.919,14.742
		c-10.323,7.22-22.625,11.074-35.222,11.034c-16.392,0.012-32.117-6.494-43.708-18.086c-11.591-11.591-18.098-27.315-18.086-43.708
		c-0.015-0.473,0.015-0.945,0.088-1.412c0.068-7.077,1.445-14.08,4.061-20.657c10.627-27.833,39.611-44.109,68.908-38.696
		C296.56,191.821,317.814,217.38,317.793,247.172z"/>
	<path style="fill:#ECF0F1;" d="M306.141,283.189c-4.056,5.763-9.108,10.755-14.919,14.742l-0.883-4.943
		c-3.537-19.947-16.012-37.176-33.859-46.762s-39.1-10.473-57.683-2.407l-4.502,1.942c0.068-7.077,1.445-14.08,4.061-20.657
		c8.604-2.964,17.647-4.457,26.748-4.414C263.22,220.569,296.573,246.293,306.141,283.189z"/>
</g>
<g>
</g>
<g>
</g>
<g>
</g>
<g>
</g>
<g>
</g>
<g>
</g>
<g>
</g>
<g>
</g>
<g>
</g>
<g>
</g>
<g>
</g>
<g>
</g>
<g>
</g>
<g>
</g>
<g>
</g>
</svg>
