<?xml version="1.0" encoding="iso-8859-1"?>
<!-- Generator: Adobe Illustrator 19.0.0, SVG Export Plug-In . SVG Version: 6.00 Build 0)  -->
<svg version="1.1" id="Capa_1" xmlns="http://www.w3.org/2000/svg" xmlns:xlink="http://www.w3.org/1999/xlink" x="0px" y="0px"
	 viewBox="0 0 512 512" style="enable-background:new 0 0 512 512;" xml:space="preserve">
<g>
	<g>
		<path style="fill:#C03A2B;" d="M512,97.103v317.793c-0.029,9.739-7.916,17.627-17.655,17.655h-70.621V79.448h70.621
			C504.084,79.477,511.972,87.365,512,97.103z"/>
		<path style="fill:#C03A2B;" d="M88.276,79.448v353.103H17.655C7.916,432.523,0.029,424.635,0,414.897V97.103
			c0.028-9.739,7.916-17.627,17.655-17.655H88.276z"/>
	</g>
	<rect x="88.276" y="79.448" style="fill:#E6E7E8;" width="335.448" height="353.103"/>
	<polygon style="fill:#C03A2B;" points="380.822,260.299 353.103,238.671 353.103,202.708 290.692,231.503 325.385,166.735 
		283.719,166.735 256,123.586 228.281,166.735 186.615,166.735 221.308,231.503 158.897,202.708 158.897,238.671 131.178,260.299 
		186.615,288.998 165.87,317.793 229.517,317.793 246.29,317.793 238.345,397.241 273.655,397.241 265.71,317.793 282.483,317.793 
		346.13,317.793 325.385,288.998 	"/>
</g>
<g>
</g>
<g>
</g>
<g>
</g>
<g>
</g>
<g>
</g>
<g>
</g>
<g>
</g>
<g>
</g>
<g>
</g>
<g>
</g>
<g>
</g>
<g>
</g>
<g>
</g>
<g>
</g>
<g>
</g>
</svg>
