<?xml version="1.0" encoding="iso-8859-1"?>
<!-- Generator: Adobe Illustrator 19.0.0, SVG Export Plug-In . SVG Version: 6.00 Build 0)  -->
<svg version="1.1" id="Capa_1" xmlns="http://www.w3.org/2000/svg" xmlns:xlink="http://www.w3.org/1999/xlink" x="0px" y="0px"
	 viewBox="0 0 512 512" style="enable-background:new 0 0 512 512;" xml:space="preserve">
<g>
	<path style="fill:#C03A2B;" d="M512,256v158.897c-0.029,9.739-7.916,17.627-17.655,17.655H17.655
		C7.916,432.523,0.029,424.635,0,414.897V256H512z"/>
	<path style="fill:#E6E7E8;" d="M512,97.103V256H167.724V79.448h326.621C504.084,79.477,511.972,87.365,512,97.103z"/>
	<path style="fill:#285680;" d="M167.724,79.448V256H0V97.103c0.028-9.739,7.916-17.627,17.655-17.655H167.724z"/>
	<polygon style="fill:#E6E7E8;" points="83.862,114.759 101.597,150.201 141.241,155.878 112.552,183.464 119.322,222.42 
		83.862,204.023 48.402,222.42 55.172,183.464 26.483,155.878 66.127,150.201 	"/>
</g>
<g>
</g>
<g>
</g>
<g>
</g>
<g>
</g>
<g>
</g>
<g>
</g>
<g>
</g>
<g>
</g>
<g>
</g>
<g>
</g>
<g>
</g>
<g>
</g>
<g>
</g>
<g>
</g>
<g>
</g>
</svg>
