<?xml version="1.0" encoding="iso-8859-1"?>
<!-- Generator: Adobe Illustrator 19.0.0, SVG Export Plug-In . SVG Version: 6.00 Build 0)  -->
<svg version="1.1" id="Capa_1" xmlns="http://www.w3.org/2000/svg" xmlns:xlink="http://www.w3.org/1999/xlink" x="0px" y="0px"
	 viewBox="0 0 512 512" style="enable-background:new 0 0 512 512;" xml:space="preserve">
<g>
	<path style="fill:#C03A2B;" d="M397.241,432.552h97.103c9.751,0,17.655-7.905,17.655-17.655V97.103
		c0-9.751-7.905-17.655-17.655-17.655H17.655C7.904,79.448,0,87.353,0,97.103v317.793c0,9.751,7.904,17.655,17.655,17.655H397.241z"
		/>
	<g>
		<polygon style="fill:#F3D55B;" points="85.681,141.241 101.244,172.782 136.051,177.841 110.866,202.381 116.807,237.047 
			85.681,220.681 54.546,237.047 60.495,202.381 35.31,177.841 70.118,172.782 		"/>
		<polygon style="fill:#F3D55B;" points="154.333,111.104 166.603,115.262 176.993,107.511 176.825,120.47 187.41,127.956 
			175.033,131.805 171.185,144.181 163.699,133.597 150.74,133.764 158.49,123.374 		"/>
		<polygon style="fill:#F3D55B;" points="154.333,267.061 166.603,271.219 176.993,263.468 176.825,276.427 187.41,283.913 
			175.033,287.762 171.185,300.138 163.699,289.554 150.74,289.721 158.49,279.331 		"/>
		<polygon style="fill:#F3D55B;" points="197.8,161.13 210.07,165.288 220.46,157.537 220.292,170.496 230.877,177.982 
			218.5,181.831 214.652,194.207 207.166,183.623 194.207,183.79 201.958,173.4 		"/>
		<polygon style="fill:#F3D55B;" points="197.8,224.282 210.07,228.44 220.46,220.69 220.292,233.649 230.877,241.134 
			218.5,244.983 214.652,257.359 207.166,246.775 194.207,246.943 201.958,236.553 		"/>
	</g>
</g>
<g>
</g>
<g>
</g>
<g>
</g>
<g>
</g>
<g>
</g>
<g>
</g>
<g>
</g>
<g>
</g>
<g>
</g>
<g>
</g>
<g>
</g>
<g>
</g>
<g>
</g>
<g>
</g>
<g>
</g>
</svg>
