<?xml version="1.0" encoding="iso-8859-1"?>
<!-- Generator: Adobe Illustrator 19.0.0, SVG Export Plug-In . SVG Version: 6.00 Build 0)  -->
<svg version="1.1" id="Capa_1" xmlns="http://www.w3.org/2000/svg" xmlns:xlink="http://www.w3.org/1999/xlink" x="0px" y="0px"
	 viewBox="0 0 512 512" style="enable-background:new 0 0 512 512;" xml:space="preserve">
<g>
	<path style="fill:#F3D55B;" d="M494.345,79.448H17.655C7.918,79.482,0.033,87.367,0,97.103v317.793
		c0.033,9.737,7.918,17.622,17.655,17.655h476.69c9.739-0.029,17.626-7.916,17.655-17.655V97.103
		C511.972,87.365,504.084,79.477,494.345,79.448z"/>
	<path style="fill:#285680;" d="M512,344.276v70.621c-0.029,9.739-7.916,17.627-17.655,17.655H17.655
		c-5.781,0.005-11.194-2.834-14.477-7.592l88.717-80.684H512z"/>
	<path style="fill:#4C8056;" d="M188.999,256l-97.103,88.276L3.178,424.96c-2.071-2.947-3.181-6.462-3.178-10.063V97.103
		c-0.003-3.602,1.107-7.117,3.178-10.063l88.717,80.684L188.999,256z"/>
	<polygon style="fill:#E6E7E8;" points="512,167.724 512,256 188.999,256 91.895,167.724 	"/>
	<polygon style="fill:#C03A2B;" points="512,256 512,344.276 91.895,344.276 188.999,256 	"/>
	<g>
		<path style="fill:#E6E7E8;" d="M62.263,305.147c-1.285-0.001-2.555-0.283-3.72-0.828c-6.391-2.987-12.117-7.226-16.841-12.466
			c-4.821-5.322-8.607-11.497-11.164-18.207c-5.408-14.21-5.408-29.911,0-44.12c2.557-6.711,6.345-12.886,11.168-18.207
			c4.721-5.24,10.446-9.479,16.836-12.466c2.858-1.331,6.209-1.035,8.79,0.775c2.581,1.81,4.001,4.86,3.724,8
			c-0.277,3.14-2.208,5.895-5.066,7.225c-4.259,2.005-8.074,4.842-11.22,8.345c-3.351,3.697-5.98,7.99-7.75,12.655
			c-3.845,10.136-3.845,21.329,0,31.466c1.77,4.664,4.397,8.957,7.746,12.655c3.148,3.501,6.964,6.339,11.224,8.345
			c3.755,1.746,5.79,5.868,4.894,9.911C69.99,302.273,66.404,305.15,62.263,305.147L62.263,305.147z"/>
		<path style="fill:#E6E7E8;" d="M97.103,211.862c0.028,2.952-1.436,5.72-3.892,7.358c-2.456,1.638-5.573,1.927-8.289,0.767
			c-1.07-0.448-2.056-1.076-2.914-1.857c-2.143-2.063-3.084-5.078-2.493-7.994c0.59-2.916,2.63-5.327,5.407-6.394
			c2.714-1.163,5.832-0.876,8.289,0.762S97.132,208.909,97.103,211.862z"/>
		<path style="fill:#E6E7E8;" d="M97.103,238.345c0.028,2.952-1.436,5.72-3.892,7.358c-2.456,1.638-5.573,1.927-8.289,0.767
			c-1.07-0.448-2.056-1.076-2.914-1.857c-2.143-2.063-3.084-5.078-2.493-7.994c0.59-2.916,2.63-5.327,5.407-6.394
			c2.714-1.163,5.832-0.876,8.289,0.762S97.132,235.392,97.103,238.345z"/>
		<path style="fill:#E6E7E8;" d="M97.103,264.828c0.028,2.952-1.436,5.72-3.892,7.358c-2.456,1.638-5.573,1.927-8.289,0.767
			c-1.07-0.448-2.056-1.076-2.914-1.857c-2.143-2.063-3.084-5.078-2.493-7.994c0.59-2.916,2.63-5.327,5.407-6.394
			c2.714-1.163,5.832-0.876,8.289,0.762S97.132,261.875,97.103,264.828z"/>
		<path style="fill:#E6E7E8;" d="M97.103,291.31c0.028,2.952-1.436,5.72-3.892,7.358c-2.456,1.638-5.573,1.927-8.289,0.767
			c-1.07-0.448-2.056-1.076-2.914-1.857c-2.143-2.063-3.084-5.078-2.493-7.994c0.59-2.916,2.63-5.327,5.407-6.394
			c2.714-1.163,5.832-0.876,8.289,0.762S97.132,288.358,97.103,291.31z"/>
	</g>
</g>
<g>
</g>
<g>
</g>
<g>
</g>
<g>
</g>
<g>
</g>
<g>
</g>
<g>
</g>
<g>
</g>
<g>
</g>
<g>
</g>
<g>
</g>
<g>
</g>
<g>
</g>
<g>
</g>
<g>
</g>
</svg>
