<?xml version="1.0" encoding="iso-8859-1"?>
<!-- Generator: Adobe Illustrator 19.0.0, SVG Export Plug-In . SVG Version: 6.00 Build 0)  -->
<svg version="1.1" id="Capa_1" xmlns="http://www.w3.org/2000/svg" xmlns:xlink="http://www.w3.org/1999/xlink" x="0px" y="0px"
	 viewBox="0 0 512 512" style="enable-background:new 0 0 512 512;" xml:space="preserve">
<g>
	<path style="fill:#285680;" d="M397.241,432.552h97.103c9.751,0,17.655-7.905,17.655-17.655V97.103
		c0-9.751-7.905-17.655-17.655-17.655H17.655C7.904,79.448,0,87.353,0,97.103v317.793c0,9.751,7.904,17.655,17.655,17.655H397.241z"
		/>
	<g>
		<polygon style="fill:#E6E7E8;" points="512,150.069 512,220.69 155.366,220.69 145.655,211.862 77.683,150.069 		"/>
		<polygon style="fill:#E6E7E8;" points="512,291.31 512,361.931 77.683,361.931 145.655,300.138 155.366,291.31 		"/>
	</g>
	<path style="fill:#C03A2B;" d="M194.207,256l-38.841,35.31l-9.71,8.828l-67.972,61.793l-72.21,65.677
		c-3.484-3.312-5.461-7.905-5.473-12.712V97.103c0.012-4.807,1.989-9.4,5.473-12.712l72.21,65.677l67.972,61.793l9.71,8.828
		L194.207,256z"/>
	<polygon style="fill:#E6E7E8;" points="79.863,206.336 94.058,235.105 125.811,239.722 102.833,262.109 108.262,293.729 
		79.863,278.802 51.474,293.729 56.894,262.109 33.924,239.722 65.668,235.105 	"/>
</g>
<g>
</g>
<g>
</g>
<g>
</g>
<g>
</g>
<g>
</g>
<g>
</g>
<g>
</g>
<g>
</g>
<g>
</g>
<g>
</g>
<g>
</g>
<g>
</g>
<g>
</g>
<g>
</g>
<g>
</g>
</svg>
