<?xml version="1.0" encoding="iso-8859-1"?>
<!-- Generator: Adobe Illustrator 19.0.0, SVG Export Plug-In . SVG Version: 6.00 Build 0)  -->
<svg version="1.1" id="Capa_1" xmlns="http://www.w3.org/2000/svg" xmlns:xlink="http://www.w3.org/1999/xlink" x="0px" y="0px"
	 viewBox="0 0 512 512" style="enable-background:new 0 0 512 512;" xml:space="preserve">
<g>
	<path style="fill:#C03A2B;" d="M494.345,79.448H17.655c-4.057-0.008-7.989,1.396-11.123,3.972c-0.404,0.36-0.787,0.743-1.148,1.147
		H5.297C1.916,87.864,0.007,92.382,0,97.103v317.793c0.007,4.721,1.916,9.24,5.297,12.535c0.368,0.427,0.783,0.812,1.236,1.148
		c3.134,2.576,7.066,3.981,11.123,3.972h476.69c9.739-0.029,17.627-7.916,17.655-17.655V97.103
		C511.972,87.365,504.084,79.477,494.345,79.448z"/>
	<path style="fill:#F0C419;" d="M291.31,256L6.532,428.579c-0.453-0.336-0.868-0.721-1.236-1.148L185.379,256L5.385,84.568
		c0.36-0.404,0.743-0.787,1.148-1.148L291.31,256z"/>
	<path style="fill:#2C2F38;" d="M185.379,256L5.297,427.432c-3.38-3.295-5.29-7.814-5.297-12.535V97.103
		c0.007-4.721,1.916-9.24,5.297-12.535h0.088L185.379,256z"/>
	<polygon style="fill:#FFFFFF;" points="72.422,220.69 83.897,243.933 109.542,247.658 90.986,265.746 95.364,291.284 
		72.422,279.225 49.487,291.284 53.866,265.746 35.31,247.658 60.954,243.933 	"/>
</g>
<g>
</g>
<g>
</g>
<g>
</g>
<g>
</g>
<g>
</g>
<g>
</g>
<g>
</g>
<g>
</g>
<g>
</g>
<g>
</g>
<g>
</g>
<g>
</g>
<g>
</g>
<g>
</g>
<g>
</g>
</svg>
