<?xml version="1.0" encoding="iso-8859-1"?>
<!-- Generator: Adobe Illustrator 19.0.0, SVG Export Plug-In . SVG Version: 6.00 Build 0)  -->
<svg version="1.1" id="Capa_1" xmlns="http://www.w3.org/2000/svg" xmlns:xlink="http://www.w3.org/1999/xlink" x="0px" y="0px"
	 viewBox="0 0 512 512" style="enable-background:new 0 0 512 512;" xml:space="preserve">
<g>
	<path style="fill:#285680;" d="M397.241,432.552h97.103c9.751,0,17.655-7.905,17.655-17.655V97.103
		c0-9.751-7.905-17.655-17.655-17.655H17.655C7.904,79.448,0,87.353,0,97.103v317.793c0,9.751,7.904,17.655,17.655,17.655H397.241z"
		/>
	<g>
		<polygon style="fill:#F3D55B;" points="256,132.414 262.691,145.973 277.654,148.153 266.831,158.702 269.383,173.612 
			256,166.577 242.617,173.612 245.169,158.702 234.346,148.153 249.309,145.973 		"/>
		<polygon style="fill:#F3D55B;" points="256,338.388 262.691,351.956 277.654,354.127 266.831,364.685 269.383,379.586 
			256,372.551 242.617,379.586 245.169,364.685 234.346,354.127 249.309,351.956 		"/>
		<polygon style="fill:#F3D55B;" points="206.23,146.485 212.921,160.044 227.884,162.216 217.053,172.774 219.613,187.683 
			206.23,180.639 192.839,187.683 195.399,172.774 184.567,162.216 199.53,160.044 		"/>
		<polygon style="fill:#F3D55B;" points="309.213,324.864 315.904,338.423 330.876,340.604 320.044,351.153 322.595,366.062 
			309.213,359.027 295.83,366.062 298.39,351.153 287.559,340.604 302.521,338.423 		"/>
		<polygon style="fill:#F3D55B;" points="168.783,181.186 175.484,194.745 190.446,196.917 179.615,207.475 182.175,222.385 
			168.783,215.34 155.401,222.385 157.961,207.475 147.129,196.917 162.092,194.745 		"/>
		<polygon style="fill:#F3D55B;" points="347.171,284.178 353.863,297.737 368.825,299.908 357.994,310.466 360.554,325.367 
			347.171,318.332 333.78,325.367 336.34,310.466 325.508,299.908 340.48,297.737 		"/>
		<polygon style="fill:#F3D55B;" points="153.009,235.405 159.7,248.964 174.671,251.136 163.84,261.694 166.4,276.595 
			153.009,269.559 139.626,276.595 142.186,261.694 131.354,251.136 146.317,248.964 		"/>
		<polygon style="fill:#F3D55B;" points="358.991,235.405 365.683,248.964 380.646,251.136 369.814,261.694 372.374,276.595 
			358.991,269.559 345.6,276.595 348.16,261.694 337.329,251.136 352.3,248.964 		"/>
		<polygon style="fill:#F3D55B;" points="171.52,283.471 178.22,297.031 193.183,299.202 182.351,309.76 184.911,324.67 
			171.52,317.625 158.137,324.67 160.697,309.76 149.866,299.202 164.829,297.031 		"/>
		<polygon style="fill:#F3D55B;" points="349.908,180.48 356.599,194.039 371.562,196.22 360.73,206.777 363.29,221.678 
			349.908,214.643 336.516,221.678 339.076,206.777 328.245,196.22 343.217,194.039 		"/>
		<polygon style="fill:#F3D55B;" points="203.485,318.173 210.185,331.732 225.148,333.912 214.316,344.461 216.876,359.371 
			203.485,352.335 190.102,359.371 192.662,344.461 181.831,333.912 196.793,331.732 		"/>
		<polygon style="fill:#F3D55B;" points="306.476,139.794 313.167,153.353 328.139,155.524 317.308,166.082 319.859,180.983 
			306.476,173.948 293.094,180.983 295.645,166.082 284.822,155.524 299.785,153.353 		"/>
	</g>
</g>
<g>
</g>
<g>
</g>
<g>
</g>
<g>
</g>
<g>
</g>
<g>
</g>
<g>
</g>
<g>
</g>
<g>
</g>
<g>
</g>
<g>
</g>
<g>
</g>
<g>
</g>
<g>
</g>
<g>
</g>
</svg>
