<?xml version="1.0" encoding="iso-8859-1"?>
<!-- Generator: Adobe Illustrator 19.0.0, SVG Export Plug-In . SVG Version: 6.00 Build 0)  -->
<svg version="1.1" id="Capa_1" xmlns="http://www.w3.org/2000/svg" xmlns:xlink="http://www.w3.org/1999/xlink" x="0px" y="0px"
	 viewBox="0 0 512 512" style="enable-background:new 0 0 512 512;" xml:space="preserve">
<g>
	<path style="fill:#E6E7E8;" d="M397.241,432.552h97.103c9.751,0,17.655-7.905,17.655-17.655V97.103
		c0-9.751-7.905-17.655-17.655-17.655H17.655C7.904,79.448,0,87.353,0,97.103v317.793c0,9.751,7.904,17.655,17.655,17.655H397.241z"
		/>
	<g>
		<polygon style="fill:#C03A2B;" points="291.31,432.552 291.31,291.31 512,291.31 512,220.69 291.31,220.69 291.31,79.448 
			220.69,79.448 220.69,220.69 0,220.69 0,291.31 220.69,291.31 220.69,432.552 		"/>
		<polygon style="fill:#C03A2B;" points="150.069,132.414 132.414,132.414 132.414,114.759 97.103,114.759 97.103,132.414 
			79.448,132.414 79.448,167.724 97.103,167.724 97.103,185.379 132.414,185.379 132.414,167.724 150.069,167.724 		"/>
		<polygon style="fill:#C03A2B;" points="432.552,132.414 414.897,132.414 414.897,114.759 379.586,114.759 379.586,132.414 
			361.931,132.414 361.931,167.724 379.586,167.724 379.586,185.379 414.897,185.379 414.897,167.724 432.552,167.724 		"/>
		<polygon style="fill:#C03A2B;" points="150.069,344.276 132.414,344.276 132.414,326.621 97.103,326.621 97.103,344.276 
			79.448,344.276 79.448,379.586 97.103,379.586 97.103,397.241 132.414,397.241 132.414,379.586 150.069,379.586 		"/>
		<polygon style="fill:#C03A2B;" points="432.552,344.276 414.897,344.276 414.897,326.621 379.586,326.621 379.586,344.276 
			361.931,344.276 361.931,379.586 379.586,379.586 379.586,397.241 414.897,397.241 414.897,379.586 432.552,379.586 		"/>
	</g>
</g>
<g>
</g>
<g>
</g>
<g>
</g>
<g>
</g>
<g>
</g>
<g>
</g>
<g>
</g>
<g>
</g>
<g>
</g>
<g>
</g>
<g>
</g>
<g>
</g>
<g>
</g>
<g>
</g>
<g>
</g>
</svg>
