<?xml version="1.0" encoding="iso-8859-1"?>
<!-- Generator: Adobe Illustrator 19.0.0, SVG Export Plug-In . SVG Version: 6.00 Build 0)  -->
<svg version="1.1" id="Capa_1" xmlns="http://www.w3.org/2000/svg" xmlns:xlink="http://www.w3.org/1999/xlink" x="0px" y="0px"
	 viewBox="0 0 512.003 512.003" style="enable-background:new 0 0 512.003 512.003;" xml:space="preserve">
<g transform="translate(0 -1)">
	<path style="fill:#285680;" d="M512.002,98.105v317.793c0.029,2.115-0.361,4.215-1.148,6.179
		c-2.353,6.214-7.967,10.603-14.565,11.388c-0.644,0.076-1.293,0.105-1.942,0.088H17.657c-0.649,0.017-1.298-0.013-1.942-0.088
		c-6.598-0.785-12.212-5.174-14.566-11.388c-0.787-1.964-1.177-4.064-1.148-6.179V98.105c-0.029-2.115,0.361-4.215,1.148-6.179
		c2.353-6.214,7.967-10.603,14.566-11.388c0.644-0.076,1.293-0.105,1.942-0.088h476.69c0.649-0.017,1.298,0.013,1.942,0.088
		c6.598,0.784,12.212,5.174,14.565,11.388C511.641,93.889,512.031,95.99,512.002,98.105z"/>
	<path style="fill:#ECF0F1;" d="M512.002,98.105c0.029-2.115-0.361-4.215-1.148-6.179c-2.353-6.214-7.967-10.603-14.565-11.388
		c-0.644-0.076-1.293-0.105-1.942-0.088h-28.954L308.967,188.323V80.45H203.036v107.873L46.611,80.45H17.657
		c-0.649-0.017-1.298,0.013-1.942,0.088C9.117,81.323,3.502,85.712,1.149,91.926c-0.787,1.964-1.177,4.064-1.148,6.179v14.477
		l132.59,91.454H0.002v105.931h132.502L0.002,401.421v14.477c-0.029,2.115,0.361,4.215,1.148,6.179
		c2.353,6.214,7.967,10.603,14.566,11.388c0.644,0.076,1.293,0.105,1.942,0.088h28.954L203.036,325.68v107.873h105.931V325.68
		l156.425,107.873h28.954c0.649,0.017,1.298-0.013,1.942-0.088c6.598-0.785,12.212-5.174,14.565-11.388
		c0.787-1.964,1.177-4.064,1.148-6.179v-14.477l-132.59-91.454h132.59V204.036H379.499l132.502-91.454V98.105z"/>
	<g>
		<path style="fill:#C03A2B;" d="M510.854,422.077c-2.353,6.214-7.967,10.603-14.565,11.388L317.177,309.967h31.25L510.854,422.077z
			"/>
		<path style="fill:#C03A2B;" d="M194.826,204.036h-31.25L1.149,91.926c2.353-6.214,7.967-10.603,14.566-11.388L194.826,204.036z"/>
		<path style="fill:#C03A2B;" d="M510.854,91.926L348.25,204.036h-30.985L496.288,80.538
			C502.887,81.323,508.501,85.712,510.854,91.926z"/>
		<path style="fill:#C03A2B;" d="M194.738,309.967L15.715,433.465c-6.598-0.785-12.212-5.174-14.566-11.388l162.604-112.11H194.738z
			"/>
		<rect x="0.002" y="239.346" style="fill:#C03A2B;" width="512" height="35.31"/>
		<rect x="238.346" y="80.45" style="fill:#C03A2B;" width="35.31" height="353.103"/>
	</g>
</g>
<g>
</g>
<g>
</g>
<g>
</g>
<g>
</g>
<g>
</g>
<g>
</g>
<g>
</g>
<g>
</g>
<g>
</g>
<g>
</g>
<g>
</g>
<g>
</g>
<g>
</g>
<g>
</g>
<g>
</g>
</svg>
