<?xml version="1.0" encoding="iso-8859-1"?>
<!-- Generator: Adobe Illustrator 19.0.0, SVG Export Plug-In . SVG Version: 6.00 Build 0)  -->
<svg version="1.1" id="Capa_1" xmlns="http://www.w3.org/2000/svg" xmlns:xlink="http://www.w3.org/1999/xlink" x="0px" y="0px"
	 viewBox="0 0 512 512" style="enable-background:new 0 0 512 512;" xml:space="preserve">
<g>
	<path style="fill:#E6E7E8;" d="M512,397.241v17.655c-0.029,9.739-7.916,17.627-17.655,17.655H17.655
		C7.916,432.523,0.029,424.635,0,414.897v-17.655H512z"/>
	<g>
		<path style="fill:#8697CB;" d="M512,97.103v300.138H0V97.103c0.028-9.739,7.916-17.627,17.655-17.655h476.69
			C504.084,79.477,511.972,87.365,512,97.103z"/>
		<polyline style="fill:#8697CB;" points="17.655,79.448 247.172,79.448 247.172,256 0,256 0,97.103 		"/>
	</g>
	<g>
		<rect x="247.172" y="114.759" style="fill:#E6E7E8;" width="264.828" height="35.31"/>
		<rect x="247.172" y="185.379" style="fill:#E6E7E8;" width="264.828" height="35.31"/>
		<rect y="256" style="fill:#E6E7E8;" width="512" height="35.31"/>
		<polygon style="fill:#E6E7E8;" points="320.618,361.931 512,361.931 512,326.621 0,326.621 0,361.931 191.382,361.931 		"/>
		<polygon style="fill:#E6E7E8;" points="141.241,185.379 141.241,256 105.931,256 105.931,185.379 0,185.379 0,150.069 
			105.931,150.069 105.931,79.448 141.241,79.448 141.241,150.069 247.172,150.069 247.172,185.379 		"/>
	</g>
</g>
<g>
</g>
<g>
</g>
<g>
</g>
<g>
</g>
<g>
</g>
<g>
</g>
<g>
</g>
<g>
</g>
<g>
</g>
<g>
</g>
<g>
</g>
<g>
</g>
<g>
</g>
<g>
</g>
<g>
</g>
</svg>
