<?xml version="1.0" encoding="iso-8859-1"?>
<!-- Generator: Adobe Illustrator 19.0.0, SVG Export Plug-In . SVG Version: 6.00 Build 0)  -->
<svg version="1.1" id="Capa_1" xmlns="http://www.w3.org/2000/svg" xmlns:xlink="http://www.w3.org/1999/xlink" x="0px" y="0px"
	 viewBox="0 0 512 512" style="enable-background:new 0 0 512 512;" xml:space="preserve">
<g>
	<path style="fill:#E6E7E8;" d="M397.241,432.552h97.103c9.751,0,17.655-7.905,17.655-17.655V97.103
		c0-9.751-7.905-17.655-17.655-17.655H17.655C7.904,79.448,0,87.353,0,97.103v317.793c0,9.751,7.904,17.655,17.655,17.655H397.241z"
		/>
	<polygon style="fill:#C03A2B;" points="194.207,194.207 194.207,79.448 317.793,79.448 317.793,194.207 512,194.207 512,317.793 
		317.793,317.793 317.793,397.241 317.793,432.552 194.207,432.552 194.207,397.241 194.207,361.137 194.207,317.793 0,317.793 
		0,194.207 	"/>
	<polygon style="fill:#F0C419;" points="397.241,220.69 397.241,291.31 370.759,273.655 273.655,273.655 273.655,370.759 
		291.31,397.241 220.69,397.241 238.345,370.759 238.345,273.655 141.241,273.655 114.759,291.31 114.759,220.69 141.241,238.345 
		238.345,238.345 238.345,141.241 220.69,114.759 291.31,114.759 273.655,141.241 273.655,238.345 370.759,238.345 	"/>
</g>
<g>
</g>
<g>
</g>
<g>
</g>
<g>
</g>
<g>
</g>
<g>
</g>
<g>
</g>
<g>
</g>
<g>
</g>
<g>
</g>
<g>
</g>
<g>
</g>
<g>
</g>
<g>
</g>
<g>
</g>
</svg>
