<?xml version="1.0" encoding="iso-8859-1"?>
<!-- Generator: Adobe Illustrator 19.0.0, SVG Export Plug-In . SVG Version: 6.00 Build 0)  -->
<svg version="1.1" id="Capa_1" xmlns="http://www.w3.org/2000/svg" xmlns:xlink="http://www.w3.org/1999/xlink" x="0px" y="0px"
	 viewBox="0 0 512.004 512.004" style="enable-background:new 0 0 512.004 512.004;" xml:space="preserve">
<g transform="translate(0 -1)">
	<path style="fill:#C03A2B;" d="M167.724,80.45v353.103H18.636C8.629,433.787,0.307,425.904,0,415.899V98.105
		C0.307,88.1,8.629,80.216,18.636,80.45H167.724z"/>
	<path style="fill:#F0C419;" d="M512,98.988V265.83H158.897V80.45h335.448C504.324,80.729,512.208,89.007,512,98.988z"/>
	<path style="fill:#4C8056;" d="M512,257.002v158.897c-0.029,9.739-7.916,17.626-17.655,17.655H158.897V257.002H512z"/>
	<polygon style="fill:#2C2F38;" points="79.448,212.864 93.087,241.925 123.586,246.585 101.517,269.202 106.726,301.14 
		79.448,286.062 52.171,301.14 57.379,269.202 35.31,246.585 65.81,241.925 	"/>
</g>
<g>
</g>
<g>
</g>
<g>
</g>
<g>
</g>
<g>
</g>
<g>
</g>
<g>
</g>
<g>
</g>
<g>
</g>
<g>
</g>
<g>
</g>
<g>
</g>
<g>
</g>
<g>
</g>
<g>
</g>
</svg>
