<?xml version="1.0" encoding="iso-8859-1"?>
<!-- Generator: Adobe Illustrator 19.0.0, SVG Export Plug-In . SVG Version: 6.00 Build 0)  -->
<svg version="1.1" id="Capa_1" xmlns="http://www.w3.org/2000/svg" xmlns:xlink="http://www.w3.org/1999/xlink" x="0px" y="0px"
	 viewBox="0 0 512 512" style="enable-background:new 0 0 512 512;" xml:space="preserve">
<g>
	<path style="fill:#2C2F38;" d="M5.473,427.343l0.971,1.149c-4.087-3.329-6.455-8.324-6.444-13.595v-28.778L150.069,256L0,125.881
		V97.103c-0.011-5.271,2.357-10.266,6.444-13.594l-0.971,1.148L203.035,256L5.473,427.343z"/>
	<path style="fill:#4C8056;" d="M512,97.103v317.793c-0.029,9.739-7.916,17.626-17.655,17.655H17.655
		c-4.056,0.008-7.989-1.397-11.123-3.972l-0.088-0.088l-0.971-1.149L203.035,256L5.473,84.657l0.971-1.148l0.088-0.088
		c3.133-2.576,7.066-3.981,11.123-3.972h476.69C504.084,79.477,511.972,87.365,512,97.103z"/>
	<polygon style="fill:#F0C419;" points="512,256 6.532,428.579 6.444,428.491 5.473,427.343 203.035,256 5.473,84.657 6.444,83.509 
		6.532,83.421 	"/>
	<polygon style="fill:#C03A2B;" points="150.069,256 0,386.119 0,125.881 	"/>
</g>
<g>
</g>
<g>
</g>
<g>
</g>
<g>
</g>
<g>
</g>
<g>
</g>
<g>
</g>
<g>
</g>
<g>
</g>
<g>
</g>
<g>
</g>
<g>
</g>
<g>
</g>
<g>
</g>
<g>
</g>
</svg>
