<?xml version="1.0" encoding="iso-8859-1"?>
<!-- Generator: Adobe Illustrator 19.0.0, SVG Export Plug-In . SVG Version: 6.00 Build 0)  -->
<svg version="1.1" id="Capa_1" xmlns="http://www.w3.org/2000/svg" xmlns:xlink="http://www.w3.org/1999/xlink" x="0px" y="0px"
	 viewBox="0 0 512 512" style="enable-background:new 0 0 512 512;" xml:space="preserve">
<g>
	<path style="fill:#2980BA;" d="M397.241,432.552h97.103c9.751,0,17.655-7.905,17.655-17.655V97.103
		c0-9.751-7.905-17.655-17.655-17.655H17.655C7.904,79.448,0,87.353,0,97.103v317.793c0,9.751,7.904,17.655,17.655,17.655H397.241z"
		/>
	<polygon style="fill:#E6E7E8;" points="344.629,370.759 512,370.759 512,141.241 0,141.241 0,370.759 167.371,370.759 	"/>
	<g>
		<polygon style="fill:#2980BA;" points="141.241,167.751 152.708,190.985 178.353,194.71 159.797,212.807 164.184,238.345 
			141.241,226.286 118.298,238.345 122.686,212.807 104.13,194.71 129.774,190.985 		"/>
		<polygon style="fill:#2980BA;" points="256,220.716 267.467,243.95 293.111,247.676 274.556,265.772 278.943,291.31 256,279.252 
			233.057,291.31 237.444,265.772 218.889,247.676 244.533,243.95 		"/>
		<polygon style="fill:#2980BA;" points="141.241,264.828 152.708,288.071 178.353,291.796 159.797,309.884 164.184,335.422 
			141.241,323.363 118.298,335.422 122.686,309.884 104.13,291.796 129.774,288.071 		"/>
		<polygon style="fill:#2980BA;" points="370.759,167.751 382.226,190.985 407.87,194.71 389.314,212.807 393.702,238.345 
			370.759,226.286 347.816,238.345 352.203,212.807 333.647,194.71 359.292,190.985 		"/>
		<polygon style="fill:#2980BA;" points="370.759,264.828 382.226,288.071 407.87,291.796 389.314,309.884 393.702,335.422 
			370.759,323.363 347.816,335.422 352.203,309.884 333.647,291.796 359.292,288.071 		"/>
	</g>
</g>
<g>
</g>
<g>
</g>
<g>
</g>
<g>
</g>
<g>
</g>
<g>
</g>
<g>
</g>
<g>
</g>
<g>
</g>
<g>
</g>
<g>
</g>
<g>
</g>
<g>
</g>
<g>
</g>
<g>
</g>
</svg>
