<?xml version="1.0" encoding="iso-8859-1"?>
<!-- Generator: Adobe Illustrator 19.0.0, SVG Export Plug-In . SVG Version: 6.00 Build 0)  -->
<svg version="1.1" id="Capa_1" xmlns="http://www.w3.org/2000/svg" xmlns:xlink="http://www.w3.org/1999/xlink" x="0px" y="0px"
	 viewBox="0 0 512 512" style="enable-background:new 0 0 512 512;" xml:space="preserve">
<g>
	<path style="fill:#F29C1F;" d="M397.241,432.552h97.103c9.751,0,17.655-7.905,17.655-17.655V97.103
		c0-9.751-7.905-17.655-17.655-17.655H17.655C7.904,79.448,0,87.353,0,97.103v317.793c0,9.751,7.904,17.655,17.655,17.655H397.241z"
		/>
	<path style="fill:#4C8056;" d="M512,326.621v88.276c-0.029,9.739-7.916,17.627-17.655,17.655H17.655
		C7.916,432.523,0.029,424.635,0,414.897v-88.276H512z"/>
	<rect y="176.552" style="fill:#E6E7E8;" width="512" height="158.897"/>
	<g>
		<path style="fill:#2C3E50;" d="M256,344.276c-48.753,0-88.276-39.522-88.276-88.276s39.522-88.276,88.276-88.276
			s88.276,39.522,88.276,88.276C344.222,304.731,304.731,344.222,256,344.276z M256,185.379c-39.003,0-70.621,31.618-70.621,70.621
			s31.618,70.621,70.621,70.621s70.621-31.618,70.621-70.621C326.576,217.016,294.984,185.424,256,185.379z"/>
		<path style="fill:#2C3E50;" d="M300.138,247.172H277.31l16.142-16.142c2.236-2.229,3.112-5.482,2.297-8.532
			s-3.198-5.432-6.248-6.248c-3.05-0.815-6.303,0.06-8.532,2.297l-16.142,16.142v-22.828c0-4.875-3.952-8.828-8.828-8.828
			s-8.828,3.952-8.828,8.828v22.828l-16.142-16.142c-2.229-2.236-5.482-3.112-8.532-2.297c-3.05,0.815-5.432,3.198-6.248,6.248
			c-0.815,3.05,0.06,6.303,2.297,8.532l16.142,16.142h-22.828c-4.875,0-8.828,3.952-8.828,8.828s3.952,8.828,8.828,8.828h22.828
			l-16.142,16.142c-2.236,2.229-3.112,5.482-2.297,8.532c0.815,3.05,3.198,5.432,6.248,6.248c3.05,0.815,6.303-0.06,8.532-2.297
			l16.142-16.142v22.828c0,4.875,3.952,8.828,8.828,8.828s8.828-3.952,8.828-8.828V277.31l16.142,16.142
			c2.229,2.236,5.482,3.112,8.532,2.297c3.05-0.815,5.432-3.198,6.248-6.248c0.815-3.05-0.06-6.303-2.297-8.532l-16.142-16.142
			h22.828c4.875,0,8.828-3.952,8.828-8.828S305.013,247.172,300.138,247.172z"/>
	</g>
</g>
<g>
</g>
<g>
</g>
<g>
</g>
<g>
</g>
<g>
</g>
<g>
</g>
<g>
</g>
<g>
</g>
<g>
</g>
<g>
</g>
<g>
</g>
<g>
</g>
<g>
</g>
<g>
</g>
<g>
</g>
</svg>
