<?xml version="1.0" encoding="iso-8859-1"?>
<!-- Generator: Adobe Illustrator 19.0.0, SVG Export Plug-In . SVG Version: 6.00 Build 0)  -->
<svg version="1.1" id="Capa_1" xmlns="http://www.w3.org/2000/svg" xmlns:xlink="http://www.w3.org/1999/xlink" x="0px" y="0px"
	 viewBox="0 0 512 512" style="enable-background:new 0 0 512 512;" xml:space="preserve">
<g>
	<path style="fill:#2C2F38;" d="M494.345,79.448H17.655c-4.553-0.02-8.931,1.756-12.182,4.943C1.989,87.704,0.012,92.297,0,97.103
		v317.793c0.012,4.807,1.989,9.4,5.473,12.712c3.252,3.187,7.629,4.964,12.182,4.943h476.69c9.739-0.029,17.627-7.916,17.655-17.655
		V97.103C511.972,87.365,504.084,79.477,494.345,79.448z"/>
	<path style="fill:#4C8056;" d="M512,300.138v114.759c-0.029,9.739-7.916,17.627-17.655,17.655H17.655
		c-4.553,0.02-8.93-1.756-12.182-4.943l205.771-127.47H512z"/>
	<path style="fill:#C03A2B;" d="M282.483,256l-71.239,44.138L5.473,427.608c-3.484-3.312-5.461-7.905-5.473-12.712V97.103
		c0.012-4.807,1.989-9.4,5.473-12.712l205.771,127.47L282.483,256z"/>
	<g>
		<polygon style="fill:#E6E7E8;" points="512,211.862 512,300.138 211.244,300.138 282.483,256 211.244,211.862 		"/>
		<polygon style="fill:#E6E7E8;" points="97.103,185.379 112.817,223.656 153.741,211.606 132.414,247.287 167.724,270.539 
			125.422,276.754 128.53,317.793 97.103,289.863 65.677,317.793 68.785,276.754 26.483,270.539 61.793,247.287 40.466,211.606 
			81.39,223.656 		"/>
	</g>
</g>
<g>
</g>
<g>
</g>
<g>
</g>
<g>
</g>
<g>
</g>
<g>
</g>
<g>
</g>
<g>
</g>
<g>
</g>
<g>
</g>
<g>
</g>
<g>
</g>
<g>
</g>
<g>
</g>
<g>
</g>
</svg>
