<?xml version="1.0" encoding="iso-8859-1"?>
<!-- Generator: Adobe Illustrator 19.0.0, SVG Export Plug-In . SVG Version: 6.00 Build 0)  -->
<svg version="1.1" id="Capa_1" xmlns="http://www.w3.org/2000/svg" xmlns:xlink="http://www.w3.org/1999/xlink" x="0px" y="0px"
	 viewBox="0 0 512 512" style="enable-background:new 0 0 512 512;" xml:space="preserve">
<g>
	<path style="fill:#4C8056;" d="M512,97.103v105.931H158.897L5.914,84.039c3.182-2.977,7.384-4.62,11.741-4.59h476.69
		C504.084,79.477,511.972,87.365,512,97.103z"/>
	<path style="fill:#C03A2B;" d="M512,308.966v105.931c-0.029,9.739-7.916,17.627-17.655,17.655H17.655
		c-4.357,0.03-8.559-1.613-11.741-4.59l152.982-118.996H512z"/>
	<rect x="158.897" y="203.034" style="fill:#E6E7E8;" width="353.103" height="105.931"/>
	<path style="fill:#2C2F38;" d="M158.897,203.034v105.931L5.914,427.961c-3.763-3.298-5.919-8.061-5.914-13.065V97.103
		c-0.004-5.004,2.151-9.766,5.914-13.065L158.897,203.034z"/>
</g>
<g>
</g>
<g>
</g>
<g>
</g>
<g>
</g>
<g>
</g>
<g>
</g>
<g>
</g>
<g>
</g>
<g>
</g>
<g>
</g>
<g>
</g>
<g>
</g>
<g>
</g>
<g>
</g>
<g>
</g>
</svg>
