<?xml version="1.0" encoding="iso-8859-1"?>
<!-- Generator: Adobe Illustrator 19.0.0, SVG Export Plug-In . SVG Version: 6.00 Build 0)  -->
<svg version="1.1" id="Capa_1" xmlns="http://www.w3.org/2000/svg" xmlns:xlink="http://www.w3.org/1999/xlink" x="0px" y="0px"
	 viewBox="0 0 512 512" style="enable-background:new 0 0 512 512;" xml:space="preserve">
<g>
	<path style="fill:#E6E7E8;" d="M256,79.448v353.103H17.655C7.916,432.523,0.029,424.635,0,414.897V97.103
		c0.028-9.739,7.916-17.627,17.655-17.655H256z"/>
	<path style="fill:#C03A2B;" d="M512,97.103v317.793c-0.029,9.739-7.916,17.627-17.655,17.655H256V79.448h238.345
		C504.084,79.477,511.972,87.364,512,97.103z"/>
	<g>
		<polyline style="fill:#95A5A5;" points="141.241,229.517 141.241,273.655 88.276,273.655 88.276,229.517 		"/>
		<polyline style="fill:#95A5A5;" points="88.276,158.897 88.276,114.759 141.241,114.759 141.241,158.897 		"/>
		<polyline style="fill:#95A5A5;" points="150.069,220.69 194.207,220.69 194.207,167.724 150.069,167.724 		"/>
		<polyline style="fill:#95A5A5;" points="79.448,220.69 35.31,220.69 35.31,167.724 79.448,167.724 		"/>
		<circle style="fill:#95A5A5;" cx="114.759" cy="194.207" r="44.138"/>
	</g>
	<path style="fill:#C03A2B;" d="M194.207,158.897h-40.081c-1.278-1.424-2.632-2.778-4.057-4.056v-40.082
		c0.001-2.341-0.929-4.587-2.585-6.243c-1.656-1.656-3.901-2.585-6.243-2.585H88.276c-2.341-0.001-4.587,0.929-6.243,2.585
		c-1.656,1.656-2.585,3.901-2.585,6.243v40.082c-1.424,1.278-2.779,2.632-4.057,4.056H35.31c-2.341-0.001-4.587,0.929-6.243,2.585
		c-1.656,1.656-2.585,3.901-2.585,6.243v52.966c-0.001,2.341,0.929,4.587,2.585,6.243c1.656,1.656,3.901,2.585,6.243,2.585h40.081
		c1.278,1.424,2.632,2.778,4.057,4.056v40.082c-0.001,2.341,0.929,4.587,2.585,6.243c1.656,1.656,3.901,2.585,6.243,2.585h52.966
		c2.341,0.001,4.587-0.929,6.243-2.585c1.656-1.656,2.585-3.901,2.585-6.243v-40.082c1.424-1.278,2.779-2.632,4.057-4.056h40.081
		c2.341,0.001,4.587-0.929,6.243-2.585s2.585-3.901,2.585-6.243v-52.966c0.001-2.341-0.929-4.587-2.585-6.243
		S196.548,158.896,194.207,158.897z M79.448,194.207c0-19.501,15.809-35.31,35.31-35.31s35.31,15.809,35.31,35.31
		s-15.809,35.31-35.31,35.31C95.266,229.496,79.469,213.7,79.448,194.207z M97.103,123.586h35.31v20.746
		c-11.409-4.121-23.901-4.121-35.31,0V123.586z M44.138,211.862v-35.31h20.745c-4.12,11.41-4.12,23.901,0,35.31H44.138z
		 M132.414,264.828h-35.31v-20.746c11.409,4.121,23.901,4.121,35.31,0V264.828z M185.379,211.862h-20.745
		c4.12-11.41,4.12-23.901,0-35.31h20.745V211.862z"/>
</g>
<g>
</g>
<g>
</g>
<g>
</g>
<g>
</g>
<g>
</g>
<g>
</g>
<g>
</g>
<g>
</g>
<g>
</g>
<g>
</g>
<g>
</g>
<g>
</g>
<g>
</g>
<g>
</g>
<g>
</g>
</svg>
