<?xml version="1.0" encoding="utf-8"?>
<!-- Generator: Adobe Illustrator 21.0.0, SVG Export Plug-In . SVG Version: 6.00 Build 0)  -->
<svg version="1.1" id="Capa_1" xmlns="http://www.w3.org/2000/svg" xmlns:xlink="http://www.w3.org/1999/xlink" x="0px" y="0px"
	 viewBox="0 0 180 180" style="enable-background:new 0 0 180 180;" xml:space="preserve">
<style type="text/css">
	.st0{fill:#006847;}
	.st1{fill:#E6E7E8;}
	.st2{fill:#CE1126;}
	.st3{fill:#A6D388;}
	.st4{fill:#5C913B;}
	.st5{fill:#55ACEE;}
	.st6{fill:#FFCC4D;}
	.st7{fill:#C1694F;}
</style>
<g>
	<g>
		<path class="st0" d="M63.9,36.9H15.7c-2,0-3.6,2.4-3.6,5.3v95.6c0,2.9,1.6,5.3,3.6,5.3h48.2V36.9z"/>
		<path class="st1" d="M121.7,36.9H57.2v106.2h64.5c2.6,0,4.8-2.4,4.8-5.3V42.2C126.5,39.3,124.4,36.9,121.7,36.9z"/>
		<path class="st2" d="M164.4,36.9h-46v106.2h46c1.9,0,3.4-2.4,3.4-5.3V42.2C167.8,39.3,166.3,36.9,164.4,36.9z"/>
	</g>
	<g transform="matrix(1.25 0 0 -1.25 0 45)">
		<g>
			<g>
				<path class="st3" d="M86.1-37.3c0-7.5-6.5-13.6-14.4-13.6c-8,0-14.4,6.1-14.4,13.6h-2.9c0-9,7.7-16.3,17.3-16.3S89-46.3,89-37.3
					L86.1-37.3L86.1-37.3z"/>
				<g>
					<path class="st4" d="M58.9-43.4c-0.3,0.5-0.8,0.8-1.3,0.7c-0.2,0-0.4-0.1-0.6-0.1c-0.7-0.3-1-1.2-0.6-1.8
						c0.3-0.5,0.5-1,0.9-1.4c0,0,0,0,0,0c0,0,0,0,0,0l0,0c0,0,0,0,0,0c0,0,0,0,0,0c0,0,0,0,0,0c0,0,0,0,0,0c0,0,0,0,0,0c0,0,0,0,0,0
						c0,0,0,0,0,0v0c0,0,0,0,0,0c0,0,0,0,0,0c0,0,0,0,0,0c0,0,0,0,0,0c0,0,0,0,0,0c0,0,0,0,0,0c0,0,0,0,0,0c0,0,0,0,0,0c0,0,0,0,0,0
						c0,0,0,0,0,0c0,0,0,0,0,0c0,0,0,0,0,0c0,0,0,0,0,0c0,0,0,0,0,0c0,0,0,0,0,0c0,0,0,0,0,0c0,0,0,0,0,0c0,0,0,0,0,0v0
						c0.1-0.2,0.3-0.4,0.5-0.6c0.3-0.4,0.8-0.6,1.2-0.5c0.3,0,0.6,0.1,0.8,0.3c0.6,0.4,0.8,1.3,0.3,1.9
						C59.7-44.8,59.3-44.1,58.9-43.4"/>
					<path class="st4" d="M57.5-39.1c-0.1,0.4-0.1,0.9-0.1,1.3c0,0.3,0,0.6,0,1c0,0.7-0.6,1.4-1.4,1.4c0,0-0.1,0-0.1,0
						c-0.7,0-1.4-0.6-1.4-1.3c0-0.3,0-0.6,0-0.8c0,0,0,0,0,0l0,0c0,0,0,0,0,0l0,0c0,0,0,0,0,0v0v0c0,0,0,0,0,0v0c0,0,0,0,0,0
						c0,0,0,0,0,0c0,0,0,0,0,0c0,0,0,0,0,0c0,0,0,0,0,0c0,0,0,0,0,0v0c0,0,0,0,0,0v0c0,0,0,0,0,0v0c0,0,0,0,0,0v0c0,0,0,0,0,0v0
						c0,0,0,0,0,0v0v0c0,0,0,0,0,0v0c0,0,0,0,0,0c0,0,0,0,0,0v0c0,0,0,0,0,0v0c0,0,0,0,0,0c0,0,0,0,0,0v0c0,0,0,0,0,0v0v0v0v0
						c0,0,0,0,0,0v0v0c0,0,0,0,0,0v0c0,0,0,0,0,0v0c0,0,0,0,0,0c0,0,0,0,0-0.1c0,0,0,0,0,0v0c0,0,0,0,0,0v0v0l0,0
						c0-0.4,0.1-0.9,0.1-1.3c0.1-0.7,0.8-1.2,1.5-1.2c0,0,0.1,0,0.1,0C57-40.6,57.6-39.9,57.5-39.1"/>
					<path class="st4" d="M72.7-50.8C72.7-50.8,72.7-50.8,72.7-50.8l-0.4,0c-0.7,0-1.4,0-2,0.1c-0.1,0-0.1,0-0.2,0
						c-0.7,0-1.3-0.5-1.4-1.2c-0.1-0.7,0.5-1.4,1.3-1.5c0.1,0,0.2,0,0.4,0l0,0c0,0,0,0,0,0c0,0,0,0,0,0c0,0,0,0,0,0h0c0,0,0,0,0,0h0
						h0c0,0,0,0,0,0h0c0,0,0,0,0,0c0,0,0,0,0,0h0h0c0,0,0,0,0,0l0,0c0,0,0,0,0,0h0c0,0,0,0,0,0h0l0,0c0,0,0,0,0,0l0,0c0,0,0,0,0,0
						c0.4,0,0.9,0,1.3,0c0,0,0,0,0.1,0h0h0h0h0c0,0,0,0,0,0c0,0,0,0,0,0h0h0h0c0,0,0,0,0,0h0h0l0,0c0,0,0,0,0,0h0h0l0,0c0,0,0,0,0,0
						h0c0,0,0,0,0,0c0,0,0,0,0,0c0,0,0,0,0,0h0c0,0,0,0,0,0h0h0h0c0,0,0,0,0,0h0h0l0,0c0,0,0,0,0,0h0h0h0c0,0,0,0,0,0h0h0h0h0h0h0
						c0,0,0,0,0,0l0,0h0h0c0,0,0,0,0,0h0c0,0,0,0,0,0h0h0l0,0c0,0,0,0,0,0l0,0h0c0.1,0,0.2,0,0.4,0c0.8,0.1,1.4,0.7,1.3,1.4
						C74.2-51.4,73.5-50.8,72.7-50.8"/>
					<path class="st4" d="M65.7-49.6c-0.7,0.3-1.4,0.7-2.1,1.1c-0.3,0.2-0.6,0.2-0.9,0.2c-0.4,0-0.9-0.2-1.1-0.6
						c-0.4-0.6-0.3-1.5,0.4-1.9c0,0,0,0,0,0c0,0,0,0,0,0c0,0,0,0,0,0h0c0,0,0,0,0,0l0,0c0,0,0,0,0,0h0c0.8-0.5,1.6-0.9,2.4-1.3
						c0.2-0.1,0.4-0.1,0.7-0.1c0.5,0,1,0.3,1.2,0.8C66.7-50.7,66.4-49.9,65.7-49.6"/>
					<path class="st4" d="M80.2-48.5c-0.2,0-0.5-0.1-0.7-0.2c-0.7-0.4-1.4-0.8-2.1-1.1c-0.7-0.3-1.1-1.1-0.8-1.8
						c0.2-0.5,0.8-0.9,1.4-0.8c0.2,0,0.3,0,0.5,0.1c0.1,0.1,0.3,0.1,0.4,0.2h0c0,0,0,0,0,0c0,0,0,0,0,0c0,0,0,0,0,0c0,0,0,0,0,0
						c0,0,0,0,0,0c0,0,0,0,0,0c0,0,0,0,0,0c0,0,0,0,0,0c0,0,0,0,0,0c0,0,0,0,0,0c0,0,0,0,0,0c0,0,0,0,0,0c0,0,0,0,0,0c0,0,0,0,0,0
						l0,0c0,0,0,0,0,0c0,0,0,0,0,0c0,0,0,0,0,0h0c0,0,0,0,0,0c0,0,0,0,0,0l0,0c0,0,0,0,0,0c0,0,0,0,0,0c0,0,0,0,0,0c0,0,0,0,0,0
						c0,0,0,0,0,0c0,0,0,0,0,0c0,0,0,0,0,0c0,0,0,0,0,0h0c0,0,0,0,0,0c0,0,0,0,0,0c0,0,0,0,0,0h0c0,0,0,0,0,0c0,0,0,0,0,0
						c0,0,0,0,0,0c0,0,0,0,0,0c0,0,0,0,0,0c0,0,0,0,0,0s0,0,0,0h0c0,0,0,0,0,0v0c0,0,0,0,0,0h0c0,0,0,0,0.1,0c0,0,0,0,0,0
						c0,0,0,0,0,0c0,0,0,0,0,0h0c0,0,0,0,0,0c0,0,0,0,0,0s0,0,0,0c0,0,0,0,0,0l0,0c0,0,0,0,0,0h0c0,0,0,0,0,0c0,0,0,0,0,0
						c0,0,0,0,0,0h0c0,0,0,0,0,0c0,0,0,0,0,0h0c0,0,0,0,0,0v0c0,0,0,0,0,0l0,0c0,0,0,0,0,0v0c0,0,0,0,0,0l0,0c0,0,0,0,0,0s0,0,0,0
						c0,0,0,0,0,0c0,0,0,0,0,0c0,0,0,0,0,0c0,0,0,0,0,0c0,0,0,0,0,0c0,0,0,0,0,0c0,0,0,0,0,0c0,0,0,0,0,0c0,0,0,0,0,0c0,0,0,0,0,0
						c0,0,0,0,0,0c0,0,0,0,0,0c0,0,0,0,0,0c0,0,0,0,0,0c0,0,0,0,0,0c0,0,0,0,0,0c0,0,0,0,0,0c0,0,0,0,0,0c0,0,0,0,0,0c0,0,0,0,0,0
						c0,0,0,0,0,0c0,0,0,0,0,0c0,0,0,0,0,0c0,0,0,0,0,0c0,0,0,0,0,0l0,0c0,0,0,0,0,0c0,0,0,0,0,0c0,0,0,0,0,0c0,0,0,0,0,0
						c0,0,0,0,0,0c0,0,0,0,0,0c0,0,0,0,0,0c0,0,0,0,0,0c0,0,0,0,0,0c0,0,0,0,0,0c0,0,0,0,0,0c0,0,0,0,0,0c0,0,0,0,0,0c0,0,0,0,0,0
						c0,0,0,0,0,0c0,0,0,0,0,0c0,0,0,0,0,0v0c0,0,0,0,0,0c0,0,0,0,0,0c0,0,0,0,0.1,0h0c0.2,0.1,0.4,0.2,0.5,0.3
						c0.7,0.4,0.9,1.2,0.4,1.9C81.2-48.7,80.7-48.5,80.2-48.5"/>
					<path class="st4" d="M87.6-36C87.6-36,87.5-36,87.6-36c-0.9,0-1.5-0.7-1.4-1.5c0-0.7,0-1.4-0.2-2c-0.2-0.8,0.3-1.6,1.1-1.7
						c0.1,0,0.2,0,0.3,0c0.7,0,1.2,0.5,1.4,1.1v0l0,0c0,0,0,0,0,0c0,0,0,0,0,0c0,0,0,0,0,0v0c0,0,0,0,0,0v0c0,0,0,0,0,0v0v0v0v0
						c0,0,0,0,0,0v0v0c0.1,0.4,0.1,0.7,0.1,1.1c0,0,0,0,0,0c0,0,0,0,0,0v0c0,0,0,0,0,0v0v0v0c0,0,0,0,0,0v0c0,0,0,0,0,0v0
						c0,0,0,0,0,0v0c0,0,0,0,0,0c0,0,0,0,0,0v0v0c0,0,0,0,0,0v0v0v0c0,0,0,0,0,0v0c0,0,0,0,0,0v0c0,0.4,0.1,0.9,0.1,1.3
						C89-36.6,88.4-36,87.6-36"/>
					<path class="st4" d="M86.3-43.3c-0.2,0.1-0.5,0.2-0.8,0.2c-0.5,0-0.9-0.3-1.2-0.7c-0.4-0.7-0.8-1.3-1.3-1.9
						c-0.5-0.6-0.4-1.4,0.2-1.9c0.3-0.2,0.6-0.3,1-0.3c0.4,0,0.8,0.2,1.1,0.5c0.3,0.4,0.7,0.8,1,1.2c0,0,0,0,0,0.1l0,0c0,0,0,0,0,0
						v0c0,0,0,0,0,0c0,0,0,0,0,0l0,0c0,0,0,0,0,0v0c0,0,0,0,0,0c0,0,0,0,0,0c0,0,0,0,0,0v0c0,0,0,0,0,0c0,0,0,0,0,0c0,0,0,0,0,0
						c0,0,0,0,0,0c0,0,0,0,0,0c0,0,0,0,0,0c0,0,0,0,0,0h0c0,0,0,0,0,0c0,0,0,0,0,0c0,0,0,0,0,0c0,0,0,0,0,0c0,0,0,0,0,0c0,0,0,0,0,0
						c0,0,0,0,0,0c0,0,0,0,0,0v0c0,0,0,0,0,0c0,0,0,0,0,0c0,0,0,0,0,0c0,0,0,0,0,0c0,0,0,0,0,0c0,0,0,0,0,0c0,0,0,0,0,0s0,0,0,0
						c0,0,0,0,0,0c0,0,0,0,0,0c0,0,0,0,0,0s0,0,0,0c0,0,0,0,0,0c0,0,0,0,0,0c0,0,0,0,0,0c0,0,0,0,0,0s0,0,0,0c0,0,0,0,0,0
						c0,0,0,0,0,0c0,0,0,0,0,0c0,0,0,0,0,0s0,0,0,0v0c0,0,0,0,0,0v0c0,0,0,0,0,0c0,0,0,0,0,0c0,0,0,0,0,0c0,0,0,0,0,0c0,0,0,0,0,0v0
						c0,0,0,0,0,0c0,0,0,0,0,0c0,0,0,0,0,0c0,0,0,0,0,0c0,0,0,0,0,0c0,0,0,0,0,0c0,0,0,0,0,0c0,0,0,0,0,0c0,0,0,0,0,0l0,0
						c0,0,0,0,0,0c0,0,0,0,0,0c0,0,0,0,0,0c0,0,0,0,0,0c0,0,0,0,0,0c0,0,0,0,0,0c0,0,0,0,0,0c0,0,0,0,0,0c0,0,0,0,0,0s0,0,0,0
						c0,0,0,0,0,0c0,0,0,0,0,0c0,0,0,0,0,0l0,0c0,0,0,0,0,0v0c0,0,0,0,0,0c0,0,0,0,0,0v0c0,0,0,0,0,0c0,0,0,0,0,0c0,0,0,0.1,0.1,0.1
						C87.3-44.5,87-43.7,86.3-43.3"/>
				</g>
				<path class="st5" d="M80.4-45.4c0-1.5-3.9-2.7-8.6-2.7s-8.6,1.2-8.6,2.7c0,1.5,3.9,2.7,8.6,2.7S80.4-43.9,80.4-45.4"/>
				<path class="st6" d="M77.5-45.4c0-1.5-1.9-2.7-4.3-2.7c-2.4,0-4.3,1.2-4.3,2.7c0,1.5,1.9,2.7,4.3,2.7
					C75.6-42.7,77.5-43.9,77.5-45.4"/>
				<g>
					<path class="st4" d="M70.9-41.9c-0.1,0-0.1,0-0.2,0c-1.1,0.1-2.1,0.3-3,0.6c-0.8,0.2-1.2,1-1,1.7c0,0,0,0,0,0.1c0,0,0,0,0-0.1
						c-0.4-0.7-1.3-0.9-2-0.5c-0.9,0.5-1.8,1.1-2.5,1.8c-0.5,0.5-0.7,1.3-0.2,1.8c0.5,0.7,1.6,0.7,2.2,0.1c0.6-0.5,1.2-1,2-1.4
						c0.6-0.3,0.9-1,0.7-1.6c0.3,0.6,1,0.9,1.7,0.7c0.8-0.2,1.7-0.4,2.6-0.5c0.8-0.1,1.3-0.8,1.2-1.5C72.2-41.4,71.6-41.9,70.9-41.9
						 M75-46.2c-0.2,0-0.5,0.1-0.7,0.2c-0.7,0.4-1,1.2-0.6,1.8c0.5,0.8,0.9,1.5,1.4,2.2c-0.4,0-0.8,0-1.2,0c-0.8,0-1.5,0.6-1.5,1.4
						c0,0.7,0.6,1.4,1.4,1.4c0,0,0.2,0,0.2,0c0.9,0,1.7,0,2.5,0.1c0.5,0,0.9-0.1,1.2-0.4c0,0,0.1,0.1,0.1,0.1
						c0.3,0.2,0.6,0.3,0.8,0.4c0.2,0.1,0.4,0.2,0.6,0.3c0,0,0.1,0,0.1,0c0.5,0.2,0.9,0.2,1.1,0.2c0.5,0,0.9-0.2,1.2-0.6
						c0.3-0.3,0.4-0.8,0.2-1.2c-0.2-0.7-0.8-0.9-1.7-1.1c-0.2-0.1-0.4-0.2-0.7-0.3c-0.5-0.3-1.2-0.3-1.7,0.1c0.4-0.5,0.4-1.2,0-1.7
						c-0.5-0.6-1-1.3-1.4-2.1C76-45.9,75.5-46.2,75-46.2"/>
					<path class="st4" d="M63.8-35.5c-1.2,0-2.8,0.4-3.8,1.5c-1.5,1.6-2.3,3.7-2.2,5.4c0,0.4-0.4,0.8-0.9,0.9
						c-0.3,0.1-0.7,0.1-0.9-0.3c-0.2-0.3-0.6-0.5-1-0.3c-0.4,0.2-0.5,0.6-0.4,0.9c0.4,0.9,1.5,1.3,2.6,1.1c1-0.3,2-1.1,1.9-2.3
						c-0.1-1.3,0.6-3,1.9-4.4c0.6-0.7,1.8-1,2.5-1c0.6,0,0.9,0.1,1,0.2c-0.2,0.4-2.3,1.4-3.2,1.9c-0.8,0.4-1,0.9-1.1,1.3
						c-0.2,1.2,1.2,2.5,2.5,3.7c0.5,0.4,0.9,0.8,1.1,1.1c0.3,0.3,0.2,0.6,0.2,0.7c-0.2,0.5-1.1,1-2.1,1.2c-1,0.2-1.6,0.6-1.9,1.3
						c-0.4,0.9-0.2,2,0.7,3.5c0.2,0.3,0.6,0.4,1,0.3c0.3-0.2,0.5-0.6,0.3-0.9c-0.8-1.4-0.7-2-0.6-2.3c0.1-0.3,0.4-0.4,0.9-0.5
						c1.2-0.3,2.7-0.9,3.1-2.1c0.3-0.7,0.1-1.4-0.4-2c-0.3-0.4-0.8-0.8-1.3-1.3c-0.7-0.7-2.1-2-2-2.5c0-0.1,0.2-0.2,0.3-0.3
						c2.2-1.1,3.6-1.8,3.9-2.8c0.1-0.3,0.1-0.7-0.1-1c-0.3-0.5-0.9-0.7-1.7-0.8C64.1-35.5,63.9-35.5,63.8-35.5"/>
				</g>
				<g>
					<path class="st6" d="M77.5-37.3c0-1.5-0.6-2.7-1.4-2.7c-0.8,0-1.4,1.2-1.4,2.7c0,1.5,0.6,2.7,1.4,2.7
						C76.9-34.6,77.5-35.8,77.5-37.3"/>
					<path class="st6" d="M69.7-35.1c0-0.8-1-1.4-2.2-1.4c-1.2,0-2.2,0.6-2.2,1.4s1,1.4,2.2,1.4C68.7-33.7,69.7-34.3,69.7-35.1"/>
					<path class="st6" d="M66.3-22.5c0.1-0.6-0.7-1.3-1.8-1.5c-1.1-0.3-2.2,0-2.3,0.6c-0.1,0.6,0.7,1.3,1.8,1.5
						C65.1-21.7,66.1-21.9,66.3-22.5"/>
				</g>
				<path class="st7" d="M84.8-37.2c0.3-0.2,0.7,2,0.6,2.7c0,0-0.1,1.5,0.2,2.5c0.2,0.3,0.2,2.9-0.1,3.6c0.2,0,0.5,0.1,0.6,0.4
					c-1.1-0.4-1.4,2.2-2.5,3.7c-1,1.5-2.3,2.4-3.7,3.3c0.1,0.3,0.3,0.5,0.5,0.7c-1.7-0.8-4.2,2.1-8.1,1.8c-0.9-0.1-1.3-0.1-1.5-0.6
					c-0.7-0.1-1.4-0.2-1.4-1.1c0-0.2,0.2-0.6,0.7-0.6c0.6-0.2,1.1,0,1.6-0.9l0.1-0.8c0,0-0.6,0.7-0.9,0.8l0.2,0.4
					c-0.3,0.2-0.8,0-0.8,0s-1.1,0.5-2,0.4l-0.2,0.7c-0.2-0.4-0.5-0.4-0.6-0.8c-0.1,0.3-0.2,0.6-0.3,0.9c-0.3-0.4-0.2-0.8-0.3-1.3
					c-0.1-0.1-0.4-0.1-0.4,0.2c0,0.3-0.1,0.4-0.1,0.8c-0.2-0.4-0.5-0.6-0.6-1.2l-0.2,0.7c0-0.8-0.8-1.3-1.5-1.9
					c-0.2-0.4,0-0.4,0-0.5l0.4-0.2l0.7,0c0.1-0.1,0-0.1,0.3-0.2c0.8-0.2,1.8,0.7,2.6-0.7c-0.4-0.3-0.7-0.9-0.6-1.1
					c0.1,0-0.3-0.2,0.3,0c-0.6-0.6-1-1.3-1-1.3c-0.1-0.2,0.2,0,0.2-0.3l0.1,0c-1.4-1.4,0-2.9-0.2-3.7c0.2-0.4,0.3,0,0.5,0
					c0.2-1,0.9-1.6,1.4-2.4l-0.9,0c0-0.4,0.4-0.7,0.7-1.1L68-34.5c-0.4-0.2-0.7-0.4-1-0.7c-0.2-0.5,1-0.6,1.5-0.6l0-0.6
					c0.9-0.1,1.9,0.2,1.9,0.2l0.2,0.2l0.5-0.3c0.2,0,0.4,0.6,0.3,1.1c0.3-0.4,0.6-0.9,0.9-1.3l0.3,0c0.3-0.4,0.6-0.8,0.9-1.2
					l0.3-0.1c0.2,0.1,0.3,0.1,0.4,0.4l0.1-0.2l0.5,0.3l0.3,0.1l0.3-0.4c0.1,0.1,0.3,0.4,0.3,0.7c0.1-0.3,0.2-0.3,0.3-0.3l0.2,0.4
					l1.2-1.1l0.9,0c0.3-0.2,1.2-0.3,1.4,0c0.7-0.3,1.6,0,1.5,0.4c0.7-0.3,1.7-0.1,1.7,0c0.1,0,0.4,0.3,0.1,0.5
					c-2.2,1.5-5.5,3.9-6.8,4.4c0,0.4-0.3,2-0.7,2.4l0.3,0.5c0.9-0.8,1.2-0.7,1.6-0.8c0.5-0.4,0.7-0.9,1.2-1.4l0.4-0.1
					c-0.3,0.7-0.7,1.4-1.6,2.4c0.5-0.2,1.3-0.8,1.8-1.2c0.3-0.5,0.4-1,0.8-1.7c0.2-0.1,0.5-0.6,0.4-0.2c-0.1,0.8-0.6,2-0.6,2.1
					c0.9-0.7,0.9-1.8,1.2-2.5c0.2-0.3,0.4-0.8,0.5-0.7l-0.3,2.1l-0.2,0.8c0.7-0.4,0.9-1.8,1.3-3.5c0-0.3,0.1-0.6,0.1-0.8
					c0.1-0.2,0.3-0.7,0.3-0.4c0,0,0,2.8-0.2,3.5c-0.1,0.3,0.1,0.9,0.1,0.9c0.3-1.2,0.5-2.4,0.8-3.6v-0.9l0.4-0.4
					c0.1,0.7,0.2,1.4,0.2,2.1l-0.3,2.5v0.7c0,0.3,0.2,0.2,0.4-0.1c0-0.6,0-1.1,0.1-1.7c0.1-0.7,0.2-1.2,0.2-2.1
					C84.6-35.5,84.6-37.2,84.8-37.2"/>
			</g>
		</g>
	</g>
</g>
</svg>
