<?xml version="1.0" encoding="iso-8859-1"?>
<!-- Generator: Adobe Illustrator 19.0.0, SVG Export Plug-In . SVG Version: 6.00 Build 0)  -->
<svg version="1.1" id="Capa_1" xmlns="http://www.w3.org/2000/svg" xmlns:xlink="http://www.w3.org/1999/xlink" x="0px" y="0px"
	 viewBox="0 0 512 512" style="enable-background:new 0 0 512 512;" xml:space="preserve">
<g>
	<path style="fill:#C03A2B;" d="M397.241,432.552h97.103c9.751,0,17.655-7.905,17.655-17.655V97.103
		c0-9.751-7.905-17.655-17.655-17.655H17.655C7.904,79.448,0,87.353,0,97.103v317.793c0,9.751,7.904,17.655,17.655,17.655H397.241z"
		/>
	<path style="fill:#4FBA6F;" d="M317.793,353.103c-1.939,0.003-3.825-0.637-5.362-1.818L256,308.138l-56.431,43.147
		c-3.097,2.371-7.383,2.427-10.542,0.138c-3.158-2.289-4.44-6.379-3.152-10.061l23.978-68.517l-47.491-36.319
		c-3.006-2.298-4.212-6.257-2.999-9.841c1.214-3.584,4.577-5.996,8.361-5.995h60.384l19.56-55.879
		c1.238-3.542,4.58-5.914,8.332-5.914c3.752,0,7.094,2.372,8.332,5.914l19.56,55.879h60.384c3.784,0,7.147,2.411,8.36,5.995
		c1.213,3.584,0.007,7.543-2.998,9.841l-47.491,36.319l23.978,68.517c0.944,2.7,0.522,5.69-1.134,8.022
		S320.653,353.103,317.793,353.103z M270.53,297.026l29.181,22.31l-12.323-35.207L270.53,297.026z M224.612,284.129l-12.323,35.207
		l29.181-22.31L224.612,284.129z M230.746,266.595L256,285.905l25.254-19.31l-9.888-28.25h-30.733L230.746,266.595z
		 M290.069,238.345l5.94,16.966l22.19-16.966H290.069z M193.802,238.345l22.19,16.966l5.94-16.966H193.802z M246.815,220.69h18.371
		L256,194.448L246.815,220.69z"/>
</g>
<g>
</g>
<g>
</g>
<g>
</g>
<g>
</g>
<g>
</g>
<g>
</g>
<g>
</g>
<g>
</g>
<g>
</g>
<g>
</g>
<g>
</g>
<g>
</g>
<g>
</g>
<g>
</g>
<g>
</g>
</svg>
