<?xml version="1.0" encoding="iso-8859-1"?>
<!-- Generator: Adobe Illustrator 19.0.0, SVG Export Plug-In . SVG Version: 6.00 Build 0)  -->
<svg version="1.1" id="Capa_1" xmlns="http://www.w3.org/2000/svg" xmlns:xlink="http://www.w3.org/1999/xlink" x="0px" y="0px"
	 viewBox="0 0 512 512" style="enable-background:new 0 0 512 512;" xml:space="preserve">
<g>
	<g>
		<path style="fill:#285680;" d="M512,97.104v317.793c-0.029,9.739-7.916,17.626-17.655,17.655H17.656
			C7.917,432.523,0.029,424.636,0,414.897V220.69h194.207V79.449h300.138C504.084,79.477,511.972,87.365,512,97.104z"/>
		<path style="fill:#285680;" d="M194.207,79.449V220.69H0L0,97.104c-0.015-2.02,0.344-4.025,1.059-5.914
			c2.19-6.218,7.679-10.684,14.212-11.564c0.791-0.102,1.586-0.161,2.383-0.177H194.207z"/>
		<path style="fill:#285680;" d="M194.207,79.449V220.69H0V97.104c0.028-9.739,7.916-17.627,17.655-17.655H194.207z"/>
	</g>
	<g>
		<path style="fill:#ECF0F1;" d="M194.207,198.886v21.804h-30.014L0,101.253v-4.149c0.028-9.739,7.916-17.627,17.655-17.655h12.359
			L194.207,198.886z"/>
		<polygon style="fill:#ECF0F1;" points="194.207,79.449 194.207,101.253 127.118,150.069 97.104,171.873 30.014,220.69 0,220.69 
			0,198.886 67.09,150.069 97.104,128.265 164.194,79.449 		"/>
		<polygon style="fill:#ECF0F1;" points="194.207,132.414 194.207,167.724 114.759,167.724 114.759,220.69 79.449,220.69 
			79.449,167.724 0,167.724 0,132.414 79.449,132.414 79.449,79.449 114.759,79.449 114.759,132.414 		"/>
	</g>
	<g>
		<path style="fill:#C03A2B;" d="M194.207,209.744v10.946H179.2l-63.029-45.815c-0.533-0.37-1.009-0.816-1.412-1.324v-5.826h21.628
			L194.207,209.744z"/>
		<path style="fill:#C03A2B;" d="M79.449,126.588v5.826H57.821L3.885,93.22l-2.825-2.03c2.19-6.218,7.679-10.684,14.212-11.564
			l1.324,0.883l61.44,44.756C78.569,125.634,79.045,126.08,79.449,126.588z"/>
		<path style="fill:#C03A2B;" d="M79.449,167.724v5.826c-0.404,0.508-0.88,0.954-1.412,1.324L15.007,220.69H0v-10.946l57.821-42.019
			H79.449z"/>
		<path style="fill:#C03A2B;" d="M194.207,79.449v10.946l-57.821,42.019h-21.628v-5.826c0.403-0.508,0.879-0.954,1.412-1.324
			L179.2,79.449H194.207z"/>
		<rect x="0" y="141.242" style="fill:#C03A2B;" width="194.207" height="17.655"/>
		<rect x="88.276" y="79.449" style="fill:#C03A2B;" width="17.655" height="141.241"/>
	</g>
	<polygon style="fill:#ECF0F1;" points="391.689,170.161 365.639,183.861 370.6,154.836 349.529,134.277 378.66,130.048 
		391.689,103.645 404.728,130.048 433.867,134.277 412.778,154.836 417.757,183.861 	"/>
	<polygon style="fill:#C03A2B;" points="391.689,123.586 398.866,138.117 414.897,140.447 403.298,151.755 406.034,167.724 
		391.689,160.186 377.353,167.724 380.09,151.755 368.49,140.447 384.521,138.117 	"/>
	<polygon style="fill:#ECF0F1;" points="391.689,348.999 365.639,362.699 370.6,333.674 349.529,313.115 378.66,308.886 
		391.689,282.483 404.728,308.886 433.867,313.115 412.778,333.674 417.757,362.699 	"/>
	<polygon style="fill:#C03A2B;" points="391.689,302.424 398.866,316.955 414.897,319.285 403.298,330.593 406.034,346.562 
		391.689,339.024 377.353,346.562 380.09,330.593 368.49,319.285 384.521,316.955 	"/>
	<polygon style="fill:#ECF0F1;" points="337.408,242.3 311.358,256 316.319,226.975 295.239,206.416 324.37,202.187 
		337.408,175.784 350.438,202.187 379.587,206.416 358.489,226.975 363.476,256 	"/>
	<polygon style="fill:#C03A2B;" points="337.408,195.725 344.576,210.256 360.616,212.586 349.008,223.894 351.753,239.863 
		337.408,232.325 323.064,239.863 325.809,223.894 314.201,212.586 330.24,210.256 	"/>
	<polygon style="fill:#ECF0F1;" points="452.167,242.3 426.117,256 431.078,226.975 409.998,206.416 439.129,202.187 
		452.167,175.784 465.197,202.187 494.345,206.416 473.247,226.975 478.235,256 	"/>
	<polygon style="fill:#C03A2B;" points="452.167,195.725 459.335,210.256 475.375,212.586 463.767,223.894 466.512,239.863 
		452.167,232.325 437.822,239.863 440.568,223.894 428.959,212.586 444.999,210.256 	"/>
</g>
<g>
</g>
<g>
</g>
<g>
</g>
<g>
</g>
<g>
</g>
<g>
</g>
<g>
</g>
<g>
</g>
<g>
</g>
<g>
</g>
<g>
</g>
<g>
</g>
<g>
</g>
<g>
</g>
<g>
</g>
</svg>
