<?xml version="1.0" encoding="iso-8859-1"?>
<!-- Generator: Adobe Illustrator 19.0.0, SVG Export Plug-In . SVG Version: 6.00 Build 0)  -->
<svg version="1.1" id="Capa_1" xmlns="http://www.w3.org/2000/svg" xmlns:xlink="http://www.w3.org/1999/xlink" x="0px" y="0px"
	 viewBox="0 0 512 512" style="enable-background:new 0 0 512 512;" xml:space="preserve">
<g>
	<path style="fill:#285680;" d="M397.241,432.552h97.103c9.751,0,17.655-7.905,17.655-17.655V97.103
		c0-9.751-7.905-17.655-17.655-17.655H17.655C7.904,79.448,0,87.353,0,97.103v317.793c0,9.751,7.904,17.655,17.655,17.655H397.241z"
		/>
	<polygon style="fill:#FFFFFF;" points="344.717,370.759 512,370.759 512,141.241 0,141.241 0,370.759 167.283,370.759 	"/>
	<polygon style="fill:#C03A2B;" points="344.717,353.103 512,353.103 512,158.897 0,158.897 0,353.103 167.283,353.103 	"/>
	<circle style="fill:#FFFFFF;" cx="150.069" cy="256" r="79.448"/>
	<polygon style="fill:#C03A2B;" points="150.069,185.379 171.891,228.97 220.69,235.953 185.379,269.886 193.713,317.793 
		150.069,295.177 106.425,317.793 114.759,269.886 79.448,235.953 128.247,228.97 	"/>
</g>
<g>
</g>
<g>
</g>
<g>
</g>
<g>
</g>
<g>
</g>
<g>
</g>
<g>
</g>
<g>
</g>
<g>
</g>
<g>
</g>
<g>
</g>
<g>
</g>
<g>
</g>
<g>
</g>
<g>
</g>
</svg>
