<?xml version="1.0" encoding="iso-8859-1"?>
<!-- Generator: Adobe Illustrator 19.0.0, SVG Export Plug-In . SVG Version: 6.00 Build 0)  -->
<svg version="1.1" id="Capa_1" xmlns="http://www.w3.org/2000/svg" xmlns:xlink="http://www.w3.org/1999/xlink" x="0px" y="0px"
	 viewBox="0 0 512 512" style="enable-background:new 0 0 512 512;" xml:space="preserve">
<g>
	<path style="fill:#E6E7E8;" d="M79.448,79.448v353.103H17.655C7.916,432.523,0.029,424.635,0,414.897V97.103
		c0.028-9.739,7.916-17.627,17.655-17.655H79.448z"/>
	<path style="fill:#4C8056;" d="M512,97.103v317.793c-0.029,9.739-7.916,17.627-17.655,17.655H79.448V79.448h414.897
		C504.084,79.477,511.972,87.365,512,97.103z"/>
	<g>
		<polygon style="fill:#E6E7E8;" points="386.613,123.586 398.08,146.829 423.724,150.554 405.169,168.642 409.547,194.18 
			386.613,182.122 363.67,194.18 368.049,168.642 349.493,150.554 375.137,146.829 		"/>
		<path style="fill:#E6E7E8;" d="M404.303,264.828c0,63.379-51.379,114.759-114.759,114.759s-114.759-51.379-114.759-114.759
			s51.379-114.759,114.759-114.759c10.294-0.02,20.542,1.376,30.455,4.149v0.088c-43.702,0.383-78.892,35.986-78.764,79.69
			c0.128,43.704,35.525,79.101,79.229,79.229c43.704,0.128,79.307-35.062,79.69-78.764
			C402.927,244.344,404.324,254.563,404.303,264.828z"/>
	</g>
</g>
<g>
</g>
<g>
</g>
<g>
</g>
<g>
</g>
<g>
</g>
<g>
</g>
<g>
</g>
<g>
</g>
<g>
</g>
<g>
</g>
<g>
</g>
<g>
</g>
<g>
</g>
<g>
</g>
<g>
</g>
</svg>
