<?xml version="1.0" encoding="iso-8859-1"?>
<!-- Generator: Adobe Illustrator 19.0.0, SVG Export Plug-In . SVG Version: 6.00 Build 0)  -->
<svg version="1.1" id="Capa_1" xmlns="http://www.w3.org/2000/svg" xmlns:xlink="http://www.w3.org/1999/xlink" x="0px" y="0px"
	 viewBox="0 0 512 512" style="enable-background:new 0 0 512 512;" xml:space="preserve">
<g>
	<path style="fill:#E6E7E8;" d="M256,79.448V256H0V97.103c0.028-9.739,7.916-17.627,17.655-17.655H256z"/>
	<path style="fill:#C03A2B;" d="M512,97.103V256H256V79.448h238.345C504.084,79.477,511.972,87.365,512,97.103z"/>
	<path style="fill:#285680;" d="M256,256v176.552H17.655C7.916,432.523,0.029,424.635,0,414.897V256H256z"/>
	<path style="fill:#E6E7E8;" d="M512,256v158.897c-0.029,9.739-7.916,17.627-17.655,17.655H256V256H512z"/>
	<polygon style="fill:#285680;" points="132.414,114.759 148.78,149.628 185.379,155.224 158.897,182.36 165.146,220.69 
		132.414,202.593 99.681,220.69 105.931,182.36 79.448,155.224 116.047,149.628 	"/>
	<polygon style="fill:#C03A2B;" points="388.414,282.483 404.78,317.352 441.379,322.948 414.897,350.084 421.146,388.414 
		388.414,370.317 355.681,388.414 361.931,350.084 335.448,322.948 372.047,317.352 	"/>
</g>
<g>
</g>
<g>
</g>
<g>
</g>
<g>
</g>
<g>
</g>
<g>
</g>
<g>
</g>
<g>
</g>
<g>
</g>
<g>
</g>
<g>
</g>
<g>
</g>
<g>
</g>
<g>
</g>
<g>
</g>
</svg>
