<?xml version="1.0" encoding="iso-8859-1"?>
<!-- Generator: Adobe Illustrator 19.0.0, SVG Export Plug-In . SVG Version: 6.00 Build 0)  -->
<svg version="1.1" id="Capa_1" xmlns="http://www.w3.org/2000/svg" xmlns:xlink="http://www.w3.org/1999/xlink" x="0px" y="0px"
	 viewBox="0 0 512 512" style="enable-background:new 0 0 512 512;" xml:space="preserve">
<g>
	<path style="fill:#C03A2B;" d="M17.655,79.448h476.69c9.751,0,17.655,7.904,17.655,17.655v317.793
		c0,9.751-7.905,17.655-17.655,17.655H17.655C7.904,432.552,0,424.647,0,414.897V97.103C0,87.353,7.904,79.448,17.655,79.448z"/>
	<g>
		<path style="fill:#F0C419;" d="M208.596,216.452c-3.69,4.297-6.724,9.116-9.004,14.301L0,141.241V97.103
			c0.028-9.739,7.916-17.627,17.655-17.655h26.483L208.596,216.452z"/>
		<path style="fill:#F0C419;" d="M194.207,256c-0.02,2.837,0.186,5.671,0.618,8.474L0,291.31V220.69l194.825,26.836
			C194.393,250.329,194.187,253.163,194.207,256z"/>
		<path style="fill:#F0C419;" d="M208.596,295.548L44.138,432.552H17.655C7.916,432.523,0.029,424.635,0,414.897v-44.138
			l199.592-89.512C201.872,286.431,204.906,291.25,208.596,295.548z"/>
		<path style="fill:#F0C419;" d="M308.966,432.552H203.034l35.222-117.319c11.583,3.414,23.904,3.414,35.487,0L308.966,432.552z"/>
		<path style="fill:#F0C419;" d="M512,370.759v44.138c-0.029,9.739-7.916,17.627-17.655,17.655h-26.483L303.404,295.548
			c3.69-4.297,6.724-9.116,9.004-14.301L512,370.759z"/>
		<path style="fill:#F0C419;" d="M512,220.69v70.621l-194.825-26.836c0.824-5.62,0.824-11.329,0-16.949L512,220.69z"/>
		<path style="fill:#F0C419;" d="M512,97.103v44.138l-199.592,89.512c-2.28-5.184-5.315-10.003-9.004-14.301L467.862,79.448h26.483
			C504.084,79.477,511.972,87.365,512,97.103z"/>
		<path style="fill:#F0C419;" d="M308.966,79.448l-35.222,117.319c-11.583-3.413-23.904-3.413-35.487,0L203.034,79.448H308.966z"/>
		<circle style="fill:#F0C419;" cx="256" cy="256" r="35.31"/>
	</g>
</g>
<g>
</g>
<g>
</g>
<g>
</g>
<g>
</g>
<g>
</g>
<g>
</g>
<g>
</g>
<g>
</g>
<g>
</g>
<g>
</g>
<g>
</g>
<g>
</g>
<g>
</g>
<g>
</g>
<g>
</g>
</svg>
