<?xml version="1.0" encoding="iso-8859-1"?>
<!-- Generator: Adobe Illustrator 19.0.0, SVG Export Plug-In . SVG Version: 6.00 Build 0)  -->
<svg version="1.1" id="Capa_1" xmlns="http://www.w3.org/2000/svg" xmlns:xlink="http://www.w3.org/1999/xlink" x="0px" y="0px"
	 viewBox="0 0 512 512" style="enable-background:new 0 0 512 512;" xml:space="preserve">
<g>
	<g>
		<path style="fill:#4C8056;" d="M494.345,79.448H17.655c-4.553-0.02-8.931,1.756-12.182,4.944C1.989,87.704,0.011,92.297,0,97.103
			v317.793c0.012,4.807,1.989,9.4,5.473,12.711c3.251,3.188,7.629,4.964,12.182,4.944h476.69
			c9.739-0.029,17.627-7.916,17.655-17.655V97.103C511.972,87.364,504.084,79.477,494.345,79.448z"/>
		<path style="fill:#4C8056;" d="M512,326.621v88.276c-0.029,9.739-7.916,17.627-17.655,17.655H17.655
			c-4.553,0.02-8.931-1.756-12.182-4.944l111.051-100.987H512z"/>
	</g>
	<path style="fill:#C03A2B;" d="M194.207,256l-48.552,44.138l-29.131,26.483L5.473,427.608c-3.484-3.312-5.461-7.904-5.473-12.711
		V97.103c0.011-4.807,1.989-9.4,5.473-12.711l111.051,100.987l29.131,26.483L194.207,256z"/>
	<polygon style="fill:#F0C419;" points="512,185.379 512,326.621 116.524,326.621 145.655,300.138 194.207,256 145.655,211.862 
		116.524,185.379 	"/>
	<g>
		<polygon style="fill:#2C2F38;" points="282.483,211.862 296.121,240.922 326.621,245.583 304.552,268.2 309.76,300.138 
			282.483,285.06 255.206,300.138 260.414,268.2 238.345,245.583 268.844,240.922 		"/>
		<polygon style="fill:#2C2F38;" points="414.897,211.862 428.535,240.922 459.034,245.583 436.966,268.2 442.174,300.138 
			414.897,285.06 387.619,300.138 392.828,268.2 370.759,245.583 401.258,240.922 		"/>
	</g>
</g>
<g>
</g>
<g>
</g>
<g>
</g>
<g>
</g>
<g>
</g>
<g>
</g>
<g>
</g>
<g>
</g>
<g>
</g>
<g>
</g>
<g>
</g>
<g>
</g>
<g>
</g>
<g>
</g>
<g>
</g>
</svg>
