<?xml version="1.0" encoding="iso-8859-1"?>
<!-- Generator: Adobe Illustrator 19.0.0, SVG Export Plug-In . SVG Version: 6.00 Build 0)  -->
<svg version="1.1" id="Capa_1" xmlns="http://www.w3.org/2000/svg" xmlns:xlink="http://www.w3.org/1999/xlink" x="0px" y="0px"
	 viewBox="0 0 512 512" style="enable-background:new 0 0 512 512;" xml:space="preserve">
<g>
	<path style="fill:#C03A2B;" d="M397.241,432.552h97.103c9.751,0,17.655-7.905,17.655-17.655V97.103
		c0-9.751-7.905-17.655-17.655-17.655H17.655C7.904,79.448,0,87.353,0,97.103v317.793c0,9.751,7.904,17.655,17.655,17.655H397.241z"
		/>
	<path style="fill:#4C8056;" d="M158.897,79.448v353.103H17.655C7.916,432.523,0.029,424.635,0,414.897V97.103
		c0.028-9.739,7.916-17.627,17.655-17.655H158.897z"/>
	<rect x="158.897" y="79.448" style="fill:#F0C419;" width="194.207" height="353.103"/>
	<polygon style="fill:#4C8056;" points="256,198.621 275.094,236.394 317.793,242.458 286.897,271.863 294.188,313.379 256,293.773 
		217.812,313.379 225.103,271.863 194.207,242.458 236.906,236.394 	"/>
</g>
<g>
</g>
<g>
</g>
<g>
</g>
<g>
</g>
<g>
</g>
<g>
</g>
<g>
</g>
<g>
</g>
<g>
</g>
<g>
</g>
<g>
</g>
<g>
</g>
<g>
</g>
<g>
</g>
<g>
</g>
</svg>
