<?xml version="1.0" encoding="iso-8859-1"?>
<!-- Generator: Adobe Illustrator 19.0.0, SVG Export Plug-In . SVG Version: 6.00 Build 0)  -->
<svg version="1.1" id="Capa_1" xmlns="http://www.w3.org/2000/svg" xmlns:xlink="http://www.w3.org/1999/xlink" x="0px" y="0px"
	 viewBox="0 0 512 512" style="enable-background:new 0 0 512 512;" xml:space="preserve">
<g>
	<path style="fill:#E6E7E8;" d="M397.241,432.552h97.103c9.751,0,17.655-7.905,17.655-17.655V97.103
		c0-9.751-7.905-17.655-17.655-17.655H17.655C7.904,79.448,0,87.353,0,97.103v317.793c0,9.751,7.904,17.655,17.655,17.655H397.241z"
		/>
	<path style="fill:#C03A2B;" d="M512,317.793v97.103c-0.029,9.739-7.916,17.627-17.655,17.655H17.655
		C7.916,432.523,0.029,424.635,0,414.897v-97.103H512z"/>
	<rect y="194.207" style="fill:#285680;" width="512" height="123.586"/>
	<path style="fill:#C03A2B;" d="M97.103,132.414v129.059c0.006,9.991,1.739,19.906,5.121,29.307
		c3.353,9.79,8.37,18.929,14.83,27.013c6.225,7.776,13.539,14.614,21.716,20.303l5.738,3.972l28.866,20.215
		c7.204,5.06,16.807,5.06,24.011,0l28.866-20.215l5.738-3.972c8.177-5.689,15.491-12.527,21.716-20.303
		c6.46-8.084,11.477-17.223,14.83-27.013c0.98-2.589,1.777-5.243,2.383-7.944c1.843-6.971,2.763-14.153,2.737-21.363l0.001-129.059
		H97.103z"/>
	<g>
		<path style="fill:#FFFFFF;" d="M185.379,256c-2.342,0.001-4.588-0.928-6.244-2.584c-1.656-1.656-2.585-3.902-2.584-6.244V132.414
			c0-4.875,3.952-8.828,8.828-8.828c4.875,0,8.828,3.952,8.828,8.828v114.759c0.001,2.342-0.928,4.588-2.584,6.244
			C189.967,255.072,187.721,256.001,185.379,256z"/>
		<path style="fill:#FFFFFF;" d="M203.034,176.552h-35.31c-4.875,0-8.828-3.952-8.828-8.828c0-4.875,3.952-8.828,8.828-8.828h35.31
			c4.875,0,8.828,3.952,8.828,8.828C211.862,172.599,207.91,176.552,203.034,176.552z"/>
		<path style="fill:#FFFFFF;" d="M229.517,211.862h-88.276c-4.875,0-8.828-3.952-8.828-8.828s3.952-8.828,8.828-8.828h88.276
			c4.875,0,8.828,3.952,8.828,8.828S234.393,211.862,229.517,211.862z"/>
	</g>
	<path style="fill:#285680;" d="M270.918,282.836c-0.607,2.701-1.403,5.355-2.383,7.944c-3.353,9.79-8.37,18.929-14.83,27.013
		c-6.225,7.776-13.539,14.614-21.716,20.303l-5.738,3.972l-28.866,20.215c-7.204,5.06-16.807,5.06-24.011,0l-28.866-20.215
		l-5.738-3.972c-8.177-5.689-15.491-12.527-21.716-20.303c-6.46-8.084-11.477-17.223-14.83-27.013
		c6.331-10.641,17.808-17.151,30.19-17.125c6.313-0.018,12.51,1.691,17.92,4.944c2.051-18.628,18.305-32.402,37.017-31.37
		c18.712,1.033,33.351,16.513,33.339,35.253c0,1.148-0.088,2.207-0.177,3.354c6.673-7.77,16.417-12.223,26.659-12.182
		C255.953,273.66,264.418,276.933,270.918,282.836z"/>
	<path style="fill:#FFFFFF;" d="M185.379,374.905c-6.109,0.007-12.071-1.875-17.069-5.388l-34.569-24.164
		c-8.874-6.178-16.814-13.599-23.578-22.034c-7.111-8.885-12.627-18.936-16.302-29.707c-3.697-10.311-5.587-21.184-5.586-32.138
		v-129.06c-0.001-2.342,0.928-4.588,2.584-6.244c1.656-1.656,3.902-2.585,6.244-2.584h176.552c2.342-0.001,4.588,0.928,6.243,2.584
		c1.656,1.656,2.585,3.902,2.584,6.244v129.06c0.03,7.987-0.993,15.944-3.043,23.664c-0.678,2.987-1.565,5.922-2.655,8.785
		c-3.657,10.649-9.128,20.586-16.172,29.371c-6.764,8.444-14.707,15.87-23.586,22.051l-34.578,24.172
		C197.451,373.03,191.489,374.912,185.379,374.905z M105.931,141.241v120.233c0.006,8.973,1.563,17.877,4.603,26.319
		c3.021,8.883,7.563,17.173,13.423,24.5c5.69,7.104,12.373,13.352,19.844,18.551l34.629,24.207c4.185,2.879,9.712,2.879,13.897,0
		l34.638-24.215c7.477-5.202,14.164-11.457,19.854-18.569c5.824-7.276,10.342-15.507,13.353-24.328
		c0.878-2.291,1.589-4.642,2.129-7.034c1.698-6.337,2.547-12.871,2.525-19.431l0-120.233H105.931z"/>
</g>
<g>
</g>
<g>
</g>
<g>
</g>
<g>
</g>
<g>
</g>
<g>
</g>
<g>
</g>
<g>
</g>
<g>
</g>
<g>
</g>
<g>
</g>
<g>
</g>
<g>
</g>
<g>
</g>
<g>
</g>
</svg>
