<?xml version="1.0" encoding="iso-8859-1"?>
<!-- Generator: Adobe Illustrator 19.0.0, SVG Export Plug-In . SVG Version: 6.00 Build 0)  -->
<svg version="1.1" id="Capa_1" xmlns="http://www.w3.org/2000/svg" xmlns:xlink="http://www.w3.org/1999/xlink" x="0px" y="0px"
	 viewBox="0 0 512 512" style="enable-background:new 0 0 512 512;" xml:space="preserve">
<g>
	<polygon style="fill:#F0C419;" points="141.948,256 0,385.059 0,337.302 89.423,256 0,174.698 0,126.941 	"/>
	<polygon style="fill:#E6E7E8;" points="512,194.207 512,229.517 191.559,229.517 26.571,79.448 79.095,79.448 205.241,194.207 	"/>
	<path style="fill:#C03A2B;" d="M512,97.103v97.103H205.241L79.095,79.448h415.25C504.084,79.477,511.972,87.365,512,97.103z"/>
	<polygon style="fill:#E6E7E8;" points="512,283.012 512,318.323 204.712,318.323 79.095,432.552 26.571,432.552 191.029,283.012 	
		"/>
	<path style="fill:#285680;" d="M512,318.323v96.574c-0.029,9.739-7.916,17.627-17.655,17.655H79.095l125.617-114.229H512z"/>
	<polygon style="fill:#2C2F38;" points="89.423,256 0,337.302 0,174.698 	"/>
	<path style="fill:#4FBA6F;" d="M512,229.517v53.495H191.029L26.571,432.552h-8.916C7.916,432.523,0.029,424.635,0,414.897v-29.837
		L141.948,256L0,126.941V97.103c0.028-9.739,7.916-17.627,17.655-17.655h8.916l164.988,150.069H512z"/>
</g>
<g>
</g>
<g>
</g>
<g>
</g>
<g>
</g>
<g>
</g>
<g>
</g>
<g>
</g>
<g>
</g>
<g>
</g>
<g>
</g>
<g>
</g>
<g>
</g>
<g>
</g>
<g>
</g>
<g>
</g>
</svg>
