<?xml version="1.0" encoding="iso-8859-1"?>
<!-- Generator: Adobe Illustrator 19.0.0, SVG Export Plug-In . SVG Version: 6.00 Build 0)  -->
<svg version="1.1" id="Capa_1" xmlns="http://www.w3.org/2000/svg" xmlns:xlink="http://www.w3.org/1999/xlink" x="0px" y="0px"
	 viewBox="0 0 512 512" style="enable-background:new 0 0 512 512;" xml:space="preserve">
<g>
	<path style="fill:#E6E7E8;" d="M397.241,432.552h97.103c9.751,0,17.655-7.905,17.655-17.655V97.103
		c0-9.751-7.905-17.655-17.655-17.655H17.655C7.904,79.448,0,87.353,0,97.103v317.793c0,9.751,7.904,17.655,17.655,17.655H397.241z"
		/>
	<path style="fill:#C03A2B;" d="M326.179,238.963c-4.277-38.131-38.104-65.947-76.343-62.777
		c-38.239,3.17-67.024,36.176-64.964,74.491c2.06,38.315,34.217,68.044,72.576,67.096c38.359-0.948,69.008-32.23,69.172-70.6
		C326.621,244.436,326.444,241.699,326.179,238.963z"/>
	<path style="fill:#285680;" d="M326.621,247.172c0,39.003-31.618,70.621-70.621,70.621s-70.621-31.618-70.621-70.621l3.708-3.708
		c8.376-8.392,19.746-13.109,31.603-13.109s23.227,4.716,31.603,13.109l3.708,3.708c8.991,8.964,21.365,13.689,34.042,12.998
		c12.677-0.69,24.465-6.731,32.43-16.618l3.708-4.59C326.444,241.699,326.621,244.436,326.621,247.172z"/>
	<g>
		<path style="fill:#2C2F38;" d="M60.698,190.879c-3.19-0.002-6.131-1.726-7.692-4.508c-1.561-2.782-1.499-6.19,0.162-8.914
			l27.569-45.224c2.542-4.153,7.967-5.464,12.125-2.929c4.158,2.534,5.479,7.956,2.953,12.119l-27.569,45.224
			C66.643,189.279,63.781,190.884,60.698,190.879z"/>
		<path style="fill:#2C2F38;" d="M83.31,204.664c-3.19-0.002-6.131-1.726-7.692-4.508s-1.499-6.19,0.162-8.914l27.569-45.224
			c2.542-4.153,7.967-5.464,12.125-2.929c4.158,2.534,5.479,7.956,2.953,12.119l-27.569,45.224
			C89.254,203.064,86.393,204.668,83.31,204.664z"/>
		<path style="fill:#2C2F38;" d="M105.922,218.448c-3.19-0.002-6.131-1.726-7.692-4.508c-1.561-2.782-1.499-6.19,0.162-8.914
			l27.569-45.224c2.542-4.153,7.967-5.464,12.125-2.929c4.158,2.534,5.479,7.956,2.953,12.119l-27.569,45.224
			C111.866,216.848,109.005,218.453,105.922,218.448z"/>
		<path style="fill:#2C2F38;" d="M88.285,384c-3.083,0.005-5.944-1.6-7.548-4.233l-27.569-45.224
			c-1.649-2.694-1.733-6.063-0.221-8.836c1.512-2.773,4.39-4.527,7.547-4.6s6.113,1.546,7.752,4.246l27.569,45.224
			c1.661,2.724,1.723,6.132,0.162,8.914C94.416,382.274,91.475,383.998,88.285,384z"/>
		<path style="fill:#2C2F38;" d="M110.897,370.216c-3.083,0.005-5.944-1.6-7.548-4.233L75.78,320.759
			c-2.509-4.162-1.183-9.568,2.966-12.097s9.562-1.23,12.111,2.907l27.569,45.224c1.661,2.724,1.723,6.132,0.162,8.914
			C117.027,368.49,114.087,370.213,110.897,370.216L110.897,370.216z"/>
		<path style="fill:#2C2F38;" d="M133.508,356.431c-3.083,0.005-5.944-1.6-7.548-4.233l-27.569-45.224
			c-1.649-2.694-1.733-6.063-0.221-8.836c1.512-2.773,4.39-4.527,7.547-4.6c3.157-0.073,6.113,1.546,7.752,4.246l27.569,45.224
			c1.661,2.724,1.723,6.132,0.162,8.914C139.639,354.706,136.699,356.429,133.508,356.431L133.508,356.431z"/>
		<path style="fill:#2C2F38;" d="M451.302,190.879c-3.083,0.005-5.944-1.6-7.548-4.233l-27.569-45.224
			c-1.649-2.694-1.733-6.063-0.221-8.836s4.39-4.527,7.547-4.6s6.113,1.546,7.752,4.246l27.569,45.224
			c1.661,2.724,1.723,6.132,0.162,8.914S454.492,190.877,451.302,190.879L451.302,190.879z"/>
		<path style="fill:#2C2F38;" d="M428.69,204.664c-3.083,0.005-5.944-1.6-7.548-4.233l-27.569-45.224
			c-2.526-4.163-1.205-9.585,2.953-12.119c4.158-2.534,9.582-1.224,12.125,2.929l27.569,45.224c1.661,2.724,1.723,6.132,0.162,8.914
			C434.821,202.938,431.88,204.662,428.69,204.664L428.69,204.664z"/>
		<path style="fill:#2C2F38;" d="M406.078,218.448c-3.083,0.005-5.944-1.6-7.548-4.233l-27.569-45.224
			c-2.526-4.163-1.205-9.585,2.953-12.119c4.158-2.534,9.582-1.224,12.125,2.929l27.569,45.224c1.661,2.724,1.723,6.132,0.162,8.914
			S409.268,218.446,406.078,218.448L406.078,218.448z"/>
		<path style="fill:#2C2F38;" d="M423.715,384c-3.19-0.002-6.131-1.726-7.692-4.508c-1.561-2.782-1.499-6.19,0.162-8.914
			l27.569-45.224c1.638-2.7,4.594-4.319,7.752-4.246c3.157,0.073,6.035,1.827,7.547,4.6c1.512,2.773,1.427,6.142-0.221,8.836
			l-27.569,45.224C429.659,382.4,426.798,384.005,423.715,384z"/>
		<path style="fill:#2C2F38;" d="M401.103,370.216c-3.19-0.002-6.131-1.726-7.692-4.508c-1.561-2.782-1.499-6.19,0.162-8.914
			l27.569-45.224c2.549-4.137,7.962-5.436,12.111-2.907c4.149,2.529,5.475,7.935,2.966,12.097l-27.569,45.224
			C407.048,368.615,404.186,370.22,401.103,370.216z"/>
		<path style="fill:#2C2F38;" d="M378.492,356.431c-3.19-0.002-6.131-1.726-7.692-4.508c-1.561-2.782-1.499-6.19,0.162-8.914
			l27.569-45.224c1.638-2.7,4.594-4.319,7.752-4.246c3.157,0.073,6.035,1.827,7.547,4.6c1.512,2.773,1.427,6.142-0.221,8.836
			l-27.569,45.224C384.436,354.831,381.574,356.436,378.492,356.431z"/>
	</g>
</g>
<g>
</g>
<g>
</g>
<g>
</g>
<g>
</g>
<g>
</g>
<g>
</g>
<g>
</g>
<g>
</g>
<g>
</g>
<g>
</g>
<g>
</g>
<g>
</g>
<g>
</g>
<g>
</g>
<g>
</g>
</svg>
