<?xml version="1.0" encoding="iso-8859-1"?>
<!-- Generator: Adobe Illustrator 19.0.0, SVG Export Plug-In . SVG Version: 6.00 Build 0)  -->
<svg version="1.1" id="Capa_1" xmlns="http://www.w3.org/2000/svg" xmlns:xlink="http://www.w3.org/1999/xlink" x="0px" y="0px"
	 viewBox="0 0 512 512" style="enable-background:new 0 0 512 512;" xml:space="preserve">
<g>
	<path style="fill:#4C8056;" d="M494.345,79.448H17.655c-4.553-0.02-8.931,1.756-12.182,4.943C1.989,87.704,0.012,92.297,0,97.103
		v317.793c0.012,4.807,1.989,9.4,5.473,12.712c3.252,3.187,7.629,4.964,12.182,4.943h476.69c9.739-0.029,17.627-7.916,17.655-17.655
		V97.103C511.972,87.365,504.084,79.477,494.345,79.448z"/>
	<path style="fill:#C03A2B;" d="M512,97.103v114.759H145.655L5.473,84.392c3.251-3.187,7.629-4.964,12.182-4.943h476.69
		C504.084,79.477,511.972,87.365,512,97.103z"/>
	<path style="fill:#2C2F38;" d="M512,300.138v114.759c-0.029,9.739-7.916,17.627-17.655,17.655H17.655
		c-4.553,0.02-8.93-1.756-12.182-4.943l140.182-127.47H512z"/>
	<polygon style="fill:#E6E7E8;" points="512,211.862 512,300.138 145.655,300.138 194.207,256 145.655,211.862 	"/>
</g>
<g>
</g>
<g>
</g>
<g>
</g>
<g>
</g>
<g>
</g>
<g>
</g>
<g>
</g>
<g>
</g>
<g>
</g>
<g>
</g>
<g>
</g>
<g>
</g>
<g>
</g>
<g>
</g>
<g>
</g>
</svg>
