<?xml version="1.0" encoding="iso-8859-1"?>
<!-- Generator: Adobe Illustrator 19.0.0, SVG Export Plug-In . SVG Version: 6.00 Build 0)  -->
<svg version="1.1" id="Capa_1" xmlns="http://www.w3.org/2000/svg" xmlns:xlink="http://www.w3.org/1999/xlink" x="0px" y="0px"
	 viewBox="0 0 512 512" style="enable-background:new 0 0 512 512;" xml:space="preserve">
<g>
	<rect y="114.759" style="fill:#E6E7E8;" width="512" height="70.621"/>
	<path style="fill:#4C8056;" d="M512,97.103v17.655H0V97.103c0.028-9.739,7.916-17.627,17.655-17.655h476.69
		C504.084,79.477,511.972,87.365,512,97.103z"/>
	<rect y="326.621" style="fill:#E6E7E8;" width="512" height="70.621"/>
	<rect id="SVGCleanerId_0" y="185.379" style="fill:#C03A2B;" width="512" height="141.241"/>
	<path style="fill:#4C8056;" d="M512,397.241v17.655c-0.029,9.739-7.916,17.627-17.655,17.655H17.655
		C7.916,432.523,0.029,424.635,0,414.897v-17.655H512z"/>
	<g>
		<rect id="SVGCleanerId_0_1_" y="185.379" style="fill:#C03A2B;" width="512" height="141.241"/>
	</g>
	<polygon style="fill:#F0C419;" points="256,211.862 269.639,240.922 300.138,245.583 278.069,268.2 283.277,300.138 256,285.06 
		228.723,300.138 233.931,268.2 211.862,245.583 242.361,240.922 	"/>
</g>
<g>
</g>
<g>
</g>
<g>
</g>
<g>
</g>
<g>
</g>
<g>
</g>
<g>
</g>
<g>
</g>
<g>
</g>
<g>
</g>
<g>
</g>
<g>
</g>
<g>
</g>
<g>
</g>
<g>
</g>
</svg>
