<?xml version="1.0" encoding="iso-8859-1"?>
<!-- Generator: Adobe Illustrator 19.0.0, SVG Export Plug-In . SVG Version: 6.00 Build 0)  -->
<svg version="1.1" id="Capa_1" xmlns="http://www.w3.org/2000/svg" xmlns:xlink="http://www.w3.org/1999/xlink" x="0px" y="0px"
	 viewBox="0 0 512 512" style="enable-background:new 0 0 512 512;" xml:space="preserve">
<g>
	<path style="fill:#4C8056;" d="M494.345,79.448H17.655C7.916,79.477,0.028,87.364,0,97.103v317.793
		c0.029,9.739,7.916,17.627,17.655,17.655h476.69c9.739-0.029,17.627-7.916,17.655-17.655V97.103
		C511.972,87.364,504.084,79.477,494.345,79.448z"/>
	<path style="fill:#F0C419;" d="M379.586,79.448L26.483,432.552h-8.828C7.916,432.523,0.029,424.635,0,414.897v-8.828
		L326.621,79.448H379.586z"/>
	<polygon style="fill:#2C2F38;" points="494.345,79.448 141.241,432.552 26.483,432.552 379.586,79.448 	"/>
	<path style="fill:#F0C419;" d="M512,97.103v17.655L194.207,432.552h-52.966L494.345,79.448
		C504.084,79.477,511.972,87.364,512,97.103z"/>
	<path style="fill:#8697CB;" d="M512,114.759v300.138c-0.029,9.739-7.916,17.627-17.655,17.655H194.207L512,114.759z"/>
</g>
<g>
</g>
<g>
</g>
<g>
</g>
<g>
</g>
<g>
</g>
<g>
</g>
<g>
</g>
<g>
</g>
<g>
</g>
<g>
</g>
<g>
</g>
<g>
</g>
<g>
</g>
<g>
</g>
<g>
</g>
</svg>
