<?xml version="1.0" encoding="iso-8859-1"?>
<!-- Generator: Adobe Illustrator 19.0.0, SVG Export Plug-In . SVG Version: 6.00 Build 0)  -->
<svg version="1.1" id="Capa_1" xmlns="http://www.w3.org/2000/svg" xmlns:xlink="http://www.w3.org/1999/xlink" x="0px" y="0px"
	 viewBox="0 0 512 512" style="enable-background:new 0 0 512 512;" xml:space="preserve">
<g>
	<path style="fill:#F3D55B;" d="M17.655,79.448h476.69c9.751,0,17.655,7.904,17.655,17.655v317.793
		c0,9.751-7.905,17.655-17.655,17.655H17.655C7.904,432.552,0,424.647,0,414.897V97.103C0,87.353,7.904,79.448,17.655,79.448z"/>
	<path style="fill:#4C8056;" d="M512,97.103v52.966H220.69V79.448h273.655C504.084,79.477,511.972,87.365,512,97.103z"/>
	<path style="fill:#C03A2B;" d="M220.69,79.448V291.31H0V97.103c0.028-9.739,7.916-17.627,17.655-17.655H220.69z"/>
	<g>
		<path style="fill:#4C8056;" d="M512,361.931v52.966c-0.029,9.739-7.916,17.627-17.655,17.655H17.655
			C7.916,432.523,0.029,424.635,0,414.897v-52.966H512z"/>
		<rect x="220.69" y="220.69" style="fill:#4C8056;" width="291.31" height="70.621"/>
	</g>
	<polygon style="fill:#E6E7E8;" points="110.345,114.759 133.535,161.254 185.379,168.704 147.862,204.897 156.716,256 
		110.345,231.874 63.974,256 72.828,204.897 35.31,168.704 87.155,161.254 	"/>
</g>
<g>
</g>
<g>
</g>
<g>
</g>
<g>
</g>
<g>
</g>
<g>
</g>
<g>
</g>
<g>
</g>
<g>
</g>
<g>
</g>
<g>
</g>
<g>
</g>
<g>
</g>
<g>
</g>
<g>
</g>
</svg>
