<?xml version="1.0" encoding="iso-8859-1"?>
<!-- Generator: Adobe Illustrator 19.0.0, SVG Export Plug-In . SVG Version: 6.00 Build 0)  -->
<svg version="1.1" id="Capa_1" xmlns="http://www.w3.org/2000/svg" xmlns:xlink="http://www.w3.org/1999/xlink" x="0px" y="0px"
	 viewBox="0 0 512 512" style="enable-background:new 0 0 512 512;" xml:space="preserve">
<g>
	<path style="fill:#C03A2B;" d="M17.655,79.448h476.69c9.739,0.028,17.627,7.916,17.655,17.655v317.793
		c-0.029,9.739-7.916,17.627-17.655,17.655H17.655C7.916,432.523,0.029,424.635,0,414.897V97.103
		C0.028,87.364,7.916,79.477,17.655,79.448z"/>
	<path style="fill:#E6E7E8;" d="M132.414,79.448l353.103,353.103h8.828c9.739-0.029,17.627-7.916,17.655-17.655v-8.828
		L185.379,79.448H132.414z"/>
	<polygon style="fill:#2C2F38;" points="17.655,79.448 370.759,432.552 485.517,432.552 132.414,79.448 	"/>
	<path style="fill:#E6E7E8;" d="M0,97.103v17.655l317.793,317.793h52.966L17.655,79.448C7.916,79.477,0.028,87.364,0,97.103z"/>
	<path style="fill:#C03A2B;" d="M0,114.759v300.138c0.029,9.739,7.916,17.627,17.655,17.655h300.138L0,114.759z"/>
</g>
<g>
</g>
<g>
</g>
<g>
</g>
<g>
</g>
<g>
</g>
<g>
</g>
<g>
</g>
<g>
</g>
<g>
</g>
<g>
</g>
<g>
</g>
<g>
</g>
<g>
</g>
<g>
</g>
<g>
</g>
</svg>
