<?xml version="1.0" encoding="iso-8859-1"?>
<!-- Generator: Adobe Illustrator 19.0.0, SVG Export Plug-In . SVG Version: 6.00 Build 0)  -->
<svg version="1.1" id="Capa_1" xmlns="http://www.w3.org/2000/svg" xmlns:xlink="http://www.w3.org/1999/xlink" x="0px" y="0px"
	 viewBox="0 0 512 512" style="enable-background:new 0 0 512 512;" xml:space="preserve">
<g>
	<path style="fill:#C03A2B;" d="M397.241,432.552h97.103c9.751,0,17.655-7.905,17.655-17.655V97.103
		c0-9.751-7.905-17.655-17.655-17.655H17.655C7.904,79.448,0,87.353,0,97.103v317.793c0,9.751,7.904,17.655,17.655,17.655H397.241z"
		/>
	<g>
		<polygon style="fill:#FFFFFF;" points="337.814,222.199 362.355,230.524 383.126,215.022 382.799,240.94 403.95,255.903 
			379.207,263.592 371.518,288.344 356.555,267.185 330.637,267.511 346.138,246.74 		"/>
		<path style="fill:#FFFFFF;" d="M264.828,335.448c20.808,0,40.782-8.18,55.614-22.775c-25.725,45.296-78.733,67.584-129.097,54.28
			c-50.364-13.304-85.45-58.861-85.45-110.953s35.086-97.649,85.45-110.953s103.371,8.984,129.097,54.28
			c-25.595-25.116-64.844-29.969-95.785-11.841s-45.898,54.738-36.503,89.345S228.968,335.457,264.828,335.448z"/>
	</g>
</g>
<g>
</g>
<g>
</g>
<g>
</g>
<g>
</g>
<g>
</g>
<g>
</g>
<g>
</g>
<g>
</g>
<g>
</g>
<g>
</g>
<g>
</g>
<g>
</g>
<g>
</g>
<g>
</g>
<g>
</g>
</svg>
