<?xml version="1.0" encoding="iso-8859-1"?>
<!-- Generator: Adobe Illustrator 19.0.0, SVG Export Plug-In . SVG Version: 6.00 Build 0)  -->
<svg version="1.1" id="Capa_1" xmlns="http://www.w3.org/2000/svg" xmlns:xlink="http://www.w3.org/1999/xlink" x="0px" y="0px"
	 viewBox="0 0 512 512" style="enable-background:new 0 0 512 512;" xml:space="preserve">
<g>
	<path style="fill:#E6E7E8;" d="M512,397.241v17.655c-0.029,9.739-7.916,17.627-17.655,17.655H17.655
		C7.916,432.523,0.029,424.635,0,414.897v-17.655H512z"/>
	<path style="fill:#C03A2B;" d="M512,97.103v300.138H0V97.103c0.028-9.739,7.916-17.627,17.655-17.655h476.69
		C504.084,79.477,511.972,87.365,512,97.103z"/>
	<path style="fill:#285680;" d="M17.655,79.448h229.517V256H0V97.103C0,87.353,7.904,79.448,17.655,79.448z"/>
	<g>
		<rect x="247.172" y="114.759" style="fill:#E6E7E8;" width="264.828" height="35.31"/>
		<rect x="247.172" y="185.379" style="fill:#E6E7E8;" width="264.828" height="35.31"/>
		<rect y="256" style="fill:#E6E7E8;" width="512" height="35.31"/>
		<polyline style="fill:#E6E7E8;" points="320.618,361.931 512,361.931 512,326.621 0,326.621 0,361.931 191.382,361.931 		"/>
	</g>
	<g>
		<polygon style="fill:#ECF0F1;" points="17.655,88.276 21.751,96.565 30.897,97.898 24.276,104.351 25.838,113.461 17.655,109.162 
			9.472,113.461 11.034,104.351 4.414,97.898 13.559,96.565 		"/>
		<polygon style="fill:#ECF0F1;" points="52.966,88.276 57.062,96.565 66.207,97.898 59.586,104.351 61.149,113.461 52.966,109.162 
			44.782,113.461 46.345,104.351 39.724,97.898 48.87,96.565 		"/>
		<polygon style="fill:#ECF0F1;" points="88.276,88.276 92.372,96.565 101.517,97.898 94.897,104.351 96.459,113.461 
			88.276,109.162 80.093,113.461 81.655,104.351 75.034,97.898 84.18,96.565 		"/>
		<polygon style="fill:#ECF0F1;" points="123.586,88.276 127.682,96.565 136.828,97.898 130.207,104.351 131.769,113.461 
			123.586,109.162 115.403,113.461 116.966,104.351 110.345,97.898 119.49,96.565 		"/>
		<polygon style="fill:#ECF0F1;" points="158.897,88.276 162.993,96.565 172.138,97.898 165.517,104.351 167.08,113.461 
			158.897,109.162 150.713,113.461 152.276,104.351 145.655,97.898 154.801,96.565 		"/>
		<polygon style="fill:#ECF0F1;" points="194.207,88.276 198.303,96.565 207.448,97.898 200.828,104.351 202.39,113.461 
			194.207,109.162 186.024,113.461 187.586,104.351 180.966,97.898 190.111,96.565 		"/>
		<polygon style="fill:#ECF0F1;" points="229.517,88.276 233.613,96.565 242.759,97.898 236.138,104.351 237.7,113.461 
			229.517,109.162 221.334,113.461 222.897,104.351 216.276,97.898 225.421,96.565 		"/>
		<polygon style="fill:#ECF0F1;" points="37.517,121.706 41.613,129.995 50.759,131.328 44.138,137.781 45.7,146.891 
			37.517,142.583 29.334,146.891 30.897,137.781 24.276,131.328 33.421,129.995 		"/>
		<polygon style="fill:#ECF0F1;" points="72.828,121.706 76.924,129.995 86.069,131.328 79.448,137.781 81.011,146.891 
			72.828,142.583 64.644,146.891 66.207,137.781 59.586,131.328 68.732,129.995 		"/>
		<polygon style="fill:#ECF0F1;" points="108.138,121.706 112.234,129.995 121.379,131.328 114.759,137.781 116.321,146.891 
			108.138,142.583 99.955,146.891 101.517,137.781 94.897,131.328 104.042,129.995 		"/>
		<polygon style="fill:#ECF0F1;" points="143.448,121.706 147.544,129.995 156.69,131.328 150.069,137.781 151.631,146.891 
			143.448,142.583 135.265,146.891 136.828,137.781 130.207,131.328 139.352,129.995 		"/>
		<polygon style="fill:#ECF0F1;" points="178.759,121.706 182.855,129.995 192,131.328 185.379,137.781 186.942,146.891 
			178.759,142.583 170.575,146.891 172.138,137.781 165.517,131.328 174.663,129.995 		"/>
		<polygon style="fill:#ECF0F1;" points="214.069,121.706 218.165,129.995 227.31,131.328 220.69,137.781 222.252,146.891 
			214.069,142.583 205.886,146.891 207.448,137.781 200.828,131.328 209.973,129.995 		"/>
		<polygon style="fill:#ECF0F1;" points="17.655,155.127 21.751,163.425 30.897,164.749 24.276,171.202 25.838,180.321 
			17.655,176.013 9.472,180.321 11.034,171.202 4.414,164.749 13.559,163.425 		"/>
		<polygon style="fill:#ECF0F1;" points="52.966,155.127 57.062,163.425 66.207,164.749 59.586,171.202 61.149,180.321 
			52.966,176.013 44.782,180.321 46.345,171.202 39.724,164.749 48.87,163.425 		"/>
		<polygon style="fill:#ECF0F1;" points="88.276,155.127 92.372,163.425 101.517,164.749 94.897,171.202 96.459,180.321 
			88.276,176.013 80.093,180.321 81.655,171.202 75.034,164.749 84.18,163.425 		"/>
		<polygon style="fill:#ECF0F1;" points="123.586,155.127 127.682,163.425 136.828,164.749 130.207,171.202 131.769,180.321 
			123.586,176.013 115.403,180.321 116.966,171.202 110.345,164.749 119.49,163.425 		"/>
		<polygon style="fill:#ECF0F1;" points="158.897,155.127 162.993,163.425 172.138,164.749 165.517,171.202 167.08,180.321 
			158.897,176.013 150.713,180.321 152.276,171.202 145.655,164.749 154.801,163.425 		"/>
		<polygon style="fill:#ECF0F1;" points="194.207,155.127 198.303,163.425 207.448,164.749 200.828,171.202 202.39,180.321 
			194.207,176.013 186.024,180.321 187.586,171.202 180.966,164.749 190.111,163.425 		"/>
		<polygon style="fill:#ECF0F1;" points="229.517,155.127 233.613,163.425 242.759,164.749 236.138,171.202 237.7,180.321 
			229.517,176.013 221.334,180.321 222.897,171.202 216.276,164.749 225.421,163.425 		"/>
		<polygon style="fill:#ECF0F1;" points="17.655,221.987 21.751,230.276 30.897,231.609 24.276,238.062 25.838,247.172 
			17.655,242.873 9.472,247.172 11.034,238.062 4.414,231.609 13.559,230.276 		"/>
		<polygon style="fill:#ECF0F1;" points="52.966,221.987 57.062,230.276 66.207,231.609 59.586,238.062 61.149,247.172 
			52.966,242.873 44.782,247.172 46.345,238.062 39.724,231.609 48.87,230.276 		"/>
		<polygon style="fill:#ECF0F1;" points="88.276,221.987 92.372,230.276 101.517,231.609 94.897,238.062 96.459,247.172 
			88.276,242.873 80.093,247.172 81.655,238.062 75.034,231.609 84.18,230.276 		"/>
		<polygon style="fill:#ECF0F1;" points="123.586,221.987 127.682,230.276 136.828,231.609 130.207,238.062 131.769,247.172 
			123.586,242.873 115.403,247.172 116.966,238.062 110.345,231.609 119.49,230.276 		"/>
		<polygon style="fill:#ECF0F1;" points="158.897,221.987 162.993,230.276 172.138,231.609 165.517,238.062 167.08,247.172 
			158.897,242.873 150.713,247.172 152.276,238.062 145.655,231.609 154.801,230.276 		"/>
		<polygon style="fill:#ECF0F1;" points="194.207,221.987 198.303,230.276 207.448,231.609 200.828,238.062 202.39,247.172 
			194.207,242.873 186.024,247.172 187.586,238.062 180.966,231.609 190.111,230.276 		"/>
		<polygon style="fill:#ECF0F1;" points="229.517,221.987 233.613,230.276 242.759,231.609 236.138,238.062 237.7,247.172 
			229.517,242.873 221.334,247.172 222.897,238.062 216.276,231.609 225.421,230.276 		"/>
		<polygon style="fill:#ECF0F1;" points="37.517,188.557 41.613,196.846 50.759,198.179 44.138,204.632 45.7,213.742 
			37.517,209.443 29.334,213.742 30.897,204.632 24.276,198.179 33.421,196.846 		"/>
		<polygon style="fill:#ECF0F1;" points="72.828,188.557 76.924,196.846 86.069,198.179 79.448,204.632 81.011,213.742 
			72.828,209.443 64.644,213.742 66.207,204.632 59.586,198.179 68.732,196.846 		"/>
		<polygon style="fill:#ECF0F1;" points="108.138,188.557 112.234,196.846 121.379,198.179 114.759,204.632 116.321,213.742 
			108.138,209.443 99.955,213.742 101.517,204.632 94.897,198.179 104.042,196.846 		"/>
		<polygon style="fill:#ECF0F1;" points="143.448,188.557 147.544,196.846 156.69,198.179 150.069,204.632 151.631,213.742 
			143.448,209.443 135.265,213.742 136.828,204.632 130.207,198.179 139.352,196.846 		"/>
		<polygon style="fill:#ECF0F1;" points="178.759,188.557 182.855,196.846 192,198.179 185.379,204.632 186.942,213.742 
			178.759,209.443 170.575,213.742 172.138,204.632 165.517,198.179 174.663,196.846 		"/>
		<polygon style="fill:#ECF0F1;" points="214.069,188.557 218.165,196.846 227.31,198.179 220.69,204.632 222.252,213.742 
			214.069,209.443 205.886,213.742 207.448,204.632 200.828,198.179 209.973,196.846 		"/>
	</g>
</g>
<g>
</g>
<g>
</g>
<g>
</g>
<g>
</g>
<g>
</g>
<g>
</g>
<g>
</g>
<g>
</g>
<g>
</g>
<g>
</g>
<g>
</g>
<g>
</g>
<g>
</g>
<g>
</g>
<g>
</g>
</svg>
