<?xml version="1.0" encoding="iso-8859-1"?>
<!-- Generator: Adobe Illustrator 19.0.0, SVG Export Plug-In . SVG Version: 6.00 Build 0)  -->
<svg version="1.1" id="Capa_1" xmlns="http://www.w3.org/2000/svg" xmlns:xlink="http://www.w3.org/1999/xlink" x="0px" y="0px"
	 viewBox="0 0 512 512" style="enable-background:new 0 0 512 512;" xml:space="preserve">
<g>
	<path style="fill:#802F34;" d="M494.345,79.448H17.655C7.916,79.477,0.028,87.365,0,97.103v317.793
		c0.029,9.739,7.916,17.627,17.655,17.655h476.69c9.739-0.029,17.627-7.916,17.655-17.655V97.103
		C511.972,87.365,504.084,79.477,494.345,79.448z"/>
	<path style="fill:#24AE5F;" d="M512,97.103v97.103H114.759V79.448h379.586C504.084,79.477,511.972,87.365,512,97.103z"/>
	<path style="fill:#2C2F38;" d="M512,317.793v97.103c-0.029,9.739-7.916,17.627-17.655,17.655H114.759V317.793H512z"/>
	<rect x="114.759" y="194.207" style="fill:#ECF0F1;" width="397.241" height="123.586"/>
</g>
<g>
</g>
<g>
</g>
<g>
</g>
<g>
</g>
<g>
</g>
<g>
</g>
<g>
</g>
<g>
</g>
<g>
</g>
<g>
</g>
<g>
</g>
<g>
</g>
<g>
</g>
<g>
</g>
<g>
</g>
</svg>
