<?xml version="1.0" encoding="utf-8"?>
<!-- Generator: Adobe Illustrator 21.0.0, SVG Export Plug-In . SVG Version: 6.00 Build 0)  -->
<svg version="1.1" id="Layer_1" xmlns="http://www.w3.org/2000/svg" xmlns:xlink="http://www.w3.org/1999/xlink" x="0px" y="0px"
	 viewBox="0 0 414.5 81.7" style="enable-background:new 0 0 414.5 81.7;" xml:space="preserve">
<g id="XMLID_331_">
	<g id="XMLID_332_">
		<g id="XMLID_333_">
			<path id="XMLID_587_" d="M351.4,49.2c0.2,0.3,0.3,0.6,0.4,1c0,0.4-0.2,0.7-0.4,1c-0.2,0.3-0.6,0.4-1.1,0.4
				c-0.5,0-0.9-0.1-1.1-0.4c-0.2-0.3-0.3-0.6-0.4-1c0-0.4,0.1-0.7,0.4-1c0.2-0.3,0.6-0.4,1.1-0.4C350.8,48.8,351.2,48.9,351.4,49.2"
				/>
			<path id="XMLID_586_" d="M359.2,40c-0.6,0.2-1,0.6-1.5,1.1c-0.4,0.5-0.7,1.1-0.9,1.8c-0.2,0.7-0.2,1.6-0.1,2.7
				c0.1,0.6,0.4,1.3,0.9,2c0.5,0.7,1.2,1.3,2,1.7c0.9,0.5,1.9,0.8,3.1,0.9c1.2,0.1,2.6-0.1,4.1-0.6l0.1,0.9
				c-0.4,0.2-0.8,0.3-1.1,0.5c-0.4,0.2-0.8,0.3-1.2,0.4c-0.5,0.1-1,0.2-1.6,0.3c-0.6,0.1-1.4,0.1-2.2,0.2c-1,0-1.9-0.1-2.8-0.5
				c-0.8-0.3-1.6-0.8-2.2-1.5c-0.6-0.6-1.1-1.4-1.4-2.2c-0.3-0.9-0.5-1.8-0.5-2.8c0-1.2,0.2-2.3,0.7-3.3c0.5-1,1.1-1.8,2-2.5
				c0.8-0.6,1.8-1.1,3-1.3c1.1-0.2,2.4-0.2,3.8,0.1c1.1,0.3,1.9,0.8,2.4,1.3c0.5,0.5,0.9,1,1.1,1.4c0,0.1,0.1,0.1,0.1,0.1
				c0,0,0,0-0.2,0.1c-0.1,0-0.3,0.2-0.6,0.3c-0.3,0.2-0.7,0.5-1.2,0.9c-0.3-0.4-0.5-0.8-0.7-1.1c-0.2-0.3-0.5-0.6-0.8-0.8
				c-0.3-0.2-0.6-0.4-1-0.5c-0.4-0.1-0.8-0.1-1.4-0.1C360.3,39.6,359.7,39.8,359.2,40"/>
			<path id="XMLID_583_" d="M379.4,38.1c0.9,0.4,1.6,0.9,2.1,1.6c0.6,0.7,1,1.4,1.3,2.2c0.3,0.8,0.4,1.7,0.5,2.6
				c0,1-0.2,1.9-0.5,2.7c-0.3,0.9-0.7,1.6-1.3,2.2c-0.6,0.6-1.3,1.1-2.2,1.5c-0.9,0.4-1.9,0.6-3.2,0.6c-1.3,0-2.4-0.2-3.3-0.6
				c-0.9-0.4-1.7-0.9-2.2-1.5c-0.6-0.6-1-1.4-1.3-2.2c-0.3-0.8-0.4-1.7-0.5-2.7c0-0.9,0.2-1.8,0.4-2.6c0.3-0.8,0.7-1.6,1.3-2.2
				c0.6-0.6,1.3-1.2,2.3-1.6s2-0.6,3.3-0.6C377.5,37.5,378.6,37.7,379.4,38.1 M372.5,47.4c0.2,0.6,0.5,1.1,0.8,1.5
				c0.3,0.4,0.8,0.6,1.3,0.8c0.5,0.2,1,0.2,1.6,0.2c0.6,0,1.1,0,1.6-0.2c0.5-0.1,0.9-0.4,1.3-0.8c0.3-0.4,0.6-0.9,0.8-1.5
				c0.2-0.6,0.3-1.4,0.3-2.4v-1c0-0.9-0.1-1.7-0.3-2.4c-0.2-0.6-0.5-1.1-0.8-1.5c-0.4-0.4-0.8-0.6-1.3-0.8c-0.5-0.2-1-0.2-1.6-0.2
				c-0.6,0-1.1,0.1-1.6,0.2c-0.5,0.2-0.9,0.4-1.3,0.8c-0.4,0.4-0.6,0.9-0.8,1.5c-0.2,0.6-0.3,1.4-0.3,2.4v1
				C372.2,46,372.3,46.8,372.5,47.4"/>
			<path id="XMLID_582_" d="M407,41.7c-0.1-0.6-0.4-1.1-0.7-1.5c-0.3-0.4-0.7-0.6-1.1-0.8c-0.4-0.2-1-0.2-1.5-0.2
				c-0.6,0-1.1,0-1.6,0.2c-0.5,0.2-0.9,0.4-1.3,0.8c-0.3,0.4-0.6,0.9-0.8,1.5c-0.2,0.6-0.3,1.4-0.3,2.4c0,0.1,0,0.2,0,0.3
				c0,0.2,0,0.5,0,1v2.2v4h-3.2v-7.5c0-0.9-0.1-1.7-0.2-2.3c-0.2-0.6-0.4-1.1-0.7-1.5c-0.3-0.4-0.7-0.6-1.1-0.8
				c-0.4-0.2-1-0.2-1.5-0.2c-0.6,0-1.1,0-1.6,0.2c-0.5,0.1-0.9,0.4-1.3,0.8c-0.4,0.4-0.6,0.9-0.8,1.5c-0.2,0.6-0.3,1.4-0.3,2.4v7.4
				h-3.2V45c0-2.3,0.6-4.1,1.8-5.4c1.2-1.3,3-2,5.2-2c1.3,0,2.4,0.2,3.2,0.5c0.9,0.3,1.6,0.9,2.1,1.5c0.6-0.7,1.4-1.2,2.2-1.6
				c0.9-0.4,1.9-0.5,3.1-0.5c1.3,0,2.3,0.2,3.2,0.5c0.9,0.3,1.6,0.8,2.2,1.5s1,1.4,1.2,2.3c0.3,0.9,0.4,1.9,0.4,3.1v6.7h-3.3V44
				C407.2,43.1,407.2,42.3,407,41.7"/>
			<path id="XMLID_579_" d="M38.1,5.4c3.4,3.1,5.2,7.2,5.4,12.5c-0.2,5.3-2,9.4-5.4,12.4c-3.4,3-8,4.5-14,4.5c-5,0-9.1-1-12.2-2.9
				V52H4V17.8c0.2-5.3,2-9.4,5.4-12.5c3.4-3,8.3-4.6,14.6-4.6C30.1,0.8,34.7,2.3,38.1,5.4 M11.8,20c0.1,2.1,0.5,3.8,1.3,5.2
				c0.7,1.4,1.7,2.5,2.8,3.3c1.1,0.8,2.4,1.4,3.7,1.8c1.4,0.3,2.7,0.5,4.1,0.4c1.4,0,2.8-0.1,4.3-0.5c1.4-0.4,2.7-1,3.9-1.9
				c1.1-0.9,2.1-2.1,2.8-3.7c0.7-1.5,1.1-3.5,1.1-5.7v-2.4c0-2.3-0.4-4.2-1.1-5.7c-0.7-1.5-1.6-2.8-2.8-3.7
				c-1.1-0.9-2.4-1.5-3.9-1.9c-1.4-0.4-2.9-0.5-4.3-0.5c-1.4,0-2.8,0.1-4.2,0.5c-1.4,0.4-2.7,1-3.8,1.9c-1.1,0.9-2.1,2.1-2.8,3.6
				c-0.7,1.5-1.1,3.4-1.1,5.7V20z"/>
			<path id="XMLID_353_" d="M63.4,17.9c0.5,0,1.1,0,1.6,0.1v3.5c-0.5-0.1-1.1-0.1-1.7-0.2c-0.6,0-1.2,0-1.7,0
				c-1.4,0-2.8,0.1-4.2,0.5c-1.4,0.4-2.7,1-3.8,1.9c-1.1,0.9-2.1,2.1-2.8,3.6c-0.7,1.5-1.1,3.4-1.1,5.7V52h-7.8V35.8
				c0-5.5,1.7-9.9,5.1-13.1c3.4-3.2,8.4-4.8,14.9-4.8H63.4z"/>
			<path id="XMLID_350_" d="M68,2.5c1-1,2.2-1.5,3.6-1.5c1.4,0,2.6,0.5,3.6,1.5c1,1,1.5,2.2,1.5,3.6c0,0.7-0.1,1.3-0.4,1.9
				c-0.3,0.6-0.7,1.2-1.2,1.6c-0.5,0.5-1.1,0.9-1.7,1.1c-0.6,0.3-1.2,0.4-1.8,0.4c-1.4,0-2.6-0.5-3.6-1.5c-1-1-1.5-2.2-1.5-3.6
				C66.6,4.7,67,3.5,68,2.5 M75.7,52h-7.8V17.8h7.8V52z"/>
			<path id="XMLID_349_" d="M105.1,28.3c-0.4-1.5-0.9-2.7-1.6-3.6c-0.7-0.9-1.6-1.6-2.7-1.9c-1.1-0.4-2.3-0.6-3.8-0.5
				c-1.4,0-2.7,0.1-3.9,0.5c-1.2,0.4-2.2,1-3,1.9c-0.8,0.9-1.5,2.1-1.9,3.7c-0.5,1.6-0.7,3.5-0.7,5.7v17.9h-7.8V36.1
				c0-5.5,1.5-9.9,4.4-13.1c2.9-3.2,7.1-4.8,12.7-4.8c3,0,5.6,0.4,7.8,1.3c2.1,0.8,3.9,2,5.2,3.6c1.3,1.5,2.3,3.4,2.9,5.6
				c0.6,2.2,0.9,4.7,0.9,7.5v15.8h-7.8V34C105.7,31.7,105.5,29.8,105.1,28.3"/>
			<polygon id="XMLID_348_" points="137,21.8 129.1,21.8 129.1,52.1 121.5,52.1 121.5,21.8 113.5,21.8 113.5,17.8 121.5,17.8 
				121.5,0.9 129.1,0.9 129.1,17.8 137,17.8 			"/>
			<path id="XMLID_345_" d="M140.6,2.4c1-1,2.2-1.5,3.6-1.5c1.4,0,2.6,0.5,3.6,1.5c1,1,1.5,2.2,1.5,3.6c0,0.7-0.1,1.3-0.4,1.9
				c-0.3,0.6-0.7,1.2-1.2,1.6c-0.5,0.5-1.1,0.9-1.7,1.1c-0.6,0.3-1.2,0.4-1.8,0.4c-1.4,0-2.6-0.5-3.6-1.5c-1-1-1.5-2.2-1.5-3.6
				C139.1,4.6,139.6,3.4,140.6,2.4 M148.3,51.9h-7.8V17.7h7.8V51.9z"/>
			<path id="XMLID_344_" d="M177.2,28.3c-0.4-1.5-0.9-2.7-1.6-3.6c-0.7-0.9-1.6-1.6-2.7-1.9c-1.1-0.4-2.3-0.6-3.8-0.5
				c-1.4,0-2.7,0.1-3.9,0.5c-1.2,0.4-2.2,1-3,1.9c-0.8,0.9-1.5,2.1-1.9,3.7c-0.5,1.6-0.7,3.5-0.7,5.7v17.9h-7.8V36.1
				c0-5.5,1.5-9.9,4.4-13.1c2.9-3.2,7.1-4.8,12.7-4.8c3,0,5.6,0.4,7.8,1.3c2.1,0.8,3.9,2,5.2,3.6c1.3,1.5,2.3,3.4,2.9,5.6
				c0.6,2.2,0.9,4.7,0.9,7.5v15.8h-7.8V34C177.7,31.7,177.5,29.8,177.2,28.3"/>
			<path id="XMLID_341_" d="M212.7,55c-1.3-1.1-4.4-2.6-7.6-2.6c-2.9,0-6.4-0.5-8.5-1.5c-2-1-3.7-2.3-5-3.8
				c-1.3-1.6-2.3-3.4-2.9-5.5c-0.6-2.1-0.9-4.1-0.9-6.2c0.2-5.3,2-9.4,5.4-12.5c3.4-3.1,8.3-4.6,14.6-4.6c6,0,10.7,1.5,14,4.6
				c3.4,3,5.2,7.2,5.4,12.5c-0.2,4.4-1.4,8-3.7,10.8c-2.3,2.8-5.5,4.7-9.7,5.6c1.1,0.6,2,1.2,2.8,1.7c0.8,0.5,1.4,1.1,2,1.7
				c0.5,0.6,1,1.3,1.3,2s0.5,2.3,0.6,2.7c-0.1,12.8-25.3,21-25.3,21l-2.9-5.2c0.1-0.2,17-6.8,20-11.1
				C216.4,58.5,214.6,56.7,212.7,55 M195.7,34.1v3.4c0.1,2.1,0.5,3.8,1.3,5.2c0.7,1.4,1.7,2.5,2.8,3.3c1.1,0.8,2.4,1.4,3.7,1.8
				c1.4,0.3,2.7,0.5,4.1,0.4c1.4,0,2.8-0.1,4.3-0.5c1.4-0.4,2.7-1,3.9-1.9c1.1-0.9,2.1-2.1,2.8-3.7c0.7-1.5,1.1-3.5,1.1-5.7v-2.4
				c0-2.3-0.4-4.2-1.1-5.7c-0.7-1.5-1.6-2.8-2.8-3.7c-1.1-0.9-2.4-1.5-3.9-1.9c-1.4-0.4-2.9-0.5-4.3-0.5c-1.4,0-2.8,0.1-4.2,0.5
				c-1.4,0.4-2.7,1-3.8,1.9c-1.1,0.9-2.1,2.1-2.8,3.6C196,30,195.7,31.9,195.7,34.1"/>
			<path id="XMLID_340_" d="M278.9,52.1h-14.4c-6.4,0-11.2-1.7-14.6-4.8c-3.4-3.2-5-7.5-5-13V0.9h7.8v35.9c0,2.3,0.4,4.2,1.1,5.7
				c0.7,1.5,1.6,2.7,2.7,3.6c1.1,0.9,2.4,1.6,3.8,1.9c1.4,0.4,2.8,0.5,4.2,0.5h14.4V52.1z"/>
			<path id="XMLID_337_" d="M311.8,52h-7.9v-0.2L304,45c-0.8,1.4-1.5,2.6-2.3,3.5c-0.8,0.9-1.5,1.6-2.3,2.1
				c-0.8,0.5-1.6,0.9-2.5,1.1c-0.9,0.2-1.8,0.3-2.8,0.3c-3,0-5.5-0.4-7.6-1.2c-2.1-0.8-3.8-1.9-5.2-3.4s-2.4-3.3-3.1-5.4
				c-0.7-2.1-1.1-4.5-1.2-7.1c0.1-2.6,0.5-5,1.2-7.1c0.7-2.1,1.7-3.9,3.1-5.4c1.4-1.5,3.1-2.6,5.2-3.4c2.1-0.8,4.6-1.2,7.6-1.2
				c3.1,0,5.8,0.4,8,1.2c2.2,0.8,4,1.9,5.4,3.4c1.4,1.5,2.5,3.3,3.1,5.4c0.7,2.1,1.1,4.5,1.2,7.1v0.5v2v4.9v9.3V52z M304,33.8
				c0-2.3-0.2-4.2-0.7-5.7c-0.5-1.5-1.1-2.7-1.9-3.6c-0.8-0.9-1.8-1.6-3-1.9c-1.2-0.4-2.5-0.6-3.9-0.5c-1.4,0-2.7,0.1-3.9,0.5
				c-1.2,0.4-2.2,1-3,1.9c-0.8,0.9-1.5,2.1-1.9,3.7c-0.5,1.5-0.7,3.5-0.7,5.7v2.4c0,2.3,0.2,4.2,0.7,5.7c0.4,1.6,1.1,2.8,1.9,3.7
				c0.8,0.9,1.9,1.6,3,1.9c1.2,0.4,2.5,0.5,3.9,0.5c2.9,0.1,5.2-1.1,6.9-3.5c1.8-2.5,2.6-6,2.6-10.5V33.8z"/>
			<path id="XMLID_334_" d="M314.3,33.4v-4v-5.8v-7.1V8.7V0.8h7.8l0.1,19.1c1.3-0.6,2.8-1.2,4.3-1.7c1.6-0.5,3.4-0.7,5.4-0.7
				c3,0,5.5,0.4,7.6,1.3c2.1,0.8,3.8,2,5.2,3.5c1.4,1.5,2.4,3.4,3.1,5.5c0.7,2.1,1.1,4.5,1.2,7.2c-0.1,2.6-0.5,5-1.2,7.1
				c-0.7,2.1-1.7,3.9-3.1,5.4c-1.4,1.5-3.1,2.6-5.2,3.4c-2.1,0.8-4.6,1.2-7.6,1.2c-3.1,0-5.8-0.4-8-1.2c-2.2-0.8-4-1.9-5.4-3.4
				s-2.5-3.3-3.1-5.4c-0.7-2.1-1.1-4.5-1.2-7.1V33.4z M322.2,36.2c0,2.3,0.2,4.2,0.7,5.7c0.5,1.5,1.1,2.7,1.9,3.6
				c0.8,0.9,1.8,1.6,3,1.9c1.2,0.4,2.5,0.6,3.9,0.5c1.4,0,2.7-0.1,3.9-0.5c1.2-0.4,2.2-1,3-1.9c0.8-0.9,1.5-2.1,1.9-3.7
				c0.5-1.5,0.7-3.5,0.7-5.7v-2.4c0-2.3-0.2-4.2-0.7-5.8c-0.4-1.6-1.1-2.9-1.9-3.8c-0.8-1-1.9-1.7-3-2.1c-1.2-0.4-2.5-0.6-3.9-0.5
				c-1.4,0-2.7,0.2-3.9,0.6c-1.2,0.4-2.2,1.1-3,2.1c-0.8,1-1.5,2.3-1.9,3.8c-0.5,1.6-0.7,3.5-0.7,5.8V36.2z"/>
		</g>
	</g>
</g>
</svg>
