<?xml version="1.0" encoding="utf-8"?>
<!-- Generator: Adobe Illustrator 21.0.0, SVG Export Plug-In . SVG Version: 6.00 Build 0)  -->
<svg version="1.1" id="Layer_1" xmlns="http://www.w3.org/2000/svg" xmlns:xlink="http://www.w3.org/1999/xlink" x="0px" y="0px"
	 viewBox="0 0 36 36" style="enable-background:new 0 0 36 36;" xml:space="preserve">
<style type="text/css">
	.st0{fill:#FFFFFF;}
</style>
<g>
	<path class="st0" d="M8.7,14.5c-2,5,0.4,10.8,5.4,12.9s10.8-0.3,12.9-5.3L8.7,14.5z"/>
	<path class="st0" d="M33.7,25.7L33.7,25.7c0.1-0.3,0.3-0.7,0.4-1C36.6,18.8,35.6,12,31.6,7c-0.9-1.2-2.3-0.8-2.9-0.3l-0.3,0.2
		c-0.5,0.6-1.2,2-0.3,3.1c0.7,0.8,1.2,1.7,1.7,3c1.3,3.2,1.3,6.7,0,9.8c-1.3,3.1-3.8,5.6-6.8,6.9c-3,1.3-6.3,1.4-9.4,0.2
		c0,0-0.1,0-0.1,0c-0.1,0-0.3-0.1-0.4-0.2c-0.1-0.1-0.3-0.1-0.4-0.2c0,0-0.1,0-0.1-0.1c-3-1.4-5.2-3.8-6.5-6.9
		c-1.2-3.1-1.2-6.6,0.1-9.7c1.3-3.2,3.8-5.6,7-6.9c1.3-0.5,2.3-0.8,3.3-0.9c1.4-0.1,1.9-1.6,2-2.4l0-0.4c-0.1-0.8-0.8-2-2.3-1.9
		C9.8,1.3,4.3,5.4,1.9,11.3c-0.1,0.3-0.3,0.7-0.4,1l0,0c-2.8,8.3,1,17.6,9,21.4c0.1,0,0.1,0.1,0.2,0.1c0.1,0.1,0.2,0.1,0.3,0.2
		c0.1,0,0.2,0.1,0.3,0.1c0,0,0,0,0,0c0,0,0,0,0,0c0.1,0,0.2,0.1,0.3,0.1c0.1,0,0.2,0.1,0.3,0.1c0.1,0,0.1,0.1,0.2,0.1
		C20.4,37.4,29.8,33.6,33.7,25.7z"/>
	
		<ellipse transform="matrix(0.9999 -1.455577e-02 1.455577e-02 0.9999 -0.2198 0.349)" class="st0" cx="23.9" cy="15.3" rx="1.9" ry="1.9"/>
</g>
</svg>
