<?xml version="1.0" encoding="utf-8"?>
<!-- Generator: Adobe Illustrator 21.0.0, SVG Export Plug-In . SVG Version: 6.00 Build 0)  -->
<svg version="1.1" id="Layer_1" xmlns="http://www.w3.org/2000/svg" xmlns:xlink="http://www.w3.org/1999/xlink" x="0px" y="0px"
	 viewBox="0 0 960 686" style="enable-background:new 0 0 960 686;" xml:space="preserve">
<style type="text/css">
	.st0{fill:#FFFFFF;}
</style>
<path d="M139,1c7.7,1,15.5,1.8,23.2,3c27.9,4.5,53.2,14.9,74.5,33.8c19.1,17,32.4,37.4,33.1,63.7c0.6,22.7-7.9,42.4-23.6,58.7
	c-7.6,7.9-15.9,15-24.5,23.1c10.8,5.8,21.7,12.3,33.1,17.7c44.3,20.8,88.8,41.1,133.1,61.9c12.8,6,25.2,12.9,37.6,19.7
	c3.2,1.7,5.5,1.7,8.6,0c91.6-51.8,183.2-103.6,274.9-155.3c21.5-12.1,42.5-25.1,64.7-35.7c36-17.3,74.1-25.8,114.4-22.5
	c25.8,2.1,49.9,9.8,73,23.9c-143.2,84.4-285.8,168.5-429.4,253.1C674.1,429.7,816,513,958.4,596.7c-11.3,7.1-23,11.8-35.1,15.3
	c-58.1,17-113,9.9-165.6-20.2c-107.3-61.4-214.9-122.1-322.3-183.2c-4.6-2.6-7.9-2.7-12.5,0c-46.2,26.7-94.9,48.4-144,69.2
	c-18,7.6-35.8,15.4-51.8,26.8c-1.3,0.9-2.6,1.9-4.2,3.1c4.8,3.2,9.3,6.3,13.9,9.2c16.1,10.1,25,25.2,31.2,42.6
	c11.5,31.9,2.8,59-19.6,82.6c-22.9,24.2-51.8,36.8-84.3,41.9c-6.1,1-12.1,2-18.1,3c-9,0-18,0-27,0c-1.8-0.4-3.5-0.9-5.3-1.1
	c-22.6-2.5-44-8.9-63.7-20.4C8.9,641.6-7.1,592.2,12.4,551.7c15.2-31.6,40.9-51,73.7-61.7c25.8-8.4,51.5-17,77.6-24.5
	c73.5-21.3,135.6-60.2,185.8-118c0.4-0.5,0.7-1.1,1.1-1.8c-8.1-8.4-16.2-16.5-24-24.9c-35.9-38.5-79-66.4-128.1-84.5
	c-30.9-11.4-62.6-20.6-93.8-31.3c-15.2-5.2-30.9-9.9-45.1-17.3c-28-14.6-47.8-36.8-56.2-68c-0.9-3.5-1.7-7-2.5-10.6c0-6,0-12,0-18
	c0.4-1.4,0.8-2.9,1.1-4.3c3.5-16.9,10.1-32.4,21.8-45.3C40.3,23.4,61.1,13,84.2,7.1C94.9,4.3,106.1,3,117,1C124.3,1,131.7,1,139,1z
	 M131,643.2c18.1-0.1,35.3-4,51.2-13c21.9-12.5,34.1-34.4,30.7-57.6c-3.7-24.9-19-40.9-42.9-47.4c-10.4-2.8-21.8-3.8-32.6-2.9
	c-30.2,2.4-54.3,16.2-70.3,42.3c-8.3,13.6-10.3,28.2-2.8,42.9c6.8,13.2,17,23.3,31.1,29.1C106.8,641.2,118.7,643.3,131,643.2z
	 M145.8,166.4c4-0.5,11.4-0.8,18.5-2.6c24.1-6.2,40.6-21,45.4-45.9C214.4,93.4,204.1,74,184,61c-30.1-19.4-62.7-21.5-95.3-7
	c-27.4,12.2-44.9,47.9-17.1,80.3C90.1,156,114.1,166,145.8,166.4z"/>
<path class="st0" d="M117,1c-10.9,2-22.1,3.3-32.8,6.1C61.1,13,40.3,23.4,23.9,41.4C12.1,54.3,5.6,69.8,2.1,86.7
	C1.8,88.1,1.4,89.6,1,91C1,61.1,1,31.1,1,1C39.7,1,78.3,1,117,1z"/>
</svg>
