<?xml version="1.0" encoding="iso-8859-1"?>
<!-- Generator: Adobe Illustrator 19.0.0, SVG Export Plug-In . SVG Version: 6.00 Build 0)  -->
<svg version="1.1" id="Capa_1" xmlns="http://www.w3.org/2000/svg" xmlns:xlink="http://www.w3.org/1999/xlink" x="0px" y="0px"
	 viewBox="0 0 480 480" style="enable-background:new 0 0 480 480;" xml:space="preserve">
<g>
	<g>
		<path d="M220,144c-53.019,0-96,42.981-96,96c0.057,52.996,43.004,95.943,96,96c53.019,0,96-42.981,96-96S273.02,144,220,144z
			 M220,320c-44.183,0-80-35.817-80-80c0.049-44.163,35.837-79.952,80-80c44.183,0,80,35.817,80,80C300,284.183,264.183,320,220,320
			z"/>
	</g>
</g>
<g>
	<g>
		<path d="M380,200h-38.488c-2.812-8.464-6.504-16.61-11.016-24.304L316,87.352V0h-16v16h-80v16h80v16h-80v16h80v16h-80v16h81.208
			l8.704,53.024c-49.778-49.365-130.046-49.365-179.824,0l9.8-59.728c0.073-0.428,0.111-0.862,0.112-1.296v-8h80V64h-80V48h80V32
			h-80V16h80V0h-88c-4.418,0-8,3.582-8,8v79.352l-14.496,88.344c-23.34,39.693-23.34,88.915,0,128.608L124,392.648V472
			c0,4.418,3.582,8,8,8h88v-16h-80v-16h80v-16h-80v-16h80v-16h-80v-8c-0.001-0.434-0.039-0.868-0.112-1.296l-9.8-59.728
			c49.778,49.365,130.046,49.365,179.824,0L301.208,384H220v16h80v16h-80v16h80v16h-80v16h80v16h16v-87.352l14.496-88.344
			c4.512-7.694,8.204-15.84,11.016-24.304H380c4.418,0,8-3.582,8-8v-64C388,203.582,384.419,200,380,200z M220,352
			c-61.856,0-112-50.144-112-112c0.066-61.828,50.172-111.934,112-112c61.856,0,112,50.144,112,112S281.856,352,220,352z M372,264
			h-26.336c3.115-15.848,3.115-32.152,0-48H372V264z"/>
	</g>
</g>
<g>
	<g>
		<path d="M228,236.688V184h-16v56c0,2.122,0.844,4.156,2.344,5.656l24,24l11.312-11.312L228,236.688z"/>
	</g>
</g>
<g>
</g>
<g>
</g>
<g>
</g>
<g>
</g>
<g>
</g>
<g>
</g>
<g>
</g>
<g>
</g>
<g>
</g>
<g>
</g>
<g>
</g>
<g>
</g>
<g>
</g>
<g>
</g>
<g>
</g>
</svg>
