<?xml version="1.0" encoding="iso-8859-1"?>
<!-- Generator: Adobe Illustrator 19.0.0, SVG Export Plug-In . SVG Version: 6.00 Build 0)  -->
<svg version="1.1" id="Capa_1" xmlns="http://www.w3.org/2000/svg" xmlns:xlink="http://www.w3.org/1999/xlink" x="0px" y="0px"
	 viewBox="0 0 480.066 480.066" style="enable-background:new 0 0 480.066 480.066;" xml:space="preserve">
<g>
	<g>
		<path d="M479.397,128.15C476.01,107.96,460.19,92.14,440,88.753v-8.72c-0.048-44.163-35.837-79.951-80-80H224
			C112.021,0.416,18.758,86.017,8.8,197.553c-5.791,10.568-8.818,22.429-8.8,34.48c0,4.418,3.582,8,8,8h8v56
			c0.054,32.223,24.033,59.392,56,63.448v25.352c-21.645,4.418-35.61,25.547-31.192,47.192c4.418,21.645,25.547,35.61,47.192,31.192
			c21.645-4.418,35.61-25.547,31.192-47.192c-3.207-15.709-15.483-27.985-31.192-31.192v-25.36c31.964-4.056,55.942-31.22,56-63.44
			v-56h64v64c0.04,35.33,28.67,63.96,64,64h24v32.8c-21.645,4.418-35.61,25.547-31.192,47.192
			c4.418,21.645,25.547,35.61,47.192,31.192c21.645-4.418,35.61-25.547,31.192-47.192c-3.207-15.709-15.483-27.985-31.192-31.192
			v-33.36c31.964-4.056,55.942-31.22,56-63.44v-160h16.72c4.386,26.144,29.136,43.783,55.28,39.397
			C466.144,179.044,483.783,154.295,479.397,128.15z M104,424.033c0,13.255-10.745,24-24,24s-24-10.745-24-24s10.745-24,24-24
			S104,410.778,104,424.033z M128,296.033c0,26.51-21.49,48-48,48s-48-21.49-48-48v-56h96V296.033z M16.568,224.033
			c4.013-27.535,27.606-47.965,55.432-48h112c27.826,0.035,51.419,20.465,55.432,48H16.568z M224,304.033v-64h16v64
			c0.006,17.593,7.281,34.402,20.104,46.448C238.89,345.037,224.042,325.935,224,304.033z M328,440.033c0,13.255-10.745,24-24,24
			s-24-10.745-24-24s10.745-24,24-24S328,426.778,328,440.033z M368,128.033v-96h-16v272c0,26.51-21.49,48-48,48
			c-26.51,0-48-21.49-48-48v-72c-0.048-39.744-32.256-71.952-72-72H72c-15.82,0.002-31.192,5.249-43.712,14.92
			C48.059,82.561,129.517,16.416,224,16.033h136c35.33,0.04,63.96,28.67,64,64v48H368z M462.968,144.058
			c-3.636,14.126-16.381,23.994-30.968,23.976c-14.547-0.055-27.227-9.915-30.864-24H432c4.418,0,8-3.582,8-8v-30.864
			C457.081,109.566,467.364,126.976,462.968,144.058z"/>
	</g>
</g>
<g>
	<g>
		<rect x="320" y="112.033" width="16" height="16"/>
	</g>
</g>
<g>
	<g>
		<rect x="320" y="80.033" width="16" height="16"/>
	</g>
</g>
<g>
	<g>
		<rect x="320" y="144.033" width="16" height="16"/>
	</g>
</g>
<g>
	<g>
		<rect x="320" y="176.033" width="16" height="16"/>
	</g>
</g>
<g>
	<g>
		<rect x="320" y="48.033" width="16" height="16"/>
	</g>
</g>
<g>
	<g>
		<rect x="384" y="48.033" width="16" height="16"/>
	</g>
</g>
<g>
	<g>
		<rect x="384" y="72.033" width="16" height="16"/>
	</g>
</g>
<g>
	<g>
		<rect x="384" y="96.033" width="16" height="16"/>
	</g>
</g>
<g>
	<g>
		<rect x="320" y="256.033" width="16" height="16"/>
	</g>
</g>
<g>
	<g>
		<rect x="304" y="272.033" width="16" height="16"/>
	</g>
</g>
<g>
	<g>
		<rect x="320" y="288.033" width="16" height="16"/>
	</g>
</g>
<g>
</g>
<g>
</g>
<g>
</g>
<g>
</g>
<g>
</g>
<g>
</g>
<g>
</g>
<g>
</g>
<g>
</g>
<g>
</g>
<g>
</g>
<g>
</g>
<g>
</g>
<g>
</g>
<g>
</g>
</svg>
