<?xml version="1.0" encoding="iso-8859-1"?>
<!-- Generator: Adobe Illustrator 19.0.0, SVG Export Plug-In . SVG Version: 6.00 Build 0)  -->
<svg version="1.1" id="Capa_1" xmlns="http://www.w3.org/2000/svg" xmlns:xlink="http://www.w3.org/1999/xlink" x="0px" y="0px"
	 viewBox="0 0 480.049 480.049" style="enable-background:new 0 0 480.049 480.049;" xml:space="preserve">
<g>
	<g>
		<path d="M414.12,175.496c-35.148-41.242-46.948-97.512-31.328-149.4c1.254-4.236-1.163-8.688-5.399-9.942
			c-0.188-0.056-0.377-0.104-0.569-0.146L305.76,0.192c-4.313-0.959-8.587,1.76-9.545,6.073c-0.127,0.572-0.191,1.156-0.191,1.743
			c0,30.928-25.072,56-56,56c-30.928,0-56-25.072-56-56c0.004-4.418-3.575-8.003-7.993-8.007c-0.586,0-1.17,0.063-1.743,0.191
			l-71.064,15.816c-4.314,0.955-7.037,5.226-6.083,9.539c0.042,0.19,0.091,0.378,0.147,0.565c4.46,14.891,6.729,30.352,6.736,45.896
			c-0.034,37.921-13.535,74.596-38.096,103.488c-1.228,1.445-1.903,3.28-1.904,5.176v243.336c-0.001,2.377,1.054,4.631,2.88,6.152
			c32.489,27.118,72.381,43.842,114.496,48l17.824,1.848c0.272,0,0.536,0.04,0.8,0.04c1.238,0.014,2.462-0.26,3.576-0.8
			l36.424-18.296l36.424,18.256c1.114,0.54,2.338,0.814,3.576,0.8c0.264,0,0.528,0,0.8-0.04l17.824-1.784
			c42.115-4.158,82.007-20.882,114.496-48c1.833-1.526,2.889-3.791,2.88-6.176V180.672
			C416.023,178.776,415.349,176.941,414.12,175.496z M184.024,53.16c13.637,16.969,34.23,26.843,56,26.848
			c21.77-0.005,42.363-9.879,56-26.848v3.424c0.109,38.511-15.193,75.464-42.496,102.624l-13.504,13.488l-13.504-13.488
			c-27.303-27.16-42.605-64.113-42.496-102.624V53.16z M80.024,330.76l64,19.2v15.296l-64-19.2V330.76z M198.52,463.824l-15.528-1.6
			c-37.673-3.71-73.451-18.307-102.968-42.008V362.76l69.704,20.912c4.232,1.268,8.691-1.135,9.959-5.367
			c0.223-0.745,0.337-1.519,0.337-2.297v-32c0-3.534-2.319-6.65-5.704-7.664l-74.296-22.288V183.568
			c25.829-31.444,39.964-70.867,40-111.56c-0.006-14.227-1.745-28.401-5.176-42.208l53.176-11.824v38.608
			c-0.112,42.753,16.884,83.774,47.2,113.92l13.488,13.504l-50.344,50.344c-1.5,1.5-2.344,3.534-2.344,5.656v184
			c-0.017,3.047,1.699,5.838,4.424,7.2l41.688,20.8L198.52,463.824z M400.024,346.056l-64,19.2V349.96l64-19.2V346.056z
			 M400.024,314.056l-74.296,22.288c-3.385,1.014-5.704,4.13-5.704,7.664v32c0,4.418,3.581,8,7.999,8.001
			c0.778,0,1.551-0.113,2.297-0.337l69.704-20.912v57.456c-29.512,23.716-65.291,38.326-102.968,42.048l-15.528,1.6l-89.504-44.8
			V243.32l72.8-72.8c30.32-30.15,47.316-71.177,47.2-113.936V17.976L365.2,29.8c-13.39,53.879-0.472,110.915,34.824,153.768V314.056
			z"/>
	</g>
</g>
<g>
	<g>
		<circle cx="220.024" cy="260.008" r="12"/>
	</g>
</g>
<g>
	<g>
		<circle cx="276.024" cy="260.008" r="12"/>
	</g>
</g>
<g>
	<g>
		<circle cx="220.024" cy="316.008" r="12"/>
	</g>
</g>
<g>
	<g>
		<circle cx="276.024" cy="316.008" r="12"/>
	</g>
</g>
<g>
	<g>
		<circle cx="220.024" cy="372.008" r="12"/>
	</g>
</g>
<g>
	<g>
		<circle cx="276.024" cy="372.008" r="12"/>
	</g>
</g>
<g>
	<g>
		<rect x="368.024" y="216.008" width="16" height="16"/>
	</g>
</g>
<g>
	<g>
		<rect x="352.024" y="232.008" width="16" height="16"/>
	</g>
</g>
<g>
	<g>
		<rect x="368.024" y="248.008" width="16" height="16"/>
	</g>
</g>
<g>
	<g>
		<rect x="352.024" y="264.008" width="16" height="16"/>
	</g>
</g>
<g>
</g>
<g>
</g>
<g>
</g>
<g>
</g>
<g>
</g>
<g>
</g>
<g>
</g>
<g>
</g>
<g>
</g>
<g>
</g>
<g>
</g>
<g>
</g>
<g>
</g>
<g>
</g>
<g>
</g>
</svg>
