<?xml version="1.0" encoding="iso-8859-1"?>
<!-- Generator: Adobe Illustrator 19.0.0, SVG Export Plug-In . SVG Version: 6.00 Build 0)  -->
<svg version="1.1" id="Capa_1" xmlns="http://www.w3.org/2000/svg" xmlns:xlink="http://www.w3.org/1999/xlink" x="0px" y="0px"
	 viewBox="0 0 480 480" style="enable-background:new 0 0 480 480;" xml:space="preserve">
<g>
	<g>
		<path d="M400,376h-72V269.208c-0.003-3.389-2.141-6.408-5.336-7.536C306.709,256.01,296.036,240.93,296,224V8c0-4.418-3.582-8-8-8
			h-40c-4.418,0-8,3.582-8,8v160c0,22.091-17.909,40-40,40c-22.091,0-40-17.909-40-40V8c0-4.418-3.582-8-8-8h-40
			c-4.418,0-8,3.582-8,8v216c-0.036,16.93-10.709,32.01-26.664,37.672c-3.195,1.128-5.333,4.147-5.336,7.536V472
			c0,4.418,3.582,8,8,8h320c4.418,0,8-3.582,8-8v-88C408,379.582,404.418,376,400,376z M392,464H88V274.552
			c19.516-9.277,31.965-28.943,32-50.552V16h24v152c0,30.928,25.072,56,56,56c30.928,0,56-25.072,56-56V16h24v208
			c0.035,21.609,12.484,41.275,32,50.552V448h16v-56h64V464z"/>
	</g>
</g>
<g>
	<g>
		<rect x="280" y="288" width="16" height="16"/>
	</g>
</g>
<g>
	<g>
		<rect x="264" y="304" width="16" height="16"/>
	</g>
</g>
<g>
	<g>
		<rect x="280" y="320" width="16" height="16"/>
	</g>
</g>
<g>
	<g>
		<rect x="264" y="336" width="16" height="16"/>
	</g>
</g>
<g>
	<g>
		<rect x="280" y="352" width="16" height="16"/>
	</g>
</g>
<g>
	<g>
		<rect x="264" y="368" width="16" height="16"/>
	</g>
</g>
<g>
	<g>
		<rect x="280" y="384" width="16" height="16"/>
	</g>
</g>
<g>
	<g>
		<rect x="264" y="400" width="16" height="16"/>
	</g>
</g>
<g>
	<g>
		<rect x="280" y="416" width="16" height="16"/>
	</g>
</g>
<g>
	<g>
		<rect x="264" y="432" width="16" height="16"/>
	</g>
</g>
<g>
</g>
<g>
</g>
<g>
</g>
<g>
</g>
<g>
</g>
<g>
</g>
<g>
</g>
<g>
</g>
<g>
</g>
<g>
</g>
<g>
</g>
<g>
</g>
<g>
</g>
<g>
</g>
<g>
</g>
</svg>
