<?xml version="1.0" encoding="iso-8859-1"?>
<!-- Generator: Adobe Illustrator 19.0.0, SVG Export Plug-In . SVG Version: 6.00 Build 0)  -->
<svg version="1.1" id="Capa_1" xmlns="http://www.w3.org/2000/svg" xmlns:xlink="http://www.w3.org/1999/xlink" x="0px" y="0px"
	 viewBox="0 0 480 480" style="enable-background:new 0 0 480 480;" xml:space="preserve">
<g>
	<g>
		<path d="M474.672,135.724l0.912-1.832l-1.024-0.512l-2.064-43.472c-0.409-8.914-4.818-17.168-12-22.464
			c-0.371-0.282-0.767-0.528-1.184-0.736c-6.066-3.05-13.1-3.548-19.536-1.384c-6.624,2.228-12.06,7.05-15.064,13.36
			c-2.373,4.736-8.133,6.655-12.872,4.288l-3.128-1.6c-11.067-5.531-24.507-2.356-31.928,7.544l-6.4,8.504
			c-2.787,3.724-7.844,4.915-12,2.824l-7.528-3.768c-9.855-4.923-21.755-2.99-29.544,4.8l-4.8,4.84
			c-3.235,3.224-8.294,3.723-12.096,1.192c-10.156-6.738-23.652-5.401-32.288,3.2l-3.616,3.616c-3.236,3.228-8.3,3.727-12.104,1.192
			l-2.24-1.496c-8.587-5.743-19.789-5.743-28.376,0l-2.256,1.496c-3.804,2.529-8.863,2.027-12.096-1.2l-3.616-3.6
			c-8.635-8.604-22.132-9.942-32.288-3.2c-3.802,2.531-8.861,2.032-12.096-1.192l-4.84-4.84c-7.789-7.79-19.689-9.723-29.544-4.8
			l-7.528,3.768c-4.144,2.07-9.175,0.885-11.96-2.816l-6.4-8.52c-7.423-9.893-20.857-13.064-31.92-7.536l-3.128,1.6
			c-2.277,1.138-4.913,1.325-7.328,0.52c-2.588-0.908-4.688-2.841-5.808-5.344c-6.323-12.64-21.693-17.764-34.336-11.448
			c-0.42,0.206-0.82,0.453-1.192,0.736c-6.982,5.211-11.612,12.979-12.872,21.6c-0.04,0.265-0.064,0.532-0.072,0.8l-1.816,43.88
			l-0.312,0.152l0.28,0.568L0,247.668c-0.004,1.857,0.606,3.663,1.736,5.136c0.402,0.557,0.87,1.065,1.392,1.512L192.96,412.548
			l1.896,1.6c1.443,1.204,3.265,1.861,5.144,1.856h80c1.874,0.001,3.689-0.656,5.128-1.856l1.896-1.6L476.8,254.404
			c0.064-0.048,0.104-0.128,0.16-0.176c0.056-0.048,0.128-0.072,0.184-0.12c0.056-0.048,0.176-0.288,0.296-0.4
			c0.438-0.463,0.819-0.976,1.136-1.528c0.938-1.331,1.436-2.923,1.424-4.552L474.672,135.724z M22.52,90.964
			c0.675-4.015,2.784-7.648,5.936-10.224c2.135-0.89,4.519-0.975,6.712-0.24c2.585,0.908,4.685,2.837,5.808,5.336
			c6.323,12.64,21.693,17.764,34.336,11.448l3.136-1.6c4.156-2.091,9.213-0.901,12,2.824l6.4,8.512
			c7.423,9.893,20.857,13.064,31.92,7.536l7.52-3.76c3.694-1.849,8.157-1.127,11.08,1.792l4.8,4.8
			c8.636,8.601,22.132,9.938,32.288,3.2c3.804-2.529,8.863-2.027,12.096,1.2l3.616,3.608c8.636,8.594,22.124,9.931,32.28,3.2
			l2.248-1.496c3.224-2.149,7.424-2.149,10.648,0l2.232,1.488c10.156,6.738,23.652,5.401,32.288-3.2l3.616-3.608
			c3.233-3.227,8.292-3.729,12.096-1.2c10.158,6.732,23.649,5.395,32.288-3.2l4.8-4.8c2.921-2.922,7.384-3.647,11.08-1.8l7.52,3.752
			c11.064,5.535,24.502,2.366,31.928-7.528l6.4-8.512c2.787-3.724,7.844-4.915,12-2.824l3.136,1.6
			c6.063,3.06,13.1,3.562,19.536,1.392c6.623-2.231,12.058-7.051,15.064-13.36c2.25-4.503,7.595-6.503,12.248-4.584
			c2.981,2.464,4.783,6.073,4.96,9.936l1.656,34.648c-5.797-2.614-12.366-2.951-18.4-0.944c-6.624,2.228-12.06,7.05-15.064,13.36
			c-2.373,4.736-8.133,6.655-12.872,4.288l-3.128-1.6c-11.08-5.519-24.523-2.32-31.928,7.6l-6.4,8.504
			c-2.785,3.727-7.842,4.921-12,2.832l-7.528-3.768c-7.66-3.821-16.726-3.541-24.136,0.744
			c-9.576-14.096-28.176-18.813-43.312-10.984L240,167.06l-43.464-21.736c-13.197-6.623-29.153-4.043-39.592,6.4
			c-1.372,1.409-2.622,2.932-3.736,4.552c-7.409-4.281-16.472-4.558-24.128-0.736l-7.528,3.768c-4.146,2.068-9.177,0.88-11.96-2.824
			l-6.392-8.48c-7.423-9.893-20.857-13.064-31.92-7.536l-3.128,1.6c-2.277,1.138-4.913,1.325-7.328,0.52
			c-2.588-0.908-4.688-2.841-5.808-5.344c-6.216-12.514-21.339-17.702-33.928-11.64L22.52,90.964z M290.624,192.348l-32.736-16.344
			l32.736-16.368c9.032-4.531,20.027-0.882,24.558,8.149c3.538,7.053,2.156,15.581-3.43,21.155v-0.024
			C306.186,194.494,297.67,195.878,290.624,192.348z M222.12,176.004l-32.736,16.368c-9.044,4.517-20.037,0.848-24.554-8.195
			c-3.518-7.043-2.138-15.547,3.426-21.117c5.571-5.571,14.083-6.951,21.128-3.424L222.12,176.004z M191.704,390.668L25.008,251.772
			c2.672-0.64,5.344-1.272,8-1.744c0.44-0.08,0.88-0.128,1.312-0.2c2.952-0.488,5.912-0.864,8.872-1.152
			c0.896-0.08,1.784-0.168,2.68-0.232c3.392-0.264,6.76-0.44,10.128-0.44c75.076,0.084,135.916,60.924,136,136
			C192,386.14,191.832,388.42,191.704,390.668z M207.032,400.004c0.12-1.024,0.168-1.984,0.264-2.984s0.192-2.008,0.264-2.984
			c0.264-3.44,0.44-6.8,0.44-10.032c-0.006-5.345-0.292-10.685-0.856-16h65.712c-0.564,5.315-0.85,10.655-0.856,16
			c0,3.2,0.176,6.592,0.44,10.032c0.072,0.976,0.168,1.984,0.264,2.984s0.144,1.96,0.264,2.984H207.032z M288.296,390.668
			c-0.128-2.248-0.296-4.528-0.296-6.664c0.084-75.076,60.924-135.916,136-136c3.368,0,6.736,0.176,10.096,0.44
			c0.896,0.064,1.784,0.152,2.68,0.232c2.96,0.288,5.92,0.664,8.872,1.152c0.44,0.072,0.872,0.12,1.312,0.2
			c2.688,0.472,5.36,1.104,8,1.744L288.296,390.668z M462.608,237.132c-0.92-0.24-1.84-0.424-2.76-0.656
			c-2.896-0.712-5.8-1.352-8.712-1.888c-1.272-0.232-2.544-0.44-3.824-0.648c-2.72-0.421-5.443-0.773-8.168-1.056
			c-1.184-0.12-2.4-0.264-3.56-0.36c-3.888-0.32-7.736-0.52-11.584-0.52c-71.568,0.105-133.397,50.053-148.544,120h-70.912
			c-15.147-69.947-76.976-119.895-148.544-120c-3.856,0-7.704,0.2-11.552,0.496c-1.184,0.096-2.352,0.24-3.528,0.36
			c-2.741,0.283-5.477,0.637-8.208,1.064c-1.272,0.2-2.536,0.408-3.8,0.64c-2.904,0.536-5.792,1.176-8.68,1.88
			c-0.944,0.232-1.888,0.424-2.824,0.672c-0.32,0.088-0.608,0.144-0.96,0.232v-0.024l3.88-93.52l7.512-3.76
			c2.275-1.147,4.914-1.334,7.328-0.52c2.588,0.908,4.688,2.841,5.808,5.344c6.323,12.64,21.693,17.764,34.336,11.448l3.136-1.6
			c4.154-2.092,9.21-0.906,12,2.816l6.4,8.52c7.425,9.89,20.858,13.058,31.92,7.528l7.52-3.76c3.694-1.849,8.157-1.127,11.08,1.792
			c-0.23,1.43-0.372,2.873-0.424,4.32c-0.019,18.932,15.314,34.295,34.246,34.314c5.344,0.005,10.616-1.239,15.394-3.634
			l17.192-8.592c-9.083,16.993-13.816,35.972-13.776,55.24v2.744h16v-2.744c-0.07-23.986,8.443-47.207,24-65.464
			c15.556,18.255,24.068,41.472,24,65.456v2.752h16v-2.752c0.048-19.251-4.668-38.214-13.728-55.2l17.2,8.6
			c16.828,8.49,37.352,1.731,45.842-15.097c3.099-6.142,4.269-13.077,3.358-19.895c2.919-2.924,7.382-3.653,11.08-1.808l7.52,3.776
			c11.067,5.531,24.507,2.356,31.928-7.544l6.4-8.504c2.787-3.725,7.844-4.915,12-2.824l3.136,1.6
			c6.062,3.065,13.101,3.566,19.536,1.392c6.624-2.228,12.06-7.05,15.064-13.36c2.373-4.736,8.133-6.655,12.872-4.288l6.856,3.432
			l4.472,93.824C463.224,237.268,462.912,237.212,462.608,237.132z"/>
	</g>
</g>
<g>
	<g>
		<circle cx="212" cy="292.004" r="12"/>
	</g>
</g>
<g>
	<g>
		<circle cx="268" cy="292.004" r="12"/>
	</g>
</g>
<g>
	<g>
		<circle cx="324" cy="236.004" r="12"/>
	</g>
</g>
<g>
	<g>
		<circle cx="436" cy="204.004" r="12"/>
	</g>
</g>
<g>
	<g>
		<circle cx="44" cy="204.004" r="12"/>
	</g>
</g>
<g>
	<g>
		<circle cx="156" cy="236.004" r="12"/>
	</g>
</g>
<g>
</g>
<g>
</g>
<g>
</g>
<g>
</g>
<g>
</g>
<g>
</g>
<g>
</g>
<g>
</g>
<g>
</g>
<g>
</g>
<g>
</g>
<g>
</g>
<g>
</g>
<g>
</g>
<g>
</g>
</svg>
