<?xml version="1.0" encoding="iso-8859-1"?>
<!-- Generator: Adobe Illustrator 19.0.0, SVG Export Plug-In . SVG Version: 6.00 Build 0)  -->
<svg version="1.1" id="Capa_1" xmlns="http://www.w3.org/2000/svg" xmlns:xlink="http://www.w3.org/1999/xlink" x="0px" y="0px"
	 viewBox="0 0 480.013 480.013" style="enable-background:new 0 0 480.013 480.013;" xml:space="preserve">
<g>
	<g>
		<path d="M479.246,244.491l-80.056-168c-0.703-1.473-1.839-2.695-3.256-3.504l-54.56-31.2L318.39,11.131
			c-1.145-1.53-2.799-2.6-4.664-3.016c-48.574-10.712-98.898-10.712-147.472,0c-1.865,0.416-3.519,1.486-4.664,3.016l-23.008,30.672
			l-54.56,31.2c-1.417,0.809-2.553,2.031-3.256,3.504l-80,168c-1.447,3.065-0.806,6.709,1.6,9.096l106.92,106.936l-5.296,111.008
			c-0.212,4.413,3.194,8.163,7.607,8.375c0.131,0.006,0.262,0.009,0.393,0.009h73.376c16.599-0.049,32.509-6.64,44.28-18.344
			c4.074-4.099,7.556-8.746,10.344-13.808c2.788,5.062,6.27,9.709,10.344,13.808c11.771,11.704,27.681,18.295,44.28,18.344h73.376
			c4.418,0.005,8.004-3.573,8.009-7.991c0-0.131-0.003-0.262-0.009-0.393l-5.288-111.008l106.944-106.952
			C480.053,251.2,480.694,247.556,479.246,244.491z M231.99,417.307c-0.035,12.358-4.942,24.205-13.656,32.968
			c-8.763,8.714-20.609,13.621-32.968,13.656h-64.984l7.608-159.616c0-0.264,0-0.544,0-0.8l-8-152l-16,0.848l0.656,12.392
			L64.71,252.619l14.56,6.624l5.224-11.496l25.896,25.896l1.6,30.288l-1.664,34.992l-92.688-92.656L94.142,85.635l41.848-23.92
			v43.656l-6.4-1.28c-4.334-0.861-8.545,1.955-9.405,6.288c-0.371,1.869-0.063,3.81,0.869,5.472l72,128l13.936-7.84l-63.456-112.8
			l22.92,4.584c2.614,0.516,5.313-0.302,7.2-2.184l15.616-15.616l42.72,170.904V417.307z M109.126,249.771l-17.6-17.6l14.912-32.8
			L109.126,249.771z M193.542,61.179l16.976-5.664l-5.056-15.2l-24,8c-3.961,1.321-6.24,5.468-5.232,9.52l8.504,34.008
			l-19.376,19.368l-13.368-2.64V50.595l20.608-27.464c44.438-9.384,90.346-9.384,134.784,0l20.608,27.464v57.976l-13.368,2.672
			l-19.376-19.368l8.504-34.008c1.008-4.052-1.271-8.199-5.232-9.52l-24-8l-5.056,15.2l16.976,5.664L239.99,246.947L193.542,61.179z
			 M294.614,463.931c-25.75,0-46.624-20.874-46.624-46.624V280.899l42.728-170.928l15.616,15.616c1.887,1.882,4.586,2.7,7.2,2.184
			l22.92-4.584l-63.456,112.8l13.936,7.84l24.728-43.896h45.784l-5.456,103.576c0,0.264,0,0.544,0,0.8l7.608,159.624H294.614z
			 M369.662,338.947l-1.672-35.016l1.6-30.312l25.888-25.896l5.224,11.496l14.56-6.624l-39.936-87.864l0.664-12.376l-16-0.848
			l-1.696,32.424h-37.6l38.296-68.08c2.169-3.849,0.808-8.728-3.041-10.897c-1.687-0.951-3.662-1.258-5.559-0.863l-6.4,1.28V61.715
			l41.848,23.92l76.504,160.632L369.662,338.947z M370.814,249.795l2.688-50.4l14.912,32.8L370.814,249.795z"/>
	</g>
</g>
<g>
	<g>
		<rect x="143.99" y="351.931" width="56" height="16"/>
	</g>
</g>
<g>
	<g>
		<rect x="279.99" y="351.931" width="56" height="16"/>
	</g>
</g>
<g>
	<g>
		<rect x="135.99" y="431.931" width="16" height="16"/>
	</g>
</g>
<g>
	<g>
		<rect x="151.99" y="415.931" width="16" height="16"/>
	</g>
</g>
<g>
</g>
<g>
</g>
<g>
</g>
<g>
</g>
<g>
</g>
<g>
</g>
<g>
</g>
<g>
</g>
<g>
</g>
<g>
</g>
<g>
</g>
<g>
</g>
<g>
</g>
<g>
</g>
<g>
</g>
</svg>
