<?xml version="1.0" encoding="iso-8859-1"?>
<!-- Generator: Adobe Illustrator 19.0.0, SVG Export Plug-In . SVG Version: 6.00 Build 0)  -->
<svg version="1.1" id="Capa_1" xmlns="http://www.w3.org/2000/svg" xmlns:xlink="http://www.w3.org/1999/xlink" x="0px" y="0px"
	 viewBox="0 0 480 480" style="enable-background:new 0 0 480 480;" xml:space="preserve">
<g>
	<g>
		<path d="M411.894,146.312l-40-40c-1.569-1.5-3.661-2.329-5.832-2.312c-2.183,0.046-4.252,0.982-5.728,2.592L289.75,183.6v-28.968
			c-0.003-7.395-0.436-14.783-1.296-22.128l-14.76-125.44C273.22,3.036,269.806,0.001,265.75,0h-176
			c-4.056,0.001-7.469,3.036-7.944,7.064l-14.76,125.44c-0.86,7.345-1.293,14.733-1.296,22.128v55.032
			c-0.001,15.488,1.899,30.918,5.656,45.944L75.71,272.8c3.825,15.405,4.207,31.463,1.12,47.032
			c-4.413,22.033-4.08,44.754,0.976,66.648L97.95,473.8c0.839,3.631,4.073,6.202,7.8,6.2h40c4.009-0.001,7.399-2.97,7.928-6.944
			l8.528-63.928c5.033-37.742,4.879-75.995-0.456-113.696v-10.784c0-7.518,1.21-14.987,3.584-22.12
			c2.928-8.77,4.419-17.955,4.416-27.2V135.48l-1.6-25.08c6.214,2.181,12.986,2.181,19.2,0l-1.6,25.6v99.352
			c-0.003,9.245,1.488,18.43,4.416,27.2c2.372,7.125,3.582,14.586,3.584,22.096V296c0,4.418,3.582,8,8,8h67.512
			c2.193,0,4.289-0.899,5.8-2.488l136.968-144C415.042,154.364,414.981,149.386,411.894,146.312z M96.87,16h161.76l1.888,16H94.982
			L96.87,16z M265.838,288H209.75v-3.352c0.002-9.245-1.486-18.429-4.408-27.2c-2.378-7.124-3.591-14.585-3.592-22.096v-98.856
			l2.4-38.448c3.656-5.308,5.609-11.603,5.6-18.048h-16c0,8.837-7.163,16-16,16s-16-7.163-16-16h-16
			c-0.009,6.445,1.944,12.74,5.6,18.048l2.4,37.952v99.352c0,7.518-1.21,14.987-3.584,22.12c-2.928,8.77-4.419,17.955-4.416,27.2
			V296c-0.001,0.377,0.025,0.755,0.08,1.128c5.202,36.43,5.374,73.403,0.512,109.88l-7.6,56.992H112.15l-18.72-81.12
			c-4.547-19.679-4.847-40.1-0.88-59.904c3.548-17.894,3.108-36.351-1.288-54.056l-4.312-17.192
			c-3.439-13.757-5.185-27.883-5.2-42.064v-55.032c0.002-6.772,0.397-13.538,1.184-20.264L93.102,48h52.648v16h16V48h100.648
			l10.168,86.4c0.785,6.715,1.181,13.471,1.184,20.232v55.032c-0.005,14.179-1.74,28.305-5.168,42.064l15.512,3.872
			c3.758-15.023,5.657-30.45,5.656-45.936v-2.4l76.736-83.696l28.576,28.576L265.838,288z"/>
	</g>
</g>
<g>
	<g>
		<rect x="233.75" y="64" width="16" height="16"/>
	</g>
</g>
<g>
	<g>
		<rect x="233.75" y="96" width="16" height="16"/>
	</g>
</g>
<g>
	<g>
		<rect x="233.75" y="128" width="16" height="16"/>
	</g>
</g>
<g>
	<g>
		<rect x="233.75" y="160" width="16" height="16"/>
	</g>
</g>
<g>
	<g>
		<rect x="233.75" y="192" width="16" height="16"/>
	</g>
</g>
<g>
	<g>
		<rect x="233.75" y="224" width="16" height="16"/>
	</g>
</g>
<g>
	<g>
		<rect x="233.75" y="256" width="16" height="16"/>
	</g>
</g>
<g>
</g>
<g>
</g>
<g>
</g>
<g>
</g>
<g>
</g>
<g>
</g>
<g>
</g>
<g>
</g>
<g>
</g>
<g>
</g>
<g>
</g>
<g>
</g>
<g>
</g>
<g>
</g>
<g>
</g>
</svg>
