<?xml version="1.0" encoding="iso-8859-1"?>
<!-- Generator: Adobe Illustrator 19.0.0, SVG Export Plug-In . SVG Version: 6.00 Build 0)  -->
<svg version="1.1" id="Capa_1" xmlns="http://www.w3.org/2000/svg" xmlns:xlink="http://www.w3.org/1999/xlink" x="0px" y="0px"
	 viewBox="0 0 480 480" style="enable-background:new 0 0 480 480;" xml:space="preserve">
<g>
	<g>
		<path d="M472,187.312c10.665-10.666,10.665-27.958,0-38.624l-66.344-66.344c-0.669-0.645-1.446-1.168-2.296-1.544
			c-0.238-0.101-0.481-0.189-0.728-0.264c-0.695-0.247-1.423-0.393-2.16-0.432c-0.16,0-0.296-0.096-0.464-0.096H248V62.992
			c17.112-4.418,27.402-21.872,22.984-38.984C266.565,6.896,249.112-3.394,232,1.024C217.874,4.671,208.004,17.411,208,32h16
			c0-8.837,7.163-16,16-16s16,7.163,16,16s-7.163,16-16,16c-4.418,0-8,3.582-8,8v24H80c-0.156,0.023-0.311,0.056-0.464,0.096
			c-0.743,0.037-1.477,0.186-2.176,0.44c-0.239,0.069-0.474,0.152-0.704,0.248c-0.851,0.382-1.63,0.907-2.304,1.552L8,148.688
			c-10.665,10.666-10.665,27.958,0,38.624l64,64V472c0,4.418,3.582,8,8,8h384c4.418,0,8-3.582,8-8v-88c0-4.418-3.582-8-8-8h-56
			V251.312L472,187.312z M408,107.312l8.688,8.688L408,124.688V107.312z M408,147.312l20-20L440.688,140L408,172.688V147.312z
			 M408,195.312l44-44l8.688,8.688c4.415,4.42,4.415,11.58,0,16L408,228.688V195.312z M72,228.688L19.312,176
			c-4.415-4.42-4.415-11.58,0-16L28,151.312l44,44V228.688z M72,172.688L39.312,140L52,127.312l20,20V172.688z M72,124.688
			L63.312,116L72,107.312V124.688z M351.592,96H392v40h-50.96C347.034,123.446,350.614,109.877,351.592,96z M392,152v32h-94.608
			c13.587-8.132,25.308-19.036,34.4-32H392z M216,96v16h16V96h71.4c-5.881,35.015-39.034,58.633-74.048,52.752
			C202.32,144.211,181.14,123.031,176.6,96H216z M160.408,96c5.892,43.949,46.296,74.799,90.245,68.907
			c35.876-4.81,64.097-33.031,68.907-68.907h16c-4.193,49.686-45.698,87.907-95.56,88c-49.875-0.077-91.398-38.302-95.592-88
			H160.408z M88,96h40.408c0.978,13.877,4.557,27.446,10.552,40H88V96z M88,152h60.216c9.089,12.964,20.808,23.867,34.392,32H88V152
			z M88,200h304v32H88V200z M88,248h304v32H88V248z M88,296h304v32H88V296z M88,344h304v32H88V344z M88,392h304v32H88V392z M456,464
			H88v-24h304v8h16v-8h48V464z M456,392v32h-48v-32H456z"/>
	</g>
</g>
<g>
	<g>
		<rect x="232" y="112" width="16" height="16"/>
	</g>
</g>
<g>
</g>
<g>
</g>
<g>
</g>
<g>
</g>
<g>
</g>
<g>
</g>
<g>
</g>
<g>
</g>
<g>
</g>
<g>
</g>
<g>
</g>
<g>
</g>
<g>
</g>
<g>
</g>
<g>
</g>
</svg>
