<?xml version="1.0" encoding="iso-8859-1"?>
<!-- Generator: Adobe Illustrator 19.0.0, SVG Export Plug-In . SVG Version: 6.00 Build 0)  -->
<svg version="1.1" id="Capa_1" xmlns="http://www.w3.org/2000/svg" xmlns:xlink="http://www.w3.org/1999/xlink" x="0px" y="0px"
	 viewBox="0 0 480.157 480.157" style="enable-background:new 0 0 480.157 480.157;" xml:space="preserve">
<g>
	<g>
		<path d="M372.422,202.042l-29.224-55.2c-0.08-0.144-0.2-0.232-0.28-0.368l-25.752-49.512c-4.203-9.55-10.15-18.231-17.536-25.6
			c-3.206-3.163-6.657-6.068-10.32-8.688c16.869-5.134,26.383-22.971,21.249-39.841C305.425,5.964,287.588-3.55,270.718,1.584
			c-13.456,4.095-22.646,16.513-22.632,30.578V47.05c-2.648-0.248-5.312-0.392-8-0.392s-5.352,0.144-8,0.392V32.162
			C232.176,14.489,217.921,0.09,200.248,0c-17.673-0.089-32.072,14.165-32.161,31.838c-0.072,14.18,9.197,26.716,22.775,30.803
			c-3.663,2.62-7.114,5.525-10.32,8.688c-6.549,6.338-11.882,13.821-15.736,22.08l-27.728,53.392l-29.232,55.2
			c-38.832,8.48-83.72,24.12-83.72,51.432c0,15.68,14.96,29.192,44.368,40.184c0.144,0.072,0.232,0.208,0.384,0.272
			c47.328,20.997,101.28,21.246,148.8,0.688h44.8c47.52,20.558,101.472,20.309,148.8-0.688c0.144-0.064,0.232-0.2,0.376-0.272
			c29.416-10.984,44.376-24.496,44.376-40.184C456.126,226.17,411.478,210.562,372.422,202.042z M264.086,32.162
			c0-8.837,7.163-16,16-16s16,7.163,16,16s-7.163,16-16,16h-16V32.162z M184.086,32.162c0-8.837,7.163-16,16-16s16,7.163,16,16v16
			h-16C191.25,48.162,184.086,40.998,184.086,32.162z M179.334,100.074c3.086-6.517,7.328-12.42,12.52-17.424
			c7.921-7.958,17.693-13.827,28.44-17.08c-18.345,24.572-28.242,54.423-28.208,85.088h16c-0.068-31.091,11.324-61.116,32-84.336
			c20.691,23.211,32.086,53.242,32,84.336h16c0.024-30.677-9.893-60.536-28.264-85.104c10.769,3.249,20.561,9.124,28.496,17.096
			c6.081,6.115,10.965,13.313,14.4,21.224l24.296,46.744l-22.024,41.6c-43.187-3.648-86.605-3.648-129.792,0l-22.04-41.656
			L179.334,100.074z M68.462,276.402c-17.832-7.44-28.336-15.824-28.336-22.968h0.008c0-9.208,18.04-22.256,57.736-32.568
			L68.462,276.402z M83.286,282.562l0.048-0.008l60.8-114.88l60.8,114.88C165.781,297.599,122.442,297.602,83.286,282.562z
			 M259.286,278.562l-38.352,0.016l-37.6-70.968c37.779-2.836,75.717-2.836,113.496,0L259.286,278.562z M275.286,282.562
			l0.048-0.008l60.8-114.88l60.8,114.88C357.781,297.599,314.442,297.602,275.286,282.562z M411.81,276.393l-29.404-55.544
			c39.712,10.304,57.744,23.352,57.744,32.584C440.126,260.575,429.638,268.955,411.81,276.393z"/>
	</g>
</g>
<g>
	<g>
		<path d="M240.086,332.162c-32.064,0-192,1.736-192,36c0,10.4,14.76,17.776,36.16,23.048l122.056,78.968
			c20.557,13.306,47.01,13.306,67.568,0l122.056-78.968c21.4-5.264,36.16-12.648,36.16-23.048
			C432.086,333.898,272.15,332.162,240.086,332.162z M265.174,456.754c-15.32,9.696-34.856,9.696-50.176,0l-90.576-58.616
			c38.418,4.089,77.029,6.1,115.664,6.024c38.638,0.076,77.251-1.935,115.672-6.024L265.174,456.754z M240.086,388.162
			c-97.32,0-161.984-11.312-174.648-20c12.664-8.688,77.336-20,174.648-20c97.32,0,161.992,11.312,174.656,20
			C402.078,376.85,337.406,388.162,240.086,388.162z"/>
	</g>
</g>
<g>
</g>
<g>
</g>
<g>
</g>
<g>
</g>
<g>
</g>
<g>
</g>
<g>
</g>
<g>
</g>
<g>
</g>
<g>
</g>
<g>
</g>
<g>
</g>
<g>
</g>
<g>
</g>
<g>
</g>
</svg>
