<?xml version="1.0" encoding="iso-8859-1"?>
<!-- Generator: Adobe Illustrator 19.0.0, SVG Export Plug-In . SVG Version: 6.00 Build 0)  -->
<svg version="1.1" id="Capa_1" xmlns="http://www.w3.org/2000/svg" xmlns:xlink="http://www.w3.org/1999/xlink" x="0px" y="0px"
	 viewBox="0 0 480.013 480.013" style="enable-background:new 0 0 480.013 480.013;" xml:space="preserve">
<g>
	<g>
		<path d="M479.246,244.491l-80.056-168c-0.703-1.473-1.839-2.695-3.256-3.504l-54.56-31.2L318.39,11.131
			c-1.145-1.53-2.799-2.6-4.664-3.016c-48.574-10.712-98.898-10.712-147.472,0c-1.865,0.416-3.519,1.486-4.664,3.016l-23.008,30.672
			l-54.56,31.2c-1.417,0.809-2.553,2.031-3.256,3.504l-80,168c-1.447,3.065-0.806,6.709,1.6,9.096l106.92,106.936l-5.296,111.008
			c-0.212,4.413,3.194,8.163,7.607,8.375c0.131,0.006,0.262,0.009,0.393,0.009h256c4.418,0.005,8.004-3.573,8.009-7.991
			c0-0.131-0.003-0.262-0.009-0.393l-5.288-111.008l106.944-106.952C480.053,251.2,480.694,247.556,479.246,244.491z
			 M151.726,50.939l20.872-27.808c44.438-9.384,90.346-9.384,134.784,0l20.872,27.824l6.936,68.976h-31.2
			c-4.418-0.002-8.001,3.579-8.003,7.997c0,1.018,0.193,2.026,0.571,2.971l14.144,35.352l-70.712,77.792l-70.712-77.792
			l14.144-35.352c1.639-4.103-0.358-8.758-4.461-10.397c-0.945-0.378-1.953-0.571-2.971-0.571h-31.16L151.726,50.939z
			 M369.662,338.923l-1.672-34.992l1.6-30.312l25.888-25.896l5.224,11.496l14.56-6.624l-39.936-87.864l0.664-12.376l-16-0.848
			l-8,152c0,0.264,0,0.544,0,0.8l2.4,49.92l-0.04,0.04l0.048,0.048l0.632,13.616h-51.04v16h51.8l3.808,80H303.99v-48
			c0-4.418-3.582-8-8-8h-32v16h24v39.512c-22.957-3.281-40.006-22.946-40-46.136V279.931h-16v137.376
			c0.049,16.599,6.64,32.509,18.344,44.28c0.8,0.8,1.72,1.6,2.592,2.344H120.382l3.808-80h51.8v-16h-51.04l0.648-13.6l0.048-0.048
			v-0.04l2.4-49.92c0-0.264,0-0.544,0-0.8l-8-152l-16,0.848l0.656,12.392L64.71,252.619l14.56,6.624l5.224-11.496l25.896,25.896
			l1.6,30.288l-1.664,34.992l-92.688-92.656L94.142,85.635l40.344-23.056l-6.456,64.552c-0.442,4.396,2.764,8.318,7.16,8.76
			c0.266,0.027,0.533,0.04,0.8,0.04h28.184l-11.616,29.032c-1.136,2.844-0.549,6.087,1.512,8.352l80,88
			c2.972,3.27,8.031,3.511,11.301,0.539c0.188-0.171,0.368-0.351,0.539-0.539l80-88c2.061-2.265,2.648-5.508,1.512-8.352
			l-11.616-29.032h28.184c4.418,0.022,8.018-3.542,8.04-7.96c0.001-0.281-0.012-0.561-0.04-0.84l-6.456-64.552l40.344,23.056
			l76.504,160.632L369.662,338.923z M370.814,249.771l2.688-50.4l14.912,32.8L370.814,249.771z M109.126,249.771l-17.6-17.6
			l14.912-32.8L109.126,249.771z"/>
	</g>
</g>
<g>
	<g>
		<rect x="135.99" y="415.931" width="16" height="16"/>
	</g>
</g>
<g>
	<g>
		<rect x="151.99" y="431.931" width="16" height="16"/>
	</g>
</g>
<g>
	<g>
		<path d="M298.75,40.428c-0.077-0.028-0.154-0.055-0.232-0.081l-24-8l-5.056,15.2l16.168,5.392l-45.64,123.848l-45.6-123.88
			l16.168-5.392l-5.056-15.2l-24,8c-4.191,1.398-6.455,5.929-5.057,10.121c0.026,0.078,0.053,0.155,0.081,0.232l55.96,152.032
			c1.531,4.144,6.133,6.262,10.277,4.731c2.192-0.81,3.921-2.539,4.731-4.731l56-152C305.02,46.553,302.896,41.955,298.75,40.428z"
			/>
	</g>
</g>
<g>
	<g>
		<circle cx="275.99" cy="291.931" r="12"/>
	</g>
</g>
<g>
	<g>
		<circle cx="275.99" cy="347.931" r="12"/>
	</g>
</g>
<g>
</g>
<g>
</g>
<g>
</g>
<g>
</g>
<g>
</g>
<g>
</g>
<g>
</g>
<g>
</g>
<g>
</g>
<g>
</g>
<g>
</g>
<g>
</g>
<g>
</g>
<g>
</g>
<g>
</g>
</svg>
