<?xml version="1.0" encoding="iso-8859-1"?>
<!-- Generator: Adobe Illustrator 19.0.0, SVG Export Plug-In . SVG Version: 6.00 Build 0)  -->
<svg version="1.1" id="Capa_1" xmlns="http://www.w3.org/2000/svg" xmlns:xlink="http://www.w3.org/1999/xlink" x="0px" y="0px"
	 viewBox="0 0 487.559 487.559" style="enable-background:new 0 0 487.559 487.559;" xml:space="preserve">
<g>
	<g>
		<path d="M416.8,329.496L316,228.688V8c0-4.418-3.582-8-8-8H52c-4.418,0-8,3.582-8,8v96c0,4.418,3.582,8,8,8h88v200
			c0,2.122,0.844,4.156,2.344,5.656L285.496,460.8c36.5,36.017,95.287,35.625,131.304-0.875
			C452.478,423.768,452.478,365.653,416.8,329.496z M140,32v64h-16V64h-16v32H92V64H76v32H60V16h240v44.688l-32,32l-34.344-34.344
			c-3.124-3.123-8.188-3.123-11.312,0l-34.52,34.52L156,61.136V32H140z M159.312,144l28.528-28.528l28.728,28.64L188,172.688
			L159.312,144z M176.688,184L156,204.688v-41.376L176.688,184z M156,124.688v-40.96l20.512,20.448L156,124.688z M199.152,104.16
			L228,75.312L256.688,104l-28.808,28.8L199.152,104.16z M227.896,155.416l28.728,28.648L228,212.688L199.312,184L227.896,155.416z
			 M239.2,144.104l28.8-28.8L296.688,144l-28.752,28.752L239.2,144.104z M300,163.312v41.416l-20.736-20.68L300,163.312z
			 M279.312,104L300,83.312v41.376L279.312,104z M187.104,339.792L156,308.688v-44c23.078,3.921,39.972,23.903,40,47.312
			C196.02,321.967,192.908,331.689,187.104,339.792z M296.8,449.496L198.512,351.2c8.763-11.185,13.514-24.991,13.488-39.2
			c-0.054-32.223-24.033-59.392-56-63.448v-21.24l32-32l34.344,34.344c3.124,3.123,8.188,3.123,11.312,0l34.296-34.296L300,227.32
			V232c0,2.122,0.844,4.156,2.344,5.656L405.496,340.8c3.755,3.767,7.114,7.908,10.024,12.36L309.168,459.52
			C304.714,456.61,300.569,453.251,296.8,449.496z M378.255,467.089c-8.664,3.258-17.847,4.922-27.103,4.911
			c-9.198-0.013-18.318-1.677-26.928-4.912l98.864-98.864C438.009,407.905,417.936,452.168,378.255,467.089z"/>
	</g>
</g>
<g>
	<g>
		<rect x="341.923" y="314.73" transform="matrix(0.7071 -0.7071 0.7071 0.7071 -128.0565 342.9268)" width="16" height="22.624"/>
	</g>
</g>
<g>
	<g>
		<rect x="319.371" y="337.339" transform="matrix(0.7071 -0.7071 0.7071 0.7071 -150.6489 333.6039)" width="16" height="22.624"/>
	</g>
</g>
<g>
	<g>
		<rect x="296.643" y="359.942" transform="matrix(0.7071 -0.7071 0.7071 0.7071 -173.2885 324.153)" width="16" height="22.624"/>
	</g>
</g>
<g>
	<g>
		<rect x="274.102" y="382.424" transform="matrix(0.7071 -0.7071 0.7071 0.7071 -195.7873 314.7973)" width="16" height="22.624"/>
	</g>
</g>
<g>
	<g>
		<rect x="309.916" y="282.722" transform="matrix(0.7071 -0.7071 0.7071 0.7071 -114.798 310.9208)" width="16" height="22.624"/>
	</g>
</g>
<g>
	<g>
		<rect x="287.298" y="305.365" transform="matrix(0.7071 -0.7071 0.7071 0.7071 -137.4337 301.5599)" width="16" height="22.624"/>
	</g>
</g>
<g>
	<g>
		<rect x="264.688" y="327.935" transform="matrix(0.7071 -0.7071 0.7071 0.7071 -160.015 292.1827)" width="16" height="22.624"/>
	</g>
</g>
<g>
	<g>
		<rect x="241.958" y="350.53" transform="matrix(0.7071 -0.7071 0.7071 0.7071 -182.6503 282.728)" width="16" height="22.624"/>
	</g>
</g>
<g>
	<g>
		<rect x="314.63" y="310.039" transform="matrix(0.7071 -0.7071 0.7071 0.7071 -132.7338 322.2541)" width="16" height="22.624"/>
	</g>
</g>
<g>
	<g>
		<rect x="292.001" y="332.686" transform="matrix(0.7071 -0.7071 0.7071 0.7071 -155.3752 312.8887)" width="16" height="22.624"/>
	</g>
</g>
<g>
	<g>
		<rect x="269.294" y="355.271" transform="matrix(0.7071 -0.7071 0.7071 0.7071 -177.9954 303.4464)" width="16" height="22.624"/>
	</g>
</g>
<g>
</g>
<g>
</g>
<g>
</g>
<g>
</g>
<g>
</g>
<g>
</g>
<g>
</g>
<g>
</g>
<g>
</g>
<g>
</g>
<g>
</g>
<g>
</g>
<g>
</g>
<g>
</g>
<g>
</g>
</svg>
