<?xml version="1.0" encoding="iso-8859-1"?>
<!-- Generator: Adobe Illustrator 19.0.0, SVG Export Plug-In . SVG Version: 6.00 Build 0)  -->
<svg version="1.1" id="Capa_1" xmlns="http://www.w3.org/2000/svg" xmlns:xlink="http://www.w3.org/1999/xlink" x="0px" y="0px"
	 viewBox="0 0 480 480" style="enable-background:new 0 0 480 480;" xml:space="preserve">
<g>
	<g>
		<path d="M473.056,129.4L352,113.264V98.672C351.974,72.907,331.093,52.026,305.328,52H264c-4.418,0-8,3.582-8,8v137.336
			c0.033,10.424-6.313,19.807-16,23.656l-126.872,50.744c-7.281,2.91-14.954,4.722-22.768,5.376l-3.296,0.272
			C37.981,281.742,0.269,322.724,0,372v48c0,4.418,3.582,8,8,8h464c4.418,0,8-3.582,8-8V137.336
			C480.003,133.324,477.033,129.93,473.056,129.4z M272,68h33.328C322.26,68.018,335.982,81.74,336,98.672v12.456l-22.944-3.056
			c-4.38-0.583-8.403,2.494-8.986,6.874c-0.047,0.349-0.07,0.702-0.07,1.054v35.648l-32-9.6V68z M272,158.752l44.84,13.432
			L272,186.4V158.752z M271.552,203.328L304,193.056V209.6c0.018,12.767-7.663,24.286-19.456,29.176l-23.744,9.896l-4.24-19.072
			C264.711,223.063,270.071,213.671,271.552,203.328z M241.904,237.448l10.248,46.112l-50.208-30.12L241.904,237.448z M192,266.128
			l11.024,6.616L192,277.336V266.128z M176,263.816v48.872l-34.904-34.904L176,263.816z M88.392,293.328l3.296-0.272
			c9.396-0.78,18.623-2.959,27.376-6.464l5.872-2.344l14.848,14.848l-22.864,9.52c-2.98,1.243-4.92,4.155-4.92,7.384v48H16.416
			C20.47,326.286,50.61,296.692,88.392,293.328z M464,412H16v-32h448V412z M464,364H360v-8c0.026-35.335,28.665-63.974,64-64h40V364
			z M464,228h-80v-16h80V228z M464,164h-80v16h80v16h-80v-16h-16v56c0,4.418,3.582,8,8,8h88v32h-40
			c-44.168,0.035-79.965,35.832-80,80v8H128v-42.664l24-10.008l26.328,26.328c3.116,3.133,8.181,3.146,11.314,0.03
			c1.513-1.505,2.362-3.552,2.358-5.686v-37.336l28.064-11.696l39.816,23.888c3.785,2.279,8.701,1.059,10.98-2.726
			c1.06-1.76,1.402-3.861,0.956-5.866l-7.496-33.728l26.4-11c17.752-7.37,29.311-24.715,29.28-43.936V188l26.4-8.368
			c4.211-1.336,6.542-5.833,5.206-10.045c-0.8-2.521-2.793-4.483-5.326-5.243L320,156.448v-31.312l144,19.2V164z"/>
	</g>
</g>
<g>
	<g>
		<rect x="432" y="332" width="16" height="16"/>
	</g>
</g>
<g>
	<g>
		<rect x="416" y="316" width="16" height="16"/>
	</g>
</g>
<g>
</g>
<g>
</g>
<g>
</g>
<g>
</g>
<g>
</g>
<g>
</g>
<g>
</g>
<g>
</g>
<g>
</g>
<g>
</g>
<g>
</g>
<g>
</g>
<g>
</g>
<g>
</g>
<g>
</g>
</svg>
