<?xml version="1.0" encoding="iso-8859-1"?>
<!-- Generator: Adobe Illustrator 19.0.0, SVG Export Plug-In . SVG Version: 6.00 Build 0)  -->
<svg version="1.1" id="Capa_1" xmlns="http://www.w3.org/2000/svg" xmlns:xlink="http://www.w3.org/1999/xlink" x="0px" y="0px"
	 viewBox="0 0 480.033 480.033" style="enable-background:new 0 0 480.033 480.033;" xml:space="preserve">
<g>
	<g>
		<path d="M410.336,289.424l-13.6-71.32c-8.615-44.749-26.58-87.175-52.72-124.504V32c0-25.256-65.368-32-104-32s-104,6.744-104,32
			v62.024c-26.384,47.912-44.632,99.872-54,153.76l-10.672,61.408c-4.87,28.026-7.322,56.418-7.328,84.864
			c-0.091,21.138,16.052,38.808,37.112,40.624l49.776,4.44l1.112,15.152c0.192,2.59,1.63,4.926,3.856,6.264l19.672,11.824
			c15.224,9.105,34.247,8.991,49.36-0.296c9.568-5.801,21.447-6.276,31.448-1.256l8.128,4.056
			c14.85,7.481,32.503,6.804,46.736-1.792l20.888-12.536c2.104-1.26,3.513-3.416,3.824-5.848l0.888-6.688h23.2
			c30.928,0,56-25.072,56-56v-42.4C416.011,329.408,414.109,309.261,410.336,289.424z M240.016,16c51.728,0,83.248,9.968,87.752,16
			c-4.504,6.032-36,16-87.752,16s-83.248-9.968-87.752-16C156.768,25.968,188.289,16,240.016,16z M152.016,50.4
			c21.832,10.4,61.296,13.6,88,13.6s66.168-3.2,88-13.6v39.736c-5.264,1.648-10.624,3.096-16,4.448v-2.328
			c-0.046-8.244-6.766-14.891-15.01-14.845c-1.799,0.01-3.582,0.345-5.262,0.989l-37.216,14.304h-29.024L188.272,78.4
			c-7.695-2.947-16.322,0.902-19.269,8.597c-0.647,1.689-0.981,3.482-0.987,5.291v2.328c-5.36-1.352-10.712-2.792-16-4.448V50.4z
			 M296.016,93.856v41.792l-32-9.072V106.16L296.016,93.856z M248.016,108.632v16h-16v-16H248.016z M216.016,106.16v20.448
			l-32,9.008v-41.76L216.016,106.16z M147.073,387.72l2.64,35.248l-47.136-4.2c-12.81-1.1-22.628-11.855-22.56-24.712
			c0.006-27.526,2.377-55,7.088-82.12l10.68-61.424c8.834-50.693,25.796-99.627,50.232-144.912c5.6,1.728,11.232,3.299,16.896,4.712
			C146.15,201.509,140.146,294.871,147.073,387.72z M331.289,364.648l-10.72,84.152l-17.56,10.552
			c-9.542,5.777-21.388,6.23-31.344,1.2l-8.128-4.056c-15.09-7.524-32.998-6.71-47.344,2.152c-9.963,5.992-22.421,5.992-32.384,0
			l-16.128-9.688l-4.672-62.448c-5.91-79.323-2.232-159.069,10.952-237.512c2.571,1.943,5.705,2.997,8.928,3
			c1.388-0.002,2.769-0.196,4.104-0.576l30.4-8.592c-11.032,72.008-14.176,145.006-9.376,217.696l16-1.056
			c-4.834-73.078-1.51-146.467,9.912-218.808h21.008l14.632,4.136c6.414,52.589,7.234,105.71,2.448,158.472l16,1.456
			c4.661-51.66,4.063-103.66-1.784-155.2l6.84,1.936c1.335,0.38,2.716,0.574,4.104,0.576c8.219-0.057,14.849-6.741,14.84-14.96
			v-13.392c15.897,54.021,23.979,110.04,24,166.352C336.01,314.984,334.431,339.903,331.289,364.648z M400.016,392
			c0,22.091-17.909,40-40,40h-21.176l8.32-65.336c3.229-25.414,4.851-51.006,4.856-76.624c0.01-60.488-9.034-120.637-26.832-178.448
			l-1.112-3.616c2.896-0.8,5.752-1.72,8.616-2.608c23.891,34.85,40.348,74.247,48.344,115.736l13.584,71.288
			c3.589,18.858,5.397,38.012,5.4,57.208V392z"/>
	</g>
</g>
<g>
	<g>
		<rect x="272.016" y="424" width="16" height="16"/>
	</g>
</g>
<g>
	<g>
		<rect x="288.016" y="408" width="16" height="16"/>
	</g>
</g>
<g>
</g>
<g>
</g>
<g>
</g>
<g>
</g>
<g>
</g>
<g>
</g>
<g>
</g>
<g>
</g>
<g>
</g>
<g>
</g>
<g>
</g>
<g>
</g>
<g>
</g>
<g>
</g>
<g>
</g>
</svg>
