<?xml version="1.0" encoding="iso-8859-1"?>
<!-- Generator: Adobe Illustrator 19.0.0, SVG Export Plug-In . SVG Version: 6.00 Build 0)  -->
<svg version="1.1" id="Capa_1" xmlns="http://www.w3.org/2000/svg" xmlns:xlink="http://www.w3.org/1999/xlink" x="0px" y="0px"
	 viewBox="0 0 479.997 479.997" style="enable-background:new 0 0 479.997 479.997;" xml:space="preserve">
<g>
	<g>
		<path d="M274.694,129.99L257.83,90.63l58.968-44.232l-9.6-12.8l-64,48c-2.952,2.214-4.006,6.161-2.552,9.552l24,56
			c1.742,4.06,6.445,5.94,10.506,4.198c0.934-0.401,1.783-0.976,2.502-1.694l24-24l-11.312-11.312L274.694,129.99z"/>
	</g>
</g>
<g>
	<g>
		<path d="M236.798,81.598l-64-48l-9.6,12.8l58.968,44.232l-16.864,39.36l-15.648-15.648l-11.312,11.312l24,24
			c3.125,3.124,8.19,3.123,11.314-0.002c0.719-0.719,1.294-1.568,1.694-2.502l24-56C240.804,87.759,239.75,83.813,236.798,81.598z"
			/>
	</g>
</g>
<g>
	<g>
		<path d="M477.654,141.654c3.123-3.124,3.123-8.188,0-11.312l-72-72c-1.5-1.5-3.534-2.344-5.656-2.344h-56v-40c0-4.418-3.582-8-8-8
			h-192c-4.418,0-8,3.582-8,8v40h-56c-2.122,0-4.156,0.844-5.656,2.344l-72,72c-3.123,3.124-3.123,8.188,0,11.312l69.656,69.656
			v252.688c0,4.418,3.582,8,8,8h368c4.418,0,8-3.582,8-8v-80c0-4.418-3.582-8-8-8h-40V211.31L477.654,141.654z M407.998,83.31
			l52.688,52.688l-52.688,52.688V83.31z M71.998,188.686L19.31,135.998L71.998,83.31V188.686z M439.998,391.998v64h-352v-384h56
			c4.418,0,8-3.582,8-8v-40h176v40c0,4.418,3.582,8,8,8h56v368h16v-48H439.998z"/>
	</g>
</g>
<g>
	<g>
		<circle cx="243.998" cy="171.998" r="12"/>
	</g>
</g>
<g>
	<g>
		<circle cx="243.998" cy="227.998" r="12"/>
	</g>
</g>
<g>
	<g>
		<circle cx="243.998" cy="283.998" r="12"/>
	</g>
</g>
<g>
	<g>
		<circle cx="243.998" cy="339.998" r="12"/>
	</g>
</g>
<g>
	<g>
		<circle cx="243.998" cy="395.998" r="12"/>
	</g>
</g>
<g>
	<g>
		<path d="M367.998,175.998h-72v16h64v66.584l-32,12.8l-32-12.8v-66.584h-16v72c-0.003,3.272,1.987,6.215,5.024,7.432l40,16
			c1.912,0.757,4.04,0.757,5.952,0l40-16c3.037-1.217,5.026-4.16,5.024-7.432v-80C375.998,179.58,372.417,175.998,367.998,175.998z"
			/>
	</g>
</g>
<g>
	<g>
		<rect x="103.998" y="87.998" width="16" height="16"/>
	</g>
</g>
<g>
	<g>
		<rect x="103.998" y="119.998" width="16" height="16"/>
	</g>
</g>
<g>
	<g>
		<rect x="119.998" y="103.998" width="16" height="16"/>
	</g>
</g>
<g>
</g>
<g>
</g>
<g>
</g>
<g>
</g>
<g>
</g>
<g>
</g>
<g>
</g>
<g>
</g>
<g>
</g>
<g>
</g>
<g>
</g>
<g>
</g>
<g>
</g>
<g>
</g>
<g>
</g>
</svg>
