<?xml version="1.0" encoding="iso-8859-1"?>
<!-- Generator: Adobe Illustrator 19.0.0, SVG Export Plug-In . SVG Version: 6.00 Build 0)  -->
<svg version="1.1" id="Capa_1" xmlns="http://www.w3.org/2000/svg" xmlns:xlink="http://www.w3.org/1999/xlink" x="0px" y="0px"
	 viewBox="0 0 480.224 480.224" style="enable-background:new 0 0 480.224 480.224;" xml:space="preserve">
<g>
	<g>
		<path d="M391.308,272.185c-14.904-60.796-62.372-108.265-123.169-123.169V120c-0.025-1.291-0.371-2.556-1.008-3.68l70.664-70.664
			c3.123-3.124,3.123-8.188,0-11.312l-32-32c-1.5-1.5-3.534-2.344-5.656-2.344h-144c-2.122,0-4.156,0.844-5.656,2.344l-32,32
			c-3.123,3.124-3.123,8.188,0,11.312l70.664,70.664c-0.636,1.124-0.982,2.389-1.008,3.68v29.016
			C98.024,171.107,42.879,262.069,64.971,352.185c22.091,90.116,113.053,145.26,203.169,123.169
			C358.255,453.262,413.399,362.3,391.308,272.185z M248.827,112h-2.472l19.696-64h46.776L248.827,112z M252.139,128v17.92
			c-7.943-1.216-15.964-1.857-24-1.92c-8.036,0.063-16.057,0.704-24,1.92V128H252.139z M226.667,112l-19.696-64h42.336l-19.696,64
			H226.667z M296.827,16l16,16h-49.376l-16-16H296.827z M228.139,19.312L240.827,32h-25.376L228.139,19.312z M159.451,16h49.376
			l-16,16h-49.376L159.451,16z M143.451,48h46.776l19.696,64h-2.472L143.451,48z M204.139,461.912
			c-5.392-0.85-10.734-1.996-16-3.432v-16.504c5.251,1.584,10.595,2.845,16,3.776V461.912z M108.139,312
			c0-66.274,53.726-120,120-120s120,53.726,120,120c-0.075,66.243-53.757,119.925-120,120C161.865,432,108.139,378.274,108.139,312z
			 M236.139,463.592c-2.664,0.144-5.296,0.408-8,0.408c-2.704,0-5.336-0.264-8-0.408v-16c2.664,0.16,5.296,0.408,8,0.408
			s5.336-0.248,8-0.408V463.592z M268.139,458.48c-5.266,1.436-10.608,2.582-16,3.432v-16.16c5.405-0.931,10.749-2.192,16-3.776
			V458.48z M284.139,453.176v-17.384c68.448-30.928,98.863-111.488,67.935-179.935c-30.928-68.448-111.488-98.863-179.935-67.935
			c-68.448,30.928-98.863,111.488-67.935,179.935c13.626,30.156,37.779,54.31,67.935,67.935v17.384
			C94.142,422.217,56.011,333.891,86.97,255.894c30.959-77.997,119.285-116.129,197.282-85.17
			c57.901,22.983,95.908,78.98,95.888,141.275C380.043,374.269,342.013,430.195,284.139,453.176z"/>
	</g>
</g>
<g>
	<g>
		<path d="M107.603,61.08c-0.813-2.074-2.454-3.715-4.528-4.528L77.619,46.52L67.587,21.064c-1.613-4.113-6.255-6.141-10.368-4.528
			c-2.074,0.813-3.715,2.454-4.528,4.528L42.659,46.52L17.203,56.552c-4.113,1.613-6.141,6.255-4.528,10.368
			c0.813,2.074,2.454,3.715,4.528,4.528L42.659,81.48l10.032,25.456c1.613,4.113,6.255,6.141,10.368,4.528
			c2.074-0.813,3.715-2.454,4.528-4.528L77.619,81.48l25.456-10.032C107.189,69.835,109.216,65.193,107.603,61.08z M68.515,67.864
			c-2.065,0.813-3.699,2.447-4.512,4.512l-3.864,9.816l-3.864-9.816c-0.813-2.065-2.447-3.699-4.512-4.512L41.947,64l9.816-3.864
			c2.065-0.813,3.699-2.447,4.512-4.512l3.864-9.816l3.864,9.816c0.813,2.065,2.447,3.699,4.512,4.512L78.331,64L68.515,67.864z"/>
	</g>
</g>
<g>
	<g>
		<path d="M467.989,134.666c-0.568-3.357-3.197-5.986-6.554-6.554l-63.024-10.4l-10.4-63.024c-0.737-4.356-4.866-7.291-9.222-6.554
			c-3.357,0.568-5.986,3.197-6.554,6.554l-10.4,63.024l-63.024,10.4c-4.356,0.737-7.291,4.866-6.554,9.222
			c0.568,3.357,3.197,5.986,6.554,6.554l63.024,10.4l10.4,63.024c0.737,4.356,4.866,7.291,9.222,6.554
			c3.357-0.568,5.986-3.197,6.554-6.554l10.4-63.024l63.024-10.4C465.792,143.151,468.726,139.022,467.989,134.666z
			 M390.155,139.424c-3.383,0.558-6.034,3.209-6.592,6.592l-3.424,20.76l-3.424-20.8c-0.558-3.383-3.209-6.034-6.592-6.592
			L349.363,136l20.76-3.424c3.383-0.558,6.034-3.209,6.592-6.592l3.424-20.8l3.424,20.8c0.558,3.383,3.209,6.034,6.592,6.592
			l20.76,3.424L390.155,139.424z"/>
	</g>
</g>
<g>
</g>
<g>
</g>
<g>
</g>
<g>
</g>
<g>
</g>
<g>
</g>
<g>
</g>
<g>
</g>
<g>
</g>
<g>
</g>
<g>
</g>
<g>
</g>
<g>
</g>
<g>
</g>
<g>
</g>
</svg>
