<?xml version="1.0" encoding="iso-8859-1"?>
<!-- Generator: Adobe Illustrator 19.0.0, SVG Export Plug-In . SVG Version: 6.00 Build 0)  -->
<svg version="1.1" id="Capa_1" xmlns="http://www.w3.org/2000/svg" xmlns:xlink="http://www.w3.org/1999/xlink" x="0px" y="0px"
	 viewBox="0 0 477.656 477.656" style="enable-background:new 0 0 477.656 477.656;" xml:space="preserve">
<g>
	<g>
		<path d="M394.14,37.656l26.344-26.344L409.172,0l-26.344,26.344L372.484,16c-3.124-3.123-8.188-3.123-11.312,0l-40,40
			c-3.123,3.124-3.123,8.188,0,11.312l10.344,10.344l-12.688,12.688L308.484,80c-3.124-3.123-8.188-3.123-11.312,0l-40,40
			c-3.123,3.124-3.123,8.188,0,11.312l10.344,10.344l-12.536,12.536c-9.919-6.048-22.385-6.048-32.304,0l-12.536-12.536
			l10.344-10.344c3.123-3.124,3.123-8.188,0-11.312l-40-40c-3.124-3.123-8.188-3.123-11.312,0l-10.344,10.344L146.14,77.656
			l10.344-10.344c3.123-3.124,3.123-8.188,0-11.312l-40-40c-3.124-3.123-8.188-3.123-11.312,0L94.828,26.344L68.484,0L57.172,11.312
			l26.344,26.344L73.172,48c-3.123,3.124-3.123,8.188,0,11.312l40,40c3.124,3.123,8.188,3.123,11.312,0l10.344-10.344l12.688,12.688
			L137.172,112c-3.123,3.124-3.123,8.188,0,11.312l40,40c3.124,3.123,8.188,3.123,11.312,0l10.344-10.344l12.536,12.536
			c-7.117,11.701-5.77,26.676,3.32,36.92c-24.075,9.826-39.823,33.229-39.856,59.232v8h-16c-4.418,0-8,3.582-8,8v192
			c0,4.418,3.582,8,8,8h160c4.418,0,8-3.582,8-8v-192c0-4.418-3.582-8-8-8h-16v-8c-0.046-25.991-15.792-49.379-39.856-59.2
			c9.09-10.244,10.436-25.219,3.32-36.92l12.536-12.568l10.344,10.344c3.124,3.123,8.188,3.123,11.312,0l40-40
			c3.123-3.124,3.123-8.188,0-11.312l-10.344-10.344l12.688-12.688l10.344,10.344c3.124,3.123,8.188,3.123,11.312,0l40-40
			c3.123-3.124,3.123-8.188,0-11.312L394.14,37.656z M118.828,82.344L90.14,53.656l20.688-20.688l28.688,28.688L118.828,82.344z
			 M182.828,146.344l-28.688-28.688l20.688-20.688l28.688,28.688L182.828,146.344z M238.828,165.656c8.837,0,16,7.163,16,16
			s-7.163,16-16,16s-16-7.163-16-16S229.991,165.656,238.828,165.656z M182.828,461.656h-16v-16h16V461.656z M182.828,429.656h-16
			v-16h16V429.656z M182.828,397.656h-16v-16h16V397.656z M182.828,365.656h-16v-16h16V365.656z M182.828,333.656h-16v-16h16
			V333.656z M182.828,301.656h-16v-16h16V301.656z M214.828,461.656h-16v-16h16V461.656z M222.828,269.656v-8
			c0-8.837,7.163-16,16-16s16,7.163,16,16v8H222.828z M246.828,285.656v16h-16v-16H246.828z M267.516,317.656l-16,16H226.14l-16-16
			H267.516z M251.516,413.656l16,16H210.14l16-16H251.516z M230.828,397.656v-48h16v48H230.828z M214.828,301.656h-16v-16h16
			V301.656z M214.828,344.968v57.376l-16,16v-89.376L214.828,344.968z M246.828,461.656h-16v-16h16V461.656z M278.828,461.656h-16
			v-16h16V461.656z M278.828,418.344l-16-16v-57.376l16-16V418.344z M278.828,301.656h-16v-16h16V301.656z M294.828,285.656h16v16
			h-16V285.656z M294.828,317.656h16v16h-16V317.656z M294.828,349.656h16v16h-16V349.656z M294.828,381.656h16v16h-16V381.656z
			 M294.828,413.656h16v16h-16V413.656z M294.828,445.656h16v16h-16V445.656z M286.828,261.656v8h-16v-8c0-17.673-14.327-32-32-32
			c-17.673,0-32,14.327-32,32v8h-16v-8c0-26.51,21.49-48,48-48C265.338,213.656,286.828,235.146,286.828,261.656z M294.828,146.344
			l-20.688-20.688l28.688-28.688l20.688,20.688L294.828,146.344z M358.828,82.344L338.14,61.656l28.688-28.688l20.688,20.688
			L358.828,82.344z"/>
	</g>
</g>
<g>
</g>
<g>
</g>
<g>
</g>
<g>
</g>
<g>
</g>
<g>
</g>
<g>
</g>
<g>
</g>
<g>
</g>
<g>
</g>
<g>
</g>
<g>
</g>
<g>
</g>
<g>
</g>
<g>
</g>
</svg>
