<?xml version="1.0" encoding="iso-8859-1"?>
<!-- Generator: Adobe Illustrator 19.0.0, SVG Export Plug-In . SVG Version: 6.00 Build 0)  -->
<svg version="1.1" id="Capa_1" xmlns="http://www.w3.org/2000/svg" xmlns:xlink="http://www.w3.org/1999/xlink" x="0px" y="0px"
	 viewBox="0 0 480 480" style="enable-background:new 0 0 480 480;" xml:space="preserve">
<g>
	<g>
		<path d="M472,184h-8V40c0-4.418-3.582-8-8-8H240V8c0-4.418-3.582-8-8-8H8C3.582,0,0,3.582,0,8v464c0,4.418,3.582,8,8,8h336
			c4.418,0,8-3.582,8-8V248h120c4.418,0,8-3.582,8-8v-48C480,187.582,476.418,184,472,184z M144,16h80v32h-80V16z M112,16h16v48h-16
			V16z M16,16h80v32H16V16z M16,64h80v8c0,4.418,3.582,8,8,8h32c4.418,0,8-3.582,8-8v-8h80v17.304L16,118.448V64z M336,64v400h-40
			v-16h-16v16H16V134.696l208-37.144V448h16V48h208v136h-40v-24h-16v24h-40V64H336z M464,232H352v-32h112V232z"/>
	</g>
</g>
<g>
	<g>
		<path d="M200,144H48v16h144v16H48v-16H32v129.144c-0.002,3.065,1.748,5.861,4.504,7.2l80,38.856c2.207,1.072,4.785,1.072,6.992,0
			l80-38.856c2.756-1.339,4.506-4.135,4.504-7.2V152C208,147.582,204.418,144,200,144z M192,284.136l-72,34.968l-72-34.968V192h144
			V284.136z"/>
	</g>
</g>
<g>
	<g>
		<rect x="280" y="64" width="16" height="32"/>
	</g>
</g>
<g>
	<g>
		<rect x="280" y="112" width="16" height="32"/>
	</g>
</g>
<g>
	<g>
		<rect x="280" y="160" width="16" height="32"/>
	</g>
</g>
<g>
	<g>
		<rect x="280" y="208" width="16" height="32"/>
	</g>
</g>
<g>
	<g>
		<rect x="280" y="256" width="16" height="32"/>
	</g>
</g>
<g>
	<g>
		<rect x="280" y="304" width="16" height="32"/>
	</g>
</g>
<g>
	<g>
		<rect x="280" y="352" width="16" height="32"/>
	</g>
</g>
<g>
	<g>
		<rect x="280" y="400" width="16" height="32"/>
	</g>
</g>
<g>
	<g>
		<rect x="392" y="64" width="16" height="32"/>
	</g>
</g>
<g>
	<g>
		<rect x="392" y="116" width="16" height="28"/>
	</g>
</g>
<g>
	<g>
		<rect x="32" y="432" width="16" height="16"/>
	</g>
</g>
<g>
	<g>
		<rect x="48" y="416" width="16" height="16"/>
	</g>
</g>
<g>
	<g>
		<rect x="32" y="400" width="16" height="16"/>
	</g>
</g>
<g>
</g>
<g>
</g>
<g>
</g>
<g>
</g>
<g>
</g>
<g>
</g>
<g>
</g>
<g>
</g>
<g>
</g>
<g>
</g>
<g>
</g>
<g>
</g>
<g>
</g>
<g>
</g>
<g>
</g>
</svg>
