<?xml version="1.0" encoding="iso-8859-1"?>
<!-- Generator: Adobe Illustrator 19.0.0, SVG Export Plug-In . SVG Version: 6.00 Build 0)  -->
<svg version="1.1" id="Capa_1" xmlns="http://www.w3.org/2000/svg" xmlns:xlink="http://www.w3.org/1999/xlink" x="0px" y="0px"
	 viewBox="0 0 480 480" style="enable-background:new 0 0 480 480;" xml:space="preserve">
<g>
	<g>
		<path d="M291.999,384c0-4.418-3.582-8-8-8h-96c-4.418,0-8,3.582-8,8c0,17.673-14.327,32-32,32v16
			c23.413-0.029,43.401-16.92,47.336-40h81.328c3.935,23.08,23.923,39.971,47.336,40v-16C306.326,416,291.999,401.673,291.999,384z"
			/>
	</g>
</g>
<g>
	<g>
		<rect x="267.999" y="304" width="16" height="16"/>
	</g>
</g>
<g>
	<g>
		<path d="M235.999,48c-35.888,0-64,44.512-64,101.336c0.012,20.785,5.533,41.195,16,59.152V288h16v-53.12l25.168,41.288
			c2.299,3.773,7.221,4.969,10.994,2.67c1.09-0.664,2.006-1.58,2.67-2.67l25.168-41.288V288h16v-79.512
			c10.467-17.957,15.988-38.367,16-59.152C299.999,92.512,271.887,48,235.999,48z M267.999,204.168l-32,52.464l-32-52.464
			l-0.08-0.128c-10.41-16.346-15.933-35.325-15.92-54.704c0-46.256,21.984-85.336,48-85.336s48,39.08,48,85.336
			C284.005,168.765,278.453,187.791,267.999,204.168z"/>
	</g>
</g>
<g>
	<g>
		<rect x="187.999" y="304" width="16" height="16"/>
	</g>
</g>
<g>
	<g>
		<path d="M459.159,340.424l-80-160c-0.957-1.891-2.622-3.329-4.632-4l-42.528-14.192V136c0-74.992-43.064-136-96-136
			c-52.936,0-96,61.008-96,136v24h-40c0-4.418-3.582-8-8-8v-40c0-4.418-3.582-8-8-8h-48c-4.418,0-8,3.582-8,8v40
			c-4.418,0-8,3.582-8,8v160c0,4.418,3.582,8,8,8h88v144c0,4.418,3.582,8,8,8h224c4.418,0,8-3.582,8-8v-20.688l101.656-101.656
			C460.09,347.223,460.696,343.504,459.159,340.424z M43.999,120h32v32h-32V120z M355.999,428.688v-65.376l19.144-19.144
			l5.696,11.408c1.355,2.712,4.128,4.425,7.16,4.424h16v-16h-11.056l-36.944-73.888V224h-16v240h-208V224h-16v88h-80V168h48v128h16
			V176h40v16h16v-56c0-66.168,35.888-120,80-120s80,53.832,80,120v56h16v-12.896l34.328,11.44L442.263,342.4L355.999,428.688z
			 M355.999,340.688v-34.8l11.6,23.2L355.999,340.688z"/>
	</g>
</g>
<g>
</g>
<g>
</g>
<g>
</g>
<g>
</g>
<g>
</g>
<g>
</g>
<g>
</g>
<g>
</g>
<g>
</g>
<g>
</g>
<g>
</g>
<g>
</g>
<g>
</g>
<g>
</g>
<g>
</g>
</svg>
