<?xml version="1.0" encoding="iso-8859-1"?>
<!-- Generator: Adobe Illustrator 19.0.0, SVG Export Plug-In . SVG Version: 6.00 Build 0)  -->
<svg version="1.1" id="Capa_1" xmlns="http://www.w3.org/2000/svg" xmlns:xlink="http://www.w3.org/1999/xlink" x="0px" y="0px"
	 viewBox="0 0 479.349 479.349" style="enable-background:new 0 0 479.349 479.349;" xml:space="preserve">
<g>
	<g>
		<path d="M468.212,366.604L277.732,214.46L155.196,91.892l-7.016-7.016c-34.425-33.678-89.634-33.073-123.312,1.353
			c-33.157,33.892-33.157,88.067,0,121.959l6.464,6.464V411.34c0,4.418,3.582,8,8,8h32c4.418,0,8-3.582,8-8V262.652l18.344,18.344
			l11.312-11.312l-32-32c-3.125-3.124-8.19-3.123-11.314,0.002c-1.499,1.5-2.342,3.534-2.342,5.654v160h-16v-192
			c0-2.122-0.844-4.156-2.344-5.656l-8.8-8.8C8.383,169.077,8.385,123.996,36.192,96.192c13.352-13.35,31.459-20.851,50.34-20.852
			c4.914,0.008,9.814,0.517,14.624,1.52c-31.704,7.21-51.561,38.757-44.35,70.462c2.462,10.827,7.937,20.737,15.79,28.586
			l122.168,122.176c23.007,23.006,60.308,23.005,83.314-0.002c11.047-11.048,17.253-26.031,17.254-41.654
			c-0.02-2.653-0.217-5.302-0.592-7.928l163.48,130.6c5.876,4.678,6.848,13.234,2.169,19.111c-2.584,3.246-6.508,5.135-10.657,5.129
			H278.74c-23.117,0.059-45.297-9.13-61.6-25.52l-92.152-92.136l-11.312,11.312l92.136,92.136
			c19.299,19.406,45.56,30.283,72.928,30.208h170.992c16.348,0.009,29.608-13.235,29.617-29.583
			C479.354,380.746,475.254,372.224,468.212,366.604z M206.052,286.748L83.9,164.596c-4.348-4.385-7.69-9.665-9.792-15.472
			c10.172-6.07,23.164-4.476,31.568,3.872l144,144C234.377,302.319,217.38,298.326,206.052,286.748z M266.945,286.329
			c-0.884,0.889-1.807,1.739-2.765,2.547l-147.2-147.2c-11.942-11.914-29.853-15.528-45.48-9.176
			c0.922-22.958,19.775-41.11,42.752-41.16h0.984c10.75-0.028,21.065,4.243,28.648,11.864l122.88,122.88
			C283.45,242.67,283.531,269.643,266.945,286.329z"/>
	</g>
</g>
<g>
	<g>
		<path d="M289.268,371.34c-19.62,0.055-38.446-7.744-52.28-21.656l-11.312,11.312c16.826,16.925,39.726,26.412,63.592,26.344
			h22.064v-16H289.268z"/>
	</g>
</g>
<g>
	<g>
		<rect x="327.332" y="371.34" width="16" height="16"/>
	</g>
</g>
<g>
</g>
<g>
</g>
<g>
</g>
<g>
</g>
<g>
</g>
<g>
</g>
<g>
</g>
<g>
</g>
<g>
</g>
<g>
</g>
<g>
</g>
<g>
</g>
<g>
</g>
<g>
</g>
<g>
</g>
</svg>
