<?xml version="1.0" encoding="iso-8859-1"?>
<!-- Generator: Adobe Illustrator 19.0.0, SVG Export Plug-In . SVG Version: 6.00 Build 0)  -->
<svg version="1.1" id="Capa_1" xmlns="http://www.w3.org/2000/svg" xmlns:xlink="http://www.w3.org/1999/xlink" x="0px" y="0px"
	 viewBox="0 0 480 480" style="enable-background:new 0 0 480 480;" xml:space="preserve">
<g>
	<g>
		<path d="M393.6,229.734c16.555-16.526,39.008-25.781,62.4-25.72v-16c-27.747-0.074-54.371,10.957-73.936,30.632l-3.2,3.2
			l5.512-14.68c8.861-23.577,27.222-42.345,50.6-51.72l-5.936-14.864c-27.553,11.054-49.196,33.173-59.648,60.96l-3.776,10.08
			c-13.447-69.379-80.591-114.721-149.97-101.274c-55.658,10.788-97.583,56.914-103.022,113.346C48.152,236.486,0,259.59,0,292.014
			c0,52,123.656,80,240,80s240-28,240-80C480,264.174,444.48,243.214,393.6,229.734z M240,124.014
			c55.885,0.093,103.161,41.34,110.832,96.696c-36.652-5.858-73.715-8.766-110.832-8.696c-37.117-0.07-74.18,2.837-110.832,8.696
			C136.839,165.354,184.116,124.107,240,124.014z M240,228.014c48.234-0.532,96.357,4.714,143.344,15.624l-0.016,0
			c-16.904,6.047-32.8,14.607-47.152,25.392l-16.8,12.664c-44.751,34.538-106.926,35.398-152.616,2.112l-21.504-15.656
			c-14.612-10.61-30.751-18.939-47.864-24.704C144.15,232.675,192.021,227.495,240,228.014z M240,356.014c-132,0-224-33.728-224-64
			c0-13.656,18.76-28,51.424-39.648c24.726,4.166,48.152,13.996,68.448,28.72l21.528,15.672
			c51.387,37.472,121.34,36.526,171.696-2.32l16.736-12.64c19.453-14.648,41.944-24.747,65.816-29.552l0.376-0.08
			c33,11.688,51.976,26.12,51.976,39.848C464,322.286,372,356.014,240,356.014z"/>
	</g>
</g>
<g>
	<g>
		<rect x="280" y="148.014" width="16" height="16"/>
	</g>
</g>
<g>
	<g>
		<rect x="296" y="164.014" width="16" height="16"/>
	</g>
</g>
<g>
	<g>
		<rect x="280" y="180.014" width="16" height="16"/>
	</g>
</g>
<g>
</g>
<g>
</g>
<g>
</g>
<g>
</g>
<g>
</g>
<g>
</g>
<g>
</g>
<g>
</g>
<g>
</g>
<g>
</g>
<g>
</g>
<g>
</g>
<g>
</g>
<g>
</g>
<g>
</g>
</svg>
