<?xml version="1.0" encoding="iso-8859-1"?>
<!-- Generator: Adobe Illustrator 19.0.0, SVG Export Plug-In . SVG Version: 6.00 Build 0)  -->
<svg version="1.1" id="Capa_1" xmlns="http://www.w3.org/2000/svg" xmlns:xlink="http://www.w3.org/1999/xlink" x="0px" y="0px"
	 viewBox="0 0 480.072 480.072" style="enable-background:new 0 0 480.072 480.072;" xml:space="preserve">
<g>
	<g>
		<path d="M472.072,219.713h-24.24C443.055,96.093,338.969-0.248,215.35,4.529C95.344,9.167,0.348,107.618,0,227.713h0.072v240
			c0,4.418,3.582,8,8,8h464c4.418,0,8-3.582,8-8v-240C480.072,223.295,476.49,219.713,472.072,219.713z M224.016,19.713
			c111.701,0.14,203.396,88.386,207.816,200H16.208C20.628,108.102,112.318,19.857,224.016,19.713z M400.072,459.713h-384V327.841
			l16,6.864v13.008h16v-6.152l95.432,40.896c12.976,5.508,26.613,9.305,40.568,11.296v25.96c0,13.255,10.745,24,24,24
			s24-10.745,24-24v-25.96c13.955-1.991,27.592-5.788,40.568-11.296l95.432-40.896v6.152h16v-13.008l16-6.864V459.713z
			 M200.072,419.713v-24h16v24c0,4.418-3.582,8-8,8S200.072,424.131,200.072,419.713z M400.072,310.441l-133.736,57.312
			c-37.221,15.872-79.307,15.872-116.528,0L16.072,310.441v-74.728h416v40h-16v-24h-16V310.441z M464.072,459.713h-48v-120h48
			V459.713z M464.072,323.713h-48v-32h48V323.713z M464.072,275.713h-16v-40h16V275.713z"/>
	</g>
</g>
<g>
	<g>
		<path d="M256.072,267.713h-96c-4.418,0-8,3.582-8,8v64c0,4.418,3.582,8,8,8h96c4.418,0,8-3.582,8-8v-64
			C264.072,271.295,260.49,267.713,256.072,267.713z M248.072,331.713h-80v-48h80V331.713z"/>
	</g>
</g>
<g>
	<g>
		<rect x="368.072" y="363.713" width="16" height="16"/>
	</g>
</g>
<g>
	<g>
		<rect x="368.072" y="395.713" width="16" height="16"/>
	</g>
</g>
<g>
	<g>
		<rect x="368.072" y="427.713" width="16" height="16"/>
	</g>
</g>
<g>
	<g>
		<rect x="32.072" y="363.713" width="16" height="16"/>
	</g>
</g>
<g>
	<g>
		<rect x="32.072" y="395.713" width="16" height="16"/>
	</g>
</g>
<g>
	<g>
		<rect x="32.072" y="427.713" width="16" height="16"/>
	</g>
</g>
<g>
</g>
<g>
</g>
<g>
</g>
<g>
</g>
<g>
</g>
<g>
</g>
<g>
</g>
<g>
</g>
<g>
</g>
<g>
</g>
<g>
</g>
<g>
</g>
<g>
</g>
<g>
</g>
<g>
</g>
</svg>
