<?xml version="1.0" encoding="iso-8859-1"?>
<!-- Generator: Adobe Illustrator 19.0.0, SVG Export Plug-In . SVG Version: 6.00 Build 0)  -->
<svg version="1.1" id="Capa_1" xmlns="http://www.w3.org/2000/svg" xmlns:xlink="http://www.w3.org/1999/xlink" x="0px" y="0px"
	 viewBox="0 0 480 480" style="enable-background:new 0 0 480 480;" xml:space="preserve">
<g>
	<g>
		<path d="M404,368h-16V128C388,57.308,330.692,0,260,0S132,57.308,132,128v72.208c-6.883-5.294-15.316-8.179-24-8.208
			c-22.08,0.026-39.974,17.92-40,40v48c0.05,36.645,27.586,67.42,64,71.528V368h-16c-4.418,0-8,3.582-8,8v96c0,4.418,3.582,8,8,8
			h288c4.418,0,8-3.582,8-8v-96C412,371.582,408.418,368,404,368z M148,128c0.066-61.828,50.172-111.934,112-112
			c30.131-0.004,58.984,12.175,80,33.768V80h16v-9.392c10.457,17.318,15.989,37.162,16,57.392v28.688l-26.344-26.344
			c-3.124-3.123-8.188-3.123-11.312,0L300,164.688l-34.344-34.344c-3.124-3.123-8.188-3.123-11.312,0L220,164.688l-34.344-34.344
			c-3.124-3.123-8.188-3.123-11.312,0L148,156.688V128z M148,179.312l32-32l34.344,34.344c3.124,3.123,8.188,3.123,11.312,0
			L260,147.312l34.344,34.344c3.124,3.123,8.188,3.123,11.312,0L340,147.312l32,32v25.376l-26.344-26.344
			c-3.124-3.123-8.188-3.123-11.312,0L300,212.688l-34.344-34.344c-3.124-3.123-8.188-3.123-11.312,0L220,212.688l-34.344-34.344
			c-3.124-3.123-8.188-3.123-11.312,0L148,204.688V179.312z M148,227.312l32-32l34.344,34.344c3.124,3.123,8.188,3.123,11.312,0
			L260,195.312l34.344,34.344c3.124,3.123,8.188,3.123,11.312,0L340,195.312l32,32V368H259.592
			C255.526,308.135,207.865,260.474,148,256.408V227.312z M148,344v-71.592c51.053,3.985,91.607,44.539,95.592,95.592H148V344z
			 M84,280v-48c0-13.255,10.745-24,24-24s24,10.745,24,24v103.432C104.465,331.419,84.035,307.826,84,280z M396,464h-32v-40h-16v40
			h-32v-40h-16v40h-32v-40h-16v40h-32v-40h-16v40h-32v-40h-16v40h-32v-80h272V464z"/>
	</g>
</g>
<g>
	<g>
		<rect x="100" y="224" width="16" height="16"/>
	</g>
</g>
<g>
	<g>
		<rect x="100" y="256" width="16" height="16"/>
	</g>
</g>
<g>
	<g>
		<rect x="100" y="288" width="16" height="16"/>
	</g>
</g>
<g>
	<g>
		<rect x="340" y="336" width="16" height="16"/>
	</g>
</g>
<g>
	<g>
		<rect x="340" y="304" width="16" height="16"/>
	</g>
</g>
<g>
	<g>
		<rect x="340" y="272" width="16" height="16"/>
	</g>
</g>
<g>
	<g>
		<rect x="340" y="240" width="16" height="16"/>
	</g>
</g>
<g>
	<g>
		<rect x="340" y="96" width="16" height="16"/>
	</g>
</g>
<g>
	<g>
		<rect x="172" y="88" width="16" height="16"/>
	</g>
</g>
<g>
	<g>
		<rect x="188" y="72" width="16" height="16"/>
	</g>
</g>
<g>
	<g>
		<rect x="204" y="56" width="16" height="16"/>
	</g>
</g>
<g>
	<g>
		<rect x="220" y="72" width="16" height="16"/>
	</g>
</g>
<g>
</g>
<g>
</g>
<g>
</g>
<g>
</g>
<g>
</g>
<g>
</g>
<g>
</g>
<g>
</g>
<g>
</g>
<g>
</g>
<g>
</g>
<g>
</g>
<g>
</g>
<g>
</g>
<g>
</g>
</svg>
