<?xml version="1.0" encoding="iso-8859-1"?>
<!-- Generator: Adobe Illustrator 19.0.0, SVG Export Plug-In . SVG Version: 6.00 Build 0)  -->
<svg version="1.1" id="Capa_1" xmlns="http://www.w3.org/2000/svg" xmlns:xlink="http://www.w3.org/1999/xlink" x="0px" y="0px"
	 viewBox="0 0 480.006 480.006" style="enable-background:new 0 0 480.006 480.006;" xml:space="preserve">
<g>
	<g>
		<rect x="120.003" y="344" width="16" height="16"/>
	</g>
</g>
<g>
	<g>
		<rect x="136.003" y="360" width="16" height="16"/>
	</g>
</g>
<g>
	<g>
		<rect x="152.003" y="344" width="16" height="16"/>
	</g>
</g>
<g>
	<g>
		<rect x="168.003" y="360" width="16" height="16"/>
	</g>
</g>
<g>
	<g>
		<path d="M350.475,191.736l-0.744-0.8c-10.104-10.61-21.691-19.702-34.4-26.992c-3.377-11.829-14.226-19.957-26.528-19.872
			l6.4-64.072h24.8c22.091,0,40-17.909,40-40s-17.909-40-40-40c-22.091,0-40,17.909-40,40v4.448c-13.127-7.82-29.969-5.126-40,6.4
			c-6.066-6.902-14.812-10.855-24-10.848c-5.639,0.029-11.166,1.576-16,4.48V40c0-22.091-17.909-40-40-40s-40,17.909-40,40
			s17.909,40,40,40h24.8l6.4,64h-0.08c-8.108-0.009-15.807,3.559-21.04,9.752c-2.364,2.818-4.138,6.083-5.216,9.6
			c-47.544,26.871-76.919,77.276-76.864,131.888V448c-0.078,17.598,14.125,31.927,31.722,32.005
			c9.321,0.041,18.192-4.001,24.278-11.061c11.333,13.255,31.265,14.813,44.519,3.481c1.249-1.068,2.413-2.232,3.481-3.481
			c11.333,13.255,31.265,14.813,44.519,3.481c1.249-1.068,2.413-2.232,3.481-3.481c11.333,13.255,31.265,14.813,44.519,3.481
			c1.249-1.068,2.413-2.232,3.481-3.481c11.333,13.255,31.265,14.813,44.519,3.481c1.249-1.068,2.413-2.232,3.481-3.481
			c11.489,13.33,31.609,14.823,44.939,3.334c7.06-6.085,11.102-14.957,11.061-24.278V296
			C392.067,257.201,377.197,219.866,350.475,191.736z M296.003,40c0-13.255,10.745-24,24-24s24,10.745,24,24s-10.745,24-24,24h-24
			V40z M184.003,64h-24c-13.255,0-24-10.745-24-24s10.745-24,24-24s24,10.745,24,24V64z M288.883,160
			c3.406-0.002,6.639,1.497,8.84,4.096c2.207,2.598,3.155,6.038,2.592,9.4l-3.608,21.648c-0.554,3.299-0.502,6.671,0.152,9.952
			l2.616,13.056c0.685,3.398-0.196,6.924-2.4,9.6c-4.32,4.962-11.844,5.482-16.806,1.161c-0.117-0.102-0.233-0.207-0.346-0.313
			l-12.528-12.52c-2.181-2.167-3.402-5.118-3.392-8.192v-23.776c-0.01-3.074,1.211-6.025,3.392-8.192l12.528-12.528
			C282.309,161.066,285.555,159.838,288.883,160z M216.003,56c8.837,0,16,7.163,16,16c0,4.418,3.582,8,8,8s8-3.582,8-8
			c-0.314-8.837,6.595-16.254,15.432-16.568c8.837-0.314,16.254,6.595,16.568,15.432v0.728l-7.56,75.656
			c-21.368-4.705-43.497-4.759-64.888-0.16L200.003,72C200.003,63.163,207.166,56,216.003,56z M230.659,176
			c-1.273-4.294-3.587-8.207-6.736-11.392l-3.576-3.576c13.004-1.847,26.206-1.814,39.2,0.096l-3.464,3.48
			c-3.149,3.185-5.463,7.098-6.736,11.392H230.659z M248.003,192v16h-16v-16H248.003z M182.283,164.096
			c2.411-2.753,5.944-4.261,9.6-4.096c3.074-0.01,6.025,1.211,8.192,3.392l12.528,12.528c2.183,2.166,3.408,5.116,3.4,8.192v23.776
			c0.01,3.074-1.211,6.025-3.392,8.192l-12.528,12.528c-4.795,4.511-12.339,4.281-16.85-0.514c-0.103-0.109-0.204-0.221-0.302-0.334
			c-2.204-2.676-3.085-6.202-2.4-9.6l2.624-13.072c0.647-3.273,0.696-6.637,0.144-9.928l-3.608-21.656
			C179.125,170.139,180.074,166.696,182.283,164.096z M104.003,295.24c-0.067-34.885,13.37-68.442,37.496-93.64
			c7.043-7.373,14.893-13.931,23.4-19.552l2.616,15.712c0.237,1.381,0.218,2.794-0.056,4.168l-2.616,13.056
			c-2.985,14.939,6.705,29.469,21.644,32.454c9.041,1.807,18.388-1.023,24.908-7.542l8.904-8.904
			c-20.747,46.425-65.545,77.501-116.296,80.672V295.24z M376.003,448c0,8.837-7.163,16-16,16s-16-7.163-16-16v-8h-16v8
			c0,8.837-7.163,16-16,16s-16-7.163-16-16v-8h-16v8c0,8.837-7.163,16-16,16c-8.837,0-16-7.163-16-16v-8h-16v8
			c0,8.837-7.163,16-16,16s-16-7.163-16-16v-8h-16v8c0,8.837-7.163,16-16,16s-16-7.163-16-16v-8h-16v8c0,8.837-7.163,16-16,16
			s-16-7.163-16-16v-28.448c13.156,7.871,30.074,5.076,40-6.608c11.333,13.255,31.265,14.813,44.519,3.481
			c1.249-1.068,2.413-2.232,3.481-3.481c11.333,13.255,31.265,14.813,44.519,3.481c1.249-1.068,2.413-2.232,3.481-3.481
			c11.333,13.255,31.265,14.813,44.519,3.481c1.249-1.068,2.413-2.232,3.481-3.481c11.333,13.255,31.265,14.813,44.519,3.481
			c1.249-1.068,2.413-2.232,3.481-3.481c9.926,11.684,26.844,14.479,40,6.608V448z M376.003,392c0,8.837-7.163,16-16,16
			s-16-7.163-16-16h-16c0,8.837-7.163,16-16,16s-16-7.163-16-16h-16c0,8.837-7.163,16-16,16c-8.837,0-16-7.163-16-16h-16
			c0,8.837-7.163,16-16,16s-16-7.163-16-16h-16c0,8.837-7.163,16-16,16s-16-7.163-16-16h-16c0,8.837-7.163,16-16,16s-16-7.163-16-16
			v-64.336c62.152-3.475,115.967-44.343,136-103.28c20.033,58.938,73.848,99.805,136,103.28V392z M376.003,311.664
			c-50.746-3.167-95.542-34.232-116.296-80.648l8.904,8.904c10.746,10.799,28.211,10.842,39.01,0.096
			c6.566-6.534,9.414-15.928,7.582-25.008l-2.608-13.04c-0.281-1.381-0.303-2.803-0.064-4.192l2.528-15.2
			c8.382,5.584,16.12,12.08,23.072,19.368l0.704,0.768c23.915,25.166,37.224,58.572,37.168,93.288V311.664z"/>
	</g>
</g>
<g>
</g>
<g>
</g>
<g>
</g>
<g>
</g>
<g>
</g>
<g>
</g>
<g>
</g>
<g>
</g>
<g>
</g>
<g>
</g>
<g>
</g>
<g>
</g>
<g>
</g>
<g>
</g>
<g>
</g>
</svg>
