<?xml version="1.0" encoding="iso-8859-1"?>
<!-- Generator: Adobe Illustrator 19.0.0, SVG Export Plug-In . SVG Version: 6.00 Build 0)  -->
<svg version="1.1" id="Capa_1" xmlns="http://www.w3.org/2000/svg" xmlns:xlink="http://www.w3.org/1999/xlink" x="0px" y="0px"
	 viewBox="0 0 448.008 448.008" style="enable-background:new 0 0 448.008 448.008;" xml:space="preserve">
<g>
	<g>
		<rect x="240.004" y="392.008" width="16" height="16"/>
	</g>
</g>
<g>
	<g>
		<rect x="272.004" y="424.008" width="16" height="16"/>
	</g>
</g>
<g>
	<g>
		<rect x="336.004" y="424.008" width="16" height="16"/>
	</g>
</g>
<g>
	<g>
		<rect x="304.004" y="432.008" width="16" height="16"/>
	</g>
</g>
<g>
	<g>
		<rect x="368.004" y="392.008" width="16" height="16"/>
	</g>
</g>
<g>
	<g>
		<path d="M341.012,222.16c21.091-15.958,25.253-45.992,9.295-67.083c-4.074-5.384-9.24-9.846-15.159-13.093
			c12.16-12.666,11.749-32.792-0.917-44.951c-3.978-3.819-8.881-6.537-14.227-7.889V62.992
			c17.112-4.418,27.402-21.872,22.984-38.984c-4.418-17.112-21.872-27.402-38.984-22.984c-14.129,3.648-24,16.392-24,30.984h16
			c0-8.837,7.163-16,16-16s16,7.163,16,16s-7.163,16-16,16c-4.418,0-8,3.582-8,8v33.136c-17.023,4.302-27.335,21.59-23.033,38.613
			c1.351,5.346,4.07,10.249,7.889,14.227c-23.189,12.719-31.676,41.828-18.957,65.016c3.247,5.92,7.709,11.086,13.093,15.159
			c-26.097,11.51-42.952,37.326-42.992,65.848v88h16V333.16c4.567,5.666,9.96,10.612,16,14.672v60.176h16v-52.2
			c5.172,1.853,10.541,3.104,16,3.728v56.472h16v-56.472c5.459-0.624,10.828-1.875,16-3.728v52.2h16v-60.176
			c6.04-4.06,11.433-9.006,16-14.672v42.848h16v-88C383.963,259.485,367.108,233.67,341.012,222.16z M362.652,264.272
			c-8.614-1.384-17.239,2.414-22.032,9.704c-3.116-6.34-8.244-11.468-14.584-14.584c7.29-4.793,11.088-13.418,9.704-22.032
			C347.562,242.934,357.077,252.449,362.652,264.272z M312.004,104.008c8.837,0,16,7.163,16,16s-7.163,16-16,16s-16-7.163-16-16
			S303.167,104.008,312.004,104.008z M319.859,152.999c11.304,2.877,20.131,11.704,23.009,23.009H281.14
			C285.478,158.962,302.814,148.661,319.859,152.999z M281.14,192.008h61.728c-4.339,17.046-21.674,27.347-38.719,23.008
			C292.844,212.139,284.017,203.312,281.14,192.008z M320.004,240.008c0,4.418-3.582,8-8,8s-8-3.582-8-8s3.582-8,8-8
			S320.004,235.589,320.004,240.008z M288.268,237.36c-1.384,8.614,2.414,17.239,9.704,22.032
			c-6.34,3.116-11.468,8.244-14.584,14.584c-4.793-7.29-13.418-11.088-22.032-9.704C266.931,252.449,276.445,242.935,288.268,237.36
			z M256.004,288.008c0-4.418,3.582-8,8-8s8,3.582,8,8s-3.582,8-8,8S256.004,292.426,256.004,288.008z M288.268,338.656
			c-11.823-5.575-21.337-15.089-26.912-26.912c8.614,1.384,17.239-2.414,22.032-9.704v0c3.116,6.34,8.244,11.468,14.584,14.584
			C290.682,321.417,286.883,330.042,288.268,338.656z M312.004,344.008c-4.418,0-8-3.582-8-8s3.582-8,8-8s8,3.582,8,8
			S316.422,344.008,312.004,344.008z M312.004,304.008c-8.837,0-16-7.163-16-16s7.163-16,16-16s16,7.163,16,16
			S320.84,304.008,312.004,304.008z M335.74,338.656c1.384-8.614-2.414-17.239-9.704-22.032c6.34-3.116,11.468-8.244,14.584-14.584
			c4.793,7.29,13.418,11.088,22.032,9.704C357.077,323.566,347.562,333.081,335.74,338.656z M360.004,296.008c-4.418,0-8-3.582-8-8
			s3.582-8,8-8s8,3.582,8,8S364.422,296.008,360.004,296.008z"/>
	</g>
</g>
<g>
	<g>
		<rect x="192.004" y="392.008" width="16" height="16"/>
	</g>
</g>
<g>
	<g>
		<rect x="160.004" y="424.008" width="16" height="16"/>
	</g>
</g>
<g>
	<g>
		<rect x="96.004" y="424.008" width="16" height="16"/>
	</g>
</g>
<g>
	<g>
		<rect x="128.004" y="432.008" width="16" height="16"/>
	</g>
</g>
<g>
	<g>
		<rect x="64.004" y="392.008" width="16" height="16"/>
	</g>
</g>
<g>
	<g>
		<path d="M165.012,222.16c21.091-15.958,25.253-45.992,9.295-67.083c-4.074-5.384-9.24-9.846-15.159-13.093
			c12.16-12.666,11.749-32.792-0.917-44.951c-3.978-3.819-8.881-6.537-14.227-7.889V56.008c0-4.418-3.582-8-8-8
			c-8.837,0-16-7.163-16-16s7.163-16,16-16s16,7.163,16,16h16c0-17.673-14.327-32-32-32s-32,14.327-32,32
			c0,14.592,9.871,27.336,24,30.984v26.152c-17.023,4.302-27.335,21.59-23.033,38.613c1.351,5.346,4.07,10.249,7.889,14.227
			C89.671,154.703,81.184,183.811,93.903,207c3.247,5.92,7.709,11.086,13.093,15.159c-26.097,11.51-42.952,37.326-42.992,65.848v88
			h16V333.16c4.567,5.666,9.96,10.612,16,14.672v60.176h16v-52.2c5.172,1.853,10.541,3.104,16,3.728v56.472h16v-56.472
			c5.459-0.624,10.828-1.875,16-3.728v52.2h16v-60.176c6.04-4.06,11.433-9.006,16-14.672v42.848h16v-88
			C207.963,259.485,191.108,233.67,165.012,222.16z M186.652,264.272c-8.614-1.384-17.239,2.414-22.032,9.704
			c-3.116-6.34-8.244-11.468-14.584-14.584c7.29-4.793,11.088-13.418,9.704-22.032C171.562,242.934,181.077,252.449,186.652,264.272
			z M136.004,104.008c8.837,0,16,7.163,16,16s-7.163,16-16,16s-16-7.163-16-16S127.167,104.008,136.004,104.008z M143.859,152.999
			c11.304,2.877,20.131,11.704,23.009,23.009H105.14C109.478,158.962,126.814,148.661,143.859,152.999z M105.14,192.008h61.728
			c-4.339,17.046-21.674,27.347-38.719,23.008C116.844,212.139,108.017,203.312,105.14,192.008z M144.004,240.008
			c0,4.418-3.582,8-8,8s-8-3.582-8-8s3.582-8,8-8S144.004,235.589,144.004,240.008z M112.268,237.36
			c-1.384,8.614,2.414,17.239,9.704,22.032c-6.34,3.116-11.468,8.244-14.584,14.584c-4.793-7.29-13.418-11.088-22.032-9.704
			C90.931,252.449,100.445,242.934,112.268,237.36z M80.004,288.008c0-4.418,3.582-8,8-8s8,3.582,8,8s-3.582,8-8,8
			S80.004,292.426,80.004,288.008z M112.268,338.656c-11.823-5.575-21.337-15.089-26.912-26.912
			c8.614,1.384,17.239-2.414,22.032-9.704v0c3.116,6.34,8.244,11.468,14.584,14.584
			C114.682,321.417,110.883,330.042,112.268,338.656z M136.004,344.008c-4.418,0-8-3.582-8-8s3.582-8,8-8s8,3.582,8,8
			S140.422,344.008,136.004,344.008z M136.004,304.008c-8.837,0-16-7.163-16-16s7.163-16,16-16s16,7.163,16,16
			S144.84,304.008,136.004,304.008z M159.74,338.656c1.384-8.614-2.414-17.239-9.704-22.032c6.34-3.116,11.468-8.244,14.584-14.584
			c4.793,7.29,13.418,11.088,22.032,9.704C181.077,323.566,171.562,333.081,159.74,338.656z M184.004,296.008c-4.418,0-8-3.582-8-8
			s3.582-8,8-8s8,3.582,8,8S188.422,296.008,184.004,296.008z"/>
	</g>
</g>
<g>
</g>
<g>
</g>
<g>
</g>
<g>
</g>
<g>
</g>
<g>
</g>
<g>
</g>
<g>
</g>
<g>
</g>
<g>
</g>
<g>
</g>
<g>
</g>
<g>
</g>
<g>
</g>
<g>
</g>
</svg>
