<?xml version="1.0" encoding="iso-8859-1"?>
<!-- Generator: Adobe Illustrator 19.0.0, SVG Export Plug-In . SVG Version: 6.00 Build 0)  -->
<svg version="1.1" id="Capa_1" xmlns="http://www.w3.org/2000/svg" xmlns:xlink="http://www.w3.org/1999/xlink" x="0px" y="0px"
	 viewBox="0 0 479.992 479.992" style="enable-background:new 0 0 479.992 479.992;" xml:space="preserve">
<g>
	<g>
		<path d="M399.354,404.9c-0.003-0.007-0.006-0.013-0.008-0.02L312.01,198.4v-29.744l4.976-29.856
			c7.502-4.07,13.662-10.228,17.736-17.728c7.465-13.524,7.812-29.851,0.928-43.68l-7.64-15.28V8c0-4.418-3.582-8-8-8h-32
			c-4.418,0-8,3.582-8,8v48h-80V8c0-4.418-3.582-8-8-8h-32c-4.418,0-8,3.582-8,8v54.112l-7.64,15.28
			c-6.884,13.829-6.537,30.156,0.928,43.68c4.068,7.502,10.231,13.658,17.736,17.72l4.976,29.864V198.4L80.642,404.88
			c-0.828,1.959-0.843,4.167-0.04,6.136c0.799,1.967,2.348,3.535,4.304,4.36c21.133,8.851,42.986,15.871,65.32,20.984l-5.936,21.76
			c-1.159,4.256,1.346,8.648,5.6,9.816c58.994,16.075,121.214,16.075,180.208,0c4.254-1.168,6.759-5.56,5.6-9.816l-5.936-21.76
			c22.334-5.113,44.187-12.133,65.32-20.984C399.155,413.663,401.067,408.973,399.354,404.9z M296.01,16h16v40h-16V16z M168.01,16
			h16v40h-16V16z M159.322,113.36c-4.936-8.917-5.175-19.689-0.64-28.816L164.954,72h150.112l6.272,12.544
			c4.53,9.122,4.29,19.888-0.64,28.8c-4.269,8.088-12.289,13.515-21.384,14.472c-17.579,1.825-33.308-10.946-35.133-28.525
			c-0.113-1.093-0.171-2.192-0.171-3.291h-16c0.026,26.499,21.501,47.974,48,48c1.32,0,2.616-0.088,3.92-0.192L297.234,160H182.786
			l-2.696-16.192c1.296,0.104,2.6,0.192,3.92,0.192c26.499-0.026,47.974-21.501,48-48h-16c0,17.673-14.327,32-32,32
			c-1.096,0.001-2.19-0.055-3.28-0.168C171.626,126.883,163.595,121.454,159.322,113.36z M296.01,176v16h-112v-16H296.01z
			 M325.586,420.936L287.73,282.12l-15.44,4.2l45.872,168.184c-51.334,12.648-104.97,12.648-156.304,0L207.73,286.32l-15.44-4.2
			l-37.88,138.816c-19.047-4.331-37.735-10.108-55.904-17.28L181.314,208h117.392l82.784,195.656
			C363.321,410.828,344.632,416.605,325.586,420.936z"/>
	</g>
</g>
<g>
	<g>
		<rect x="264.01" y="224" width="16" height="16"/>
	</g>
</g>
<g>
	<g>
		<rect x="280.01" y="240" width="16" height="16"/>
	</g>
</g>
<g>
	<g>
		<path d="M120.036,216.027c-8.837,0.015-16.012-7.137-16.027-15.973c-0.009-5.391,2.698-10.424,7.2-13.389
			c3.68-2.445,4.682-7.41,2.238-11.09c-0.589-0.888-1.35-1.648-2.238-2.238c-7.38-4.86-9.423-14.783-4.563-22.163
			c4.86-7.38,14.783-9.423,22.163-4.563c4.502,2.965,7.209,7.998,7.2,13.389h16c0.003-17.673-14.322-32.002-31.995-32.005
			S88.013,142.317,88.01,159.99c-0.001,7.274,2.476,14.332,7.024,20.01c-11.046,13.796-8.816,33.934,4.98,44.98
			c5.675,4.543,12.727,7.019,19.996,7.02c17.673,0,32-14.327,32-32h-16C136.024,208.837,128.873,216.012,120.036,216.027z"/>
	</g>
</g>
<g>
</g>
<g>
</g>
<g>
</g>
<g>
</g>
<g>
</g>
<g>
</g>
<g>
</g>
<g>
</g>
<g>
</g>
<g>
</g>
<g>
</g>
<g>
</g>
<g>
</g>
<g>
</g>
<g>
</g>
</svg>
