<?xml version="1.0" encoding="iso-8859-1"?>
<!-- Generator: Adobe Illustrator 19.0.0, SVG Export Plug-In . SVG Version: 6.00 Build 0)  -->
<svg version="1.1" id="Capa_1" xmlns="http://www.w3.org/2000/svg" xmlns:xlink="http://www.w3.org/1999/xlink" x="0px" y="0px"
	 viewBox="0 0 480 480" style="enable-background:new 0 0 480 480;" xml:space="preserve">
<g>
	<g>
		<path d="M368.104,304H280V112h8c4.418,0,8-3.582,8-8V8c0-4.418-3.582-8-8-8H48c-4.418,0-8,3.582-8,8v96c0,4.418,3.582,8,8,8h8
			v192.984c-14.108,3.622-23.98,16.33-24,30.896V472c0,4.418,3.582,8,8,8h400c4.418,0,8-3.582,8-8v-88.104
			C447.943,339.794,412.206,304.057,368.104,304z M56,16h224v80H56V16z M48,335.88c0.026-8.797,7.179-15.907,15.976-15.88
			c0.008,0,0.016,0,0.024,0c4.418,0,8-3.582,8-8V112h192v40h-25.472c-4.418-12.497-18.131-19.046-30.627-14.627
			S188.855,155.503,193.273,168s18.131,19.046,30.627,14.627c6.835-2.416,12.211-7.793,14.627-14.627H264v48h-25.472
			c-4.418-12.497-18.131-19.046-30.627-14.627S188.855,219.503,193.273,232s18.131,19.046,30.627,14.627
			c6.835-2.416,12.211-7.793,14.627-14.627H264v48h-25.472c-4.418-12.497-18.131-19.046-30.627-14.627S188.855,283.503,193.273,296
			s18.131,19.046,30.627,14.627c6.835-2.416,12.211-7.793,14.627-14.627H264v16c0,4.418,3.582,8,8,8h40v15.032
			C312,353.24,297.24,368,279.032,368H48V335.88z M224,160c0,4.418-3.582,8-8,8s-8-3.582-8-8s3.582-8,8-8S224,155.582,224,160z
			 M224,224c0,4.418-3.582,8-8,8s-8-3.582-8-8s3.582-8,8-8S224,219.582,224,224z M224,288c0,4.418-3.582,8-8,8s-8-3.582-8-8
			s3.582-8,8-8S224,283.582,224,288z M432,464h-32v-16h-16v16h-16v-16h-16v16h-16v-16h-16v16h-16v-16h-16v16h-16v-16h-16v16h-16v-16
			h-16v16h-16v-16h-16v16h-16v-16h-16v16h-16v-16h-16v16h-16v-16H96v16H80v-16H64v16H48v-32h384V464z M432,416H48v-32h231.032
			c27.042-0.004,48.964-21.926,48.968-48.968V320h24l-0.088,48h16L368,320h0.12c35.259,0.066,63.823,28.637,63.88,63.896V416z"/>
	</g>
</g>
<g>
	<g>
		<rect x="72" y="32" width="16" height="16"/>
	</g>
</g>
<g>
	<g>
		<rect x="88" y="48" width="16" height="16"/>
	</g>
</g>
<g>
	<g>
		<rect x="72" y="64" width="16" height="16"/>
	</g>
</g>
<g>
	<g>
		<rect x="352" y="384" width="16" height="16"/>
	</g>
</g>
<g>
</g>
<g>
</g>
<g>
</g>
<g>
</g>
<g>
</g>
<g>
</g>
<g>
</g>
<g>
</g>
<g>
</g>
<g>
</g>
<g>
</g>
<g>
</g>
<g>
</g>
<g>
</g>
<g>
</g>
</svg>
