<?xml version="1.0" encoding="iso-8859-1"?>
<!-- Generator: Adobe Illustrator 19.0.0, SVG Export Plug-In . SVG Version: 6.00 Build 0)  -->
<svg version="1.1" id="Capa_1" xmlns="http://www.w3.org/2000/svg" xmlns:xlink="http://www.w3.org/1999/xlink" x="0px" y="0px"
	 viewBox="0 0 480.045 480.045" style="enable-background:new 0 0 480.045 480.045;" xml:space="preserve">
<g>
	<g>
		<circle cx="276.022" cy="332.022" r="12"/>
	</g>
</g>
<g>
	<g>
		<circle cx="276.022" cy="404.022" r="12"/>
	</g>
</g>
<g>
	<g>
		<circle cx="204.022" cy="332.022" r="12"/>
	</g>
</g>
<g>
	<g>
		<circle cx="204.022" cy="404.022" r="12"/>
	</g>
</g>
<g>
	<g>
		<path d="M479.278,244.582l-80-168c-0.703-1.473-1.839-2.695-3.256-3.504l-55.664-31.792L284.67,1.51
			c-1.357-0.968-2.982-1.488-4.648-1.488h-80c-1.667,0-3.291,0.52-4.648,1.488l-55.688,39.776L84.022,73.078
			c-1.417,0.809-2.553,2.031-3.256,3.504l-80,168c-1.447,3.065-0.806,6.709,1.6,9.096l101.656,101.656v116.688c0,4.418,3.582,8,8,8
			h256c4.418,0,8-3.582,8-8V355.334l101.656-101.656C480.085,251.291,480.726,247.647,479.278,244.582z M104.022,244.71
			l-12.424-12.424l12.424-27.336V244.71z M108.022,145.078c-2.333,1.34-3.836,3.763-4,6.448c0,0.168,0,0.328,0,0.496v14.272
			l-39.28,86.4l14.56,6.624l5.224-11.496l19.496,19.512v65.376l-86.344-86.352L94.166,85.726l28.36-16.208l-17.448,30.504
			c-2.19,3.837-0.855,8.723,2.982,10.914c0.555,0.317,1.147,0.566,1.762,0.742l37.744,10.792L108.022,145.078z M328.022,464.022
			h-18.4l18.4-33.128V464.022z M328.022,397.95l-36.704,66.072H120.022v-296l176,132v12h16v-16c0-2.518-1.186-4.889-3.2-6.4
			L126.558,152.926l45.464-25.96c3.834-2.195,5.163-7.083,2.967-10.918c-1.035-1.807-2.734-3.14-4.735-3.714l-46.232-13.2
			l26.072-45.6l52.488-37.512h74.88l52.48,37.496l26.072,45.6l-46.192,13.2c-4.248,1.216-6.705,5.645-5.489,9.893
			c0.558,1.95,1.837,3.616,3.577,4.659l45.128,27.008l-76.216,44.472l-25.84-33.44l35.464-48.144
			c1.019-1.372,1.571-3.035,1.576-4.744v-72h-16v69.368l-31.2,42.352l-32.8-42.448V40.022h-16v72
			c-0.001,1.768,0.584,3.487,1.664,4.888l134.336,173.84V397.95z M360.022,464.022h-16v-176c0.001-1.768-0.584-3.487-1.664-4.888
			l-55.656-72l73.32-42.784V464.022z M376.022,332.71v-65.376l19.496-19.496l5.224,11.496l14.56-6.624l-39.28-86.416v-9.088
			c1.728-3.669,0.363-8.05-3.144-10.088l-40.904-24.48l38.248-10.928c4.247-1.217,6.704-5.647,5.486-9.894
			c-0.176-0.615-0.425-1.206-0.742-1.762l-17.448-30.536l28.36,16.208l76.488,160.632L376.022,332.71z M376.022,244.71v-39.76
			l12.424,27.336L376.022,244.71z"/>
	</g>
</g>
<g>
	<g>
		<rect x="136.022" y="416.022" width="16" height="16"/>
	</g>
</g>
<g>
	<g>
		<rect x="152.022" y="432.022" width="16" height="16"/>
	</g>
</g>
<g>
</g>
<g>
</g>
<g>
</g>
<g>
</g>
<g>
</g>
<g>
</g>
<g>
</g>
<g>
</g>
<g>
</g>
<g>
</g>
<g>
</g>
<g>
</g>
<g>
</g>
<g>
</g>
<g>
</g>
</svg>
