<?xml version="1.0" encoding="iso-8859-1"?>
<!-- Generator: Adobe Illustrator 19.0.0, SVG Export Plug-In . SVG Version: 6.00 Build 0)  -->
<svg version="1.1" id="Capa_1" xmlns="http://www.w3.org/2000/svg" xmlns:xlink="http://www.w3.org/1999/xlink" x="0px" y="0px"
	 viewBox="0 0 480 480" style="enable-background:new 0 0 480 480;" xml:space="preserve">
<g>
	<g>
		<path d="M323.705,264.376L299.329,240l24.376-24.376c17.512-1.991,30.094-17.8,28.104-35.312
			c-1.991-17.512-17.8-30.094-35.312-28.104c-14.77,1.679-26.425,13.334-28.104,28.104l-24.376,24.376l-24.376-24.376
			c-1.991-17.512-17.8-30.094-35.312-28.104c-17.512,1.991-30.094,17.8-28.104,35.312c1.679,14.77,13.334,26.425,28.104,28.104
			L228.705,240l-24.376,24.376c-17.512,1.991-30.094,17.8-28.104,35.312s17.8,30.094,35.312,28.104
			c14.77-1.679,26.425-13.334,28.104-28.104l24.376-24.376l24.376,24.376c1.991,17.512,17.8,30.094,35.312,28.104
			c17.512-1.991,30.094-17.8,28.104-35.312C350.129,277.71,338.475,266.055,323.705,264.376z M320.017,168c8.837,0,16,7.163,16,16
			s-7.163,16-16,16s-16-7.163-16-16S311.18,168,320.017,168z M292.065,199.264c2.935,5.351,7.337,9.753,12.688,12.688
			l-16.736,16.736L275.329,216L292.065,199.264z M208.017,200c-8.837,0-16-7.163-16-16s7.163-16,16-16s16,7.163,16,16
			S216.853,200,208.017,200z M208.017,312c-8.837,0-16-7.163-16-16s7.163-16,16-16s16,7.163,16,16S216.853,312,208.017,312z
			 M235.969,280.736c-2.935-5.351-7.337-9.753-12.688-12.688l16.736-16.736L252.705,264L235.969,280.736z M292.065,280.736
			L292.065,280.736l-68.8-68.8c5.351-2.935,9.753-7.337,12.688-12.688l68.8,68.8C299.402,270.983,295,275.385,292.065,280.736z
			 M320.017,312c-8.837,0-16-7.163-16-16s7.163-16,16-16s16,7.163,16,16S328.853,312,320.017,312z"/>
	</g>
</g>
<g>
	<g>
		<path d="M384.017,0c-13.255,0-24,10.745-24,24h16c0-4.418,3.582-8,8-8s8,3.582,8,8v72.92
			c-79.021-70.71-200.402-63.973-271.112,15.048S56.932,312.37,135.953,383.08c35.214,31.51,80.81,48.928,128.063,48.92
			c47.222-0.058,92.776-17.468,128-48.92V456c0,4.418-3.582,8-8,8s-8-3.582-8-8h-16c0,13.255,10.745,24,24,24s24-10.745,24-24V24
			C408.017,10.745,397.272,0,384.017,0z M392.017,174.328c-36.27-70.777-123.048-98.751-193.825-62.481
			c-70.777,36.27-98.751,123.048-62.481,193.825s123.048,98.751,193.825,62.481c26.86-13.764,48.716-35.621,62.481-62.481v55.048
			c-66.672,70.733-178.06,74.025-248.793,7.353s-74.025-178.06-7.353-248.793c33.272-35.299,79.638-55.3,128.146-55.28
			c48.447,0.069,94.734,20.059,128,55.28V174.328z M392.017,240c0,70.692-57.308,128-128,128s-128-57.308-128-128
			s57.308-128,128-128C334.674,112.084,391.933,169.342,392.017,240z"/>
	</g>
</g>
<g>
	<g>
		<rect x="360.017" y="40" width="16" height="16"/>
	</g>
</g>
<g>
	<g>
		<rect x="360.017" y="424" width="16" height="16"/>
	</g>
</g>
<g>
</g>
<g>
</g>
<g>
</g>
<g>
</g>
<g>
</g>
<g>
</g>
<g>
</g>
<g>
</g>
<g>
</g>
<g>
</g>
<g>
</g>
<g>
</g>
<g>
</g>
<g>
</g>
<g>
</g>
</svg>
