<?xml version="1.0" encoding="iso-8859-1"?>
<!-- Generator: Adobe Illustrator 19.0.0, SVG Export Plug-In . SVG Version: 6.00 Build 0)  -->
<svg version="1.1" id="Capa_1" xmlns="http://www.w3.org/2000/svg" xmlns:xlink="http://www.w3.org/1999/xlink" x="0px" y="0px"
	 viewBox="0 0 479.988 479.988" style="enable-background:new 0 0 479.988 479.988;" xml:space="preserve">
<g>
	<g>
		<path d="M476.022,294.482l-27.36-100.328c-0.162-0.509-0.377-0.999-0.64-1.464V43.994h-16v136h-8
			c-27.826,0.035-51.419,20.465-55.432,48h-0.568c-27.826,0.035-51.419,20.465-55.432,48h-0.568c-30.913,0.035-55.965,25.087-56,56
			v9.6c-10.494,2.712-21.506,2.712-32,0v-9.6c-0.035-30.913-25.087-55.965-56-56h-0.568c-4.013-27.535-27.606-47.965-55.432-48
			h-0.568c-4.013-27.535-27.606-47.965-55.432-48h-8v-136h-16v148.632c-0.271,0.483-0.494,0.992-0.664,1.52L3.974,294.482
			c-16.271,59.663,18.894,121.222,78.552,137.512c9.669,2.645,19.648,3.99,29.672,4c14.844-0.014,29.534-3.007,43.2-8.8
			c55.018-19.708,115.187-19.604,170.136,0.296v-0.048c57.128,23.522,122.507-3.722,146.029-60.85
			C480.984,343.71,482.552,318.35,476.022,294.482z M272.022,331.994c0.026-22.08,17.92-39.974,40-40h8c4.418,0,8-3.582,8-8
			c0.026-22.08,17.92-39.974,40-40h8c4.418,0,8-3.582,8-8c0.026-22.08,17.92-39.974,40-40h7.552
			c-38.853,60.719-94.196,109.116-159.552,139.528V331.994z M56.022,195.994c22.08,0.026,39.974,17.92,40,40c0,4.418,3.582,8,8,8h8
			c22.08,0.026,39.974,17.92,40,40c0,4.418,3.582,8,8,8h8c22.08,0.026,39.974,17.92,40,40v3.544
			c-65.363-30.42-120.713-78.821-159.576-139.544H56.022z M159.63,407.33c-7.371,4.173-15.26,7.355-23.464,9.464l-6.208-6.2
			c-16.655-16.568-25.993-39.108-25.936-62.6h-16c-0.047,26.75,10.24,52.484,28.712,71.832
			c-52.956,2.596-97.989-38.229-100.585-91.184c-0.495-10.094,0.607-20.202,3.265-29.952l22.712-83.2
			c13.609,19.677,28.97,38.083,45.896,54.992v29.512h16v-14.352c29.814,26.847,63.532,49.011,100,65.736
			C197.034,375.076,181.119,395.136,159.63,407.33z M193.806,400.522c11.632-12.454,20.246-27.415,25.176-43.728
			c13.739,3.904,28.293,3.904,42.032,0c4.978,16.347,13.656,31.326,25.36,43.776C255.756,395.17,224.43,395.154,193.806,400.522z
			 M393.27,416.554c-9.745,2.649-19.851,3.73-29.936,3.2c18.448-19.333,28.724-45.038,28.688-71.76h-16
			c0.066,23.503-9.274,46.056-25.936,62.632l-6.16,6.152c-32.517-8.419-58.27-33.222-67.904-65.4
			c36.47-16.741,70.188-38.922,100-65.784v14.4h16v-29.536c16.919-16.903,32.272-35.304,45.872-54.976l22.712,83.184
			C474.504,349.806,444.38,402.545,393.27,416.554z"/>
	</g>
</g>
<g>
	<g>
		<rect x="376.022" y="315.994" width="16" height="16"/>
	</g>
</g>
<g>
	<g>
		<rect x="88.022" y="315.994" width="16" height="16"/>
	</g>
</g>
<g>
</g>
<g>
</g>
<g>
</g>
<g>
</g>
<g>
</g>
<g>
</g>
<g>
</g>
<g>
</g>
<g>
</g>
<g>
</g>
<g>
</g>
<g>
</g>
<g>
</g>
<g>
</g>
<g>
</g>
</svg>
