<?xml version="1.0" encoding="iso-8859-1"?>
<!-- Generator: Adobe Illustrator 19.0.0, SVG Export Plug-In . SVG Version: 6.00 Build 0)  -->
<svg version="1.1" id="Capa_1" xmlns="http://www.w3.org/2000/svg" xmlns:xlink="http://www.w3.org/1999/xlink" x="0px" y="0px"
	 viewBox="0 0 480.269 480.269" style="enable-background:new 0 0 480.269 480.269;" xml:space="preserve">
<g>
	<g>
		<path d="M448.269,416.134h-96c-17.673,0-32-14.327-32-32c0-17.673,14.327-32,32-32h32v-0.232
			c23.962-1.056,46.655-11.065,63.592-28.048c19.694-19.741,19.694-51.699,0-71.44l-12.28-12.28l12.28-12.28
			c19.694-19.741,19.694-51.699,0-71.44c-37.715-37.709-98.859-37.704-136.568,0.012c-2.826,2.826-5.474,5.826-7.928,8.98
			l-27.008,34.728h-72.176l-27.008-34.728c-18.233-23.593-46.399-37.367-76.216-37.272c-1.6,0-3.128,0.152-4.688,0.232v-0.232h-48
			c-17.673,0-32-14.327-32-32s14.327-32,32-32h88c17.673,0,32-14.327,32-32s-14.327-32-32-32h-104v16h104c8.837,0,16,7.163,16,16
			s-7.163,16-16,16h-88c-26.51-0.148-48.12,21.222-48.268,47.732s21.222,48.12,47.732,48.268
			c-5.417,3.588-10.461,7.71-15.056,12.304c-19.694,19.741-19.694,51.699,0,71.44l12.28,12.256l-12.28,12.28
			c-19.694,19.741-19.694,51.699,0,71.44c37.715,37.709,98.859,37.704,136.568-0.012c2.826-2.827,5.474-5.826,7.928-8.98
			l27.008-34.728h72.176l27.008,34.728c8.095,10.366,18.225,18.967,29.768,25.272c-24.301,10.595-35.411,38.883-24.817,63.183
			c7.623,17.486,24.877,28.798,43.953,28.817h96c8.837,0,16,7.163,16,16s-7.163,16-16,16h-104v16h104c17.673,0,32-14.327,32-32
			C480.269,430.461,465.942,416.134,448.269,416.134z M192.269,216.134h-72c-13.255,0-24,10.745-24,24s10.745,24,24,24v-16
			c-4.418,0-8-3.582-8-8s3.582-8,8-8h72v16h-56v16h56v5.256l-27.72,35.64c-27.318,35.123-77.938,41.45-113.061,14.132
			c-2.634-2.049-5.139-4.26-7.499-6.62c-13.446-13.488-13.446-35.312,0-48.8l17.936-17.936c3.123-3.124,3.123-8.188,0-11.312
			l-17.936-17.952c-13.446-13.488-13.446-35.312,0-48.8c31.467-31.46,82.48-31.455,113.94,0.013c2.36,2.36,4.571,4.865,6.62,7.499
			l27.72,35.624V216.134z M272.269,264.134h-64v-48h64V264.134z M322.608,312.498c-2.36-2.36-4.571-4.865-6.62-7.499v0.032
			l-27.72-35.64v-5.256h72c13.255,0,24-10.745,24-24s-10.745-24-24-24v16c4.418,0,8,3.582,8,8s-3.582,8-8,8h-72v-16h56v-16h-56
			v-5.256l27.72-35.64c27.318-35.123,77.937-41.45,113.061-14.132c2.634,2.049,5.139,4.26,7.499,6.62
			c13.446,13.488,13.446,35.312,0,48.8l-17.936,17.936c-3.123,3.124-3.123,8.188,0,11.312l17.936,17.936
			c13.446,13.488,13.446,35.312,0,48.8C405.082,343.971,354.069,343.965,322.608,312.498z"/>
	</g>
</g>
<g>
</g>
<g>
</g>
<g>
</g>
<g>
</g>
<g>
</g>
<g>
</g>
<g>
</g>
<g>
</g>
<g>
</g>
<g>
</g>
<g>
</g>
<g>
</g>
<g>
</g>
<g>
</g>
<g>
</g>
</svg>
