<?xml version="1.0" encoding="iso-8859-1"?>
<!-- Generator: Adobe Illustrator 19.0.0, SVG Export Plug-In . SVG Version: 6.00 Build 0)  -->
<svg version="1.1" id="Capa_1" xmlns="http://www.w3.org/2000/svg" xmlns:xlink="http://www.w3.org/1999/xlink" x="0px" y="0px"
	 viewBox="0 0 480 480" style="enable-background:new 0 0 480 480;" xml:space="preserve">
<g>
	<g>
		<path d="M463.77,116.424l-56-112c-1.362-2.725-4.153-4.441-7.2-4.424h-232c-4.418,0-8,3.582-8,8v333.176l-32.232,39.944
			c-5.052,6.591-12.553,10.861-20.8,11.84l-46.736,3.896c-25.607,2.27-45.281,23.653-45.416,49.36V472c0,4.418,3.582,8,8,8H152.57
			c1.94,0,3.813-0.705,5.272-1.984l58.728-51.384V472c0,4.418,3.582,8,8,8h64c3.98,0.001,7.355-2.924,7.92-6.864l8-56
			c0-0.184-0.056-0.36-0.04-0.536s0.12-0.392,0.12-0.6v-7.016c-0.002-22.129-2.664-44.178-7.928-65.672L312.282,128H456.57
			c4.418,0.024,8.02-3.538,8.044-7.956C464.621,118.788,464.332,117.548,463.77,116.424z M281.634,464H232.57v-40h54.776
			L281.634,464z M313.45,112l5.768-79.424l-16-1.152L290.426,208H240.57v-16h-16v16h-24c-4.418,0-8,3.582-8,8v32
			c0,4.418,3.582,8,8,8h86.4l-1.16,16h-85.24c-4.418,0-8,3.582-8,8v32c0,4.418,3.582,8,8,8h81.72l-1.72,23.424
			c-0.057,0.846,0.018,1.697,0.224,2.52c5.079,20.297,7.69,41.133,7.776,62.056h-72c-1.94,0-3.813,0.705-5.272,1.984L149.562,464
			H31.386v-17.784C31.481,428.8,44.82,414.32,62.17,412.8l47-3.92c12.488-1.4,23.885-7.773,31.616-17.68l34.008-42.144
			c1.156-1.431,1.783-3.217,1.776-5.056V16h219.056l48,96H313.45z M289.266,224l-1.16,16H208.57v-16H289.266z M284.618,288
			l-1.168,16h-74.88v-16H284.618z"/>
	</g>
</g>
<g>
	<g>
		<rect x="224.57" y="32" width="16" height="16"/>
	</g>
</g>
<g>
	<g>
		<rect x="224.57" y="64" width="16" height="16"/>
	</g>
</g>
<g>
	<g>
		<rect x="224.57" y="96" width="16" height="16"/>
	</g>
</g>
<g>
	<g>
		<rect x="224.57" y="128" width="16" height="16"/>
	</g>
</g>
<g>
	<g>
		<rect x="224.57" y="160" width="16" height="16"/>
	</g>
</g>
<g>
</g>
<g>
</g>
<g>
</g>
<g>
</g>
<g>
</g>
<g>
</g>
<g>
</g>
<g>
</g>
<g>
</g>
<g>
</g>
<g>
</g>
<g>
</g>
<g>
</g>
<g>
</g>
<g>
</g>
</svg>
