<?xml version="1.0" encoding="iso-8859-1"?>
<!-- Generator: Adobe Illustrator 19.0.0, SVG Export Plug-In . SVG Version: 6.00 Build 0)  -->
<svg version="1.1" id="Capa_1" xmlns="http://www.w3.org/2000/svg" xmlns:xlink="http://www.w3.org/1999/xlink" x="0px" y="0px"
	 viewBox="0 0 368 368" style="enable-background:new 0 0 368 368;" xml:space="preserve">
<g>
	<g>
		<path d="M184.52,0.016c-0.016,0-0.032,0-0.048,0C184.32,0.016,184.16,0,184,0C91.36,0,16,82.544,16,184s75.36,183.992,167.992,184
			H184h0.008C276.648,367.992,352,285.448,352,184C352,82.736,276.92,0.328,184.52,0.016z M32,184
			c0-81.008,52.144-148.8,121.288-164.544C123.504,44.28,80,95.648,80,184s43.504,139.72,73.28,164.544
			C84.144,332.8,32,265.008,32,184z M176,345.616C151.36,328.376,96,279.064,96,184c0-96.216,55.288-144.832,80-161.768V345.616z
			 M192,22.384c24.64,17.24,80,66.552,80,161.616c0,96.224-55.288,144.84-80,161.768V22.384z M214.72,348.544
			C244.496,323.72,288,272.352,288,184S244.496,44.28,214.72,19.456C283.856,35.2,336,102.992,336,184S283.856,332.8,214.72,348.544
			z"/>
	</g>
</g>
<g>
</g>
<g>
</g>
<g>
</g>
<g>
</g>
<g>
</g>
<g>
</g>
<g>
</g>
<g>
</g>
<g>
</g>
<g>
</g>
<g>
</g>
<g>
</g>
<g>
</g>
<g>
</g>
<g>
</g>
</svg>
