<?xml version="1.0" encoding="iso-8859-1"?>
<!-- Generator: Adobe Illustrator 19.0.0, SVG Export Plug-In . SVG Version: 6.00 Build 0)  -->
<svg version="1.1" id="Capa_1" xmlns="http://www.w3.org/2000/svg" xmlns:xlink="http://www.w3.org/1999/xlink" x="0px" y="0px"
	 viewBox="0 0 368.014 368.014" style="enable-background:new 0 0 368.014 368.014;" xml:space="preserve">
<g>
	<g>
		<path d="M366.834,291.704l-29.432-48.144c0-0.008,0-0.008-0.008-0.016L190.834,3.704c-2.904-4.76-10.752-4.76-13.656,0
			l-146.56,239.84c0,0.008,0,0.008-0.008,0.016L1.178,291.704c-1.44,2.352-1.568,5.28-0.336,7.752
			c1.408,2.792,35.92,68.424,183.168,68.424s181.76-65.632,183.16-68.424C368.402,296.984,368.282,294.056,366.834,291.704z
			 M184.01,23.224l136.048,222.64c-1.376,1.056-2.824,2.12-4.296,3.184c-0.28,0.2-0.528,0.4-0.808,0.6
			c-1.832,1.304-3.752,2.608-5.736,3.912c-0.632,0.416-1.32,0.832-1.976,1.248c-1.392,0.888-2.784,1.776-4.248,2.656
			c-0.832,0.504-1.72,0.992-2.568,1.488c-1.352,0.784-2.696,1.568-4.104,2.336c-0.96,0.528-1.976,1.04-2.968,1.56
			c-1.384,0.728-2.768,1.448-4.2,2.16c-1.064,0.528-2.168,1.04-3.256,1.552c-1.44,0.68-2.888,1.36-4.384,2.024
			c-1.16,0.512-2.352,1.016-3.544,1.52c-1.504,0.632-3.032,1.264-4.584,1.872c-1.248,0.488-2.52,0.968-3.8,1.44
			c-1.592,0.592-3.208,1.168-4.848,1.736c-1.328,0.456-2.672,0.896-4.032,1.336c-1.68,0.536-3.392,1.064-5.12,1.568
			c-1.408,0.416-2.824,0.824-4.264,1.216c-1.784,0.488-3.608,0.944-5.448,1.4c-1.464,0.36-2.936,0.72-4.44,1.064
			c-1.904,0.432-3.848,0.824-5.808,1.208c-1.528,0.304-3.048,0.616-4.608,0.896c-2.04,0.368-4.144,0.68-6.248,1
			c-1.56,0.24-3.096,0.488-4.688,0.704c-2.24,0.296-4.56,0.536-6.864,0.776c-1.536,0.16-3.04,0.352-4.608,0.488
			c-2.608,0.232-5.304,0.384-8,0.536c-1.344,0.08-2.648,0.192-4.016,0.256c-4.112,0.176-8.296,0.28-12.584,0.28
			c-4.288,0-8.472-0.104-12.568-0.28c-1.368-0.056-2.672-0.176-4.016-0.256c-2.688-0.16-5.384-0.312-8-0.536
			c-1.568-0.136-3.072-0.328-4.608-0.488c-2.312-0.24-4.624-0.48-6.864-0.776c-1.592-0.208-3.128-0.464-4.688-0.704
			c-2.104-0.32-4.2-0.64-6.248-1c-1.56-0.28-3.08-0.592-4.608-0.896c-1.96-0.392-3.904-0.784-5.808-1.208
			c-1.504-0.336-2.968-0.696-4.44-1.064c-1.84-0.456-3.664-0.912-5.448-1.4c-1.44-0.392-2.856-0.8-4.264-1.216
			c-1.728-0.512-3.44-1.032-5.12-1.568c-1.36-0.44-2.704-0.88-4.032-1.336c-1.64-0.568-3.256-1.144-4.848-1.736
			c-1.28-0.472-2.552-0.952-3.8-1.44c-1.56-0.616-3.08-1.24-4.584-1.872c-1.192-0.504-2.384-1-3.544-1.52
			c-1.496-0.664-2.944-1.344-4.384-2.024c-1.096-0.52-2.2-1.032-3.256-1.552c-1.44-0.712-2.816-1.44-4.2-2.16
			c-0.992-0.52-2-1.032-2.968-1.56c-1.408-0.768-2.752-1.552-4.104-2.336c-0.856-0.496-1.736-0.984-2.568-1.488
			c-1.464-0.88-2.856-1.768-4.248-2.656c-0.648-0.416-1.336-0.832-1.976-1.248c-1.984-1.304-3.904-2.608-5.736-3.912
			c-0.28-0.2-0.536-0.4-0.808-0.6c-1.48-1.064-2.92-2.128-4.296-3.184L184.01,23.224z M184.01,351.88
			c-116.832,0-157.224-43.376-166.56-56.112l22.12-36.176c0.72,0.536,1.496,1.08,2.24,1.624c0.848,0.616,1.68,1.232,2.552,1.856
			c1.144,0.808,2.344,1.608,3.536,2.416c0.896,0.608,1.768,1.208,2.696,1.816c1.344,0.88,2.76,1.744,4.176,2.616
			c0.84,0.52,1.648,1.04,2.512,1.56c2.288,1.368,4.656,2.728,7.104,4.064c0.488,0.264,1.016,0.52,1.504,0.784
			c2.008,1.072,4.048,2.144,6.168,3.192c1,0.496,2.064,0.968,3.088,1.456c1.68,0.792,3.344,1.592,5.088,2.36
			c1.176,0.52,2.408,1.024,3.624,1.528c1.68,0.704,3.352,1.408,5.088,2.088c1.304,0.512,2.64,1,3.976,1.488
			c1.728,0.64,3.472,1.28,5.256,1.888c1.4,0.48,2.832,0.936,4.264,1.4c1.816,0.584,3.648,1.152,5.52,1.704
			c1.48,0.44,2.984,0.856,4.504,1.272c1.912,0.52,3.856,1.024,5.832,1.512c1.56,0.384,3.136,0.76,4.728,1.12
			c2.024,0.456,4.088,0.88,6.176,1.296c1.632,0.328,3.256,0.648,4.92,0.944c2.168,0.384,4.392,0.728,6.616,1.072
			c1.664,0.256,3.312,0.52,5.016,0.744c2.376,0.32,4.824,0.576,7.272,0.832c1.632,0.176,3.248,0.368,4.912,0.512
			c2.776,0.248,5.624,0.416,8.488,0.576c1.424,0.08,2.816,0.2,4.264,0.264c4.344,0.192,8.776,0.304,13.32,0.304
			s8.976-0.112,13.328-0.296c1.448-0.064,2.84-0.184,4.264-0.264c2.856-0.168,5.712-0.336,8.488-0.576
			c1.664-0.144,3.272-0.344,4.912-0.512c2.448-0.256,4.888-0.52,7.272-0.832c1.696-0.224,3.352-0.488,5.016-0.744
			c2.232-0.336,4.448-0.688,6.616-1.072c1.664-0.296,3.288-0.624,4.92-0.944c2.08-0.416,4.144-0.84,6.176-1.296
			c1.6-0.36,3.168-0.736,4.728-1.12c1.968-0.488,3.912-0.984,5.832-1.512c1.52-0.416,3.024-0.832,4.504-1.272
			c1.872-0.552,3.704-1.12,5.52-1.704c1.432-0.464,2.864-0.92,4.264-1.4c1.784-0.616,3.528-1.248,5.256-1.888
			c1.336-0.496,2.672-0.984,3.976-1.488c1.736-0.68,3.408-1.384,5.088-2.088c1.208-0.512,2.44-1.008,3.624-1.528
			c1.744-0.768,3.416-1.568,5.088-2.36c1.024-0.488,2.088-0.96,3.088-1.456c2.12-1.048,4.152-2.112,6.168-3.192
			c0.496-0.264,1.016-0.52,1.504-0.784c2.456-1.336,4.816-2.696,7.104-4.064c0.864-0.52,1.672-1.04,2.512-1.56
			c1.408-0.872,2.824-1.744,4.176-2.616c0.928-0.6,1.8-1.208,2.696-1.816c1.192-0.808,2.392-1.608,3.536-2.416
			c0.88-0.616,1.712-1.232,2.552-1.856c0.744-0.544,1.52-1.08,2.24-1.624l22.152,36.232
			C341.434,308.624,301.73,351.88,184.01,351.88z"/>
	</g>
</g>
<g>
	<g>
		<path d="M184.01,111.88c-4.416,0-8,3.584-8,8v32c0,4.416,3.584,8,8,8s8-3.584,8-8v-32
			C192.01,115.464,188.426,111.88,184.01,111.88z"/>
	</g>
</g>
<g>
	<g>
		<path d="M136.01,191.88c-4.416,0-8,3.584-8,8v32c0,4.416,3.584,8,8,8s8-3.584,8-8v-32
			C144.01,195.464,140.426,191.88,136.01,191.88z"/>
	</g>
</g>
<g>
	<g>
		<path d="M232.01,191.88c-4.416,0-8,3.584-8,8v32c0,4.416,3.584,8,8,8c4.416,0,8-3.584,8-8v-32
			C240.01,195.464,236.426,191.88,232.01,191.88z"/>
	</g>
</g>
<g>
</g>
<g>
</g>
<g>
</g>
<g>
</g>
<g>
</g>
<g>
</g>
<g>
</g>
<g>
</g>
<g>
</g>
<g>
</g>
<g>
</g>
<g>
</g>
<g>
</g>
<g>
</g>
<g>
</g>
</svg>
