<?xml version="1.0" encoding="iso-8859-1"?>
<!-- Generator: Adobe Illustrator 19.0.0, SVG Export Plug-In . SVG Version: 6.00 Build 0)  -->
<svg version="1.1" id="Capa_1" xmlns="http://www.w3.org/2000/svg" xmlns:xlink="http://www.w3.org/1999/xlink" x="0px" y="0px"
	 viewBox="0 0 368 368" style="enable-background:new 0 0 368 368;" xml:space="preserve">
<g>
	<g>
		<path d="M184,0C100.096,0,32,130.704,32,216c0,83.816,68.184,152,152,152s152-68.184,152-152C336,130.704,267.904,0,184,0z
			 M184,352c-74.992,0-136-61.008-136-136c0-77.152,62.24-200,136-200s136,122.848,136,200C320,290.992,258.992,352,184,352z"/>
	</g>
</g>
<g>
	<g>
		<path d="M184,48C124.96,48,80,159.968,80,216c0,57.344,46.656,104,104,104s104-46.656,104-104C288,159.968,243.04,48,184,48z
			 M184,304c-48.52,0-88-39.48-88-88c0-50.048,40.736-152,88-152c47.264,0,88,101.952,88,152C272,264.52,232.52,304,184,304z"/>
	</g>
</g>
<g>
	<g>
		<path d="M223.16,244.424c-1.976-3.952-6.784-5.56-10.736-3.576L192,251.056v-30.112l27.576-13.792
			c3.952-1.976,5.552-6.784,3.576-10.736c-1.976-3.952-6.784-5.552-10.736-3.576L192,203.056v-30.112l27.576-13.792
			c3.952-1.976,5.552-6.784,3.576-10.736c-1.976-3.952-6.776-5.544-10.728-3.576L192,155.056V120c0-4.416-3.576-8-8-8s-8,3.584-8,8
			v35.056l-20.424-10.208c-3.952-1.968-8.76-0.376-10.736,3.576c-0.568,1.152-0.84,2.368-0.84,3.576c0,2.928,1.616,5.752,4.424,7.16
			L176,172.944v30.112l-20.424-10.208c-3.952-1.976-8.76-0.376-10.736,3.576c-0.568,1.152-0.84,2.368-0.84,3.576
			c0,2.928,1.616,5.752,4.424,7.16L176,220.944v30.112l-20.424-10.208c-3.952-1.984-8.76-0.368-10.736,3.576
			c-0.568,1.152-0.84,2.368-0.84,3.576c0,2.928,1.616,5.752,4.424,7.16l32,16c0.008,0,0.008,0,0.016,0
			c0.064,0.032,0.144,0.016,0.208,0.048c1.008,0.472,2.112,0.768,3.304,0.784c0.016,0,0.032,0.008,0.048,0.008c0,0,0,0,0.008,0
			s0.008,0,0.016,0c0.68,0,1.36-0.088,2.008-0.256c0.312-0.08,0.624-0.184,0.928-0.304c0.04-0.016,0.08-0.04,0.12-0.056
			c0.032-0.016,0.056-0.024,0.088-0.04c0.168-0.072,0.336-0.136,0.496-0.224l31.92-15.96
			C223.536,253.184,225.136,248.376,223.16,244.424z"/>
	</g>
</g>
<g>
</g>
<g>
</g>
<g>
</g>
<g>
</g>
<g>
</g>
<g>
</g>
<g>
</g>
<g>
</g>
<g>
</g>
<g>
</g>
<g>
</g>
<g>
</g>
<g>
</g>
<g>
</g>
<g>
</g>
</svg>
