<?xml version="1.0" encoding="iso-8859-1"?>
<!-- Generator: Adobe Illustrator 19.0.0, SVG Export Plug-In . SVG Version: 6.00 Build 0)  -->
<svg version="1.1" id="Capa_1" xmlns="http://www.w3.org/2000/svg" xmlns:xlink="http://www.w3.org/1999/xlink" x="0px" y="0px"
	 viewBox="0 0 368 368" style="enable-background:new 0 0 368 368;" xml:space="preserve">
<g>
	<g>
		<path d="M360,224h-8.312C348.496,152.736,303.28,96,248,96c-8.2,0-16.328,1.28-24.256,3.744
			C203.68,60.392,168.016,35.28,128,32.312V8c0-4.416-3.584-8-8-8s-8,3.584-8,8v24.456C49.56,37.16,0,96.072,0,168
			c0,74.992,53.832,136,120,136c8.288,0,16.544-1.008,24.648-2.928C166.224,342.504,205.248,368,248,368
			c66.168,0,120-61.008,120-136C368,227.584,364.416,224,360,224z M213.776,121.592c0.784-0.456,1.544-0.96,2.336-1.384
			c1.976-1.056,3.992-1.992,6.04-2.856c0.192-0.08,0.376-0.184,0.568-0.264C230.928,113.712,239.432,112,248,112
			c46.552,0,84.776,49.552,87.808,112h-175.56c0.016-0.312,0.008-0.624,0.032-0.936c0.08-1.36,0.208-2.696,0.32-4.048
			c0.144-1.784,0.288-3.576,0.488-5.344c0.16-1.376,0.368-2.736,0.56-4.104c0.24-1.712,0.488-3.416,0.784-5.104
			c0.24-1.376,0.528-2.728,0.808-4.088c0.336-1.632,0.672-3.264,1.056-4.872c0.328-1.368,0.688-2.712,1.048-4.056
			c0.416-1.568,0.848-3.128,1.312-4.664c0.4-1.328,0.832-2.64,1.264-3.944c0.504-1.504,1.024-3,1.568-4.48
			c0.48-1.288,0.976-2.56,1.48-3.816c0.584-1.44,1.184-2.864,1.808-4.272c0.544-1.232,1.112-2.456,1.688-3.664
			c0.656-1.376,1.344-2.728,2.04-4.064c0.616-1.176,1.24-2.344,1.88-3.48c0.736-1.304,1.496-2.568,2.264-3.832
			c0.68-1.104,1.36-2.216,2.064-3.288c0.808-1.224,1.648-2.416,2.488-3.592c0.736-1.032,1.464-2.064,2.224-3.056
			c0.88-1.152,1.792-2.248,2.712-3.352c0.784-0.944,1.56-1.896,2.376-2.808c0.952-1.072,1.944-2.08,2.936-3.096
			c0.832-0.848,1.648-1.72,2.496-2.536c1.032-0.984,2.112-1.904,3.176-2.824c0.856-0.744,1.704-1.52,2.576-2.224
			c1.144-0.912,2.32-1.744,3.496-2.592c0.856-0.616,1.696-1.272,2.568-1.856C211.072,123.136,212.424,122.368,213.776,121.592z
			 M128.816,247.288c0.168,1.656,0.456,3.288,0.672,4.936c0.448,3.408,0.96,6.8,1.632,10.152c0.384,1.888,0.84,3.744,1.288,5.608
			c0.744,3.096,1.568,6.152,2.504,9.184c0.576,1.856,1.168,3.688,1.816,5.52c0.416,1.168,0.72,2.376,1.16,3.536
			C131.992,287.4,126,288,120,288c-57.344,0-104-53.832-104-120c0-63.056,42.392-114.792,96-119.536V104c0,4.416,3.584,8,8,8
			s8-3.584,8-8V48.384c33.536,2.944,63.568,24.216,80.952,57.48c-0.048,0.024-0.096,0.064-0.152,0.088
			c-0.488,0.256-0.96,0.568-1.44,0.84c-1.968,1.08-3.912,2.208-5.816,3.432c-0.84,0.544-1.648,1.152-2.48,1.728
			c-1.504,1.04-2.992,2.08-4.448,3.208c-0.896,0.696-1.76,1.432-2.632,2.16c-1.336,1.104-2.656,2.232-3.944,3.408
			c-0.88,0.808-1.736,1.64-2.592,2.48c-1.232,1.2-2.44,2.432-3.624,3.704c-0.832,0.896-1.648,1.8-2.456,2.72
			c-1.152,1.32-2.272,2.672-3.384,4.056c-0.76,0.952-1.52,1.896-2.256,2.88c-1.104,1.464-2.16,2.984-3.208,4.512
			c-0.672,0.976-1.352,1.936-2,2.936c-1.096,1.696-2.128,3.44-3.16,5.208c-0.528,0.904-1.08,1.776-1.592,2.696
			c-1.344,2.424-2.624,4.92-3.84,7.456c-0.144,0.296-0.304,0.576-0.44,0.872c-1.352,2.856-2.608,5.792-3.792,8.776
			c-0.36,0.912-0.672,1.848-1.016,2.768c-0.792,2.096-1.568,4.208-2.28,6.368c-0.384,1.184-0.728,2.392-1.088,3.592
			c-0.592,1.952-1.168,3.912-1.688,5.912c-0.344,1.312-0.648,2.64-0.96,3.96c-0.456,1.936-0.888,3.88-1.28,5.856
			c-0.272,1.384-0.528,2.784-0.768,4.184c-0.336,1.968-0.648,3.952-0.92,5.952c-0.192,1.424-0.384,2.848-0.544,4.288
			c-0.232,2.032-0.408,4.088-0.568,6.144c-0.112,1.432-0.232,2.856-0.304,4.296c-0.032,0.56-0.096,1.104-0.12,1.664H136
			c-4.416,0-8,3.584-8,8C128,237.12,128.312,242.216,128.816,247.288z M248,352c-38.488,0-73.688-24.4-91.856-63.672
			c-6.864-14.856-10.928-31.424-11.912-48.328H152h192h7.768C348.192,302.448,303.016,352,248,352z"/>
	</g>
</g>
<g>
	<g>
		<path d="M155.656,96.952c-3.864-2-8.68-0.488-10.76,3.36C144.64,100.792,138.384,112,120,112c-18.224,0-24.528-11-24.888-11.664
			c-1.992-3.88-6.752-5.456-10.688-3.488c-3.952,1.976-5.552,6.784-3.576,10.736C81.264,108.408,91.384,128,120,128
			c28.616,0,38.736-19.592,39.16-20.424C161.112,103.664,159.536,98.968,155.656,96.952z"/>
	</g>
</g>
<g>
</g>
<g>
</g>
<g>
</g>
<g>
</g>
<g>
</g>
<g>
</g>
<g>
</g>
<g>
</g>
<g>
</g>
<g>
</g>
<g>
</g>
<g>
</g>
<g>
</g>
<g>
</g>
<g>
</g>
</svg>
