<?xml version="1.0" encoding="iso-8859-1"?>
<!-- Generator: Adobe Illustrator 19.0.0, SVG Export Plug-In . SVG Version: 6.00 Build 0)  -->
<svg version="1.1" id="Capa_1" xmlns="http://www.w3.org/2000/svg" xmlns:xlink="http://www.w3.org/1999/xlink" x="0px" y="0px"
	 viewBox="0 0 368 368" style="enable-background:new 0 0 368 368;" xml:space="preserve">
<g>
	<g>
		<path d="M272,92.12V56c0-22.056-17.944-40-40-40h-16.032C208.496,6.024,196.632,0,184,0c-12.64,0-24.504,6.032-31.968,16H136
			c-22.056,0-40,17.944-40,40v36.12C55.84,120.608,32,166.592,32,216c0,83.816,68.184,152,152,152s152-68.184,152-152
			C336,166.592,312.16,120.608,272,92.12z M184,352c-74.992,0-136-61.008-136-136c0-45.496,22.592-87.744,60.448-113.024
			c2.216-1.488,3.552-3.984,3.552-6.656V56c0-13.232,10.768-24,24-24h8.824C144.28,34.632,144,37.312,144,40v40c0,4.416,3.576,8,8,8
			s8-3.584,8-8V40c0-0.16,0-0.312,0.008-0.472c0-0.048,0-0.104,0-0.152c0.104-4,1.192-7.832,3.248-11.392
			C167.504,20.592,175.464,16,184,16s16.496,4.592,20.752,11.992C206.904,31.736,208,35.776,208,40v40c0,4.416,3.576,8,8,8
			s8-3.584,8-8V40c0-0.12,0-0.248,0-0.368c0-0.152-0.008-0.304-0.008-0.448c-0.056-2.416-0.328-4.824-0.816-7.184H232
			c13.232,0,24,10.768,24,24v40.32c0,2.672,1.336,5.168,3.552,6.656C297.408,128.256,320,170.504,320,216
			C320,290.992,258.992,352,184,352z"/>
	</g>
</g>
<g>
	<g>
		<path d="M280,208c-4.424,0-8,3.584-8,8c0,48.52-39.48,88-88,88c-4.424,0-8,3.584-8,8c0,4.416,3.576,8,8,8
			c57.344,0,104-46.656,104-104C288,211.584,284.424,208,280,208z"/>
	</g>
</g>
<g>
</g>
<g>
</g>
<g>
</g>
<g>
</g>
<g>
</g>
<g>
</g>
<g>
</g>
<g>
</g>
<g>
</g>
<g>
</g>
<g>
</g>
<g>
</g>
<g>
</g>
<g>
</g>
<g>
</g>
</svg>
