<?xml version="1.0" encoding="iso-8859-1"?>
<!-- Generator: Adobe Illustrator 19.0.0, SVG Export Plug-In . SVG Version: 6.00 Build 0)  -->
<svg version="1.1" id="Capa_1" xmlns="http://www.w3.org/2000/svg" xmlns:xlink="http://www.w3.org/1999/xlink" x="0px" y="0px"
	 viewBox="0 0 368 368" style="enable-background:new 0 0 368 368;" xml:space="preserve">
<g>
	<g>
		<path d="M366.072,114.792l-96-112C268.552,1.016,266.336,0,264,0H104c-2.336,0-4.552,1.016-6.072,2.792l-96,112
			C0.68,116.24,0,118.088,0,120v128c0,1.912,0.68,3.76,1.928,5.208l96,112c1.52,1.776,3.736,2.792,6.072,2.792h160
			c2.336,0,4.552-1.016,6.072-2.792l96-112C367.32,251.76,368,249.912,368,248V120C368,118.088,367.32,116.24,366.072,114.792z
			 M352,245.04L260.32,352H107.68L16,245.04V122.96L107.68,16h152.64L352,122.96V245.04z"/>
	</g>
</g>
<g>
	<g>
		<path d="M240.2,228.888c9.864-12.32,15.8-27.912,15.8-44.888s-5.936-32.568-15.8-44.888l29.456-29.456
			c3.128-3.128,3.128-8.184,0-11.312s-8.184-3.128-11.312,0L228.888,127.8C216.56,117.936,200.968,112,184,112
			c-16.976,0-32.568,5.936-44.888,15.8l-29.456-29.456c-3.128-3.128-8.184-3.128-11.312,0s-3.128,8.184,0,11.312l29.456,29.456
			C117.936,151.432,112,167.024,112,184c0,16.968,5.936,32.56,15.8,44.888l-29.456,29.456c-3.128,3.128-3.128,8.184,0,11.312
			c1.56,1.56,3.608,2.344,5.656,2.344c2.048,0,4.096-0.784,5.656-2.344l29.456-29.456c12.32,9.864,27.912,15.8,44.888,15.8
			s32.568-5.936,44.888-15.8l29.456,29.456c1.56,1.56,3.608,2.344,5.656,2.344c2.048,0,4.096-0.784,5.656-2.344
			c3.128-3.128,3.128-8.184,0-11.312L240.2,228.888z M184,240c-30.88,0-56-25.12-56-56s25.12-56,56-56s56,25.12,56,56
			S214.88,240,184,240z"/>
	</g>
</g>
<g>
</g>
<g>
</g>
<g>
</g>
<g>
</g>
<g>
</g>
<g>
</g>
<g>
</g>
<g>
</g>
<g>
</g>
<g>
</g>
<g>
</g>
<g>
</g>
<g>
</g>
<g>
</g>
<g>
</g>
</svg>
