<?xml version="1.0" encoding="iso-8859-1"?>
<!-- Generator: Adobe Illustrator 19.0.0, SVG Export Plug-In . SVG Version: 6.00 Build 0)  -->
<svg version="1.1" id="Capa_1" xmlns="http://www.w3.org/2000/svg" xmlns:xlink="http://www.w3.org/1999/xlink" x="0px" y="0px"
	 viewBox="0 0 368 368" style="enable-background:new 0 0 368 368;" xml:space="preserve">
<g>
	<g>
		<path d="M288,56V8c0-4.416-3.576-8-8-8h-48c-20.384,0-38.2,10.984-48,27.304C174.2,10.984,156.384,0,136,0c-4.424,0-8,3.584-8,8
			s3.576,8,8,8c22.056,0,40,17.944,40,40v8.408C131.216,68.464,96,106.176,96,152c0,14.84,3.72,29.312,10.808,42.224
			C89.48,213.392,80,237.936,80,264c0,57.344,46.656,104,104,104s104-46.656,104-104c0-26.064-9.48-50.608-26.808-69.776
			C268.28,181.312,272,166.84,272,152c0-16.576-4.792-32.808-13.52-46.736c2.504-1.352,4.936-2.824,7.208-4.552
			C279.664,90.208,288,73.496,288,56z M272,264c0,48.52-39.48,88-88,88c-48.52,0-88-39.48-88-88
			c0-23.856,9.376-46.208,26.408-62.936c2.712-2.656,3.168-6.864,1.104-10.056C115.984,179.376,112,165.888,112,152
			c0-37,28.048-67.568,64-71.56V104c0,4.416,3.576,8,8,8h48c2.608,0,5.144-0.232,7.64-0.568c0.616-0.08,1.224-0.168,1.824-0.272
			c0.552-0.096,1.12-0.136,1.664-0.248C251.464,122.904,256,137.304,256,152c0,13.888-3.984,27.376-11.512,39.008
			c-2.064,3.192-1.6,7.392,1.112,10.056C262.624,217.792,272,240.144,272,264z M256.048,87.952c-3.664,2.776-7.736,4.88-12.176,6.28
			C240.256,95.384,236.16,96,232,96h-40V72V56c0-22.056,17.944-40,40-40h40v40C272,68.68,266.192,80.32,256.048,87.952z"/>
	</g>
</g>
<g>
	<g>
		<path d="M232,256c-4.424,0-8,3.584-8,8c0,22.056-17.944,40-40,40c-4.424,0-8,3.584-8,8c0,4.416,3.576,8,8,8
			c30.872,0,56-25.12,56-56C240,259.584,236.424,256,232,256z"/>
	</g>
</g>
<g>
</g>
<g>
</g>
<g>
</g>
<g>
</g>
<g>
</g>
<g>
</g>
<g>
</g>
<g>
</g>
<g>
</g>
<g>
</g>
<g>
</g>
<g>
</g>
<g>
</g>
<g>
</g>
<g>
</g>
</svg>
