<?xml version="1.0" encoding="iso-8859-1"?>
<!-- Generator: Adobe Illustrator 19.0.0, SVG Export Plug-In . SVG Version: 6.00 Build 0)  -->
<svg version="1.1" id="Capa_1" xmlns="http://www.w3.org/2000/svg" xmlns:xlink="http://www.w3.org/1999/xlink" x="0px" y="0px"
	 viewBox="0 0 368 368" style="enable-background:new 0 0 368 368;" xml:space="preserve">
<g>
	<g>
		<path d="M248.8,101.296C262.824,91.104,272,74.624,272,56V8c0-4.416-3.576-8-8-8h-48c-30.872,0-56,25.12-56,56v40.328
			c-2.656-0.2-5.32-0.328-8-0.328C85.832,96,32,157.008,32,232s53.832,136,120,136c10.944,0,21.688-1.736,32-5.016
			c10.312,3.28,21.056,5.016,32,5.016c66.168,0,120-61.008,120-136C336,169.904,299.056,117.52,248.8,101.296z M176,56
			c0-22.056,17.944-40,40-40h40v40c0,22.056-17.944,40-40,40h-40V56z M152,352c-57.344,0-104-53.832-104-120s46.656-120,104-120
			c2.392,0,4.768,0.096,7.136,0.28c-0.84,0.512-1.64,1.104-2.464,1.64c-1.016,0.664-2.032,1.32-3.032,2.016
			c-1.64,1.144-3.24,2.344-4.832,3.568c-0.864,0.672-1.752,1.312-2.6,2.008c-2.048,1.672-4.032,3.424-5.976,5.232
			c-0.336,0.312-0.688,0.592-1.016,0.904c-2.24,2.128-4.392,4.368-6.488,6.664c-0.68,0.752-1.32,1.544-1.992,2.312
			c-1.4,1.616-2.784,3.248-4.112,4.936c-0.744,0.952-1.464,1.928-2.184,2.904c-1.184,1.6-2.344,3.224-3.472,4.88
			c-0.696,1.032-1.384,2.072-2.056,3.128c-1.104,1.728-2.152,3.488-3.184,5.272c-0.592,1.024-1.192,2.032-1.76,3.072
			c-1.136,2.08-2.192,4.208-3.232,6.352c-0.376,0.784-0.784,1.544-1.152,2.336c-1.36,2.952-2.624,5.952-3.792,9.016
			c-0.272,0.704-0.488,1.432-0.752,2.144c-0.864,2.384-1.696,4.792-2.448,7.24c-0.344,1.128-0.64,2.264-0.96,3.4
			c-0.584,2.088-1.144,4.184-1.64,6.312c-0.288,1.248-0.56,2.496-0.816,3.76c-0.432,2.096-0.816,4.2-1.16,6.328
			c-0.208,1.256-0.408,2.504-0.584,3.768c-0.312,2.296-0.552,4.6-0.76,6.92c-0.096,1.096-0.232,2.184-0.304,3.288
			C96.144,225.088,96,228.528,96,232s0.144,6.912,0.376,10.328c0.072,1.104,0.208,2.184,0.304,3.28
			c0.208,2.328,0.448,4.64,0.76,6.936c0.168,1.256,0.376,2.496,0.584,3.744c0.344,2.128,0.736,4.248,1.168,6.344
			c0.256,1.256,0.528,2.504,0.816,3.744c0.496,2.136,1.056,4.24,1.648,6.336c0.312,1.128,0.608,2.256,0.952,3.368
			c0.752,2.464,1.592,4.888,2.464,7.296c0.248,0.696,0.464,1.4,0.728,2.088c1.168,3.064,2.432,6.072,3.792,9.024
			c0.36,0.792,0.768,1.544,1.152,2.328c1.032,2.144,2.096,4.28,3.232,6.36c0.568,1.04,1.176,2.056,1.768,3.08
			c1.024,1.776,2.072,3.528,3.168,5.248c0.68,1.064,1.376,2.12,2.08,3.16c1.104,1.64,2.248,3.232,3.424,4.816
			c0.744,1,1.48,2,2.24,2.976c1.296,1.648,2.64,3.24,4,4.816c0.704,0.808,1.376,1.648,2.096,2.44c2.08,2.28,4.216,4.496,6.432,6.616
			c0.424,0.4,0.88,0.768,1.312,1.168c1.848,1.712,3.736,3.384,5.68,4.968c0.888,0.728,1.816,1.408,2.728,2.104
			c1.544,1.192,3.096,2.36,4.688,3.472c1.032,0.712,2.072,1.392,3.128,2.08c0.808,0.528,1.592,1.096,2.416,1.608
			C156.768,351.904,154.392,352,152,352z M216,352c-10.08,0-19.96-1.656-29.432-4.936C142.664,332.176,112,284.856,112,232
			c0-52.856,30.664-100.176,74.568-115.064c0.016-0.008,0.032-0.008,0.048-0.016C196.04,113.656,205.92,112,216,112
			c57.344,0,104,53.832,104,120S273.344,352,216,352z"/>
	</g>
</g>
<g>
</g>
<g>
</g>
<g>
</g>
<g>
</g>
<g>
</g>
<g>
</g>
<g>
</g>
<g>
</g>
<g>
</g>
<g>
</g>
<g>
</g>
<g>
</g>
<g>
</g>
<g>
</g>
<g>
</g>
</svg>
