<?xml version="1.0" encoding="iso-8859-1"?>
<!-- Generator: Adobe Illustrator 19.0.0, SVG Export Plug-In . SVG Version: 6.00 Build 0)  -->
<svg version="1.1" id="Capa_1" xmlns="http://www.w3.org/2000/svg" xmlns:xlink="http://www.w3.org/1999/xlink" x="0px" y="0px"
	 viewBox="0 0 368 368" style="enable-background:new 0 0 368 368;" xml:space="preserve">
<g>
	<g>
		<path d="M281.248,142.84C285.896,131.408,288,119.2,288,104C288,46.656,241.344,0,184,0S80,46.656,80,104
			c0,15.2,2.104,27.408,6.752,38.84C72.048,162.648,64,188.416,64,216c0,68.424,55.376,152,120,152s120-83.576,120-152
			C304,188.416,295.952,162.648,281.248,142.84z M208,136v96c0,13.232-10.768,24-24,24s-24-10.768-24-24v-96
			c0-13.232,10.768-24,24-24S208,122.768,208,136z M184,352c-55.032,0-104-76.048-104-136c0-25.752,7.872-49.512,22.176-66.92
			c1.976-2.4,2.376-5.712,1.048-8.512C98.224,130.032,96,118.76,96,104c0-45.824,35.216-83.536,80-87.592v80.4
			c-18.232,3.72-32,19.872-32,39.192v96c0,22.056,17.944,40,40,40c22.056,0,40-17.944,40-40v-96c0-19.312-13.768-35.472-32-39.192
			v-80.4c44.784,4.056,80,41.768,80,87.592c0,14.76-2.224,26.032-7.224,36.568c-1.328,2.8-0.92,6.112,1.048,8.504
			C280.128,166.488,288,190.248,288,216C288,275.952,239.032,352,184,352z"/>
	</g>
</g>
<g>
</g>
<g>
</g>
<g>
</g>
<g>
</g>
<g>
</g>
<g>
</g>
<g>
</g>
<g>
</g>
<g>
</g>
<g>
</g>
<g>
</g>
<g>
</g>
<g>
</g>
<g>
</g>
<g>
</g>
</svg>
