<?xml version="1.0" encoding="iso-8859-1"?>
<!-- Generator: Adobe Illustrator 19.0.0, SVG Export Plug-In . SVG Version: 6.00 Build 0)  -->
<svg version="1.1" id="Capa_1" xmlns="http://www.w3.org/2000/svg" xmlns:xlink="http://www.w3.org/1999/xlink" x="0px" y="0px"
	 viewBox="0 0 368 368" style="enable-background:new 0 0 368 368;" xml:space="preserve">
<g>
	<g>
		<path d="M273.616,93.312C282.72,83.136,288,69.84,288,56V8c0-4.416-3.576-8-8-8h-48c-20.384,0-38.2,10.984-48,27.304
			C174.2,10.984,156.384,0,136,0c-4.424,0-8,3.584-8,8s3.576,8,8,8c22.056,0,40,17.944,40,40v8.408C95.912,68.608,32,134.888,32,216
			c0,83.816,68.184,152,152,152s152-68.184,152-152C336,166.992,312.864,121.864,273.616,93.312z M192,72V56
			c0-22.056,17.944-40,40-40h40v40c0,12.68-5.808,24.32-15.952,31.952C249.112,93.216,240.8,96,232,96h-40V72z M184,352
			c-74.992,0-136-61.008-136-136c0-72.304,56.72-131.608,128-135.768V104c0,4.416,3.576,8,8,8h48c2.864,0,5.68-0.256,8.456-0.672
			c0.896-0.136,1.76-0.368,2.648-0.544c1.864-0.376,3.712-0.8,5.512-1.36c1.008-0.312,1.984-0.68,2.968-1.056
			c1.64-0.616,3.248-1.296,4.832-2.072c0.976-0.472,1.936-0.96,2.88-1.496c0.544-0.304,1.12-0.536,1.656-0.864
			C298.024,129.32,320,170.832,320,216C320,290.992,258.992,352,184,352z"/>
	</g>
</g>
<g>
	<g>
		<path d="M219.656,144.96c-3.864-2-8.68-0.488-10.76,3.36C208.64,148.792,202.392,160,184,160c-18.224,0-24.528-11-24.888-11.664
			c-1.992-3.88-6.76-5.44-10.688-3.488c-3.952,1.976-5.552,6.784-3.576,10.736C145.256,156.408,155.384,176,184,176
			c28.616,0,38.744-19.592,39.16-20.424C225.112,151.664,223.536,146.976,219.656,144.96z"/>
	</g>
</g>
<g>
</g>
<g>
</g>
<g>
</g>
<g>
</g>
<g>
</g>
<g>
</g>
<g>
</g>
<g>
</g>
<g>
</g>
<g>
</g>
<g>
</g>
<g>
</g>
<g>
</g>
<g>
</g>
<g>
</g>
</svg>
