<?xml version="1.0" encoding="iso-8859-1"?>
<!-- Generator: Adobe Illustrator 19.0.0, SVG Export Plug-In . SVG Version: 6.00 Build 0)  -->
<svg version="1.1" id="Capa_1" xmlns="http://www.w3.org/2000/svg" xmlns:xlink="http://www.w3.org/1999/xlink" x="0px" y="0px"
	 viewBox="0 0 368 368" style="enable-background:new 0 0 368 368;" xml:space="preserve">
<g>
	<g>
		<path d="M192,64.408V16h40c4.424,0,8-3.584,8-8s-3.576-8-8-8h-96c-4.424,0-8,3.584-8,8s3.576,8,8,8h40v48.408
			C95.912,68.608,32,134.888,32,216c0,83.816,68.184,152,152,152s152-68.184,152-152C336,134.888,272.088,68.608,192,64.408z
			 M184,352c-74.992,0-136-61.008-136-136c0-72.288,56.736-131.416,128-135.592V104c0,4.416,3.576,8,8,8s8-3.584,8-8V80.408
			C263.264,84.584,320,143.712,320,216C320,290.992,258.992,352,184,352z"/>
	</g>
</g>
<g>
	<g>
		<path d="M219.656,128.96c-3.88-2.008-8.68-0.488-10.76,3.36C208.64,132.792,202.392,144,184,144
			c-18.224,0-24.528-11-24.888-11.664c-1.992-3.872-6.752-5.44-10.688-3.488c-3.952,1.976-5.552,6.784-3.576,10.736
			C145.256,140.408,155.384,160,184,160c28.616,0,38.744-19.592,39.16-20.424C225.112,135.664,223.536,130.976,219.656,128.96z"/>
	</g>
</g>
<g>
	<g>
		<path d="M184,304c-48.52,0-88-39.48-88-88c0-4.416-3.576-8-8-8s-8,3.584-8,8c0,57.344,46.656,104,104,104c4.424,0,8-3.584,8-8
			C192,307.584,188.424,304,184,304z"/>
	</g>
</g>
<g>
</g>
<g>
</g>
<g>
</g>
<g>
</g>
<g>
</g>
<g>
</g>
<g>
</g>
<g>
</g>
<g>
</g>
<g>
</g>
<g>
</g>
<g>
</g>
<g>
</g>
<g>
</g>
<g>
</g>
</svg>
