<?xml version="1.0" encoding="iso-8859-1"?>
<!-- Generator: Adobe Illustrator 19.0.0, SVG Export Plug-In . SVG Version: 6.00 Build 0)  -->
<svg version="1.1" id="Capa_1" xmlns="http://www.w3.org/2000/svg" xmlns:xlink="http://www.w3.org/1999/xlink" x="0px" y="0px"
	 viewBox="0 0 368 368" style="enable-background:new 0 0 368 368;" xml:space="preserve">
<g>
	<g>
		<path d="M301.624,120.056c1.56-5.2,2.376-10.576,2.376-16.056c0-30.88-25.12-56-56-56c-16.736,0-32.232,7.376-42.84,20.152
			c-4.216-1.688-8.648-2.808-13.16-3.432V8c0-4.416-3.584-8-8-8c-4.416,0-8,3.584-8,8v56.728c-4.504,0.624-8.936,1.744-13.16,3.432
			C152.184,55.36,136.704,48,120,48c-30.88,0-56,25.12-56,56c0,5.48,0.816,10.856,2.376,16.056C44.248,147.144,32,180.976,32,216
			c0,83.816,68.184,152,152,152s152-68.184,152-152C336,180.976,323.752,147.144,301.624,120.056z M248,64c22.056,0,40,17.944,40,40
			c0,5.048-0.944,9.976-2.792,14.648c-0.008,0.008-0.008,0.024-0.016,0.032C279.256,133.824,264.312,144,248,144
			c-4.264,0-8.488-0.672-12.496-1.984c0.816-1.888,1.496-3.824,2.088-5.8c0.144-0.48,0.248-0.976,0.376-1.456
			c0.504-1.84,0.904-3.712,1.216-5.608c0.104-0.656,0.216-1.312,0.304-1.976c0.304-2.368,0.512-4.752,0.512-7.176
			c0-2.336-0.176-4.648-0.472-6.944c-0.096-0.736-0.256-1.456-0.376-2.192c-0.256-1.544-0.552-3.08-0.936-4.592
			c-0.208-0.824-0.464-1.64-0.712-2.456c-0.424-1.4-0.896-2.776-1.432-4.136c-0.312-0.8-0.632-1.584-0.984-2.368
			c-0.616-1.376-1.296-2.72-2.016-4.04c-0.376-0.68-0.72-1.368-1.12-2.04c-0.928-1.544-1.952-3.032-3.024-4.488
			c-0.28-0.376-0.52-0.784-0.816-1.16c-1.424-1.832-2.96-3.568-4.6-5.224c-0.28-0.288-0.6-0.536-0.896-0.808
			c-1.128-1.088-2.264-2.176-3.488-3.168C226.64,68.472,236.96,64,248,64z M164.352,85.12C170.304,81.768,177.096,80,184,80
			c6.912,0,13.72,1.776,19.632,5.104C216.192,92.288,224,105.656,224,120c0,7.76-2.176,15.176-6.288,21.448
			c-0.016,0.032-0.04,0.056-0.056,0.088C210.28,153.096,197.696,160,184,160c-13.696,0-26.28-6.904-33.712-18.552
			C146.176,135.176,144,127.76,144,120c0-1.792,0.12-3.568,0.36-5.32C146.024,102.416,153.368,91.4,164.352,85.12z M120,64
			c11.016,0,21.32,4.456,28.864,12.392c-1.152,0.936-2.208,1.96-3.28,2.984c-0.376,0.352-0.784,0.672-1.144,1.04
			c-1.616,1.624-3.128,3.344-4.528,5.144c-0.352,0.456-0.656,0.952-0.992,1.416c-1.008,1.376-1.968,2.776-2.848,4.232
			c-0.424,0.704-0.792,1.432-1.184,2.152c-0.704,1.288-1.368,2.592-1.96,3.936c-0.36,0.8-0.688,1.608-1.008,2.432
			c-0.528,1.344-0.992,2.704-1.416,4.088c-0.248,0.824-0.504,1.64-0.72,2.48c-0.384,1.504-0.672,3.032-0.936,4.576
			c-0.12,0.736-0.288,1.456-0.376,2.2c-0.296,2.28-0.472,4.592-0.472,6.928c0,2.424,0.208,4.816,0.512,7.184
			c0.088,0.672,0.192,1.328,0.304,1.992c0.312,1.872,0.712,3.72,1.2,5.544c0.136,0.512,0.248,1.032,0.4,1.544
			c0.592,1.96,1.272,3.888,2.08,5.76C128.488,143.328,124.264,144,120,144c-16.312,0-31.256-10.176-37.192-25.32
			c0-0.008-0.008-0.024-0.016-0.032C80.944,113.976,80,109.048,80,104C80,81.944,97.944,64,120,64z M184,352
			c-74.992,0-136-61.008-136-136c0-28.88,9.248-56.904,26.2-80.088C84.528,150.632,101.584,160,120,160
			c7.248,0,14.416-1.4,21.072-4.088C151.632,168.608,167.216,176,184,176s32.368-7.392,42.928-20.088
			C233.584,158.6,240.752,160,248,160c18.416,0,35.472-9.368,45.8-24.088C310.752,159.096,320,187.12,320,216
			C320,290.992,258.992,352,184,352z"/>
	</g>
</g>
<g>
	<g>
		<path d="M184,304c-48.52,0-88-39.48-88-88c0-4.416-3.584-8-8-8s-8,3.584-8,8c0,57.344,46.656,104,104,104c4.416,0,8-3.584,8-8
			C192,307.584,188.416,304,184,304z"/>
	</g>
</g>
<g>
</g>
<g>
</g>
<g>
</g>
<g>
</g>
<g>
</g>
<g>
</g>
<g>
</g>
<g>
</g>
<g>
</g>
<g>
</g>
<g>
</g>
<g>
</g>
<g>
</g>
<g>
</g>
<g>
</g>
</svg>
