<?xml version="1.0" encoding="iso-8859-1"?>
<!-- Generator: Adobe Illustrator 19.0.0, SVG Export Plug-In . SVG Version: 6.00 Build 0)  -->
<svg version="1.1" id="Capa_1" xmlns="http://www.w3.org/2000/svg" xmlns:xlink="http://www.w3.org/1999/xlink" x="0px" y="0px"
	 viewBox="0 0 368 368" style="enable-background:new 0 0 368 368;" xml:space="preserve">
<g>
	<g>
		<path d="M234.456,75.272C247.192,68.576,256,55.368,256,40V8c0-4.416-3.576-8-8-8h-32c-13.128,0-24.704,6.448-32,16.248
			C176.704,6.448,165.128,0,152,0h-16c-4.424,0-8,3.584-8,8s3.576,8,8,8h16c13.232,0,24,10.768,24,24v24.408
			C113.56,68.56,64,120.536,64,184c0,62.984,50.672,184,120,184s120-121.008,120-184C304,135.864,275.456,94.376,234.456,75.272z
			 M192,40c0-13.232,10.768-24,24-24h24v24c0,13.232-10.768,24-24,24h-24V40z M184,352c-56.912,0-104-111.224-104-168
			c0-54.648,42.392-99.48,96-103.592V104c0,4.416,3.576,8,8,8s8-3.584,8-8V80.408C245.608,84.52,288,129.36,288,184
			C288,240.768,240.912,352,184,352z"/>
	</g>
</g>
<g>
	<g>
		<path d="M219.656,128.952c-3.88-2.008-8.68-0.488-10.76,3.36C208.64,132.792,202.392,144,184,144
			c-18.224,0-24.528-11-24.888-11.664c-1.992-3.88-6.752-5.448-10.688-3.488c-3.952,1.976-5.552,6.784-3.576,10.736
			C145.256,140.408,155.384,160,184,160c28.616,0,38.744-19.592,39.16-20.424C225.112,135.664,223.544,130.968,219.656,128.952z"/>
	</g>
</g>
<g>
</g>
<g>
</g>
<g>
</g>
<g>
</g>
<g>
</g>
<g>
</g>
<g>
</g>
<g>
</g>
<g>
</g>
<g>
</g>
<g>
</g>
<g>
</g>
<g>
</g>
<g>
</g>
<g>
</g>
</svg>
