<?xml version="1.0" encoding="iso-8859-1"?>
<!-- Generator: Adobe Illustrator 19.0.0, SVG Export Plug-In . SVG Version: 6.00 Build 0)  -->
<svg version="1.1" id="Capa_1" xmlns="http://www.w3.org/2000/svg" xmlns:xlink="http://www.w3.org/1999/xlink" x="0px" y="0px"
	 viewBox="0 0 368 368" style="enable-background:new 0 0 368 368;" xml:space="preserve">
<g>
	<g>
		<path d="M155.656,128.952c-3.856-2.008-8.68-0.488-10.76,3.36C144.64,132.792,138.384,144,120,144
			c-18.224,0-24.528-11-24.888-11.664c-2-3.872-6.752-5.456-10.688-3.488c-3.952,1.976-5.552,6.784-3.576,10.736
			C81.264,140.408,91.384,160,120,160c28.616,0,38.736-19.592,39.16-20.424C161.112,135.664,159.536,130.968,155.656,128.952z"/>
	</g>
</g>
<g>
	<g>
		<path d="M360,240h-24.408c-4.056-44.784-41.768-80-87.592-80c-3.512,0-6.96,0.264-10.36,0.664
			c-7.552-38.272-33.144-69.576-67.144-85.408C183.208,68.552,192,55.352,192,40V8c0-4.416-3.584-8-8-8h-32
			c-13.128,0-24.704,6.448-32,16.248C112.704,6.448,101.128,0,88,0H72c-4.416,0-8,3.584-8,8s3.584,8,8,8h16
			c13.232,0,24,10.768,24,24v24.408C49.56,68.552,0,120.536,0,184c0,66.168,53.832,120,120,120c7.04,0,14.04-0.816,20.96-2.056
			C160.752,341.064,201.248,368,248,368c66.168,0,120-53.832,120-120C368,243.584,364.416,240,360,240z M226.832,179.24
			c1.752-0.544,3.544-0.992,5.352-1.4C237.28,176.672,242.56,176,248,176c37,0,67.568,28.048,71.56,64H176.504
			c0.096-0.84,0.208-1.672,0.336-2.504c0.128-0.896,0.264-1.792,0.424-2.672c0.264-1.4,0.576-2.792,0.928-4.168
			c0.136-0.552,0.272-1.104,0.424-1.656c0.448-1.616,0.944-3.216,1.504-4.784c0.088-0.248,0.176-0.504,0.272-0.752
			c7.592-20.672,24.472-37.288,45.984-44.072C226.528,179.344,226.68,179.288,226.832,179.24z M128,40c0-13.232,10.768-24,24-24h24
			v24c0,13.232-10.768,24-24,24h-24V40z M136,240c-4.416,0-8,3.584-8,8c0,3.832,0.224,7.616,0.576,11.376
			c0.096,1.048,0.264,2.072,0.384,3.112c0.328,2.712,0.728,5.416,1.24,8.08c0.224,1.184,0.48,2.352,0.744,3.528
			c0.536,2.408,1.152,4.792,1.848,7.16c0.384,1.336,0.768,2.664,1.2,3.976c0.184,0.576,0.32,1.168,0.52,1.744
			c-4.8,0.68-9.656,1.024-14.512,1.024c-57.344,0-104-46.656-104-104c0-54.648,42.392-99.488,96-103.592V104c0,4.416,3.584,8,8,8
			s8-3.584,8-8V80.352c46.432,3.568,85.144,37.856,94.072,83.552c-1.28,0.392-2.504,0.904-3.752,1.352
			c-1.008,0.36-2.016,0.704-3.008,1.104c-1.384,0.552-2.728,1.168-4.08,1.792c-0.88,0.408-1.76,0.832-2.624,1.264
			c-1.4,0.704-2.792,1.424-4.144,2.208c-0.552,0.32-1.088,0.664-1.632,0.992c-5.016,3.016-9.696,6.512-14,10.432
			c-0.16,0.144-0.32,0.288-0.48,0.44c-7.784,7.2-14.248,15.76-19.032,25.336c-0.008,0.024-0.024,0.04-0.032,0.064
			c-2.56,5.136-4.624,10.544-6.152,16.184c-0.296,1.072-0.576,2.144-0.832,3.224c-0.28,1.232-0.544,2.472-0.776,3.72
			c-0.32,1.688-0.568,3.392-0.784,5.112c-0.096,0.8-0.24,1.592-0.312,2.4c-0.016,0.16-0.048,0.312-0.064,0.472H136z M248,352
			c-43.096,0-80.064-26.4-95.816-63.84c-0.728-1.712-1.416-3.432-2.048-5.168c-0.568-1.592-1.08-3.208-1.576-4.84
			c-0.368-1.192-0.752-2.376-1.072-3.584c-0.592-2.224-1.072-4.488-1.52-6.768c-0.152-0.768-0.344-1.52-0.472-2.288
			c-0.536-3.128-0.944-6.296-1.192-9.512H168h160h23.696C347.6,309.624,302.656,352,248,352z"/>
	</g>
</g>
<g>
</g>
<g>
</g>
<g>
</g>
<g>
</g>
<g>
</g>
<g>
</g>
<g>
</g>
<g>
</g>
<g>
</g>
<g>
</g>
<g>
</g>
<g>
</g>
<g>
</g>
<g>
</g>
<g>
</g>
</svg>
