<?xml version="1.0" encoding="iso-8859-1"?>
<!-- Generator: Adobe Illustrator 19.0.0, SVG Export Plug-In . SVG Version: 6.00 Build 0)  -->
<svg version="1.1" id="Capa_1" xmlns="http://www.w3.org/2000/svg" xmlns:xlink="http://www.w3.org/1999/xlink" x="0px" y="0px"
	 viewBox="0 0 368 368" style="enable-background:new 0 0 368 368;" xml:space="preserve">
<g>
	<g>
		<path d="M360,224h-45.104c11.336-13,16.832-25.416,19.248-32.472C353.296,188.568,368,171.968,368,152
			c0-19.96-14.688-36.544-33.832-39.52C327.56,92.792,297.912,32,184,32S40.44,92.792,33.832,112.48C14.688,115.456,0,132.04,0,152
			s14.688,36.552,33.832,39.52c6.288,18.688,33.576,74.328,134.024,79.864C183.68,310.232,221.616,336,264,336
			c57.344,0,104-46.656,104-104C368,227.584,364.416,224,360,224z M160,232c0,3.528,0.232,7.024,0.592,10.504
			c0.104,1.048,0.264,2.088,0.4,3.128c0.336,2.528,0.76,5.04,1.288,7.536c0.136,0.648,0.184,1.32,0.336,1.968
			c-99.928-7.864-114.192-70.008-114.768-72.704C47.096,178.688,43.816,176,40,176c-13.232,0-24-10.768-24-24s10.768-24,24-24
			c3.784,0,7.056-2.688,7.832-6.392C48.472,118.6,64.704,48,184,48s135.528,70.6,136.16,73.568c0.744,3.744,4.024,6.432,7.84,6.432
			c13.232,0,24,10.768,24,24s-10.768,24-24,24c-3.784,0-7.064,2.696-7.84,6.4c-0.048,0.224-4.848,22.064-27.984,41.6H216h-48
			C163.584,224,160,227.584,160,232z M303.192,240c-3.712,18.232-19.88,32-39.192,32c-19.312,0-35.48-13.768-39.192-32h70.232
			H303.192z M264,320c-37.384,0-70.736-23.656-83-58.872c0-0.008-0.008-0.024-0.016-0.04c-2.416-6.816-3.96-13.88-4.616-21.088
			h32.272c3.904,27.096,27.208,48,55.36,48c28.152,0,51.456-20.904,55.36-48h32.28C347.584,284.792,309.832,320,264,320z"/>
	</g>
</g>
<g>
	<g>
		<circle cx="112" cy="120" r="16"/>
	</g>
</g>
<g>
</g>
<g>
</g>
<g>
</g>
<g>
</g>
<g>
</g>
<g>
</g>
<g>
</g>
<g>
</g>
<g>
</g>
<g>
</g>
<g>
</g>
<g>
</g>
<g>
</g>
<g>
</g>
<g>
</g>
</svg>
