<?xml version="1.0" encoding="iso-8859-1"?>
<!-- Generator: Adobe Illustrator 19.0.0, SVG Export Plug-In . SVG Version: 6.00 Build 0)  -->
<svg version="1.1" id="Capa_1" xmlns="http://www.w3.org/2000/svg" xmlns:xlink="http://www.w3.org/1999/xlink" x="0px" y="0px"
	 viewBox="0 0 368 368" style="enable-background:new 0 0 368 368;" xml:space="preserve">
<g>
	<g>
		<path d="M184,0C82.536,0,0,82.544,0,184s82.536,184,184,184s184-82.544,184-184S285.464,0,184,0z M184,352
			c-92.632,0-168-75.36-168-168S91.368,16,184,16s168,75.36,168,168S276.632,352,184,352z"/>
	</g>
</g>
<g>
	<g>
		<path d="M280.384,88.16c-0.096-0.096-0.12-0.224-0.216-0.328c-0.096-0.096-0.224-0.128-0.328-0.216
			C255.232,63.152,221.36,48,184,48c-37.352,0-71.216,15.144-95.824,39.608c-0.104,0.096-0.24,0.128-0.344,0.232
			c-0.104,0.104-0.136,0.24-0.224,0.344C63.152,112.776,48,146.648,48,184c0,37.36,15.152,71.232,39.616,95.84
			c0.088,0.104,0.12,0.232,0.216,0.328s0.224,0.128,0.328,0.216C112.768,304.848,146.64,320,184,320s71.232-15.152,95.84-39.616
			c0.104-0.088,0.232-0.12,0.328-0.216s0.128-0.224,0.216-0.328C304.848,255.232,320,221.36,320,184S304.848,112.768,280.384,88.16z
			 M93.8,105.112L164.688,176H64.408C66.2,148.936,76.96,124.344,93.8,105.112z M64.408,192h100.28L93.8,262.888
			C76.96,243.656,66.2,219.064,64.408,192z M176,303.592c-27.064-1.8-51.656-12.552-70.888-29.392L176,203.312V303.592z
			 M176,164.688L105.112,93.8C124.344,76.96,148.936,66.208,176,64.408V164.688z M303.592,176h-100.28l70.888-70.888
			C291.04,124.344,301.8,148.936,303.592,176z M192,64.408c27.064,1.8,51.656,12.552,70.888,29.392L192,164.688V64.408z
			 M192,303.592v-100.28l70.888,70.888C243.656,291.04,219.064,301.8,192,303.592z M274.2,262.888L203.312,192h100.28
			C301.8,219.064,291.04,243.656,274.2,262.888z"/>
	</g>
</g>
<g>
</g>
<g>
</g>
<g>
</g>
<g>
</g>
<g>
</g>
<g>
</g>
<g>
</g>
<g>
</g>
<g>
</g>
<g>
</g>
<g>
</g>
<g>
</g>
<g>
</g>
<g>
</g>
<g>
</g>
</svg>
