<?xml version="1.0" encoding="iso-8859-1"?>
<!-- Generator: Adobe Illustrator 19.0.0, SVG Export Plug-In . SVG Version: 6.00 Build 0)  -->
<svg version="1.1" id="Capa_1" xmlns="http://www.w3.org/2000/svg" xmlns:xlink="http://www.w3.org/1999/xlink" x="0px" y="0px"
	 viewBox="0 0 368 368" style="enable-background:new 0 0 368 368;" xml:space="preserve">
<g>
	<g>
		<path d="M184,0C82.536,0,0,82.544,0,184s82.536,184,184,184s184-82.544,184-184S285.464,0,184,0z M184,352
			c-92.632,0-168-75.36-168-168S91.368,16,184,16s168,75.36,168,168S276.632,352,184,352z"/>
	</g>
</g>
<g>
	<g>
		<path d="M296,176h-40.472c-1.544-13.856-7.04-26.528-15.32-36.88l29.448-29.464c3.128-3.128,3.128-8.192,0-11.312
			c-3.128-3.128-8.184-3.128-11.312,0l-29.448,29.464c-10.36-8.288-23.032-13.792-36.896-15.336V72c0-4.416-3.576-8-8-8
			s-8,3.584-8,8v40.472c-13.864,1.544-26.536,7.04-36.888,15.328l-29.456-29.456c-3.128-3.128-8.184-3.128-11.312,0
			s-3.128,8.184,0,11.312l29.456,29.456c-8.288,10.36-13.784,23.024-15.328,36.888H72c-4.424,0-8,3.584-8,8s3.576,8,8,8h40.472
			c1.544,13.864,7.04,26.536,15.336,36.896l-29.464,29.448c-3.128,3.12-3.128,8.184,0,11.312c1.56,1.56,3.608,2.344,5.656,2.344
			c2.048,0,4.096-0.784,5.656-2.344l29.464-29.448c10.352,8.288,23.024,13.784,36.88,15.32V296c0,4.416,3.576,8,8,8
			c4.424,0,8-3.584,8-8v-40.472c13.864-1.544,26.528-7.04,36.888-15.328l29.456,29.456c1.56,1.56,3.608,2.344,5.656,2.344
			c2.048,0,4.096-0.784,5.656-2.344c3.128-3.128,3.128-8.184,0-11.312L240.2,228.888c8.288-10.36,13.792-23.024,15.328-36.888H296
			c4.424,0,8-3.584,8-8C304,179.584,300.424,176,296,176z M184,240c-30.872,0-56-25.12-56-56s25.128-56,56-56s56,25.12,56,56
			S214.872,240,184,240z"/>
	</g>
</g>
<g>
</g>
<g>
</g>
<g>
</g>
<g>
</g>
<g>
</g>
<g>
</g>
<g>
</g>
<g>
</g>
<g>
</g>
<g>
</g>
<g>
</g>
<g>
</g>
<g>
</g>
<g>
</g>
<g>
</g>
</svg>
