<?xml version="1.0" encoding="iso-8859-1"?>
<!-- Generator: Adobe Illustrator 19.0.0, SVG Export Plug-In . SVG Version: 6.00 Build 0)  -->
<svg version="1.1" id="Capa_1" xmlns="http://www.w3.org/2000/svg" xmlns:xlink="http://www.w3.org/1999/xlink" x="0px" y="0px"
	 viewBox="0 0 368 368" style="enable-background:new 0 0 368 368;" xml:space="preserve">
<g>
	<g>
		<path d="M336,120c0-30.88-25.128-56-56-56c-20.384,0-38.2,10.984-48,27.304c-8.4-13.992-22.704-24.008-39.472-26.584
			C196.12,37.28,219.6,16,248,16h16c4.424,0,8-3.584,8-8s-3.576-8-8-8h-16c-27.832,0-52.016,15.872-64,39.032
			C172.016,15.872,147.832,0,120,0h-16c-4.416,0-8,3.584-8,8s3.584,8,8,8h16c28.408,0,51.888,21.28,55.472,48.72
			C158.704,67.296,144.4,77.312,136,91.304C126.2,74.984,108.384,64,88,64c-30.88,0-56,25.12-56,56s25.12,56,56,56
			c3.384,0,6.688-0.352,9.904-0.928C86.92,185.304,80,199.84,80,216c0,30.88,25.12,56,56,56c3.384,0,6.688-0.352,9.904-0.928
			C134.92,281.304,128,295.84,128,312c0,30.88,25.12,56,56,56c30.872,0,56-25.12,56-56c0-16.16-6.92-30.704-17.912-40.928
			c3.224,0.576,6.528,0.928,9.912,0.928c30.872,0,56-25.12,56-56c0-16.16-6.92-30.704-17.912-40.928
			c3.224,0.576,6.528,0.928,9.912,0.928C310.872,176,336,150.88,336,120z M241.912,160.928C238.688,160.352,235.384,160,232,160
			c-3.384,0-6.688,0.352-9.912,0.928c3.848-3.584,7.184-7.704,9.912-12.24C234.72,153.224,238.056,157.336,241.912,160.928z M184,80
			c22.056,0,40,17.944,40,40c0,22.056-17.944,40-40,40c-22.056,0-40-17.944-40-40C144,97.944,161.944,80,184,80z M174.096,175.072
			c3.216,0.576,6.52,0.928,9.904,0.928c3.384,0,6.688-0.352,9.912-0.928c-3.848,3.584-7.184,7.696-9.912,12.232
			C181.28,182.768,177.944,178.656,174.096,175.072z M193.912,256.928C190.688,256.352,187.384,256,184,256
			c-3.384,0-6.688,0.352-9.904,0.928c3.848-3.584,7.184-7.696,9.904-12.232C186.72,249.232,190.056,253.344,193.912,256.928z
			 M145.904,160.928c-3.216-0.576-6.52-0.928-9.904-0.928c-3.384,0-6.688,0.352-9.904,0.928c3.848-3.584,7.184-7.696,9.904-12.232
			C138.72,153.232,142.056,157.344,145.904,160.928z M88,160c-22.056,0-40-17.944-40-40c0-22.056,17.944-40,40-40
			c22.056,0,40,17.944,40,40C128,142.056,110.056,160,88,160z M136,256c-22.056,0-40-17.944-40-40c0-22.056,17.944-40,40-40
			c22.056,0,40,17.944,40,40C176,238.056,158.056,256,136,256z M224,312c0,22.056-17.944,40-40,40c-22.056,0-40-17.944-40-40
			c0-22.056,17.944-40,40-40C206.056,272,224,289.944,224,312z M272,216c0,22.056-17.944,40-40,40c-22.056,0-40-17.944-40-40
			c0-22.056,17.944-40,40-40C254.056,176,272,193.944,272,216z M240,120c0-22.056,17.944-40,40-40c22.056,0,40,17.944,40,40
			c0,22.056-17.944,40-40,40C257.944,160,240,142.056,240,120z"/>
	</g>
</g>
<g>
</g>
<g>
</g>
<g>
</g>
<g>
</g>
<g>
</g>
<g>
</g>
<g>
</g>
<g>
</g>
<g>
</g>
<g>
</g>
<g>
</g>
<g>
</g>
<g>
</g>
<g>
</g>
<g>
</g>
</svg>
