<?xml version="1.0" encoding="iso-8859-1"?>
<!-- Generator: Adobe Illustrator 19.0.0, SVG Export Plug-In . SVG Version: 6.00 Build 0)  -->
<svg version="1.1" id="Capa_1" xmlns="http://www.w3.org/2000/svg" xmlns:xlink="http://www.w3.org/1999/xlink" x="0px" y="0px"
	 viewBox="0 0 368 368" style="enable-background:new 0 0 368 368;" xml:space="preserve">
<g>
	<g>
		<path d="M299.376,139.72C282.672,57.272,222.624,0,152,0C68.184,0,0,82.544,0,184s68.184,184,152,184
			c16.648,0,32.992-3.376,48.664-9.768C215.2,364.496,231.192,368,248,368c66.168,0,120-53.832,120-120
			C368,200.232,339.872,159.016,299.376,139.72z M152,352c-74.992,0-136-75.36-136-168S77.008,16,152,16
			c59.024,0,111.728,48.36,129.48,116.848C270.84,129.744,259.624,128,248,128c-66.168,0-120,53.832-120,120
			c0,41.608,21.304,78.32,53.568,99.848C171.888,350.512,162.008,352,152,352z M248,352c-57.344,0-104-46.656-104-104
			s46.656-104,104-104s104,46.656,104,104S305.344,352,248,352z"/>
	</g>
</g>
<g>
	<g>
		<path d="M248,176c-39.696,0-72,32.304-72,72s32.304,72,72,72s72-32.304,72-72S287.696,176,248,176z M248,304
			c-30.88,0-56-25.12-56-56s25.12-56,56-56s56,25.12,56,56S278.88,304,248,304z"/>
	</g>
</g>
<g>
	<g>
		<path d="M187.656,64.952c-3.864-2.008-8.68-0.488-10.76,3.36C176.64,68.792,170.384,80,152,80c-18.224,0-24.528-11-24.888-11.664
			c-1.992-3.88-6.76-5.456-10.688-3.488c-3.952,1.976-5.552,6.784-3.576,10.736C113.264,76.408,123.384,96,152,96
			c28.616,0,38.736-19.592,39.16-20.424C193.112,71.664,191.536,66.968,187.656,64.952z"/>
	</g>
</g>
<g>
</g>
<g>
</g>
<g>
</g>
<g>
</g>
<g>
</g>
<g>
</g>
<g>
</g>
<g>
</g>
<g>
</g>
<g>
</g>
<g>
</g>
<g>
</g>
<g>
</g>
<g>
</g>
<g>
</g>
</svg>
