<?xml version="1.0" encoding="iso-8859-1"?>
<!-- Generator: Adobe Illustrator 19.0.0, SVG Export Plug-In . SVG Version: 6.00 Build 0)  -->
<svg version="1.1" id="Capa_1" xmlns="http://www.w3.org/2000/svg" xmlns:xlink="http://www.w3.org/1999/xlink" x="0px" y="0px"
	 viewBox="0 0 368 368" style="enable-background:new 0 0 368 368;" xml:space="preserve">
<g>
	<g>
		<path d="M283.232,224.16c-12.824-11.712-87.88-85.592-91.064-208.16H232c4.416,0,8-3.584,8-8s-3.584-8-8-8H120
			c-4.416,0-8,3.584-8,8s3.584,8,8,8h44.248C137.28,44.6,82.616,115.808,80.16,224.448C44.136,228.376,16,258.952,16,296
			c0,39.696,32.304,72,72,72s72-32.304,72-72c0-36.912-27.936-67.384-63.76-71.488c2.52-102.68,55.432-171.376,80.28-197.976
			c5.872,105.384,60.656,173.64,85.88,199.736C231.192,234.152,208,262.384,208,296c0,39.696,32.304,72,72,72s72-32.304,72-72
			C352,257.392,321.424,225.872,283.232,224.16z M144,296c0,30.88-25.12,56-56,56s-56-25.12-56-56s25.12-56,56-56
			S144,265.12,144,296z M280,352c-30.88,0-56-25.12-56-56s25.12-56,56-56s56,25.12,56,56S310.88,352,280,352z"/>
	</g>
</g>
<g>
	<g>
		<path d="M96,272H80c-4.416,0-8,3.584-8,8c0,4.416,3.584,8,8,8h16c4.416,0,8-3.584,8-8C104,275.584,100.416,272,96,272z"/>
	</g>
</g>
<g>
	<g>
		<path d="M288,272h-16c-4.416,0-8,3.584-8,8c0,4.416,3.584,8,8,8h16c4.416,0,8-3.584,8-8C296,275.584,292.416,272,288,272z"/>
	</g>
</g>
<g>
</g>
<g>
</g>
<g>
</g>
<g>
</g>
<g>
</g>
<g>
</g>
<g>
</g>
<g>
</g>
<g>
</g>
<g>
</g>
<g>
</g>
<g>
</g>
<g>
</g>
<g>
</g>
<g>
</g>
</svg>
