<?xml version="1.0" encoding="iso-8859-1"?>
<!-- Generator: Adobe Illustrator 19.0.0, SVG Export Plug-In . SVG Version: 6.00 Build 0)  -->
<svg version="1.1" id="Capa_1" xmlns="http://www.w3.org/2000/svg" xmlns:xlink="http://www.w3.org/1999/xlink" x="0px" y="0px"
	 viewBox="0 0 368 368" style="enable-background:new 0 0 368 368;" xml:space="preserve">
<g>
	<g>
		<path d="M271.352,160.376C282.128,143.728,288,124.24,288,104C288,46.656,241.344,0,184,0S80,46.656,80,104
			c0,20.248,5.872,39.736,16.648,56.376C42.728,164.176,0,209.136,0,264c0,57.344,46.656,104,104,104
			c31.208,0,60.328-13.952,80-37.672C203.68,354.048,232.8,368,264,368c57.344,0,104-46.656,104-104
			C368,209.136,325.264,164.168,271.352,160.376z M177.336,312.688C160.952,337.304,133.536,352,104,352c-48.52,0-88-39.48-88-88
			c0-48.52,39.48-88,88-88c1.792,0,3.552,0.136,5.32,0.24c16.496,17.08,38.112,27.912,61.68,30.848
			c2.2,2.552,4.344,5.272,6.32,8.272c0.008,0.008,0.016,0.016,0.024,0.024s0.008,0.024,0.016,0.032
			C186.936,229.68,192,246.48,192,264C192,281.384,186.928,298.224,177.336,312.688z M175.848,191.624
			c-21.984-2-42.264-12.16-57.136-28.624C104.064,146.928,96,125.968,96,104c0-48.52,39.48-88,88-88s88,39.48,88,88
			c0,21.968-8.064,42.928-22.712,59.008c-0.008,0.008-0.016,0.016-0.024,0.024c-1.856,2.056-3.792,4.016-5.816,5.864
			c-14.128,12.984-32.056,20.976-51.288,22.728C186.688,192.056,181.144,192.056,175.848,191.624z M264,352
			c-27.832,0-53.784-13.048-70.4-35.152c0.184-0.304,0.336-0.624,0.512-0.936c0.544-0.952,1.056-1.92,1.576-2.88
			c0.64-1.192,1.264-2.384,1.856-3.6c0.472-0.976,0.928-1.968,1.368-2.96c0.552-1.24,1.088-2.488,1.592-3.744
			c0.4-0.992,0.784-1.992,1.152-3c0.472-1.288,0.912-2.584,1.328-3.888c0.32-1,0.64-2.008,0.936-3.016
			c0.384-1.352,0.736-2.704,1.064-4.072c0.24-0.992,0.496-1.976,0.704-2.976c0.304-1.432,0.552-2.88,0.8-4.328
			c0.16-0.944,0.344-1.888,0.48-2.84c0.232-1.616,0.384-3.248,0.536-4.88c0.072-0.792,0.184-1.584,0.24-2.384
			c0.16-2.432,0.256-4.888,0.256-7.344c0-2.48-0.096-4.936-0.264-7.384c-0.056-0.832-0.168-1.656-0.248-2.48
			c-0.152-1.608-0.304-3.216-0.528-4.808c-0.136-0.984-0.328-1.96-0.488-2.936c-0.24-1.416-0.48-2.84-0.784-4.24
			c-0.216-1.032-0.48-2.056-0.728-3.08c-0.328-1.328-0.656-2.648-1.04-3.96c-0.304-1.048-0.632-2.08-0.96-3.12
			c-0.408-1.264-0.832-2.52-1.296-3.768c-0.376-1.04-0.776-2.064-1.192-3.088c-0.496-1.224-1.016-2.424-1.552-3.624
			c-0.456-1.008-0.912-2.016-1.4-3.008c-0.584-1.2-1.216-2.376-1.848-3.56c-0.512-0.952-1.016-1.904-1.56-2.84
			c-0.176-0.296-0.32-0.608-0.504-0.912c1.04-1.376,2.104-2.704,3.176-3.968c1.232-0.152,2.44-0.416,3.664-0.608
			c1.304-0.208,2.608-0.392,3.896-0.648c1.84-0.368,3.648-0.824,5.464-1.288c1.184-0.304,2.376-0.56,3.552-0.904
			c1.976-0.576,3.912-1.272,5.84-1.968c0.968-0.344,1.952-0.64,2.904-1.016c2.856-1.12,5.664-2.36,8.4-3.728
			c0.144-0.072,0.272-0.16,0.416-0.232c2.6-1.312,5.144-2.736,7.624-4.272c0.896-0.552,1.744-1.184,2.624-1.768
			c1.696-1.12,3.384-2.24,5.008-3.456c0.984-0.736,1.92-1.544,2.88-2.312c1.456-1.168,2.904-2.344,4.304-3.6
			c0.968-0.872,1.896-1.792,2.832-2.704c0.896-0.864,1.832-1.68,2.704-2.584c1.696-0.08,3.4-0.136,5.104-0.136
			c48.52,0,88,39.48,88,88C352,312.52,312.52,352,264,352z"/>
	</g>
</g>
<g>
	<g>
		<path d="M195.312,72l10.344-10.344c3.128-3.128,3.128-8.184,0-11.312s-8.184-3.128-11.312,0L184,60.688l-10.344-10.344
			c-3.128-3.128-8.184-3.128-11.312,0s-3.128,8.184,0,11.312L172.688,72l-10.344,10.344c-3.128,3.128-3.128,8.184,0,11.312
			C163.904,95.216,165.952,96,168,96c2.048,0,4.096-0.784,5.656-2.344L184,83.312l10.344,10.344C195.904,95.216,197.952,96,200,96
			c2.048,0,4.096-0.784,5.656-2.344c3.128-3.128,3.128-8.184,0-11.312L195.312,72z"/>
	</g>
</g>
<g>
	<g>
		<path d="M115.312,248l10.344-10.344c3.128-3.128,3.128-8.184,0-11.312s-8.184-3.128-11.312,0L104,236.688l-10.344-10.344
			c-3.128-3.128-8.184-3.128-11.312,0s-3.128,8.184,0,11.312L92.688,248l-10.344,10.344c-3.128,3.128-3.128,8.184,0,11.312
			C83.904,271.216,85.952,272,88,272c2.048,0,4.096-0.784,5.656-2.344L104,259.312l10.344,10.344c1.56,1.56,3.608,2.344,5.656,2.344
			c2.048,0,4.096-0.784,5.656-2.344c3.128-3.128,3.128-8.184,0-11.312L115.312,248z"/>
	</g>
</g>
<g>
	<g>
		<path d="M275.312,248l10.344-10.344c3.128-3.128,3.128-8.184,0-11.312s-8.184-3.128-11.312,0L264,236.688l-10.344-10.344
			c-3.128-3.128-8.184-3.128-11.312,0c-3.128,3.128-3.128,8.184,0,11.312L252.688,248l-10.344,10.344
			c-3.128,3.128-3.128,8.184,0,11.312c1.56,1.56,3.608,2.344,5.656,2.344c2.048,0,4.096-0.784,5.656-2.344L264,259.312
			l10.344,10.344c1.56,1.56,3.608,2.344,5.656,2.344c2.048,0,4.096-0.784,5.656-2.344c3.128-3.128,3.128-8.184,0-11.312L275.312,248
			z"/>
	</g>
</g>
<g>
</g>
<g>
</g>
<g>
</g>
<g>
</g>
<g>
</g>
<g>
</g>
<g>
</g>
<g>
</g>
<g>
</g>
<g>
</g>
<g>
</g>
<g>
</g>
<g>
</g>
<g>
</g>
<g>
</g>
</svg>
