<?xml version="1.0" encoding="iso-8859-1"?>
<!-- Generator: Adobe Illustrator 19.0.0, SVG Export Plug-In . SVG Version: 6.00 Build 0)  -->
<svg version="1.1" id="Capa_1" xmlns="http://www.w3.org/2000/svg" xmlns:xlink="http://www.w3.org/1999/xlink" x="0px" y="0px"
	 viewBox="0 0 368 368" style="enable-background:new 0 0 368 368;" xml:space="preserve">
<g>
	<g>
		<path d="M320,168c0-24.696-16.304-45.976-38.904-53.248C285.568,106.616,288,97.464,288,88c0-30.88-25.128-56-56-56
			c-15.664,0-29.824,6.48-40,16.888V8c0-4.416-3.584-8-8-8c-4.416,0-8,3.584-8,8v40.88C165.824,38.48,151.664,32,136,32
			c-30.88,0-56,25.12-56,56c0,9.472,2.44,18.64,6.896,26.76C64.296,122.032,48,143.304,48,168s16.304,45.976,38.904,53.248
			C82.432,229.384,80,238.536,80,248c0,28.408,21.28,51.888,48.728,55.472c-0.424,2.8-0.728,5.632-0.728,8.528
			c0,30.88,25.12,56,56,56c30.872,0,56-25.12,56-56c0-2.896-0.296-5.728-0.728-8.528C266.72,299.888,288,276.408,288,248
			c0-9.472-2.44-18.64-6.896-26.76C303.704,213.968,320,192.696,320,168z M232,48c22.056,0,40,17.944,40,40
			c0,9.944-3.688,19.448-10.384,26.76c-0.016,0.016-0.04,0.04-0.056,0.064c-1.808,2.024-3.832,3.816-5.984,5.408
			c-0.104,0.08-0.2,0.168-0.304,0.24c-2.112,1.528-4.384,2.816-6.744,3.896c-0.176,0.08-0.352,0.176-0.536,0.256
			c-2.256,0.992-4.624,1.736-7.04,2.296c-0.408,0.096-0.816,0.184-1.232,0.264c-2.264,0.448-4.576,0.68-6.912,0.728
			c-1.24,0.024-2.48,0.032-3.744-0.064c-2.48-0.152-4.952-0.56-7.4-1.216c-0.76-0.704-1.584-1.328-2.384-1.984
			c-0.48-0.4-0.936-0.816-1.432-1.192c-3.256-2.504-6.784-4.632-10.496-6.328c-0.6-0.272-1.216-0.496-1.816-0.744
			c-0.92-0.384-1.832-0.808-2.776-1.136C195.808,107.808,192,98.2,192,88C192,65.944,209.944,48,232,48z M184,128
			c4.032,0,8.064,0.632,11.992,1.864c0.024,0.008,0.048,0.016,0.08,0.024c5.984,1.824,11.296,5.032,15.992,9.712
			c1.896,1.784,3.672,3.904,5.304,6.384C221.704,152.44,224,160.048,224,168c0,7.952-2.296,15.56-6.68,22.08
			c-1.424,2.16-2.992,4.088-4.68,5.752c-0.32,0.24-0.624,0.504-0.904,0.8c-4.328,4.392-9.744,7.672-15.744,9.504
			c-7.856,2.48-16.04,2.504-24.056-0.024c-5.984-1.824-11.296-5.024-15.992-9.72c-1.912-1.784-3.68-3.904-5.304-6.376
			C146.296,183.568,144,175.96,144,168s2.296-15.568,6.672-22.072C158.088,134.704,170.544,128,184,128z M136,48
			c22.056,0,40,17.944,40,40c0,10.296-3.976,19.928-11.056,27.392c-6.872,2.48-13.216,6.24-18.624,11.184
			c-2.44,0.648-4.904,1.128-7.376,1.28c-0.016,0-0.024,0.008-0.04,0.008s-0.032-0.008-0.048-0.008C137.928,127.928,137,128,136,128
			c-11.304,0-22.08-4.8-29.616-13.24C99.688,107.448,96,97.944,96,88C96,65.944,113.944,48,136,48z M64,168
			c0-19.664,14.44-36.344,33.472-39.448c0.224,0.216,0.472,0.4,0.696,0.608c0.496,0.456,1.008,0.888,1.52,1.328
			c0.88,0.76,1.776,1.496,2.696,2.192c0.568,0.424,1.136,0.84,1.712,1.248c0.936,0.648,1.888,1.264,2.856,1.856
			c0.592,0.36,1.184,0.728,1.784,1.064c1.064,0.592,2.152,1.136,3.248,1.656c0.536,0.256,1.064,0.536,1.608,0.776
			c1.648,0.72,3.328,1.384,5.04,1.944c0.024,0.008,0.056,0.016,0.08,0.024c1.704,0.552,3.44,1.008,5.192,1.4
			c0.576,0.128,1.16,0.208,1.744,0.32c1.224,0.232,2.44,0.44,3.68,0.584c0.68,0.08,1.36,0.128,2.048,0.184
			c0.672,0.056,1.344,0.152,2.016,0.184c-0.024,0.04-0.032,0.088-0.056,0.128c-0.096,0.2-0.16,0.408-0.248,0.608
			c-0.936,2.032-1.728,4.128-2.416,6.256c-0.224,0.712-0.416,1.424-0.616,2.144c-0.48,1.736-0.872,3.504-1.184,5.288
			c-0.128,0.728-0.264,1.44-0.368,2.176C128.216,163,128,165.48,128,168c0,2.512,0.216,4.992,0.544,7.448
			c0.096,0.736,0.24,1.464,0.368,2.2c0.304,1.76,0.688,3.496,1.16,5.216c0.208,0.752,0.4,1.496,0.64,2.232
			c0.648,2.016,1.4,3.984,2.272,5.912c0.144,0.312,0.24,0.632,0.392,0.944c0.016,0.032,0.024,0.072,0.048,0.112
			c-0.672,0.032-1.336,0.128-2.008,0.184c-0.688,0.056-1.376,0.104-2.064,0.192c-1.224,0.144-2.44,0.352-3.648,0.584
			c-0.592,0.112-1.192,0.2-1.784,0.328c-1.632,0.36-3.248,0.8-4.84,1.304c-0.256,0.08-0.504,0.16-0.76,0.248
			c-1.576,0.528-3.128,1.12-4.648,1.784c-0.648,0.28-1.272,0.616-1.912,0.92c-0.976,0.472-1.952,0.952-2.904,1.48
			c-0.704,0.392-1.384,0.816-2.072,1.24c-0.848,0.52-1.688,1.064-2.512,1.632c-0.68,0.472-1.352,0.96-2.016,1.464
			c-0.8,0.608-1.576,1.24-2.336,1.896c-0.608,0.52-1.224,1.04-1.816,1.584c-0.208,0.192-0.432,0.36-0.632,0.552
			C78.44,204.344,64,187.664,64,168z M139.824,277.632c-0.608,0.784-1.176,1.6-1.744,2.416c-0.88,1.272-1.712,2.584-2.488,3.936
			c-0.496,0.864-0.992,1.72-1.448,2.616c-0.224,0.44-0.504,0.848-0.712,1.296C112.568,286.592,96,269.192,96,248
			c0-9.944,3.688-19.448,10.448-26.832C113.92,212.8,124.696,208,136,208c1,0,1.928,0.072,2.856,0.144c0.032,0,0.056,0,0.088,0
			c2.472,0.152,4.96,0.56,7.408,1.216c0.736,0.68,1.536,1.288,2.304,1.928c0.512,0.424,1.008,0.88,1.536,1.288
			c1.544,1.184,3.136,2.296,4.792,3.304c0.216,0.12,0.424,0.24,0.632,0.36c1.624,0.96,3.288,1.832,5,2.616
			c0.656,0.296,1.32,0.544,1.984,0.816c0.888,0.36,1.752,0.768,2.656,1.088C172.192,228.192,176,237.8,176,248
			c0,3.008-0.32,5.944-0.952,8.768c-0.568,0.088-1.112,0.264-1.672,0.368c-0.92,0.176-1.824,0.384-2.728,0.6
			c-1.6,0.384-3.16,0.84-4.712,1.36c-0.872,0.296-1.736,0.576-2.584,0.912c-1.616,0.632-3.168,1.368-4.704,2.144
			c-0.688,0.352-1.4,0.656-2.08,1.032c-2.152,1.208-4.24,2.52-6.208,4c-0.232,0.176-0.432,0.384-0.664,0.56
			c-1.72,1.336-3.368,2.76-4.928,4.288c-0.632,0.616-1.2,1.296-1.8,1.944C141.88,275.152,140.816,276.36,139.824,277.632z M184,352
			c-22.056,0-40-17.944-40-40c0-4.696,0.776-9.208,2.336-13.472c5.432-15.176,19.28-25.536,35.288-26.384
			c0.24-0.008,0.752-0.08,0.992-0.112c0.224-0.032,0.464-0.04,0.704-0.04c0.224,0,0.448,0.008,0.68,0.008
			c0.472,0,0.944-0.032,1.368,0.032c0.336,0.056,0.672,0.104,1.008,0.12c16.008,0.848,29.864,11.208,35.312,26.432
			C223.216,302.792,224,307.312,224,312C224,334.056,206.056,352,184,352z M234.568,287.92c-0.224-0.472-0.52-0.904-0.76-1.368
			c-0.416-0.816-0.864-1.592-1.312-2.376c-0.832-1.448-1.712-2.848-2.656-4.208c-0.52-0.752-1.048-1.496-1.6-2.216
			c-1.048-1.36-2.168-2.64-3.328-3.888c-0.544-0.584-1.064-1.2-1.632-1.76c-1.624-1.6-3.344-3.104-5.144-4.488
			c-0.16-0.128-0.304-0.272-0.464-0.392c-1.984-1.488-4.08-2.816-6.24-4.024c-0.656-0.368-1.352-0.664-2.032-1.008
			c-1.552-0.784-3.12-1.528-4.744-2.168c-0.848-0.336-1.712-0.616-2.576-0.912c-1.544-0.52-3.112-0.976-4.712-1.36
			c-0.912-0.216-1.816-0.432-2.736-0.608c-0.56-0.104-1.104-0.28-1.672-0.368c-0.64-2.832-0.96-5.768-0.96-8.776
			c0-10.2,3.808-19.808,10.752-27.248c0.84-0.296,1.648-0.672,2.472-1.008c0.664-0.272,1.344-0.52,2-0.816
			c1.368-0.624,2.688-1.32,4-2.056c0.432-0.24,0.888-0.448,1.312-0.704c1.712-1.024,3.376-2.144,4.96-3.352
			c0.336-0.256,0.648-0.56,0.976-0.824c1.056-0.84,2.112-1.68,3.096-2.6c2.48-0.664,5-1.088,7.584-1.248
			C230.08,208.072,231,208,232,208c11.304,0,22.08,4.8,29.616,13.24C268.312,228.552,272,238.056,272,248
			C272,269.192,255.432,286.592,234.568,287.92z M270.528,207.448c-0.232-0.216-0.48-0.408-0.712-0.624
			c-0.488-0.456-0.992-0.88-1.496-1.312c-0.888-0.76-1.784-1.504-2.72-2.208c-0.56-0.424-1.128-0.84-1.704-1.24
			c-0.944-0.656-1.904-1.272-2.88-1.872c-0.584-0.36-1.168-0.72-1.76-1.056c-1.08-0.6-2.176-1.152-3.296-1.68
			c-0.528-0.248-1.04-0.52-1.568-0.76c-3.32-1.456-6.776-2.584-10.328-3.368c-0.568-0.128-1.152-0.208-1.728-0.32
			c-1.224-0.232-2.448-0.44-3.688-0.592c-0.68-0.08-1.368-0.128-2.048-0.184c-0.672-0.056-1.344-0.152-2.016-0.184
			c0.016-0.04,0.032-0.08,0.048-0.12c0.112-0.232,0.184-0.48,0.296-0.72c0.912-1.992,1.696-4.04,2.368-6.128
			c0.24-0.736,0.432-1.48,0.64-2.232c0.472-1.712,0.856-3.448,1.16-5.2c0.128-0.744,0.272-1.472,0.376-2.224
			c0.312-2.44,0.528-4.912,0.528-7.424c0-2.512-0.216-4.984-0.544-7.432c-0.096-0.752-0.248-1.496-0.376-2.24
			c-0.304-1.736-0.68-3.448-1.144-5.136c-0.216-0.776-0.416-1.552-0.664-2.312c-0.632-1.976-1.376-3.904-2.232-5.792
			c-0.152-0.344-0.272-0.704-0.432-1.048c-0.016-0.032-0.024-0.064-0.04-0.096c0.68-0.032,1.344-0.128,2.016-0.184
			c0.688-0.056,1.368-0.104,2.048-0.184c1.24-0.152,2.472-0.36,3.696-0.592c0.568-0.104,1.152-0.192,1.712-0.312
			c1.768-0.392,3.52-0.848,5.24-1.408c0.008,0,0.008,0,0.016,0c1.728-0.56,3.424-1.224,5.088-1.96
			c0.52-0.224,1.008-0.488,1.52-0.736c1.128-0.536,2.248-1.088,3.344-1.704c0.592-0.328,1.16-0.688,1.736-1.04
			c0.984-0.6,1.952-1.224,2.904-1.88c0.576-0.4,1.136-0.816,1.696-1.232c0.928-0.696,1.824-1.432,2.704-2.192
			c0.512-0.44,1.032-0.872,1.528-1.336c0.232-0.216,0.488-0.408,0.712-0.624C289.56,131.656,304,148.336,304,168
			S289.56,204.344,270.528,207.448z"/>
	</g>
</g>
<g>
</g>
<g>
</g>
<g>
</g>
<g>
</g>
<g>
</g>
<g>
</g>
<g>
</g>
<g>
</g>
<g>
</g>
<g>
</g>
<g>
</g>
<g>
</g>
<g>
</g>
<g>
</g>
<g>
</g>
</svg>
