<?xml version="1.0" encoding="iso-8859-1"?>
<!-- Generator: Adobe Illustrator 19.0.0, SVG Export Plug-In . SVG Version: 6.00 Build 0)  -->
<svg version="1.1" id="Capa_1" xmlns="http://www.w3.org/2000/svg" xmlns:xlink="http://www.w3.org/1999/xlink" x="0px" y="0px"
	 viewBox="0 0 368 368" style="enable-background:new 0 0 368 368;" xml:space="preserve">
<g>
	<g>
		<path d="M184,0c-48.52,0-88,39.48-88,88v160c0,33.24,18.664,63.384,48.032,78.392C144.008,326.928,144,327.464,144,328
			c0,22.056,17.944,40,40,40c22.056,0,40-17.944,40-40c0-0.536-0.008-1.072-0.032-1.608C253.336,311.384,272,281.24,272,248V88
			C272,39.48,232.52,0,184,0z M256,248c0,28.84-17.184,54.848-43.792,66.248c-3.464,1.48-5.416,5.176-4.704,8.872
			c0.336,1.744,0.496,3.296,0.496,4.88c0,13.232-10.768,24-24,24s-24-10.768-24-24c0-1.584,0.16-3.136,0.496-4.88
			c0.712-3.696-1.24-7.392-4.704-8.872C129.184,302.848,112,276.84,112,248V138.576c0.432,0.608,0.96,1.144,1.408,1.744
			c1.488,2,3.04,3.936,4.688,5.8c0.832,0.944,1.656,1.872,2.528,2.784c2.176,2.264,4.44,4.424,6.84,6.448
			c0.52,0.432,1.048,0.856,1.584,1.28c2.48,1.992,5.096,3.824,7.784,5.544c0.792,0.504,1.592,0.984,2.408,1.464
			c1.56,0.92,3.136,1.816,4.76,2.648V232c0,4.416,3.584,8,8,8s8-3.584,8-8v-59.408c7.64,2.168,15.672,3.408,24,3.408
			s16.36-1.24,24-3.408V232c0,4.416,3.584,8,8,8c4.416,0,8-3.584,8-8v-65.712c1.64-0.84,3.224-1.744,4.8-2.68
			c0.768-0.456,1.528-0.912,2.28-1.384c2.784-1.776,5.488-3.664,8.048-5.728c0.368-0.296,0.744-0.576,1.104-0.872
			c2.528-2.112,4.904-4.392,7.184-6.768c0.832-0.872,1.624-1.768,2.424-2.664c1.688-1.904,3.28-3.888,4.8-5.928
			c0.432-0.592,0.944-1.104,1.36-1.688V248z M255.304,97.488c-0.104,0.776-0.224,1.552-0.352,2.32
			c-0.472,2.808-1.064,5.584-1.856,8.288c-0.08,0.28-0.136,0.576-0.216,0.856c-0.904,2.952-2.032,5.824-3.296,8.616
			c-0.304,0.672-0.64,1.336-0.968,2c-1.136,2.32-2.392,4.584-3.768,6.768c-0.296,0.472-0.56,0.968-0.872,1.44
			c-1.632,2.456-3.44,4.792-5.368,7.04c-0.544,0.632-1.12,1.232-1.68,1.848c-1.712,1.856-3.504,3.632-5.408,5.304
			c-0.432,0.376-0.832,0.784-1.264,1.152c-2.36,1.976-4.864,3.8-7.496,5.472c-0.48,0.312-0.976,0.592-1.464,0.888
			c-2.72,1.648-5.536,3.184-8.504,4.48c-0.008,0-0.016,0.008-0.024,0.008c-2.224,0.984-4.496,1.84-6.8,2.584
			c-0.04,0.016-0.08,0.032-0.128,0.048c-16.432,5.248-34.704,4.384-50.584-2.632c-0.04-0.016-0.088-0.04-0.128-0.064
			c-2.912-1.28-5.672-2.784-8.352-4.4c-0.528-0.32-1.064-0.632-1.584-0.96c-2.584-1.656-5.056-3.456-7.384-5.4
			c-0.496-0.416-0.944-0.872-1.432-1.296c-1.84-1.624-3.576-3.344-5.232-5.136c-0.592-0.648-1.2-1.28-1.768-1.944
			c-1.904-2.224-3.696-4.536-5.312-6.976c-0.328-0.496-0.608-1.024-0.928-1.528c-1.352-2.152-2.592-4.376-3.712-6.664
			c-0.336-0.68-0.672-1.352-0.984-2.048c-1.256-2.792-2.384-5.648-3.288-8.592c-0.088-0.288-0.144-0.584-0.224-0.864
			c-0.784-2.704-1.384-5.472-1.856-8.28c-0.128-0.768-0.248-1.544-0.352-2.32C112.288,94.36,112,91.208,112,88
			c0-39.696,32.304-72,72-72s72,32.304,72,72C256,91.208,255.712,94.36,255.304,97.488z"/>
	</g>
</g>
<g>
	<g>
		<path d="M195.32,88l10.344-10.344c3.12-3.128,3.12-8.184,0-11.312c-3.128-3.128-8.184-3.128-11.312,0L184,76.688l-10.344-10.344
			c-3.128-3.128-8.184-3.128-11.312,0s-3.128,8.184,0,11.312L172.688,88l-10.344,10.344c-3.128,3.128-3.128,8.184,0,11.312
			c1.568,1.56,3.616,2.344,5.656,2.344s4.096-0.784,5.656-2.344L184,99.312l10.344,10.344c1.568,1.56,3.616,2.344,5.656,2.344
			c2.04,0,4.096-0.784,5.656-2.344c3.128-3.128,3.128-8.184,0-11.312L195.32,88z"/>
	</g>
</g>
<g>
</g>
<g>
</g>
<g>
</g>
<g>
</g>
<g>
</g>
<g>
</g>
<g>
</g>
<g>
</g>
<g>
</g>
<g>
</g>
<g>
</g>
<g>
</g>
<g>
</g>
<g>
</g>
<g>
</g>
</svg>
