<?xml version="1.0" encoding="iso-8859-1"?>
<!-- Generator: Adobe Illustrator 19.0.0, SVG Export Plug-In . SVG Version: 6.00 Build 0)  -->
<svg version="1.1" id="Capa_1" xmlns="http://www.w3.org/2000/svg" xmlns:xlink="http://www.w3.org/1999/xlink" x="0px" y="0px"
	 viewBox="0 0 368 368" style="enable-background:new 0 0 368 368;" xml:space="preserve">
<g>
	<g>
		<path d="M287.824,59.664C287.912,58.456,288,57.256,288,56V8c0-4.416-3.576-8-8-8h-48c-20.384,0-38.2,10.984-48,27.304
			C174.208,10.984,156.384,0,136,0h-32c-4.416,0-8,3.584-8,8s3.584,8,8,8h32c22.056,0,40,17.944,40,40v2.272
			C161.752,51.472,145.68,48,128,48C57.424,48,0,119.776,0,208s57.424,160,128,160c21.064,0,39.88-4.88,56-14.52
			c16.128,9.64,34.928,14.52,56,14.52c70.576,0,128-71.776,128-160C368,142.504,335.984,83.856,287.824,59.664z M192,72V56
			c0-22.056,17.944-40,40-40h40v40c0,2.456-0.208,4.696-0.68,6.976C268.056,82.112,251.52,96,232,96h-40V72z M240,352
			c-19.808,0-37.144-4.92-51.52-14.632c-1.36-0.912-2.92-1.368-4.48-1.368s-3.12,0.456-4.48,1.368C165.136,347.08,147.8,352,128,352
			c-61.76,0-112-64.6-112-144S66.24,64,128,64c18.208,0,34.336,4.168,48,12.384V104v32c0,4.416,3.584,8,8,8s8-3.584,8-8v-24h40
			c2.72,0,5.376-0.248,8-0.616c0.392-0.056,0.776-0.096,1.168-0.16c2.488-0.408,4.92-0.992,7.288-1.712
			c0.424-0.128,0.84-0.264,1.256-0.4c2.384-0.792,4.712-1.712,6.944-2.8c0.232-0.112,0.456-0.24,0.688-0.36
			c4.768-2.408,9.144-5.472,13.008-9.088c0.104-0.096,0.208-0.184,0.312-0.28c1.936-1.84,3.728-3.824,5.384-5.936
			c0.072-0.096,0.144-0.184,0.216-0.28c3.384-4.376,6.168-9.248,8.128-14.552C325.168,98.432,352,150.192,352,208
			C352,287.4,301.76,352,240,352z"/>
	</g>
</g>
<g>
	<g>
		<path d="M233.936,144.24c-4.296-1.088-8.632,1.536-9.696,5.824C224.168,150.32,217.368,176,184,176
			c-32.88,0-39.944-24.832-40.248-25.992c-1.096-4.256-5.424-6.848-9.688-5.768c-4.288,1.072-6.888,5.416-5.824,9.704
			C131.528,167.104,147.416,192,184,192c36.576,0,52.472-24.896,55.76-38.056C240.832,149.656,238.224,145.312,233.936,144.24z"/>
	</g>
</g>
<g>
</g>
<g>
</g>
<g>
</g>
<g>
</g>
<g>
</g>
<g>
</g>
<g>
</g>
<g>
</g>
<g>
</g>
<g>
</g>
<g>
</g>
<g>
</g>
<g>
</g>
<g>
</g>
<g>
</g>
</svg>
