<?xml version="1.0" encoding="iso-8859-1"?>
<!-- Generator: Adobe Illustrator 19.0.0, SVG Export Plug-In . SVG Version: 6.00 Build 0)  -->
<svg version="1.1" id="Capa_1" xmlns="http://www.w3.org/2000/svg" xmlns:xlink="http://www.w3.org/1999/xlink" x="0px" y="0px"
	 viewBox="0 0 512 512" style="enable-background:new 0 0 512 512;" xml:space="preserve">
<g>
	<g>
		<path d="M363.312,94.264c-1.859-1.86-4.439-2.93-7.069-2.93c-2.641,0-5.21,1.069-7.08,2.93c-1.86,1.87-2.93,4.44-2.93,7.07
			c0,2.63,1.069,5.21,2.93,7.069c1.87,1.87,4.44,2.931,7.08,2.931c2.63,0,5.2-1.061,7.069-2.931c1.86-1.859,2.921-4.43,2.921-7.069
			C366.233,98.704,365.172,96.124,363.312,94.264z"/>
	</g>
</g>
<g>
	<g>
		<path d="M509.071,57.352L454.647,2.928c-3.906-3.904-10.236-3.904-14.144,0L377.982,65.45c-3.905,3.905-3.905,10.237,0,14.144
			c3.906,3.904,10.236,3.904,14.144,0l55.449-55.449l40.282,40.281L236.533,315.748l-40.282-40.282l136.828-136.828
			c3.905-3.905,3.905-10.237,0-14.144c-3.906-3.904-10.236-3.904-14.144,0l-143.899,143.9c-3.905,3.905-3.905,10.237,0,14.144
			l8.912,8.912l-14.736,14.736l-3.86-3.86c-4.465-4.463-10.633-6.662-16.913-6.028c-6.282,0.634-11.883,4.017-15.368,9.281h0.001
			l-14.43,21.803L13.642,432.381c-18.189,18.19-18.189,47.786,0,65.977C22.737,507.452,34.684,512,46.629,512
			c11.946,0,23.894-4.548,32.988-13.643l105-105.001l21.803-14.429c5.265-3.484,8.647-9.085,9.281-15.368
			c0.633-6.282-1.564-12.447-6.029-16.914l-3.859-3.859l14.736-14.736l8.912,8.912c1.876,1.875,4.419,2.929,7.071,2.929
			s5.195-1.054,7.071-2.929L509.071,71.496C512.976,67.591,512.976,61.258,509.071,57.352z M195.383,362.248l-22.643,14.985
			c-0.559,0.369-1.079,0.794-1.553,1.268L65.475,484.214c-10.39,10.391-27.298,10.392-37.69,0c-10.391-10.391-10.391-27.299,0-37.69
			l98.642-98.641l19.178,19.178c1.953,1.952,4.512,2.929,7.071,2.929c2.559,0,5.118-0.977,7.071-2.929
			c3.905-3.905,3.905-10.237,0-14.144l-20.473-20.472l10.476-15.829h0.001c0.061-0.093,0.247-0.374,0.693-0.419
			c0.038-0.004,0.074-0.006,0.109-0.006c0.378,0,0.584,0.207,0.655,0.278l44.319,44.318c0.078,0.079,0.317,0.318,0.272,0.766
			C195.757,362,195.476,362.187,195.383,362.248z M191.67,328.643l-8.314-8.314l14.736-14.736l8.314,8.314L191.67,328.643z"/>
	</g>
</g>
<g>
	<g>
		<path d="M132.564,379.453c-3.906-3.904-10.236-3.904-14.143,0l-52.932,52.933c-3.905,3.905-3.905,10.237,0,14.144
			c1.953,1.952,4.512,2.929,7.071,2.929c2.559,0,5.118-0.977,7.071-2.929l52.932-52.933
			C136.469,389.691,136.469,383.359,132.564,379.453z"/>
	</g>
</g>
<g>
	<g>
		<path d="M53.6,458.418c-1.86-1.859-4.44-2.93-7.07-2.93c-2.64,0-5.21,1.07-7.08,2.93c-1.86,1.86-2.92,4.44-2.92,7.07
			s1.06,5.21,2.92,7.07c1.87,1.859,4.44,2.93,7.08,2.93c2.63,0,5.21-1.07,7.07-2.93c1.859-1.86,2.92-4.44,2.92-7.07
			S55.459,460.278,53.6,458.418z"/>
	</g>
</g>
<g>
</g>
<g>
</g>
<g>
</g>
<g>
</g>
<g>
</g>
<g>
</g>
<g>
</g>
<g>
</g>
<g>
</g>
<g>
</g>
<g>
</g>
<g>
</g>
<g>
</g>
<g>
</g>
<g>
</g>
</svg>
