<?xml version="1.0" encoding="iso-8859-1"?>
<!-- Generator: Adobe Illustrator 19.0.0, SVG Export Plug-In . SVG Version: 6.00 Build 0)  -->
<svg version="1.1" id="Capa_1" xmlns="http://www.w3.org/2000/svg" xmlns:xlink="http://www.w3.org/1999/xlink" x="0px" y="0px"
	 viewBox="0 0 512.001 512.001" style="enable-background:new 0 0 512.001 512.001;" xml:space="preserve">
<g>
	<g>
		<path d="M482.007,0c-16.54,0-29.995,13.456-29.995,29.995v61.981h-9.673H69.662H59.99v-61.98C59.99,13.457,46.534,0,29.995,0
			S0,13.457,0,29.996v71.981v66.983c0,3.268,1.575,6.161,3.999,7.985v19.008c0,14.334,11.662,25.996,25.996,25.996
			s25.996-11.662,25.996-25.996v-16.993h8.179l11.05,17.377c2.964,4.66,9.144,6.035,13.805,3.072l13.572-8.631l8.631,13.573
			c1.423,2.237,3.677,3.818,6.266,4.395c2.591,0.577,5.301,0.101,7.539-1.322l13.572-8.631l6.821,10.726
			c-13.326,11.267-24.917,24.522-34.307,39.31c-0.473,0.597-0.869,1.233-1.186,1.898C93.815,276.857,84.5,307.61,84.5,340.5
			c0,39.314,12.943,76.299,37.43,106.956c23.763,29.749,57.127,50.995,93.948,59.823c5.37,1.286,10.769-2.023,12.056-7.394
			c1.287-5.371-2.022-10.768-7.394-12.056C152.218,471.451,104.5,410.866,104.5,340.5c0-25.062,6.123-48.719,16.943-69.563
			c8.858,7.551,19.252,13.391,30.307,16.988c1.027,0.335,2.07,0.494,3.096,0.494c4.214,0,8.133-2.685,9.507-6.909
			c1.709-5.251-1.163-10.895-6.415-12.603c-9.607-3.126-18.573-8.434-25.937-15.347C159.436,214.547,204.788,189,256,189
			c35.666,0,68.486,12.396,94.396,33.095c-3.542,11.718-11.095,21.799-21.391,28.472c-4.635,3.003-5.957,9.195-2.953,13.83
			c1.914,2.954,5.124,4.563,8.401,4.563c1.863,0,3.748-0.521,5.429-1.609c11.619-7.529,20.716-18.195,26.351-30.662
			c25.57,27.136,41.267,63.674,41.267,103.813c0,58.593-34.018,111.006-84.737,136.012c0.602-13.656-3.419-27.229-11.625-38.429
			c-3.264-4.455-9.521-5.423-13.977-2.156c-4.455,3.264-5.421,9.521-2.156,13.977c6.93,9.459,9.422,21.445,6.837,32.885
			l-0.522,2.309c-4.812,1.508-9.731,2.791-14.752,3.819c-5.41,1.108-8.897,6.393-7.79,11.804c0.97,4.733,5.136,7.995,9.786,7.995
			c0.665,0,1.341-0.066,2.018-0.205c38.131-7.81,72.851-28.737,97.761-58.927C413.594,418.982,427.5,380.242,427.5,340.5
			c0-51.175-22.538-97.178-58.201-128.628c-0.586-0.665-1.26-1.257-2.016-1.752c-0.451-0.386-0.905-0.77-1.361-1.151l6.306-9.917
			l13.929,8.857c4.663,2.964,10.842,1.587,13.805-3.072l8.857-13.929l13.929,8.857c4.662,2.964,10.841,1.587,13.805-3.072
			l11.277-17.733h8.179v16.993c0,14.334,11.662,25.996,25.996,25.996c14.334,0,25.996-11.662,25.996-25.996v-19.007
			c2.425-1.825,4-4.718,4-7.986v-66.983V29.996C512.001,13.457,498.546,0,482.007,0z M20,29.996C20,24.484,24.483,20,29.995,20
			s9.995,4.483,9.995,9.995v61.981H20V29.996z M35.991,195.954c0,3.307-2.689,5.996-5.996,5.996s-5.996-2.689-5.996-5.996v-16.994
			h11.992V195.954z M59.662,158.961H20.588H20v-46.983h39.662V158.961z M432.339,166.047l-7.297,11.476l-13.929-8.857
			c-4.663-2.964-10.843-1.587-13.805,3.072l-8.857,13.93l-13.929-8.857c-4.663-2.964-10.842-1.586-13.805,3.072l-10.894,17.132
			C322.845,179.314,290.607,169,256,169c-34.909,0-67.408,10.493-94.529,28.478l-11.355-17.856
			c-2.965-4.661-9.145-6.037-13.805-3.072l-13.572,8.631l-8.631-13.573c-1.423-2.237-3.677-3.818-6.266-4.395
			c-2.591-0.576-5.301-0.101-7.539,1.322l-13.572,8.631l-7.069-11.117v-54.073h352.677V166.047z M488.001,195.954
			c0,3.307-2.689,5.996-5.996,5.996s-5.996-2.689-5.996-5.996v-16.994h11.992V195.954z M492.001,158.961h-0.589h-39.073v-46.983
			h39.662V158.961z M492.001,91.977h-19.989V29.996h0c0-5.512,4.483-9.995,9.995-9.995c5.511,0,9.994,4.483,9.994,9.995V91.977z"/>
	</g>
</g>
<g>
	<g>
		<path d="M326.032,132.233h-65.136c-5.522,0-10,4.478-10,10c0,5.522,4.478,10,10,10h65.136c5.522,0,10-4.478,10-10
			C336.032,136.711,331.555,132.233,326.032,132.233z"/>
	</g>
</g>
<g>
	<g>
		<path d="M368.91,135.161c-1.86-1.861-4.431-2.931-7.07-2.931c-2.63,0-5.21,1.07-7.07,2.931c-1.859,1.859-2.93,4.439-2.93,7.069
			s1.07,5.21,2.93,7.07s4.44,2.93,7.07,2.93c2.64,0,5.21-1.069,7.07-2.93c1.859-1.86,2.93-4.44,2.93-7.07
			S370.77,137.02,368.91,135.161z"/>
	</g>
</g>
<g>
	<g>
		<path d="M256.089,492h-0.176c-5.522,0-10,4.478-10,10c0,5.522,4.478,10,10,10h0.176c5.522,0,10-4.478,10-10
			C266.089,496.478,261.611,492,256.089,492z"/>
	</g>
</g>
<g>
	<g>
		<path d="M377.607,293.591c-1.985-5.155-7.773-7.723-12.926-5.738c-5.154,1.985-7.723,7.772-5.738,12.926
			c15.673,40.69,5.882,86.899-24.942,117.723c-3.905,3.905-3.905,10.237,0,14.142c1.953,1.952,4.512,2.929,7.071,2.929
			s5.118-0.977,7.071-2.929C384.553,396.235,396.118,341.654,377.607,293.591z"/>
	</g>
</g>
<g>
	<g>
		<path d="M177.999,418.501c-28.285-28.283-39.048-69.781-28.091-108.298c1.512-5.312-1.569-10.843-6.882-12.354
			c-5.313-1.514-10.843,1.569-12.354,6.882c-12.941,45.49-0.226,94.503,33.185,127.913c1.953,1.952,4.512,2.929,7.071,2.929
			c2.559,0,5.118-0.977,7.071-2.929C181.904,428.739,181.904,422.407,177.999,418.501z"/>
	</g>
</g>
<g>
	<g>
		<path d="M302.711,218.817c-42.419-16.257-90.971-9.054-126.709,18.803c-4.356,3.395-5.135,9.679-1.739,14.034
			c1.971,2.53,4.917,3.853,7.893,3.852c2.149,0,4.314-0.689,6.141-2.113c30.245-23.573,71.343-29.667,107.256-15.9
			c5.157,1.977,10.94-0.601,12.917-5.759C310.447,226.577,307.868,220.794,302.711,218.817z"/>
	</g>
</g>
<g>
	<g>
		<path d="M256,255.5c-46.869,0-85,38.131-85,85c0,5.522,4.478,10,10,10c5.522,0,10-4.477,10-10c0-35.841,29.159-65,65-65
			s65,29.159,65,65s-29.159,65-65,65c-5.522,0-10,4.478-10,10c0,5.522,4.478,10,10,10c46.869,0,85-38.131,85-85
			C341,293.631,302.869,255.5,256,255.5z"/>
	</g>
</g>
<g>
	<g>
		<path d="M287,330.5c-5.522,0-10,4.478-10,10c0,11.579-9.421,21-21,21c-11.579,0-21-9.421-21-21c0-11.579,9.421-21,21-21
			c5.522,0,10-4.478,10-10c0-5.522-4.478-10-10-10c-22.607,0-41,18.393-41,41s18.393,41,41,41s41-18.393,41-41
			C297,334.978,292.522,330.5,287,330.5z"/>
	</g>
</g>
<g>
	<g>
		<path d="M326.85,54h-87.904c-5.522,0-10,4.478-10,10s4.478,10,10,10h87.904c5.522,0,10-4.478,10-10
			C336.85,58.478,332.372,54,326.85,54z"/>
	</g>
</g>
<g>
	<g>
		<path d="M394.831,54H368.02c-5.522,0-10,4.478-10,10s4.477,10,10,10h26.811c5.522,0,10-4.478,10-10
			C404.831,58.478,400.353,54,394.831,54z"/>
	</g>
</g>
<g>
	<g>
		<path d="M182.404,14H94.5c-5.522,0-10,4.478-10,10s4.478,10,10,10h87.904c5.522,0,10-4.478,10-10S187.926,14,182.404,14z"/>
	</g>
</g>
<g>
	<g>
		<path d="M250.384,14h-26.812c-5.522,0-10,4.478-10,10s4.478,10,10,10h26.812c5.522,0,10-4.478,10-10S255.906,14,250.384,14z"/>
	</g>
</g>
<g>
</g>
<g>
</g>
<g>
</g>
<g>
</g>
<g>
</g>
<g>
</g>
<g>
</g>
<g>
</g>
<g>
</g>
<g>
</g>
<g>
</g>
<g>
</g>
<g>
</g>
<g>
</g>
<g>
</g>
</svg>
