<?xml version="1.0" encoding="iso-8859-1"?>
<!-- Generator: Adobe Illustrator 19.0.0, SVG Export Plug-In . SVG Version: 6.00 Build 0)  -->
<svg version="1.1" id="Capa_1" xmlns="http://www.w3.org/2000/svg" xmlns:xlink="http://www.w3.org/1999/xlink" x="0px" y="0px"
	 viewBox="0 0 512.001 512.001" style="enable-background:new 0 0 512.001 512.001;" xml:space="preserve">
<g>
	<g>
		<path d="M70,171.008c-5.52,0-10,4.48-10,10s4.48,10,10,10s10-4.48,10-10S75.52,171.008,70,171.008z"/>
	</g>
</g>
<g>
	<g>
		<path d="M501.389,238.126c6.851-7.41,10.612-16.975,10.612-27.118c-0.001-22.056-17.945-40-40.001-40H324.994
			c-4.646-22.795-24.847-40-48.994-40H126.652L84.297,60.425C72.931,41.47,48.37,35.326,29.416,46.713
			c-18.954,11.371-25.089,35.924-13.711,54.88l17.645,29.415H30c-16.542,0-30,13.458-30,30v80c0,27.57,22.43,50,50,50h30
			c0,10.342,0,95.058,0,105.381c-11.944,6.927-20,19.846-20,34.619c0,22.056,17.944,40,40,40c22.056,0,40-17.944,40-40
			c0-7.283-1.966-14.212-5.381-20.1h236.763c-3.415,5.888-5.381,12.817-5.381,20.1c0,22.056,17.944,40,40,40
			c22.056,0,40-17.944,40-40c0-14.773-8.056-27.691-20-34.619c0-10.323,0-95.039,0-105.381h56c16.542,0,30-13.458,30-30
			C512.001,252.445,508.412,244.097,501.389,238.126z M32.854,91.302c-5.688-9.475-2.627-21.753,6.856-27.441
			c9.472-5.689,21.751-2.629,27.436,6.853l36.182,60.295H56.672L32.854,91.302z M100,451.008c-11.028,0-20-8.972-20-20
			s8.972-20,20-20s20,8.971,20,20C120,442.036,111.028,451.008,100,451.008z M100,391.008v-20c13.117,0,279.564,0,306,0v20H100z
			 M100,351.008v-60h20v60H100z M140,351.008v-60h226v60H140z M386,351.008v-60h20v60H386z M406,451.008c-11.028,0-20-8.972-20-20
			s8.972-20,20-20s20,8.972,20,20S417.028,451.008,406,451.008z M482,271.008H50c-16.542,0-30-13.458-30-30v-80
			c0-5.514,4.486-10,10-10c12.785,0,232.628,0,246,0c16.542,0,30,13.458,30,30v60c0,5.522,4.477,10,10,10c17.668,0,139.45,0,166,0
			c5.522,0,10,4.479,10,10C492,266.521,487.514,271.008,482,271.008z M486.139,225.147c-3.78,3.779-8.801,5.861-14.139,5.861H326
			v-40h146c11.028,0,20,8.971,20,20C492,216.346,489.918,221.367,486.139,225.147z"/>
	</g>
</g>
<g>
	<g>
		<path d="M256,171.008H110c-5.523,0-10,4.478-10,10c0,5.522,4.477,10,10,10h146c5.523,0,10-4.478,10-10
			C266,175.486,261.523,171.008,256,171.008z"/>
	</g>
</g>
<g>
</g>
<g>
</g>
<g>
</g>
<g>
</g>
<g>
</g>
<g>
</g>
<g>
</g>
<g>
</g>
<g>
</g>
<g>
</g>
<g>
</g>
<g>
</g>
<g>
</g>
<g>
</g>
<g>
</g>
</svg>
