<?xml version="1.0" encoding="iso-8859-1"?>
<!-- Generator: Adobe Illustrator 19.0.0, SVG Export Plug-In . SVG Version: 6.00 Build 0)  -->
<svg version="1.1" id="Capa_1" xmlns="http://www.w3.org/2000/svg" xmlns:xlink="http://www.w3.org/1999/xlink" x="0px" y="0px"
	 viewBox="0 0 512 512" style="enable-background:new 0 0 512 512;" xml:space="preserve">
<g>
	<g>
		<path d="M130.159,335.844c-1.86-1.859-4.44-2.93-7.07-2.93s-5.21,1.07-7.07,2.93c-1.859,1.86-2.93,4.44-2.93,7.07
			c0,2.64,1.07,5.21,2.93,7.07c1.86,1.86,4.44,2.93,7.07,2.93s5.21-1.07,7.07-2.93c1.859-1.86,2.93-4.44,2.93-7.07
			C133.088,340.284,132.018,337.704,130.159,335.844z"/>
	</g>
</g>
<g>
	<g>
		<path d="M487.384,139.064c-0.66-2.579-2.322-4.79-4.617-6.14c-2.294-1.352-5.037-1.729-7.609-1.055l-84.037,22.054l-11.984-49.148
			l80.526-20.377c2.595-0.656,4.818-2.326,6.173-4.635c1.354-2.31,1.727-5.065,1.032-7.65c-7.02-26.171-24.032-47.644-47.902-60.465
			c-23.87-12.82-51.168-15.145-76.862-6.545c-27.156,9.091-50.068,26.38-66.259,50c-16.19,23.621-24.052,51.227-22.733,79.833
			l1.215,26.392c1.014,22.001-7.338,43.551-22.911,59.125l-92.893,92.892c-3.905,3.905-3.905,10.237,0,14.142
			c3.906,3.904,10.236,3.905,14.142,0l92.893-92.892c19.541-19.541,30.02-46.581,28.747-74.186l-1.215-26.392
			c-2.264-49.126,28.728-94.338,75.362-109.948c20.41-6.831,42.091-4.985,61.053,5.198c15.939,8.562,28.03,21.98,34.791,38.39
			L364.621,87.82c-5.321,1.347-8.563,6.73-7.263,12.063l34.488,141.428c-44.848,15.558-86.048,41.328-119.627,74.907L107.62,480.815
			c-14.927,14.927-39.216,14.927-54.144,0c-14.927-14.927-14.927-39.216,0-54.143l51.936-51.936c3.905-3.905,3.905-10.237,0-14.142
			c-3.906-3.904-10.236-3.904-14.142,0L39.334,412.53c-22.724,22.725-22.724,59.701,0,82.427C50.697,506.319,65.622,512,80.547,512
			c14.926,0,29.852-5.682,41.214-17.043l164.598-164.598c33.52-33.52,75.145-58.73,120.378-72.907
			c5.03-1.576,7.974-6.789,6.724-11.911l-2.668-10.94l23.472-5.986c19.059-4.859,35.082-16.852,45.115-33.77
			C489.415,177.93,492.257,158.12,487.384,139.064z M462.181,184.644c-7.308,12.32-18.976,21.054-32.855,24.594l-23.269,5.934
			l-10.197-41.814l73.735-19.35C470.272,164.66,467.745,175.262,462.181,184.644z"/>
	</g>
</g>
<g>
	<g>
		<path d="M98.965,435.256c-10.174-10.174-26.729-10.174-36.903,0c-10.175,10.175-10.175,26.729,0,36.904
			c5.088,5.087,11.769,7.631,18.451,7.631c6.682,0,13.364-2.544,18.451-7.631c0.001,0,0.001,0,0.001-0.001
			C109.138,461.985,109.138,445.431,98.965,435.256z M84.823,458.018c-2.376,2.376-6.244,2.378-8.62,0
			c-2.377-2.377-2.377-6.243,0-8.62c1.188-1.188,2.749-1.782,4.311-1.782c1.561,0,3.121,0.594,4.31,1.781
			C87.199,451.775,87.199,455.641,84.823,458.018z"/>
	</g>
</g>
<g>
	<g>
		<path d="M280.173,254.058c-1.87-1.87-4.439-2.93-7.08-2.93c-2.63,0-5.21,1.06-7.07,2.93c-1.859,1.86-2.92,4.431-2.92,7.07
			c0,2.63,1.061,5.21,2.92,7.07c1.86,1.859,4.44,2.93,7.07,2.93s5.21-1.071,7.08-2.93c1.86-1.86,2.92-4.44,2.92-7.07
			C283.093,258.488,282.033,255.918,280.173,254.058z"/>
	</g>
</g>
<g>
	<g>
		<path d="M254.168,280.053c-3.906-3.904-10.236-3.904-14.142,0L113.9,406.18c-3.905,3.905-3.905,10.237,0,14.142
			c1.953,1.952,4.511,2.928,7.071,2.928s5.118-0.977,7.071-2.929l126.126-126.126C258.073,290.291,258.073,283.959,254.168,280.053z
			"/>
	</g>
</g>
<g>
	<g>
		<path d="M363.415,197.804l-20.259-80.149c-1.349-5.334-6.748-8.577-12.094-7.258l-35.621,8.799
			c-5.35,1.321-8.622,6.723-7.316,12.077l19.77,81.077c0.637,2.616,2.304,4.865,4.623,6.237c1.556,0.921,3.316,1.394,5.092,1.394
			c0.871,0,1.745-0.113,2.601-0.344l36.109-9.727C361.594,208.488,364.753,203.097,363.415,197.804z M315.117,157.548l-5.201-21.329
			l16.286-4.023l5.492,21.727L315.117,157.548z M324.899,197.661l-5.042-20.675l16.741-3.662l5.014,19.835L324.899,197.661z"/>
	</g>
</g>
<g>
	<g>
		<path d="M472.647,342.603l-59.998-34.64c-3.094-1.787-6.906-1.787-10,0l-59.998,34.64c-3.094,1.786-5,5.088-5,8.66v69.279
			c0,3.572,1.906,6.874,5,8.66l59.998,34.641c1.547,0.894,3.273,1.34,5,1.34s3.453-0.446,5-1.34l59.998-34.641
			c3.094-1.786,5-5.088,5-8.66v-69.279C477.647,347.691,475.741,344.389,472.647,342.603z M457.648,414.769l-49.998,28.867
			l-49.998-28.867v-57.733l49.998-28.866l49.998,28.866V414.769z"/>
	</g>
</g>
<g>
	<g>
		<path d="M407.65,353.904c-17.644,0-31.999,14.354-31.999,31.999s14.354,31.999,31.999,31.999
			c17.644,0,31.999-14.354,31.999-31.999S425.294,353.904,407.65,353.904z M407.65,397.903c-6.617,0-12-5.383-12-12
			c0-6.617,5.383-12,12-12c6.617,0,12,5.383,12,12C419.649,392.52,414.266,397.903,407.65,397.903z"/>
	</g>
</g>
<g>
</g>
<g>
</g>
<g>
</g>
<g>
</g>
<g>
</g>
<g>
</g>
<g>
</g>
<g>
</g>
<g>
</g>
<g>
</g>
<g>
</g>
<g>
</g>
<g>
</g>
<g>
</g>
<g>
</g>
</svg>
