<?xml version="1.0" encoding="iso-8859-1"?>
<!-- Generator: Adobe Illustrator 19.0.0, SVG Export Plug-In . SVG Version: 6.00 Build 0)  -->
<svg version="1.1" id="Capa_1" xmlns="http://www.w3.org/2000/svg" xmlns:xlink="http://www.w3.org/1999/xlink" x="0px" y="0px"
	 viewBox="0 0 512 512" style="enable-background:new 0 0 512 512;" xml:space="preserve">
<g>
	<g>
		<path d="M18.158,494.93c-1.86-1.861-4.44-2.93-7.07-2.93s-5.21,1.069-7.07,2.93c-1.87,1.86-2.93,4.44-2.93,7.07
			s1.06,5.21,2.93,7.069c1.86,1.86,4.44,2.931,7.07,2.931s5.21-1.07,7.07-2.931c1.86-1.859,2.93-4.439,2.93-7.069
			S20.018,496.79,18.158,494.93z"/>
	</g>
</g>
<g>
	<g>
		<path d="M83.328,429.75c-1.86-1.86-4.44-2.92-7.07-2.92s-5.21,1.06-7.07,2.92c-1.86,1.87-2.93,4.45-2.93,7.08
			c0,2.63,1.07,5.2,2.93,7.069c1.86,1.86,4.44,2.931,7.07,2.931s5.21-1.07,7.07-2.931c1.86-1.859,2.93-4.439,2.93-7.069
			C86.258,434.189,85.188,431.62,83.328,429.75z"/>
	</g>
</g>
<g>
	<g>
		<path d="M210.178,364.04c-1.86-1.87-4.44-2.931-7.07-2.931s-5.21,1.061-7.08,2.931c-1.86,1.859-2.92,4.43-2.92,7.069
			c0,2.631,1.06,5.21,2.92,7.07c1.87,1.86,4.45,2.93,7.08,2.93s5.2-1.069,7.07-2.93c1.86-1.86,2.93-4.439,2.93-7.07
			C213.108,368.469,212.038,365.899,210.178,364.04z"/>
	</g>
</g>
<g>
	<g>
		<path d="M507.983,181.024l-57.398-57.398l-61.121-61.12c-0.002-0.002-0.003-0.003-0.005-0.005l-29.817-29.817
			c-0.712-0.711-1.527-1.312-2.417-1.779L300.635,1.15C299.2,0.395,297.602,0,295.981,0h-40.662c-4.047,0-7.696,2.439-9.242,6.181
			c-1.546,3.74-0.685,8.044,2.182,10.901L269.542,38.3c-7.147,1.74-13.919,5.396-19.49,10.967
			c-5.462,5.462-9.212,12.179-10.99,19.499l-21.165-21.164c-2.861-2.861-7.165-3.714-10.904-2.165
			c-3.738,1.551-6.172,5.202-6.167,9.249l0.053,40.43c0.002,1.617,0.396,3.21,1.149,4.642l26.328,50.071l-63.312,63.312
			c-3.905,3.905-3.905,10.237,0,14.143l22.746,22.746L12.763,425.055c-3.905,3.905-3.906,10.237,0,14.143l23.491,23.492
			l-8.596,8.596c-3.905,3.905-3.905,10.237,0,14.143c1.953,1.952,4.512,2.929,7.071,2.929s5.119-0.977,7.071-2.929l8.596-8.596
			l23.491,23.491c1.875,1.875,4.419,2.929,7.071,2.929c2.652,0,5.196-1.054,7.071-2.929l94.008-94.009
			c3.905-3.905,3.905-10.237,0-14.143c-3.905-3.904-10.237-3.904-14.143,0L80.957,479.11l-46.983-46.983l49.983-49.983
			l10.798,10.798c1.953,1.952,4.512,2.929,7.071,2.929s5.119-0.977,7.071-2.929c3.905-3.905,3.906-10.237,0-14.143l-10.798-10.798
			l22.533-22.532l10.798,10.798c1.953,1.952,4.512,2.929,7.071,2.929c2.559,0,5.119-0.977,7.071-2.929
			c3.905-3.905,3.906-10.237,0-14.143l-10.798-10.798l22.533-22.533l10.798,10.798c1.953,1.952,4.512,2.929,7.071,2.929
			c2.559,0,5.119-0.977,7.071-2.929c3.905-3.905,3.906-10.237,0-14.143l-10.798-10.798l22.533-22.532l10.789,10.789
			c1.953,1.952,4.512,2.929,7.071,2.929c2.559,0,5.119-0.977,7.071-2.929c3.905-3.905,3.905-10.237,0-14.143l-3.365-3.365
			c0.325-0.253,0.642-0.52,0.937-0.815l21.657-21.657l3.312,3.312c1.953,1.952,4.512,2.929,7.071,2.929
			c2.559,0,5.119-0.977,7.071-2.929c3.905-3.905,3.905-10.237,0-14.143l-3.312-3.312l22.532-22.532l3.313,3.313
			c1.953,1.952,4.512,2.929,7.071,2.929s5.119-0.977,7.071-2.929c3.905-3.905,3.905-10.237,0-14.143l-3.313-3.313l22.533-22.533
			l3.313,3.313c1.953,1.952,4.512,2.929,7.071,2.929s5.119-0.977,7.071-2.929c3.905-3.905,3.905-10.237,0-14.143l-9.605-9.605
			c-0.229-0.286-0.47-0.563-0.731-0.824l-0.415-0.415l22.487-22.487l10.798,10.799c1.953,1.952,4.512,2.929,7.071,2.929
			s5.119-0.977,7.071-2.929c3.905-3.905,3.906-10.237,0-14.143l-10.798-10.799l1.015-1.015c0.003-0.003,0.007-0.006,0.01-0.009
			l26.535-26.535l46.983,46.983l-63.884,63.884l-0.383-0.383c-3.905-3.904-10.237-3.904-14.143,0l-102.12,102.125
			c-3.905,3.905-3.905,10.237,0,14.143l0.383,0.383l-29.187,29.188c-3.905,3.905-3.905,10.237,0,14.143
			c1.953,1.952,4.512,2.929,7.071,2.929s5.119-0.977,7.071-2.929l29.187-29.188l15.292,15.292c1.953,1.952,4.512,2.929,7.071,2.929
			s5.119-0.977,7.071-2.929l45.171-45.171l6.201,6.201l-2.045,2.045c-3.905,3.905-3.905,10.237,0,14.143
			c1.953,1.952,4.512,2.929,7.071,2.929s5.119-0.977,7.071-2.929l18.117-18.117c3.905-3.905,3.905-10.237,0-14.143
			c-3.905-3.904-10.237-3.904-14.142,0l-1.929,1.929l-6.2-6.2l35.74-35.74l27.964,27.964c1.913,1.912,4.47,2.929,7.073,2.929
			c1.276,0,2.563-0.244,3.789-0.746c3.729-1.528,6.177-5.146,6.208-9.177l0.373-48.08c0.021-2.679-1.034-5.254-2.928-7.148
			l-26.473-26.474l15.43-15.43l26.473,26.473c1.876,1.876,4.42,2.929,7.071,2.929c0.026,0,0.052,0,0.078,0l48.081-0.373
			c4.03-0.031,7.648-2.479,9.176-6.209C511.693,188.157,510.832,183.875,507.983,181.024z M264.193,63.408
			c4.203-4.203,9.724-6.305,15.245-6.305s11.042,2.103,15.245,6.306c4.072,4.071,6.314,9.485,6.314,15.244
			c0,5.759-2.243,11.173-6.314,15.245c-8.405,8.405-22.079,8.404-30.486,0.004l-0.009-0.009
			C255.787,85.487,255.788,71.813,264.193,63.408z M231.079,221.709c-0.002,0.002-0.003,0.003-0.005,0.005
			c-0.002,0.002-0.003,0.003-0.005,0.005l-21.652,21.652l-23.16-23.16l61.448-61.447c3.097-3.097,3.818-7.849,1.78-11.726
			l-28.61-54.41l-0.018-13.781l29.18,29.18c0.005,0.005,0.009,0.01,0.013,0.014c0.004,0.004,0.009,0.009,0.014,0.013l47.335,47.335
			L231.079,221.709z M304.055,133.76l-14.747-14.747c7.157-1.738,13.939-5.395,19.517-10.972
			c5.487-5.488,9.243-12.241,11.012-19.599l14.791,14.746L304.055,133.76z M348.771,89.046L279.513,20h13.999l53.061,27.899
			l21.672,21.673L348.771,89.046z M330.904,273.891c-0.002,0.002-0.005,0.004-0.008,0.007s-0.004,0.005-0.007,0.008l-45.164,45.163
			l-15.675-15.675l87.982-87.981l15.675,15.675L330.904,273.891z M413.226,222.152l-0.155,20.013l-21.877-21.877
			c-0.002-0.002-0.003-0.003-0.005-0.005l-11.56-11.56l10.084-10.084L413.226,222.152z M456.941,178.437l-23.512-23.512
			l10.084-10.084l33.442,33.441L456.941,178.437z"/>
	</g>
</g>
<g>
</g>
<g>
</g>
<g>
</g>
<g>
</g>
<g>
</g>
<g>
</g>
<g>
</g>
<g>
</g>
<g>
</g>
<g>
</g>
<g>
</g>
<g>
</g>
<g>
</g>
<g>
</g>
<g>
</g>
</svg>
