<?xml version="1.0" encoding="iso-8859-1"?>
<!-- Generator: Adobe Illustrator 19.0.0, SVG Export Plug-In . SVG Version: 6.00 Build 0)  -->
<svg version="1.1" id="Capa_1" xmlns="http://www.w3.org/2000/svg" xmlns:xlink="http://www.w3.org/1999/xlink" x="0px" y="0px"
	 viewBox="0 0 512 512" style="enable-background:new 0 0 512 512;" xml:space="preserve">
<g>
	<g>
		<path d="M335.975,449c-5.52,0-10,4.48-10,10c0,5.52,4.48,10,10,10c5.52,0,10-4.48,10-10C345.975,453.48,341.495,449,335.975,449z"
			/>
	</g>
</g>
<g>
	<g>
		<path d="M175.975,43c-5.52,0-10,4.48-10,10s4.48,10,10,10s10-4.48,10-10S181.495,43,175.975,43z"/>
	</g>
</g>
<g>
	<g>
		<path d="M446.532,500.382c-6.143-37.266-14.057-69.584-27.409-105.515c-23.553-63.382-55.076-109.992-93.826-138.81
			C395.111,204.286,432.73,97.345,445.664,11.471c0.907-6.024-3.855-11.386-9.881-11.39c-13.954-0.011-28.966-0.03-40.451-0.061
			c-0.009,0-0.018,0-0.026,0c-4.889,0-9.062,3.435-9.864,8.259c-0.969,5.825-3.25,18.405-7.243,34.721H212.815
			c-5.522,0-10,4.478-10,10s4.478,9.9,10,9.9h160.082c-3.822,13.365-8.604,28.16-14.485,43.1H153.039
			c-17.428-43.856-25.309-85.498-27.374-97.673C124.848,3.519,120.682,0,115.805,0h-40.47c-6.099,0-10.774,5.419-9.896,11.442
			c12.047,82.745,51.873,192.509,121.287,244.446C116.475,307.93,79.896,413.711,66.294,500.6c-0.853,6.035,3.842,11.4,9.901,11.4
			h40.45c4.888,0,9.059-3.533,9.863-8.354c0.972-5.819,3.254-18.373,7.238-34.646h165.389c5.522,0,10-4.478,10-10
			c0-5.522-4.478-10-10-10H139.049c3.823-13.368,8.605-28.067,14.483-43h205.775c12.327,30.785,21.123,61.985,26.622,95.513
			c0.146,0.895,0.271,1.657,0.377,2.275c0.813,4.813,4.982,8.032,9.858,8.032c0.017,0,0.033,0,0.05,0
			c12.399-0.061,28.217,0.01,40.468-0.01C442.826,511.8,447.539,506.485,446.532,500.382z M403.675,19.939
			c6.382,0.012,13.372,0.022,20.414,0.03C410.557,98.432,373.703,199.65,307.34,244.278c-7.008-4.009-14.236-7.479-21.643-10.394
			C353.672,196.17,389.285,96.081,403.675,19.939z M255.941,224.96c-20.56-6.25-39.566-19.321-56.702-38.96h113.24
			C295.415,205.614,276.464,218.684,255.941,224.96z M349.89,125.9c-6.836,14.82-14.263,28.312-22.182,40.1H183.953
			c-7.961-11.791-15.434-25.283-22.32-40.1H349.89z M108.266,492H87.868c13.531-78.437,50.385-179.682,116.779-224.303
			c6.998,4.016,14.219,7.493,21.623,10.412C158.269,315.823,122.47,416.328,108.266,492z M256.016,287.042
			c20.603,6.256,39.667,19.323,56.873,38.958H199.474C216.538,306.387,235.491,293.319,256.016,287.042z M162.057,386
			c6.841-14.824,14.27-28.216,22.186-40h143.998c7.985,11.774,15.493,25.167,22.421,40H162.057z M404.631,492.086
			c-15.005-87.247-62.307-205.781-150.879-226.332C155.456,243.199,104.899,118.902,87.065,20h20.395
			c16.783,87.274,60.442,201.625,145.844,225.015c0.072,0.021,0.146,0.039,0.218,0.058c7.421,2.036,25.613,5.034,48.824,19.514
			c50.587,31.535,81.231,92.042,98.03,137.247c14.502,39.024,21.743,74.373,24.54,90.198
			C418.238,492.046,411.212,492.062,404.631,492.086z"/>
	</g>
</g>
<g>
</g>
<g>
</g>
<g>
</g>
<g>
</g>
<g>
</g>
<g>
</g>
<g>
</g>
<g>
</g>
<g>
</g>
<g>
</g>
<g>
</g>
<g>
</g>
<g>
</g>
<g>
</g>
<g>
</g>
</svg>
