<?xml version="1.0" encoding="iso-8859-1"?>
<!-- Generator: Adobe Illustrator 19.0.0, SVG Export Plug-In . SVG Version: 6.00 Build 0)  -->
<svg version="1.1" id="Capa_1" xmlns="http://www.w3.org/2000/svg" xmlns:xlink="http://www.w3.org/1999/xlink" x="0px" y="0px"
	 viewBox="0 0 512 512" style="enable-background:new 0 0 512 512;" xml:space="preserve">
<g>
	<g>
		<path d="M256,152c-5.52,0-10,4.48-10,10s4.48,10,10,10s10-4.48,10-10S261.52,152,256,152z"/>
	</g>
</g>
<g>
	<g>
		<path d="M301,233.799c-22.734,0-36.83,13.443-45,25.858c-8.17-12.415-22.265-25.858-45-25.858c-32.191,0-55,26.814-55,58.851
			c0,41.852,38.544,67.128,93.451,114.706c1.879,1.629,4.214,2.443,6.549,2.443c2.335,0,4.671-0.814,6.55-2.443
			C317.538,359.693,356,334.473,356,292.65C356,260.577,333.16,233.799,301,233.799z M255.999,386.602
			C207.423,344.991,176,322.807,176,292.65c0-22.148,15.047-38.85,35-38.85c26.045,0,35.004,30.408,35.372,31.703
			c1.211,4.313,5.145,7.297,9.628,7.297c4.495,0,8.437-2.999,9.638-7.331c0.087-0.317,9.073-31.669,35.362-31.669
			c19.953,0,35,16.702,35,38.851C336,322.76,304.848,344.761,255.999,386.602z"/>
	</g>
</g>
<g>
	<g>
		<path d="M409.81,184.165l13.705-14.108c11.683-11.731,11.658-30.665-0.055-42.378c-11.723-11.723-30.697-11.725-42.422,0
			c-0.03,0.031-0.062,0.063-0.092,0.094l-16.06,16.486c-20.954-13.611-44.477-23.249-68.887-28.225V86h30c5.522,0,10-4.478,10-10V10
			c0-5.522-4.478-10-10-10H186c-5.523,0-10,4.478-10,10v66c0,5.522,4.477,10,10,10h30v30.012C123.838,134.757,56,216.142,56,312
			c0,110.28,89.72,200,200,200s200-89.72,200-200C456,265.067,439.662,220.037,409.81,184.165z M395.219,141.782
			c3.901-3.858,10.216-3.846,14.099,0.039c3.641,3.641,4.222,9.808-0.102,14.251l-12.968,13.349
			c-4.768-4.691-9.777-9.134-14.981-13.317L395.219,141.782z M196,66V20h120v46H196z M276,86v26.998
			c-13.264-1.313-26.736-1.313-40,0V86H276z M256,492c-99.252,0-180-80.748-180-180c0-100.713,80.768-180,180-180
			c98.63,0,180,79.81,180,180C436,411.252,355.252,492,256,492z"/>
	</g>
</g>
<g>
	<g>
		<path d="M298.295,157.677c-5.325-1.463-10.827,1.673-12.288,6.999s1.673,10.828,6.999,12.288C353.647,193.593,396,249.121,396,312
			c0,77.196-62.804,140-140,140s-140-62.804-140-140c0-5.522-4.477-10-10-10s-10,4.478-10,10c0,88.225,71.776,160,160,160
			c88.225,0,160-71.775,160-160C416,240.14,367.598,176.68,298.295,157.677z"/>
	</g>
</g>
<g>
</g>
<g>
</g>
<g>
</g>
<g>
</g>
<g>
</g>
<g>
</g>
<g>
</g>
<g>
</g>
<g>
</g>
<g>
</g>
<g>
</g>
<g>
</g>
<g>
</g>
<g>
</g>
<g>
</g>
</svg>
