<?xml version="1.0" encoding="iso-8859-1"?>
<!-- Generator: Adobe Illustrator 19.0.0, SVG Export Plug-In . SVG Version: 6.00 Build 0)  -->
<svg version="1.1" id="Capa_1" xmlns="http://www.w3.org/2000/svg" xmlns:xlink="http://www.w3.org/1999/xlink" x="0px" y="0px"
	 viewBox="0 0 512 512" style="enable-background:new 0 0 512 512;" xml:space="preserve">
<g>
	<g>
		<path d="M228.67,268.299c-1.86-1.869-4.44-2.94-7.07-2.94c-2.63,0-5.21,1.07-7.07,2.94c-1.86,1.85-2.93,4.43-2.93,7.07
			c0,2.63,1.07,5.199,2.93,7.069c1.86,1.86,4.44,2.931,7.07,2.931s5.21-1.07,7.07-2.931c1.86-1.87,2.93-4.439,2.93-7.069
			C231.6,272.728,230.53,270.148,228.67,268.299z"/>
	</g>
</g>
<g>
	<g>
		<path d="M186.334,265.366h-51.976c-5.523,0-10,4.478-10,10c0,5.522,4.477,10,10,10h51.976c5.523,0,10-4.478,10-10
			C196.334,269.844,191.857,265.366,186.334,265.366z"/>
	</g>
</g>
<g>
	<g>
		<path d="M276.378,225.366h-59.952c-5.523,0-10,4.478-10,10c0,5.522,4.477,10,10,10h59.952c5.523,0,10-4.478,10-10
			C286.378,229.844,281.901,225.366,276.378,225.366z"/>
	</g>
</g>
<g>
	<g>
		<path d="M487.446,499.551L441.591,318H475c5.523,0,10-4.478,10-10V204c0-5.522-4.477-10-10-10h-32.212l-23.506-39.722
			C411.149,140.536,396.177,132,380.21,132h-46.254l-17.827-43.462c-1.54-3.754-5.195-6.205-9.252-6.205h-30.5
			c-3.333,0-6.448,1.661-8.305,4.43s-2.212,6.281-0.947,9.365L281.84,132h-12.466l-31.037-53.984
			c-2.753-4.787-8.866-6.438-13.654-3.685c-4.788,2.752-6.438,8.865-3.685,13.653l32.59,56.686V158h-106.06c-5.523,0-10,4.478-10,10
			c0,5.522,4.477,10,10,10h106.059v16H37c-5.523,0-10,4.478-10,10v104c0,5.522,4.477,10,10,10h33.409L24.554,499.551
			c-0.755,2.99-0.089,6.161,1.806,8.594c1.895,2.433,4.806,3.855,7.89,3.855h35.014c4.35,0,8.202-2.813,9.525-6.956L109.476,409
			h293.048l30.688,96.044c1.324,4.144,5.175,6.956,9.525,6.956h35.014c3.083,0,5.995-1.423,7.89-3.855
			C487.535,505.712,488.202,502.541,487.446,499.551z M300.171,102.333L312.339,132h-8.882l-12.169-29.667H300.171z M273.587,152
			h23.163h30.499h52.961c8.934,0,17.31,4.776,21.86,12.464L419.548,194h-2.338h-23.17H273.587V152z M47,214h75.921L112,224.632
			c-7.266,7.073-16.851,10.968-26.99,10.968H47V214z M47,298v-42.4h38.009c15.38,0,29.919-5.908,40.941-16.637L151.592,214h111.996
			h92.605c-1.55,2.272-2.909,4.704-4.048,7.277l-14.489,32.754c-4.13,9.336-13.395,15.369-23.604,15.369h-23.17
			c-5.523,0-10,4.478-10,10c0,5.522,4.477,10,10,10h23.17c18.12,0,34.564-10.708,41.894-27.278l14.489-32.753
			c4.13-9.337,13.396-15.369,23.604-15.369H465v32h-65c-5.523,0-10,4.478-10,10s4.477,10,10,10h65v32H47z M61.96,492H47.089
			l43.948-174h26.519L61.96,492z M115.866,389l22.686-71h234.896l22.686,71H115.866z M450.04,492l-30.652-95.932
			c-0.01-0.032-0.021-0.064-0.031-0.096L394.444,318h26.519l43.948,174H450.04z"/>
	</g>
</g>
<g>
	<g>
		<path d="M193.547,121.957H75.168c-5.523,0-10,4.478-10,10c0,5.522,4.477,10,10,10h118.379c5.523,0,10-4.478,10-10
			C203.547,126.435,199.07,121.957,193.547,121.957z"/>
	</g>
</g>
<g>
	<g>
		<path d="M44.17,124.89c-1.86-1.87-4.44-2.93-7.07-2.93s-5.21,1.06-7.07,2.93c-1.86,1.86-2.93,4.43-2.93,7.07
			c0,2.63,1.07,5.21,2.93,7.07c1.86,1.86,4.44,2.93,7.07,2.93c2.63,0,5.21-1.07,7.07-2.93c1.86-1.86,2.93-4.44,2.93-7.07
			C47.1,129.319,46.03,126.75,44.17,124.89z"/>
	</g>
</g>
<g>
	<g>
		<path d="M363.266,20c2.279,0,4.132,1.854,4.132,4.133c0,5.522,4.477,10,10,10s10-4.478,10-10C387.399,10.826,376.573,0,363.267,0
			c-16.531,0-29.98,13.449-29.98,29.98c-0.001,21.091,17.157,38.249,38.248,38.249c5.523,0,10-4.478,10-10c0-5.522-4.477-10-10-10
			c-10.063,0-18.249-8.187-18.249-18.249C353.286,24.477,357.763,20,363.266,20z"/>
	</g>
</g>
<g>
	<g>
		<path d="M465.969,97.354c-5.523,0-10,4.478-10,10c0,5.308-4.318,9.625-9.625,9.625c-5.523,0-10,4.478-10,10
			c0,5.522,4.477,10,10,10c16.335,0,29.625-13.29,29.625-29.625C475.969,101.832,471.492,97.354,465.969,97.354z"/>
	</g>
</g>
<g>
	<g>
		<path d="M448,54c-6.963,0-12.627-5.664-12.627-12.627c0-5.522-4.477-10-10-10s-10,4.478-10,10C415.373,59.363,430.009,74,448,74
			c5.523,0,10-4.478,10-10C458,58.478,453.523,54,448,54z"/>
	</g>
</g>
<g>
	<g>
		<path d="M381.629,89.079c-3.905-3.904-10.237-3.904-14.142,0l-11.204,11.204c-3.905,3.905-3.905,10.237,0,14.143
			c1.953,1.952,4.512,2.929,7.071,2.929s5.119-0.977,7.071-2.929l11.204-11.204C385.534,99.317,385.534,92.985,381.629,89.079z"/>
	</g>
</g>
<g>
</g>
<g>
</g>
<g>
</g>
<g>
</g>
<g>
</g>
<g>
</g>
<g>
</g>
<g>
</g>
<g>
</g>
<g>
</g>
<g>
</g>
<g>
</g>
<g>
</g>
<g>
</g>
<g>
</g>
</svg>
