<?xml version="1.0" encoding="iso-8859-1"?>
<!-- Generator: Adobe Illustrator 19.0.0, SVG Export Plug-In . SVG Version: 6.00 Build 0)  -->
<svg version="1.1" id="Capa_1" xmlns="http://www.w3.org/2000/svg" xmlns:xlink="http://www.w3.org/1999/xlink" x="0px" y="0px"
	 viewBox="0 0 512 512" style="enable-background:new 0 0 512 512;" xml:space="preserve">
<g>
	<g>
		<path d="M188.432,143.54c-1.86-1.86-4.44-2.931-7.07-2.931s-5.21,1.07-7.07,2.931c-1.87,1.859-2.93,4.439-2.93,7.069
			c0,2.631,1.06,5.2,2.93,7.07c1.86,1.86,4.43,2.93,7.07,2.93c2.63,0,5.21-1.069,7.07-2.93c1.86-1.86,2.93-4.439,2.93-7.07
			C191.362,147.969,190.292,145.399,188.432,143.54z"/>
	</g>
</g>
<g>
	<g>
		<path d="M499.14,72.982L429.086,2.928c-3.905-3.904-10.237-3.904-14.143,0l-1.851,1.851c-9.486,9.487-14.71,22.1-14.71,35.515
			c0,8.073-3.144,15.663-8.853,21.371c-2.904,2.904-4.503,6.766-4.503,10.873c0,1.475,0.214,2.915,0.613,4.293l-13.22,13.22
			c-4.407,4.407-10.266,6.834-16.499,6.834c-6.233,0-12.093-2.427-16.5-6.834l-37.547-37.547
			c-14.985-14.984-34.908-23.237-56.098-23.237c-18.953,0-36.881,6.62-51.18,18.735c-9.896-4.734-22.133-3.014-30.321,5.173
			l-40.627,40.628L83.021,134.43c-5.026,5.025-7.794,11.708-7.794,18.816c0,4.146,0.948,8.144,2.731,11.756
			c-21.261,27.268-19.379,66.847,5.684,91.912l30.193,30.193c-0.011,0.188-0.028,0.375-0.028,0.563c0,2.652,1.054,5.195,2.929,7.071
			l30.13,30.13c0.002,0.002,0.003,0.003,0.005,0.005l7.082,7.082l-14.179,14.178l-7.082-7.082c-3.905-3.904-10.237-3.904-14.142,0
			L77.175,380.43c-1.875,1.876-2.929,4.419-2.929,7.071v38.227c0,2.132,0.69,4.186,1.931,5.887L36.772,471.02
			c-3.905,3.905-3.905,10.237,0,14.143c1.953,1.952,4.512,2.929,7.071,2.929c2.559,0,5.119-0.977,7.071-2.929l39.405-39.405
			c1.701,1.24,3.755,1.93,5.886,1.93h38.228c2.652,0,5.196-1.054,7.071-2.929l41.374-41.374c3.905-3.905,3.905-10.237,0-14.143
			l-5.88-5.88l14.178-14.178l5.881,5.881c1.875,1.875,4.419,2.929,7.071,2.929s5.196-1.054,7.071-2.929l27.892-27.892
			c3.905-3.905,3.905-10.237,0-14.143l-50.187-50.188c-0.002-0.002-0.004-0.003-0.005-0.005l-30.131-30.13
			c-0.319-0.319-0.658-0.602-1.007-0.868l-34.524-34.522c-3.343-3.344-4.566-8.011-3.681-12.329
			c2.896,1.033,5.935,1.553,8.976,1.553c6.814,0,13.629-2.594,18.816-7.781l15.534-15.534c3.905-3.905,3.905-10.237,0-14.143
			c-3.905-3.904-10.237-3.904-14.142,0l-15.534,15.534c-1.248,1.249-2.908,1.937-4.674,1.937c-1.765,0-3.425-0.688-4.673-1.937
			l-0.621-0.621l-25.455-25.455l-0.621-0.621c-1.249-1.248-1.937-2.908-1.937-4.674s0.688-3.426,1.937-4.674l33.556-33.556
			l15.066,15.066c1.953,1.952,4.512,2.929,7.071,2.929c2.559,0,5.119-0.977,7.071-2.929c3.905-3.905,3.905-10.237,0-14.143
			l-15.066-15.065l33.556-33.557c2.578-2.578,6.771-2.578,9.348,0l26.697,26.696c1.249,1.249,1.937,2.909,1.937,4.675
			s-0.688,3.426-1.937,4.674l-16.798,16.798c-3.905,3.905-3.905,10.237,0,14.143c3.905,3.904,10.237,3.904,14.143,0l16.797-16.798
			c5.026-5.025,7.794-11.708,7.794-18.816c0-3.634-0.728-7.155-2.107-10.403c3.465-1.966,7.393-3.019,11.485-3.019
			c6.232,0,12.092,2.428,16.5,6.835l37.547,37.547c14.964,14.963,34.886,23.204,56.097,23.204s41.134-8.241,56.098-23.204
			l13.22-13.22c1.378,0.399,2.819,0.613,4.294,0.613c4.107,0,7.969-1.599,10.873-4.503c5.708-5.709,13.298-8.854,21.372-8.854
			c13.416,0,26.029-5.225,35.514-14.71l1.851-1.851C503.044,83.219,503.044,76.887,499.14,72.982z M130.292,427.688h-29.943
			l-6.102-6.103v-29.941l5.367-5.367l36.044,36.045L130.292,427.688z M149.8,408.179l-36.044-36.045l11.865-11.865l7.079,7.079
			c0.001,0,0.001,0.001,0.002,0.002l23.083,23.083c0.003,0.003,0.006,0.005,0.009,0.008l5.872,5.872L149.8,408.179z M162.857,369.22
			l-8.941-8.941l14.178-14.178l8.94,8.94L162.857,369.22z M181.833,304.057l36.045,36.045l-13.749,13.749l-36.045-36.045
			L181.833,304.057z M151.698,273.922l15.993,15.993l-13.749,13.749l-15.993-15.992L151.698,273.922z M103.1,192.144
			c-6.626,12.658-4.627,28.691,5.995,39.315l28.39,28.39l-11.313,11.313l-28.39-28.39c-16.902-16.902-19.021-43.074-6.354-62.3
			L103.1,192.144z M397.875,115.507c-11.187,11.186-26.087,17.346-41.956,17.346c-15.869,0-30.768-6.16-41.954-17.347
			l-37.548-37.547c-8.186-8.185-19.068-12.692-30.642-12.692c-8.165,0-15.984,2.242-22.755,6.437l-11.54-11.539
			c9.956-7.08,21.833-10.897,34.295-10.897c15.848,0,30.748,6.172,41.955,17.38l37.547,37.547
			c8.185,8.185,19.067,12.691,30.643,12.691c11.575,0,22.457-4.507,30.642-12.691l11.876-11.876l11.313,11.313L397.875,115.507z
			 M461.776,83.685c-11.862,0-23.097,4.085-32.097,11.588L406.794,72.39c7.504-9,11.588-20.234,11.588-32.096
			c0-5.551,1.487-10.873,4.271-15.514l54.634,54.635C472.648,82.199,467.326,83.685,461.776,83.685z"/>
	</g>
</g>
<g>
	<g>
		<path d="M27.001,494.93c-1.86-1.861-4.429-2.93-7.07-2.93c-2.63,0-5.21,1.069-7.07,2.93c-1.86,1.861-2.93,4.44-2.93,7.07
			s1.07,5.21,2.93,7.069c1.86,1.86,4.44,2.931,7.07,2.931c2.64,0,5.21-1.07,7.07-2.931c1.87-1.859,2.93-4.439,2.93-7.069
			S28.871,496.79,27.001,494.93z"/>
	</g>
</g>
<g>
</g>
<g>
</g>
<g>
</g>
<g>
</g>
<g>
</g>
<g>
</g>
<g>
</g>
<g>
</g>
<g>
</g>
<g>
</g>
<g>
</g>
<g>
</g>
<g>
</g>
<g>
</g>
<g>
</g>
</svg>
