<?xml version="1.0" encoding="iso-8859-1"?>
<!-- Generator: Adobe Illustrator 19.0.0, SVG Export Plug-In . SVG Version: 6.00 Build 0)  -->
<svg version="1.1" id="Capa_1" xmlns="http://www.w3.org/2000/svg" xmlns:xlink="http://www.w3.org/1999/xlink" x="0px" y="0px"
	 viewBox="0 0 512 512" style="enable-background:new 0 0 512 512;" xml:space="preserve">
<g>
	<g>
		<path d="M511.659,51.253c-0.925-3.451-3.62-6.146-7.072-7.072L407.327,18.12c-3.452-0.926-7.134,0.063-9.66,2.588L285.92,132.456
			l-31.088-11.637c-3.671-1.374-7.807-0.477-10.578,2.294l-31.205,31.204c-3.905,3.905-3.906,10.238,0,14.144
			c3.906,3.904,10.239,3.905,14.143,0l26.654-26.653l60.165,22.523l37.839,76.527l-83.011,83.01c-3.905,3.905-3.905,10.238,0,14.144
			c1.953,1.952,4.512,2.929,7.072,2.929c2.559,0,5.119-0.977,7.072-2.929l88.083-88.083c3.032-3.032,3.793-7.661,1.893-11.505
			l-13.696-27.7L509.071,60.914C511.597,58.387,512.584,54.704,511.659,51.253z M349.905,191.794l-19.717-39.876
			c-1.126-2.278-3.078-4.042-5.458-4.933l-18.227-6.824l14.87-14.87l74.952,20.084L349.905,191.794z M412.656,129.042
			l-74.952-20.084l26.139-26.139l74.952,20.084L412.656,129.042z M455.127,86.572l-74.952-20.084l27.553-27.553l74.952,20.084
			L455.127,86.572z"/>
	</g>
</g>
<g>
	<g>
		<path d="M310.954,210.73l-27.504-27.504c-10.935-10.933-28.725-10.933-39.66,0L99.472,327.543
			c-10.934,10.935-10.934,28.726,0,39.66l27.504,27.504c5.297,5.296,12.339,8.214,19.831,8.214c7.491,0,14.533-2.917,19.831-8.214
			L310.954,250.39c5.296-5.296,8.215-12.339,8.215-19.83C319.168,223.07,316.251,216.028,310.954,210.73z M152.494,380.564
			c-1.519,1.52-3.538,2.355-5.686,2.355s-4.167-0.836-5.687-2.355l-27.504-27.504c-2.123-2.123-2.803-5.148-2.05-7.855
			l60.166,16.121L152.494,380.564z M188.062,344.995l-61.323-16.431l20.985-20.985l61.323,16.431L188.062,344.995z M225.377,307.68
			l-61.323-16.431l20.985-20.985l61.323,16.431L225.377,307.68z M262.693,270.364l-61.323-16.431l20.994-20.995l61.323,16.431
			L262.693,270.364z M298.866,232.73l-60.17-16.122l19.237-19.238c3.135-3.136,8.238-3.136,11.374,0l27.504,27.504
			c1.519,1.519,2.356,3.538,2.356,5.688C299.167,231.306,299.06,232.032,298.866,232.73z"/>
	</g>
</g>
<g>
	<g>
		<path d="M258.249,348.598c-1.86-1.87-4.43-2.93-7.071-2.93c-2.63,0-5.2,1.06-7.071,2.93c-1.86,1.86-2.93,4.44-2.93,7.071
			c0,2.63,1.07,5.21,2.93,7.07c1.87,1.86,4.44,2.931,7.071,2.931c2.64,0,5.21-1.07,7.071-2.931c1.87-1.859,2.94-4.439,2.94-7.07
			C261.19,353.039,260.12,350.459,258.249,348.598z"/>
	</g>
</g>
<g>
	<g>
		<path d="M233.632,373.214c-3.904-3.902-10.237-3.902-14.142,0.002l-80.599,80.599c-13.583,13.584-31.42,20.375-49.263,20.373
			c-17.838-0.001-35.683-6.793-49.263-20.373c-27.164-27.163-27.164-71.363,0-98.527l138.115-138.115
			c3.905-3.905,3.905-10.238,0-14.144c-3.905-3.904-10.238-3.904-14.144,0l-21.387,21.387
			c-16.478-13.284-40.737-12.281-56.038,3.016L60.924,253.42c-7.934,7.935-12.302,18.482-12.302,29.701
			c0,9.701,3.272,18.897,9.285,26.336l-31.686,31.686c-34.962,34.963-34.962,91.852,0,126.814
			c16.937,16.936,39.455,26.264,63.406,26.264c23.951,0,46.47-9.328,63.406-26.264l80.599-80.599
			C237.538,383.453,237.538,377.121,233.632,373.214z M75.068,267.564l25.988-25.988c7.486-7.485,19.067-8.44,27.595-2.862
			l-56.45,56.45c-2.328-3.547-3.578-7.698-3.578-12.041C68.624,277.245,70.913,271.72,75.068,267.564z"/>
	</g>
</g>
<g>
	<g>
		<path d="M203.565,177.944c-1.86-1.86-4.43-2.931-7.071-2.931c-2.63,0-5.21,1.07-7.071,2.931c-1.86,1.859-2.93,4.439-2.93,7.07
			c0,2.63,1.07,5.21,2.93,7.071c1.86,1.861,4.44,2.93,7.071,2.93c2.63,0,5.21-1.069,7.071-2.93s2.93-4.44,2.93-7.071
			C206.495,182.384,205.425,179.804,203.565,177.944z"/>
	</g>
</g>
<g>
	<g>
		<path d="M119.368,422.614c-1.86-1.87-4.44-2.93-7.071-2.93c-2.63,0.001-5.21,1.06-7.071,2.93c-1.86,1.86-2.93,4.431-2.93,7.071
			c0,2.63,1.07,5.21,2.93,7.071c1.86,1.859,4.44,2.93,7.071,2.93c2.63,0,5.21-1.07,7.071-2.93c1.87-1.87,2.93-4.44,2.93-7.071
			C122.298,427.054,121.238,424.474,119.368,422.614z"/>
	</g>
</g>
<g>
	<g>
		<path d="M70.953,385.876c3.906-3.905,3.905-10.238,0-14.143c-3.905-3.904-10.238-3.904-14.143,0
			c-18.095,18.096-18.095,47.541,0,65.637c1.953,1.952,4.512,2.929,7.072,2.929s5.119-0.977,7.072-2.929
			c3.905-3.905,3.906-10.238,0-14.144C60.656,412.93,60.656,396.173,70.953,385.876z"/>
	</g>
</g>
<g>
</g>
<g>
</g>
<g>
</g>
<g>
</g>
<g>
</g>
<g>
</g>
<g>
</g>
<g>
</g>
<g>
</g>
<g>
</g>
<g>
</g>
<g>
</g>
<g>
</g>
<g>
</g>
<g>
</g>
</svg>
