<?xml version="1.0" encoding="iso-8859-1"?>
<!-- Generator: Adobe Illustrator 19.0.0, SVG Export Plug-In . SVG Version: 6.00 Build 0)  -->
<svg version="1.1" id="Capa_1" xmlns="http://www.w3.org/2000/svg" xmlns:xlink="http://www.w3.org/1999/xlink" x="0px" y="0px"
	 viewBox="0 0 512.001 512.001" style="enable-background:new 0 0 512.001 512.001;" xml:space="preserve">
<g>
	<g>
		<path d="M508.604,94.008l-7.85-6.902l2.827-8.863c0.806-2.527,0.575-5.271-0.643-7.628c-1.218-2.357-3.321-4.134-5.849-4.939
			l-8.697-2.771v-9.056c0-5.522-4.478-10-10-10h-9.044l-2.765-8.679c-0.806-2.527-2.582-4.631-4.938-5.849
			c-2.358-1.217-5.103-1.449-7.628-0.643l-8.863,2.827l-6.902-7.85c-3.639-4.136-9.934-4.553-14.085-0.931l-6.386,5.572
			l-6.132-3.874c-4.669-2.951-10.845-1.557-13.795,3.113l-4.943,7.824l-8.979-2.131c-5.372-1.278-10.765,2.047-12.039,7.42
			l-1.971,8.302h-8.424c-5.522,0-10,4.478-10,10v6.388h-6.388c-5.522,0-10,4.478-10,10v6.388h-6.388c-5.522,0-10,4.478-10,10v6.388
			h-6.388c-5.522,0-10,4.478-10,10v6.388h-6.388c-5.522,0-10,4.478-10,10v6.388h-6.387c-5.522,0-10,4.478-10,10v6.387h-6.388
			c-5.522,0-10,4.478-10,10v6.388h-6.388c-5.522,0-10,4.478-10,10v6.388h-6.388c-5.522,0-10,4.478-10,10v6.388h-6.388
			c-5.522,0-10,4.478-10,10v6.388h-6.388c-5.522,0-10,4.478-10,10v6.388h-6.388c-5.522,0-10,4.478-10,10v6.388h-6.388
			c-5.522,0-10,4.478-10,10v0.691c-1.823-0.319-3.685-0.49-5.573-0.49c-8.543,0-16.574,3.327-22.614,9.367l-27.585,27.588
			c-15.643-9.321-36.232-7.26-49.683,6.19l-33.536,33.537C5.63,342.71,0,356.3,0,370.756s5.63,28.047,15.852,38.27l53.683,53.683
			c19.355,19.355,44.78,29.033,70.205,29.033c25.426,0,50.851-9.678,70.206-29.033l57.126-57.127
			c7.655-7.655,10.602-18.257,8.858-28.188h0.709c5.522,0,10-4.478,10-10v-6.388h6.388c5.522,0,10-4.478,10-10v-6.388h6.387
			c5.522,0,10-4.478,10-10v-6.387h6.388c5.522,0,10-4.478,10-10v-6.388h6.388c5.522,0,10-4.478,10-10v-6.388h6.388
			c5.522,0,10-4.478,10-10v-6.388h6.388c5.522,0,10-4.478,10-10v-6.388h6.388c5.522,0,10-4.478,10-10v-6.388h6.388
			c5.522,0,10-4.478,10-10v-6.388h6.388c5.522,0,10-4.478,10-10v-6.388h6.388c5.522,0,10-4.478,10-10v-6.388h6.388
			c5.522,0,10-4.478,10-10v-6.388h6.387c5.522,0,10-4.478,10-10v-6.387h6.388c5.522,0,10-4.478,10-10v-16.388
			c0-0.124-0.002-0.247-0.007-0.37l5.053-3.192c2.242-1.416,3.83-3.665,4.414-6.253c0.584-2.587,0.116-5.3-1.301-7.542l-3.874-6.132
			l5.572-6.386C513.156,103.943,512.74,97.646,508.604,94.008z M29.994,394.883C23.549,388.439,20,379.871,20,370.756
			c0-9.113,3.549-17.682,9.994-24.126l33.536-33.537c5.529-5.529,13.426-7.274,20.456-5.247l-14.452,14.451
			c-22.882,22.883-32.229,54.246-28.061,84.065L29.994,394.883z M252.929,391.44l-57.126,57.126
			c-30.912,30.913-81.214,30.915-112.126,0c-30.914-30.913-30.914-81.213,0-112.126l57.126-57.126c0,0,0,0,0-0.001
			c2.263-2.263,5.271-3.509,8.472-3.509s6.21,1.246,8.473,3.51l95.182,95.182C257.601,379.167,257.601,386.768,252.929,391.44z
			 M483.073,118.86l2.513,3.979l-5.399,3.411c-2.746,1.734-4.479,4.694-4.646,7.938c-0.168,3.243,1.25,6.366,3.803,8.375
			l0.333,0.262v1.531h-6.388c-5.522,0-10,4.478-10,10v6.387h-6.387c-5.522,0-10,4.478-10,10v6.388h-6.388c-5.522,0-10,4.478-10,10
			v6.388h-6.388c-5.522,0-10,4.478-10,10v6.388h-6.388c-5.522,0-10,4.478-10,10v6.388h-6.388c-5.522,0-10,4.478-10,10v6.388h-6.388
			c-5.522,0-10,4.478-10,10v6.388h-6.388c-5.522,0-10,4.478-10,10v6.388h-6.388c-5.522,0-10,4.478-10,10v6.388h-6.388
			c-5.522,0-10,4.478-10,10v6.388h-6.388c-5.522,0-10,4.478-10,10v6.387h-6.387c-5.522,0-10,4.478-10,10v6.388h-6.388
			c-5.522,0-10,4.478-10,10v6.388h-2.526l-37.564-37.564c0.025-0.025,0.052-0.045,0.077-0.07l117.499-117.5
			c3.905-3.905,3.905-10.237,0-14.143c-3.906-3.904-10.236-3.904-14.143,0l-117.499,117.5c-0.025,0.025-0.045,0.052-0.07,0.077
			l-37.565-37.564v-2.526h6.388c5.522,0,10-4.478,10-10v-6.388h6.388c5.522,0,10-4.478,10-10v-6.388h6.388c5.522,0,10-4.478,10-10
			v-6.388h6.388c5.522,0,10-4.478,10-10v-6.388h6.388c5.522,0,10-4.478,10-10v-6.388h6.388c5.522,0,10-4.478,10-10v-6.388h6.388
			c5.522,0,10-4.478,10-10v-6.387h6.387c5.522,0,10-4.478,10-10v-6.388h6.388c5.522,0,10-4.478,10-10v-6.388h6.388
			c5.522,0,10-4.478,10-10v-6.388h6.388c5.522,0,10-4.478,10-10v-6.388h6.388c5.522,0,10-4.478,10-10v-6.388h6.388
			c4.045,0,7.667-2.46,9.215-6.197c0.301-0.727,0.511-1.477,0.631-2.233l1.312-5.522l6.216,1.475
			c4.316,1.026,8.772-0.924,10.97-4.748l3.192-5.053l3.979,2.514c3.738,2.361,8.583,1.988,11.916-0.92l4.495-3.922l4.642,5.278
			c2.624,2.983,6.766,4.129,10.548,2.924l5.563-1.774l1.947,6.112c1.322,4.147,5.175,6.964,9.528,6.964h6.353v6.388
			c0,4.045,2.445,7.683,6.182,9.229c0.408,0.169,0.822,0.31,1.241,0.422l5.671,1.807l-1.774,5.563
			c-1.207,3.785-0.06,7.926,2.924,10.549l5.279,4.643l-3.922,4.494C481.085,110.276,480.711,115.122,483.073,118.86z"/>
	</g>
</g>
<g>
	<g>
		<path d="M441.632,90.612c-5.637-5.638-13.131-8.741-21.102-8.741s-15.465,3.104-21.1,8.74c-5.637,5.636-8.741,13.13-8.741,21.101
			s3.104,15.465,8.74,21.102c5.817,5.817,13.459,8.726,21.101,8.726c7.642,0,15.283-2.909,21.102-8.727
			C453.267,121.178,453.266,102.247,441.632,90.612z M427.49,118.671c-3.837,3.837-10.081,3.837-13.918,0
			c-1.859-1.858-2.883-4.33-2.883-6.959c0-2.628,1.023-5.1,2.883-6.959c1.858-1.858,4.33-2.882,6.958-2.882
			c2.629,0,5.101,1.023,6.959,2.883C431.326,108.59,431.326,114.834,427.49,118.671z"/>
	</g>
</g>
<g>
	<g>
		<path d="M369.076,163.998c-3.669-4.127-9.993-4.495-14.123-0.826c-4.128,3.669-4.5,9.989-0.83,14.117
			c1.976,2.223,4.72,3.356,7.478,3.356c2.362,0,4.734-0.833,6.64-2.526l0.009-0.008
			C372.378,174.442,372.745,168.126,369.076,163.998z"/>
	</g>
</g>
<g>
	<g>
		<path d="M183.488,421.715l-13.465-13.464c-3.906-3.904-10.238-3.904-14.143,0c-3.905,3.906-3.905,10.237,0.001,14.143l5.542,5.542
			c-6.417,3.886-13.793,5.961-21.487,5.961c-11.109,0-21.554-4.326-29.408-12.182c-13.779-13.779-15.851-34.901-6.212-50.888
			l4.692,4.693c3.906,3.904,10.236,3.904,14.143,0c3.905-3.905,3.905-10.237,0-14.143l-12.623-12.623
			c-3.906-3.904-10.236-3.904-14.143,0c-11.633,11.633-18.039,27.1-18.039,43.552c0,16.451,6.406,31.918,18.039,43.551
			s27.1,18.039,43.551,18.039c16.452,0,31.919-6.406,43.552-18.039c1.875-1.876,2.929-4.419,2.929-7.071
			C186.417,426.134,185.363,423.59,183.488,421.715z"/>
	</g>
</g>
<g>
	<g>
		<path d="M146.649,384.874c-1.859-1.859-4.439-2.93-7.069-2.93c-2.641,0-5.21,1.07-7.07,2.93s-2.93,4.44-2.93,7.07
			s1.069,5.21,2.93,7.07c1.86,1.86,4.429,2.93,7.07,2.93c2.63,0,5.21-1.07,7.069-2.93c1.86-1.86,2.931-4.431,2.931-7.07
			C149.58,389.314,148.51,386.734,146.649,384.874z"/>
	</g>
</g>
<g>
	<g>
		<path d="M224.171,364.195c-3.905-3.904-10.235-3.904-14.142,0l-17.83,17.83c-3.905,3.905-3.905,10.237,0,14.143
			c1.953,1.952,4.512,2.929,7.071,2.929s5.118-0.977,7.071-2.929l17.83-17.83C228.076,374.433,228.076,368.101,224.171,364.195z"/>
	</g>
</g>
<g>
	<g>
		<path d="M196.109,336.132c-3.906-3.904-10.236-3.904-14.143,0l-17.83,17.83c-3.905,3.906-3.905,10.238,0.001,14.143
			c1.953,1.952,4.512,2.929,7.071,2.929s5.118-0.977,7.071-2.929l17.83-17.83C200.014,346.37,200.014,340.038,196.109,336.132z"/>
	</g>
</g>
<g>
	<g>
		<path d="M168.048,308.069c-3.905-3.903-10.235-3.904-14.143,0l-17.831,17.83c-3.905,3.905-3.905,10.236,0,14.143
			c1.953,1.953,4.512,2.929,7.072,2.929c2.559,0,5.118-0.977,7.071-2.929l17.831-17.83
			C171.953,318.307,171.953,311.976,168.048,308.069z"/>
	</g>
</g>
<g>
</g>
<g>
</g>
<g>
</g>
<g>
</g>
<g>
</g>
<g>
</g>
<g>
</g>
<g>
</g>
<g>
</g>
<g>
</g>
<g>
</g>
<g>
</g>
<g>
</g>
<g>
</g>
<g>
</g>
</svg>
