<?xml version="1.0" encoding="iso-8859-1"?>
<!-- Generator: Adobe Illustrator 19.0.0, SVG Export Plug-In . SVG Version: 6.00 Build 0)  -->
<svg version="1.1" id="Capa_1" xmlns="http://www.w3.org/2000/svg" xmlns:xlink="http://www.w3.org/1999/xlink" x="0px" y="0px"
	 viewBox="0 0 511.999 511.999" style="enable-background:new 0 0 511.999 511.999;" xml:space="preserve">
<g>
	<g>
		<path d="M501.996,452.001h-0.216c6.406-8.449,10.216-18.969,10.216-30.365c0-11.009-3.686-21.885-10.38-30.625l-58.074-75.829
			c-3.37-4.399-5.226-9.875-5.226-15.417c0-5.957,2.109-11.748,5.94-16.309l15.428-18.367c5.12-6.097,6.451-14.469,3.476-21.85
			c-2.546-6.315-7.777-10.95-14.354-12.717c-6.577-1.764-13.426-0.374-18.793,3.815l-50.985,39.806
			c-13.439,10.492-21.146,26.287-21.146,43.336c0,14.963,6.211,29.467,17.041,39.79l42.301,40.331
			c5.429,5.177,8.543,12.449,8.543,19.951c0,8.999-4.404,17.448-11.781,22.601l-16.963,11.847h-1.037h-3.965
			c-22.852,0-43.249-13.648-51.966-34.77c-0.001,0-0.001,0-0.001,0c-9.406-22.789-25.456-41.323-45.374-53.77l93.814-162.489
			c1.786-3.094,1.786-6.906,0-10c-1.786-3.094-5.088-5-8.66-5h-55.206c-3.572,0-6.874,1.906-8.66,5l-28.734,49.769
			c-2.762,4.783-1.123,10.898,3.66,13.66c4.784,2.762,10.899,1.122,13.66-3.66l25.848-44.769h32.113L276.83,354.38
			c-8.848-3.57-18.198-6.056-27.873-7.343l23.306-40.366c2.762-4.783,1.123-10.898-3.66-13.66c-4.784-2.762-10.899-1.122-13.66,3.66
			l-28.623,49.576c-43.824,2.731-82.254,29.971-99.182,70.984c-6.772,16.407-20.594,28.3-37.135,32.794v-35.062
			c0-9.372,3.734-18.555,10.515-25.856c9.985-10.754,15.485-24.76,15.485-39.437c0-15.167-5.816-29.513-16.378-40.393
			c-10.538-10.856-24.658-17.099-39.758-17.577c-15.651-0.499-30.585,5.322-42.038,16.384
			C6.384,319.135,0.054,333.838,0.004,349.482c-0.048,15.063,5.657,29.354,16.064,40.239c6.407,6.702,9.936,15.665,9.936,25.238V452
			h-16c-5.522,0-10,4.478-10,10v39.999c0,5.522,4.478,10,10,10h491.992c5.522,0,10-4.478,10-10V462
			C511.996,456.478,507.519,452.001,501.996,452.001z M388.723,342.798c-6.89-6.569-10.842-15.797-10.842-25.316
			c0-10.848,4.903-20.897,13.454-27.572l50.986-39.807c0.387-0.302,0.824-0.392,1.297-0.263c0.474,0.127,0.808,0.422,0.991,0.879
			c0.205,0.509,0.113,1.087-0.24,1.508l-15.428,18.366c-6.853,8.157-10.626,18.518-10.626,29.173c0,9.914,3.319,19.708,9.347,27.577
			l58.074,75.829c4.036,5.27,6.259,11.827,6.259,18.465c0,16.744-13.622,30.365-30.366,30.365h-30.629
			c9.347-8.905,14.765-21.338,14.765-34.446c0.001-12.946-5.372-25.494-14.742-34.425L388.723,342.798z M20.004,349.547
			c0.032-10.195,4.193-19.812,11.718-27.077c7.532-7.276,17.32-11.114,27.513-10.78c20.618,0.652,36.769,17.336,36.769,37.979
			c0,9.613-3.602,18.785-10.142,25.828c-10.227,11.014-15.858,25.029-15.858,39.465v37.038h-24V414.96
			c-0.002-14.746-5.499-28.617-15.48-39.058C23.709,368.771,19.972,359.411,20.004,349.547z M20.003,492v-20h59.999
			c0.938,0,1.842-0.139,2.703-0.38c27.865-2.731,52.066-20.469,62.918-46.759c4.867-11.792,11.895-22.196,20.502-30.859h61.374
			c5.522,0,10-4.478,10-10s-4.478-10-10-10h-32.207c11.822-5.18,24.808-8,38.302-8c34.998,0,66.597,18.915,83.228,48.999h-97.823
			c-5.522,0-10,4.478-10,10s4.478,10,10,10h107.655c3.815,6.382,8.495,12.087,13.846,17H273.65c-5.522,0-10,4.478-10,10
			s4.478,10,10,10h218.344v20H20.003z"/>
	</g>
</g>
<g>
	<g>
		<path d="M285.509,268.904c-1.86-1.869-4.44-2.93-7.07-2.93c-2.63,0-5.21,1.061-7.069,2.93c-1.861,1.86-2.931,4.43-2.931,7.07
			c0,2.63,1.07,5.2,2.931,7.07c1.859,1.859,4.439,2.93,7.069,2.93c2.63,0,5.21-1.07,7.07-2.93c1.86-1.87,2.93-4.44,2.93-7.07
			C288.439,273.334,287.37,270.764,285.509,268.904z"/>
	</g>
</g>
<g>
	<g>
		<path d="M164.584,235.772c-3.636,0-6.594-2.958-6.594-6.594c0-5.522-4.478-10-10-10s-10,4.478-10,10
			c0,14.664,11.93,26.594,26.594,26.594c18.45,0,33.459-15.011,33.459-33.461c0-23.804-19.365-43.168-43.168-43.168
			c-31.371,0-56.894,25.522-56.894,56.894c0.001,42.071,34.229,76.299,76.3,76.299c5.522,0,10-4.478,10-10s-4.478-10-10-10
			c-31.044,0-56.3-25.256-56.3-56.299c0-20.344,16.551-36.894,36.894-36.894c12.775,0,23.169,10.394,23.169,23.169
			C178.044,229.734,172.006,235.772,164.584,235.772z"/>
	</g>
</g>
<g>
	<g>
		<path d="M241.722,0c-23.804,0-43.168,19.365-43.168,43.168c0,18.45,15.01,33.46,33.459,33.46
			c14.664,0,26.595-11.931,26.595-26.595c0-5.522-4.478-10-10-10s-10,4.478-10,10c0,3.637-2.958,6.595-6.595,6.595
			c-7.422,0-13.46-6.038-13.46-13.461c0-12.775,10.393-23.169,23.169-23.169c20.344,0,36.894,16.551,36.894,36.894
			c0,31.044-25.257,56.299-56.3,56.299c-5.522,0-10,4.478-10,10c0,5.522,4.478,10,10,10c42.071,0,76.3-34.227,76.3-76.299
			C298.615,25.522,273.093,0,241.722,0z"/>
	</g>
</g>
<g>
	<g>
		<path d="M183.987,452.001h-25c-5.522,0-10,4.478-10,10s4.478,10,10,10h25c5.522,0,10-4.478,10-10S189.51,452.001,183.987,452.001z
			"/>
	</g>
</g>
<g>
	<g>
		<path d="M240.04,454.931c-1.86-1.861-4.44-2.93-7.07-2.93c-2.64,0-5.21,1.069-7.07,2.93c-1.869,1.86-2.93,4.44-2.93,7.07
			c0,2.63,1.061,5.21,2.93,7.069c1.86,1.86,4.431,2.931,7.07,2.931c2.63,0,5.21-1.07,7.07-2.931c1.859-1.859,2.93-4.439,2.93-7.069
			C242.97,459.371,241.9,456.791,240.04,454.931z"/>
	</g>
</g>
<g>
</g>
<g>
</g>
<g>
</g>
<g>
</g>
<g>
</g>
<g>
</g>
<g>
</g>
<g>
</g>
<g>
</g>
<g>
</g>
<g>
</g>
<g>
</g>
<g>
</g>
<g>
</g>
<g>
</g>
</svg>
