<?xml version="1.0" encoding="iso-8859-1"?>
<!-- Generator: Adobe Illustrator 19.0.0, SVG Export Plug-In . SVG Version: 6.00 Build 0)  -->
<svg version="1.1" id="Capa_1" xmlns="http://www.w3.org/2000/svg" xmlns:xlink="http://www.w3.org/1999/xlink" x="0px" y="0px"
	 viewBox="0 0 512.005 512.005" style="enable-background:new 0 0 512.005 512.005;" xml:space="preserve">
<g>
	<g>
		<path d="M509.076,35.001l-16.033-16.033L477.009,2.933c-2.834-2.835-7.085-3.699-10.805-2.206L356.639,44.82
			c-3.162,1.273-5.459,4.069-6.093,7.418l-12.245,64.727c-8.708,1.859-16.996,6.151-23.749,12.902
			c-2.553,2.553-4.744,5.332-6.597,8.264c-0.761-0.186-1.553-0.295-2.371-0.295h-18.459c-5.522,0-10,4.478-10,10
			c0,5.522,4.478,10,10,10h13.82c-1.015,8.334,0.157,16.88,3.515,24.712l-67.883,8.894c-12.922,1.692-25.112,7.699-34.325,16.913
			L61.491,349.117c-2.307,2.307-6.061,2.307-8.365,0l-31.401-31.4c-2.307-2.306-2.307-6.059,0-8.364l15.301-15.301l14.305,14.305
			c1.953,1.952,4.512,2.929,7.071,2.929s5.118-0.977,7.071-2.929c3.905-3.905,3.905-10.237,0-14.143l-14.305-14.305l17.984-17.984
			l14.305,14.305c1.953,1.952,4.512,2.929,7.071,2.929c2.559,0,5.118-0.977,7.071-2.929c3.905-3.905,3.905-10.237,0-14.143
			l-14.303-14.305l26.772-26.772l14.305,14.305c1.953,1.952,4.512,2.929,7.071,2.929s5.118-0.977,7.071-2.929
			c3.905-3.905,3.905-10.237,0-14.143l-14.305-14.305l17.984-17.984l14.305,14.305c1.953,1.952,4.512,2.929,7.071,2.929
			c2.559,0,5.118-0.977,7.071-2.929c3.905-3.905,3.905-10.237,0-14.143l-14.305-14.305l3.479-3.479
			c8.654-8.654,20.161-13.421,32.402-13.421h24.443c5.522,0,10-4.478,10-10c0-5.522-4.478-10-10-10H192.22
			c-17.583,0-34.113,6.847-46.545,19.279l-10.542,10.541c-0.003,0.003-0.006,0.005-0.009,0.008
			c-0.003,0.003-0.005,0.006-0.009,0.009l-32.113,32.112c-0.002,0.002-0.005,0.004-0.007,0.006s-0.004,0.005-0.006,0.007
			l-40.905,40.904c-0.001,0.001-0.003,0.002-0.004,0.004c-0.001,0.002-0.002,0.003-0.004,0.004l-32.123,32.122
			c-0.001,0-0.001,0.001-0.001,0.001c-0.001,0.001-0.001,0.002-0.002,0.002L7.578,295.207c-10.104,10.104-10.104,26.546,0,36.65
			l31.4,31.4c5.053,5.052,11.688,7.578,18.324,7.577c6.636,0,13.273-2.526,18.325-7.577l140.761-140.762
			c6.114-6.114,14.204-10.101,22.78-11.225l70.844-9.282l-9.282,70.844c-1.124,8.575-5.11,16.665-11.226,22.78l-46.454,46.455
			c-3.905,3.905-3.905,10.237,0,14.143c1.953,1.952,4.512,2.929,7.071,2.929c2.559,0,5.118-0.977,7.071-2.929l46.453-46.455
			c9.215-9.213,15.222-21.403,16.914-34.325l8.894-67.883c6.013,2.579,12.448,3.881,18.886,3.881c1.946,0,3.89-0.131,5.824-0.367
			v108.723c0,12.24-4.767,23.748-13.422,32.402l-3.479,3.479l-14.304-14.304c-3.906-3.904-10.236-3.904-14.143,0
			c-3.905,3.905-3.905,10.237,0,14.143l14.304,14.304l-17.984,17.984l-14.304-14.304c-3.906-3.904-10.236-3.904-14.143,0
			c-3.905,3.905-3.905,10.237,0,14.143l14.304,14.304l-26.772,26.772l-14.304-14.304c-3.906-3.904-10.236-3.904-14.143,0
			c-3.905,3.905-3.905,10.237,0,14.143l14.304,14.304l-17.984,17.985l-14.305-14.305c-3.906-3.904-10.236-3.904-14.143,0
			c-3.905,3.905-3.905,10.237,0,14.143l14.305,14.305l-15.301,15.301c-2.308,2.307-6.059,2.307-8.364,0l-31.4-31.4
			c-2.307-2.306-2.306-6.059,0-8.364l43.681-43.68c3.905-3.905,3.905-10.237,0-14.143c-3.904-3.903-10.234-3.904-14.143,0
			l-43.681,43.681c-10.104,10.104-10.104,26.546,0,36.649l31.4,31.4c5.053,5.052,11.688,7.578,18.325,7.578
			c6.636,0,13.271-2.526,18.324-7.578l22.37-22.37c0.001-0.001,0.002-0.002,0.003-0.003c0.001-0.001,0.002-0.002,0.003-0.003
			l32.117-32.117c0.003-0.003,0.006-0.005,0.008-0.007c0.002-0.002,0.005-0.005,0.007-0.008l40.894-40.894
			c0.004-0.005,0.01-0.008,0.014-0.013c0.004-0.005,0.008-0.01,0.013-0.014l32.097-32.097c0.006-0.006,0.013-0.011,0.019-0.017
			c0.006-0.006,0.011-0.013,0.017-0.019l10.532-10.532c12.434-12.432,19.28-28.962,19.28-46.545V206.426
			c0-0.819-0.109-1.61-0.295-2.371c2.932-1.854,5.711-4.044,8.265-6.597c6.751-6.751,11.043-15.04,12.902-23.749l64.727-12.245
			c3.349-0.634,6.145-2.931,7.418-6.093l44.101-109.565C512.778,42.088,511.91,37.835,509.076,35.001z M368,183.313
			c-10.836,10.835-28.47,10.834-39.304,0c-10.835-10.836-10.835-28.468,0-39.304c5.418-5.418,12.534-8.127,19.651-8.127
			c7.116,0,14.234,2.71,19.651,8.127C378.835,154.847,378.835,172.478,368,183.313z M374.321,123.546
			c-4.866-3.152-10.183-5.323-15.673-6.526l10.535-55.688L467.54,21.75l4.177,4.177l-5.699,5.699h-11.892c-5.522,0-10,4.478-10,10
			v5.588h-6.924c-5.522,0-10,4.478-10,10v6.925h-6.033c-5.522,0-10,4.478-10,10v6.701h-6.033c-5.522,0-10,4.478-10,10v11.891
			L374.321,123.546z M450.678,142.827l-55.688,10.535c-1.203-5.49-3.374-10.807-6.526-15.673l23.742-23.742
			c1.875-1.876,2.929-4.419,2.929-7.071v-6.033h6.033c5.522,0,10-4.478,10-10v-6.701h6.033c5.522,0,10-4.478,10-10v-6.925h6.924
			c5.522,0,10-4.478,10-10v-5.588h6.034c2.652,0,5.195-1.054,7.071-2.929l8.628-8.628l4.4,4.4L450.678,142.827z"/>
	</g>
</g>
<g>
	<g>
		<path d="M260.068,140.768c-1.859-1.86-4.439-2.93-7.069-2.93s-5.21,1.069-7.07,2.93s-2.93,4.44-2.93,7.07s1.069,5.21,2.93,7.069
			c1.86,1.861,4.44,2.931,7.07,2.931s5.21-1.07,7.069-2.931c1.86-1.859,2.931-4.439,2.931-7.069S261.929,142.628,260.068,140.768z"
			/>
	</g>
</g>
<g>
	<g>
		<path d="M231.698,367.574c-1.86-1.859-4.44-2.93-7.07-2.93c-2.64,0-5.21,1.07-7.07,2.93c-1.859,1.86-2.93,4.431-2.93,7.07
			c0,2.63,1.07,5.21,2.93,7.07c1.86,1.859,4.44,2.93,7.07,2.93s5.21-1.071,7.07-2.93c1.859-1.86,2.93-4.44,2.93-7.07
			S233.558,369.434,231.698,367.574z"/>
	</g>
</g>
<g>
	<g>
		<path d="M355.42,156.589c-1.86-1.861-4.44-2.931-7.07-2.931c-2.64,0-5.21,1.07-7.08,2.931c-1.859,1.859-2.92,4.439-2.92,7.069
			c0,2.631,1.061,5.21,2.92,7.07c1.87,1.87,4.45,2.93,7.08,2.93c2.63,0,5.2-1.06,7.07-2.93c1.86-1.86,2.93-4.439,2.93-7.07
			C358.35,161.028,357.281,158.448,355.42,156.589z"/>
	</g>
</g>
<g>
</g>
<g>
</g>
<g>
</g>
<g>
</g>
<g>
</g>
<g>
</g>
<g>
</g>
<g>
</g>
<g>
</g>
<g>
</g>
<g>
</g>
<g>
</g>
<g>
</g>
<g>
</g>
<g>
</g>
</svg>
