<?xml version="1.0" encoding="iso-8859-1"?>
<!-- Generator: Adobe Illustrator 19.0.0, SVG Export Plug-In . SVG Version: 6.00 Build 0)  -->
<svg version="1.1" id="Capa_1" xmlns="http://www.w3.org/2000/svg" xmlns:xlink="http://www.w3.org/1999/xlink" x="0px" y="0px"
	 viewBox="0 0 512.001 512.001" style="enable-background:new 0 0 512.001 512.001;" xml:space="preserve">
<g>
	<g>
		<path d="M173.876,326.142c-1.87-1.869-4.44-2.93-7.069-2.93c-2.64,0-5.21,1.061-7.069,2.93c-1.87,1.86-2.93,4.431-2.93,7.069
			c0,2.63,1.06,5.21,2.93,7.069c1.86,1.86,4.43,2.93,7.069,2.93c2.63,0,5.21-1.07,7.069-2.93c1.859-1.86,2.93-4.44,2.93-7.069
			S175.736,328.002,173.876,326.142z"/>
	</g>
</g>
<g>
	<g>
		<path d="M338.133,221.033c-3.906-3.904-10.235-3.904-14.142,0l-47.859,47.859c-3.905,3.905-3.905,10.236,0,14.142
			c1.954,1.953,4.513,2.929,7.071,2.929c2.56,0,5.118-0.977,7.07-2.929l47.859-47.859
			C342.037,231.27,342.037,224.938,338.133,221.033z"/>
	</g>
</g>
<g>
	<g>
		<path d="M364.439,194.725c-1.86-1.86-4.44-2.93-7.069-2.93s-5.2,1.069-7.069,2.93c-1.859,1.86-2.93,4.44-2.93,7.069
			s1.07,5.21,2.93,7.068c1.87,1.86,4.44,2.931,7.069,2.931s5.21-1.07,7.069-2.931c1.859-1.859,2.93-4.439,2.93-7.068
			S366.299,196.585,364.439,194.725z"/>
	</g>
</g>
<g>
	<g>
		<path d="M504.398,134.592l-14.546-14.546c0.085-0.525,0.139-1.057,0.139-1.595c0-2.652-1.054-5.195-2.929-7.07l-49.217-49.216
			c-0.367-0.367-0.762-0.688-1.168-0.987l-52.36-52.361c-11.696-11.696-30.724-11.695-42.42-0.003l-1.104,1.104
			c-11.694,11.695-11.694,30.726,0,42.422l46.369,46.368l-7.293,7.293L184.292,301.578c-3.905,3.905-3.905,10.236,0,14.142
			c1.953,1.952,4.512,2.929,7.07,2.929s5.118-0.977,7.07-2.929l188.505-188.505l42.052,42.051l-6.851,14.056l-7.194,2.654
			c-3.95,1.457-6.563,5.232-6.538,9.442l0.115,18.58l-11.105,5.503c-3.426,1.697-5.584,5.199-5.561,9.02l0.108,17.573l-11.853,3.951
			c-4.105,1.368-6.863,5.222-6.837,9.548l0.101,16.221l-13.092,2.053c-4.214,0.66-7.544,3.921-8.294,8.118l-2.535,14.179
			l-14.195,2.744c-4.103,0.793-7.279,4.055-7.965,8.177l-2.347,14.105l-14.105,2.347c-4.123,0.686-7.383,3.862-8.177,7.965
			l-2.745,14.196l-14.177,2.534c-3.588,0.641-6.541,3.183-7.711,6.633l-4.317,12.736l-15.688,1.996
			c-3.813,0.485-7.009,3.112-8.225,6.757l-3.951,11.853l-17.573-0.108c-0.021,0-0.041,0-0.062,0c-3.799,0-7.271,2.153-8.959,5.56
			l-5.504,11.105l-18.58-0.114c-4.223-0.019-7.985,2.589-9.442,6.538l-2.65,7.183l-13.699,6.645l-42.124-42.123l20.305-20.305
			c3.905-3.905,3.905-10.236,0-14.142c-3.906-3.904-10.235-3.904-14.142,0l-34.759,34.759l-46.367-46.368
			c-5.666-5.665-13.199-8.786-21.212-8.786c-8.013,0-15.546,3.121-21.211,8.787l-1.102,1.1c-11.695,11.696-11.695,30.726,0,42.423
			l53.439,53.439l49.216,49.216c1.953,1.952,4.512,2.929,7.07,2.929c0.534,0,1.068-0.053,1.596-0.138l14.545,14.545
			c5.069,5.068,11.726,7.602,18.383,7.602c6.657,0,13.314-2.534,18.383-7.602l0.881-0.881c4.91-4.911,7.614-11.439,7.614-18.383
			c0-6.944-2.705-13.474-7.614-18.383l-11.358-11.358l34.507-16.74c2.324-1.128,4.122-3.111,5.017-5.536l1.616-4.38l17.812,0.109
			c0.021,0,0.041,0,0.062,0c3.799,0,7.271-2.153,8.959-5.56l5.503-11.105l18.58,0.115c0.021,0,0.041,0,0.062,0
			c4.302,0,8.124-2.753,9.486-6.837l4.257-12.771l15.653-1.992c3.795-0.482,6.98-3.087,8.208-6.709l4.428-13.062l15.118-2.702
			c4.071-0.728,7.273-3.886,8.059-7.944l2.728-14.109l14.299-2.379c4.218-0.701,7.521-4.006,8.223-8.223l2.379-14.298l14.108-2.728
			c4.06-0.785,7.217-3.988,7.944-8.058l2.488-13.919l14.555-2.282c4.889-0.766,8.48-4.992,8.45-9.939l-0.108-17.573l11.853-3.951
			c4.105-1.368,6.863-5.221,6.837-9.548l-0.115-18.58l11.105-5.503c3.426-1.697,5.583-5.199,5.56-9.02l-0.11-17.812l4.381-1.616
			c2.418-0.892,4.398-2.684,5.527-5l16.992-34.857l11.403,11.403c5.068,5.068,11.726,7.602,18.383,7.602
			c6.656,0,13.314-2.534,18.382-7.602c0.002-0.001,0.003-0.003,0.005-0.004l0.876-0.877
			C514.535,161.222,514.535,144.729,504.398,134.592z M22.913,370.22c-3.9-3.898-3.9-10.241-0.003-14.137l1.102-1.101
			c0.001-0.001,0.002-0.002,0.003-0.004c1.889-1.888,4.399-2.929,7.069-2.929c2.672,0,5.182,1.041,7.07,2.93l46.369,46.368
			l-15.242,15.242L22.913,370.22z M118.497,465.805l-35.075-35.073l29.695-29.696l35.075,35.074L118.497,465.805z M158.145,489.331
			l-0.882,0.881c-2.338,2.34-6.145,2.34-8.483,0l-13.203-13.203l9.364-9.364l13.204,13.203c1.133,1.134,1.757,2.64,1.757,4.242
			S159.278,488.197,158.145,489.331z M354.934,38.199c-3.898-3.898-3.898-10.242-0.002-14.138l1.102-1.101
			c0.001-0.001,0.002-0.002,0.003-0.003c1.949-1.949,4.51-2.925,7.07-2.925c2.561,0,5.121,0.976,7.069,2.925l46.368,46.368
			l-15.242,15.242L354.934,38.199z M436.157,148.147l-35.075-35.075l29.695-29.696l35.075,35.075L436.157,148.147z M490.253,157.222
			l-0.877,0.878c-2.34,2.338-6.145,2.339-8.483-0.001l-13.203-13.203l9.365-9.365l13.202,13.203
			C492.596,151.072,492.596,154.88,490.253,157.222z"/>
	</g>
</g>
<g>
</g>
<g>
</g>
<g>
</g>
<g>
</g>
<g>
</g>
<g>
</g>
<g>
</g>
<g>
</g>
<g>
</g>
<g>
</g>
<g>
</g>
<g>
</g>
<g>
</g>
<g>
</g>
<g>
</g>
</svg>
