<?xml version="1.0" encoding="iso-8859-1"?>
<!-- Generator: Adobe Illustrator 19.0.0, SVG Export Plug-In . SVG Version: 6.00 Build 0)  -->
<svg version="1.1" id="Capa_1" xmlns="http://www.w3.org/2000/svg" xmlns:xlink="http://www.w3.org/1999/xlink" x="0px" y="0px"
	 viewBox="0 0 512 512" style="enable-background:new 0 0 512 512;" xml:space="preserve">
<g>
	<g>
		<path d="M130,80c-5.52,0-10,4.48-10,10s4.48,10,10,10s10-4.48,10-10S135.52,80,130,80z"/>
	</g>
</g>
<g>
	<g>
		<path d="M256,0C117.987,0,0,117.815,0,256c0,138.01,117.815,256,256,256c138.013,0,256-117.815,256-256
			C512,117.99,394.185,0,256,0z M256,492C128.075,492,20,383.925,20,256S128.075,20,256,20s236,108.075,236,236S383.925,492,256,492
			z"/>
	</g>
</g>
<g>
	<g>
		<path d="M256,40c-33.48,0-69.393,7.594-96.064,20.313c-4.985,2.378-7.099,8.346-4.721,13.331
			c2.377,4.984,8.345,7.096,13.331,4.722C192.299,67.037,225.81,60,256,60c104.411,0,196,91.589,196,196s-91.589,196-196,196
			S60,360.411,60,256c0-48.235,18.434-98.898,48.108-132.22c3.673-4.124,3.307-10.445-0.817-14.118
			c-4.124-3.673-10.445-3.308-14.118,0.817C59.877,147.866,40,202.267,40,256c0,116.361,100.688,216,216,216
			c116.385,0,216-100.715,216-216C472,140.331,371.966,40,256,40z"/>
	</g>
</g>
<g>
	<g>
		<path d="M234.306,198.971l-56.37-92.361c-2.841-4.653-8.886-6.175-13.59-3.419C113.442,133.008,80,193.999,80,256
			c0,5.522,4.477,10,10,10h106c5.523,0,10-4.478,10-10c0-17.673,9.512-34.223,24.824-43.191c2.315-1.356,3.989-3.587,4.644-6.189
			C236.123,204.018,235.704,201.262,234.306,198.971z M186.727,246h-86.4c3.131-48.03,28.512-94.361,65.851-120.264l46.14,75.598
			C198.479,212.439,189.287,228.48,186.727,246z"/>
	</g>
</g>
<g>
	<g>
		<path d="M256,226c-16.542,0-30,13.458-30,30s13.458,30,30,30s30-13.458,30-30S272.542,226,256,226z M256,266
			c-5.514,0-10-4.486-10-10c0-5.514,4.486-10,10-10c5.514,0,10,4.486,10,10C266,261.514,261.514,266,256,266z"/>
	</g>
</g>
<g>
	<g>
		<path d="M351.135,394.971l-56.37-92.359c-2.839-4.655-8.884-6.175-13.588-3.422C273.569,303.646,264.863,306,256,306
			c-8.863,0-17.569-2.354-25.177-6.81c-4.704-2.754-10.749-1.233-13.588,3.42l-56.37,92.359c-1.398,2.291-1.817,5.049-1.162,7.651
			c0.655,2.602,2.329,4.833,4.646,6.188C188.787,423.114,223.906,432,256,432s67.213-8.886,91.651-23.19
			c2.317-1.355,3.991-3.586,4.646-6.188C352.952,400.02,352.534,397.262,351.135,394.971z M256,412
			c-24.947,0-51.773-5.899-72.515-15.702l46.071-75.484C237.91,324.225,246.898,326,256,326s18.09-1.775,26.444-5.187l46.071,75.484
			C307.773,406.101,280.947,412,256,412z"/>
	</g>
</g>
<g>
	<g>
		<path d="M356.28,108.599c-4.546-3.044-10.692-1.865-13.794,2.638l-61.45,89.18c-1.519,2.204-2.09,4.925-1.587,7.554
			c0.503,2.628,2.039,4.945,4.264,6.434C297.668,223.733,306,239.284,306,256c0,5.522,4.477,10,10,10h106c5.523,0,10-4.478,10-10
			C432,197.226,402.278,139.367,356.28,108.599z M325.285,246c-2.33-16.183-10.263-31.023-22.439-41.987l50.299-72.997
			c33.558,26.333,55.668,69.739,58.537,114.984H325.285z"/>
	</g>
</g>
<g>
</g>
<g>
</g>
<g>
</g>
<g>
</g>
<g>
</g>
<g>
</g>
<g>
</g>
<g>
</g>
<g>
</g>
<g>
</g>
<g>
</g>
<g>
</g>
<g>
</g>
<g>
</g>
<g>
</g>
</svg>
