<?xml version="1.0" encoding="iso-8859-1"?>
<!-- Generator: Adobe Illustrator 19.0.0, SVG Export Plug-In . SVG Version: 6.00 Build 0)  -->
<svg version="1.1" id="Capa_1" xmlns="http://www.w3.org/2000/svg" xmlns:xlink="http://www.w3.org/1999/xlink" x="0px" y="0px"
	 viewBox="0 0 512 512" style="enable-background:new 0 0 512 512;" xml:space="preserve">
<g>
	<g>
		<path d="M108.233,279.067c-1.859-1.859-4.437-2.929-7.065-2.929c-2.638,0-5.216,1.069-7.075,2.929
			c-1.859,1.858-2.928,4.436-2.928,7.064c0,2.639,1.069,5.206,2.928,7.065c1.869,1.869,4.447,2.928,7.075,2.928
			s5.196-1.059,7.065-2.928c1.859-1.859,2.928-4.427,2.928-7.065C111.16,283.503,110.091,280.925,108.233,279.067z"/>
	</g>
</g>
<g>
	<g>
		<path d="M171.112,364.976c0-3.031-1.376-5.898-3.741-7.795l-11.887-9.534l9.534-11.887c1.658-2.067,2.427-4.709,2.137-7.343
			c-0.29-2.635-1.614-5.046-3.681-6.704l-11.887-9.534l9.534-11.887c1.658-2.067,2.427-4.709,2.137-7.343
			c-0.29-2.635-1.613-5.046-3.681-6.704l-11.887-9.534l9.533-11.886c3.453-4.306,2.762-10.595-1.543-14.047l-11.887-9.534
			l9.534-11.887c3.453-4.306,2.762-10.595-1.543-14.047l-11.887-9.534l9.534-11.887c1.659-2.067,2.427-4.709,2.137-7.343
			c-0.29-2.635-1.613-5.046-3.681-6.704L136,170.309l9.534-11.887c1.658-2.067,2.427-4.709,2.137-7.343
			c-0.29-2.635-1.614-5.046-3.681-6.704l-11.887-9.534l9.534-11.887c1.659-2.067,2.427-4.709,2.138-7.343
			c-0.29-2.635-1.614-5.046-3.681-6.704l-11.887-9.533l9.534-11.887c3.453-4.306,2.762-10.595-1.543-14.047l-11.887-9.534
			l9.534-11.887c1.659-2.067,2.427-4.709,2.138-7.343c-0.29-2.635-1.614-5.046-3.681-6.704l-11.88-9.528l9.805-12.201
			c2.408-2.998,2.883-7.111,1.221-10.578C129.786,2.198,126.284,0,122.439,0H10.188C4.669,0,0.195,4.475,0.195,9.992v492.015
			c0,5.518,4.474,9.992,9.992,9.992H161.12c5.519,0,9.992-4.475,9.992-9.992v-84.93c0-0.057,0-0.112-0.001-0.169L171.112,364.976z
			 M20.179,19.985h81.412l-3.011,3.746c-1.661,2.066-2.432,4.709-2.143,7.346c0.289,2.636,1.613,5.049,3.681,6.708l11.887,9.533
			l-9.534,11.887c-3.453,4.306-2.762,10.595,1.543,14.047l11.887,9.534l-9.534,11.887c-1.659,2.067-2.427,4.709-2.138,7.343
			c0.29,2.635,1.614,5.046,3.681,6.704l11.887,9.534l-9.534,11.887c-1.658,2.067-2.427,4.709-2.137,7.343
			c0.29,2.635,1.613,5.046,3.681,6.704l11.887,9.534l-9.534,11.887c-1.658,2.067-2.427,4.709-2.137,7.343
			c0.29,2.635,1.614,5.046,3.681,6.704l11.887,9.534l-9.533,11.886c-3.453,4.306-2.762,10.595,1.543,14.047l11.887,9.534
			l-9.534,11.887c-3.453,4.306-2.762,10.595,1.543,14.047l11.887,9.534l-9.533,11.887c-1.659,2.067-2.427,4.709-2.138,7.343
			c0.29,2.635,1.614,5.046,3.681,6.704l11.887,9.534l-9.534,11.887c-1.659,2.067-2.427,4.709-2.138,7.343
			c0.29,2.635,1.614,5.046,3.681,6.704l11.887,9.534l-9.534,11.887c-3.452,4.306-2.762,10.595,1.543,14.047l15.94,12.785v23.181
			l-22.907-22.907c-1.874-1.874-4.415-2.927-7.066-2.927H20.18V219.283l51.305,51.305c1.951,1.951,4.509,2.927,7.066,2.927
			c2.557,0,5.115-0.976,7.066-2.927c3.902-3.902,3.902-10.229,0-14.132L20.18,191.02v-38.424l34.317,34.317
			c1.952,1.951,4.509,2.927,7.066,2.927c2.557,0,5.115-0.976,7.066-2.927c3.902-3.902,3.902-10.229,0-14.132l-48.449-48.449V19.985z
			 M115.358,492.015H56.077v-61.752h45.848l13.434,13.434V492.015z M151.129,492.015L151.129,492.015h-15.786v-52.456
			c0-2.65-1.053-5.191-2.927-7.066l-19.287-19.288c-1.874-1.874-4.416-2.927-7.066-2.927H46.084c-5.519,0-9.992,4.475-9.992,9.992
			v71.744H20.18V387.103h96.835l34.114,34.114V492.015z"/>
	</g>
</g>
<g>
	<g>
		<path d="M273.006,364.691c-1.859-1.859-4.437-2.928-7.065-2.928c-2.638,0-5.216,1.068-7.065,2.928
			c-1.869,1.859-2.928,4.437-2.928,7.065s1.059,5.206,2.928,7.064c1.859,1.86,4.427,2.929,7.065,2.929
			c2.628,0,5.196-1.069,7.065-2.929c1.859-1.858,2.928-4.436,2.928-7.064S274.865,366.549,273.006,364.691z"/>
	</g>
</g>
<g>
	<g>
		<path d="M407.342,53.959h-39.694c-3.558,0-6.848,1.893-8.637,4.968l-4.659,8.009h-5.366l-1.707-5.805
			c-1.252-4.252-5.155-7.172-9.588-7.172h-93.127c-46.267,0-83.908,37.641-83.908,83.908v29.899c0,5.518,4.474,9.992,9.992,9.992
			h25.062c5.519,0,9.992-4.476,9.992-9.993c0-13.01,10.584-23.594,23.594-23.594h25.953c7.959,0,14.434,6.475,14.434,14.434v93.681
			c-8.159,4.278-13.739,12.826-13.739,22.66v58.904c0,5.518,4.474,9.992,9.992,9.992c5.519,0,9.992-4.475,9.992-9.992v-58.904
			c0-3.082,2.507-5.589,5.589-5.589h22.943v72.714c0,5.518,4.474,9.992,9.992,9.992s9.992-4.475,9.992-9.992v-72.714h11.404
			c3.081,0,5.588,2.507,5.588,5.589v211.089c0,3.082-2.507,5.589-5.588,5.589h-19.898v-59.689c0-5.518-4.474-9.992-9.992-9.992
			s-9.992,4.475-9.992,9.992v59.689h-14.45c-3.082,0-5.589-2.507-5.589-5.589v-75.349c0-5.518-4.474-9.992-9.992-9.992
			c-5.519,0-9.992,4.475-9.992,9.992v75.349c0,14.101,11.472,25.573,25.573,25.573h54.332c14.101,0,25.572-11.471,25.572-25.573
			V274.945c0-9.833-5.582-18.382-13.74-22.66v-92.951l2.455-16.691h4.213l4.659,8.009c1.79,3.076,5.079,4.968,8.637,4.968h39.694
			c5.519,0,9.992-4.475,9.992-9.992V63.951C417.334,58.433,412.86,53.959,407.342,53.959z M327.699,249.372H289.67v-80.776h38.029
			V249.372z M397.349,135.635h-23.955l-4.659-8.009c-1.79-3.076-5.079-4.968-8.637-4.968h-18.59c-4.957,0-9.165,3.634-9.886,8.538
			l-2.561,17.415h-40.87c-4.292-14.12-17.436-24.426-32.94-24.426h-25.953c-20.593,0-37.895,14.356-42.424,33.587h-6.233v-19.907
			c0-35.247,28.676-63.923,63.923-63.923h85.65l1.707,5.805c1.251,4.252,5.154,7.172,9.587,7.172h18.59
			c3.558,0,6.848-1.893,8.637-4.968l4.659-8.008h23.955V135.635z"/>
	</g>
</g>
<g>
	<g>
		<path d="M501.811,204.815H401.329c-5.519,0-9.992,4.475-9.992,9.992v19.553c0,2.65,1.053,5.191,2.927,7.066l20.972,20.972v112.637
			c0,1.438,0.311,2.86,0.91,4.167l26.343,57.413c1.629,3.55,5.176,5.826,9.082,5.826s7.453-2.275,9.082-5.826l26.343-57.413
			c0.601-1.307,0.91-2.728,0.91-4.167V262.399l20.972-20.972c1.874-1.875,2.927-4.416,2.927-7.066v-19.553
			C511.804,209.289,507.33,204.815,501.811,204.815z M467.92,372.852l-16.349,35.635l-11.225-24.464l27.575-27.576V372.852z
			 M467.92,328.184l-32.701,32.701v-20.999l32.701-32.701V328.184z M491.819,230.222l-20.972,20.971
			c-1.874,1.875-2.927,4.416-2.927,7.066v20.662l-32.701,32.701v-20.402l19.407-19.407c3.902-3.902,3.902-10.229,0-14.132
			c-3.902-3.901-10.229-3.901-14.131,0l-5.275,5.275v-4.695c0-2.65-1.053-5.191-2.927-7.066l-20.972-20.971V224.8h80.497V230.222z"
			/>
	</g>
</g>
<g>
</g>
<g>
</g>
<g>
</g>
<g>
</g>
<g>
</g>
<g>
</g>
<g>
</g>
<g>
</g>
<g>
</g>
<g>
</g>
<g>
</g>
<g>
</g>
<g>
</g>
<g>
</g>
<g>
</g>
</svg>
