<?xml version="1.0" encoding="iso-8859-1"?>
<!-- Generator: Adobe Illustrator 19.0.0, SVG Export Plug-In . SVG Version: 6.00 Build 0)  -->
<svg version="1.1" id="Capa_1" xmlns="http://www.w3.org/2000/svg" xmlns:xlink="http://www.w3.org/1999/xlink" x="0px" y="0px"
	 viewBox="0 0 512 512" style="enable-background:new 0 0 512 512;" xml:space="preserve">
<g>
	<g>
		<path d="M487.501,29.374H224.819L146.287,8.238C145.453,3.557,141.372,0,136.451,0H34.148c-5.523,0-10,4.478-10,10v2.805h-3.917
			C9.076,12.805,0,21.88,0,33.035v28.116c0,11.155,9.075,20.23,20.23,20.23h0.91L2.205,159.538c-0.84,3.466,0.23,7.118,2.808,9.583
			c22.513,21.523,51.395,32.281,80.287,32.281c28.885,0,57.779-10.764,80.287-32.281c2.578-2.465,3.648-6.116,2.808-9.583
			l-17.624-72.74l67.684,17.823c0.831,0.22,1.687,0.33,2.546,0.33h203.725c18.679,0,37.096,3.106,54.739,9.233
			c2.611,0.907,5.322,1.352,8.022,1.352c5.031,0,10.019-1.546,14.215-4.531C508.151,106.417,512,98.954,512,91.041V53.873
			C512,40.364,501.01,29.374,487.501,29.374z M44.148,20h82.303v41.382H44.148V20z M20.23,61.382c-0.126,0-0.23-0.104-0.23-0.231
			V33.035c0-0.127,0.104-0.23,0.23-0.23h3.917v28.577H20.23z M23.043,158.463l18.676-77.081h87.161l18.676,77.081
			C111.646,189.027,58.953,189.027,23.043,158.463z M440.801,85.644c-5.333-0.459-10.694-0.693-16.076-0.693h-202.43V84.95
			l-75.844-19.971V28.993l74.447,20.037c0.848,0.229,1.722,0.344,2.599,0.344h217.304V85.644z M492,91.041
			c0,2.02-1.185,3.163-1.891,3.666c-0.706,0.502-2.176,1.245-4.083,0.584c-8.27-2.872-16.693-5.143-25.225-6.823V49.374h26.7
			c2.481,0,4.499,2.019,4.499,4.499V91.041z"/>
	</g>
</g>
<g>
	<g>
		<path d="M407.101,302.202H96.072c-0.412,0-0.816,0.033-1.215,0.081c-52.609,2.074-94.809,48.293-94.809,104.818
			c0,56.525,42.2,102.744,94.809,104.818c0.399,0.048,0.803,0.081,1.215,0.081h311.029C464.943,512,512,464.942,512,407.101
			S464.943,302.202,407.101,302.202z M98.546,492.001c-43.284,0-78.498-38.086-78.498-84.899s35.214-84.899,78.498-84.899
			s78.498,38.086,78.498,84.899S141.83,492.001,98.546,492.001z M479.109,452h-116.07c-5.523,0-10,4.478-10,10
			c0,5.522,4.477,10,10,10h98.715c-14.78,12.467-33.849,20.001-54.653,20.001H156.327c18.772-14.53,32.56-35.936,38.071-60.716
			c1.145,0.457,2.391,0.715,3.699,0.715h149.359c5.523,0,10-4.478,10-10c0-5.522-4.477-10-10-10H198.097
			c-0.395,0-0.783,0.029-1.166,0.073c0.073-1.648,0.114-3.305,0.114-4.972c0-16.234-3.482-31.618-9.69-45.352h65.707
			c5.523,0,10-4.478,10-10c0-5.522-4.477-10-10-10h-76.085c-0.464,0-0.916,0.042-1.363,0.104
			c-5.564-7.438-12.056-14.054-19.287-19.651h250.775c34.298,0,63.89,20.456,77.272,49.798h-62.61c-5.523,0-10,4.478-10,10
			c0,5.522,4.477,10,10,10h66.237c0.889,0,1.746-0.127,2.566-0.345c0.926,5.013,1.434,10.17,1.434,15.446
			C492,423.579,487.266,438.965,479.109,452z"/>
	</g>
</g>
<g>
	<g>
		<path d="M68.811,361.236c-4.069-3.734-10.394-3.463-14.129,0.607c-12.598,13.729-18.806,32.553-17.034,51.646
			c0.481,5.186,4.839,9.077,9.945,9.077c0.31,0,0.622-0.015,0.936-0.044c5.5-0.51,9.544-5.382,9.033-10.881
			c-1.25-13.479,3.071-26.701,11.856-36.276C73.152,371.296,72.88,364.97,68.811,361.236z"/>
	</g>
</g>
<g>
	<g>
		<path d="M141.711,361.097c-3.799-4.01-10.129-4.178-14.137-0.379c-4.009,3.799-4.178,10.128-0.379,14.137
			c16.585,17.5,16.799,46.21,0.475,64c-8.187,8.923-19.515,13.693-31.082,13.101c-5.515-0.313-10.218,3.954-10.503,9.47
			c-0.285,5.516,3.955,10.218,9.471,10.503c0.997,0.052,1.992,0.077,2.984,0.077c16.482-0.001,32.33-7.055,43.867-19.63
			C165.684,427.009,165.372,386.061,141.711,361.097z"/>
	</g>
</g>
<g>
	<g>
		<path d="M115.247,389.935c-4.49-4.738-10.484-7.351-16.883-7.267c-6.403,0.052-12.363,2.732-16.784,7.55
			c-3.734,4.069-3.462,10.395,0.607,14.129c4.07,3.734,10.396,3.465,14.13-0.606c0.806-0.878,1.646-1.067,2.208-1.072
			c0.61-0.005,1.395,0.17,2.206,1.025c1.695,1.789,1.716,4.956,0.044,6.778c-0.862,0.938-1.764,1.094-2.365,1.068
			c-5.515-0.307-10.217,3.957-10.501,9.472c-0.284,5.516,3.957,10.217,9.472,10.501c0.39,0.021,0.778,0.03,1.166,0.03
			c6.398,0,12.526-2.713,16.964-7.549C124.343,414.37,124.227,399.41,115.247,389.935z"/>
	</g>
</g>
<g>
	<g>
		<path d="M317,452h-49.98c-5.523,0-10,4.478-10,10c0,5.522,4.477,10,10,10H317c5.523,0,10-4.478,10-10
			C327,456.478,322.523,452,317,452z"/>
	</g>
</g>
<g>
	<g>
		<path d="M378.001,372h-38c-5.523,0-10,4.478-10,10c0,5.522,4.477,10,10,10h38c5.523,0,10-4.478,10-10
			C388.001,376.478,383.524,372,378.001,372z"/>
	</g>
</g>
<g>
	<g>
		<path d="M300.131,344.68c-1.86-1.86-4.441-2.93-7.07-2.93c-2.63,0-5.21,1.069-7.07,2.93c-1.86,1.861-2.93,4.44-2.93,7.07
			s1.07,5.21,2.93,7.069c1.86,1.86,4.44,2.931,7.07,2.931s5.21-1.07,7.07-2.931c1.86-1.859,2.93-4.439,2.93-7.069
			S301.991,346.54,300.131,344.68z"/>
	</g>
</g>
<g>
	<g>
		<path d="M158.676,215.95c-5.523,0-10,4.478-10,10v45.711c0,5.522,4.477,10,10,10c5.523,0,10-4.477,10-10V225.95
			C168.676,220.428,164.199,215.95,158.676,215.95z"/>
	</g>
</g>
<g>
	<g>
		<path d="M215.019,134c-5.523,0-10,4.478-10,10v47.324c0,5.523,4.477,10,10,10c5.523,0,10-4.478,10-10V144
			C225.019,138.478,220.542,134,215.019,134z"/>
	</g>
</g>
<g>
	<g>
		<path d="M215.019,226.175c-5.523,0-10,4.478-10,10v15.176c0,5.522,4.477,10,10,10c5.523,0,10-4.478,10-10v-15.176
			C225.019,230.653,220.542,226.175,215.019,226.175z"/>
	</g>
</g>
<g>
</g>
<g>
</g>
<g>
</g>
<g>
</g>
<g>
</g>
<g>
</g>
<g>
</g>
<g>
</g>
<g>
</g>
<g>
</g>
<g>
</g>
<g>
</g>
<g>
</g>
<g>
</g>
<g>
</g>
</svg>
