<?xml version="1.0" encoding="iso-8859-1"?>
<!-- Generator: Adobe Illustrator 19.0.0, SVG Export Plug-In . SVG Version: 6.00 Build 0)  -->
<svg version="1.1" id="Capa_1" xmlns="http://www.w3.org/2000/svg" xmlns:xlink="http://www.w3.org/1999/xlink" x="0px" y="0px"
	 viewBox="0 0 368 368" style="enable-background:new 0 0 368 368;" xml:space="preserve">
<g>
	<g>
		<path d="M184,0C82.544,0,0,82.544,0,184s82.544,184,184,184c101.464,0,184-82.544,184-184S285.464,0,184,0z M184,352
			c-92.64,0-168-75.36-168-168S91.36,16,184,16c92.632,0,168,75.36,168,168S276.632,352,184,352z"/>
	</g>
</g>
<g>
	<g>
		<path d="M280.352,88.128c-0.08-0.088-0.112-0.208-0.192-0.296c-0.088-0.088-0.208-0.112-0.296-0.2
			C255.256,63.16,221.368,48,184,48c-37.352,0-71.216,15.144-95.824,39.608c-0.104,0.096-0.24,0.128-0.344,0.232
			c-0.104,0.104-0.136,0.24-0.224,0.344C63.16,112.776,48.016,146.624,48,183.952c0,0.016-0.008,0.032-0.008,0.056
			c0,0.016,0.008,0.032,0.008,0.048c0.016,37.312,15.144,71.152,39.576,95.744c0.104,0.112,0.136,0.264,0.248,0.376
			s0.256,0.144,0.368,0.248C112.8,304.856,146.656,320,184,320c37.36,0,71.232-15.152,95.84-39.616
			c0.104-0.088,0.232-0.12,0.328-0.216s0.128-0.224,0.216-0.328C304.848,255.232,320,221.36,320,184
			C320,146.624,304.84,112.736,280.352,88.128z M303.6,176h-80.408c-1.04-5.096-3.072-9.832-5.856-14.032l56.864-56.864
			C291.04,124.336,301.8,148.928,303.6,176z M192,64.408c27.064,1.8,51.656,12.552,70.88,29.392l-56.864,56.864
			c-4.192-2.776-8.92-4.816-14.016-5.856V64.408z M176,64.408v80.4c-5.096,1.04-9.824,3.072-14.024,5.856L105.112,93.8
			C124.344,76.96,148.936,66.208,176,64.408z M93.8,105.112l56.864,56.864c-2.784,4.192-4.816,8.928-5.856,14.024h-80.4
			C66.208,148.936,76.96,124.344,93.8,105.112z M64.408,192h80.4c1.04,5.096,3.072,9.824,5.848,14.016L93.792,262.88
			C76.96,243.648,66.2,219.056,64.408,192z M176,303.584c-27.064-1.8-51.664-12.56-70.896-29.4l56.864-56.856
			c4.2,2.784,8.928,4.824,14.032,5.856V303.584z M184,208c-0.008,0-0.008,0-0.016,0C170.76,207.992,160,197.232,160,184
			s10.768-24,24-24c13.216,0,23.968,10.736,23.992,23.952c0,0.016-0.008,0.032-0.008,0.048s0.008,0.032,0.008,0.048
			c-0.024,13.208-10.768,23.944-23.976,23.952C184.008,208,184.008,208,184,208z M192,303.592v-80.4
			c5.096-1.04,9.832-3.072,14.024-5.856l56.864,56.864C243.656,291.04,219.064,301.8,192,303.592z M274.2,262.888l-56.864-56.864
			c2.784-4.192,4.816-8.928,5.856-14.024h80.4C301.8,219.064,291.04,243.656,274.2,262.888z"/>
	</g>
</g>
<g>
</g>
<g>
</g>
<g>
</g>
<g>
</g>
<g>
</g>
<g>
</g>
<g>
</g>
<g>
</g>
<g>
</g>
<g>
</g>
<g>
</g>
<g>
</g>
<g>
</g>
<g>
</g>
<g>
</g>
</svg>
