<?xml version="1.0" encoding="iso-8859-1"?>
<!-- Generator: Adobe Illustrator 19.0.0, SVG Export Plug-In . SVG Version: 6.00 Build 0)  -->
<svg version="1.1" id="Capa_1" xmlns="http://www.w3.org/2000/svg" xmlns:xlink="http://www.w3.org/1999/xlink" x="0px" y="0px"
	 viewBox="0 0 512 512" style="enable-background:new 0 0 512 512;" xml:space="preserve">
<g>
	<g>
		<path d="M256,452c-5.52,0-10,4.48-10,10c0,5.52,4.48,10,10,10s10-4.48,10-10C266,456.48,261.52,452,256,452z"/>
	</g>
</g>
<g>
	<g>
		<path d="M276,336h-10v-10c0-5.522-4.478-10-10-10c-5.522,0-10,4.478-10,10v10h-10c-5.523,0-10,4.478-10,10c0,5.522,4.477,10,10,10
			h10v10c0,5.522,4.478,10,10,10c5.522,0,10-4.478,10-10v-10h10c5.522,0,10-4.478,10-10C286,340.478,281.522,336,276,336z"/>
	</g>
</g>
<g>
	<g>
		<path d="M256,276c-38.598,0-70,31.402-70,70c0,38.598,31.402,70,70,70c38.598,0,70-31.402,70-70C326,307.402,294.598,276,256,276z
			 M256,396c-27.57,0-50-22.43-50-50s22.43-50,50-50s50,22.43,50,50S283.57,396,256,396z"/>
	</g>
</g>
<g>
	<g>
		<path d="M346,241.005V230c0-13.036-8.361-24.152-20-28.28V180h10c16.575,0,30-13.425,30-30c0-16.542-13.458-30-30-30h-13.924
			c-8.828-16.508-17.579-27.928-24.142-36.479C289.874,73.02,286,67.706,286,61.72V30c0-16.542-13.458-30-30-30s-30,13.458-30,30
			v31.72c0,5.986-3.874,11.3-11.934,21.801c-6.563,8.551-15.314,19.972-24.142,36.479H174.8c-16.573,0-30,13.423-30,30
			c0,16.542,13.458,30,30,30H186v21.72c-11.639,4.128-20,15.244-20,28.28v11.005c-22.794,4.646-40,24.85-40,48.995v172
			c0,27.57,22.43,50,50,50h160c27.57,0,50-22.43,50-50V290C386,265.854,368.794,245.65,346,241.005z M229.932,95.697
			C238.909,84.001,246,74.762,246,61.72V30c0-5.514,4.486-10,10-10c5.514,0,10,4.486,10,10v31.72
			c0,13.042,7.091,22.281,16.068,33.978c5.011,6.53,10.881,14.186,17.009,24.303h-86.155
			C219.051,109.883,224.921,102.227,229.932,95.697z M174.8,160c-5.514,0-10-4.486-10-10c0-5.521,4.479-10,10-10
			c34.048,0,138.686,0,161.2,0c5.514,0,10,4.486,10,10c0,5.52-4.479,10-10,10H174.8z M306,180v20H206v-20H306z M366,452h-70
			c-5.522,0-10,4.478-10,10c0,5.522,4.478,9.9,10,9.9h68.28C360.152,483.539,349.036,492,336,492H176
			c-13.036,0-24.152-8.361-28.28-20H216c5.523,0,10-4.478,10-10c0-5.522-4.477-10-10-10h-70V290c0-16.542,13.458-30,30-30
			c5.523,0,10-4.478,10-10v-20c0-5.514,4.486-10,10-10h120c5.514,0,10,4.486,10,10v20c0,5.522,4.478,10,10,10
			c16.542,0,30,13.458,30,30V452z"/>
	</g>
</g>
<g>
</g>
<g>
</g>
<g>
</g>
<g>
</g>
<g>
</g>
<g>
</g>
<g>
</g>
<g>
</g>
<g>
</g>
<g>
</g>
<g>
</g>
<g>
</g>
<g>
</g>
<g>
</g>
<g>
</g>
</svg>
