<?xml version="1.0" encoding="iso-8859-1"?>
<!-- Generator: Adobe Illustrator 19.0.0, SVG Export Plug-In . SVG Version: 6.00 Build 0)  -->
<svg version="1.1" id="Capa_1" xmlns="http://www.w3.org/2000/svg" xmlns:xlink="http://www.w3.org/1999/xlink" x="0px" y="0px"
	 viewBox="0 0 512 512" style="enable-background:new 0 0 512 512;" xml:space="preserve">
<g>
	<g>
		<path d="M256,406c-5.52,0-10,4.48-10,10c0,5.52,4.48,10,10,10s10-4.48,10-10C266,410.48,261.52,406,256,406z"/>
	</g>
</g>
<g>
	<g>
		<path d="M502,326h-10V206h10c5.523,0,10-4.478,10-10c0-5.522-4.477-10-10-10c-27.214,0-92.499,0-116,0v-56
			c0-16.542-13.458-30-30-30h-36.762C323.65,90.7,326,80.476,326,70c0-38.598-31.402-70-70-70c-38.598,0-70,31.402-70,70
			c0,10.476,2.35,20.7,6.762,30H156c-16.542,0-30,13.458-30,30v56c-23.572,0-89,0-116,0c-5.523,0-10,4.478-10,10
			c0,5.522,4.477,10,10,10h10v120H10c-5.523,0-10,4.478-10,10c0,5.522,4.477,10,10,10h10v156c0,5.522,4.477,10,10,10
			c166.883,0,283.285,0,452,0c5.523,0,10-4.478,10-10V346h10c5.523,0,10-4.478,10-10C512,330.478,507.523,326,502,326z M126,492H40
			V346h86V492z M126,326H40V206h86V326z M256,20c27.57,0,50,22.43,50,50c0,12.199-4.437,23.934-12.499,33.08
			c-0.079,0.083-0.156,0.166-0.232,0.251C283.789,113.925,270.205,120,256,120c-14.205,0-27.789-6.075-37.269-16.669
			c-0.076-0.085-0.153-0.168-0.232-0.251C210.437,93.934,206,82.199,206,70C206,42.43,228.43,20,256,20z M306,492h-40v-36
			c0-5.522-4.477-10-10-10s-10,4.478-10,10v36h-40v-96c0-5.514,4.486-10,10-10h80c5.514,0,10,4.486,10,10V492z M366,196v296h-40v-96
			c0-16.542-13.458-30-30-30h-80c-16.542,0-30,13.458-30,30v96h-40V196v-66c0-5.514,4.486-10,10-10h51.03
			c13.034,12.757,30.628,20,48.97,20c18.342,0,35.936-7.243,48.97-20H356c5.514,0,10,4.486,10,10V196z M472,492h-86V346h86V492z
			 M472,326h-86V206h86V326z"/>
	</g>
</g>
<g>
	<g>
		<path d="M442,226h-26c-5.523,0-10,4.478-10,10c0,5.522,4.477,10,10,10h26c5.523,0,10-4.478,10-10C452,230.478,447.523,226,442,226
			z"/>
	</g>
</g>
<g>
	<g>
		<path d="M442,286h-26c-5.523,0-10,4.478-10,10c0,5.522,4.477,10,10,10h26c5.523,0,10-4.478,10-10C452,290.478,447.523,286,442,286
			z"/>
	</g>
</g>
<g>
	<g>
		<path d="M442,366h-26c-5.523,0-10,4.478-10,10c0,5.522,4.477,10,10,10h26c5.523,0,10-4.478,10-10C452,370.478,447.523,366,442,366
			z"/>
	</g>
</g>
<g>
	<g>
		<path d="M442,426h-26c-5.523,0-10,4.478-10,10c0,5.522,4.477,10,10,10h26c5.523,0,10-4.478,10-10C452,430.478,447.523,426,442,426
			z"/>
	</g>
</g>
<g>
	<g>
		<path d="M96,426H70c-5.523,0-10,4.478-10,10c0,5.522,4.477,10,10,10h26c5.523,0,10-4.478,10-10C106,430.478,101.523,426,96,426z"
			/>
	</g>
</g>
<g>
	<g>
		<path d="M96,366H70c-5.523,0-10,4.478-10,10c0,5.522,4.477,10,10,10h26c5.523,0,10-4.478,10-10C106,370.478,101.523,366,96,366z"
			/>
	</g>
</g>
<g>
	<g>
		<path d="M96,286H70c-5.523,0-10,4.478-10,10c0,5.522,4.477,10,10,10h26c5.523,0,10-4.478,10-10C106,290.478,101.523,286,96,286z"
			/>
	</g>
</g>
<g>
	<g>
		<path d="M96,226H70c-5.523,0-10,4.478-10,10c0,5.522,4.477,10,10,10h26c5.523,0,10-4.478,10-10C106,230.478,101.523,226,96,226z"
			/>
	</g>
</g>
<g>
	<g>
		<path d="M196,186h-20c-5.523,0-10,4.478-10,10c0,5.522,4.477,10,10,10h20c5.523,0,10-4.478,10-10C206,190.478,201.523,186,196,186
			z"/>
	</g>
</g>
<g>
	<g>
		<path d="M276,186h-40c-5.523,0-10,4.478-10,10c0,5.522,4.477,10,10,10h40c5.523,0,10-4.478,10-10C286,190.478,281.523,186,276,186
			z"/>
	</g>
</g>
<g>
	<g>
		<path d="M336,186h-20c-5.523,0-10,4.478-10,10c0,5.522,4.477,10,10,10h20c5.523,0,10-4.478,10-10C346,190.478,341.523,186,336,186
			z"/>
	</g>
</g>
<g>
	<g>
		<path d="M196,246h-20c-5.523,0-10,4.478-10,10c0,5.522,4.477,10,10,10h20c5.523,0,10-4.478,10-10C206,250.478,201.523,246,196,246
			z"/>
	</g>
</g>
<g>
	<g>
		<path d="M276,246h-40c-5.523,0-10,4.478-10,10c0,5.522,4.477,10,10,10h40c5.523,0,10-4.478,10-10C286,250.478,281.523,246,276,246
			z"/>
	</g>
</g>
<g>
	<g>
		<path d="M336,246h-20c-5.523,0-10,4.478-10,10c0,5.522,4.477,10,10,10h20c5.523,0,10-4.478,10-10C346,250.478,341.523,246,336,246
			z"/>
	</g>
</g>
<g>
	<g>
		<path d="M196,306h-20c-5.523,0-10,4.478-10,10c0,5.522,4.477,10,10,10h20c5.523,0,10-4.478,10-10C206,310.478,201.523,306,196,306
			z"/>
	</g>
</g>
<g>
	<g>
		<path d="M276,306h-40c-5.523,0-10,4.478-10,10c0,5.522,4.477,10,10,10h40c5.523,0,10-4.478,10-10C286,310.478,281.523,306,276,306
			z"/>
	</g>
</g>
<g>
	<g>
		<path d="M336,306h-20c-5.523,0-10,4.478-10,10c0,5.522,4.477,10,10,10h20c5.523,0,10-4.478,10-10C346,310.478,341.523,306,336,306
			z"/>
	</g>
</g>
<g>
	<g>
		<path d="M276,60h-10V50c0-5.522-4.477-10-10-10s-10,4.478-10,10v10h-10c-5.523,0-10,4.478-10,10c0,5.522,4.477,10,10,10h10v10
			c0,5.522,4.477,10,10,10s10-4.478,10-10V80h10c5.523,0,10-4.478,10-10C286,64.478,281.523,60,276,60z"/>
	</g>
</g>
<g>
</g>
<g>
</g>
<g>
</g>
<g>
</g>
<g>
</g>
<g>
</g>
<g>
</g>
<g>
</g>
<g>
</g>
<g>
</g>
<g>
</g>
<g>
</g>
<g>
</g>
<g>
</g>
<g>
</g>
</svg>
