<?xml version="1.0" encoding="iso-8859-1"?>
<!-- Generator: Adobe Illustrator 19.0.0, SVG Export Plug-In . SVG Version: 6.00 Build 0)  -->
<svg version="1.1" id="Capa_1" xmlns="http://www.w3.org/2000/svg" xmlns:xlink="http://www.w3.org/1999/xlink" x="0px" y="0px"
	 viewBox="0 0 512 512" style="enable-background:new 0 0 512 512;" xml:space="preserve">
<g>
	<g>
		<path d="M474.693,408c5.523,0,10-4.478,10-10v-26.525h-0.001c0-23.797-16.173-44.245-39.33-49.726l-129.34-30.615v-0.171
			c0-0.003,0-0.007,0-0.01v-28.742c19.128-14.331,32.837-35.511,37.473-59.867c18.621-0.149,33.726-15.337,33.726-33.993
			c0-11.877-6.126-22.344-15.379-28.426c1.225-1.66,1.958-3.704,1.958-5.925v-18.154c0-43.286-23.867-81.096-59.129-100.979
			c-0.451-0.308-0.937-0.574-1.444-0.808C296.788,5.097,277.954,0,257.952,0h-3.905c-20.002,0-38.836,5.097-55.273,14.058
			c-0.508,0.234-0.993,0.5-1.444,0.808c-35.262,19.884-59.129,57.694-59.129,100.979V134c0,2.221,0.733,4.266,1.958,5.925
			c-9.253,6.082-15.379,16.549-15.379,28.426c0,18.656,15.104,33.844,33.726,33.993c4.592,24.126,18.09,45.131,36.935,59.454
			c-0.004,0.115-0.017,0.229-0.017,0.345v28.996L66.6,321.732c-23.135,5.494-39.293,25.938-39.293,49.718V502
			c0,5.522,4.477,10,10,10h437.384c5.523,0,10-4.478,10-10v-31.5c0-5.522-4.477-10-10-10s-10,4.478-10,10V492h-56.698v-82.007
			v-76.536l32.762,7.755c14.094,3.335,23.937,15.779,23.937,30.263V398C464.693,403.522,469.169,408,474.693,408z M344.495,318.427
			l-48.453,48.453l-25.9-25.9l32.523-32.523c0.343,0.122,0.692,0.233,1.052,0.318L344.495,318.427z M255.999,326.837l-40.577-40.576
			v-12.722c11.942,5.219,25.118,8.122,38.961,8.122h3.232c13.629,0,26.612-2.812,38.405-7.88v13.034L255.999,326.837z
			 M355.219,154.511c6.773,0.976,12,6.801,12,13.84s-5.227,12.865-12,13.841V154.511z M156.779,182.193
			c-6.773-0.977-12-6.802-12-13.841s5.227-12.865,12-13.84V182.193z M163.212,124h-5.011v-8.154H158.2
			c0-31.594,15.37-59.663,39.021-77.134l11.352,37.717c1.302,4.328,5.274,7.121,9.572,7.121c0.955,0,1.925-0.138,2.886-0.427
			c5.289-1.592,8.286-7.17,6.694-12.458l-12.742-42.336c9.61-4.307,20.054-7.073,31.016-7.988v49.821c0,5.522,4.477,10,10,10
			c5.523,0,10-4.478,10-10V20.341c10.962,0.916,21.406,3.682,31.016,7.988l-12.742,42.336c-1.592,5.288,1.405,10.866,6.694,12.458
			c0.961,0.289,1.931,0.427,2.886,0.427c4.297,0,8.27-2.794,9.572-7.121l11.352-37.717c23.652,17.47,39.021,45.539,39.021,77.134
			V124h-5.011c-4.499-18.345-21.075-32-40.787-32H203.999C184.286,92,167.712,105.655,163.212,124z M327.592,124H184.406
			c3.647-7.118,11.061-12,19.593-12h104C316.532,112,323.945,116.882,327.592,124z M176.779,184.058V144h158.44v40.058
			c0,42.791-34.813,77.604-77.604,77.604h-3.232C211.592,261.661,176.779,226.849,176.779,184.058z M207.733,308.772
			c0.501-0.119,0.982-0.28,1.448-0.469l32.676,32.675l-25.901,25.901l-48.534-48.534L207.733,308.772z M163.993,343.201
			l44.892,44.892c3.905,3.904,10.237,3.904,14.143,0l32.971-32.971l32.972,32.972c1.953,1.952,4.512,2.929,7.071,2.929
			c2.559,0,5.119-0.977,7.071-2.929l44.88-44.88v56.779h-184V343.201z M123.993,328.659l20-4.75v76.084h-20V328.659z
			 M103.992,409.992V492H47.307V371.45c0-14.472,9.834-26.915,23.914-30.259l32.771-7.783V409.992z M387.993,492h-264v-72.007h30
			h204h30V492z M387.993,399.993h-20v-76.004l20,4.734V399.993z"/>
	</g>
</g>
<g>
	<g>
		<path d="M481.759,426.6c-1.86-1.871-4.44-2.93-7.07-2.93s-5.21,1.06-7.07,2.93c-1.86,1.86-2.93,4.431-2.93,7.07
			c0,2.63,1.07,5.21,2.93,7.07c1.86,1.859,4.44,2.93,7.07,2.93c2.64,0,5.21-1.07,7.07-2.93s2.93-4.44,2.93-7.07
			C484.689,431.03,483.619,428.46,481.759,426.6z"/>
	</g>
</g>
<g>
	<g>
		<path d="M161.049,440.93c-1.86-1.86-4.44-2.93-7.07-2.93s-5.21,1.069-7.07,2.93c-1.86,1.86-2.93,4.44-2.93,7.07
			s1.07,5.21,2.93,7.069c1.86,1.86,4.44,2.931,7.07,2.931s5.21-1.07,7.07-2.931c1.86-1.859,2.93-4.439,2.93-7.069
			S162.909,442.79,161.049,440.93z"/>
	</g>
</g>
<g>
	<g>
		<path d="M365.059,440.93c-1.86-1.86-4.44-2.93-7.07-2.93s-5.21,1.069-7.07,2.93c-1.86,1.861-2.93,4.44-2.93,7.07
			s1.07,5.21,2.93,7.069c1.86,1.86,4.44,2.931,7.07,2.931c2.64,0,5.21-1.07,7.07-2.931c1.87-1.859,2.93-4.439,2.93-7.069
			S366.929,442.79,365.059,440.93z"/>
	</g>
</g>
<g>
	<g>
		<path d="M315.279,196.177c-1.504-1.103-6.952-4.323-13.896,0.492c0,0,0,0,0,0.001c-0.171,0.118-0.309,0.212-0.419,0.287
			c-0.28,0.013-0.711,0.024-1.36,0.024c-1.436,0-4.595-2.195-7.133-3.959c-5.353-3.721-12.685-8.815-22.646-8.815
			c-3.518,0-8.392,0.776-13.845,3.871c-5.453-3.095-10.327-3.871-13.845-3.871c-9.961,0-17.293,5.095-22.646,8.815
			c-2.539,1.764-5.697,3.959-7.133,3.959c-0.649,0-1.08-0.012-1.36-0.024c-0.111-0.075-0.249-0.169-0.42-0.288
			c-6.943-4.814-12.391-1.596-13.896-0.492c-3.918,2.868-5.423,8.047-3.834,13.193c0.053,0.17,0.11,0.339,0.172,0.507
			c3.712,10.08,16.686,26.073,35.689,26.073c11.124,0,20.135-2.39,27.272-7.267c7.137,4.877,16.149,7.267,27.272,7.267
			c19.003,0,31.977-15.993,35.69-26.073c0.062-0.168,0.119-0.337,0.172-0.507C320.701,204.224,319.196,199.045,315.279,196.177z
			 M248.253,208.879c-2.873,3.496-7.442,7.071-19.546,7.071c-2.138,0-4.172-0.548-6.043-1.437c3.017-1.439,5.711-3.312,8.238-5.068
			c4.045-2.811,7.539-5.238,11.233-5.238c0.937,0,3.504,0.351,7.154,3.587C248.92,208.127,248.574,208.489,248.253,208.879z
			 M283.253,215.95c-12.104,0-16.673-3.575-19.546-7.071c-0.32-0.39-0.667-0.752-1.036-1.085c3.65-3.236,6.218-3.587,7.154-3.587
			c3.694,0,7.188,2.428,11.232,5.238c2.527,1.756,5.222,3.629,8.239,5.068C287.423,215.402,285.391,215.95,283.253,215.95z"/>
	</g>
</g>
<g>
	<g>
		<path d="M260.499,452h-51c-5.523,0-10,4.478-10,10c0,5.522,4.477,10,10,10h51c5.523,0,10-4.478,10-10
			C270.499,456.478,266.022,452,260.499,452z"/>
	</g>
</g>
<g>
	<g>
		<path d="M309.569,454.93c-1.86-1.86-4.44-2.93-7.07-2.93s-5.21,1.069-7.07,2.93c-1.86,1.86-2.93,4.44-2.93,7.07
			s1.07,5.21,2.93,7.069c1.86,1.86,4.44,2.931,7.07,2.931s5.21-1.07,7.07-2.931c1.86-1.859,2.93-4.439,2.93-7.069
			S311.429,456.79,309.569,454.93z"/>
	</g>
</g>
<g>
</g>
<g>
</g>
<g>
</g>
<g>
</g>
<g>
</g>
<g>
</g>
<g>
</g>
<g>
</g>
<g>
</g>
<g>
</g>
<g>
</g>
<g>
</g>
<g>
</g>
<g>
</g>
<g>
</g>
</svg>
