<?xml version="1.0" encoding="iso-8859-1"?>
<!-- Generator: Adobe Illustrator 19.0.0, SVG Export Plug-In . SVG Version: 6.00 Build 0)  -->
<svg version="1.1" id="Capa_1" xmlns="http://www.w3.org/2000/svg" xmlns:xlink="http://www.w3.org/1999/xlink" x="0px" y="0px"
	 viewBox="0 0 512 512" style="enable-background:new 0 0 512 512;" xml:space="preserve">
<g>
	<g>
		<path d="M192.387,347.883c-3.9-3.9-10.241-3.9-14.142,0c-3.91,3.91-3.91,10.241,0,14.152c3.9,3.9,10.241,3.9,14.142,0
			C196.297,358.124,196.297,351.793,192.387,347.883z"/>
	</g>
</g>
<g>
	<g>
		<path d="M283.205,263.402c-1.197-3.593-4.324-6.203-8.074-6.738l-49.506-7.071c-3.118-0.446-6.26,0.603-8.486,2.828
			L99.231,370.319c-11.682,11.697-11.682,30.731,0.009,42.437c11.696,11.681,30.729,11.685,42.434-0.006l22.423-22.433
			c3.904-3.906,3.903-10.238-0.003-14.144c-3.905-3.905-10.239-3.904-14.144,0.003l-22.417,22.426
			c-3.902,3.901-10.254,3.899-14.15,0.01c-3.898-3.903-3.898-10.255-0.005-14.154L227.747,270.1l24.752,3.535l-45.97,45.962
			c-3.906,3.904-3.906,10.237-0.001,14.144c3.905,3.907,10.238,3.906,14.144,0.001l60.117-60.107
			C283.467,270.957,284.402,266.995,283.205,263.402z"/>
	</g>
</g>
<g>
	<g>
		<path d="M491.474,20.513c-27.325-27.325-71.667-27.337-98.993,0l-94.021,94.001l-7.07-7.07
			c-11.727-11.729-30.698-11.731-42.427-0.001c-11.721,11.721-11.728,30.699-0.002,42.425l7.075,7.079L70.951,342.031
			c-19.229,19.231-25.44,47.796-16.452,73.021L8.794,460.765c-11.724,11.725-11.726,30.701,0,42.427
			c11.723,11.723,30.702,11.727,42.427,0l45.714-45.704c25.223,8.983,53.792,2.775,73.021-16.452L355.04,255.952l7.077,7.071
			c11.727,11.729,30.698,11.731,42.427,0.001c11.724-11.724,11.727-30.7,0-42.428l-7.07-7.07l93.997-94.016
			C518.842,92.163,518.845,47.884,491.474,20.513z M155.811,426.891c-14.963,14.963-37.835,18.891-56.917,9.778
			c-3.824-1.827-8.385-1.044-11.381,1.952l-50.437,50.426c-3.908,3.908-10.23,3.908-14.14,0c-3.906-3.907-3.907-10.228,0.002-14.139
			l50.426-50.437c2.996-2.997,3.778-7.557,1.952-11.381c-9.113-19.081-5.184-41.954,9.778-56.916l185.081-185.081l70.716,70.716
			L155.811,426.891z M390.4,248.882c-3.901,3.9-10.216,3.921-14.142-0.003c-59.012-59.007-88.844-88.815-102.687-102.633
			c-2.282-2.297-5.66-5.694-10.464-10.519c-3.908-3.907-3.909-10.229,0-14.14c3.911-3.91,10.226-3.911,14.14,0.001L390.4,234.741
			C394.307,238.649,394.308,244.971,390.4,248.882z M383.329,199.383l-70.725-70.725l94.021-94.002
			c19.503-19.512,51.191-19.511,70.704,0.002c19.542,19.54,19.561,51.162,0,70.706L383.329,199.383z"/>
	</g>
</g>
<g>
</g>
<g>
</g>
<g>
</g>
<g>
</g>
<g>
</g>
<g>
</g>
<g>
</g>
<g>
</g>
<g>
</g>
<g>
</g>
<g>
</g>
<g>
</g>
<g>
</g>
<g>
</g>
<g>
</g>
</svg>
