<?xml version="1.0" encoding="iso-8859-1"?>
<!-- Generator: Adobe Illustrator 19.0.0, SVG Export Plug-In . SVG Version: 6.00 Build 0)  -->
<svg version="1.1" id="Capa_1" xmlns="http://www.w3.org/2000/svg" xmlns:xlink="http://www.w3.org/1999/xlink" x="0px" y="0px"
	 viewBox="0 0 512 512" style="enable-background:new 0 0 512 512;" xml:space="preserve">
<g>
	<g>
		<path d="M502,257.999H193.452c0.475-0.621,0.883-1.308,1.211-2.055l9.531-21.683c2.223-5.056-0.074-10.956-5.13-13.178
			l-12.528-5.508l5.508-12.529c2.223-5.056-0.074-10.956-5.13-13.179l-17.29-7.601l-11.871-44.306l25.045,14.459
			c2.296,1.326,5.025,1.685,7.588,0.999l90.968-24.375l17.7,66.057c1.43,5.334,6.914,8.503,12.247,7.071
			c5.335-1.429,8.501-6.913,7.071-12.248l-20.271-75.655c-0.006-0.021-0.011-0.041-0.017-0.062c-0.005-0.02-0.011-0.04-0.017-0.06
			l-22.881-85.393c-5.535-20.659-26.851-32.961-47.505-27.427l-81.255,21.775c-10.008,2.681-18.372,9.099-23.553,18.072
			c-5.181,8.973-6.557,19.426-3.875,29.433l13.187,49.211c0.012,0.044,0.024,0.088,0.036,0.132l19.326,72.129
			c0.785,2.931,2.857,5.346,5.635,6.566l12.529,5.508l-5.508,12.529c-2.223,5.056,0.074,10.956,5.13,13.179l12.528,5.508
			l-5.507,12.529c-1.519,3.454-0.928,7.302,1.212,10.103H10c-5.522,0-10,4.478-10,10v120c0,5.522,4.478,10,10,10h236.008
			c-3.75,0.099-7.288,2.313-8.897,5.975c-2.223,5.056,0.074,10.956,5.13,13.179l12.529,5.508l-5.508,12.529
			c-1.067,2.428-1.127,5.181-0.164,7.652c0.962,2.472,2.866,4.46,5.294,5.526l12.529,5.508l-5.508,12.528
			c-2.223,5.056,0.074,10.956,5.13,13.179l12.521,5.504l-5.676,12.879c-1.552,3.521-0.946,7.621,1.559,10.542
			c1.928,2.248,4.716,3.491,7.592,3.491c0.862,0,1.731-0.111,2.588-0.341l101.793-27.275c2.563-0.687,4.746-2.362,6.072-4.659
			s1.686-5.026,0.999-7.588L374.126,398H502c5.522,0,10-4.478,10-10V268C512,262.477,507.522,257.999,502,257.999z M216.375,25.063
			c0.037,0.175,0.065,0.35,0.112,0.524l15.921,59.417l-34.574,9.264l-12.492-7.212l-13.281-49.565
			c-0.047-0.174-0.109-0.34-0.165-0.51L216.375,25.063z M150.431,110.639l-12.114-45.21c-1.299-4.847-0.632-9.91,1.877-14.256
			c2.51-4.346,6.561-7.455,11.408-8.754l1.028-0.276c0.037,0.175,0.065,0.349,0.112,0.524l14.354,53.565
			c0.687,2.562,2.362,4.746,4.659,6.072l19.666,11.355c1.533,0.885,3.26,1.34,5,1.34c0.867,0,1.736-0.113,2.588-0.341l48.234-12.924
			c5.335-1.429,8.501-6.913,7.071-12.248l-18.509-69.077c-0.025-0.094-0.061-0.182-0.088-0.274
			c9.043-0.974,17.725,4.742,20.151,13.796l20.309,75.794l-86.966,23.302L150.431,110.639z M20,277.999h90.013l-24.426,24.426
			c-2.305,2.305-5.369,3.574-8.629,3.574H20V277.999z M300.104,486.94l1.298-2.945c1.07-2.429,1.132-5.183,0.17-7.656
			c-0.961-2.474-2.866-4.464-5.296-5.531l-12.529-5.508l5.508-12.529c1.067-2.428,1.127-5.181,0.164-7.652
			c-0.962-2.472-2.866-4.459-5.294-5.526l-12.529-5.508l5.508-12.528c2.223-5.056-0.074-10.956-5.13-13.179l-21.684-9.532
			c-1.225-0.538-2.498-0.812-3.757-0.845H353.42l18.663,69.652L300.104,486.94z M492,307.999h-32.333c-5.522,0-10,4.478-10,10
			c0,5.522,4.478,10,10,10H492v17h-93.429c-5.522,0-10,4.478-10,10c0,5.522,4.478,10,10,10H492v13H20v-52h56.958
			c8.602,0,16.689-3.35,22.771-9.432l38.568-38.568h231.73c-0.829,1.418-1.597,2.881-2.258,4.416l-21.643,50.257
			c-3.225,7.488-10.577,12.327-18.73,12.327h-32.215c-5.522,0-10,4.478-10,10c0,5.522,4.478,10,10,10h32.215
			c16.148,0,30.711-9.584,37.1-24.416l21.643-50.258c3.225-7.488,10.576-12.326,18.729-12.326H492V307.999z"/>
	</g>
</g>
<g>
	<g>
		<path d="M214.201,347.929c-1.861-1.86-4.431-2.93-7.061-2.93c-2.64,0-5.21,1.069-7.08,2.93c-1.859,1.86-2.92,4.44-2.92,7.07
			s1.061,5.21,2.92,7.069c1.87,1.86,4.45,2.931,7.08,2.931c2.62,0,5.2-1.07,7.061-2.931c1.869-1.859,2.939-4.439,2.939-7.069
			S216.07,349.789,214.201,347.929z"/>
	</g>
</g>
<g>
	<g>
		<path d="M162.401,344.999H75.168c-5.522,0-10,4.478-10,10c0,5.522,4.478,10,10,10h87.233c5.522,0,10-4.478,10-10
			C172.401,349.477,167.924,344.999,162.401,344.999z"/>
	</g>
</g>
<g>
	<g>
		<path d="M290,307.999h-90.688c-5.522,0-10,4.478-10,10c0,5.522,4.478,10,10,10H290c5.522,0,10-4.478,10-10
			C300,312.477,295.522,307.999,290,307.999z"/>
	</g>
</g>
<g>
</g>
<g>
</g>
<g>
</g>
<g>
</g>
<g>
</g>
<g>
</g>
<g>
</g>
<g>
</g>
<g>
</g>
<g>
</g>
<g>
</g>
<g>
</g>
<g>
</g>
<g>
</g>
<g>
</g>
</svg>
