<?xml version="1.0" encoding="iso-8859-1"?>
<!-- Generator: Adobe Illustrator 19.0.0, SVG Export Plug-In . SVG Version: 6.00 Build 0)  -->
<svg version="1.1" id="Capa_1" xmlns="http://www.w3.org/2000/svg" xmlns:xlink="http://www.w3.org/1999/xlink" x="0px" y="0px"
	 viewBox="0 0 512 512" style="enable-background:new 0 0 512 512;" xml:space="preserve">
<g>
	<g>
		<path d="M500.299,53.717l-42.024-42.024c-15.576-15.576-40.922-15.578-56.498,0L11.682,401.785
			c-15.576,15.576-15.576,40.922,0,56.498l42.024,42.024c7.788,7.788,18.019,11.682,28.25,11.682
			c10.229,0,20.461-3.894,28.249-11.682L217.59,392.923c3.905-3.905,3.905-10.237,0-14.143c-3.906-3.904-10.236-3.904-14.143,0
			l-86.332,86.332l-70.237-70.237l93.09-93.09l14.077,14.077c5.89,5.89,13.626,8.834,21.362,8.834
			c7.735,0,15.472-2.944,21.362-8.834l34.929-34.929l0.001-0.001c0.001-0.001,0.001-0.001,0.002-0.002l84.151-84.151
			c5.706-5.706,8.849-13.292,8.849-21.362c0-8.07-3.143-15.656-8.849-21.362l-14.077-14.078l93.09-93.09l70.237,70.238
			L253.494,328.733c-3.905,3.905-3.905,10.237,0,14.143c3.906,3.904,10.236,3.904,14.143,0l232.661-232.661
			C507.844,102.67,512,92.637,512,81.966C512,71.295,507.844,61.262,500.299,53.717z M102.972,479.256l-6.909,6.909
			c-7.776,7.778-20.435,7.78-28.213,0l-42.024-42.024c-7.778-7.778-7.778-20.435,0-28.213l6.909-6.909L102.972,479.256z
			 M182.628,301.721c-3.981,3.98-10.459,3.98-14.438,0l-14.077-14.077l35.079-35.079l21.297,21.297L182.628,301.721z
			 M224.63,259.719l-21.297-21.297l35.079-35.079l21.297,21.297L224.63,259.719z M304.702,175.417c0,2.727-1.063,5.291-2.991,7.219
			l-27.859,27.86L252.555,189.2l35.079-35.079l14.076,14.077C303.64,170.126,304.702,172.69,304.702,175.417z M486.155,96.072
			l-6.909,6.909l-70.237-70.238l6.909-6.909c7.776-7.777,20.435-7.779,28.213,0l42.024,42.024c3.769,3.768,5.844,8.777,5.844,14.106
			C492,87.294,489.924,92.304,486.155,96.072z"/>
	</g>
</g>
<g>
	<g>
		<path d="M363.932,185.299c-1.87-1.86-4.439-2.93-7.069-2.93c-2.641-0.001-5.21,1.07-7.08,2.93c-1.86,1.86-2.92,4.44-2.92,7.07
			s1.06,5.21,2.92,7.07c1.87,1.86,4.439,2.93,7.08,2.93c2.63,0,5.199-1.07,7.069-2.93c1.86-1.86,2.931-4.44,2.931-7.07
			S365.793,187.159,363.932,185.299z"/>
	</g>
</g>
<g>
	<g>
		<path d="M339.554,209.677c-3.905-3.905-10.237-3.905-14.143,0l-56.104,56.103c-3.905,3.905-3.905,10.237,0,14.143
			c1.953,1.952,4.512,2.929,7.071,2.929c2.559-0.002,5.119-0.978,7.072-2.93l56.104-56.103
			C343.459,219.914,343.459,213.582,339.554,209.677z"/>
	</g>
</g>
<g>
	<g>
		<path d="M242.789,353.583c-1.86-1.86-4.44-2.931-7.07-2.931c-2.64,0-5.21,1.07-7.069,2.931c-1.86,1.859-2.931,4.439-2.931,7.069
			c0,2.631,1.07,5.21,2.931,7.07c1.859,1.86,4.439,2.93,7.069,2.93s5.21-1.069,7.07-2.93s2.93-4.439,2.93-7.07
			C245.719,358.022,244.65,355.442,242.789,353.583z"/>
	</g>
</g>
<g>
	<g>
		<path d="M156.545,355.446c-6.584-6.585-15.338-10.212-24.651-10.212c-9.311,0-18.065,3.627-24.649,10.211
			c-6.585,6.584-10.212,15.338-10.212,24.651c0,9.312,3.627,18.065,10.211,24.649c6.584,6.585,15.338,10.212,24.65,10.212
			s18.066-3.627,24.65-10.211c0,0,0,0,0.001-0.001c6.584-6.583,10.211-15.338,10.211-24.649
			C166.756,370.782,163.129,362.029,156.545,355.446z M142.403,390.604c-0.001,0-0.001,0-0.001,0.001
			c-2.807,2.807-6.538,4.353-10.508,4.353c-3.969,0-7.7-1.546-10.508-4.354c-2.807-2.807-4.353-6.538-4.353-10.507
			c0-3.97,1.546-7.701,4.354-10.509c2.807-2.807,6.538-4.353,10.507-4.353c3.97,0,7.701,1.546,10.509,4.354
			c2.808,2.806,4.353,6.538,4.353,10.508C146.756,384.066,145.21,387.797,142.403,390.604z"/>
	</g>
</g>
<g>
	<g>
		<path d="M404.735,107.255c-6.584-6.584-15.338-10.21-24.65-10.21c-9.313,0-18.066,3.626-24.651,10.21
			c-6.584,6.584-10.211,15.338-10.211,24.651s3.627,18.065,10.211,24.65c6.584,6.584,15.338,10.21,24.651,10.21
			c9.312,0,18.065-3.626,24.65-10.21c6.584-6.584,10.211-15.338,10.211-24.651C414.947,122.592,411.319,113.839,404.735,107.255z
			 M390.594,142.412c-2.807,2.807-6.538,4.352-10.507,4.352c-3.97,0-7.701-1.545-10.508-4.353
			c-2.808-2.807-4.354-6.538-4.354-10.507s1.546-7.7,4.354-10.507c2.807-2.807,6.538-4.353,10.508-4.353
			c3.969,0,7.7,1.545,10.507,4.353c2.808,2.807,4.354,6.538,4.354,10.507S393.402,139.605,390.594,142.412z"/>
	</g>
</g>
<g>
</g>
<g>
</g>
<g>
</g>
<g>
</g>
<g>
</g>
<g>
</g>
<g>
</g>
<g>
</g>
<g>
</g>
<g>
</g>
<g>
</g>
<g>
</g>
<g>
</g>
<g>
</g>
<g>
</g>
</svg>
