<?xml version="1.0" encoding="iso-8859-1"?>
<!-- Generator: Adobe Illustrator 19.0.0, SVG Export Plug-In . SVG Version: 6.00 Build 0)  -->
<svg version="1.1" id="Capa_1" xmlns="http://www.w3.org/2000/svg" xmlns:xlink="http://www.w3.org/1999/xlink" x="0px" y="0px"
	 viewBox="0 0 512 512" style="enable-background:new 0 0 512 512;" xml:space="preserve">
<g>
	<g>
		<path d="M347.399,170.93c-1.859-1.86-4.43-2.93-7.069-2.93c-2.63,0-5.21,1.07-7.07,2.93s-2.93,4.44-2.93,7.07
			s1.069,5.21,2.93,7.07c1.861,1.86,4.44,2.93,7.07,2.93c2.64,0,5.21-1.07,7.069-2.93c1.87-1.86,2.931-4.44,2.931-7.07
			S349.269,172.79,347.399,170.93z"/>
	</g>
</g>
<g>
	<g>
		<path d="M512,197v-62c0-5.523-4.478-10-10-10h-41c-5.522,0-10,4.477-10,10v36c0,19.713-13.654,36.288-32,40.787V178
			c0-5.523-4.478-10-10-10h-28.667c-5.522,0-10,4.477-10,10s4.478,10,10,10H399v92H74.486c5.042-51.566,48.646-92,101.514-92
			h131.333c5.522,0,10-4.477,10-10s-4.478-10-10-10h-56.626l-13.887-51.83c-1.171-4.372-5.133-7.412-9.659-7.412H194.8l-5.72-21.346
			C187.909,83.04,183.947,80,179.421,80h-40c-3.109,0-6.041,1.446-7.934,3.913c-1.893,2.466-2.53,5.672-1.726,8.676l20.916,78.062
			C95.518,182.34,54,231.41,54,290v26H10c-5.522,0-10,4.478-10,10v176c0,5.522,4.478,10,10,10h492c5.522,0,10-4.478,10-10V326
			c0-5.522-4.478-10-10-10h-16v-26c0-5.522-4.478-10-10-10h-6.083C495.418,261.233,512,231.019,512,197z M219.486,128.758
			L230.001,168h-19.294l-10.515-39.242H219.486z M171.748,100l18.22,68H176h-5.327l-18.22-68H171.748z M74,300h335h57v16H74V300z
			 M492,336v20h-81.001c-20.679,0-39.588,10.457-50.58,27.973l-26.012,41.447c-7.312,11.648-19.887,18.604-33.641,18.604H269
			c-5.522,0-10,4.478-10,10c0,5.522,4.478,10,10,10h31.767c20.679,0,39.588-10.457,50.58-27.973l26.012-41.447
			C384.67,382.955,397.246,376,410.999,376H492v67.591h-97.5c-5.522,0-10,4.478-10,10c0,5.522,4.478,10,10,10H492V492H20v-78.031
			h82.205c8.603,0,16.689-3.35,22.771-9.432l41.497-41.497c3.905-3.905,3.905-10.237,0-14.143c-3.906-3.904-10.236-3.904-14.143,0
			l-41.497,41.497c-2.305,2.305-5.369,3.574-8.629,3.574H20V336H492z M419,279.376v-47.194c29.447-4.797,52-30.4,52-61.182v-26h21
			v52C492,239.38,460.065,274.419,419,279.376z"/>
	</g>
</g>
<g>
	<g>
		<path d="M231.63,446.93c-1.861-1.86-4.441-2.93-7.07-2.93c-2.63,0-5.21,1.069-7.069,2.93c-1.86,1.86-2.931,4.44-2.931,7.07
			s1.07,5.21,2.931,7.069c1.859,1.86,4.439,2.931,7.069,2.931s5.21-1.07,7.07-2.931c1.86-1.859,2.93-4.439,2.93-7.069
			S233.491,448.79,231.63,446.93z"/>
	</g>
</g>
<g>
	<g>
		<path d="M178.786,444H73.439c-5.522,0-10,4.478-10,10c0,5.522,4.478,10,10,10h105.347c5.522,0,10-4.478,10-10
			C188.786,448.478,184.309,444,178.786,444z"/>
	</g>
</g>
<g>
	<g>
		<path d="M278.593,390H203.25c-5.522,0-10,4.478-10,10c0,5.522,4.478,10,10,10h75.343c5.522,0,10-4.478,10-10
			C288.593,394.478,284.115,390,278.593,390z"/>
	</g>
</g>
<g>
	<g>
		<path d="M396.625,76.833c-5.522,0-10,4.477-10,10c0,16.128-13.121,29.25-29.25,29.25c-5.522,0-10,4.477-10,10s4.478,10,10,10
			c27.156,0,49.25-22.093,49.25-49.25C406.625,81.31,402.147,76.833,396.625,76.833z"/>
	</g>
</g>
<g>
	<g>
		<path d="M352.701,18.928c-3.906-3.905-10.236-3.905-14.143,0c-3.905,3.905-3.905,10.237,0,14.143
			c4.924,4.923,4.924,12.934,0,17.857c-3.905,3.906-3.905,10.238,0.001,14.143C340.512,67.024,343.07,68,345.63,68
			s5.118-0.976,7.071-2.929C365.423,52.349,365.423,31.65,352.701,18.928z"/>
	</g>
</g>
<g>
	<g>
		<path d="M278.088,48.257c-2.283,0-4.141-1.857-4.141-4.141c0-5.523-4.478-10-10-10c-5.522,0-10,4.477-10,10
			c0,13.311,10.829,24.141,24.141,24.141c16.538,0,29.992-13.455,29.992-29.992C308.079,17.166,290.914,0,269.814,0
			c-27.549,0-49.961,22.413-49.961,49.961c0.001,36.666,29.831,66.497,66.498,66.497c5.522,0,10-4.477,10-10s-4.478-10-10-10
			c-25.639,0-46.497-20.858-46.497-46.497c0-16.521,13.44-29.961,29.961-29.961c10.071,0,18.265,8.193,18.265,18.265
			C288.08,43.775,283.598,48.257,278.088,48.257z"/>
	</g>
</g>
<g>
</g>
<g>
</g>
<g>
</g>
<g>
</g>
<g>
</g>
<g>
</g>
<g>
</g>
<g>
</g>
<g>
</g>
<g>
</g>
<g>
</g>
<g>
</g>
<g>
</g>
<g>
</g>
<g>
</g>
</svg>
