<?xml version="1.0" encoding="iso-8859-1"?>
<!-- Generator: Adobe Illustrator 19.0.0, SVG Export Plug-In . SVG Version: 6.00 Build 0)  -->
<svg version="1.1" id="Capa_1" xmlns="http://www.w3.org/2000/svg" xmlns:xlink="http://www.w3.org/1999/xlink" x="0px" y="0px"
	 viewBox="0 0 511.998 511.998" style="enable-background:new 0 0 511.998 511.998;" xml:space="preserve">
<g>
	<g>
		<path d="M262.07,289.198c-1.859-1.86-4.439-2.92-7.069-2.92c-2.63,0-5.21,1.061-7.07,2.92c-1.86,1.87-2.93,4.44-2.93,7.07
			c0,2.64,1.069,5.21,2.93,7.08c1.86,1.86,4.44,2.93,7.07,2.93c2.63,0,5.21-1.069,7.069-2.93c1.86-1.87,2.931-4.44,2.931-7.08
			C265.001,293.638,263.931,291.068,262.07,289.198z"/>
	</g>
</g>
<g>
	<g>
		<path d="M493.995,90.46L406.463,2.929c-3.906-3.905-10.236-3.905-14.143,0L24.611,370.638c-6.151,6.151-9.539,14.33-9.539,23.03
			s3.388,16.878,9.539,23.029l85.779,85.78c6.349,6.349,14.688,9.523,23.029,9.522c8.34,0,16.68-3.174,23.029-9.522l50.27-50.271
			c0.039-0.039,0.078-0.079,0.116-0.119l40.512-40.509c2.145-2.146,3.2-5.147,2.869-8.163l-1.946-17.717l17.716-1.946
			c5.49-0.604,9.451-5.543,8.849-11.032l-1.946-17.716l17.716-1.946c5.489-0.604,9.45-5.543,8.848-11.032l-1.946-17.716
			l17.717-1.946c2.637-0.29,5.05-1.615,6.709-3.684c1.659-2.069,2.429-4.713,2.14-7.349l-1.947-17.716l17.717-1.946
			c2.637-0.29,5.05-1.615,6.709-3.684c1.659-2.069,2.429-4.713,2.14-7.349l-1.946-17.716l17.716-1.946
			c5.49-0.604,9.451-5.542,8.849-11.032l-1.946-17.717l17.716-1.946c5.49-0.603,9.451-5.542,8.849-11.032l-1.946-17.717
			l17.716-1.946c5.49-0.604,9.451-5.542,8.849-11.032l-1.946-17.716l17.716-1.947c2.637-0.29,5.05-1.614,6.709-3.684
			c1.659-2.069,2.429-4.712,2.14-7.349l-1.947-17.716l17.717-1.946c2.637-0.29,5.05-1.615,6.709-3.684
			c1.659-2.069,2.429-4.712,2.14-7.349l-1.945-17.708l18.172-1.979c3.825-0.417,7.072-2.992,8.35-6.621
			C497.634,97.223,496.716,93.182,493.995,90.46z M105.527,469.328L57.859,421.66l55.178-55.178l36.771,36.77l-0.001,21.796
			L105.527,469.328z M142.306,488.334c-4.899,4.901-12.873,4.899-17.773,0l-4.863-4.863l47.208-47.208
			c1.875-1.876,2.929-4.419,2.929-7.071l0.001-30.08c0-2.652-1.054-5.195-2.929-7.071l-46.771-46.771
			c-3.906-3.904-10.236-3.904-14.143,0l-62.249,62.249l-4.963-4.963c-2.373-2.373-3.681-5.529-3.681-8.886
			c0-3.357,1.308-6.513,3.682-8.887l74.363-74.364l76.529,76.53v54.046h0.001L142.306,488.334z M457.717,90.654
			c-2.638,0.288-5.054,1.612-6.715,3.681c-1.661,2.069-2.433,4.714-2.143,7.352l1.946,17.716l-17.717,1.946
			c-2.637,0.29-5.05,1.615-6.709,3.684c-1.659,2.069-2.429,4.712-2.14,7.349l1.947,17.716l-17.717,1.946
			c-5.49,0.604-9.451,5.542-8.849,11.032l1.946,17.717l-17.716,1.946c-5.49,0.604-9.451,5.542-8.849,11.032l1.946,17.716
			l-17.716,1.946c-5.49,0.603-9.451,5.542-8.849,11.032l1.946,17.716l-17.716,1.947c-5.49,0.603-9.451,5.542-8.849,11.032
			l1.946,17.716l-17.717,1.946c-2.637,0.29-5.05,1.615-6.709,3.684c-1.659,2.069-2.429,4.713-2.14,7.349l1.947,17.716l-17.716,1.946
			c-2.637,0.29-5.05,1.615-6.709,3.684c-1.659,2.069-2.429,4.713-2.14,7.349l1.946,17.716l-17.716,1.946
			c-5.489,0.604-9.45,5.543-8.848,11.032l1.946,17.716l-17.716,1.946c-5.49,0.604-9.451,5.542-8.849,11.032l2.514,22.887
			l-20.163,20.162v-38.186c0-2.652-1.054-5.195-2.929-7.071l-79.458-79.458l117.739-117.74v82.472c0,5.522,4.478,10,10,10
			c5.522,0,10-4.478,10-10V158.533l32.001-32.001v55.98c0,5.523,4.478,10,10,10s10-4.477,10-10v-75.98l82.389-82.389l65.707,65.708
			L457.717,90.654z"/>
	</g>
</g>
<g>
</g>
<g>
</g>
<g>
</g>
<g>
</g>
<g>
</g>
<g>
</g>
<g>
</g>
<g>
</g>
<g>
</g>
<g>
</g>
<g>
</g>
<g>
</g>
<g>
</g>
<g>
</g>
<g>
</g>
</svg>
