<?xml version="1.0" encoding="iso-8859-1"?>
<!-- Generator: Adobe Illustrator 19.0.0, SVG Export Plug-In . SVG Version: 6.00 Build 0)  -->
<svg version="1.1" id="Capa_1" xmlns="http://www.w3.org/2000/svg" xmlns:xlink="http://www.w3.org/1999/xlink" x="0px" y="0px"
	 viewBox="0 0 512 512" style="enable-background:new 0 0 512 512;" xml:space="preserve">
<g>
	<g>
		<path d="M490.552,21.465C476.71,7.624,458.305,0,438.73,0c-19.576,0-37.98,7.624-51.822,21.465L273.436,134.936
			c-4.903-2.741-10.446-4.207-16.218-4.207c-8.899,0-17.266,3.466-23.559,9.758c-6.293,6.293-9.759,14.66-9.759,23.559
			c0,8.899,3.466,17.266,9.759,23.56l21.816,21.816L72.725,392.173l-23.797,0.438c-3.37,0.062-6.483,1.818-8.279,4.672
			L1.553,459.409c-2.486,3.951-1.908,9.097,1.393,12.397l37.265,37.265c1.931,1.93,4.491,2.929,7.074,2.929
			c1.836,0,3.683-0.504,5.323-1.536l62.126-39.096c2.854-1.796,4.61-4.909,4.672-8.28l0.438-23.797l60.398-60.398
			c3.905-3.905,3.905-10.237,0-14.143c-3.906-3.904-10.236-3.904-14.143,0l-62.513,62.514c-2.233,1.828-3.609,4.572-3.664,7.555
			l-0.414,22.5l-50.8,31.968l-25.979-25.979l31.968-50.8l22.5-0.414c2.907-0.054,5.578-1.371,7.398-3.509l185.021-185.02
			l18.833,18.833l-72.685,72.685c-3.905,3.905-3.905,10.237,0,14.143c3.906,3.904,10.236,3.904,14.143,0l72.685-72.685
			l21.816,21.816c6.293,6.293,14.66,9.759,23.56,9.759c8.9,0,17.267-3.466,23.56-9.759c10.755-10.755,12.596-27.091,5.542-39.768
			l113.48-113.481C519.127,96.534,519.127,50.04,490.552,21.465z M357.386,264.216c-2.516,2.515-5.859,3.9-9.416,3.9
			c-3.558,0-6.901-1.386-9.417-3.901l-90.751-90.751c-2.516-2.515-3.901-5.86-3.901-9.417s1.386-6.901,3.901-9.417
			c2.515-2.515,5.859-3.9,9.416-3.9c3.558,0,6.901,1.385,9.417,3.901l90.752,90.751c2.516,2.515,3.9,5.86,3.9,9.417
			S359.902,261.699,357.386,264.216z M363.847,223.53l-75.359-75.36L401.051,35.607C411.115,25.543,424.497,20,438.73,20
			c14.233,0,27.615,5.543,37.68,15.608c20.776,20.776,20.776,54.583,0,75.359L363.847,223.53z"/>
	</g>
</g>
<g>
	<g>
		<path d="M433.037,49.301c-3.905-3.904-10.235-3.905-14.143,0l-60.374,60.374c-3.905,3.905-3.905,10.237,0,14.142
			c1.953,1.953,4.512,2.929,7.071,2.929c2.559,0.001,5.119-0.975,7.072-2.928l60.374-60.374
			C436.942,59.539,436.942,53.207,433.037,49.301z"/>
	</g>
</g>
<g>
	<g>
		<path d="M348.117,134.22c-1.859-1.86-4.44-2.93-7.069-2.93c-2.631,0-5.211,1.07-7.07,2.93c-1.86,1.86-2.93,4.44-2.93,7.07
			c0,2.64,1.069,5.21,2.93,7.08c1.859,1.86,4.439,2.92,7.07,2.92c2.63,0,5.21-1.06,7.069-2.92c1.86-1.87,2.931-4.45,2.931-7.08
			S349.978,136.08,348.117,134.22z"/>
	</g>
</g>
<g>
	<g>
		<path d="M462.714,78.981c-3.906-3.905-10.236-3.905-14.142,0l-86.404,86.404c-3.905,3.905-3.905,10.237,0,14.143
			c1.953,1.953,4.512,2.929,7.071,2.929s5.118-0.976,7.071-2.929l86.404-86.404C466.619,89.219,466.619,82.887,462.714,78.981z"/>
	</g>
</g>
<g>
	<g>
		<path d="M204.907,340.08c-1.859-1.86-4.439-2.931-7.07-2.931c-2.63,0-5.21,1.07-7.069,2.931c-1.86,1.859-2.931,4.439-2.931,7.069
			c0,2.631,1.07,5.21,2.931,7.08c1.859,1.86,4.439,2.92,7.069,2.92c2.631,0,5.211-1.06,7.07-2.92c1.86-1.87,2.93-4.449,2.93-7.08
			C207.837,344.519,206.768,341.939,204.907,340.08z"/>
	</g>
</g>
<g>
</g>
<g>
</g>
<g>
</g>
<g>
</g>
<g>
</g>
<g>
</g>
<g>
</g>
<g>
</g>
<g>
</g>
<g>
</g>
<g>
</g>
<g>
</g>
<g>
</g>
<g>
</g>
<g>
</g>
</svg>
