<?xml version="1.0" encoding="iso-8859-1"?>
<!-- Generator: Adobe Illustrator 19.0.0, SVG Export Plug-In . SVG Version: 6.00 Build 0)  -->
<svg version="1.1" id="Capa_1" xmlns="http://www.w3.org/2000/svg" xmlns:xlink="http://www.w3.org/1999/xlink" x="0px" y="0px"
	 viewBox="0 0 512 512" style="enable-background:new 0 0 512 512;" xml:space="preserve">
<g>
	<g>
		<path d="M236,140c-5.52,0-10,4.48-10,10s4.48,10,10,10s10-4.48,10-10S241.52,140,236,140z"/>
	</g>
</g>
<g>
	<g>
		<path d="M416,0c-10.005,0-269.271,0-280,0c-16.542,0-30,13.458-30,30v20c0,5.523,4.478,10,10,10h50v20h-50
			c-27.57,0-50,22.43-50,50v220c0,27.57,22.43,50,50,50h40v10c0,16.542,13.458,30,30,30v62c0,5.522,4.478,10,10,10
			c5.522,0,10-4.478,10-10v-62c16.542,0,30-13.458,30-30v-10h40c27.57,0,50-22.43,50-50V130c0-27.57-22.43-50-50-50h-50V60h160v340
			h-20v-10c0-5.523-4.478-10-10-10c-5.522,0-10,4.477-10,10v20c0,5.523,4.478,10,10,10h30v82c0,5.522,4.478,10,10,10h40
			c5.522,0,10-4.478,10-10V30C446,13.458,432.542,0,416,0z M216,410c0,5.514-4.486,10-10,10h-20c-5.514,0-10-4.486-10-10v-10h40V410
			z M226,380h-60v-10c0-5.514,4.486-10,10-10h40c5.514,0,10,4.486,10,10V380z M306,220h-30c-5.522,0-10,4.477-10,10s4.478,10,10,10
			h30v20h-10c-5.522,0-10,4.477-10,10s4.478,10,10,10h10v20h-30c-5.522,0-10,4.477-10,10s4.478,10,10,10h30v30
			c0,16.542-13.458,30-30,30h-30v-10c0-16.542-13.458-30-30-30h-40c-16.542,0-30,13.458-30,30v10h-30c-16.542,0-30-13.458-30-30V200
			h220V220z M276,100c16.542,0,30,13.458,30,30v10h-30c-5.522,0-10,4.477-10,10s4.478,10,10,10h30v20H86v-50
			c0-16.542,13.458-30,30-30H276z M186,80V60h20v20H186z M386,40c-4.336,0-255.728,0-260,0V30c0-5.514,4.486-10,10-10h250V40z
			 M426,492h-20c0-22.465,0-458.949,0-472h10c5.514,0,10,4.486,10,10V492z"/>
	</g>
</g>
<g>
</g>
<g>
</g>
<g>
</g>
<g>
</g>
<g>
</g>
<g>
</g>
<g>
</g>
<g>
</g>
<g>
</g>
<g>
</g>
<g>
</g>
<g>
</g>
<g>
</g>
<g>
</g>
<g>
</g>
</svg>
