<?xml version="1.0" encoding="iso-8859-1"?>
<!-- Generator: Adobe Illustrator 19.0.0, SVG Export Plug-In . SVG Version: 6.00 Build 0)  -->
<svg version="1.1" id="Capa_1" xmlns="http://www.w3.org/2000/svg" xmlns:xlink="http://www.w3.org/1999/xlink" x="0px" y="0px"
	 viewBox="0 0 512 512" style="enable-background:new 0 0 512 512;" xml:space="preserve">
<g>
	<g>
		<path d="M475,492h-29V10c0-5.523-4.477-10-10-10H76c-5.523,0-10,4.477-10,10v482H37c-5.523,0-10,4.478-10,10
			c0,5.522,4.477,10,10,10h438c5.523,0,10-4.478,10-10C485,496.478,480.523,492,475,492z M426,492h-20V50c0-5.523-4.477-10-10-10
			H116c-5.523,0-10,4.477-10,10v182c0,5.523,4.477,10,10,10s10-4.477,10-10V60h260v432H126V315c0-5.522-4.477-10-10-10
			s-10,4.478-10,10v177H86V20h340V492z"/>
	</g>
</g>
<g>
	<g>
		<path d="M216,90h-40c-16.542,0-30,13.458-30,30v112c0,16.542,13.458,30,30,30h40c16.542,0,30-13.458,30-30V120
			C246,103.458,232.542,90,216,90z M226,232c0,5.514-4.486,10-10,10h-40c-5.514,0-10-4.486-10-10V120c0-5.514,4.486-10,10-10h40
			c5.514,0,10,4.486,10,10V232z"/>
	</g>
</g>
<g>
	<g>
		<path d="M336,90h-40c-16.542,0-30,13.458-30,30v112c0,16.542,13.458,30,30,30h40c16.542,0,30-13.458,30-30V120
			C366,103.458,352.542,90,336,90z M346,232c0,5.514-4.486,10-10,10h-40c-5.514,0-10-4.486-10-10V120c0-5.514,4.486-10,10-10h40
			c5.514,0,10,4.486,10,10V232z"/>
	</g>
</g>
<g>
	<g>
		<path d="M216,280h-40c-16.542,0-30,13.458-30,30v122c0,16.542,13.458,30,30,30h40c16.542,0,30-13.458,30-30V310
			C246,293.458,232.542,280,216,280z M226,432c0,5.514-4.486,10-10,10h-40c-5.514,0-10-4.486-10-10V310c0-5.514,4.486-10,10-10h40
			c5.514,0,10,4.486,10,10V432z"/>
	</g>
</g>
<g>
	<g>
		<path d="M336,280h-40c-16.542,0-30,13.458-30,30v122c0,16.542,13.458,30,30,30h40c16.542,0,30-13.458,30-30V310
			C366,293.458,352.542,280,336,280z M346,432c0,5.514-4.486,10-10,10h-10v-58c0-5.522-4.477-10-10-10s-10,4.478-10,10v58h-10
			c-5.514,0-10-4.486-10-10V310c0-5.514,4.486-10,10-10h40c5.514,0,10,4.486,10,10V432z"/>
	</g>
</g>
<g>
	<g>
		<path d="M123.07,268.93c-1.86-1.86-4.44-2.93-7.07-2.93s-5.21,1.069-7.07,2.93c-1.86,1.86-2.93,4.44-2.93,7.07
			s1.07,5.21,2.93,7.069c1.86,1.86,4.44,2.931,7.07,2.931s5.21-1.07,7.07-2.931c1.86-1.859,2.93-4.439,2.93-7.069
			S124.93,270.79,123.07,268.93z"/>
	</g>
</g>
<g>
	<g>
		<path d="M323.07,340.93c-1.86-1.86-4.44-2.93-7.07-2.93s-5.21,1.069-7.07,2.93c-1.86,1.86-2.93,4.44-2.93,7.07
			s1.07,5.21,2.93,7.069c1.86,1.861,4.44,2.931,7.07,2.931s5.21-1.07,7.07-2.931c1.86-1.859,2.93-4.439,2.93-7.069
			S324.93,342.79,323.07,340.93z"/>
	</g>
</g>
<g>
</g>
<g>
</g>
<g>
</g>
<g>
</g>
<g>
</g>
<g>
</g>
<g>
</g>
<g>
</g>
<g>
</g>
<g>
</g>
<g>
</g>
<g>
</g>
<g>
</g>
<g>
</g>
<g>
</g>
</svg>
