<?xml version="1.0" encoding="iso-8859-1"?>
<!-- Generator: Adobe Illustrator 19.0.0, SVG Export Plug-In . SVG Version: 6.00 Build 0)  -->
<svg version="1.1" id="Capa_1" xmlns="http://www.w3.org/2000/svg" xmlns:xlink="http://www.w3.org/1999/xlink" x="0px" y="0px"
	 viewBox="0 0 512 512" style="enable-background:new 0 0 512 512;" xml:space="preserve">
<g>
	<g>
		<path d="M256,0C116.863,0,0,125.078,0,262c0,140.372,120.359,250,256,250c138.01,0,256-117.815,256-256
			C512,118.017,394.185,0,256,0z M20,262C20,133.084,130.28,20,256,20c57.351,0,114.533,23.019,158.412,63.445L291.858,206H96
			c-16.542,0-30,13.458-30,30v40c0,16.542,13.458,30,30,30h95.858L81.871,415.987C41.904,373.371,20,319.068,20,262z M300.142,226
			H306v60h-65.857L300.142,226z M211.858,286H126v-60h145.858L211.858,286z M106,226v60H96c-5.514,0-10-4.486-10-10v-40
			c0-5.514,4.486-10,10-10H106z M256,492c-58.399,0-116.089-22.492-159.855-62.002L220.143,306H416c16.542,0,30-13.458,30-30v-40
			c0-16.542-13.458-30-30-30h-95.858L428.554,97.588C468.981,141.467,492,198.65,492,256C492,383.925,383.925,492,256,492z M326,286
			v-60h90c5.514,0,10,4.486,10,10v40c0,5.514-4.486,10-10,10H326z"/>
	</g>
</g>
<g>
	<g>
		<path d="M206,76h-20c-14.492,0-27.714,7.956-34.717,20.361c-12.244,1.367-23.205,6.573-31.354,15
			C110.947,120.649,106,132.951,106,146v40c0,5.523,4.478,10,10,10c5.522,0,10-4.477,10-10c0-16.542,13.458-30,30-30h50
			c22.056,0,40-17.944,40-40C246,93.944,228.056,76,206,76z M206,136h-50c-11.246,0-21.638,3.733-30,10.023V146
			c0-14.908,10.937-30,31.84-30c4.231,0,8.006-2.664,9.423-6.651C170.101,101.364,177.63,96,186,96h20c11.028,0,20,8.972,20,20
			S217.028,136,206,136z"/>
	</g>
</g>
<g>
</g>
<g>
</g>
<g>
</g>
<g>
</g>
<g>
</g>
<g>
</g>
<g>
</g>
<g>
</g>
<g>
</g>
<g>
</g>
<g>
</g>
<g>
</g>
<g>
</g>
<g>
</g>
<g>
</g>
</svg>
