<?xml version="1.0" encoding="iso-8859-1"?>
<!-- Generator: Adobe Illustrator 19.0.0, SVG Export Plug-In . SVG Version: 6.00 Build 0)  -->
<svg version="1.1" id="Capa_1" xmlns="http://www.w3.org/2000/svg" xmlns:xlink="http://www.w3.org/1999/xlink" x="0px" y="0px"
	 viewBox="0 0 512 512" style="enable-background:new 0 0 512 512;" xml:space="preserve">
<g>
	<g>
		<path d="M248.11,178.549l-0.347-0.348c-3.915-3.896-10.246-3.88-14.141,0.035c-3.896,3.915-3.88,10.247,0.035,14.142l0.242,0.243
			c1.956,1.976,4.53,2.964,7.106,2.964c2.542,0,5.086-0.964,7.035-2.894C251.965,188.805,251.996,182.474,248.11,178.549z"/>
	</g>
</g>
<g>
	<g>
		<path d="M170,214c-23.159,0-42,18.841-42,42s18.841,42,42,42s42-18.841,42-42S193.159,214,170,214z M170,278
			c-12.131,0-22-9.869-22-22c0-12.131,9.869-22,22-22s22,9.869,22,22S182.131,278,170,278z"/>
	</g>
</g>
<g>
	<g>
		<path d="M273.467,332c-16.542,0-30,13.458-30,30s13.458,30,30,30s30-13.458,30-30S290.009,332,273.467,332z M273.467,372
			c-5.514,0-10-4.486-10-10c0-5.514,4.486-10,10-10c5.514,0,10,4.486,10,10C283.467,367.514,278.981,372,273.467,372z"/>
	</g>
</g>
<g>
	<g>
		<path d="M502,326H380v-38c0-5.522-4.477-10-10-10h-30v-22c0-22.186-4.278-43.389-12.042-62.838
			c0.023-0.274,0.042-0.549,0.042-0.829v-49.075c0-17.135-13.94-31.075-31.075-31.075H262c-0.443,0-0.877,0.039-1.305,0.095
			C234.431,95.645,203.322,86,170,86C76.262,86,0,162.262,0,256v8.495C0,353.549,72.451,426,161.505,426H191c5.523,0,10-4.478,10-10
			c0-5.522-4.477-10-10-10h-29.495C83.982,406,20.83,343.335,20.019,266h40.434c2.293,25.608,13.365,49.381,31.766,67.782
			c21.444,21.444,49.613,32.166,77.781,32.166c28.168,0,56.337-10.722,77.782-32.166c30.044-30.045,40.118-75.288,25.662-115.261
			c-1.879-5.194-7.612-7.882-12.805-6.003c-5.193,1.878-7.881,7.611-6.003,12.805c11.829,32.711,3.588,69.733-20.997,94.317
			c-35.091,35.091-92.188,35.09-127.278,0C89.362,302.641,80,280.04,80,256c0-24.04,9.362-46.641,26.361-63.64
			c24.167-24.167,59.364-32.537,91.855-21.846c5.248,1.725,10.898-1.127,12.625-6.373c1.726-5.246-1.127-10.898-6.373-12.625
			c-8.066-2.655-16.269-4.331-24.468-5.096v-40.079C258.065,111.505,320,176.65,320,256v150h-50c-5.523,0-10,4.478-10,10
			c0,5.522,4.477,10,10,10h60c5.523,0,10-4.478,10-10v-30h30h122v14.988c0,5.522,4.477,10,10,10s10-4.478,10-10V336
			C512,330.478,507.523,326,502,326z M160,146.379c-25.147,2.264-49.147,13.205-67.781,31.839
			C73.817,196.619,62.746,220.393,60.453,246H20.341c4.946-74.758,64.9-134.713,139.659-139.659V146.379z M308,156.84
			c-6.414-8.901-13.667-17.158-21.642-24.657h10.567c6.107,0,11.075,4.968,11.075,11.075V156.84z M360,336v30h-20v-68h20V336z
			 M492,366H380v-20h112V366z"/>
	</g>
</g>
<g>
	<g>
		<path d="M235.4,408.93c-1.86-1.861-4.43-2.93-7.07-2.93c-2.63,0-5.21,1.069-7.07,2.93c-1.86,1.861-2.93,4.44-2.93,7.07
			s1.07,5.21,2.93,7.069c1.86,1.86,4.44,2.931,7.07,2.931s5.21-1.07,7.07-2.931c1.87-1.859,2.93-4.439,2.93-7.069
			S237.27,410.79,235.4,408.93z"/>
	</g>
</g>
<g>
</g>
<g>
</g>
<g>
</g>
<g>
</g>
<g>
</g>
<g>
</g>
<g>
</g>
<g>
</g>
<g>
</g>
<g>
</g>
<g>
</g>
<g>
</g>
<g>
</g>
<g>
</g>
<g>
</g>
</svg>
