<?xml version="1.0" encoding="iso-8859-1"?>
<!-- Generator: Adobe Illustrator 19.0.0, SVG Export Plug-In . SVG Version: 6.00 Build 0)  -->
<svg version="1.1" id="Capa_1" xmlns="http://www.w3.org/2000/svg" xmlns:xlink="http://www.w3.org/1999/xlink" x="0px" y="0px"
	 viewBox="0 0 512.001 512.001" style="enable-background:new 0 0 512.001 512.001;" xml:space="preserve">
<g>
	<g>
		<path d="M256,143.666c-5.523,0-10,4.477-10,10c0,5.523,4.477,10,10,10c50.912,0,92.332,41.42,92.332,92.332
			c0,5.522,4.477,10,10,10c5.523,0,10-4.478,10-10C368.332,194.057,317.939,143.666,256,143.666z"/>
	</g>
</g>
<g>
	<g>
		<path d="M224.536,342.834c-36.408-13.194-60.869-48.092-60.869-86.836c0-5.523-4.477-10-10-10s-10,4.477-10,10
			c0,47.134,29.761,89.587,74.055,105.639c1.125,0.408,2.275,0.602,3.407,0.602c4.09,0,7.928-2.528,9.402-6.596
			C232.412,350.451,229.729,344.716,224.536,342.834z"/>
	</g>
</g>
<g>
	<g>
		<path d="M255.999,348.33l-0.346-0.001c-0.024,0-0.047,0-0.072,0c-5.49,0-9.959,4.431-9.998,9.93
			c-0.039,5.522,4.406,10.031,9.929,10.07l0.487,0.001c5.523,0,10-4.478,10-10C265.999,352.808,261.522,348.33,255.999,348.33z"/>
	</g>
</g>
<g>
	<g>
		<path d="M492.867,218.921l-43.389-29.325c-1.575-1.064-2.438-2.9-2.252-4.792c0.206-2.099,1.493-3.266,2.242-3.774
			c0.749-0.509,2.308-1.275,4.335-0.692l29.991,8.618c2.171,1.169,4.771,1.539,7.328,0.855c5.138-1.376,8.299-6.534,7.194-11.737
			l-0.054-0.253c-0.125-0.59-0.302-1.161-0.525-1.707l-6.997-21.534c-4.928-15.167-17.745-26.318-33.447-29.103l-51.565-9.142
			c-1.872-0.332-3.407-1.658-4.006-3.461c-0.666-2.001,0.036-3.591,0.513-4.36c0.477-0.77,1.59-2.104,3.679-2.396l32.888-4.603
			c3.663-0.513,6.744-3.005,8.01-6.48c1.266-3.475,0.51-7.366-1.964-10.114l-15.817-17.566
			c-10.671-11.853-26.915-16.829-42.392-12.983l-50.826,12.622c-1.847,0.456-3.788-0.13-5.068-1.533
			c-1.422-1.558-1.428-3.296-1.305-4.193s0.597-2.568,2.386-3.685l28.172-17.582c3.138-1.958,4.938-5.488,4.682-9.178
			c-0.257-3.689-2.53-6.936-5.909-8.44l-21.594-9.615c-14.569-6.485-31.432-4.424-44.007,5.383l-41.299,32.203
			c-1.499,1.169-3.51,1.422-5.253,0.661c-1.933-0.845-2.645-2.43-2.897-3.299c-0.252-0.87-0.499-2.589,0.681-4.337l18.585-27.521
			c1.259-1.864,1.805-4,1.702-6.085C264.573,4.355,260.143,0,254.696,0h-23.638c-15.948,0-30.514,8.743-38.014,22.816
			l-24.629,46.217c-0.894,1.677-2.63,2.727-4.53,2.74c-0.013,0-0.026,0-0.039,0c-2.086,0-3.369-1.148-3.95-1.836
			c-0.584-0.692-1.509-2.162-1.142-4.239l5.785-32.701c0.644-3.642-0.774-7.343-3.688-9.621c-2.913-2.277-6.847-2.76-10.226-1.257
			l-21.594,9.615c-14.569,6.486-24.319,20.397-25.447,36.305l-3.702,52.238c-0.134,1.896-1.293,3.561-3.024,4.346
			c-1.92,0.872-3.574,0.34-4.39-0.055c-0.815-0.394-2.259-1.361-2.768-3.408l-8.016-32.226c-0.893-3.589-3.694-6.393-7.282-7.289
			c-3.586-0.897-7.378,0.263-9.854,3.011l-15.816,17.566c-10.671,11.851-13.921,28.526-8.48,43.518l17.866,49.229
			c0.648,1.787,0.267,3.78-0.995,5.201c-1.4,1.577-3.117,1.768-4.033,1.736c-0.905-0.029-2.617-0.325-3.914-1.988l-20.431-26.18
			c-2.276-2.916-5.977-4.34-9.618-3.696c-3.643,0.641-6.634,3.241-7.777,6.759l-7.304,22.48
			c-4.928,15.167-1.114,31.722,9.953,43.204l36.344,37.707c1.319,1.368,1.781,3.343,1.206,5.153
			c-0.638,2.012-2.14,2.885-2.979,3.227c-0.837,0.343-2.521,0.767-4.384-0.225l-29.311-15.608c-3.266-1.737-7.222-1.532-10.29,0.535
			c-3.067,2.067-4.742,5.659-4.355,9.337l2.471,23.508c1.667,15.861,11.885,29.434,26.666,35.422l48.538,19.663
			c1.762,0.714,2.987,2.33,3.199,4.219c0.235,2.097-0.781,3.505-1.408,4.158c-0.626,0.654-1.988,1.732-4.097,1.578l-33.126-2.335
			c-3.686-0.26-7.221,1.538-9.182,4.674c-1.961,3.137-2.031,7.099-0.181,10.302l11.819,20.471
			c7.974,13.812,22.832,22.054,38.766,21.513l52.339-1.778c1.888-0.068,3.676,0.913,4.638,2.554
			c1.067,1.818,0.711,3.519,0.405,4.371c-0.307,0.852-1.118,2.388-3.101,3.108l-31.212,11.341c-3.476,1.263-5.972,4.342-6.487,8.004
			c-0.515,3.662,1.032,7.311,4.024,9.484l19.124,13.894c12.901,9.372,29.824,10.861,44.165,3.886l47.091-22.913
			c1.709-0.834,3.731-0.66,5.275,0.444c1.715,1.229,2.082,2.927,2.148,3.83c0.066,0.903-0.05,2.637-1.568,4.101l-23.901,23.055
			c-2.662,2.567-3.689,6.396-2.671,9.951c1.018,3.556,3.916,6.259,7.534,7.027l23.122,4.915c2.996,0.637,6.007,0.948,8.994,0.947
			c12.561,0,24.642-5.5,32.933-15.362l33.7-40.085c1.223-1.455,3.141-2.119,5.001-1.738c2.066,0.424,3.092,1.826,3.52,2.624
			c0.427,0.798,1.026,2.429,0.235,4.384l-12.139,29.996c-1.012,1.979-1.374,4.307-0.871,6.649c1.159,5.391,6.461,8.832,11.856,7.68
			l23.122-4.914c15.599-3.316,28.029-14.896,32.438-30.222l14.482-50.327c0.526-1.826,2.006-3.215,3.861-3.623
			c2.06-0.45,3.568,0.412,4.283,0.967c0.715,0.556,1.926,1.802,1.998,3.909l1.14,33.188c0.127,3.696,2.284,7.021,5.608,8.643
			c3.323,1.623,7.271,1.278,10.264-0.896l19.123-13.893c12.902-9.374,19.547-25.009,17.342-40.804l-7.24-51.866
			c-0.262-1.883,0.525-3.752,2.055-4.88c1.698-1.253,3.425-1.079,4.305-0.859c0.879,0.216,2.492,0.861,3.416,2.759l14.541,29.855
			c1.619,3.325,4.942,5.484,8.638,5.615c3.691,0.112,7.163-1.791,9.012-4.994l11.819-20.471c7.974-13.812,7.686-30.798-0.753-44.329
			l-27.71-44.438c-1.005-1.612-1.047-3.641-0.107-5.294c1.042-1.833,2.692-2.375,3.583-2.535c0.891-0.162,2.627-0.227,4.242,1.131
			l25.427,21.36c2.833,2.378,6.746,3.001,10.176,1.615c3.43-1.384,5.815-4.549,6.202-8.228l2.471-23.509
			C513.252,243.252,506.079,227.852,492.867,218.921z M491.695,257.021l-0.503,4.791l-11.017-9.254
			c-5.74-4.822-13.264-6.826-20.642-5.502c-7.378,1.325-13.734,5.824-17.437,12.341c-4.569,8.04-4.368,17.909,0.526,25.756
			l27.71,44.438c4.52,7.249,4.675,16.349,0.403,23.747l-2.409,4.172l-6.3-12.935c-3.282-6.74-9.34-11.633-16.619-13.424
			c-7.28-1.788-14.916-0.266-20.949,4.182c-7.444,5.486-11.274,14.585-9.996,23.744l7.24,51.867
			c1.181,8.461-2.378,16.836-9.29,21.857l-3.897,2.831l-0.494-14.38c-0.258-7.491-3.801-14.424-9.723-19.021
			c-5.921-4.596-13.518-6.311-20.839-4.701c-9.032,1.984-16.231,8.738-18.789,17.625l-14.482,50.326
			c-2.363,8.21-9.021,14.414-17.377,16.19l-4.667,0.992l5.397-13.339c2.812-6.948,2.395-14.723-1.146-21.33
			c-3.54-6.608-9.782-11.263-17.125-12.771c-9.06-1.859-18.383,1.381-24.333,8.46l-33.7,40.085
			c-5.498,6.539-14.105,9.496-22.46,7.723l-4.712-1.002l10.355-9.989c5.396-5.204,8.176-12.477,7.63-19.953
			c-0.546-7.476-4.355-14.268-10.451-18.633c-7.519-5.385-17.355-6.214-25.67-2.168l-47.09,22.913
			c-7.682,3.738-16.747,2.94-23.659-2.081l-3.897-2.832l13.523-4.914c7.045-2.56,12.543-8.072,15.085-15.124
			c2.542-7.052,1.825-14.806-1.968-21.272c-4.679-7.977-13.318-12.744-22.569-12.422l-52.339,1.778
			c-8.537,0.279-16.496-4.126-20.767-11.524l-2.409-4.172l14.352,1.012c7.484,0.527,14.744-2.272,19.934-7.681
			c5.19-5.409,7.688-12.784,6.854-20.233c-1.03-9.19-6.994-17.057-15.565-20.529l-48.538-19.663
			c-7.918-3.207-13.392-10.479-14.285-18.975l-0.503-4.792l12.699,6.762c6.617,3.525,14.393,3.922,21.333,1.092
			c6.942-2.83,12.224-8.551,14.492-15.696c2.797-8.814,0.548-18.427-5.87-25.084l-36.343-37.707
			c-5.929-6.151-7.972-15.019-5.332-23.144l1.488-4.582l8.853,11.343c4.612,5.91,11.554,9.436,19.046,9.673
			c7.489,0.221,14.645-2.84,19.623-8.445c6.14-6.915,7.995-16.61,4.84-25.304l-17.865-49.227
			c-2.915-8.031-1.174-16.963,4.543-23.312l3.223-3.58l3.473,13.963c1.81,7.275,6.718,13.319,13.466,16.584
			c6.748,3.264,14.533,3.36,21.36,0.266c8.422-3.82,14.061-11.923,14.714-21.147l3.702-52.239
			c0.604-8.521,5.827-15.974,13.631-19.448l4.401-1.96l-2.507,14.168c-1.306,7.381,0.719,14.899,5.556,20.627
			c4.799,5.683,11.8,8.932,19.232,8.932c0.058,0,0.117,0,0.175,0c9.248-0.064,17.694-5.174,22.042-13.334l24.629-46.217
			C214.712,24.684,222.515,20,231.058,20h5.003l-8.229,12.186c-4.195,6.212-5.404,13.904-3.314,21.104
			c2.089,7.2,7.227,13.05,14.095,16.052c8.474,3.704,18.269,2.472,25.561-3.215l41.298-32.203c6.736-5.253,15.77-6.357,23.574-2.883
			L333.446,33l-12.206,7.618c-6.359,3.968-10.591,10.504-11.611,17.93c-1.021,7.427,1.293,14.861,6.348,20.398
			c6.235,6.83,15.686,9.689,24.659,7.459l50.826-12.622c8.29-2.059,16.992,0.606,22.708,6.955l3.224,3.58l-14.25,1.995
			c-7.423,1.039-13.948,5.288-17.9,11.657c-3.953,6.37-4.863,14.103-2.498,21.216c2.918,8.775,10.387,15.229,19.493,16.844
			l51.565,9.142c8.412,1.492,15.278,7.465,17.917,15.59l1.404,4.32l-13.797-3.965c-7.204-2.069-14.894-0.841-21.095,3.37
			c-6.202,4.211-10.178,10.906-10.91,18.366c-0.903,9.204,3.295,18.138,10.957,23.316l43.389,29.325
			C488.746,240.276,492.588,248.525,491.695,257.021z"/>
	</g>
</g>
<g>
	<g>
		<path d="M256.53,106l-0.53-0.001c-5.523,0-10,4.477-10,10s4.477,10,10,10l0.471,0.001c0.01,0,0.02,0,0.03,0
			c5.509,0,9.983-4.458,10-9.971C266.517,110.506,262.053,106.016,256.53,106z"/>
	</g>
</g>
<g>
	<g>
		<path d="M375.27,165.022c-19.454-25.469-47.042-44.356-77.679-53.18c-5.308-1.526-10.849,1.535-12.377,6.842
			c-1.529,5.307,1.535,10.848,6.841,12.377c55.312,15.932,93.943,67.307,93.943,124.937c0,71.682-58.317,129.999-129.999,129.999
			S126,327.681,126,255.998c0-58.252,39.161-109.778,95.23-125.3c5.323-1.474,8.443-6.983,6.97-12.306
			c-1.474-5.323-6.983-8.443-12.306-6.97c-64.702,17.912-109.893,77.363-109.893,144.575c0,82.709,67.289,149.999,149.999,149.999
			s149.999-67.289,149.999-149.999C405.998,222.799,395.373,191.34,375.27,165.022z"/>
	</g>
</g>
<g>
	<g>
		<path d="M256,179.998c-41.907,0-75.999,34.093-75.999,75.999c0,41.906,34.093,75.999,75.999,75.999s75.999-34.094,75.999-75.999
			C331.999,214.091,297.907,179.998,256,179.998z M256,311.997c-30.878,0-55.999-25.121-55.999-55.999
			c0-30.878,25.121-55.999,55.999-55.999c30.878,0,55.999,25.122,55.999,55.999C311.999,286.876,286.878,311.997,256,311.997z"/>
	</g>
</g>
<g>
</g>
<g>
</g>
<g>
</g>
<g>
</g>
<g>
</g>
<g>
</g>
<g>
</g>
<g>
</g>
<g>
</g>
<g>
</g>
<g>
</g>
<g>
</g>
<g>
</g>
<g>
</g>
<g>
</g>
</svg>
