<?xml version="1.0" encoding="iso-8859-1"?>
<!-- Generator: Adobe Illustrator 19.0.0, SVG Export Plug-In . SVG Version: 6.00 Build 0)  -->
<svg version="1.1" id="Capa_1" xmlns="http://www.w3.org/2000/svg" xmlns:xlink="http://www.w3.org/1999/xlink" x="0px" y="0px"
	 viewBox="0 0 512 512" style="enable-background:new 0 0 512 512;" xml:space="preserve">
<g>
	<g>
		<path d="M135.787,111.215C134.607,51.056,76.608,4.147,74.14,2.18c-3.648-2.907-8.82-2.907-12.466,0
			C59.206,4.148,1.22,51.052,0.03,111.116C0.012,111.773,0,112.431,0,113.093C0,150.537,30.463,181,67.907,181
			c37.444,0,67.908-30.463,67.908-67.907C135.815,112.433,135.803,111.777,135.787,111.215z M67.907,161
			C41.491,161,20,139.509,20,113.093c0-0.469,0.009-0.937,0.024-1.492c0.794-40.075,33.835-75.143,47.894-88.277
			c14.071,13.109,47.085,48.098,47.875,88.375c0.013,0.462,0.022,0.927,0.022,1.394C115.815,139.509,94.324,161,67.907,161z"/>
	</g>
</g>
<g>
	<g>
		<path d="M214,245.563c-5.523,0-10,4.477-10,10v72c0,5.523,4.477,10,10,10s10-4.478,10-10v-72
			C224,250.04,219.523,245.563,214,245.563z"/>
	</g>
</g>
<g>
	<g>
		<path d="M221.07,212.43c-1.86-1.86-4.44-2.93-7.07-2.93s-5.21,1.07-7.07,2.93s-2.93,4.44-2.93,7.07s1.07,5.21,2.93,7.07
			s4.44,2.93,7.07,2.93s5.21-1.07,7.07-2.93s2.93-4.44,2.93-7.07S222.93,214.29,221.07,212.43z"/>
	</g>
</g>
<g>
	<g>
		<path d="M502,132H160c-5.523,0-10,4.477-10,10v242.018c-5.605-4.612-10.637-10.059-14.945-16.275
			c-14.939-21.56-18.223-48.009-9.011-72.567l23.319-62.164c1.94-5.171-0.68-10.936-5.851-12.875
			c-5.172-1.94-10.936,0.679-12.875,5.851l-23.319,62.165c-11.38,30.337-7.157,64.349,11.298,90.981
			c8.334,12.027,19.102,21.856,31.384,29.03v25.521C150,476.868,185.132,512,228.315,512h205.37
			C476.868,512,512,476.868,512,433.685V142C512,136.477,507.523,132,502,132z M170,152h111c7.09,0,12.858,5.768,12.858,12.858
			v33.737c0,17.942,9.82,33.624,24.36,41.984L272.874,352.46c-12.115,29.892-40.785,49.207-73.04,49.207
			c-10.494,0-20.566-1.984-29.834-5.74V152z M492,433.685C492,465.84,465.84,492,433.685,492h-205.37
			C196.16,492,170,465.84,170,433.685V417.05c9.532,3.021,19.58,4.618,29.834,4.618c40.44,0,76.385-24.217,91.575-61.695
			l45.89-113.225c1.632,0.167,3.288,0.253,4.964,0.253c26.69,0,48.404-21.714,48.404-48.404v-3.762c0-5.422,4.411-9.833,9.833-9.833
			s9.833,4.411,9.833,9.833V209c0,5.523,4.477,10,10,10s10-4.477,10-10v-14.167c0-16.45-13.383-29.833-29.833-29.833
			s-29.833,13.383-29.833,29.833v3.762c0,15.662-12.742,28.404-28.404,28.404s-28.404-12.742-28.404-28.404v-33.737
			c0-4.561-0.936-8.907-2.623-12.858h146.961v175.563c0,7.682-6.25,13.932-13.932,13.932s-13.931-6.25-13.931-13.932V283
			c0-5.522-4.477-10-10-10s-10,4.478-10,10v44.563c0,18.71,15.222,33.932,33.932,33.932c18.709,0,33.931-15.222,33.931-33.932V152
			H492V433.685z"/>
	</g>
</g>
<g>
	<g>
		<path d="M427.41,235.93c-1.87-1.86-4.44-2.93-7.08-2.93c-2.63,0-5.21,1.07-7.07,2.93s-2.93,4.44-2.93,7.07s1.07,5.21,2.93,7.07
			s4.44,2.93,7.07,2.93c2.64,0,5.21-1.07,7.08-2.93c1.86-1.86,2.92-4.44,2.92-7.07S429.27,237.79,427.41,235.93z"/>
	</g>
</g>
<g>
</g>
<g>
</g>
<g>
</g>
<g>
</g>
<g>
</g>
<g>
</g>
<g>
</g>
<g>
</g>
<g>
</g>
<g>
</g>
<g>
</g>
<g>
</g>
<g>
</g>
<g>
</g>
<g>
</g>
</svg>
