<?xml version="1.0" encoding="iso-8859-1"?>
<!-- Generator: Adobe Illustrator 19.0.0, SVG Export Plug-In . SVG Version: 6.00 Build 0)  -->
<svg version="1.1" id="Capa_1" xmlns="http://www.w3.org/2000/svg" xmlns:xlink="http://www.w3.org/1999/xlink" x="0px" y="0px"
	 viewBox="0 0 512 512" style="enable-background:new 0 0 512 512;" xml:space="preserve">
<g>
	<g>
		<path d="M432,332c-5.52,0-10,4.48-10,10c0,5.52,4.48,10,10,10c5.52,0,10-4.48,10-10C442,336.48,437.52,332,432,332z"/>
	</g>
</g>
<g>
	<g>
		<path d="M392,332h-20c-5.522,0-10,4.477-10,10s4.478,10,10,10h20c5.522,0,10-4.477,10-10S397.522,332,392,332z"/>
	</g>
</g>
<g>
	<g>
		<path d="M236,252h-30v-30c0-5.523-4.477-10-10-10h-40c-5.523,0-10,4.477-10,10v30h-30c-5.523,0-10,4.477-10,10v40
			c0,5.523,4.477,10,10,10h30v30c0,5.523,4.477,10,10,10h40c5.523,0,10-4.477,10-10v-30h30c5.522,0,10-4.477,10-10v-40
			C246,256.477,241.522,252,236,252z M226,292h-30c-5.523,0-10,4.477-10,10v30h-20v-30c0-5.523-4.477-10-10-10h-30v-20h30
			c5.523,0,10-4.477,10-10v-30h20v30c0,5.523,4.477,10,10,10h30V292z"/>
	</g>
</g>
<g>
	<g>
		<path d="M502,412h-10v-97.39c0-10.68-3.407-20.638-9.038-28.675l-56.796-81.134C420.563,196.785,411.376,192,401.59,192H342v-16
			c0-16.542-13.458-30-30-30h-86v-36c0-27.622-22.374-50-50-50c-27.57,0-50,22.43-50,50v36H50c-16.542,0-30,13.458-30,30v236H10
			c-5.523,0-10,4.477-10,10s4.477,10,10,10h46.728C56.253,435.298,56,438.635,56,442c0,38.598,31.402,70,70,70s70-31.402,70-70
			c0-3.365-0.253-6.802-0.728-10.1h147.456c-0.475,3.298-0.728,6.735-0.728,10.1c0,38.598,31.402,70,70,70c38.598,0,70-31.402,70-70
			c0-3.365-0.253-6.702-0.728-10H502c5.522,0,10-4.477,10-10S507.522,412,502,412z M146,110c0-16.542,13.458-30,30-30
			c16.569,0,30,13.429,30,30v36h-60V110z M126,492c-27.57,0-50-22.43-50-50c0-27.662,22.542-50,50-50c27.559,0,50,22.43,50,50
			S153.57,492,126,492z M322,412H189.229c-11.495-24.187-36.065-40-63.229-40c-27.166,0-51.736,15.814-63.229,40H40V176
			c0-5.514,4.486-10,10-10h262c5.514,0,10,4.486,10,10C322,189.517,322,407.339,322,412z M342,212h59.59
			c3.261,0,6.319,1.592,8.188,4.265L462.794,292H356.143l22.929-22.929c3.905-3.905,3.905-10.237,0-14.143
			c-3.906-3.905-10.236-3.905-14.143,0L342,277.857V212z M412,492c-27.57,0-50-22.43-50-50c0-27.723,22.596-50,50-50
			c21.135,0,40.08,13.398,47.145,33.339c0,0.001,0,0.002,0.001,0.003C461.039,430.684,462,436.289,462,442
			C462,469.57,439.57,492,412,492z M472,405.971C459.511,385.218,436.838,372,412,372c-27.166,0-51.736,15.814-63.229,40H342V312
			h129.881c0.075,0.865,0.119,1.735,0.119,2.61V405.971z"/>
	</g>
</g>
<g>
	<g>
		<path d="M412,412c-16.542,0-30,13.458-30,30s13.458,30,30,30s30-13.458,30-30S428.542,412,412,412z M412,452
			c-5.514,0-10-4.486-10-10c0-5.514,4.486-10,10-10c5.514,0,10,4.486,10,10C422,447.514,417.514,452,412,452z"/>
	</g>
</g>
<g>
	<g>
		<path d="M126,412c-16.542,0-30,13.458-30,30s13.458,30,30,30s30-13.458,30-30S142.542,412,126,412z M126,452
			c-5.514,0-10-4.486-10-10c0-5.514,4.486-10,10-10c5.514,0,10,4.486,10,10C136,447.514,131.514,452,126,452z"/>
	</g>
</g>
<g>
	<g>
		<path d="M176,0c-5.523,0-10,4.477-10,10v20c0,5.523,4.477,10,10,10s10-4.477,10-10V10C186,4.477,181.523,0,176,0z"/>
	</g>
</g>
<g>
	<g>
		<path d="M96,100H76c-5.523,0-10,4.477-10,10s4.477,10,10,10h20c5.523,0,10-4.477,10-10S101.523,100,96,100z"/>
	</g>
</g>
<g>
	<g>
		<path d="M276,100h-20c-5.522,0-10,4.477-10,10s4.478,10,10,10h20c5.522,0,10-4.477,10-10S281.522,100,276,100z"/>
	</g>
</g>
<g>
	<g>
		<path d="M253.782,32.219c-3.907-3.906-10.237-3.906-14.143,0l-14.14,14.14c-3.905,3.905-3.905,10.237,0,14.143
			c3.905,3.905,10.237,3.905,14.143,0l14.14-14.14C257.687,42.457,257.687,36.125,253.782,32.219z"/>
	</g>
</g>
<g>
	<g>
		<path d="M126.502,46.358l-14.14-14.14c-3.905-3.905-10.237-3.905-14.143,0c-3.906,3.905-3.905,10.237,0,14.143l14.14,14.14
			c3.905,3.905,10.237,3.905,14.143,0C130.407,56.596,130.407,50.264,126.502,46.358z"/>
	</g>
</g>
<g>
</g>
<g>
</g>
<g>
</g>
<g>
</g>
<g>
</g>
<g>
</g>
<g>
</g>
<g>
</g>
<g>
</g>
<g>
</g>
<g>
</g>
<g>
</g>
<g>
</g>
<g>
</g>
<g>
</g>
</svg>
