<?xml version="1.0" encoding="iso-8859-1"?>
<!-- Generator: Adobe Illustrator 19.0.0, SVG Export Plug-In . SVG Version: 6.00 Build 0)  -->
<svg version="1.1" id="Capa_1" xmlns="http://www.w3.org/2000/svg" xmlns:xlink="http://www.w3.org/1999/xlink" x="0px" y="0px"
	 viewBox="0 0 511.999 511.999" style="enable-background:new 0 0 511.999 511.999;" xml:space="preserve">
<g>
	<g>
		<path d="M325.939,217.086c-1.859-1.86-4.439-2.93-7.07-2.93c-2.63,0-5.21,1.07-7.071,2.93c-1.86,1.86-2.93,4.44-2.93,7.071
			c0,2.63,1.069,5.21,2.93,7.071c1.86,1.86,4.44,2.93,7.071,2.93c2.64,0,5.21-1.07,7.07-2.93c1.87-1.86,2.931-4.44,2.931-7.071
			C328.87,221.526,327.809,218.946,325.939,217.086z"/>
	</g>
</g>
<g>
	<g>
		<path d="M129.953,416.152c-1.86-1.86-4.439-2.92-7.071-2.92c-2.63,0-5.21,1.06-7.07,2.92c-1.86,1.87-2.931,4.44-2.931,7.071
			c0,2.64,1.07,5.21,2.931,7.081c1.859,1.86,4.439,2.92,7.07,2.92c2.631,0,5.21-1.06,7.071-2.92c1.86-1.87,2.93-4.44,2.93-7.081
			C132.883,420.592,131.814,418.022,129.953,416.152z"/>
	</g>
</g>
<g>
	<g>
		<path d="M478.047,109.949c0.001-0.002,0.002-0.003,0.003-0.005l-22.482-22.482l-62.136-62.135
			c-33.772-33.771-88.718-33.769-122.488,0L119.606,176.664c-16.358,16.359-25.368,38.109-25.368,61.244
			c0,23.135,9.01,44.885,25.368,61.243l28.009,28.01l-21.326,21.327c-0.002,0.002-0.003,0.003-0.005,0.005
			c-0.002,0.002-0.003,0.003-0.005,0.005l-81.124,81.124c-9.114,9.115-14.134,21.232-14.134,34.122s5.02,25.008,14.134,34.123
			c9.115,9.114,21.233,14.133,34.122,14.133c12.89,0,25.008-5.019,34.122-14.133l109.532-109.532
			c1.484-1.485,2.443-3.39,2.783-5.434l13.501-3.949c3.273-0.958,5.832-3.517,6.791-6.791l5.81-19.86l19.859-5.81
			c3.273-0.958,5.832-3.517,6.791-6.791l5.81-19.86l19.859-5.81c3.273-0.958,5.832-3.517,6.791-6.791l5.81-19.86l19.86-5.81
			c3.273-0.958,5.833-3.517,6.791-6.791l5.809-19.859l19.86-5.81c3.273-0.958,5.833-3.517,6.791-6.791l5.81-19.859l19.859-5.81
			c3.273-0.958,5.833-3.517,6.791-6.791l5.81-19.86l19.859-5.81c3.273-0.958,5.832-3.517,6.791-6.791l5.81-19.86l19.86-5.81
			c3.273-0.958,5.833-3.517,6.791-6.791l7.347-25.113C481.635,116.197,480.542,112.449,478.047,109.949z M133.75,285.009
			c-25.972-25.971-25.972-68.23,0-94.201L285.088,39.47c12.581-12.581,29.308-19.51,47.1-19.51c17.792,0,34.52,6.929,47.101,19.51
			l55.064,55.063l-10.61,10.61l-49.488-49.488c-23.42-23.42-61.527-23.42-84.949,0L149.935,195.025
			c-23.42,23.421-23.42,61.529,0,84.95l49.488,49.487l-10.61,10.61l-7.39-7.39L133.75,285.009z M99.256,483.722
			c-5.336,5.336-12.431,8.276-19.979,8.276c-3.258,0-6.432-0.551-9.418-1.603l40.324-40.325c3.905-3.905,3.905-10.238,0-14.143
			c-3.906-3.905-10.237-3.905-14.144,0l-41.493,41.492c-2.297-4.139-3.524-8.812-3.524-13.676c0-7.547,2.939-14.642,8.276-19.979
			l74.057-74.058l19.979,19.979c1.953,1.953,4.512,2.929,7.072,2.929s5.118-0.977,7.072-2.929c3.905-3.905,3.905-10.238,0-14.143
			l-19.979-19.979l14.259-14.259l19.982,19.983l19.975,19.975L99.256,483.722z M455.565,134.071l-19.859,5.81
			c-3.273,0.958-5.832,3.517-6.791,6.791l-5.81,19.86l-19.859,5.81c-3.273,0.958-5.832,3.517-6.791,6.791l-5.81,19.86l-19.86,5.81
			c-3.273,0.958-5.833,3.517-6.791,6.791l-5.809,19.859l-19.86,5.81c-3.273,0.958-5.833,3.517-6.791,6.791l-5.81,19.859
			l-19.859,5.81c-3.273,0.958-5.832,3.517-6.791,6.791l-5.81,19.86l-19.859,5.81c-3.273,0.958-5.832,3.517-6.791,6.791l-5.81,19.86
			l-19.859,5.81c-3.273,0.958-5.832,3.517-6.791,6.791l-5.81,19.86l-14.171,4.145l-11.22-11.22l97.821-97.822
			c3.905-3.905,3.905-10.238,0-14.143c-3.906-3.905-10.237-3.904-14.144,0l-73.068,73.069l-49.487-49.487
			c-15.622-15.622-15.622-41.041,0-56.664L303.449,69.799c7.567-7.568,17.628-11.735,28.33-11.735
			c10.703,0,20.765,4.167,28.331,11.735l49.488,49.488l-67.505,67.505c-3.905,3.905-3.905,10.238,0,14.143
			c1.953,1.953,4.512,2.929,7.072,2.929s5.118-0.977,7.072-2.929l92.259-92.258l11.217,11.218L455.565,134.071z"/>
	</g>
</g>
<g>
</g>
<g>
</g>
<g>
</g>
<g>
</g>
<g>
</g>
<g>
</g>
<g>
</g>
<g>
</g>
<g>
</g>
<g>
</g>
<g>
</g>
<g>
</g>
<g>
</g>
<g>
</g>
<g>
</g>
</svg>
