<?xml version="1.0" encoding="iso-8859-1"?>
<!-- Generator: Adobe Illustrator 19.0.0, SVG Export Plug-In . SVG Version: 6.00 Build 0)  -->
<svg version="1.1" id="Capa_1" xmlns="http://www.w3.org/2000/svg" xmlns:xlink="http://www.w3.org/1999/xlink" x="0px" y="0px"
	 viewBox="0 0 512.002 512.002" style="enable-background:new 0 0 512.002 512.002;" xml:space="preserve">
<g>
	<g>
		<path d="M226.003,452.002c-5.52,0-10,4.48-10,10c0,5.52,4.48,10,10,10s10-4.48,10-10
			C236.003,456.482,231.523,452.002,226.003,452.002z"/>
	</g>
</g>
<g>
	<g>
		<path d="M346.002,0.002c-66.168,0-120,53.832-120,120h-50.95l-9.099-90.995c-0.438-4.374-3.679-7.949-7.989-8.811l-100-20
			C52.55-0.887,47.28,2.625,46.197,8.041s2.429,10.684,7.845,11.767l92.746,18.549l8.165,81.645h-36.6
			c-18.001,0-31.782,15.693-29.824,33.274c2.452,22.9,34.008,317.604,35.555,332.045c1.698,15.21,14.518,26.681,29.819,26.681
			h144.199c15.302,0,28.121-11.47,29.824-26.725c0.861-8.045,25.734-240.326,26.294-245.562
			c62.349-4.238,111.782-56.308,111.782-119.713C466.002,53.834,412.17,0.002,346.002,0.002z M108.411,151.106
			c-0.659-5.923,3.96-11.104,9.941-11.104h38.6l8.17,81.686c-7.661-0.366-15.213-3.686-21.881-9.765
			c-8.809-8.033-19.175-13.018-29.874-14.532L108.411,151.106z M311.374,452.002h-45.372c-5.522,0-10,4.477-10,10s4.478,10,10,10
			h43.23l-1.188,11.101c-0.566,5.072-4.84,8.899-9.942,8.899H153.903c-5.102,0-9.376-3.826-9.938-8.855l-1.193-11.145h54.841
			c5.522,0,10-4.477,10-10s-4.478-10-10-10h-56.982l-25.024-233.7c4.96,1.556,9.744,4.374,14.159,8.4
			c14.051,12.81,31.818,17.757,48.771,13.567c8.955-2.217,17.268-6.782,24.705-13.568c14.348-13.085,32.176-13.085,46.523,0
			c10.987,10.02,23.862,15.029,36.737,15.029c12.876,0,25.753-5.01,36.741-15.031c4.096-3.738,8.525-6.45,13.12-8.065
			C332.787,252.025,313.56,431.593,311.374,452.002z M343.27,154.137c0.001-0.012,0.002-0.022,0.003-0.03
			C343.272,154.116,343.271,154.123,343.27,154.137z M343.59,151.147c-0.145,1.355-0.263,2.455-0.36,3.36
			c-0.01,0.09-0.021,0.197-0.034,0.321c-0.014,0.129-0.026,0.247-0.039,0.367c-0.007,0.064-0.014,0.127-0.021,0.198
			c-0.022,0.205-0.042,0.395-0.061,0.572c-0.42,3.925-1.6,14.939-4.449,41.547c-10.368,1.641-20.215,6.524-28.861,14.411
			c-14.348,13.085-32.176,13.085-46.523,0c-21.976-20.04-51.503-20.039-73.479,0.002c-1.657,1.512-3.367,2.838-5.117,4.008
			l-7.593-75.93h156.601v-0.001C339.532,140.002,344.266,145.068,343.59,151.147z M333.654,120.003h-47.651v-0.001
			c0-33.084,26.916-60,60-60s60,26.916,60,60c0,27.958-19.081,51.564-45.191,58.159l2.66-24.842
			C365.45,135.557,351.522,120.003,333.654,120.003z M356.389,219.465l2.19-20.458c38.434-6.045,67.423-39.217,67.423-79.004
			c0-44.112-35.888-80-80-80s-80,35.888-80,80h-20c0.001-55.142,44.86-100.001,100.001-100.001s100,44.86,100,100
			C446.003,171.635,406.668,214.252,356.389,219.465z"/>
	</g>
</g>
<g>
	<g>
		<path d="M276.003,326.002h-30v-50c0-5.523-4.478-10-10-10h-60c-5.522,0-10,4.477-10,10v60c0,5.523,4.478,10,10,10h30v50
			c0,5.523,4.478,10,10,10h60c5.522,0,10-4.477,10-10v-60C286.003,330.479,281.525,326.002,276.003,326.002z M186.003,326.002v-40
			h40v40C214.105,326.002,198.149,326.002,186.003,326.002z M266.003,386.002h-40v-40h40V386.002z"/>
	</g>
</g>
<g>
</g>
<g>
</g>
<g>
</g>
<g>
</g>
<g>
</g>
<g>
</g>
<g>
</g>
<g>
</g>
<g>
</g>
<g>
</g>
<g>
</g>
<g>
</g>
<g>
</g>
<g>
</g>
<g>
</g>
</svg>
