<?xml version="1.0" encoding="iso-8859-1"?>
<!-- Generator: Adobe Illustrator 19.0.0, SVG Export Plug-In . SVG Version: 6.00 Build 0)  -->
<svg version="1.1" id="Capa_1" xmlns="http://www.w3.org/2000/svg" xmlns:xlink="http://www.w3.org/1999/xlink" x="0px" y="0px"
	 viewBox="0 0 511.999 511.999" style="enable-background:new 0 0 511.999 511.999;" xml:space="preserve">
<g>
	<g>
		<path d="M256.078,501.066l-9.135-97.486c-0.134-1.433-0.577-2.82-1.296-4.067l-88.433-153.17l12.486-46.602
			c0.687-2.562,0.327-5.291-0.999-7.588l-15.154-26.248c-2.761-4.782-8.878-6.423-13.66-3.66l-35.142,20.289
			c-4.783,2.761-6.422,8.877-3.66,13.66c2.76,4.782,8.877,6.42,13.66,3.66l26.481-15.289l8.083,14l-12.486,46.602
			c-0.061,0.228-0.104,0.458-0.148,0.687c-0.075,0.22-0.154,0.438-0.215,0.665l-23.28,86.883l-12.588-21.803l11.599-43.287
			c1.43-5.335-1.736-10.818-7.071-12.248c-5.337-1.43-10.818,1.736-12.248,7.071l-6.423,23.97l-2.031-3.517
			c-1.326-2.297-3.51-3.973-6.072-4.659l-46.601-12.487l-8.083-14l15.867-9.161c4.783-2.761,6.422-8.877,3.66-13.66
			c-2.761-4.783-8.877-6.422-13.66-3.66l-24.526,14.16c-4.783,2.761-6.422,8.877-3.66,13.66l15.154,26.248
			c1.326,2.297,3.51,3.973,6.072,4.659l46.601,12.487l88.433,153.17c0.72,1.247,1.7,2.323,2.874,3.156l79.858,56.654
			c1.727,1.225,3.753,1.844,5.787,1.844c1.721,0,3.447-0.444,4.999-1.34C254.506,508.705,256.442,504.957,256.078,501.066z
			 M127.322,357.898l22.571-84.235l12.588,21.803l-22.571,84.235L127.322,357.898z M154.053,404.196l22.571-84.235l12.588,21.803
			l-22.571,84.235L154.053,404.196z M182.383,444.52l20.97-78.261l12.588,21.804l-10.247,38.24
			c-1.43,5.335,1.736,10.818,7.071,12.248c0.867,0.232,1.738,0.343,2.595,0.343c4.415,0,8.456-2.947,9.653-7.414l3.301-12.32
			l5.816,62.074L182.383,444.52z"/>
	</g>
</g>
<g>
	<g>
		<path d="M82.559,203.899c-1.87-1.86-4.44-2.92-7.07-2.92c-2.64,0-5.21,1.06-7.08,2.92c-1.86,1.86-2.92,4.44-2.92,7.08
			c0,2.63,1.06,5.21,2.92,7.07s4.439,2.93,7.08,2.93c2.63,0,5.21-1.07,7.07-2.93c1.86-1.86,2.93-4.44,2.93-7.07
			C85.489,208.339,84.419,205.759,82.559,203.899z"/>
	</g>
</g>
<g>
	<g>
		<path d="M446.639,44.759c-1.86-1.86-4.44-2.93-7.07-2.93s-5.21,1.07-7.07,2.93c-1.86,1.86-2.93,4.44-2.93,7.07
			c0,2.64,1.07,5.21,2.93,7.07c1.86,1.87,4.44,2.93,7.07,2.93s5.21-1.06,7.07-2.93c1.86-1.86,2.93-4.43,2.93-7.07
			C449.569,49.199,448.499,46.619,446.639,44.759z"/>
	</g>
</g>
<g>
	<g>
		<path d="M506.997,79.215l-33.08-19.099c-4.782-2.762-10.899-1.124-13.66,3.66c-2.762,4.783-1.123,10.899,3.66,13.66l24.42,14.099
			l-8.083,14l-46.602,12.487c-0.228,0.061-0.449,0.139-0.671,0.216c-0.228,0.044-0.455,0.086-0.682,0.147l-86.883,23.28
			l12.588-21.803l43.289-11.599c5.334-1.429,8.5-6.913,7.071-12.248c-1.429-5.335-6.91-8.501-12.248-7.071l-23.97,6.423l2.031-3.517
			c1.326-2.297,1.686-5.026,0.999-7.588L362.69,37.66l8.083-14l26.756,15.448c4.781,2.76,10.899,1.123,13.66-3.66
			c2.762-4.783,1.123-10.899-3.66-13.66L372.113,1.339c-2.297-1.325-5.025-1.685-7.588-0.999c-2.562,0.687-4.746,2.362-6.072,4.659
			l-15.154,26.248c-1.326,2.297-1.686,5.026-0.999,7.588l12.486,46.602l-88.433,153.17c-0.72,1.247-1.162,2.634-1.296,4.067
			l-9.135,97.486c-0.365,3.892,1.572,7.639,4.957,9.593c1.552,0.896,3.278,1.34,4.999,1.34c2.033,0,4.061-0.619,5.787-1.844
			l79.858-56.654c1.174-0.833,2.154-1.91,2.874-3.156L418.17,178.98c0,0,0-0.001,0.001-0.001l24.659-42.71l46.602-12.487
			c2.562-0.687,4.746-2.362,6.072-4.659l15.154-26.248C513.418,88.092,511.78,81.976,506.997,79.215z M349.46,257.989
			l-38.239,10.246c-5.335,1.429-8.501,6.913-7.071,12.247c1.197,4.468,5.237,7.415,9.653,7.415c0.856,0,1.728-0.111,2.594-0.343
			l12.32-3.301l-50.849,36.074l5.919-63.172l78.261-20.97L349.46,257.989z M376.191,211.69l-84.235,22.571l12.588-21.803
			l84.235-22.571L376.191,211.69z M402.922,165.392l-84.235,22.571l12.588-21.803l84.235-22.571L402.922,165.392z"/>
	</g>
</g>
<g>
</g>
<g>
</g>
<g>
</g>
<g>
</g>
<g>
</g>
<g>
</g>
<g>
</g>
<g>
</g>
<g>
</g>
<g>
</g>
<g>
</g>
<g>
</g>
<g>
</g>
<g>
</g>
<g>
</g>
</svg>
