<?xml version="1.0" encoding="iso-8859-1"?>
<!-- Generator: Adobe Illustrator 19.0.0, SVG Export Plug-In . SVG Version: 6.00 Build 0)  -->
<svg version="1.1" id="Capa_1" xmlns="http://www.w3.org/2000/svg" xmlns:xlink="http://www.w3.org/1999/xlink" x="0px" y="0px"
	 viewBox="0 0 512 512" style="enable-background:new 0 0 512 512;" xml:space="preserve">
<g>
	<g>
		<path d="M128.682,405.848c-1.86-1.861-4.44-2.93-7.08-2.93c-2.63,0-5.21,1.07-7.07,2.93c-1.86,1.86-2.93,4.44-2.93,7.07
			c0,2.63,1.07,5.21,2.93,7.07c1.86,1.86,4.44,2.93,7.07,2.93c2.64,0,5.22-1.07,7.08-2.93c1.86-1.86,2.92-4.44,2.92-7.07
			C131.602,410.288,130.542,407.708,128.682,405.848z"/>
	</g>
</g>
<g>
	<g>
		<path d="M127.91,357.958c-3.905-3.905-10.237-3.905-14.143,0l-36.253,36.253c-3.905,3.905-3.905,10.237,0,14.143
			c1.953,1.953,4.512,2.929,7.071,2.929s5.119-0.976,7.071-2.929l36.253-36.253C131.815,368.195,131.815,361.863,127.91,357.958z"/>
	</g>
</g>
<g>
	<g>
		<path d="M509.071,75.531L436.468,2.928c-3.905-3.904-10.237-3.904-14.143,0L204.518,220.737c-3.905,3.905-3.905,10.237,0,14.143
			l16.976,16.976l-34.527,34.527l-5.913-5.913c-4.369-4.369-10.178-6.775-16.356-6.775s-11.987,2.406-16.356,6.775L16.804,412.008
			C5.967,422.842,0,437.249,0,452.573s5.968,29.731,16.803,40.566l2.057,2.057C29.696,506.032,44.102,512,59.426,512
			c15.324,0,29.731-5.967,40.566-16.803l131.538-131.538c4.369-4.369,6.775-10.178,6.775-16.356c0-6.179-2.406-11.987-6.775-16.356
			l-5.913-5.913l34.527-34.527l16.976,16.976c1.953,1.952,4.512,2.929,7.071,2.929c2.559,0,5.119-0.977,7.071-2.929l217.809-217.81
			C512.976,85.769,512.976,79.437,509.071,75.531z M217.389,349.517L85.851,481.055C78.793,488.113,69.408,492,59.426,492
			c-0.891,0-1.775-0.042-2.656-0.103l49.293-49.293c3.905-3.905,3.905-10.237,0-14.143c-3.905-3.905-10.237-3.905-14.143,0
			L36.36,484.023c-1.166-0.919-2.291-1.903-3.357-2.969l-2.058-2.057C23.887,471.939,20,462.555,20,452.573
			s3.887-19.367,10.946-26.425L162.484,294.61c0.798-0.798,1.729-0.917,2.213-0.917s1.416,0.119,2.214,0.917l17.625,17.625
			l-32.5,32.5c-3.905,3.905-3.906,10.237,0,14.142c1.953,1.953,4.512,2.929,7.071,2.929c2.559,0,5.119-0.977,7.071-2.929
			l32.501-32.5l18.712,18.712c0.798,0.798,0.917,1.729,0.917,2.214C218.306,347.788,218.187,348.719,217.389,349.517z
			 M211.476,310.892l-10.368-10.368l34.527-34.527l10.368,10.368L211.476,310.892z M284.192,286.27l-58.461-58.461L417.095,36.444
			l-1.537,17.932L314.215,155.718c-3.905,3.905-3.905,10.237,0,14.142c1.953,1.953,4.512,2.929,7.071,2.929
			c2.559,0,5.119-0.977,7.071-2.929l96.852-96.851l13.782,13.782L280.998,244.784c-3.905,3.905-3.905,10.237,0,14.143
			c1.953,1.953,4.512,2.929,7.071,2.929c2.559,0,5.119-0.976,7.071-2.929L457.624,96.443l17.932-1.537L284.192,286.27z
			 M456.914,76.43l-21.345-21.345l1.956-22.817l42.205,42.205L456.914,76.43z"/>
	</g>
</g>
<g>
	<g>
		<path d="M301.609,182.471c-1.86-1.86-4.44-2.93-7.07-2.93c-2.64,0-5.21,1.07-7.07,2.93c-1.86,1.86-2.93,4.43-2.93,7.07
			c0,2.63,1.07,5.21,2.93,7.07c1.86,1.859,4.43,2.93,7.07,2.93c2.63,0,5.21-1.07,7.07-2.93c1.86-1.86,2.93-4.44,2.93-7.07
			C304.539,186.911,303.469,184.331,301.609,182.471z"/>
	</g>
</g>
<g>
</g>
<g>
</g>
<g>
</g>
<g>
</g>
<g>
</g>
<g>
</g>
<g>
</g>
<g>
</g>
<g>
</g>
<g>
</g>
<g>
</g>
<g>
</g>
<g>
</g>
<g>
</g>
<g>
</g>
</svg>
