<?xml version="1.0" encoding="iso-8859-1"?>
<!-- Generator: Adobe Illustrator 19.0.0, SVG Export Plug-In . SVG Version: 6.00 Build 0)  -->
<svg version="1.1" id="Capa_1" xmlns="http://www.w3.org/2000/svg" xmlns:xlink="http://www.w3.org/1999/xlink" x="0px" y="0px"
	 viewBox="0 0 512 512" style="enable-background:new 0 0 512 512;" xml:space="preserve">
<g>
	<g>
		<path d="M314.74,200.99c-1.86-1.86-4.44-2.93-7.07-2.93c-2.64,0-5.21,1.07-7.07,2.93c-1.87,1.86-2.93,4.44-2.93,7.07
			c0,2.64,1.06,5.21,2.93,7.07c1.86,1.87,4.43,2.93,7.07,2.93c2.63,0,5.21-1.06,7.07-2.93c1.86-1.86,2.93-4.43,2.93-7.07
			C317.67,205.43,316.6,202.85,314.74,200.99z"/>
	</g>
</g>
<g>
	<g>
		<path d="M502,78.063H10c-4.044,0-7.691,2.437-9.239,6.173c-0.458,1.105-0.681,2.26-0.728,3.412C0.013,87.769,0,87.902,0,88.063
			v335.873c0,5.523,4.477,10,10,10h120c5.523,0,10-4.477,10-10V218.063h125c5.523,0,10-4.477,10-10s-4.477-10-10-10H134.143
			l-65.888-65.888c0.601-1.285,0.946-2.713,0.946-4.225V98.063h29.2v9.914c0,5.523,4.477,10,10,10s10-4.477,10-10v-9.914h29.2
			v29.887c0,5.523,4.477,10,10,10s10-4.477,10-10V98.063h29.2v9.914c0,5.523,4.477,10,10,10c5.523,0,10-4.477,10-10v-9.914H246
			v29.875c0,5.523,4.477,10,10,10s10-4.477,10-10V98.063h29.2v9.914c0,5.523,4.477,10,10,10s10-4.477,10-10v-9.914h29.2v29.887
			c0,5.523,4.477,10,10,10s10-4.477,10-10V98.063h29.2v9.914c0,5.523,4.477,10,10,10s10-4.477,10-10v-9.914h29.2v29.887
			c0,5.523,4.477,10,10,10s10-4.477,10-10V98.063H492v100H352.333c-5.523,0-10,4.477-10,10s4.477,10,10,10H502
			c5.523,0,10-4.477,10-10v-120C512,82.542,507.523,78.063,502,78.063z M49.2,98.063v15.058L34.143,98.063H49.2z M120,212.207
			v201.73H20v-301.73L120,212.207z"/>
	</g>
</g>
<g>
	<g>
		<path d="M473.57,154.43c-1.86-1.86-4.44-2.93-7.07-2.93s-5.21,1.07-7.07,2.93c-1.86,1.86-2.93,4.44-2.93,7.07s1.07,5.21,2.93,7.07
			s4.44,2.93,7.07,2.93s5.21-1.07,7.07-2.93s2.93-4.44,2.93-7.07S475.43,156.29,473.57,154.43z"/>
	</g>
</g>
<g>
	<g>
		<path d="M55.55,169.36c-1.86-1.86-4.44-2.92-7.07-2.92s-5.21,1.06-7.07,2.92c-1.86,1.87-2.93,4.45-2.93,7.08s1.07,5.21,2.93,7.07
			c1.86,1.86,4.44,2.93,7.07,2.93s5.21-1.07,7.07-2.93s2.93-4.44,2.93-7.07S57.41,171.23,55.55,169.36z"/>
	</g>
</g>
<g>
	<g>
		<path d="M55.55,215.37c-1.86-1.87-4.44-2.93-7.07-2.93s-5.21,1.06-7.07,2.93c-1.86,1.86-2.93,4.43-2.93,7.07
			c0,2.63,1.07,5.21,2.93,7.07c1.86,1.86,4.44,2.93,7.07,2.93s5.21-1.07,7.07-2.93s2.93-4.44,2.93-7.07
			C58.48,219.8,57.41,217.23,55.55,215.37z"/>
	</g>
</g>
<g>
	<g>
		<path d="M98.59,215.37c-1.86-1.87-4.44-2.93-7.07-2.93s-5.21,1.06-7.07,2.93c-1.86,1.86-2.93,4.43-2.93,7.07
			c0,2.63,1.07,5.21,2.93,7.07s4.44,2.93,7.07,2.93s5.21-1.07,7.07-2.93c1.86-1.86,2.93-4.44,2.93-7.07
			C101.52,219.8,100.45,217.23,98.59,215.37z"/>
	</g>
</g>
<g>
	<g>
		<path d="M53.24,360.87c-1.86-1.87-4.44-2.93-7.07-2.93c-2.64,0-5.21,1.06-7.08,2.93c-1.86,1.86-2.92,4.44-2.92,7.07
			s1.06,5.21,2.92,7.07c1.87,1.86,4.44,2.93,7.08,2.93c2.63,0,5.21-1.07,7.07-2.93s2.93-4.44,2.93-7.07S55.1,362.73,53.24,360.87z"
			/>
	</g>
</g>
<g>
	<g>
		<path d="M46.167,275.937c-5.523,0-10,4.477-10,10v40.462c0,5.523,4.477,10,10,10s10-4.477,10-10v-40.462
			C56.167,280.414,51.69,275.937,46.167,275.937z"/>
	</g>
</g>
<g>
	<g>
		<path d="M93.833,330.246c-5.523,0-10,4.477-10,10v42.645c0,5.523,4.477,10,10,10s10-4.477,10-10v-42.645
			C103.833,334.723,99.356,330.246,93.833,330.246z"/>
	</g>
</g>
<g>
	<g>
		<path d="M93.833,275.477c-5.523,0-10,4.477-10,10v20.69c0,5.523,4.477,10,10,10s10-4.477,10-10v-20.69
			C103.833,279.954,99.356,275.477,93.833,275.477z"/>
	</g>
</g>
<g>
</g>
<g>
</g>
<g>
</g>
<g>
</g>
<g>
</g>
<g>
</g>
<g>
</g>
<g>
</g>
<g>
</g>
<g>
</g>
<g>
</g>
<g>
</g>
<g>
</g>
<g>
</g>
<g>
</g>
</svg>
