<?xml version="1.0" encoding="iso-8859-1"?>
<!-- Generator: Adobe Illustrator 19.0.0, SVG Export Plug-In . SVG Version: 6.00 Build 0)  -->
<svg version="1.1" id="Capa_1" xmlns="http://www.w3.org/2000/svg" xmlns:xlink="http://www.w3.org/1999/xlink" x="0px" y="0px"
	 viewBox="0 0 512 512" style="enable-background:new 0 0 512 512;" xml:space="preserve">
<g>
	<g>
		<path d="M215.07,251.93c-1.86-1.86-4.44-2.93-7.07-2.93s-5.21,1.07-7.07,2.93S198,256.37,198,259s1.07,5.21,2.93,7.07
			c1.86,1.86,4.44,2.93,7.07,2.93s5.21-1.07,7.07-2.93S218,261.63,218,259S216.93,253.79,215.07,251.93z"/>
	</g>
</g>
<g>
	<g>
		<path d="M502,197c5.523,0,10-4.477,10-10v-44c0-5.523-4.477-10-10-10h-34V77.853c0-2.657-1.058-5.206-2.94-7.082l-48-47.853
			c-3.902-3.891-10.218-3.891-14.12,0l-48,47.853c-1.882,1.876-2.94,4.425-2.94,7.082V133h-38V77.853
			c0-2.657-1.058-5.206-2.94-7.082l-48-47.853c-3.902-3.891-10.218-3.891-14.12,0l-48,47.853c-1.882,1.876-2.94,4.425-2.94,7.082
			V133h-38.083V77.853c0-2.657-1.058-5.206-2.94-7.082l-48-47.853c-3.902-3.891-10.218-3.891-14.12,0l-48,47.853
			c-1.882,1.876-2.94,4.425-2.94,7.082V133H10c-5.523,0-10,4.477-10,10v44c0,5.523,4.477,10,10,10h33.917v167H10
			c-5.523,0-10,4.477-10,10v44c0,5.523,4.477,10,10,10h33.917v44H10c-5.523,0-10,4.477-10,10s4.477,10,10,10h492
			c5.523,0,10-4.477,10-10s-4.477-10-10-10h-34v-44h34c5.523,0,10-4.477,10-10v-44c0-5.523-4.477-10-10-10h-34V197H502z M468,153h24
			v24h-24V153z M43.917,408H20v-24h23.917V408z M43.917,177H20v-24h23.917V177z M139.917,472h-76V82.004l38-37.884l38,37.884V472z
			 M160.821,153h36.781v24h-36.781V153z M198,472h-38.083v-44H198V472z M198,408h-38.083v-24H198V408z M294,472h-76V295.822
			c0-5.523-4.477-10-10-10s-10,4.477-10,10V364h-38.083V197H198v18.667c0,5.523,4.477,10,10,10s10-4.477,10-10V82.004l38-37.884
			l38,37.884V472z M314.411,153h36.781v24h-36.781V153z M352,472h-38v-44h38V472z M352,408h-38v-24h38V408z M352,364h-38V197h38V364
			z M448,472h-76V82.004l38-37.884l38,37.884V472z M492,384v24h-24v-24H492z"/>
	</g>
</g>
<g>
	<g>
		<path d="M108.99,157.93c-1.86-1.86-4.44-2.93-7.07-2.93c-2.64,0-5.22,1.07-7.07,2.93c-1.87,1.86-2.93,4.44-2.93,7.07
			s1.06,5.21,2.93,7.07c1.86,1.86,4.43,2.93,7.07,2.93c2.63,0,5.21-1.07,7.07-2.93s2.93-4.44,2.93-7.07S110.85,159.79,108.99,157.93
			z"/>
	</g>
</g>
<g>
	<g>
		<path d="M263.07,157.93c-1.86-1.86-4.44-2.93-7.07-2.93s-5.21,1.07-7.07,2.93S246,162.37,246,165s1.07,5.21,2.93,7.07
			S253.37,175,256,175s5.21-1.07,7.07-2.93c1.86-1.86,2.93-4.44,2.93-7.07S264.93,159.79,263.07,157.93z"/>
	</g>
</g>
<g>
	<g>
		<path d="M417.15,157.93c-1.86-1.86-4.43-2.93-7.07-2.93c-2.63,0-5.21,1.07-7.07,2.93s-2.93,4.44-2.93,7.07s1.07,5.21,2.93,7.07
			s4.44,2.93,7.07,2.93c2.64,0,5.21-1.07,7.07-2.93c1.87-1.86,2.93-4.44,2.93-7.07S419.02,159.79,417.15,157.93z"/>
	</g>
</g>
<g>
	<g>
		<path d="M108.99,388.93c-1.87-1.86-4.44-2.93-7.07-2.93c-2.64,0-5.21,1.07-7.07,2.93c-1.87,1.86-2.93,4.44-2.93,7.07
			s1.06,5.21,2.93,7.07c1.86,1.86,4.43,2.93,7.07,2.93c2.63,0,5.21-1.07,7.07-2.93s2.93-4.44,2.93-7.07S110.85,390.79,108.99,388.93
			z"/>
	</g>
</g>
<g>
	<g>
		<path d="M263.07,388.93c-1.86-1.86-4.44-2.93-7.07-2.93s-5.21,1.07-7.07,2.93S246,393.37,246,396s1.07,5.21,2.93,7.07
			c1.86,1.86,4.44,2.93,7.07,2.93s5.21-1.07,7.07-2.93c1.86-1.86,2.93-4.44,2.93-7.07S264.93,390.79,263.07,388.93z"/>
	</g>
</g>
<g>
	<g>
		<path d="M417.15,388.93c-1.86-1.86-4.44-2.93-7.07-2.93s-5.21,1.07-7.07,2.93s-2.93,4.44-2.93,7.07s1.07,5.21,2.93,7.07
			c1.86,1.86,4.44,2.93,7.07,2.93c2.64,0,5.21-1.07,7.07-2.93c1.87-1.86,2.93-4.44,2.93-7.07S419.02,390.79,417.15,388.93z"/>
	</g>
</g>
<g>
	<g>
		<path d="M410,266.127c-5.523,0-10,4.477-10,10V358c0,5.523,4.477,10,10,10s10-4.477,10-10v-81.873
			C420,270.604,415.523,266.127,410,266.127z"/>
	</g>
</g>
<g>
</g>
<g>
</g>
<g>
</g>
<g>
</g>
<g>
</g>
<g>
</g>
<g>
</g>
<g>
</g>
<g>
</g>
<g>
</g>
<g>
</g>
<g>
</g>
<g>
</g>
<g>
</g>
<g>
</g>
</svg>
