<?xml version="1.0" encoding="iso-8859-1"?>
<!-- Generator: Adobe Illustrator 19.0.0, SVG Export Plug-In . SVG Version: 6.00 Build 0)  -->
<svg version="1.1" id="Capa_1" xmlns="http://www.w3.org/2000/svg" xmlns:xlink="http://www.w3.org/1999/xlink" x="0px" y="0px"
	 viewBox="0 0 512 512" style="enable-background:new 0 0 512 512;" xml:space="preserve">
<g>
	<g>
		<path d="M437.019,74.981C388.667,26.628,324.38,0,256,0S123.333,26.628,74.981,74.981C26.628,123.333,0,187.62,0,256
			c0,61.906,22.39,121.657,63.046,168.246c40.261,46.137,95.638,76.358,155.929,85.095c5.461,0.791,10.538-2.997,11.331-8.462
			c0.793-5.465-2.997-10.539-8.462-11.331C106.774,472.872,20,372.468,20,256c0-47.413,14.066-91.597,38.228-128.622l0.122,0.133
			c12.962,14.063,29.182,25.3,46.903,32.493c1.232,0.5,2.505,0.737,3.758,0.737c3.95,0,7.692-2.356,9.269-6.241
			c2.077-5.118-0.387-10.95-5.504-13.027c-15.008-6.092-28.743-15.607-39.72-27.517l-2.945-3.195C113.346,55.548,180.598,20,256,20
			c62.829,0,119.999,24.684,162.332,64.858l-0.558,1.566c-6.9,19.356-20.609,35.481-38.603,45.403
			c-4.836,2.667-6.595,8.75-3.928,13.586c1.823,3.305,5.24,5.173,8.766,5.173c1.633,0,3.289-0.401,4.82-1.245
			c19.88-10.963,35.516-28.052,44.724-48.633C469.923,142.239,492,196.587,492,256c0,100.407-64.431,188.81-155.9,222.007
			c4.9-22.226,0.909-45.577-11.301-64.997c-2.94-4.675-9.114-6.082-13.789-3.143c-4.675,2.94-6.083,9.113-3.143,13.789
			c10.313,16.404,13.016,36.45,7.415,55l-1.901,6.294c-7.683,1.927-15.515,3.489-23.488,4.635
			c-5.467,0.786-9.261,5.855-8.475,11.321c0.716,4.984,4.993,8.579,9.885,8.579c0.474,0,0.953-0.034,1.436-0.103
			c60.356-8.677,115.802-38.876,156.125-85.033C489.578,377.744,512,317.956,512,256C512,187.62,485.372,123.333,437.019,74.981z"/>
	</g>
</g>
<g>
	<g>
		<path d="M256.153,492h-0.268c-0.006,0-0.012,0-0.019,0c-5.514,0-9.989,4.465-10,9.982c-0.01,5.522,4.459,10.008,9.982,10.018
			h0.268c0.006,0,0.012,0,0.019,0c5.514,0,9.989-4.465,10-9.982C266.146,496.496,261.676,492.01,256.153,492z"/>
	</g>
</g>
<g>
	<g>
		<path d="M446.374,182.561c-1.984-5.154-7.771-7.723-12.926-5.737c-5.154,1.985-7.723,7.772-5.737,12.926
			c26.14,67.869,9.81,144.944-41.604,196.358c-3.904,3.905-3.904,10.237,0,14.142c1.953,1.953,4.512,2.929,7.071,2.929
			s5.119-0.976,7.071-2.929C457.249,343.25,475.353,257.802,446.374,182.561z"/>
	</g>
</g>
<g>
	<g>
		<path d="M125.893,386.106C73.008,333.223,57.369,254.421,86.049,185.35c2.118-5.101-0.299-10.953-5.4-13.071
			c-5.099-2.119-10.952,0.3-13.07,5.4c-15.301,36.85-19.451,77.12-12.001,116.456c7.633,40.305,27.058,76.999,56.173,106.114
			c1.953,1.953,4.512,2.929,7.071,2.929c2.559,0,5.119-0.976,7.071-2.929C129.798,396.344,129.798,390.012,125.893,386.106z"/>
	</g>
</g>
<g>
	<g>
		<path d="M329.129,65.506C253.974,36.7,168.647,54.853,111.75,111.75c-3.905,3.905-3.905,10.237,0,14.143
			c1.953,1.952,4.512,2.929,7.071,2.929c2.559,0,5.119-0.977,7.071-2.929C177.214,74.571,254.18,58.2,321.97,84.181
			c5.158,1.978,10.94-0.601,12.917-5.758C336.864,73.266,334.285,67.483,329.129,65.506z"/>
	</g>
</g>
<g>
	<g>
		<path d="M256,162c-51.832,0-94,42.168-94,94c0,5.523,4.477,10,10,10s10-4.477,10-10c0-40.804,33.196-74,74-74s74,33.196,74,74
			s-33.196,74-74,74c-5.523,0-10,4.477-10,10s4.477,10,10,10c51.832,0,94-42.168,94-94C350,204.168,307.832,162,256,162z"/>
	</g>
</g>
<g>
	<g>
		<path d="M296,246c-5.523,0-10,4.477-10,10c0,16.542-13.458,30-30,30s-30-13.458-30-30s13.458-30,30-30c5.523,0,10-4.477,10-10
			s-4.477-10-10-10c-27.57,0-50,22.43-50,50s22.43,50,50,50s50-22.43,50-50C306,250.477,301.523,246,296,246z"/>
	</g>
</g>
<g>
	<g>
		<path d="M162.662,148.52c-3.905-3.905-10.237-3.905-14.143,0c-49.076,49.077-58.728,125.037-23.471,184.721
			c1.866,3.159,5.198,4.916,8.619,4.916c1.729,0,3.48-0.449,5.077-1.392c4.755-2.809,6.333-8.941,3.524-13.696
			c-30.613-51.824-22.227-117.785,20.394-160.406C166.567,158.757,166.567,152.425,162.662,148.52z"/>
	</g>
</g>
<g>
	<g>
		<path d="M363.48,148.52c-3.905-3.905-10.237-3.905-14.143,0c-3.905,3.905-3.905,10.237,0,14.143
			c51.467,51.467,51.467,135.209,0,186.676c-42.621,42.622-108.582,51.007-160.406,20.394c-4.755-2.81-10.888-1.232-13.696,3.524
			c-2.808,4.754-1.231,10.886,3.525,13.695c24.021,14.19,50.67,21.104,77.15,21.104c39.314,0,78.245-15.25,107.57-44.575
			C422.745,304.216,422.745,207.785,363.48,148.52z"/>
	</g>
</g>
<g>
	<g>
		<path d="M162.662,349.338l-0.102-0.102c-3.905-3.905-10.237-3.905-14.143,0c-3.906,3.905-3.905,10.237,0,14.143l0.103,0.102
			c1.953,1.953,4.512,2.929,7.071,2.929s5.119-0.976,7.071-2.929C166.567,359.576,166.567,353.244,162.662,349.338z"/>
	</g>
</g>
<g>
</g>
<g>
</g>
<g>
</g>
<g>
</g>
<g>
</g>
<g>
</g>
<g>
</g>
<g>
</g>
<g>
</g>
<g>
</g>
<g>
</g>
<g>
</g>
<g>
</g>
<g>
</g>
<g>
</g>
</svg>
