<?xml version="1.0" encoding="iso-8859-1"?>
<!-- Generator: Adobe Illustrator 19.0.0, SVG Export Plug-In . SVG Version: 6.00 Build 0)  -->
<svg version="1.1" id="Capa_1" xmlns="http://www.w3.org/2000/svg" xmlns:xlink="http://www.w3.org/1999/xlink" x="0px" y="0px"
	 viewBox="0 0 512 512" style="enable-background:new 0 0 512 512;" xml:space="preserve">
<g>
	<g>
		<path d="M121.296,315.188c-1.862-1.862-4.445-2.933-7.078-2.933c-2.643,0-5.216,1.071-7.078,2.933
			c-1.861,1.862-2.933,4.445-2.933,7.078s1.071,5.216,2.933,7.078c1.862,1.862,4.445,2.933,7.078,2.933s5.216-1.071,7.078-2.933
			c1.861-1.862,2.933-4.445,2.933-7.078S123.159,317.05,121.296,315.188z"/>
	</g>
</g>
<g>
	<g>
		<path d="M140.757,395.775c-1.862-1.862-4.444-2.933-7.078-2.933c-2.643,0-5.226,1.071-7.077,2.933
			c-1.872,1.862-2.943,4.446-2.943,7.078c0,2.633,1.071,5.216,2.943,7.078c1.861,1.862,4.435,2.933,7.077,2.933
			c2.634,0,5.206-1.071,7.078-2.933c1.862-1.862,2.923-4.445,2.923-7.078S142.619,397.638,140.757,395.775z"/>
	</g>
</g>
<g>
	<g>
		<path d="M198.474,293.553c-3.908-3.909-10.245-3.909-14.158,0l-51.534,51.533c-3.909,3.909-3.909,10.248,0,14.157
			c1.955,1.955,4.517,2.932,7.079,2.932c2.562,0,5.125-0.978,7.08-2.932l51.534-51.533
			C202.383,303.801,202.383,297.462,198.474,293.553z"/>
	</g>
</g>
<g>
	<g>
		<path d="M509.068,171.544l-34.264-34.265c-2.522-2.521-6.189-3.509-9.638-2.6l-12.153,3.214l-6.679-6.679l4.321-7.921
			c2.126-3.899,1.431-8.732-1.71-11.873l-80.391-80.391c-39.089-39.087-102.684-39.085-141.771,0l-25.809,25.809
			c-1.877,1.877-2.932,4.424-2.932,7.079s1.055,5.202,2.932,7.079l21.635,21.635c3.91,3.909,10.247,3.908,14.158,0
			c5.853-5.854,13.636-9.078,21.914-9.078c8.279,0,16.062,3.224,21.915,9.078l22.404,22.403c7.723,7.722,7.724,20.288,0.002,28.012
			C303,143.046,303,143.046,303,143.046l-81.827,81.827c-10.273-3.724-22.241-1.482-30.464,6.741l-59.399,59.403
			c-3.909,3.909-3.909,10.248,0,14.157c3.91,3.909,10.247,3.909,14.158,0l59.4-59.4c1.701-1.702,3.964-2.639,6.371-2.639
			c2.406,0,4.669,0.937,6.37,2.639l29.493,29.493l-38.304,38.305c-3.909,3.909-3.909,10.248,0,14.157
			c1.955,1.955,4.517,2.932,7.079,2.932c2.562,0,5.124-0.978,7.079-2.932l38.304-38.304l3.251,3.251
			c1.702,1.702,2.64,3.964,2.64,6.371c0,2.407-0.938,4.669-2.64,6.371L82.291,487.638c-1.701,1.702-3.964,2.639-6.371,2.639
			c-2.406,0-4.669-0.937-6.37-2.639l-3.251-3.251l51.816-51.816c3.909-3.909,3.909-10.248,0-14.158
			c-3.909-3.908-10.246-3.908-14.158,0l-51.816,51.816l-29.493-29.493c-3.513-3.513-3.513-9.229,0-12.742l74.039-74.039
			c3.909-3.909,3.909-10.248,0-14.157c-3.909-3.909-10.248-3.909-14.158,0l-74.039,74.04c-11.319,11.319-11.319,29.737,0,41.057
			l46.902,46.902c5.66,5.66,13.093,8.49,20.529,8.489c7.433,0,14.869-2.83,20.528-8.489l182.22-182.22
			c8.223-8.223,10.466-20.191,6.741-30.464l81.312-81.312l18.169-13.511l5.862,5.862l-3.214,12.152
			c-0.911,3.446,0.079,7.117,2.6,9.638l34.265,34.265c1.878,1.877,4.424,2.932,7.079,2.932s5.201-1.055,7.079-2.932l70.506-70.506
			C512.977,181.792,512.977,175.454,509.068,171.544z M273.178,273.029l-35.921-35.921l72.821-72.821l35.921,35.921L273.178,273.029
			z M431.484,234.971l-23.115-23.115l3.214-12.152c0.911-3.446-0.079-7.117-2.6-9.638l-16.047-16.047
			c-3.514-3.511-9.07-3.918-13.052-0.954l-18.759,13.949l-37.788-37.787c8.969-15.263,6.909-35.263-6.178-48.35l-22.404-22.403
			c-17.468-17.468-44.555-19.596-64.368-6.382l-8.174-8.175l18.73-18.73c31.277-31.279,82.174-31.281,113.455,0l75.095,75.094
			l-4.321,7.921c-2.126,3.899-1.431,8.732,1.71,11.872l16.047,16.047c2.521,2.521,6.19,3.511,9.638,2.6l12.153-3.214l23.114,23.114
			L431.484,234.971z"/>
	</g>
</g>
<g>
</g>
<g>
</g>
<g>
</g>
<g>
</g>
<g>
</g>
<g>
</g>
<g>
</g>
<g>
</g>
<g>
</g>
<g>
</g>
<g>
</g>
<g>
</g>
<g>
</g>
<g>
</g>
<g>
</g>
</svg>
