<?xml version="1.0" encoding="iso-8859-1"?>
<!-- Generator: Adobe Illustrator 19.0.0, SVG Export Plug-In . SVG Version: 6.00 Build 0)  -->
<svg version="1.1" id="Capa_1" xmlns="http://www.w3.org/2000/svg" xmlns:xlink="http://www.w3.org/1999/xlink" x="0px" y="0px"
	 viewBox="0 0 512 512" style="enable-background:new 0 0 512 512;" xml:space="preserve">
<g>
	<g>
		<path d="M442,346c-5.52,0-10,4.48-10,10c0,5.52,4.48,10,10,10c5.52,0,10-4.48,10-10C452,350.48,447.52,346,442,346z"/>
	</g>
</g>
<g>
	<g>
		<path d="M70,346c-5.52,0-10,4.48-10,10c0,5.52,4.48,10,10,10s10-4.48,10-10C80,350.48,75.52,346,70,346z"/>
	</g>
</g>
<g>
	<g>
		<path d="M482,246h-30V70c0-38.625-31.248-70-70-70c-38.049,0-76,30.684-76,70v166c0,13.352-5.201,25.91-14.639,35.356
			C281.91,280.799,269.352,286,256,286c-27.57,0-50-22.43-50-50V70c0-39.181-34.856-70-73-70C93.43,0,60,32.056,60,70v176H30
			c-16.575,0-30,13.424-30,30c0,13.036,8.361,24.152,20,28.28V462c0,27.57,22.43,50,50,50s50-22.43,50-50V304.296
			c11.391-4.019,20-14.965,20-28.296c0-16.542-13.458-30-30-30H80V70c0-26.636,24.767-50,53-50c27.36,0,53,22.149,53,50v166
			c0,38.598,31.402,70,70,70c18.69,0,36.269-7.279,49.504-20.502C318.721,272.269,326,254.69,326,236V70c0-28.617,29.565-50,56-50
			c27.699,0,50,22.426,50,50v176h-30c-16.575,0-30,13.424-30,30c0,13.036,8.361,24.152,20,28.28V462c0,27.57,22.43,50,50,50
			s50-22.43,50-50V304.296c11.391-4.019,20-14.965,20-28.296C512,259.458,498.542,246,482,246z M100,462c0,16.542-13.458,30-30,30
			s-30-13.458-30-30V306h60V462z M110,266c5.514,0,10,4.486,10,10c0,5.522-4.479,10-10,10H30c-5.514,0-10-4.486-10-10
			c0-5.522,4.479-10,10-10H110z M472,462c0,16.542-13.458,30-30,30s-30-13.458-30-30V306h60V462z M482,286h-80
			c-5.514,0-10-4.486-10-10c0-5.522,4.479-10,10-10h80c5.514,0,10,4.486,10,10C492,281.522,487.521,286,482,286z"/>
	</g>
</g>
<g>
	<g>
		<path d="M70,386c-5.522,0-10,4.477-10,10v46c0,5.523,4.478,10,10,10c5.522,0,10-4.477,10-10v-46C80,390.477,75.522,386,70,386z"/>
	</g>
</g>
<g>
	<g>
		<path d="M442,386c-5.522,0-10,4.477-10,10v46c0,5.523,4.478,10,10,10c5.522,0,10-4.477,10-10v-46C452,390.477,447.522,386,442,386
			z"/>
	</g>
</g>
<g>
</g>
<g>
</g>
<g>
</g>
<g>
</g>
<g>
</g>
<g>
</g>
<g>
</g>
<g>
</g>
<g>
</g>
<g>
</g>
<g>
</g>
<g>
</g>
<g>
</g>
<g>
</g>
<g>
</g>
</svg>
