<?xml version="1.0" encoding="iso-8859-1"?>
<!-- Generator: Adobe Illustrator 19.0.0, SVG Export Plug-In . SVG Version: 6.00 Build 0)  -->
<svg version="1.1" id="Capa_1" xmlns="http://www.w3.org/2000/svg" xmlns:xlink="http://www.w3.org/1999/xlink" x="0px" y="0px"
	 viewBox="0 0 512 512" style="enable-background:new 0 0 512 512;" xml:space="preserve">
<g>
	<g>
		<path d="M507.477,172.878L393.431,98.23l4.655-4.656c4.561-4.56,7.072-10.623,7.072-17.072c0-6.449-2.512-12.512-7.071-17.072
			l-27.485-27.485c-9.413-9.413-24.729-9.414-34.144,0l-7.859,7.859c-10.158-4.472-22.47-2.562-30.778,5.745l-74.973,74.973
			c-5.525,5.526-8.216,12.823-8.088,20.08c-0.052,0.082-0.11,0.157-0.159,0.241l-36.228,61.439
			c-19.206,32.573-42.502,62.646-69.239,89.383l-96.368,96.368C4.533,396.266,0,407.21,0,418.852
			c0,11.643,4.533,22.587,12.766,30.819l29.432,29.433c5.166,5.166,12.166,8.01,19.36,8.01c1.507,0,3.024-0.125,4.533-0.379
			c8.713-1.47,16.214-7.095,20.065-15.045l10.297-21.251c5.706-11.78,13.294-22.446,22.551-31.703l61.952-61.952
			c27.311-27.311,51.199-57.973,71.001-91.135l26.706-44.724l71.513,109.255c1.851,2.826,4.999,4.523,8.366,4.523
			c0.075,0,0.15-0.001,0.226-0.002c40.546-0.911,78.668-17.206,107.346-45.883c28.677-28.678,44.972-66.8,45.883-107.346
			C512.075,178.018,510.366,174.769,507.477,172.878z M350.6,46.088c1.616-1.617,4.244-1.616,5.859,0l27.486,27.485
			c1.056,1.056,1.213,2.289,1.213,2.929c0,0.64-0.157,1.874-1.214,2.93l-6.533,6.533l-33.344-33.344L350.6,46.088z M78.454,441.718
			l-10.296,21.251c-1.052,2.169-3.018,3.643-5.395,4.044c-2.384,0.4-4.72-0.348-6.424-2.051L26.908,435.53
			C22.453,431.075,20,425.152,20,418.852c0-6.3,2.453-12.222,6.908-16.677l19.254-19.254c0.147,0.168,0.29,0.338,0.45,0.498
			l41.519,41.519C84.531,430.286,81.284,435.877,78.454,441.718z M234.785,255.393c-18.957,31.748-41.825,61.102-67.972,87.247
			l-61.952,61.952c-1.469,1.469-2.894,2.973-4.29,4.502l-39.816-39.816c-0.16-0.16-0.33-0.303-0.498-0.45l63.02-63.02
			c27.929-27.929,52.263-59.342,72.325-93.367l29.67-50.319L266.1,202.95L234.785,255.393z M363.801,314.474l-13.291-20.306
			l6.933,0.134c0.064,0.001,0.129,0.002,0.193,0.002c0.075,0,0.149-0.001,0.225-0.002c26.702-0.6,52.561-10.411,72.81-27.626
			c20.024-17.023,33.807-40.577,38.807-66.322c1.053-5.421-2.488-10.67-7.91-11.723c-5.419-1.051-10.67,2.489-11.723,7.91
			c-8.682,44.695-46.589,76.645-92.229,77.761l-20.366-0.393l-47.273-72.223l38.107-38.107c3.905-3.905,3.905-10.237,0-14.142
			c-3.905-3.905-10.235-3.905-14.143,0l-36.535,36.534l-40.415-40.415c-3.003-3.003-3.003-7.889,0-10.892l74.973-74.972
			c1.501-1.501,3.473-2.252,5.445-2.252s3.944,0.75,5.445,2.251l46.296,46.296c0.485,0.486,1.021,0.92,1.595,1.296l121.027,79.218
			C487.519,255.429,432.728,310.22,363.801,314.474z"/>
	</g>
</g>
<g>
	<g>
		<path d="M355.549,121.967c-1.86-1.861-4.44-2.93-7.07-2.93s-5.21,1.07-7.069,2.93c-1.86,1.86-2.931,4.44-2.931,7.07
			c0,2.63,1.07,5.21,2.931,7.07c1.859,1.86,4.439,2.93,7.069,2.93s5.21-1.07,7.07-2.93c1.86-1.86,2.93-4.44,2.93-7.07
			C358.479,126.407,357.41,123.827,355.549,121.967z"/>
	</g>
</g>
<g>
	<g>
		<path d="M155.735,316.768c-3.906-3.906-10.236-3.906-14.142,0l-37.381,37.381c-3.905,3.905-3.905,10.237,0,14.143
			c1.953,1.953,4.512,2.929,7.071,2.929c2.559,0,5.118-0.976,7.071-2.929l37.381-37.381
			C159.64,327.006,159.64,320.674,155.735,316.768z"/>
	</g>
</g>
<g>
	<g>
		<path d="M178.09,294.416c-1.861-1.86-4.441-2.93-7.07-2.93c-2.64,0-5.21,1.07-7.08,2.93c-1.859,1.86-2.92,4.44-2.92,7.07
			s1.061,5.21,2.92,7.07c1.87,1.86,4.45,2.93,7.08,2.93s5.21-1.07,7.07-2.93s2.93-4.44,2.93-7.07S179.951,296.276,178.09,294.416z"
			/>
	</g>
</g>
<g>
	<g>
		<path d="M241.938,193.577c-4.811-2.708-10.909-1.004-13.619,3.809l-9.296,16.514c-7.984,14.183-17.868,27.21-29.377,38.719
			c-3.905,3.905-3.905,10.237,0,14.142c1.953,1.953,4.512,2.929,7.071,2.929c2.559,0,5.118-0.977,7.071-2.929
			c12.796-12.796,23.785-27.281,32.662-43.05l9.296-16.514C248.456,202.384,246.75,196.287,241.938,193.577z"/>
	</g>
</g>
<g>
</g>
<g>
</g>
<g>
</g>
<g>
</g>
<g>
</g>
<g>
</g>
<g>
</g>
<g>
</g>
<g>
</g>
<g>
</g>
<g>
</g>
<g>
</g>
<g>
</g>
<g>
</g>
<g>
</g>
</svg>
