<?xml version="1.0" encoding="iso-8859-1"?>
<!-- Generator: Adobe Illustrator 19.0.0, SVG Export Plug-In . SVG Version: 6.00 Build 0)  -->
<svg version="1.1" id="Capa_1" xmlns="http://www.w3.org/2000/svg" xmlns:xlink="http://www.w3.org/1999/xlink" x="0px" y="0px"
	 viewBox="0 0 512 512" style="enable-background:new 0 0 512 512;" xml:space="preserve">
<g>
	<g>
		<path d="M478,10c-18.748,0-34,15.252-34,34v20H68V44c0-18.748-15.252-34-34-34S0,25.252,0,44v448c0,5.523,4.478,10,10,10h250.983
			H291.1H502c5.522,0,10-4.477,10-10V44C512,25.252,496.748,10,478,10z M68,84h376v20H68V84z M68,124h376v62h-4.379h-18.872H161.135
			c-0.003,0-0.007,0-0.01,0H68V124z M20,44c0-7.72,6.28-14,14-14c7.72,0,14,6.28,14,14v30v40v72H20V44z M492,482H383.773
			c13.208-3.093,25.579-10.056,35.309-20.156c12.873-13.363,19.884-30.996,19.234-48.378c-1.052-28.134-24.466-46.201-25.462-46.957
			c-4.401-3.338-10.675-2.473-14.011,1.926c-3.337,4.401-2.474,10.674,1.927,14.01c0.169,0.128,16.869,13.293,17.56,31.767
			c0.447,11.982-4.528,24.286-13.652,33.756c-9.703,10.073-22.946,15.85-36.334,15.85c-20.944,0-37.983-17.039-37.983-37.983
			c0-15.652,12.734-28.387,28.387-28.387c11.42,0,20.71,9.29,20.71,20.709c0,5.523,4.478,10,10,10c5.522,0,10-4.477,10-10
			c0-22.447-18.263-40.709-40.71-40.709c-26.681,0-48.387,21.706-48.387,48.387c0,26.992,18.54,49.735,43.554,56.165h-62.813
			h-30.117c-27.846,0-53.175-17.497-63.03-43.54c-12.782-33.77-45.63-56.46-81.737-56.46H86.101c-5.522,0-10,4.477-10,10
			s4.478,10,10,10h30.117c27.845,0,53.175,17.497,63.03,43.539c5.49,14.509,14.691,26.963,26.257,36.461H20V354h260.19
			l-16.359,16.359C256.324,377.866,246.344,382,235.728,382h-30.749c-5.522,0-10,4.477-10,10s4.478,10,10,10h30.749
			c15.958,0,30.962-6.214,42.246-17.499l30.5-30.501H492V482z M492,334H20V206h38h78.988l-24.425,24.426
			c-2.306,2.305-5.37,3.574-8.629,3.574H75.13c-5.522,0-10,4.477-10,10s4.478,10,10,10h28.804c8.601,0,16.688-3.35,22.771-9.432
			L165.272,206h206.323c-6.469,6.312-11.784,13.918-15.502,22.552l-10.616,24.651c-7.97,18.505-26.138,30.463-46.286,30.463H280.32
			c-5.522,0-10,4.477-10,10s4.478,10,10,10h18.871c28.145,0,53.523-16.703,64.655-42.552l10.616-24.651
			C382.432,217.957,400.6,206,420.748,206h18.872H454h38V334z M492,186h-28v-72V74V44c0-7.72,6.28-14,14-14c7.72,0,14,6.28,14,14
			V186z"/>
	</g>
</g>
<g>
	<g>
		<path d="M57.069,410.92c-1.859-1.86-4.439-2.93-7.069-2.93s-5.21,1.07-7.07,2.93S40,415.35,40,417.99c0,2.63,1.069,5.21,2.93,7.07
			c1.86,1.86,4.44,2.93,7.07,2.93s5.21-1.07,7.069-2.93C58.93,423.2,60,420.62,60,417.99S58.93,412.78,57.069,410.92z"/>
	</g>
</g>
<g>
	<g>
		<path d="M57.069,262.93C55.21,261.07,52.63,260,50,260s-5.21,1.07-7.07,2.93S40,267.37,40,270s1.069,5.21,2.93,7.07
			c1.861,1.86,4.44,2.93,7.07,2.93s5.21-1.07,7.069-2.93C58.93,275.21,60,272.63,60,270S58.93,264.79,57.069,262.93z"/>
	</g>
</g>
<g>
	<g>
		<path d="M469.069,262.93C467.21,261.07,464.63,260,462,260s-5.21,1.07-7.07,2.93c-1.86,1.86-2.93,4.44-2.93,7.07
			s1.069,5.21,2.93,7.07c1.861,1.86,4.44,2.93,7.07,2.93s5.21-1.07,7.069-2.93c1.86-1.86,2.931-4.44,2.931-7.07
			S470.93,264.79,469.069,262.93z"/>
	</g>
</g>
<g>
	<g>
		<path d="M469.069,410.92c-1.859-1.86-4.439-2.93-7.069-2.93s-5.21,1.07-7.07,2.93c-1.86,1.86-2.93,4.43-2.93,7.07
			c0,2.63,1.069,5.21,2.93,7.07c1.86,1.86,4.44,2.93,7.07,2.93s5.21-1.07,7.069-2.93c1.86-1.86,2.931-4.44,2.931-7.07
			S470.93,412.78,469.069,410.92z"/>
	</g>
</g>
<g>
	<g>
		<path d="M233.359,286.59c-1.859-1.86-4.439-2.92-7.069-2.92c-2.641,0-5.21,1.06-7.07,2.92c-1.87,1.87-2.93,4.45-2.93,7.08
			c0,2.63,1.06,5.21,2.93,7.07c1.86,1.86,4.43,2.93,7.07,2.93c2.63,0,5.21-1.07,7.069-2.93c1.86-1.87,2.931-4.44,2.931-7.07
			S235.22,288.46,233.359,286.59z"/>
	</g>
</g>
<g>
	<g>
		<path d="M180.514,283.667H75.168c-5.522,0-10,4.477-10,10s4.478,10,10,10h105.346c5.522,0,10-4.477,10-10
			S186.036,283.667,180.514,283.667z"/>
	</g>
</g>
<g>
	<g>
		<path d="M280.32,236h-75.342c-5.522,0-10,4.477-10,10s4.478,10,10,10h75.342c5.523,0,10-4.477,10-10S285.842,236,280.32,236z"/>
	</g>
</g>
<g>
	<g>
		<path d="M449.715,292.031h-75.342c-5.522,0-10,4.477-10,10s4.478,10,10,10h75.342c5.522,0,10-4.477,10-10
			S455.237,292.031,449.715,292.031z"/>
	</g>
</g>
<g>
	<g>
		<path d="M146.142,442H64c-5.522,0-10,4.477-10,10s4.478,10,10,10h82.142c5.522,0,10-4.477,10-10S151.664,442,146.142,442z"/>
	</g>
</g>
<g>
</g>
<g>
</g>
<g>
</g>
<g>
</g>
<g>
</g>
<g>
</g>
<g>
</g>
<g>
</g>
<g>
</g>
<g>
</g>
<g>
</g>
<g>
</g>
<g>
</g>
<g>
</g>
<g>
</g>
</svg>
