<?xml version="1.0" encoding="iso-8859-1"?>
<!-- Generator: Adobe Illustrator 19.0.0, SVG Export Plug-In . SVG Version: 6.00 Build 0)  -->
<svg version="1.1" id="Capa_1" xmlns="http://www.w3.org/2000/svg" xmlns:xlink="http://www.w3.org/1999/xlink" x="0px" y="0px"
	 viewBox="0 0 511.999 511.999" style="enable-background:new 0 0 511.999 511.999;" xml:space="preserve">
<g>
	<g>
		<path d="M448.002,53.673c-16.542,0-29.999,13.458-29.999,29.999s13.458,29.999,29.999,29.999s29.999-13.458,29.999-29.999
			S464.543,53.673,448.002,53.673z M448.002,93.672c-5.514,0-10-4.486-10-10s4.486-10,10-10s10,4.486,10,10
			S453.515,93.672,448.002,93.672z"/>
	</g>
</g>
<g>
	<g>
		<path d="M83.26,280.298c-16.542,0-29.999,13.458-29.999,29.999s13.458,29.999,29.999,29.999c16.542,0,29.999-13.458,29.999-29.999
			S99.802,280.298,83.26,280.298z M83.26,320.298c-5.514,0-10-4.486-10-10s4.486-10,10-10c5.514,0,10,4.486,10,10
			S88.774,320.298,83.26,320.298z"/>
	</g>
</g>
<g>
	<g>
		<path d="M283.145,433.035c-1.86-1.86-4.441-2.92-7.07-2.92c-2.64,0-5.21,1.06-7.07,2.92c-1.86,1.86-2.93,4.44-2.93,7.07
			c0,2.64,1.07,5.21,2.93,7.08c1.86,1.86,4.44,2.93,7.07,2.93s5.21-1.07,7.07-2.93c1.86-1.87,2.93-4.44,2.93-7.08
			C286.075,437.475,285.005,434.895,283.145,433.035z"/>
	</g>
</g>
<g>
	<g>
		<path d="M504.14,146.845c4.833-4.561,7.859-11.019,7.859-18.174V38.673c0-13.785-11.215-24.999-24.999-24.999H25.01
			c-13.785,0-24.999,11.215-24.999,24.999v89.998c0,13.785,11.215,24.999,24.999,24.999h188.7L12.511,269.834
			c-5.783,3.339-9.92,8.729-11.648,15.18c-1.729,6.45-0.842,13.188,2.497,18.971l44.999,77.94
			c3.724,6.451,9.909,10.609,16.691,11.986c0.064,0.018,0.124,0.044,0.189,0.061l166.218,44.538
			c0.867,0.232,1.738,0.343,2.595,0.343c4.415,0,8.456-2.947,9.653-7.414c1.43-5.335-1.736-10.818-7.071-12.248L98.102,382.071
			l106.766-61.642c-0.565,4.847,2.481,9.504,7.334,10.805c0.867,0.232,1.738,0.343,2.595,0.343c4.415,0,8.456-2.947,9.653-7.414
			l3.087-11.519l28.189,7.614l-9.279,34.63c-1.43,5.335,1.736,10.818,7.071,12.248c0.867,0.232,1.738,0.343,2.595,0.343
			c4.415,0,8.456-2.947,9.653-7.414l9.269-34.591l28.189,7.614l-3.046,11.367c-1.43,5.334,1.736,10.818,7.071,12.248
			c0.867,0.232,1.738,0.343,2.595,0.343c4.415,0,8.456-2.946,9.653-7.414l3.036-11.328l28.189,7.614l-9.232,34.453
			c-1.43,5.335,1.736,10.818,7.071,12.248c0.867,0.232,1.738,0.343,2.595,0.343c4.415,0,8.456-2.947,9.653-7.414l9.222-34.414
			l28.189,7.614l-2.995,11.177c-1.43,5.334,1.736,10.818,7.071,12.247c0.867,0.232,1.737,0.343,2.594,0.343
			c4.415,0,8.456-2.947,9.653-7.415l2.984-11.137l27.996,7.562l-9.181,34.262c-1.43,5.335,1.736,10.818,7.071,12.248
			c0.867,0.232,1.738,0.343,2.595,0.343c4.415,0,8.456-2.947,9.653-7.414l9.17-34.224l17.758,4.796
			c2.657,0.718,4.238,3.464,3.526,6.121l-23.301,86.961c-0.466,1.74-1.66,2.649-2.33,3.036s-2.054,0.965-3.794,0.5L317.86,440.955
			c-5.337-1.43-10.819,1.736-12.248,7.071c-1.43,5.335,1.736,10.818,7.071,12.248l138.828,37.198
			c2.159,0.579,4.328,0.855,6.464,0.854c11.037,0,21.165-7.376,24.153-18.532l23.301-86.96c3.561-13.289-4.348-27.017-17.629-30.604
			l-242.076-65.387l255.611-147.578C502.448,148.622,503.383,147.792,504.14,146.845z M72.509,373.754
			c-1.561,0.901-3.047,0.7-3.794,0.5c-0.747-0.2-2.135-0.769-3.036-2.33l-44.999-77.94c-1.378-2.388-0.557-5.451,1.831-6.83
			l63.557-36.694l5.508,9.54c1.852,3.208,5.213,5.001,8.669,5.001c1.696,0,3.416-0.432,4.991-1.341
			c4.783-2.761,6.422-8.877,3.66-13.66l-5.508-9.54l25.287-14.6l17.508,30.324c1.852,3.208,5.213,5.001,8.669,5.001
			c1.696,0,3.416-0.432,4.991-1.341c4.783-2.761,6.422-8.877,3.66-13.66l-17.508-30.324l25.287-14.6l5.508,9.54
			c1.852,3.208,5.213,5.001,8.669,5.001c1.696,0,3.416-0.432,4.991-1.341c4.783-2.761,6.422-8.877,3.66-13.66l-5.508-9.54
			l25.287-14.6l17.501,30.311c1.852,3.208,5.213,5.001,8.669,5.001c1.696,0,3.416-0.432,4.991-1.341
			c4.783-2.761,6.422-8.877,3.66-13.66l-17.5-30.311l22.5-12.991h3.717l4.579,7.931c1.852,3.208,5.213,5.001,8.669,5.001
			c1.696,0,3.416-0.432,4.991-1.341c4.115-2.376,5.894-7.234,4.554-11.591h34.017l2.376,4.116c1.852,3.208,5.213,5.001,8.669,5.001
			c1.696,0,3.416-0.432,4.991-1.341c2.93-1.692,4.673-4.644,4.954-7.776h118.479L72.509,373.754z M492.001,128.671
			c0,2.757-2.243,5-5,5H25.011c-2.757,0-5-2.243-5-5V38.673c0-2.757,2.243-5,5-5h24.199v34.999c0,5.523,4.477,10,10,10
			c5.523,0,10-4.477,10-10V33.673H98.41v11c0,5.523,4.477,10,10,10c5.523,0,10-4.477,10-10v-11h29.199v34.999
			c0,5.523,4.477,10,10,10s10-4.477,10-10V33.673h29.199v11c0,5.523,4.477,10,10,10s10-4.477,10-10v-11h29.199v34.984
			c0,5.523,4.477,10,10,10c5.523,0,10-4.477,10-10V33.673h29.199v11c0,5.523,4.477,10,10,10c5.523,0,10-4.477,10-10v-11h29.199
			v34.999c0,5.523,4.477,10,10,10s10-4.477,10-10V33.673h29.199v11c0,5.523,4.477,10,10,10s10-4.477,10-10v-11h73.398
			c2.757,0,5,2.243,5,5V128.671z"/>
	</g>
</g>
<g>
	<g>
		<path d="M66.279,99.433c-1.86-1.86-4.44-2.93-7.07-2.93s-5.21,1.07-7.07,2.93c-1.86,1.86-2.93,4.44-2.93,7.07s1.07,5.21,2.93,7.07
			c1.86,1.86,4.44,2.93,7.07,2.93s5.21-1.07,7.07-2.93c1.86-1.86,2.93-4.44,2.93-7.07S68.139,101.293,66.279,99.433z"/>
	</g>
</g>
<g>
</g>
<g>
</g>
<g>
</g>
<g>
</g>
<g>
</g>
<g>
</g>
<g>
</g>
<g>
</g>
<g>
</g>
<g>
</g>
<g>
</g>
<g>
</g>
<g>
</g>
<g>
</g>
<g>
</g>
</svg>
