<?xml version="1.0" encoding="iso-8859-1"?>
<!-- Generator: Adobe Illustrator 19.0.0, SVG Export Plug-In . SVG Version: 6.00 Build 0)  -->
<svg version="1.1" id="Capa_1" xmlns="http://www.w3.org/2000/svg" xmlns:xlink="http://www.w3.org/1999/xlink" x="0px" y="0px"
	 viewBox="0 0 511.999 511.999" style="enable-background:new 0 0 511.999 511.999;" xml:space="preserve">
<g>
	<g>
		<path d="M255.999,225.984c-5.52,0-10,4.48-10,10s4.479,10,10,10c5.52,0,10-4.48,10-10S261.52,225.984,255.999,225.984z"/>
	</g>
</g>
<g>
	<g>
		<path d="M504.883,196.588c-5.711-6.74-14.05-10.605-22.88-10.605h-86.821l58.281-66.045c15.332-0.368,30.041-6.595,40.973-17.528
			c23.384-23.397,23.384-61.464-0.004-84.864c-23.397-23.385-61.464-23.385-84.863,0.002c-10.927,10.928-17.152,25.63-17.523,40.957
			L247.067,185.983H29.994c-8.829,0-17.168,3.866-22.88,10.605c-5.713,6.743-8.157,15.61-6.704,24.333l3.238,19.427
			c14.328,85.998,77.172,155.187,156.166,186.836l-18.406,41.624c-4.561,9.311-4.034,20.114,1.425,28.949
			c5.507,8.912,15.049,14.233,25.525,14.233h175.283c10.476,0,20.018-5.321,25.525-14.233c5.459-8.835,5.985-19.638,1.425-28.949
			l-18.407-41.626c79.369-31.806,141.9-101.199,156.169-186.848l3.237-19.417C513.04,212.2,510.596,203.332,504.883,196.588z
			 M423.711,31.692c15.594-15.585,40.978-15.597,56.579-0.003c15.592,15.6,15.592,40.982,0.002,56.58
			c-15.581,15.581-40.957,15.622-56.579,0C408.011,72.566,408.217,47.188,423.711,31.692z M396.046,81.623
			c2.986,7.732,7.56,14.824,13.525,20.789c5.958,5.958,13.041,10.529,20.76,13.515l-61.821,70.056h-91.152L396.046,81.623z
			 M352.588,477.525c2.249,4.494,0.443,8.294-0.438,9.72c-0.882,1.427-3.476,4.746-8.51,4.746H168.357
			c-5.034,0-7.628-3.319-8.51-4.746c-0.881-1.425-2.687-5.226-0.438-9.72c0.213-0.43-1.081,2.462,19.285-43.585
			c25.258,7.991,51.216,12.05,77.304,12.05c26.08,0,52.038-4.059,77.303-12.051C353.594,479.816,352.374,477.091,352.588,477.525z
			 M491.86,217.627l-1.393,8.357H295.999c-5.522,0-10,4.477-10,10c0,5.523,4.478,9.9,10,9.9h190.924
			c-15.967,75.246-73.263,138.507-151.496,166.259c-0.002,0-0.003,0.001-0.004,0.001c-25.867,9.186-52.589,13.843-79.425,13.843
			c-26.855,0-53.586-4.661-79.458-13.854c-78.219-27.751-135.504-90.914-151.467-166.15h190.924c5.522,0,10-4.477,10-10
			s-4.478-10-10-10H21.53l-1.392-8.353c-0.491-2.949,0.303-5.83,2.236-8.112c1.931-2.279,4.637-3.534,7.619-3.534h452.011
			c2.982,0,5.688,1.255,7.619,3.534C491.557,211.8,492.351,214.682,491.86,217.627z"/>
	</g>
</g>
<g>
	<g>
		<path d="M296,325.986H266v-30.001c0-5.523-4.478-10-10-10c-5.522,0-10,4.477-10,10v30.001h-30.001c-5.522,0-10,4.477-10,10
			s4.478,10,10,10h30.001v30.001c0,5.523,4.478,10,10,10c5.522,0,10-4.477,10-10v-30.001H296c5.522,0,10-4.477,10-10
			S301.523,325.986,296,325.986z"/>
	</g>
</g>
<g>
</g>
<g>
</g>
<g>
</g>
<g>
</g>
<g>
</g>
<g>
</g>
<g>
</g>
<g>
</g>
<g>
</g>
<g>
</g>
<g>
</g>
<g>
</g>
<g>
</g>
<g>
</g>
<g>
</g>
</svg>
