<?xml version="1.0" encoding="iso-8859-1"?>
<!-- Generator: Adobe Illustrator 19.0.0, SVG Export Plug-In . SVG Version: 6.00 Build 0)  -->
<svg version="1.1" id="Capa_1" xmlns="http://www.w3.org/2000/svg" xmlns:xlink="http://www.w3.org/1999/xlink" x="0px" y="0px"
	 viewBox="0 0 511.999 511.999" style="enable-background:new 0 0 511.999 511.999;" xml:space="preserve">
<g>
	<g>
		<path d="M71.239,362.833c-1.859-1.859-4.427-2.928-7.066-2.928c-2.628,0-5.207,1.069-7.066,2.928
			c-1.859,1.859-2.928,4.437-2.928,7.066c0,2.638,1.069,5.207,2.928,7.076c1.859,1.859,4.437,2.918,7.066,2.918
			c2.638,0,5.207-1.059,7.066-2.918c1.869-1.869,2.928-4.437,2.928-7.076C74.167,367.27,73.108,364.692,71.239,362.833z"/>
	</g>
</g>
<g>
	<g>
		<path d="M444.463,67.631c-1.859-1.859-4.437-2.928-7.066-2.928s-5.207,1.069-7.066,2.928c-1.859,1.859-2.928,4.437-2.928,7.066
			s1.069,5.207,2.928,7.066c1.859,1.869,4.437,2.928,7.066,2.928s5.207-1.059,7.066-2.928c1.859-1.859,2.928-4.427,2.928-7.066
			C447.391,72.069,446.322,69.49,444.463,67.631z"/>
	</g>
</g>
<g>
	<g>
		<path d="M183.661,282.791c-1.859-1.859-4.437-2.928-7.066-2.928s-5.207,1.069-7.066,2.928c-1.869,1.859-2.928,4.437-2.928,7.066
			s1.059,5.207,2.928,7.066c1.859,1.859,4.437,2.928,7.066,2.928s5.207-1.069,7.066-2.928c1.859-1.859,2.928-4.437,2.928-7.066
			S185.52,284.65,183.661,282.791z"/>
	</g>
</g>
<g>
	<g>
		<path d="M490.104,21.995C461.359-6.752,415.722-7.4,386.208,20.52c-9.08,8.589-15.899,19.365-19.719,31.164
			c-9.793,30.243-27.509,59.091-51.305,83.679l-71.17-71.17c-14.807-14.806-38.9-14.806-53.707,0l-7.766,7.767
			c-12.542,12.542-14.456,31.747-5.75,46.327L8.931,286.146c-5.695,5.696-8.832,13.267-8.832,21.321
			c0,8.055,3.137,15.627,8.832,21.321l22.196,22.196c3.904,3.904,10.232,3.903,14.133,0c3.903-3.903,3.904-10.231,0-14.133
			l-22.196-22.197c-3.964-3.964-3.964-10.412,0-14.375l58.976-58.974c4.923-4.92,11.471-7.625,18.419-7.61
			c6.984,0.012,13.574,2.762,18.556,7.744c5.095,5.095,7.901,11.869,7.901,19.074c0,7.205-2.806,13.98-7.901,19.074l-19.941,19.94
			c-15.285,15.286-15.285,40.158,0,55.443l14.253,14.253c14.21,14.209,37.34,14.219,51.548,0.037l20.732-20.618
			c2.342-2.342,5.455-3.631,8.766-3.631c3.311,0,6.424,1.289,8.766,3.631c4.833,4.834,4.833,12.699,0,17.532l-10.737,10.737
			c-6.225,6.225-9.653,14.502-9.653,23.306c0,8.804,3.429,17.081,9.653,23.306c6.225,6.224,14.5,9.652,23.304,9.651
			c0.002,0,0.004,0,0.006,0c8.805-0.001,17.081-3.431,23.306-9.656l9.939-9.939c2.552-2.552,5.941-3.957,9.546-3.957
			c0.008,0,0.017,0,0.024,0c3.635,0.006,7.068,1.441,9.666,4.039l0.418,0.417c2.426,2.426,3.762,5.651,3.762,9.081
			c0,3.429-1.335,6.652-3.758,9.077l-56.799,56.799c-1.92,1.92-4.472,2.977-7.188,2.977c-2.715,0-5.268-1.057-7.188-2.977
			l-45.642-45.641l3.155-19.911c0.489-3.083-0.493-6.218-2.65-8.474c-2.16-2.255-5.246-3.371-8.35-3.019l-21.153,2.407
			l-25.237-25.242c-3.903-3.903-10.231-3.903-14.133,0c-3.903,3.903-3.904,10.231,0,14.133l28.647,28.648
			c2.154,2.154,5.172,3.209,8.197,2.863l12.885-1.466l-1.895,11.962c-0.501,3.16,0.542,6.369,2.804,8.631l49.243,49.242
			c5.695,5.696,13.267,8.832,21.321,8.832c8.054,0,15.627-3.137,21.321-8.832L393.801,335.32c5.828,3.496,12.513,5.362,19.484,5.362
			c10.144,0,19.681-3.951,26.854-11.123l7.766-7.766c14.807-14.807,14.807-38.9,0-53.708l-71.182-71.182
			c23.274-22.727,51.958-40.174,85.329-51.845c10.612-3.711,20.05-9.65,28.051-17.651C519.166,98.344,519.166,51.056,490.104,21.995
			z M289.988,410.867c-1.631-4.04-4.069-7.749-7.241-10.921l-0.418-0.418c-6.365-6.364-14.805-9.878-23.766-9.894
			c-0.021,0-0.041,0-0.061,0c-8.944,0-17.351,3.483-23.679,9.811l-9.939,9.939c-5.06,5.061-13.29,5.061-18.348,0.004
			c-2.45-2.45-3.799-5.707-3.799-9.171s1.349-6.723,3.8-9.172l10.737-10.737c12.626-12.627,12.626-33.172,0-45.8
			c-6.117-6.116-14.249-9.485-22.9-9.485s-16.783,3.369-22.88,9.466l-20.725,20.612c-6.429,6.417-16.885,6.413-23.307-0.011
			l-14.253-14.253c-7.492-7.492-7.492-19.683,0-27.175l19.941-19.94c18.311-18.311,18.311-48.106,0-66.417
			c-6.733-6.733-15.157-11.133-24.291-12.817l81.25-81.25l26.263,26.263l-19.73,19.73c-3.903,3.903-3.904,10.231,0,14.133
			c1.952,1.952,4.509,2.927,7.067,2.927s5.116-0.976,7.067-2.927l19.73-19.73l24.089,24.089l-53.538,53.538
			c-3.903,3.903-3.904,10.231,0,14.133c1.952,1.952,4.509,2.927,7.067,2.927c2.557,0,5.116-0.976,7.067-2.927l53.539-53.538
			l15.761,15.761l47.89,47.89c-0.076,0.071-0.157,0.135-0.231,0.209l-42.443,42.443c-3.903,3.903-3.903,10.231,0,14.134
			c1.952,1.952,4.509,2.927,7.067,2.927s5.116-0.975,7.067-2.927l42.443-42.443c0.074-0.074,0.138-0.155,0.209-0.231l32.372,32.372
			L289.988,410.867z M433.771,282.219c7.014,7.013,7.014,18.426,0,25.44l-7.766,7.766c-3.397,3.398-7.915,5.269-12.72,5.269
			c-4.805,0-9.322-1.871-12.72-5.269L196.673,111.534c-7.015-7.014-7.015-18.426,0-25.44l7.766-7.766
			c3.507-3.507,8.113-5.261,12.72-5.261c4.607,0,9.213,1.753,12.72,5.261l78.274,78.274c0,0.001,0.001,0.001,0.002,0.002
			l23.671,23.671L433.771,282.219z M475.971,113.273c-5.86,5.86-12.763,10.207-20.517,12.918
			c-36.235,12.672-67.471,31.697-92.882,56.562l-33.237-33.237c26.024-26.824,45.409-58.442,56.169-91.674
			c2.791-8.622,7.785-16.507,14.439-22.801c21.594-20.428,54.989-19.95,76.027,1.088C497.239,57.398,497.239,92.004,475.971,113.273
			z"/>
	</g>
</g>
<g>
</g>
<g>
</g>
<g>
</g>
<g>
</g>
<g>
</g>
<g>
</g>
<g>
</g>
<g>
</g>
<g>
</g>
<g>
</g>
<g>
</g>
<g>
</g>
<g>
</g>
<g>
</g>
<g>
</g>
</svg>
