<?xml version="1.0" encoding="iso-8859-1"?>
<!-- Generator: Adobe Illustrator 19.0.0, SVG Export Plug-In . SVG Version: 6.00 Build 0)  -->
<svg version="1.1" id="Capa_1" xmlns="http://www.w3.org/2000/svg" xmlns:xlink="http://www.w3.org/1999/xlink" x="0px" y="0px"
	 viewBox="0 0 512 512" style="enable-background:new 0 0 512 512;" xml:space="preserve">
<g>
	<g>
		<path d="M511.808,190.494l-4.938-24.844c-0.386-1.94-1.338-3.723-2.737-5.122l-40.545-40.545l8.352-8.351
			c10.991-10.991,10.991-28.874,0-39.866l-31.716-31.716c-5.325-5.324-12.404-8.256-19.933-8.256c-7.53,0-14.609,2.932-19.933,8.256
			l-8.352,8.352L350.805,7.201c-1.451-1.451-3.313-2.42-5.334-2.777L321.302,0.16c-3.213-0.566-6.501,0.47-8.809,2.777
			l-94.647,94.647c-2.307,2.308-3.343,5.595-2.777,8.809l4.264,24.169c0.356,2.021,1.326,3.883,2.777,5.334l35.981,35.981
			L47.36,382.607c-3.005-0.424-6.165,0.508-8.476,2.818L2.929,421.381c-3.059,3.059-3.804,7.738-1.847,11.596l24.757,48.799
			c0.961,1.894,2.5,3.434,4.395,4.394l48.782,24.74c1.435,0.728,2.983,1.082,4.52,1.082c2.594,0,5.153-1.009,7.074-2.929
			l35.956-35.956c2.311-2.311,3.243-5.471,2.818-8.476l210.732-210.73l35.323,35.323c1.399,1.398,3.181,2.351,5.122,2.737
			l24.844,4.938c0.649,0.129,1.301,0.192,1.95,0.192c2.625,0,5.177-1.035,7.071-2.929l94.647-94.647
			C511.432,197.154,512.459,193.77,511.808,190.494z M414.5,54.193c1.546-1.547,3.604-2.399,5.791-2.399s4.245,0.852,5.791,2.399
			l31.716,31.715c3.193,3.193,3.193,8.39,0,11.583l-8.352,8.352l-43.298-43.298L414.5,54.193z M81.597,489.794l-39.4-19.982
			L22.2,430.395l23.756-23.756l59.398,59.398L81.597,489.794z M116.667,449.066l-12.546-12.546l40.452-40.451
			c3.905-3.905,3.905-10.237,0-14.142c-3.906-3.906-10.237-3.905-14.142,0L89.98,422.38l-27.054-27.054L272.232,186.02
			l26.804,26.804l-56.354,56.354c-3.905,3.905-3.905,10.237,0,14.143c1.953,1.953,4.512,2.929,7.071,2.929s5.119-0.976,7.071-2.929
			l56.354-56.354l12.796,12.796L116.667,449.066z M404.061,276.241l-16.626-3.305L238.481,123.983l-2.812-15.937l60.673-60.673
			l58.316,58.317c1.953,1.953,4.512,2.929,7.071,2.929s5.119-0.977,7.071-2.929c3.905-3.905,3.906-10.237,0-14.141l-58.317-58.317
			l12.471-12.471l15.937,2.812l46.039,46.039c0.002,0.002,0.003,0.003,0.005,0.005l57.439,57.439
			c0.002,0.002,0.003,0.003,0.005,0.005l45.466,45.465l3.305,16.626L404.061,276.241z"/>
	</g>
</g>
<g>
	<g>
		<path d="M232.535,293.465c-1.87-1.86-4.44-2.92-7.07-2.92c-2.64,0-5.21,1.06-7.08,2.92c-1.86,1.87-2.92,4.44-2.92,7.07
			c0,2.64,1.06,5.21,2.92,7.08c1.87,1.86,4.44,2.92,7.08,2.92c2.63,0,5.21-1.06,7.07-2.92c1.86-1.87,2.93-4.44,2.93-7.08
			C235.464,297.905,234.394,295.325,232.535,293.465z"/>
	</g>
</g>
<g>
	<g>
		<path d="M194.011,303.864c-3.905-3.905-10.237-3.905-14.142,0l-38.946,38.946c-3.905,3.905-3.905,10.237,0,14.142
			c1.953,1.953,4.512,2.929,7.071,2.929s5.119-0.977,7.071-2.929l38.946-38.946C197.916,314.101,197.916,307.769,194.011,303.864z"
			/>
	</g>
</g>
<g>
	<g>
		<path d="M393.099,115.841c-1.87-1.86-4.44-2.93-7.08-2.93c-2.63,0-5.21,1.07-7.07,2.93c-1.86,1.86-2.93,4.44-2.93,7.07
			c0,2.63,1.07,5.21,2.93,7.07c1.86,1.86,4.44,2.93,7.07,2.93c2.64,0,5.21-1.07,7.08-2.93c1.86-1.86,2.92-4.44,2.92-7.07
			C396.019,120.281,394.959,117.701,393.099,115.841z"/>
	</g>
</g>
<g>
</g>
<g>
</g>
<g>
</g>
<g>
</g>
<g>
</g>
<g>
</g>
<g>
</g>
<g>
</g>
<g>
</g>
<g>
</g>
<g>
</g>
<g>
</g>
<g>
</g>
<g>
</g>
<g>
</g>
</svg>
