<?xml version="1.0" encoding="iso-8859-1"?>
<!-- Generator: Adobe Illustrator 19.0.0, SVG Export Plug-In . SVG Version: 6.00 Build 0)  -->
<svg version="1.1" id="Capa_1" xmlns="http://www.w3.org/2000/svg" xmlns:xlink="http://www.w3.org/1999/xlink" x="0px" y="0px"
	 viewBox="0 0 512 512" style="enable-background:new 0 0 512 512;" xml:space="preserve">
<g>
	<g>
		<path d="M173,184.5c-5.52,0-10,4.48-10,10s4.48,10,10,10s10-4.48,10-10S178.52,184.5,173,184.5z"/>
	</g>
</g>
<g>
	<g>
		<path d="M113,24.5c-60.436,0-113,48.857-113,110v240c0,61.161,52.584,110,113,110c60.328,0,113-48.762,113-110v-240
			C226,73.339,173.416,24.5,113,24.5z M206,374.5c0,50.645-44.313,90-93,90c-50.411,0-93-41.215-93-90v-110h186V374.5z M206,244.5
			H20v-110c0-48.785,42.589-90,93-90s93,41.215,93,90V244.5z"/>
	</g>
</g>
<g>
	<g>
		<path d="M136.34,68.504c-5.207-1.843-10.921,0.88-12.766,6.085c-1.845,5.206,0.88,10.922,6.086,12.767
			C149.602,94.423,163,113.369,163,134.5v20c0,5.523,4.477,10,10,10s10-4.477,10-10v-20C183,104.917,164.249,78.395,136.34,68.504z"
			/>
	</g>
</g>
<g>
	<g>
		<path d="M379,221.5c-70.115,0-133,59.562-133,133c0,71.724,61.282,133,133,133c71.444,0,133-60.719,133-133
			C512,282.776,450.718,221.5,379,221.5z M379,467.5c-61.252,0-113-51.748-113-113c0-26.11,9.51-51.343,26.942-71.916
			l157.971,157.971C430.353,457.994,405.163,467.5,379,467.5z M465.056,426.413L307.093,268.45
			c20.448-17.239,46.099-26.95,71.907-26.95c61.252,0,113,51.748,113,113C492,380.664,482.494,405.853,465.056,426.413z"/>
	</g>
</g>
<g>
</g>
<g>
</g>
<g>
</g>
<g>
</g>
<g>
</g>
<g>
</g>
<g>
</g>
<g>
</g>
<g>
</g>
<g>
</g>
<g>
</g>
<g>
</g>
<g>
</g>
<g>
</g>
<g>
</g>
</svg>
