<?xml version="1.0" encoding="iso-8859-1"?>
<!-- Generator: Adobe Illustrator 19.0.0, SVG Export Plug-In . SVG Version: 6.00 Build 0)  -->
<svg version="1.1" id="Capa_1" xmlns="http://www.w3.org/2000/svg" xmlns:xlink="http://www.w3.org/1999/xlink" x="0px" y="0px"
	 viewBox="0 0 512 512" style="enable-background:new 0 0 512 512;" xml:space="preserve">
<g>
	<g>
		<path d="M404.032,494.93c-1.86-1.86-4.44-2.93-7.07-2.93s-5.21,1.07-7.07,2.93s-2.93,4.44-2.93,7.07s1.07,5.21,2.93,7.07
			c1.86,1.86,4.44,2.93,7.07,2.93s5.21-1.07,7.07-2.93c1.86-1.86,2.93-4.44,2.93-7.07S405.892,496.79,404.032,494.93z"/>
	</g>
</g>
<g>
	<g>
		<path d="M334.335,364.46h30.912c3.573,0,6.874-1.906,8.66-5c1.787-3.094,1.787-6.906,0-10l-47.5-82.273h26.006
			c3.573,0,6.874-1.906,8.66-5c1.787-3.094,1.787-6.906,0-10l-52.786-91.428h13.123c3.573,0,6.874-1.906,8.66-5
			c1.787-3.094,1.787-6.906,0-10L248.803,5c-1.786-3.094-5.087-5-8.66-5s-6.874,1.906-8.66,5l-24.125,41.787
			c-2.762,4.783-1.123,10.899,3.66,13.66c4.784,2.762,10.899,1.123,13.66-3.66L240.142,30l63.947,110.759h-13.123
			c-3.573,0-6.874,1.906-8.66,5c-1.787,3.094-1.787,6.906,0,10l52.786,91.428h-26.006c-3.573,0-6.874,1.906-8.66,5
			c-1.787,3.094-1.787,6.906,0,10l47.5,82.273h-30.911c-3.573,0-6.874,1.906-8.66,5c-1.787,3.094-1.787,6.906,0,10L347.927,428
			H132.358l39.572-68.54c1.787-3.094,1.787-6.906,0-10c-1.786-3.094-5.087-5-8.66-5h-30.911l47.5-82.273
			c1.787-3.094,1.787-6.906,0-10c-1.786-3.094-5.087-5-8.66-5h-26.006l52.786-91.428c1.787-3.094,1.787-6.906,0-10
			c-1.786-3.094-5.087-5-8.66-5h-13.123l14.601-25.289c2.762-4.783,1.123-10.899-3.66-13.66c-4.782-2.76-10.898-1.123-13.66,3.66
			l-23.261,40.289c-1.787,3.094-1.787,6.906,0,10c1.786,3.094,5.087,5,8.66,5h13.123l-52.786,91.428c-1.787,3.094-1.787,6.906,0,10
			c1.786,3.094,5.087,5,8.66,5h26.006l-47.5,82.273c-1.787,3.094-1.787,6.906,0,10c1.786,3.094,5.087,5,8.66,5h30.912L106.378,433
			c-1.787,3.094-1.787,6.906,0,10c1.786,3.094,5.087,5,8.66,5h87.104v44h-85.833c-5.523,0-10,4.477-10,10s4.477,10,10,10h234.322
			c5.523,0,10-4.477,10-10s-4.477-10-10-10h-72.488v-44h87.104c3.573,0,6.874-1.906,8.66-5c1.787-3.094,1.787-6.906,0-10
			L334.335,364.46z M258.142,492h-36v-44h36V492z"/>
	</g>
</g>
<g>
	<g>
		<path d="M205.912,74.47c-1.86-1.86-4.44-2.93-7.07-2.93c-2.64,0-5.21,1.07-7.08,2.93c-1.86,1.86-2.92,4.44-2.92,7.07
			s1.06,5.21,2.92,7.07c1.87,1.87,4.44,2.93,7.08,2.93c2.63,0,5.2-1.06,7.07-2.93c1.86-1.86,2.93-4.44,2.93-7.07
			S207.772,76.33,205.912,74.47z"/>
	</g>
</g>
<g>
</g>
<g>
</g>
<g>
</g>
<g>
</g>
<g>
</g>
<g>
</g>
<g>
</g>
<g>
</g>
<g>
</g>
<g>
</g>
<g>
</g>
<g>
</g>
<g>
</g>
<g>
</g>
<g>
</g>
</svg>
