<?xml version="1.0" encoding="iso-8859-1"?>
<!-- Generator: Adobe Illustrator 16.0.0, SVG Export Plug-In . SVG Version: 6.00 Build 0)  -->
<!DOCTYPE svg PUBLIC "-//W3C//DTD SVG 1.1//EN" "http://www.w3.org/Graphics/SVG/1.1/DTD/svg11.dtd">
<svg version="1.1" id="Capa_1" xmlns="http://www.w3.org/2000/svg" xmlns:xlink="http://www.w3.org/1999/xlink" x="0px" y="0px"
	 width="573.75px" height="573.75px" viewBox="0 0 573.75 573.75" style="enable-background:new 0 0 573.75 573.75;"
	 xml:space="preserve">
<g>
	<g id="Layer_2_3_">
		<path d="M114.75,445.976V573.75h353.812V445.976c0-29.29-19.812-53.913-49.104-53.913h-60.73
			c-8.559,9.562-18.791,16.113-30.236,21.076l-38.471,65.551l-39.407-64.786c-12.192-5.001-23.123-12.278-32.235-21.841h-55.252
			C133.836,392.062,114.75,416.686,114.75,445.976z"/>
		<polygon points="189.643,124.312 366.425,124.312 295.71,0 260.358,0 		"/>
		<path d="M52.89,188.974l14.296,14.162l36.577-35.19l36.567,35.438l36.596-35.314l36.577,35.381l36.596-35.343l36.615,35.362
			l36.605-35.353l36.615,35.362l36.596-35.353l36.605,35.353l36.613-35.353l36.682,35.362l14.439-14.574
			c4.639-19.899,4.668-35.917,4.668-35.917H48.214C48.214,153,48.242,169.056,52.89,188.974z"/>
		<path d="M84.829,248.625c15.577,19.125,37.781,28.688,69.452,28.688c79.551,0,194.462,0,265.177,0
			c31.672,0,53.875-9.562,69.463-28.688H84.829z"/>
		<path d="M506.372,226.373l-36.615-34.396l-36.623,35.821l-36.605-35.133l-36.596,35.468l-36.615-35.305l-36.605,35.381
			l-36.615-35.343l-36.596,35.372l-36.577-35.353l-36.605,35.362l-36.558-35.353l-36.443,33.402
			c2.802,5.011,5.996,12.766,9.658,12.766h419.793C500.415,239.062,503.599,231.355,506.372,226.373z"/>
		<path d="M230.044,392.942c3.969,3.28,8.243,6.196,12.785,8.759c13.34,7.535,28.869,11.867,45.517,11.867
			c17.682,0,34.109-4.857,47.975-13.272c3.635-2.209,7.086-4.667,10.328-7.354c18.848-15.597,30.83-38.47,30.83-65.379
			c0-12.565-2.631-31.126-7.324-31.126h-3.73H206.54c-4.695,9.562-7.325,18.561-7.325,31.126
			C199.215,354.473,211.197,377.355,230.044,392.942z"/>
	</g>
</g>
<g>
</g>
<g>
</g>
<g>
</g>
<g>
</g>
<g>
</g>
<g>
</g>
<g>
</g>
<g>
</g>
<g>
</g>
<g>
</g>
<g>
</g>
<g>
</g>
<g>
</g>
<g>
</g>
<g>
</g>
</svg>
