<?xml version="1.0" encoding="utf-8"?>
<!-- Generator: Adobe Illustrator 21.0.0, SVG Export Plug-In . SVG Version: 6.00 Build 0)  -->
<svg version="1.1" id="Layer_1" xmlns="http://www.w3.org/2000/svg" xmlns:xlink="http://www.w3.org/1999/xlink" x="0px" y="0px"
	 viewBox="0 0 512 512" style="enable-background:new 0 0 512 512;" xml:space="preserve">
<g>
	<path d="M398.4,405.4l0.3-214.9l6.7-2.3c10.6-3.6,16.3-15.1,12.8-25.8c-2.9-8.5-10.9-13.9-19.4-13.8l0.1-119.9
		c0-5.6-4.5-10.2-10.2-10.2c0,0,0,0,0,0c-5.6,0-10.2,4.6-10.2,10.2l-0.1,125.7l-47.5,16c-4-11.2-8.7-24.5-11-31.4
		c-7.6-22.1-19.3-35.4-35-39.8c-8.9,25.1-12.1,34.1-17.8,50.2c6.1,49.7,1.7,21.1,20.6,131.4c1.1,6.1-3.7,11.7-9.8,11.7
		c-20.1,0-60.5,0-80.6,0c-6.1,0-10.9-5.6-9.8-11.7c18.9-110.2,14.6-82,20.5-130.2c-13.5-38.2-12.1-34.2-18.1-51.2
		c-15.4,4.5-26.9,17.8-34.4,39.6c-14.6,42.5-47.8,133.4-48.2,134.3c-3.4,9.4,0.5,19.7,8.9,24.6c0,10.5,0,18.2,0,28.5
		c-20,0-31.8,14.2-31.8,29.8v39.1c0,4.3,3.5,7.7,7.7,7.7h68.5c4.3,0,7.7-3.5,7.7-7.7v-39.1c0-15-11.2-29.8-31.8-29.8
		c0-16.8,0-17.6,0-28.5c4-2.3,7.2-6,8.9-10.6c0.3-0.8,24.1-66.1,40.4-112.2c-1.1,8.6-27,141.6-27,141.6c9.6,5,17.2,13.3,21.1,23.4
		c1.2,0,2.3,0,3.6,0v147.5c0,13.5,10.9,24.4,24.4,24.4c13.5,0,24.4-10.9,24.4-24.4V340.1c3.5,0,7,0,10.5,0v147.5
		c0,13.5,10.9,24.4,24.4,24.4c13.5,0,24.4-10.9,24.4-24.4V340.1c5.9,0,11.1,0,15.5,0c7.1,0,12.4-6.5,11.1-13.5
		c-2.2-11.4-27.8-142.5-28.9-151.5c4.8,13.5,9.6,26.9,9.9,27.9c3.7,10.5,15.1,16,25.7,12.4l53.3-18l-0.2,208
		c-16.9,4.5-29.5,19.9-29.5,38.3l0,3l79.2,0.1l0-3C427.8,425.4,415.3,410,398.4,405.4z, M348.5,498c0,7.7,17.7,14,39.6,14s39.6-6.2,39.6-13.9l0-35.5l-79.2-0.1L348.5,498z"/>
	<circle cx="237.6" cy="42.1" r="42.1"/>
	<path d="M223.6,147.5c10.6,0,17.8,0,27.3,0c3.9-11.1,14.2-40.2,17.6-49.8H206C209.6,108,220,137.3,223.6,147.5z"/>
</g>
</svg>
