<?xml version="1.0" encoding="utf-8"?>
<!-- Generator: Adobe Illustrator 21.0.0, SVG Export Plug-In . SVG Version: 6.00 Build 0)  -->
<svg version="1.1" id="Capa_1" xmlns="http://www.w3.org/2000/svg" xmlns:xlink="http://www.w3.org/1999/xlink" x="0px" y="0px"
	 viewBox="0 0 60 60" style="enable-background:new 0 0 60 60;" xml:space="preserve">
<g>
	<path d="M2,31c0-2.6,1-5,2.8-6.8c0.4-0.4,0.4-1,0-1.4c-0.4-0.4-1-0.4-1.4,0C1.2,25,0,27.9,0,31c0,3.1,1.2,6,3.4,8.2
		c0.2,0.2,0.5,0.3,0.7,0.3c0.3,0,0.5-0.1,0.7-0.3c0.4-0.4,0.4-1,0-1.4C3,36,2,33.5,2,31z, M8.3,37.2c0.3,0,0.5-0.1,0.7-0.3c0.4-0.4,0.4-1,0-1.4c-2.6-2.6-2.6-6.7,0-9.3c0.4-0.4,0.4-1,0-1.4c-0.4-0.4-1-0.4-1.4,0
		c-3.3,3.3-3.3,8.8,0,12.1C7.8,37.1,8,37.2,8.3,37.2z, M56.6,22.8c-0.4-0.4-1-0.4-1.4,0c-0.4,0.4-0.4,1,0,1.4C57,26,58,28.4,58,31c0,2.6-1,5-2.8,6.8c-0.4,0.4-0.4,1,0,1.4
		c0.2,0.2,0.5,0.3,0.7,0.3c0.3,0,0.5-0.1,0.7-0.3C58.8,37,60,34.1,60,31C60,27.9,58.8,25,56.6,22.8z, M51,36.9c0.2,0.2,0.5,0.3,0.7,0.3s0.5-0.1,0.7-0.3c3.3-3.3,3.3-8.8,0-12.1c-0.4-0.4-1-0.4-1.4,0c-0.4,0.4-0.4,1,0,1.4
		c2.6,2.6,2.6,6.7,0,9.3C50.6,35.9,50.6,36.5,51,36.9z, M47,31.5v-9c0-6.9-4.6-11.4-8.5-13.2c-1.1-0.5-2.3-0.9-3.5-1.2V7.5c0-2.8-2.2-5-5-5s-5,2.2-5,5v0.7
		c-1.1,0.3-2.1,0.6-3.1,1.1c-4.4,2-8.8,6.9-8.9,13.2v9c0,6.4-2.3,11.9-6.7,16.3c-0.3,0.3-0.4,0.7-0.2,1c0.1,0.4,0.4,0.6,0.8,0.7
		l9.5,1.6c1.8,0.3,3.4,0.6,4.9,0.8c1.7,3.4,5.2,5.6,8.9,5.6c3.7,0,7.2-2.2,8.9-5.6c1.5-0.2,3.1-0.4,4.9-0.8l9.5-1.6
		c0.4-0.1,0.7-0.3,0.8-0.7c0.1-0.4,0-0.7-0.2-1C49.4,43.2,47,37.7,47,31.5z M27,7.5c0-1.7,1.3-3,3-3s3,1.3,3,3v0.2c-2-0.3-4-0.3-6,0
		V7.5z M30.2,55.5c-2.5,0-4.9-1.3-6.4-3.3h0c0.4,0,0.8,0.1,1.2,0.1c0.2,0,0.4,0,0.6,0.1c0.1,0,0.3,0,0.4,0c2.9,0.2,5.6,0.2,8.5,0
		c0.2,0,0.3,0,0.5,0c0.2,0,0.4,0,0.7-0.1c0.3,0,0.7-0.1,1-0.1c0,0,0,0,0,0C35.1,54.2,32.7,55.5,30.2,55.5z M36.9,15.2
		c-0.2,0.5-0.8,0.7-1.3,0.5c-3.4-1.5-7.5-1.5-10.8,0C23,16.5,20,18.8,20,22.5c0,0.6-0.5,1-1,1c0,0,0,0,0,0c-0.6,0-1-0.5-1-1
		c0-4.7,3.8-7.6,5.9-8.7c3.8-1.8,8.6-1.8,12.5,0C36.9,14.1,37.1,14.7,36.9,15.2z"/>
</g>
</svg>
