<?xml version="1.0" encoding="utf-8"?>
<!-- Generator: Adobe Illustrator 21.0.0, SVG Export Plug-In . SVG Version: 6.00 Build 0)  -->
<svg version="1.1" id="Layer_1" xmlns="http://www.w3.org/2000/svg" xmlns:xlink="http://www.w3.org/1999/xlink" x="0px" y="0px"
	 viewBox="0 0 180 180" style="enable-background:new 0 0 180 180;" xml:space="preserve">
<g>
	<path d="M90,81.8c-4.5,0-8.2,3.7-8.2,8.2c0,4.5,3.7,8.2,8.2,8.2c4.1,0,7.4-3,8.1-6.9c-0.1-0.8-0.1-1.5,0.1-2.2
		C97.6,85,94.2,81.8,90,81.8z"/>
	<path d="M90,6C43.6,6,6,43.6,6,90s37.6,84,84,84c46.4,0,84-37.6,84-84S136.4,6,90,6z M122.7,114.5c-6.3,0-12-2.4-16.3-6.3
		c-4.4,3.9-10.1,6.3-16.3,6.3c-13.5,0-24.5-11-24.5-24.5c0-13.5,11-24.5,24.5-24.5c13.5,0,24.5,11,24.5,24.5c0,0,0,0.1,0,0.1
		c0.2,5,4,8.1,8.2,8.1c4.5,0,8.2-3.7,8.2-8.2c0-22.6-18.3-40.9-40.9-40.9c-22.6,0-40.9,18.3-40.9,40.9c0,14,7.1,26.9,18.9,34.4
		c12.1,7.7,27.1,8.5,41.2,2c4.1-1.9,8.9-0.1,10.8,4c1.9,4.1,0.1,8.9-4,10.8c-19.3,8.8-40,7.7-56.9-3.1
		C42.7,127.6,32.8,109.6,32.8,90c0-31.5,25.7-57.2,57.2-57.2c31.5,0,57.2,25.7,57.2,57.2C147.2,103.5,136.2,114.5,122.7,114.5z"/>
</g>
</svg>
