<?xml version="1.0" encoding="utf-8"?>
<!-- Generator: Adobe Illustrator 21.0.0, SVG Export Plug-In . SVG Version: 6.00 Build 0)  -->
<svg version="1.1" id="Capa_1" xmlns="http://www.w3.org/2000/svg" xmlns:xlink="http://www.w3.org/1999/xlink" x="0px" y="0px"
	 viewBox="0 0 946.9 946.9" style="enable-background:new 0 0 946.9 946.9;" xml:space="preserve">
<g>
	<path d="M937.8,72.7L884.1,24c-3.7-3.3-9.9-8.6-14.7-9.9c-7.2-2-15.1-0.7-21.4,3.9L338.9,391.4c2.4,1.9,4.5,4,6.3,6.5l195.2,266.2
		c2.6,3.6,4.8,7.4,6.4,11.4c26.7-10.4,67.7-25.9,71-29.4c3.8-4,0.8-9.7-0.6-14.3c-3.3-11.3-6.9-22.6-10.5-33.9c-0.7-2-1.3-4.1-2-6.1
		c-0.8-3.3,1.2-6.6,4.5-7.4c0,0,49.8-12.3,50-12.3c1.5-0.4,2.8-1.5,3.8-2.9c1-1.6,1.5-3.5,1.1-5.1l-12.9-52.4
		c-0.8-3.3,1.2-6.6,4.5-7.4l50.1-12.3c1.6-0.4,3-1.4,3.8-2.9l0.3-0.5c0.8-1.4,1-3,0.7-4.6l-12.9-52.4c-0.8-3.3,1.2-6.6,4.5-7.4
		l50.2-12.4c1.6-0.4,3-1.4,3.8-2.9l0.2-0.4c0.8-1.4,1-3,0.7-4.6l-12.9-52.5c-0.8-3.3,1.2-6.6,4.5-7.4l50.3-12.4
		c1.6-0.4,3-1.4,3.8-2.9l0.2-0.3c0.8-1.4,1-3,0.7-4.6l-10.8-43.9c-1.2-4.8-2.8-11.1-1.4-13.4c0.8-1.3,2.1-2.4,3.8-2.8l50.4-12.4
		c0.8-0.2,1.6-0.6,2.2-1c1.1-0.8,1.7-1.9,1.7-1.9l0-0.1c0.8-1.4,1-3,0.7-4.6l-13-52.7c-0.8-3.3,1.2-6.6,4.5-7.4l50.5-12.4
		c1.6-0.4,3-1.4,3.8-2.9l0,0c0.8-1.4,1-3,0.7-4.6l-13-52.8c-0.8-3.3,1.2-6.6,4.5-7.4l49.2-14c4.8-1.4,9.4-2.6,9.4-6.8
		C946.8,80,941.5,76.1,937.8,72.7z, M520.2,678.9L325,412.7c-1.8-2.4-4.5-3.7-7.3-3.7c-1.8,0-3.7,0.6-5.3,1.7l-49.6,36.4L74,585.6l-27.7,20.3l-34.4,25.2
		c-12.9,9.5-15.7,27.7-6.3,40.6l20.4,27.9c5.7,7.8,14.5,11.9,23.5,11.9c6,0,12-1.8,17.2-5.6c0,0,2.5-1.8,5.5-4c1-0.7,2.1-1,3.3-1
		c2.6,0,5.5,1.5,7.5,4.3L180.4,838c2.9,4,2.9,9.1-0.2,11.3l-5.5,4c-12.9,9.5-15.7,27.7-6.3,40.6l20.4,27.9
		c5.7,7.8,14.5,11.9,23.5,11.9c6,0,12-1.8,17.2-5.6l34.4-25.2l27.7-20.3l222.3-163c11.1-8.1,14.7-22.6,9.6-34.8
		C522.7,682.7,521.6,680.7,520.2,678.9z M351.8,771.2l-65.6,48.1c-12.9,9.5-31.1,6.7-40.6-6.3L126.3,650.4
		c-9.5-12.9-6.7-31.1,6.3-40.6l65.6-48.1c12.9-9.5,31.1-6.7,40.6,6.3l119.3,162.6C367.6,743.5,364.8,761.7,351.8,771.2z"/>
</g>
</svg>
