<?xml version="1.0" encoding="utf-8"?>
<!-- Generator: Adobe Illustrator 21.0.0, SVG Export Plug-In . SVG Version: 6.00 Build 0)  -->
<svg version="1.1" id="Capa_1" xmlns="http://www.w3.org/2000/svg" xmlns:xlink="http://www.w3.org/1999/xlink" x="0px" y="0px"
	 viewBox="0 0 90 90" style="enable-background:new 0 0 90 90;" xml:space="preserve">
<path d="M67.1,31.3c-0.5,0-0.9,0-1.4,0.1c-2-10.7-11.3-18.9-22.5-18.9c-12.7,0-22.9,10.3-22.9,23.1c0,0.3,0,0.7,0.1,1c0,0,0,0-0.1,0
	C9.1,36.6,0,45.7,0,57c0,10.9,8.5,19.8,19.1,20.4l0,0h0.5c0.2,0,0.5,0,0.7,0c0.2,0,0.5,0,0.7,0h45.1v0c0.3,0,0.7,0,1,0
	C79.7,77.5,90,67.2,90,54.4C90,41.7,79.7,31.3,67.1,31.3z"/>
</svg>
