<?xml version="1.0" encoding="utf-8"?>
<!-- Generator: Adobe Illustrator 21.0.0, SVG Export Plug-In . SVG Version: 6.00 Build 0)  -->
<svg version="1.1" id="Capa_1" xmlns="http://www.w3.org/2000/svg" xmlns:xlink="http://www.w3.org/1999/xlink" x="0px" y="0px"
	 viewBox="0 0 512 512" style="enable-background:new 0 0 512 512;" xml:space="preserve">
<g>
	<path d="M467,60h-15V45c0-24.8-20.2-45-45-45s-45,20.2-45,45v15h-60V45c0-24.8-20.2-45-45-45s-45,20.2-45,45v15h-62V45
		c0-24.8-20.2-45-45-45S60,20.2,60,45v15H45C20.2,60,0,80.2,0,105c0,2.2,0,356.2,0,362c0,24.8,20.2,45,45,45h422
		c24.8,0,45-20.2,45-45c0-2.8,0-357.1,0-362C512,80.2,491.8,60,467,60z M392,45c0-8.3,6.7-15,15-15s15,6.7,15,15v60
		c0,8.3-6.7,15-15,15s-15-6.7-15-15V45z M242,45c0-8.3,6.7-15,15-15s15,6.7,15,15v60c0,8.3-6.7,15-15,15s-15-6.7-15-15V45z M90,45
		c0-8.3,6.7-15,15-15s15,6.7,15,15v60c0,8.3-6.7,15-15,15s-15-6.7-15-15V45z M482,467c0,8.3-6.7,15-15,15H45c-8.3,0-15-6.7-15-15
		V212h452V467z M482,182H30v-77c0-8.3,6.7-15,15-15h15v15c0,24.8,20.2,45,45,45s45-20.2,45-45V90h62v15c0,24.8,20.2,45,45,45
		s45-20.2,45-45V90h60v15c0,24.8,20.2,45,45,45s45-20.2,45-45V90h15c8.3,0,15,6.7,15,15V182z, M75,452h362c8.3,0,15-6.7,15-15V257c0-8.3-6.7-15-15-15H75c-8.3,0-15,6.7-15,15v180C60,445.3,66.7,452,75,452z M362,272h60
		v60h-60V272z M362,362h60v60h-60V362z M272,272h60v60h-60V272z M272,362h60v60h-60V362z M180,272h62v60h-62V272z M180,362h62v60
		h-62V362z M90,272h60v60H90V272z M90,362h60v60H90V362z"/>
</g>
</svg>
