<?xml version="1.0" encoding="utf-8"?>
<!-- Generator: Adobe Illustrator 21.0.0, SVG Export Plug-In . SVG Version: 6.00 Build 0)  -->
<svg version="1.1" id="Layer_1" xmlns="http://www.w3.org/2000/svg" xmlns:xlink="http://www.w3.org/1999/xlink" x="0px" y="0px"
	 viewBox="0 0 512 512" style="enable-background:new 0 0 512 512;" xml:space="preserve">
<g>
	<path d="M110.9,287.8c-23.5,0-42.7,19.1-42.7,42.7c0,23.5,19.1,42.7,42.7,42.7c23.5,0,42.7-19.1,42.7-42.7
		C153.6,307,134.5,287.8,110.9,287.8z M110.9,356.1c-14.1,0-25.6-11.5-25.6-25.6s11.5-25.6,25.6-25.6c14.1,0,25.6,11.5,25.6,25.6
		S125,356.1,110.9,356.1z, M503.5,287.8v-51.2c0-3.7-2.3-6.9-5.8-8.1l-48.1-16.1c-18.1-30.7-43.1-59.9-98.1-69.6c-0.1,0-0.2,0-0.3-0.1
		c-101.7-14.1-178.1,8.9-227.1,68.2c-36.5,0.5-73.8,8.2-95.7,22.2c-11.3,7.3-18.1,19.9-18.7,33.4l-1,21.2c-4.7,0-8.5,3.8-8.5,8.5
		v34.1c0,4.7,3.8,8.5,8.5,8.5h34.1c4.7,0,8.5-3.9,8.5-8.6c0,0,0-0.1,0-0.1c0.1-32.9,26.8-59.5,59.7-59.5c33,0,59.7,26.7,59.7,59.7
		c-0.6,5.2,3.5,8.5,8.5,8.5h153.6c4.7,0,8.5-3.9,8.5-8.6c0,0,0-0.1,0-0.1c0.1-32.9,26.8-59.5,59.7-59.5c33,0,59.7,26.7,59.7,59.7
		c-0.6,5.2,3.5,8.5,8.5,8.5h34.1c4.7,0,8.5-3.8,8.5-8.5v-34.1C512,291.7,508.2,287.8,503.5,287.8z M273.1,206.8
		c0,2.4-1.9,4.3-4.3,4.3H157.5c-3.9,0-5.7-4.8-2.8-7.5c29.6-27,67.3-42.4,113.7-46.5c2.5-0.2,4.7,1.8,4.7,4.3V206.8z M375.6,206.8
		c0,2.3-1.9,4.2-4.3,4.2h-76.9c-2.4,0-4.3-1.9-4.3-4.3v-46.6c0-2.4,1.9-4.3,4.2-4.3c17,0,35,1.2,54.2,3.9c9.1,1.6,17.2,3.8,24.6,6.5
		c1.7,0.6,2.8,2.3,2.8,4.1L375.6,206.8z M420.1,211h-23.2c-2.4,0-4.3-1.9-4.3-4.3l0.2-23.1c0-3.5,4.1-5.4,6.9-3.4
		c9.2,6.7,16.9,14.8,23.7,23.9C425.6,207,423.7,211,420.1,211z, M401.1,287.8c-23.5,0-42.7,19.1-42.7,42.7c0,23.5,19.1,42.7,42.7,42.7c23.5,0,42.7-19.1,42.7-42.7
		C443.7,307,424.6,287.8,401.1,287.8z M401.1,356.1c-14.1,0-25.6-11.5-25.6-25.6s11.5-25.6,25.6-25.6s25.6,11.5,25.6,25.6
		S415.2,356.1,401.1,356.1z"/>
</g>
</svg>
