<?xml version="1.0" encoding="utf-8"?>
<!-- Generator: Adobe Illustrator 21.0.0, SVG Export Plug-In . SVG Version: 6.00 Build 0)  -->
<svg version="1.1" id="Capa_1" xmlns="http://www.w3.org/2000/svg" xmlns:xlink="http://www.w3.org/1999/xlink" x="0px" y="0px"
	 viewBox="0 0 50.8 50.8" style="enable-background:new 0 0 50.8 50.8;" xml:space="preserve">
<g>
	<path d="M42.5,7.2H28.3v0H4.4v9.2c0,9.9,8,17.9,17.9,17.9c7.3,0,13.5-4.4,16.4-10.6h3.9c4.6,0,8.3-3.7,8.3-8.3
		C50.8,11,47.1,7.2,42.5,7.2z M42.5,19.4H40c0.2-1,0.3-2,0.3-3v-4.9h2.3c2.2,0,3.9,1.8,3.9,3.9S44.7,19.4,42.5,19.4z, M3.5,42.1c0.5,0.8,1.7,1.5,2.7,1.5h32.4c1,0,2.2-0.7,2.7-1.5l3.5-5.7H0L3.5,42.1z"/>
</g>
</svg>
