<?xml version="1.0" encoding="utf-8"?>
<!-- Generator: Adobe Illustrator 21.0.0, SVG Export Plug-In . SVG Version: 6.00 Build 0)  -->
<svg version="1.1" id="Capa_1" xmlns="http://www.w3.org/2000/svg" xmlns:xlink="http://www.w3.org/1999/xlink" x="0px" y="0px"
	 viewBox="0 0 60 60" style="enable-background:new 0 0 60 60;" xml:space="preserve">
<g>
	<path d="M54,29.6v-0.3c3.2-2.2,5-5,5-7.9V13C59,5.6,47.4,0,32,0S5,5.6,5,13v2.3c-3.3,2.2-5,4.8-5,7.7v8.4c0,3.3,2.2,6.3,6,8.6v6.4
		C6,54,17.9,60,33,60s27-6,27-13.6V38C60,34.8,57.9,31.9,54,29.6z M4,35.9c-1.3-1.4-2-2.9-2-4.4v-3.2c0,0,0,0,0.1,0.1
		c0.2,0.3,0.5,0.5,0.7,0.8c0.1,0.1,0.1,0.1,0.2,0.2c0.2,0.2,0.5,0.5,0.7,0.7c0.1,0.1,0.1,0.1,0.2,0.2c0.1,0.1,0.1,0.1,0.2,0.1V35.9z
		 M57,21.4c0,1.6-0.7,3.1-2,4.4v-5.6c0.1,0,0.1-0.1,0.2-0.1c0.1-0.1,0.1-0.1,0.2-0.2c0.2-0.2,0.5-0.4,0.7-0.7
		c0.1-0.1,0.1-0.1,0.2-0.2c0.3-0.3,0.5-0.5,0.7-0.8c0,0,0,0,0.1-0.1V21.4z M32,2c14,0,25,4.8,25,11c0,6.4-11.7,12-25,12S7,19.4,7,13
		C7,6.8,18,2,32,2z M51,28.9v-5.9c0.2-0.1,0.3-0.2,0.5-0.3c0.1-0.1,0.2-0.1,0.3-0.2c0.4-0.2,0.8-0.4,1.1-0.7c0,0,0.1,0,0.1-0.1v5.8
		C52.4,28,51.7,28.5,51,28.9z M52,30.6v0.8c0,0.8-0.2,1.5-0.5,2.2l-0.1,0.2c-0.3,0.6-0.7,1.2-1.2,1.8c-0.1,0.1-0.1,0.1-0.2,0.2
		c0,0,0,0,0,0v-4.3C50.7,31.3,51.4,31,52,30.6z M47,30.6v-6c0.1,0,0.1,0,0.2-0.1c0.1,0,0.1-0.1,0.2-0.1c0.4-0.1,0.8-0.3,1.2-0.5
		c0.1,0,0.2-0.1,0.3-0.1c0,0,0,0,0.1,0v6C48.4,30.1,47.7,30.4,47,30.6z M48,32.4v5.2c-0.6,0.4-1.3,0.8-2,1.2v-5.8
		C46.7,32.9,47.4,32.7,48,32.4z M43.9,31.5c-0.6,0.1-1.1,0.3-1.7,0.4c-0.1,0-0.2,0-0.3,0.1v-6c0.1,0,0.1,0,0.2,0
		c0.5-0.1,1.1-0.2,1.6-0.4c0.1,0,0.1,0,0.2-0.1c0.4-0.1,0.7-0.2,1-0.3v6c-0.1,0-0.3,0.1-0.4,0.1c0,0,0,0,0,0
		C44.4,31.4,44.2,31.5,43.9,31.5z M44,33.8v6c-0.6,0.3-1.3,0.5-2,0.8v-6h0c0.1,0,0.1,0,0.2-0.1c0.4-0.1,0.7-0.3,1.1-0.4
		C43.5,34,43.8,33.9,44,33.8z M38.9,32.5c-0.2,0-0.4,0.1-0.6,0.1c-0.7,0.1-1.5,0.2-2.3,0.2v-6c0,0,0.1,0,0.1,0c0,0,0.1,0,0.1,0
		c0.6,0,1.1-0.1,1.7-0.2c0.1,0,0.3,0,0.4-0.1c0.6-0.1,1.1-0.1,1.6-0.2v6C39.6,32.4,39.3,32.5,38.9,32.5z M40,35.2v6
		c-1,0.3-2,0.5-3,0.7v-6c0.3-0.1,0.5-0.1,0.8-0.2c0.4-0.1,0.8-0.2,1.3-0.3C39.4,35.4,39.7,35.3,40,35.2z M31,36.8c0.3,0,0.7,0,1-0.1
		c0.3,0,0.7-0.1,1-0.1c0.5-0.1,1-0.1,1.4-0.2c0.2,0,0.4-0.1,0.6-0.1v6c-0.1,0-0.2,0-0.3,0c-0.3,0-0.6,0.1-0.9,0.1
		c-0.2,0-0.5,0.1-0.7,0.1c-0.5,0.1-1,0.1-1.6,0.2c-0.2,0-0.4,0-0.5,0c0,0,0,0,0,0V36.8z M30,33v-6c0,0,0.1,0,0.1,0
		c0.6,0,1.2,0,1.9,0s1.2,0,1.9,0c0,0,0.1,0,0.1,0v6c-0.7,0-1.3,0.1-2,0.1C31.3,33,30.7,33,30,33z M25,37c0,0,0.1,0,0.1,0
		c0.6,0,1.2,0,1.9,0c0.7,0,1.3,0,2,0v6c0,0,0,0-0.1,0c-0.6,0-1.3,0-1.9,0c-0.7,0-1.3,0-2-0.1V37z M24,32.4v-6
		c0.5,0.1,1.1,0.2,1.6,0.2c0.1,0,0.3,0,0.4,0.1c0.6,0.1,1.1,0.1,1.7,0.2c0,0,0.1,0,0.1,0c0,0,0.1,0,0.1,0v6
		C26.6,32.7,25.3,32.6,24,32.4z M20.6,36.6c0.1,0,0.3,0,0.4,0.1c0.6,0.1,1.1,0.1,1.7,0.2c0,0,0.1,0,0.1,0c0,0,0.1,0,0.1,0v6
		c-0.7-0.1-1.4-0.1-2-0.2c-0.3,0-0.6-0.1-1-0.1c-0.3,0-0.7-0.1-1-0.2v-6C19.5,36.5,20.1,36.5,20.6,36.6z M19,31.3v-6
		c0.3,0.1,0.7,0.2,1,0.3c0.1,0,0.1,0,0.2,0.1c0.5,0.1,1.1,0.3,1.6,0.4c0.1,0,0.1,0,0.2,0v6C21,31.8,20,31.5,19,31.3z M15,29.8v-6
		c0,0,0,0,0.1,0c0.1,0,0.2,0.1,0.3,0.1c0.4,0.2,0.8,0.3,1.2,0.5c0.1,0,0.1,0.1,0.2,0.1c0.1,0,0.1,0,0.2,0.1v6
		C16.3,30.4,15.6,30.1,15,29.8z M17,36v6c-0.1,0-0.1,0-0.2,0c-0.5-0.1-1.1-0.2-1.6-0.4c-0.4-0.1-0.8-0.2-1.2-0.3v-6
		c0.3,0.1,0.7,0.2,1,0.3c0.1,0,0.1,0,0.2,0.1c0.5,0.1,1.1,0.3,1.6,0.4C16.9,36,16.9,36,17,36z M11,27.6v-5.8c0,0,0.1,0,0.1,0.1
		c0.4,0.2,0.7,0.4,1.1,0.7c0.1,0.1,0.2,0.1,0.3,0.2c0.2,0.1,0.3,0.2,0.5,0.3v5.9C12.3,28.5,11.6,28,11,27.6z M12,34.6v6
		c-0.7-0.2-1.4-0.5-2-0.8v-6c0,0,0,0,0.1,0c0.1,0,0.2,0.1,0.3,0.1c0.4,0.2,0.8,0.3,1.2,0.5c0.1,0,0.1,0.1,0.2,0.1
		C11.9,34.6,11.9,34.6,12,34.6z M7,18.3C7,18.3,7,18.3,7,18.3c0.3,0.3,0.5,0.6,0.8,0.9c0.1,0.1,0.1,0.1,0.2,0.2
		c0.2,0.2,0.5,0.5,0.7,0.7c0.1,0.1,0.1,0.1,0.2,0.2c0.1,0,0.1,0.1,0.2,0.1v5.6c-1.3-1.4-2-2.9-2-4.4V18.3z M8,38H6.6
		c-0.2-0.1-0.4-0.3-0.6-0.4v-5.8c0,0,0.1,0,0.1,0.1c0.4,0.2,0.7,0.4,1.1,0.7c0.1,0.1,0.2,0.1,0.3,0.2c0.2,0.1,0.3,0.2,0.5,0.3V38z
		 M10,50.9c-1.3-1.4-2-2.9-2-4.4v-3.2c0.6,0.7,1.2,1.4,2,2V50.9z M14,53.9c-0.7-0.4-1.4-0.8-2-1.2v-5.8c0.6,0.4,1.3,0.8,2,1.1V53.9z
		 M18,55.6c-0.7-0.2-1.4-0.5-2-0.8v-6c0.6,0.3,1.3,0.5,2,0.8V55.6z M23,57c-1-0.2-2-0.5-3-0.7v-6c1,0.3,2,0.5,3,0.7V57z M29,57.8
		c-1.4-0.1-2.7-0.3-4-0.5v-6c0.2,0,0.3,0,0.5,0.1c0.2,0,0.5,0.1,0.7,0.1c0.4,0.1,0.8,0.1,1.1,0.1c0.4,0,0.8,0.1,1.1,0.1
		c0.2,0,0.3,0,0.5,0V57.8z M35,58c-0.7,0-1.3,0-2,0s-1.3,0-2,0v-6c0,0,0.1,0,0.1,0c0.6,0,1.2,0,1.9,0c0.6,0,1.2,0,1.9,0
		c0,0,0.1,0,0.1,0V58z M41,57.4c-1.3,0.2-2.6,0.4-4,0.5v-6c0,0,0.1,0,0.1,0c0,0,0.1,0,0.1,0c0.6,0,1.1-0.1,1.7-0.2
		c0.1,0,0.3,0,0.4-0.1c0.6-0.1,1.1-0.1,1.6-0.2V57.4z M46,56.3c-1,0.3-2,0.5-3,0.7v-6h0c0.1,0,0.1,0,0.2,0c0.5-0.1,1.1-0.2,1.6-0.4
		c0.1,0,0.1,0,0.2-0.1c0.4-0.1,0.7-0.2,1-0.3V56.3z M50,54.8c-0.6,0.3-1.3,0.5-2,0.8v-6h0c0.1,0,0.1,0,0.2-0.1
		c0.1,0,0.1-0.1,0.2-0.1c0.4-0.1,0.8-0.3,1.2-0.5c0.1,0,0.2-0.1,0.3-0.1c0,0,0,0,0.1,0V54.8z M54,52.6c-0.6,0.4-1.3,0.8-2,1.2v-5.9
		h0c0.2-0.1,0.3-0.2,0.5-0.3c0.1-0.1,0.2-0.1,0.3-0.2c0.4-0.2,0.8-0.4,1.1-0.7c0,0,0.1,0,0.1-0.1V52.6z M58,46.4
		c0,1.6-0.7,3.1-2,4.4v-5.6c0.1,0,0.1-0.1,0.2-0.1c0.1-0.1,0.1-0.1,0.2-0.2c0.2-0.2,0.5-0.4,0.7-0.7c0.1-0.1,0.1-0.1,0.2-0.2
		c0.3-0.3,0.5-0.5,0.7-0.8c0,0,0,0,0.1-0.1V46.4z M33,50c-0.6,0-1.1,0-1.7,0c-0.2,0-0.3,0-0.5,0c-0.5,0-1-0.1-1.5-0.1
		c-0.3,0-0.6-0.1-0.9-0.1c-0.1,0-0.3,0-0.4,0c-8.2-0.9-15.2-3.9-18.3-7.6c0,0-0.1-0.1-0.1-0.2c0-0.1-0.1-0.1-0.1-0.2
		c1.4,0.6,2.9,1.1,4.6,1.6c4.4,2.9,11.3,4.6,19,4.6c13.6,0,23-5.3,23-10c0-1.4-0.8-2.8-2.4-4c0-0.1,0-0.1,0.1-0.2
		c0-0.1,0.1-0.2,0.1-0.3c0-0.1,0.1-0.2,0.1-0.4c0-0.1,0-0.2,0.1-0.3c0-0.1,0-0.2,0.1-0.4c0-0.1,0-0.2,0-0.3c0,0,0-0.1,0-0.1
		c2.1,1.4,4,3.4,4,6C58,44.4,46.3,50,33,50z, M19.6,21.3l7.5-2.7l0-0.1c-2-0.9-2.9-2.2-3.2-3.4c-0.5-0.2-0.8-0.5-1.1-0.9c-0.3-0.4-0.3-0.9-0.2-1.4l0.2-0.6
		c0.2-0.6,0.8-1.2,1.6-1.5c0.3-0.5,0.6-1,1-1.4c0.2-0.2,0.3-0.3,0.4-0.4c0,0,0,0,0,0c0,0,0,0,0,0c0-0.3-0.1-0.5-0.1-0.7
		C25.9,7.5,26.4,7,27,7c0.3,0,0.5,0.1,0.7,0.2c0,0,0.2,0.1,0.6,0.3c0.7,0.3,1.8,0.4,2.9,0.3c0.2,0,0.3,0,0.5,0
		c2.5,0,5.8,0.3,7.3,2.8c0.8,0.3,1.4,0.9,1.6,1.5l0.2,0.6c0.1,0.5,0.1,1-0.2,1.4c-0.2,0.4-0.6,0.7-1.1,0.9c-0.3,1.2-1.2,2.5-3.2,3.4
		l0,0.1l7.5,2.8c6.8-1.9,11-5.3,11-8.4c0-4.4-8.6-9-23-9S9,8.6,9,13C9,16.1,13,19.4,19.6,21.3z"/>
</g>
</svg>
