<?xml version="1.0" encoding="utf-8"?>
<!-- Generator: Adobe Illustrator 21.0.0, SVG Export Plug-In . SVG Version: 6.00 Build 0)  -->
<svg version="1.1" id="Layer_1" xmlns="http://www.w3.org/2000/svg" xmlns:xlink="http://www.w3.org/1999/xlink" x="0px" y="0px"
	 viewBox="0 0 212.8 212.8" style="enable-background:new 0 0 212.8 212.8;" xml:space="preserve">
<g>
	<path d="M106.4,0C47.7,0,0,47.7,0,106.4C0,165,47.7,212.8,106.4,212.8S212.8,165,212.8,106.4C212.8,47.7,165,0,106.4,0z
		 M106.4,198.8c-50.9,0-92.4-41.4-92.4-92.4C14,55.4,55.4,14,106.4,14s92.4,41.4,92.4,92.4C198.8,157.3,157.3,198.8,106.4,198.8z,M113.4,100.1V60.4c4,1.5,7.4,4.2,9.8,7.8c2.1,3.2,6.5,4.1,9.7,2c3.2-2.1,4.1-6.5,2-9.7c-5-7.6-12.8-12.8-21.5-14.6V34.7
		c0-3.9-3.1-7-7-7c-3.9,0-7,3.1-7,7v11.1c-15.5,3.2-27.2,17-27.2,33.4c0,16.4,11.7,30.2,27.2,33.4v39.7c-4-1.5-7.4-4.2-9.8-7.8
		c-2.1-3.2-6.5-4.1-9.7-2c-3.2,2.1-4.1,6.5-2,9.7c5,7.6,12.8,12.8,21.5,14.6V178c0,3.9,3.1,7,7,7c3.9,0,7-3.1,7-7V167
		c15.5-3.2,27.2-17,27.2-33.4C140.5,117.1,128.9,103.3,113.4,100.1z M99.4,98.1c-7.7-2.8-13.2-10.2-13.2-18.9
		c0-8.7,5.5-16,13.2-18.9V98.1z M113.4,152.4v-37.7c7.7,2.8,13.2,10.2,13.2,18.9S121.1,149.5,113.4,152.4z"/>
</g>
</svg>
