<?xml version="1.0" encoding="utf-8"?>
<!-- Generator: Adobe Illustrator 21.0.0, SVG Export Plug-In . SVG Version: 6.00 Build 0)  -->
<svg version="1.1" id="Capa_1" xmlns="http://www.w3.org/2000/svg" xmlns:xlink="http://www.w3.org/1999/xlink" x="0px" y="0px"
	 viewBox="0 0 430.1 430.1" style="enable-background:new 0 0 430.1 430.1;" xml:space="preserve">
<g>
	<path d="M368.2,63C326.9,21.8,273.8,0,214.8,0c-59,0-110.9,21.8-151.1,62.5C22.4,104.3,0,158.5,0,215.1
		c0,57.2,21.8,110.2,63.1,151.4c41.3,41.2,95,63.6,151.6,63.6c56.6,0,111.5-22.4,154-64.2c40.1-39.5,61.4-91.9,61.4-150.8
		C430.1,156.7,408.9,103.7,368.2,63z M341,338.2c-34.8,34.2-79.7,52.4-125.7,52.4c-46.6,0-90.3-18.3-123.9-51.8
		C57.8,305.2,38.9,261,38.9,215.1c0-46.5,18.9-90.7,52.5-124.9c33-33.6,75.5-51.3,123.9-51.3c48.4,0,91.4,18.3,125.1,51.8
		c33,33,50.7,76.6,50.7,124.3C391.2,263.4,374.1,305.8,341,338.2z"/>
	<path d="M160.1,253.2c-19.8,0-28.9-16.4-28.9-38.1c0-21.7,7.6-38.1,28.9-38.1c5.7,0,17.2,3.1,23.9,17.4l28.6-15
		c-12.2-22.2-32.9-31-57-31c-35.1,0-63,24.8-63,66.7c0,42.6,26.2,66.7,64.2,66.7c24.3,0,45.1-13.3,56.5-33.6l-26.7-13.6
		C180.6,248.9,171.5,253.2,160.1,253.2z"/>
	<path d="M284.3,253.2c-19.8,0-28.9-16.4-28.9-38.1c0-21.7,7.6-38.1,28.9-38.1c5.7,0,17.2,3.1,23.9,17.4l28.6-15
		c-12.2-22.2-32.9-31-57-31c-35.1,0-63,24.8-63,66.7c0,42.6,26.2,66.7,64.2,66.7c24.3,0,45.1-13.3,56.5-33.6l-26.7-13.6
		C304.9,248.9,295.8,253.2,284.3,253.2z"/>
</g>
</svg>
