<?xml version="1.0" encoding="utf-8"?>
<!-- Generator: Adobe Illustrator 21.0.0, SVG Export Plug-In . SVG Version: 6.00 Build 0)  -->
<svg version="1.1" id="Capa_1" xmlns="http://www.w3.org/2000/svg" xmlns:xlink="http://www.w3.org/1999/xlink" x="0px" y="0px"
	 viewBox="0 0 490.4 490.4" style="enable-background:new 0 0 490.4 490.4;" xml:space="preserve">
<path d="M490.3,94.5c-1.1-14-7.6-27-18.3-36.2l-13.1-11.3c-21.8-18.7-54.6-16.6-73.8,4.7L165.4,295.4l-66.3-57.1
	c-21.8-18.8-54.5-16.7-73.8,4.6l-11.6,12.8c-9.4,10.4-14.3,24.1-13.6,38.2c0.7,14,7,27.2,17.4,36.6L139,441.8
	c10.5,9.9,24.6,15,39,14.3c14.4-0.8,27.9-7.4,37.3-18.3L477.6,133C486.8,122.4,491.3,108.5,490.3,94.5z"/>
</svg>
