<?xml version="1.0" encoding="iso-8859-1"?>
<!-- Generator: Adobe Illustrator 19.0.0, SVG Export Plug-In . SVG Version: 6.00 Build 0)  -->
<svg version="1.1" id="Capa_1" xmlns="http://www.w3.org/2000/svg" xmlns:xlink="http://www.w3.org/1999/xlink" x="0px" y="0px"
	 viewBox="0 0 512 512" style="enable-background:new 0 0 512 512;" xml:space="preserve">
<g>
	<g>
		<path d="M492,151V33.808L378.181,0H133.819L20,33.808V151h91v65c0,52.111-14.051,87.239-28.927,124.429
			C66.796,378.62,51,418.111,51,476v9.066l8.027,4.214C63.457,491.606,106.615,512,256,512s192.543-20.394,196.973-22.719
			l8.027-4.214V476c0-57.889-15.796-97.38-31.073-135.571C415.051,303.239,401,268.111,401,216v-65H492z M218.787,30L256,67.213
			L293.213,30h41.362C327.551,67.009,295.054,95,256,95c-39.054,0-71.551-27.991-78.575-65H218.787z M256,374
			c-59.986,0-109.661-44.989-117.051-103h234.103C365.661,329.011,315.986,374,256,374z"/>
	</g>
</g>
<g>
</g>
<g>
</g>
<g>
</g>
<g>
</g>
<g>
</g>
<g>
</g>
<g>
</g>
<g>
</g>
<g>
</g>
<g>
</g>
<g>
</g>
<g>
</g>
<g>
</g>
<g>
</g>
<g>
</g>
</svg>
