<?xml version="1.0" encoding="utf-8"?>
<!-- Generator: Adobe Illustrator 21.0.0, SVG Export Plug-In . SVG Version: 6.00 Build 0)  -->
<svg version="1.1" id="Capa_1" xmlns="http://www.w3.org/2000/svg" xmlns:xlink="http://www.w3.org/1999/xlink" x="0px" y="0px"
	 viewBox="0 0 230.8 230.8" style="enable-background:new 0 0 230.8 230.8;" xml:space="preserve">
<g>
	<path d="M58.6,78.5c0.8,0.7,1.9,1,3,0.8c1.1-0.2,2-1,2.5-1.9c0.2-0.4,2.2-3.8,8.8-3.2c8.5,0.8,14,4.6,14.1,4.6
		c0.6,0.4,1.3,0.6,2,0.6c0.9,0,1.7-0.3,2.4-0.9l21-19.3c1.2-1.1,1.5-2.8,0.8-4.2l-8.8-17.6c9.2-15.5,27.6-16.8,33.2-16.8
		c0.7,0,1.2,0,1.5,0l4.4,0c1.4,0,2.7-0.9,3.2-2.3c0.5-1.3,0.2-2.9-0.9-3.8c-9.2-8.4-20.7-12.7-34.1-12.7c-26.7,0-54.4,17.7-60,29.6
		C45,45.5,36.6,54,36.5,54.1c-0.7,0.7-1.1,1.6-1,2.6c0,1,0.5,1.9,1.2,2.5L58.6,78.5z M57.9,34.4c4.2-9,29.2-25.6,53.6-25.6
		c7.9,0,14.9,1.7,21.1,5c-9.5,0.9-26.6,4.9-35.4,21.8c-0.5,1-0.5,2.2,0,3.2l8.5,16.9L88.5,71.5c-2.9-1.5-8.1-3.8-15-4.4
		C72.7,67,72,67,71.3,67c-5.1,0-8.6,1.8-10.9,3.8L44,56.3C47.2,52.5,53,44.9,57.9,34.4z, M41.1,101.3c0.6,0.5,1.4,0.8,2.3,0.8c0.1,0,0.2,0,0.3,0c0.9-0.1,1.8-0.5,2.4-1.3l12.3-14.9c1.2-1.5,1-3.6-0.4-4.9
		L35.2,60.9c-0.7-0.6-1.6-0.9-2.5-0.9c-0.9,0.1-1.8,0.5-2.4,1.2L17.1,76.1c-0.6,0.7-0.9,1.6-0.9,2.6c0.1,0.9,0.5,1.8,1.2,2.4
		L41.1,101.3z M33.2,68.5l17.6,15.6l-7.9,9.5L24.7,78.1L33.2,68.5z, M230,165.2c-0.2-0.4-0.5-0.8-0.8-1.1l-59.9-57.5l-48-46.8c-1.3-1.3-3.4-1.3-4.7-0.1l-24.1,21c-0.7,0.6-1.1,1.5-1.2,2.5
		c0,0.9,0.3,1.9,0.9,2.6l103.6,110.8c0.2,0.3,0.5,0.5,0.8,0.6c1.5,0.8,3.2,1.3,5.1,1.3c5.6,0,13-3.8,19.1-9.9
		C228.9,180.5,232.6,171.1,230,165.2z M215.9,183.6c-6.3,6.3-12.9,8.5-15.4,7.7L99.9,83.6l18.9-16.5l45.7,44.6l59.3,56.9
		C224.3,171.2,222,177.5,215.9,183.6z, M212,202.3H26.7v-45l8.6-6c1.3-0.9,1.8-2.5,1.3-3.9c-0.5-1.5-1.8-2.5-3.3-2.5H13.1c-1.5,0-2.9,1-3.3,2.5
		c-0.5,1.5,0.1,3.1,1.3,3.9l8.6,6v45H3.5c-1.9,0-3.5,1.6-3.5,3.5v19.7c0,1.9,1.6,3.5,3.5,3.5H212c1.9,0,3.5-1.6,3.5-3.5v-19.7
		C215.5,203.8,213.9,202.3,212,202.3z M208.5,222H7v-12.7h201.5V222z"/>
</g>
</svg>
