<?xml version="1.0" encoding="utf-8"?>
<!-- Generator: Adobe Illustrator 21.0.0, SVG Export Plug-In . SVG Version: 6.00 Build 0)  -->
<svg version="1.1" id="Capa_1" xmlns="http://www.w3.org/2000/svg" xmlns:xlink="http://www.w3.org/1999/xlink" x="0px" y="0px"
	 viewBox="0 0 512 512" style="enable-background:new 0 0 512 512;" xml:space="preserve">
<g>
	<path d="M467,0c-24.8,0-45,20.2-45,45v17.6c-4.7-1.7-9.7-2.6-15-2.6c-24.8,0-45,20.2-45,45v78.6c-6.1,2.2-11.9,5.7-16.8,10.5
		L263,275.4c-2.5,2.5-4.9,5.2-7,8c-2.1-2.8-4.5-5.5-7-8.1l-82.1-81.2c-4.9-4.9-10.7-8.4-16.8-10.6V105c0-24.8-20.2-45-45-45
		c-5.3,0-10.3,0.9-15,2.6V45C90,20.2,69.8,0,45,0S0,20.2,0,45v194.4C0,253,3.7,266.3,10.7,278l72.9,121.5c4.2,7,6.4,15,6.4,23.2V497
		c0,8.3,6.7,15,15,15h151h151c8.3,0,15-6.7,15-15v-74.4c0-8.2,2.2-16.2,6.4-23.2L501.3,278c7-11.7,10.7-25,10.7-38.6V45
		C512,20.2,491.8,0,467,0z M90,105c0-8.3,6.7-15,15-15s15,6.7,15,15v78.6c-6.1,2.2-11.9,5.7-16.8,10.6c-3.7,3.7-6.6,7.9-8.8,12.4
		C91.6,203.8,90,200,90,196C90,187.3,90,114.2,90,105z M241,482H120v-59.4c0-13.6-3.7-26.9-10.7-38.6L36.4,262.5
		c-4.2-7-6.4-15-6.4-23.2V45c0-8.3,6.7-15,15-15s15,6.7,15,15c0,6.3,0,143.5,0,151v0c0,0,0,0,0,0c0,12,4.7,23.3,13.2,31.7l81.2,81.2
		c5.9,5.9,15.4,5.9,21.2,0c5.9-5.9,5.9-15.4,0-21.2l-51.2-51.2c-5.8-5.8-5.8-15.4,0-21.2c5.8-5.8,15.2-6,21.3,0.1l82.2,81.2
		c8.5,8.5,13.2,19.8,13.2,31.8V482z M392,105c0-8.3,6.7-15,15-15s15,6.7,15,15v61v30c0,4-1.6,7.8-4.4,10.6l0,0
		c-2.1-4.5-5.1-8.7-8.8-12.4c-4.9-4.9-10.7-8.4-16.8-10.6V105z M482,239.4L482,239.4c0,8.2-2.2,16.2-6.4,23.2L402.7,384
		c-7,11.7-10.7,25-10.7,38.6V482H271V328.4c0-12,4.7-23.3,13.1-31.8l82.3-81.3c5.8-5.8,15.4-5.8,21.2,0c5.9,5.9,5.9,15.3,0,21.2
		l-51.2,51.2c-5.9,5.9-5.9,15.4,0,21.2c5.9,5.9,15.4,5.9,21.2,0l81.2-81.2c8.5-8.5,13.2-19.7,13.2-31.7c0,0,0,0,0,0v0
		c0-8.7,0-81.8,0-91V45c0-8.3,6.7-15,15-15s15,6.7,15,15V239.4z, M246.2,185.3c2.8,2.4,6.3,3.7,9.8,3.7s7-1.2,9.8-3.7c44.6-38.7,79.6-61.6,79.6-99.9c0-31.1-22.9-55.4-52.2-55.4
		c-14.5,0-27.2,5.9-37.2,17.1C246,35.9,233.3,30,218.8,30c-29.3,0-52.2,24.3-52.2,55.4C166.6,123.4,201,146.2,246.2,185.3z
		 M218.8,60c16.1,0,22.3,19.9,22.8,21.3c1.7,6.6,7.6,11.2,14.4,11.2c6.8,0,12.7-4.6,14.4-11.2c0.4-1.4,6.7-21.3,22.8-21.3
		c14.6,0,22.2,12.8,22.2,25.4c0,20.4-22.6,37.5-59.4,68.8c-38.5-32.8-59.4-48.7-59.4-68.8C196.6,72.8,204.2,60,218.8,60z"/>
</g>
</svg>
