<?xml version="1.0" encoding="utf-8"?>
<!-- Generator: Adobe Illustrator 21.0.0, SVG Export Plug-In . SVG Version: 6.00 Build 0)  -->
<svg version="1.1" id="Layer_1" xmlns="http://www.w3.org/2000/svg" xmlns:xlink="http://www.w3.org/1999/xlink" x="0px" y="0px"
	 viewBox="0 0 180 180" style="enable-background:new 0 0 180 180;" xml:space="preserve">
<path d="M90,2.2C41.5,2.2,2.2,41.5,2.2,90c0,48.5,39.3,87.8,87.8,87.8s87.8-39.3,87.8-87.8C177.8,41.5,138.5,2.2,90,2.2z
	 M133.1,133.2c0,1.3-0.5,2.4-1.4,3.4s-2.1,1.4-3.4,1.4H99.6v-28.7H80.4V138H51.7c-1.3,0-2.4-0.5-3.4-1.4c-0.9-0.9-1.4-2.1-1.4-3.4
	V97.3c0-0.1,0-0.1,0-0.2c0-0.1,0-0.2,0-0.2l43-35.5l43,35.5c0.1,0.1,0.1,0.2,0.1,0.4V133.2z M149.8,92.1l-4.6,5.5
	c-0.4,0.4-0.9,0.7-1.6,0.8h-0.2c-0.7,0-1.2-0.2-1.6-0.5L90,54.8L38.2,97.9c-0.6,0.4-1.2,0.6-1.8,0.5c-0.7-0.1-1.2-0.4-1.6-0.8
	l-4.6-5.5c-0.4-0.5-0.6-1.1-0.5-1.8c0.1-0.7,0.3-1.2,0.8-1.6l53.8-44.8c1.6-1.3,3.5-1.9,5.7-1.9s4.1,0.7,5.7,1.9l18.3,15.3V44.6
	c0-0.7,0.2-1.3,0.7-1.7c0.4-0.4,1-0.7,1.7-0.7h14.4c0.7,0,1.3,0.2,1.7,0.7c0.4,0.4,0.7,1,0.7,1.7v30.5l16.4,13.6
	c0.5,0.4,0.8,0.9,0.8,1.6C150.4,91,150.2,91.6,149.8,92.1z"/>
</svg>
