<?xml version="1.0" encoding="utf-8"?>
<!-- Generator: Adobe Illustrator 21.0.0, SVG Export Plug-In . SVG Version: 6.00 Build 0)  -->
<svg version="1.1" id="Capa_1" xmlns="http://www.w3.org/2000/svg" xmlns:xlink="http://www.w3.org/1999/xlink" x="0px" y="0px"
	 viewBox="0 0 40 40" style="enable-background:new 0 0 40 40;" xml:space="preserve">
<g>
	<g>
		<path d="M6.1,37.1h5.1c0.1,0.4,0.4,0.8,0.9,0.8h11.6c0.5,0,0.8-0.3,0.9-0.8h5.1c0.9,0,1.6-0.7,1.6-1.6H4.5
			C4.5,36.4,5.2,37.1,6.1,37.1z, M37.3,21.1C36,20,34.2,20,33,20.1c0-0.8,0.1-1.7,0.1-2.6H1.3c0,8.6,1.3,14.8,9.5,17.1h12.7c3.3-0.9,5.4-2.4,6.8-4.5
			c3.1-0.1,8.1-1.3,8.3-5.6C38.8,22.6,38,21.6,37.3,21.1z M31.7,27.7c0.6-1.5,1-3.3,1.1-5.2c0.8-0.1,2.3-0.2,3,0.4
			c0.1,0.1,0.6,0.5,0.5,1.6C36.3,26.7,33.5,27.4,31.7,27.7z, M14.2,16.3c0,0,6-0.4,3.3-5.5c-2.2-4.1-1.7-6.5,1.1-8.7c0,0-9.3,2.4-3.9,9.7C16.7,15,14.2,16.3,14.2,16.3z, M18.3,15.9c0,0,4.8-1,2.2-4.9c-1-1.7,0.4-2.3,0.4-2.3s-3.1,0.1-1.8,2.8C20.1,13.6,19.8,14.9,18.3,15.9z"/>
	</g>
</g>
</svg>
