<?xml version="1.0" encoding="utf-8"?>
<!-- Generator: Adobe Illustrator 21.0.0, SVG Export Plug-In . SVG Version: 6.00 Build 0)  -->
<svg version="1.1" id="Capa_1" xmlns="http://www.w3.org/2000/svg" xmlns:xlink="http://www.w3.org/1999/xlink" x="0px" y="0px"
	 viewBox="0 0 480 480" style="enable-background:new 0 0 480 480;" xml:space="preserve">
<g>
	<path d="M472,76h-88V12c0-4.4-3.6-8-8-8H104c-4.4,0-8,3.6-8,8v112H8c-4.4,0-8,3.6-8,8v328c0,4.4,3.6,8,8,8s8-3.6,8-8V140h80v328
		c0,4.4,3.6,8,8,8h272c4.4,0,8-3.6,8-8V92h80v368c0,4.4,3.6,8,8,8c4.4,0,8-3.6,8-8V84C480,79.6,476.4,76,472,76z M232,460h-32v-72
		h32V460z M280,460h-32v-72h32V460z M368,460h-72v-80c0-4.4-3.6-8-8-8h-96c-4.4,0-8,3.6-8,8v80h-72V20h256V460z, M136,100h48c4.4,0,8-3.6,8-8V44c0-4.4-3.6-8-8-8h-48c-4.4,0-8,3.6-8,8v48C128,96.4,131.6,100,136,100z M144,52h32v32h-32
		V52z, M216,100h48c4.4,0,8-3.6,8-8V44c0-4.4-3.6-8-8-8h-48c-4.4,0-8,3.6-8,8v48C208,96.4,211.6,100,216,100z M224,52h32v32h-32
		V52z, M296,100h48c4.4,0,8-3.6,8-8V44c0-4.4-3.6-8-8-8h-48c-4.4,0-8,3.6-8,8v48C288,96.4,291.6,100,296,100z M304,52h32v32h-32
		V52z, M136,180h48c4.4,0,8-3.6,8-8v-48c0-4.4-3.6-8-8-8h-48c-4.4,0-8,3.6-8,8v48C128,176.4,131.6,180,136,180z M144,132h32v32
		h-32V132z, M216,180h48c4.4,0,8-3.6,8-8v-48c0-4.4-3.6-8-8-8h-48c-4.4,0-8,3.6-8,8v48C208,176.4,211.6,180,216,180z M224,132h32v32
		h-32V132z, M296,180h48c4.4,0,8-3.6,8-8v-48c0-4.4-3.6-8-8-8h-48c-4.4,0-8,3.6-8,8v48C288,176.4,291.6,180,296,180z M304,132h32v32
		h-32V132z, M136,260h48c4.4,0,8-3.6,8-8v-48c0-4.4-3.6-8-8-8h-48c-4.4,0-8,3.6-8,8v48C128,256.4,131.6,260,136,260z M144,212h32v32
		h-32V212z, M216,260h48c4.4,0,8-3.6,8-8v-48c0-4.4-3.6-8-8-8h-48c-4.4,0-8,3.6-8,8v48C208,256.4,211.6,260,216,260z M224,212h32v32
		h-32V212z, M296,260h48c4.4,0,8-3.6,8-8v-48c0-4.4-3.6-8-8-8h-48c-4.4,0-8,3.6-8,8v48C288,256.4,291.6,260,296,260z M304,212h32v32
		h-32V212z, M136,340h48c4.4,0,8-3.6,8-8v-48c0-4.4-3.6-8-8-8h-48c-4.4,0-8,3.6-8,8v48C128,336.4,131.6,340,136,340z M144,292h32v32
		h-32V292z, M216,340h48c4.4,0,8-3.6,8-8v-48c0-4.4-3.6-8-8-8h-48c-4.4,0-8,3.6-8,8v48C208,336.4,211.6,340,216,340z M224,292h32v32
		h-32V292z, M296,340h48c4.4,0,8-3.6,8-8v-48c0-4.4-3.6-8-8-8h-48c-4.4,0-8,3.6-8,8v48C288,336.4,291.6,340,296,340z M304,292h32v32
		h-32V292z, M48,156h-8c-4.4,0-8,3.6-8,8v8c0,4.4,3.6,8,8,8h8c4.4,0,8-3.6,8-8v-8C56,159.6,52.4,156,48,156z, M80,156h-8c-4.4,0-8,3.6-8,8v8c0,4.4,3.6,8,8,8h8c4.4,0,8-3.6,8-8v-8C88,159.6,84.4,156,80,156z, M48,188h-8c-4.4,0-8,3.6-8,8v8c0,4.4,3.6,8,8,8h8c4.4,0,8-3.6,8-8v-8C56,191.6,52.4,188,48,188z, M80,188h-8c-4.4,0-8,3.6-8,8v8c0,4.4,3.6,8,8,8h8c4.4,0,8-3.6,8-8v-8C88,191.6,84.4,188,80,188z, M48,220h-8c-4.4,0-8,3.6-8,8v8c0,4.4,3.6,8,8,8h8c4.4,0,8-3.6,8-8v-8C56,223.6,52.4,220,48,220z, M80,220h-8c-4.4,0-8,3.6-8,8v8c0,4.4,3.6,8,8,8h8c4.4,0,8-3.6,8-8v-8C88,223.6,84.4,220,80,220z, M48,252h-8c-4.4,0-8,3.6-8,8v8c0,4.4,3.6,8,8,8h8c4.4,0,8-3.6,8-8v-8C56,255.6,52.4,252,48,252z, M80,252h-8c-4.4,0-8,3.6-8,8v8c0,4.4,3.6,8,8,8h8c4.4,0,8-3.6,8-8v-8C88,255.6,84.4,252,80,252z, M48,284h-8c-4.4,0-8,3.6-8,8v8c0,4.4,3.6,8,8,8h8c4.4,0,8-3.6,8-8v-8C56,287.6,52.4,284,48,284z, M80,284h-8c-4.4,0-8,3.6-8,8v8c0,4.4,3.6,8,8,8h8c4.4,0,8-3.6,8-8v-8C88,287.6,84.4,284,80,284z, M48,316h-8c-4.4,0-8,3.6-8,8v8c0,4.4,3.6,8,8,8h8c4.4,0,8-3.6,8-8v-8C56,319.6,52.4,316,48,316z, M80,316h-8c-4.4,0-8,3.6-8,8v8c0,4.4,3.6,8,8,8h8c4.4,0,8-3.6,8-8v-8C88,319.6,84.4,316,80,316z, M48,348h-8c-4.4,0-8,3.6-8,8v8c0,4.4,3.6,8,8,8h8c4.4,0,8-3.6,8-8v-8C56,351.6,52.4,348,48,348z, M80,348h-8c-4.4,0-8,3.6-8,8v8c0,4.4,3.6,8,8,8h8c4.4,0,8-3.6,8-8v-8C88,351.6,84.4,348,80,348z, M48,380h-8c-4.4,0-8,3.6-8,8v8c0,4.4,3.6,8,8,8h8c4.4,0,8-3.6,8-8v-8C56,383.6,52.4,380,48,380z, M80,380h-8c-4.4,0-8,3.6-8,8v8c0,4.4,3.6,8,8,8h8c4.4,0,8-3.6,8-8v-8C88,383.6,84.4,380,80,380z, M48,412h-8c-4.4,0-8,3.6-8,8v8c0,4.4,3.6,8,8,8h8c4.4,0,8-3.6,8-8v-8C56,415.6,52.4,412,48,412z, M80,412h-8c-4.4,0-8,3.6-8,8v8c0,4.4,3.6,8,8,8h8c4.4,0,8-3.6,8-8v-8C88,415.6,84.4,412,80,412z, M440,108h-32c-4.4,0-8,3.6-8,8v32c0,4.4,3.6,8,8,8h32c4.4,0,8-3.6,8-8v-32C448,111.6,444.4,108,440,108z M432,140h-16v-16
		h16V140z, M440,172h-32c-4.4,0-8,3.6-8,8v32c0,4.4,3.6,8,8,8h32c4.4,0,8-3.6,8-8v-32C448,175.6,444.4,172,440,172z M432,204h-16v-16
		h16V204z, M440,236h-32c-4.4,0-8,3.6-8,8v32c0,4.4,3.6,8,8,8h32c4.4,0,8-3.6,8-8v-32C448,239.6,444.4,236,440,236z M432,268h-16v-16
		h16V268z, M440,300h-32c-4.4,0-8,3.6-8,8v32c0,4.4,3.6,8,8,8h32c4.4,0,8-3.6,8-8v-32C448,303.6,444.4,300,440,300z M432,332h-16v-16
		h16V332z, M440,364h-32c-4.4,0-8,3.6-8,8v32c0,4.4,3.6,8,8,8h32c4.4,0,8-3.6,8-8v-32C448,367.6,444.4,364,440,364z M432,396h-16v-16
		h16V396z"/>
</g>
</svg>
