<?xml version="1.0" encoding="iso-8859-1"?>
<!-- Generator: Adobe Illustrator 19.0.0, SVG Export Plug-In . SVG Version: 6.00 Build 0)  -->
<svg version="1.1" id="Capa_1" xmlns="http://www.w3.org/2000/svg" xmlns:xlink="http://www.w3.org/1999/xlink" x="0px" y="0px"
	 viewBox="0 0 480.03 480.03" style="enable-background:new 0 0 480.03 480.03;" xml:space="preserve">
<g>
	<g>
		<g>
			<path d="M200.015,160.03c-4.418,0-8,3.582-8,8v8.72c0,4.418,3.582,8,8,8s8-3.582,8-8v-8.72
				C208.015,163.612,204.433,160.03,200.015,160.03z"/>
			<path d="M280.015,184.75c4.418,0,8-3.582,8-8v-8.72c0-4.418-3.582-8-8-8s-8,3.582-8,8v8.72
				C272.015,181.168,275.597,184.75,280.015,184.75z"/>
			<path d="M242.631,205.95c3.27,2.974,8.331,2.734,11.304-0.536c2.973-3.27,2.734-8.331-0.536-11.304l-5.384-4.896V176.03
				c0-4.418-3.582-8-8-8s-8,3.582-8,8v16.72c-0.001,2.254,0.949,4.403,2.616,5.92L242.631,205.95z"/>
			<path d="M270.487,220.086c-2.521-3.498-7.362-4.369-10.944-1.968c-11.628,7.842-26.818,7.978-38.584,0.344l-4.944,6.288
				l-4.4,6.68c8.351,5.601,18.177,8.594,28.232,8.6c10.367-0.033,20.489-3.15,29.08-8.952
				C272.319,228.43,273.008,223.574,270.487,220.086z"/>
			<path d="M360.015,304.03h-72v-36.992c22.226-12.894,38.371-34.141,44.84-59.008h11.16c13.255,0,24-10.745,24-24v-8
				c0-13.255-10.745-24-24-24h-8v-29.336c-0.046-0.382-0.123-0.759-0.232-1.128c0.13-0.503,0.208-1.017,0.232-1.536v-8
				c-0.057-52.996-43.004-95.943-96-96h-8c-7.986,0.021-15.932,1.136-23.616,3.312c-13.594-20.11-40.917-25.393-61.027-11.799
				c-20.11,13.594-25.393,40.917-11.799,61.027c3.137,4.641,7.132,8.639,11.77,11.78c-2.186,7.704-3.306,15.672-3.328,23.68v48h-8
				c-13.255,0-24,10.745-24,24v8c0,13.255,10.745,24,24,24h11.2c6.459,24.86,22.589,46.106,44.8,59.008v36.992h-72
				c-44.163,0.048-79.951,35.837-80,80v88c0,4.418,3.582,8,8,8h384c4.418,0,8-3.582,8-8v-88
				C439.967,339.868,404.178,304.079,360.015,304.03z M336.015,184.03v-16h8c4.418,0,8,3.582,8,8v8c0,4.418-3.582,8-8,8h-8V184.03z
				 M144.015,184.03v8h-8c-4.418,0-8-3.582-8-8v-8c0-4.418,3.582-8,8-8h8V184.03z M112.015,464.03h-56v-16h56V464.03z
				 M120.015,392.03v14.112l-0.848,1.688c-3.777,7.585-6.182,15.777-7.104,24.2H56.015v-48c0.04-35.33,28.67-63.96,64-64V392.03z
				 M336.015,320.03h16v64h-16V320.03z M232.015,32.03h8c44.163,0.049,79.952,35.837,80,80v2.728l-10.224,4.384
				c-23.791,10.214-50.875,9.418-74.024-2.176L195.591,96.87c-1.112-0.551-2.335-0.838-3.576-0.84c-2.122,0-4.156,0.844-5.656,2.344
				l-26.344,26.344V104.03C160.064,64.286,192.271,32.079,232.015,32.03z M144.015,44.03c0.031-15.464,12.593-27.975,28.056-27.943
				c7.912,0.016,15.447,3.378,20.744,9.255c-17.074,8.555-30.919,22.409-39.464,39.488C147.436,59.53,144.044,51.972,144.015,44.03z
				 M160.039,184.03h-0.024v-36.688l33.6-33.6l35.024,17.512c27.358,13.703,59.366,14.642,87.48,2.568l3.92-1.688v51.896
				c0,44.183-35.817,80-80,80C195.856,264.03,160.039,228.213,160.039,184.03z M240.015,326.374l-32-21.6V274.43
				c20.68,7.466,43.32,7.466,64,0v30.344L240.015,326.374z M272.015,326.158v19.744l-16.448-9.872L272.015,326.158z M224.463,336.03
				l-16.448,9.872v-19.744L224.463,336.03z M168.015,320.03h24v40c0.001,4.418,3.583,7.999,8.002,7.998
				c1.451,0,2.875-0.395,4.118-1.143l35.88-21.528l35.88,21.528c3.787,2.275,8.702,1.05,10.978-2.738
				c0.747-1.244,1.142-2.667,1.142-4.118v-40h32v64h-152V320.03z M136.015,320.03h16v64h-16V320.03z M272.015,464.03h-64v-32h64
				V464.03z M354.871,464.03h-66.856v-40c0-4.418-3.582-8-8-8h-80c-4.418,0-8,3.582-8,8v40h-58.976
				c-2.602-5.452-4.298-11.291-5.024-17.288v-6.712c-0.049-0.543-0.157-1.08-0.32-1.6c0.193-8.142,2.168-16.143,5.784-23.44
				l1.688-3.376c0.558-1.112,0.848-2.34,0.848-3.584v-8h216.208l-0.208,7.792c-0.022,1.257,0.252,2.501,0.8,3.632l1.6,3.376
				C361.664,430.395,361.83,448.334,354.871,464.03z M424.015,464.03h-48v-16h48V464.03z M424.015,432.03h-48.472
				c-0.865-8.335-3.129-16.465-6.696-24.048l-0.8-1.648l0.368-14.096c-0.013-0.817-0.153-1.627-0.416-2.4v-69.256
				c31.973,4.049,55.961,31.219,56.016,63.448V432.03z"/>
		</g>
	</g>
</g>
<g>
</g>
<g>
</g>
<g>
</g>
<g>
</g>
<g>
</g>
<g>
</g>
<g>
</g>
<g>
</g>
<g>
</g>
<g>
</g>
<g>
</g>
<g>
</g>
<g>
</g>
<g>
</g>
<g>
</g>
</svg>
