<?xml version="1.0" encoding="utf-8"?>
<!-- Generator: Adobe Illustrator 21.0.0, SVG Export Plug-In . SVG Version: 6.00 Build 0)  -->
<svg version="1.1" id="Capa_1" xmlns="http://www.w3.org/2000/svg" xmlns:xlink="http://www.w3.org/1999/xlink" x="0px" y="0px"
	 viewBox="0 0 512 512" style="enable-background:new 0 0 512 512;" xml:space="preserve">
<g>
	<path d="M511.9,221.5c-0.9-12-6.5-22.9-15.6-30.7l-44.3-38V44.9c0-8.3-6.7-15-15-15h-60c-8.3,0-14.8,6.7-14.8,15v30.7L286.3,11
		c-17-14.5-41.6-14.5-58.5,0l-212,179.8c-18.8,16.1-21.2,44.4-4.9,63.5c12.4,14.5,32.4,19.1,49.3,13.1v229.6c0,8.3,6.5,15,14.8,15
		h362c8.3,0,15-6.7,15-15V267.4c17.5,6.2,37,1,49.2-13.1C509,245.1,512.8,233.5,511.9,221.5z M392,59.9h30.2v67.2L392,101.4V59.9z
		 M317.2,481.9H195V361.7h122.2V481.9z M422.2,481.9L422.2,481.9H347v-135c0-8.3-6.7-15-15-15H180c-8.3,0-14.8,6.7-14.8,15v135H90
		V245.8L257,104.2l165.2,141.5V481.9z M478.4,234.7c-5.3,6.2-14.8,7.1-21.2,1.6L266.8,73.1c-5.6-4.8-13.8-4.8-19.5,0
		c-4.1,3.4-191.7,162.6-192.5,163.3c-6.3,5.4-15.8,4.6-21.2-1.6c-5.4-6.3-4.7-15.8,1.6-21.1l212-179.8c5.7-4.8,13.9-4.8,19.5,0
		l210,179.8C483,218.9,483.8,228.4,478.4,234.7z, M195.2,194.9v90c0,8.3,6.5,15,14.8,15h92c8.3,0,15-6.7,15-15v-90c0-8.3-6.7-15-15-15h-92
		C201.7,179.9,195.2,186.7,195.2,194.9z M225,209.9h62.2v60H225V209.9z"/>
	<circle cx="272" cy="406.9" r="15"/>
</g>
</svg>
