<?xml version="1.0" encoding="utf-8"?>
<!-- Generator: Adobe Illustrator 21.0.0, SVG Export Plug-In . SVG Version: 6.00 Build 0)  -->
<svg version="1.1" id="Capa_1" xmlns="http://www.w3.org/2000/svg" xmlns:xlink="http://www.w3.org/1999/xlink" x="0px" y="0px"
	 viewBox="0 0 512 512" style="enable-background:new 0 0 512 512;" xml:space="preserve">
<g>
	<path d="M467,195.9H353.7c11.7-20.7,19.4-40.3,23.2-58.7c4.8-23.4,2.7-44.4-5.8-60.6c-10-19-28.7-30.4-49.9-30.5
		c-0.1,0-0.1,0-0.2,0c-14.5,0-25.3,5.3-32.2,15.7c-5.3,8.1-7.5,18-10,29.5c-5.9,27.5-14,65-71.3,104.5c-9.4,0-31.1,0-45,0
		c-6.2-17.5-22.9-30-42.4-30H15c-8.3,0-15,6.7-15,15v270c0,8.3,6.7,15,15,15h105c19.6,0,36.2-12.5,42.4-30h17.5
		c50.4,14,102.6,30,156.9,30H407c24.8,0,45-20.2,45-45c0-5.9-1.1-11.4-3.2-16.6c25.7-7,40-34.9,30-60c32.2-8.8,44-48.5,21.7-73.4
		C526.4,242,505.8,195.9,467,195.9z M135,211L135,211C135,211,135,211,135,211v209.9c0,8.3-6.7,15-15,15H30v-240h90
		c8.3,0,15,6.7,15,15V211z M392,285.9h75c8.3,0,15,6.7,15,15c0,8.3-6.7,15-15,15c-6.8,0-68,0-75,0c-8.3,0-15,6.7-15,15
		c0,8.3,6.7,15,15,15h45c8.3,0,15,6.7,15,15c0,8.3-6.7,15-15,15h-45c-8.3,0-15,6.7-15,15c0,8.3,6.7,15,15,15h15c8.3,0,15,6.7,15,15
		c0,8.3-6.7,15-15,15h-70.1c-50.6,0-101.6-15.8-150.9-29.5c-2.5-0.7-2.3-0.3-21-0.3V225.7c23,0,47.1,0.2,47.1,0.2
		c2.9,0,5.8-0.9,8.2-2.5c70.8-47.2,81.4-96.3,87.7-125.7c4.7-21.6,5.5-21.6,12.9-21.6c10.3,0,18.6,5.2,23.5,14.4
		c4.7,8.9,16.4,43.4-30.2,111.9c-6.8,9.9,0.4,23.4,12.4,23.4H467c8.3,0,15,6.7,15,15c0,8.3-6.7,15-15,15h-75c-8.3,0-15,6.7-15,15
		C377,279.2,383.7,285.9,392,285.9z"/>
	<circle cx="90" cy="390.9" r="15"/>
</g>
</svg>
