<?xml version="1.0" encoding="utf-8"?>
<!-- Generator: Adobe Illustrator 21.0.0, SVG Export Plug-In . SVG Version: 6.00 Build 0)  -->
<svg version="1.1" id="Layer_1" xmlns="http://www.w3.org/2000/svg" xmlns:xlink="http://www.w3.org/1999/xlink" x="0px" y="0px"
	 viewBox="0 0 180 180" style="enable-background:new 0 0 180 180;" xml:space="preserve">
<g>
	<path id="XMLID_2_" d="M173.8,98.4h-0.2H6.2c-2.8,0-4.6,3.2-3.2,5.6l5.7,10l7.2-6.3l9.3,8.1l6.1-5.3l0.9-0.8l2.3-2l0,0l0,0l0.9,0.8
		l1.4,1.2l7,6.1l9.3-8.1l0,0l0,0l2.3,2l7,6.1l1.9-1.7l7.3-6.4l9.3,8.1l9.3-8.1l9.3,8.1l9.3-8.1l9.3,8.1l9.3-8.1l9.3,8.1l9.3-8.1
		l9.3,8.1l9.3-8.1l7.2,6.3l5.7-10C178.4,101.6,176.7,98.4,173.8,98.4z"/>
	<path id="XMLID_42_" d="M168.7,118.5l0.9-1.6l-5.5-4.8l-9.3,8.1l-9.3-8.1l-9.3,8.1l-9.3-8.1l-9.3,8.1l-9.3-8.1l-9.3,8.1l-9.3-8.1
		l-9.3,8.1l-9.3-8.1l-9.3,8.1l-9.3-8.1l-9.3,8.1l-9.3-8.1l-9.3,8.1l-9.3-8.1l-5.4,4.8l0.9,1.5c3.5,6,9.9,9.8,16.9,9.8h123.5
		C158.7,128.3,165.2,124.6,168.7,118.5z"/>
	<g>
		<path d="M116,88.4l-1.6-7.4l-7.5,4.9l-8.8-5.8L89.3,86l-8.8-5.8L71.7,86l-6.4-4.2L64,88c-0.1,0.6-0.2,1.3-0.1,2
			c0.2,1.1,0.6,2.2,1.3,3.1c0.9,1.1,2.1,1.8,3.4,1.8h11.7c0,0,0-0.1,0.1,0h31C114.5,94.9,116.7,91.7,116,88.4z"/>
		<path d="M112.2,70.6c-2.4-11.1-11.7-18.9-22.1-18.9v0c-0.6,0-1.2,0-1.8,0.1c0,0-0.1,0-0.1,0c-9.6,0.9-17.8,8.2-20,18.3L67,75
			l4.8,3.2l8.6-5.6l9.1,5.6l8.8-5.8l8.8,5.8l5.9-3.9L112.2,70.6z"/>
	</g>
</g>
</svg>
