<?xml version="1.0" encoding="utf-8"?>
<!-- Generator: Adobe Illustrator 21.0.0, SVG Export Plug-In . SVG Version: 6.00 Build 0)  -->
<svg version="1.1" id="Capa_1" xmlns="http://www.w3.org/2000/svg" xmlns:xlink="http://www.w3.org/1999/xlink" x="0px" y="0px"
	 viewBox="0 0 478.9 478.9" style="enable-background:new 0 0 478.9 478.9;" xml:space="preserve">
<g>
	<path d="M278.9,352H13.7V173.7H400v17.1c0,3.8,3.1,6.9,6.8,6.9c0,0,0,0,0,0c3.8,0,6.9-3.1,6.9-6.8c0,0,0,0,0,0v-24
		c0-3.8-3.1-6.9-6.8-6.9c0,0,0,0,0,0H6.9c-3.8,0-6.9,3.1-6.9,6.8c0,0,0,0,0,0v192c0,3.8,3.1,6.9,6.8,6.9c0,0,0,0,0,0h272
		c3.8,0,6.9-3.1,6.9-6.9S282.6,352,278.9,352z, M21.4,141.6c3.7,0.8,7.4-1.5,8.2-5.2l14.5-65.3l313.3,70.5c0.5,0.1,1,0.2,1.5,0.2c3.8,0,6.8-3.1,6.8-6.9
		c0-3.2-2.2-6-5.3-6.7l-320-72c-1.8-0.4-3.6-0.1-5.2,0.9c-1.5,1-2.6,2.5-3,4.3l-16,72C15.3,137.1,17.7,140.7,21.4,141.6z, M107.5,53.1c3.3,1.8,7.5,0.6,9.3-2.8c0.1-0.1,0.1-0.3,0.2-0.4v0l13.1-26.3l186.1,77.5c3.5,1.5,7.5-0.2,9-3.7
		c1.5-3.5-0.2-7.5-3.7-9l-192-80c-3.3-1.4-7.2,0-8.8,3.3l-16,32C102.9,47.1,104.1,51.3,107.5,53.1z, M333.2,198.9c0-3.8-3.1-6.9-6.9-6.9h-63.5c-3.8,0-6.9,3.1-6.9,6.9c0,3.8,3.1,6.9,6.9,6.9h63.5
		C330.1,205.7,333.2,202.7,333.2,198.9z, M198.9,333.3c38.9,0,70.4-31.5,70.4-70.4s-31.5-70.4-70.4-70.4s-70.4,31.5-70.4,70.4C128.5,301.7,160,333.2,198.9,333.3z
		 M198.9,205.3c31.8,0,57.6,25.8,57.6,57.6c0,31.8-25.8,57.6-57.6,57.6s-57.6-25.8-57.6-57.6C141.3,231.1,167.1,205.3,198.9,205.3z, M390.9,214.9c-42.4,0-88,10-88,32v192c0,22,45.6,32,88,32c42.4,0,88-10,88-32v-192C478.9,224.9,433.3,214.9,390.9,214.9z
		 M462.9,438.8c-1.2,4.4-25.2,16.1-72,16.1s-70.8-11.7-72-16v-12.6c17,8.6,45.1,12.6,72,12.6c26.9,0,55-4,72-12.6V438.8z
		 M462.9,406.8c-1.2,4.4-25.2,16.1-72,16.1s-70.8-11.7-72-16v-12.6c17,8.6,45.1,12.6,72,12.6c26.9,0,55-4,72-12.6V406.8z
		 M462.9,374.8c-1.2,4.4-25.2,16.1-72,16.1s-70.8-11.7-72-16v-12.6c17,8.6,45.1,12.6,72,12.6c26.9,0,55-4,72-12.6V374.8z
		 M462.9,342.8c-1.2,4.4-25.2,16.1-72,16.1s-70.8-11.7-72-16v-12.6c17,8.6,45.1,12.6,72,12.6c26.9,0,55-4,72-12.6V342.8z
		 M462.9,310.8c-1.2,4.4-25.2,16.1-72,16.1s-70.8-11.7-72-16v-12.6c17,8.5,45.1,12.6,72,12.6c26.9,0,55-4,72-12.6V310.8z
		 M462.9,278.8c-1.2,4.4-25.2,16.1-72,16.1s-70.8-11.7-72-16v-12.6c17,8.5,45.1,12.6,72,12.6c26.9,0,55-4,72-12.6V278.8z
		 M390.9,262.9c-46.7,0-70.7-11.6-72-15.9v0c1.3-4.5,25.3-16.1,72-16.1c46.4,0,70.4,11.5,72,16C461.3,251.4,437.3,262.9,390.9,262.9
		z, M77.4,205.7h57.5c3.8,0,6.9-3.1,6.9-6.9c0-3.8-3.1-6.9-6.9-6.9H74.6c-1.8,0-3.5,0.7-4.8,1.9l-35.7,34.9
		c-1.3,1.6-2.1,3.5-2.1,5.6v56.9c0,1.7,0.6,3.4,1.8,4.6l32.5,35.6c1.3,1.4,3.1,2.2,5.1,2.2h63.5c3.8,0,6.9-3.1,6.9-6.9
		c0-3.8-3.1-6.9-6.9-6.9H74.4l-28.7-31.4v-52L77.4,205.7z, M202.9,274.9h-20c-4.4,0-8,3.6-8,8c0,4.4,3.6,8,8,8h8c0,4.4,3.6,8,8,8c4.4,0,8-3.6,8-8v-0.4c8.9-1.3,15.6-8.6,16-17.6
		c-0.6-10.5-9.5-18.5-20-18h-8c-2.5,0-4-1.4-4-2c0-0.6,1.5-2,4-2h20c4.4,0,8-3.6,8-8c0-4.4-3.6-8-8-8h-8c0-4.4-3.6-8-8-8
		c-4.4,0-8,3.6-8,8v0.4c-8.9,1.3-15.6,8.6-16,17.6c0.6,10.5,9.5,18.5,20,18h8c2.5,0,4,1.4,4,2C206.9,273.5,205.3,274.9,202.9,274.9z
		"/>
</g>
</svg>
