<?xml version="1.0" encoding="iso-8859-1"?>
<!-- Generator: Adobe Illustrator 19.0.0, SVG Export Plug-In . SVG Version: 6.00 Build 0)  -->
<svg version="1.1" id="Capa_1" xmlns="http://www.w3.org/2000/svg" xmlns:xlink="http://www.w3.org/1999/xlink" x="0px" y="0px"
	 viewBox="0 0 512.031 512.031" style="enable-background:new 0 0 512.031 512.031;" xml:space="preserve">
<g>
	<g>
		<g>
			<path d="M123.819,305.946c5.493,5.722,12.187,10.154,19.599,12.978c4.938,1.652,7.696,1.112,8.205,0.598
				c24.728-24.731,29.904-45.325,30.978-52.239l-20.284-20.09c-7.084,1.133-27.546,6.431-52.07,30.954
				C108.479,279.915,110.47,292.598,123.819,305.946z"/>
			<path d="M118.882,374.888c-19.927-0.014-39.22,6.998-54.488,19.803c35.386,34.548,91.875,34.548,127.261,0
				c-15.268-12.805-34.561-19.817-54.488-19.803H118.882z"/>
			<path d="M118.882,356.603h18.286c24.248-0.004,47.721,8.542,66.29,24.135c10.432-15.171,16.01-33.152,15.996-51.564v-79.621
				l-18.488,18.221c-0.897,8.408-6.104,34.367-36.413,64.677c-4.08,3.958-9.596,6.083-15.277,5.884
				c-3.966-0.059-7.898-0.755-11.643-2.062c-10.114-3.703-19.257-9.651-26.741-17.397c-19.161-19.16-24.991-42.228-13.571-53.656
				c30.061-30.065,55.855-35.432,64.478-36.393l51.093-50.354c-1.673-4.082-3.699-8.012-6.053-11.743
				c-0.993-1.619-1.95-2.969-2.908-4.327l-0.162-0.221c-1.77-2.483-3.672-4.869-5.698-7.148c-0.197-0.179-0.393-0.366-0.571-0.563
				c-1.143-1.219-2.277-2.446-3.5-3.585c-12.574-12.191-28.78-19.951-46.161-22.103c-1.507-0.249-3.027-0.413-4.553-0.491
				c-0.314-0.013-0.627-0.045-0.938-0.094c-0.196-0.009-0.393-0.022-0.545-0.04c-0.478-0.041-0.958-0.053-1.438-0.036
				c-1.563-0.103-2.393-0.094-3.196-0.089h-18.286c-1.759,0-3.527,0.085-5.206,0.17l-0.037,0.001
				c-0.289,0.045-0.581,0.075-0.873,0.088c-1.403,0.068-2.801,0.214-4.187,0.438c-17.476,2.105-33.788,9.858-46.455,22.08
				l-0.064,0.066l-0.007,0.01c-0.157,0.147-0.295,0.311-0.452,0.46c-1.068,1.039-2.073,2.084-3.048,3.124
				c-0.152,0.165-0.375,0.388-0.625,0.625c-2.044,2.303-3.963,4.714-5.75,7.223c-0.964,1.366-1.946,2.75-2.848,4.228
				c-6.713,10.505-10.903,22.422-12.241,34.817h-0.009c-0.009,0.125-0.027,0.254-0.045,0.379l-0.002,0.037l-0.003,0.058
				l-0.013,0.262c-0.25,2.741-0.42,5.397-0.42,8.219v118.857c-0.014,18.411,5.564,36.393,15.996,51.564
				C71.161,365.145,94.634,356.599,118.882,356.603z"/>
			<path d="M305.703,112.674l-74.84,73.761c-0.535,0.718-1.176,1.35-1.902,1.874l-50.178,49.455l13.259,13.129l126.918-125.088
				l-8.954-8.869L305.703,112.674z"/>
			<path d="M511.917,0.031H357.319c-2.491,0.004-4.88,0.987-6.652,2.737L292.489,60.79c-1.754,1.712-2.745,4.059-2.75,6.51
				c-0.005,2.451,0.976,4.802,2.723,6.521l19.687,19.498l0.009,0.006l26.25,26l0.003,0.004l19.685,19.496
				c3.711,3.652,9.664,3.652,13.375,0L512.007,0L511.917,0.031z"/>
			<path d="M237.739,231.532v97.642c0.006,26.042-9.298,51.228-26.233,71.012c-0.169,0.274-0.354,0.539-0.553,0.792
				c-0.119,0.113-0.274,0.148-0.397,0.253c-20.755,23.92-50.868,37.659-82.538,37.657s-61.781-13.744-82.534-37.666
				c-0.12-0.103-0.273-0.135-0.389-0.244c-0.199-0.253-0.384-0.518-0.553-0.792c-16.935-19.784-26.239-44.97-26.233-71.012V225.833
				C6.451,242.713,0.068,262.831,0.025,283.46v228.571h256V283.46c-0.035-19.226-5.573-38.041-15.959-54.22L237.739,231.532z"/>
		</g>
	</g>
</g>
<g>
</g>
<g>
</g>
<g>
</g>
<g>
</g>
<g>
</g>
<g>
</g>
<g>
</g>
<g>
</g>
<g>
</g>
<g>
</g>
<g>
</g>
<g>
</g>
<g>
</g>
<g>
</g>
<g>
</g>
</svg>
