<?xml version="1.0" encoding="iso-8859-1"?>
<!-- Generator: Adobe Illustrator 17.1.0, SVG Export Plug-In . SVG Version: 6.00 Build 0)  -->
<!DOCTYPE svg PUBLIC "-//W3C//DTD SVG 1.1//EN" "http://www.w3.org/Graphics/SVG/1.1/DTD/svg11.dtd">
<svg version="1.1" id="Capa_1" xmlns="http://www.w3.org/2000/svg" xmlns:xlink="http://www.w3.org/1999/xlink" x="0px" y="0px"
	 viewBox="0 0 495.066 495.066" style="enable-background:new 0 0 495.066 495.066;" xml:space="preserve">
<path d="M488.183,85.998l-78.59-78.591c-8.405-8.406-21.674-9.753-30.864-3.133c-5.66,4.076-9.226,10.361-9.782,17.245
	c-0.557,6.886,1.924,13.635,6.806,18.517l11.314,11.314c6.433,6.433,6.433,16.901,0,23.334L70.883,390.868
	c-0.249,0.249-0.479,0.514-0.69,0.795L1.506,482.976c-2.246,2.986-1.952,7.17,0.69,9.813c1.454,1.453,3.375,2.196,5.305,2.196
	c1.578,0,3.164-0.496,4.506-1.506l91.314-68.687c0.281-0.211,0.546-0.442,0.795-0.69l316.184-316.184
	c6.434-6.433,16.901-6.434,23.334,0l10.709,10.709c8.404,8.406,21.674,9.752,30.864,3.132c5.66-4.077,9.225-10.362,9.781-17.245
	C495.546,97.629,493.065,90.88,488.183,85.998z M480.038,103.307c-0.204,2.527-1.481,4.757-3.596,6.281
	c-3.234,2.33-8.282,1.643-11.491-1.567l-10.709-10.709c-5.949-5.95-13.86-9.226-22.273-9.226c-8.414,0-16.325,3.276-22.274,9.226
	L93.884,413.122l-48.511,36.489l36.49-48.51l315.81-315.811c4.275-4.275,7.058-9.485,8.357-14.977l9.321,9.321
	c1.464,1.464,3.384,2.197,5.303,2.197s3.839-0.732,5.303-2.197c2.929-2.929,2.929-7.678,0-10.606l-28.284-28.284L386.359,29.43
	c-1.766-1.766-2.663-4.209-2.461-6.703c0.204-2.527,1.481-4.758,3.597-6.281c3.235-2.33,8.282-1.641,11.491,1.568l78.59,78.591
	C479.342,98.371,480.239,100.814,480.038,103.307z"/>
<g>
</g>
<g>
</g>
<g>
</g>
<g>
</g>
<g>
</g>
<g>
</g>
<g>
</g>
<g>
</g>
<g>
</g>
<g>
</g>
<g>
</g>
<g>
</g>
<g>
</g>
<g>
</g>
<g>
</g>
</svg>
