<?xml version="1.0" encoding="utf-8"?>
<!-- Generator: Adobe Illustrator 21.0.0, SVG Export Plug-In . SVG Version: 6.00 Build 0)  -->
<svg version="1.1" id="Capa_1" xmlns="http://www.w3.org/2000/svg" xmlns:xlink="http://www.w3.org/1999/xlink" x="0px" y="0px"
	 viewBox="0 0 496 496" style="enable-background:new 0 0 496 496;" xml:space="preserve">
<g>
	<path d="M169,208L151.7,0H57L39.7,208h40.7v177.1c-9.2,2.8-16,11.3-16,21.5c0,1.5,0.2,3,0.4,4.4l17,85h45.1l17-85
		c0.3-1.5,0.4-2.9,0.4-4.4c0-10.1-6.8-18.6-16-21.5V208H169z M128.2,407.8L113.8,480H94.9l-14.4-72.2c-0.1-0.4-0.1-0.8-0.1-1.3
		c0-3.6,2.9-6.6,6.6-6.6h34.9c3.6,0,6.6,2.9,6.6,6.6C128.3,407,128.3,407.4,128.2,407.8z M96.3,384V208h16v176H96.3z M57,192L69,48
		h35.3V32h-34l1.3-16H137l1.3,16h-18v16h19.3l12,144H57z, M415.7,230.4l-15.4-4.4v-18H425L407.7,0H313l-17.3,208h24.7v18l-15.4,4.4c-23.9,6.8-40.6,29-40.6,53.8v126.1
		c0,21.3,11.9,40.5,31,50.1l1,0.5V496h128v-35.1l1-0.5c19.1-9.6,31-28.7,31-50.1V284.2C456.3,259.3,439.6,237.2,415.7,230.4z
		 M313,192l1.3-16h54v-16h-52.6l12-144H393l12,144h-20.6v16h22l1.3,16H313z M418.2,446.1l-9.9,4.9V480h-96v-28.9l-9.9-4.9
		c-6.6-3.3-11.9-8.2-15.7-14.1H434C430.2,437.9,424.8,442.8,418.2,446.1z M440.3,410.3c0,1.9-0.1,3.8-0.4,5.7H280.7
		c-0.3-1.9-0.4-3.8-0.4-5.7V336h160V410.3z M440.3,320h-160v-35.8c0-17.8,11.9-33.6,29-38.4l27-7.7v-30h48v30l27,7.7
		c17.1,4.9,29,20.7,29,38.4V320z, M314.5,261.2c-10.7,2.7-18.2,12.2-18.2,23.3V304h16v-19.5c0-3.7,2.5-6.9,6.1-7.8l19.9-5l-3.9-15.5L314.5,261.2z"/>
</g>
</svg>
