<?xml version="1.0" encoding="utf-8"?>
<!-- Generator: Adobe Illustrator 21.0.0, SVG Export Plug-In . SVG Version: 6.00 Build 0)  -->
<svg version="1.1" id="Layer_1" xmlns="http://www.w3.org/2000/svg" xmlns:xlink="http://www.w3.org/1999/xlink" x="0px" y="0px"
	 viewBox="0 0 180 180" style="enable-background:new 0 0 180 180;" xml:space="preserve">
<path d="M90,2.2C41.5,2.2,2.2,41.5,2.2,90c0,48.5,39.3,87.8,87.8,87.8s87.8-39.3,87.8-87.8C177.8,41.5,138.5,2.2,90,2.2z
	 M132.3,118.9L120,131.2c-0.6,0.6-1.3,1.1-2.2,1.6c-0.9,0.4-1.8,0.7-2.6,0.8c-0.1,0-0.3,0-0.6,0c-0.3,0-0.7,0-1.2,0
	c-1.2,0-3.1-0.2-5.7-0.6c-2.6-0.4-5.8-1.4-9.6-3c-3.8-1.6-8.1-3.9-12.9-7.1c-4.8-3.1-9.9-7.5-15.3-12.9c-4.3-4.3-7.9-8.3-10.7-12.2
	c-2.8-3.9-5.1-7.5-6.8-10.8c-1.7-3.3-3-6.3-3.9-9c-0.9-2.7-1.5-5-1.8-6.9s-0.4-3.5-0.4-4.6c0.1-1.1,0.1-1.7,0.1-1.8
	c0.1-0.9,0.4-1.7,0.8-2.6s1-1.6,1.6-2.2l12.3-12.3c0.9-0.9,1.9-1.3,3-1.3c0.8,0,1.5,0.2,2.1,0.7c0.6,0.5,1.1,1,1.6,1.7l9.9,18.7
	c0.6,1,0.7,2.1,0.5,3.2c-0.2,1.2-0.8,2.2-1.6,3L72,78.2c-0.1,0.1-0.2,0.3-0.3,0.6s-0.1,0.5-0.1,0.7c0.2,1.3,0.8,2.8,1.7,4.4
	c0.7,1.5,1.9,3.3,3.4,5.4c1.5,2.1,3.7,4.6,6.6,7.4c2.8,2.8,5.2,5,7.4,6.6c2.2,1.6,4,2.7,5.4,3.5c1.5,0.7,2.6,1.2,3.3,1.3l1.1,0.2
	c0.1,0,0.3,0,0.6-0.1c0.3-0.1,0.5-0.2,0.6-0.3l5.3-5.4c1.1-1,2.4-1.5,3.9-1.5c1,0,1.9,0.2,2.5,0.6h0.1l17.8,10.5
	c1.3,0.8,2.1,1.8,2.3,3.1C133.8,116.6,133.4,117.9,132.3,118.9z"/>
</svg>
