<?xml version="1.0" encoding="utf-8"?>
<!-- Generator: Adobe Illustrator 21.0.0, SVG Export Plug-In . SVG Version: 6.00 Build 0)  -->
<svg version="1.1" id="Layer_1" xmlns="http://www.w3.org/2000/svg" xmlns:xlink="http://www.w3.org/1999/xlink" x="0px" y="0px"
	 viewBox="0 0 300 300" style="enable-background:new 0 0 300 300;" xml:space="preserve">
<g>
	<path d="M143.5,154c19.1,0,23.7-15.6,23.7-28.7c0-13.1-10.6-23.7-23.7-23.7c-13.1,0-23.7,10.6-23.7,23.7
		C119.8,138.4,126.1,154,143.5,154z, M146.8,157.3h-3.3h-3.3c-13,0-32.5,11.9-32.5,26.6c0,14.7-4.4,26.6,8.6,26.6h27.2h27.2c13,0,8.6-11.9,8.6-26.6
		S159.8,157.3,146.8,157.3z, M150,0C67.2,0,0,67.2,0,150s67.2,150,150,150c82.8,0,150-67.2,150-150C300,67.2,232.8,0,150,0z M210.9,217.1v10.4
		c0,5.7-4.6,10.4-10.4,10.4h-10.4h-57.3H96.8c-11.5,0-20.7-9.3-20.7-20.7V86.6c0-11.5,9.3-20.7,20.7-20.7h36.1h57.3h10.4
		c5.7,0,10.4,4.6,10.4,10.4v10.4h0V217.1z M231.7,86.6v130.5v10.4c0,5.7-4.6,10.4-10.4,10.4h-2.8c1.8-3.1,2.8-6.6,2.8-10.4v-10.4
		V86.6V76.2c0-3.8-1-7.3-2.8-10.4h2.8c5.7,0,10.4,4.6,10.4,10.4V86.6z"/>
</g>
</svg>
