<?xml version="1.0" encoding="utf-8"?>
<!-- Generator: Adobe Illustrator 21.0.0, SVG Export Plug-In . SVG Version: 6.00 Build 0)  -->
<svg version="1.1" id="Capa_1" xmlns="http://www.w3.org/2000/svg" xmlns:xlink="http://www.w3.org/1999/xlink" x="0px" y="0px"
	 viewBox="0 0 578.1 578.1" style="enable-background:new 0 0 578.1 578.1;" xml:space="preserve">
<style type="text/css">
	.st0{fill:#010002;}
</style>
<path class="st0" d="M577.8,456.1c-1.6-8.2-6.7-14.9-15.3-20.2l-118.1-69.8h-0.6c-4.1-2.4-9.6-3.7-16.5-3.7
	c-9.8,0-18.4,3.3-25.7,9.8l-34.9,35.5c-0.8,0.8-2.1,1.5-4,2.1c-1.8,0.6-3.2,0.9-4,0.9l-7.6-1.5c-5.1-1-12.4-4-22-8.9
	s-21.5-12.5-35.8-22.9c-14.3-10.4-30.6-25-49-43.8c-18.8-18.4-33.3-34.6-43.5-48.7s-17.7-26-22.6-35.8c-5.7-11-9.4-20.8-11-29.4
	c0-1.2,0.3-2.8,0.9-4.6s1.3-3.2,2.1-4l30-30c5.3-5.3,8.8-11.8,10.4-19.6s0.6-14.9-3.1-21.4L142.1,16.1c-2.9-4.5-6.3-8.3-10.4-11.3
	s-8.8-4.6-14.1-4.6c-7.3,0-13.9,2.9-19.6,8.6L16.6,90.2c-4.1,3.7-7.5,8.5-10.4,14.4c-2.9,5.9-4.7,11.7-5.5,17.4
	c0,0.8-0.2,4.9-0.6,12.2c-0.4,7.3,0.4,17.4,2.4,30.3c2,12.9,5.9,28.2,11.6,45.9c5.7,17.7,14.3,37.5,25.7,59.4
	c11.4,21.8,26.5,45.6,45.3,71.3c18.8,25.7,42.4,52.6,71,80.8c35.9,36.3,69.8,64.9,101.6,85.7c31.8,20.8,60.3,36.4,85.4,46.8
	c25.1,10.4,46.3,16.9,63.6,19.6c17.3,2.7,29.9,4,37.6,4c3.3,0,5.9-0.1,8-0.3c2-0.2,3.3-0.3,3.7-0.3c5.7-0.8,11.5-2.7,17.4-5.5
	c5.9-2.9,10.7-6.3,14.4-10.4l81.4-80.8C576.2,473.7,579.1,465.5,577.8,456.1z"/>
</svg>
