<?xml version="1.0" encoding="utf-8"?>
<!-- Generator: Adobe Illustrator 21.0.0, SVG Export Plug-In . SVG Version: 6.00 Build 0)  -->
<svg version="1.1" id="Capa_1" xmlns="http://www.w3.org/2000/svg" xmlns:xlink="http://www.w3.org/1999/xlink" x="0px" y="0px"
	 viewBox="0 0 512 512" style="enable-background:new 0 0 512 512;" xml:space="preserve">
<g>
	<path d="M255,286.3c-2.6,0-5.2,1.1-7.1,2.9c-1.9,1.9-2.9,4.4-2.9,7.1c0,2.6,1.1,5.2,2.9,7.1c1.9,1.9,4.4,2.9,7.1,2.9
		s5.2-1.1,7.1-2.9c1.9-1.9,2.9-4.4,2.9-7.1c0-2.6-1.1-5.2-2.9-7.1C260.2,287.3,257.6,286.3,255,286.3z, M494,90.5L406.5,2.9c-3.9-3.9-10.2-3.9-14.1,0L24.6,370.6c-6.2,6.2-9.5,14.3-9.5,23s3.4,16.9,9.5,23l85.8,85.8
		c6.3,6.3,14.7,9.5,23,9.5c8.3,0,16.7-3.2,23-9.5l50.3-50.3c0,0,0.1-0.1,0.1-0.1l40.5-40.5c2.1-2.1,3.2-5.1,2.9-8.2l-1.9-17.7
		l17.7-1.9c5.5-0.6,9.5-5.5,8.8-11l-1.9-17.7l17.7-1.9c5.5-0.6,9.5-5.5,8.8-11l-1.9-17.7l17.7-1.9c2.6-0.3,5-1.6,6.7-3.7
		c1.7-2.1,2.4-4.7,2.1-7.3l-1.9-17.7l17.7-1.9c2.6-0.3,5-1.6,6.7-3.7c1.7-2.1,2.4-4.7,2.1-7.3l-1.9-17.7l17.7-1.9
		c5.5-0.6,9.5-5.5,8.8-11l-1.9-17.7l17.7-1.9c5.5-0.6,9.5-5.5,8.8-11l-1.9-17.7l17.7-1.9c5.5-0.6,9.5-5.5,8.8-11l-1.9-17.7l17.7-1.9
		c2.6-0.3,5-1.6,6.7-3.7c1.7-2.1,2.4-4.7,2.1-7.3l-1.9-17.7l17.7-1.9c2.6-0.3,5-1.6,6.7-3.7c1.7-2.1,2.4-4.7,2.1-7.3l-1.9-17.7
		l18.2-2c3.8-0.4,7.1-3,8.3-6.6C497.6,97.2,496.7,93.2,494,90.5z M105.5,469.3l-47.7-47.7l55.2-55.2l36.8,36.8l0,21.8L105.5,469.3z
		 M142.3,488.3c-4.9,4.9-12.9,4.9-17.8,0l-4.9-4.9l47.2-47.2c1.9-1.9,2.9-4.4,2.9-7.1l0-30.1c0-2.7-1.1-5.2-2.9-7.1l-46.8-46.8
		c-3.9-3.9-10.2-3.9-14.1,0l-62.2,62.2l-5-5c-2.4-2.4-3.7-5.5-3.7-8.9s1.3-6.5,3.7-8.9l74.4-74.4l76.5,76.5v54h0L142.3,488.3z
		 M457.7,90.7c-2.6,0.3-5.1,1.6-6.7,3.7c-1.7,2.1-2.4,4.7-2.1,7.4l1.9,17.7l-17.7,1.9c-2.6,0.3-5,1.6-6.7,3.7
		c-1.7,2.1-2.4,4.7-2.1,7.3l1.9,17.7l-17.7,1.9c-5.5,0.6-9.5,5.5-8.8,11l1.9,17.7l-17.7,1.9c-5.5,0.6-9.5,5.5-8.8,11l1.9,17.7
		l-17.7,1.9c-5.5,0.6-9.5,5.5-8.8,11l1.9,17.7l-17.7,1.9c-5.5,0.6-9.5,5.5-8.8,11l1.9,17.7l-17.7,1.9c-2.6,0.3-5,1.6-6.7,3.7
		c-1.7,2.1-2.4,4.7-2.1,7.3l1.9,17.7l-17.7,1.9c-2.6,0.3-5,1.6-6.7,3.7c-1.7,2.1-2.4,4.7-2.1,7.3l1.9,17.7l-17.7,1.9
		c-5.5,0.6-9.5,5.5-8.8,11l1.9,17.7l-17.7,1.9c-5.5,0.6-9.5,5.5-8.8,11l2.5,22.9L209.6,421v-38.2c0-2.7-1.1-5.2-2.9-7.1l-79.5-79.5
		L245,178.5V261c0,5.5,4.5,10,10,10c5.5,0,10-4.5,10-10V158.5l32-32v56c0,5.5,4.5,10,10,10c5.5,0,10-4.5,10-10v-76l82.4-82.4
		l65.7,65.7L457.7,90.7z"/>
</g>
</svg>
