<?xml version="1.0" encoding="utf-8"?>
<!-- Generator: Adobe Illustrator 21.0.0, SVG Export Plug-In . SVG Version: 6.00 Build 0)  -->
<svg version="1.1" id="Layer_1" xmlns="http://www.w3.org/2000/svg" xmlns:xlink="http://www.w3.org/1999/xlink" x="0px" y="0px"
	 viewBox="0 0 512 512" style="enable-background:new 0 0 512 512;" xml:space="preserve">
<title>skyline</title>
<g>
	<path d="M480.4,494.7L480.4,494.7l-14.4,0V43.2c0-4.8-3.9-8.6-8.6-8.6H296.3c-4.8,0-8.6,3.9-8.6,8.6c0,0,0,0,0,0v37.4h-17.3V43.2
		c0-4.8-3.9-8.6-8.6-8.6h-37.4V8.6c0-4.8-3.9-8.6-8.6-8.6c-4.8,0-8.6,3.9-8.6,8.6v25.9h-37.4c-4.8,0-8.6,3.9-8.6,8.6c0,0,0,0,0,0
		v37.4h-25.9c-4.8,0-8.6,3.9-8.6,8.6v71.9H54.7c-4.8,0-8.6,3.8-8.7,8.6c0,0,0,0,0,0v325H31.6c-4.8,0-8.6,3.9-8.6,8.6
		c0,4.8,3.9,8.6,8.6,8.6h448.7c4.8,0,8.6-3.9,8.6-8.6C489,498.6,485.1,494.7,480.4,494.7z M178.3,51.8h74.8v28.8h-74.8V51.8z
		 M149.6,494.8l-5.8,0v-14.4c0-4.8-3.9-8.6-8.6-8.6s-8.6,3.9-8.6,8.6v14.4h-5.8V466h28.8V494.8z M207.1,494.7h-40.3v-37.4
		c0-4.8-3.9-8.6-8.6-8.6h-46c-4.8,0-8.6,3.9-8.6,8.6v37.4H63.3V178.3h143.8V494.7z M250.3,218.6h-25.9v-28.8h25.9
		c4.8,0,8.6-3.9,8.6-8.6c0-4.8-3.9-8.6-8.6-8.6h-25.9v-2.9c0-4.8-3.9-8.6-8.6-8.6c0,0,0,0,0,0h-71.9V97.8h143.8v166.9h-63.3v-28.8
		h25.9c4.8,0,8.6-3.9,8.6-8.6C258.9,222.5,255,218.6,250.3,218.6z M368.2,494.7H224.4V281.9h143.8V494.7z M448.7,494.8h-63.3v-233
		c0-4.8-3.9-8.6-8.6-8.6c-4.8,0-8.6,3.9-8.6,8.6v2.9h-17.3v-2.9c0-4.8-3.9-8.6-8.6-8.6c-4.8,0-8.6,3.9-8.6,8.6v2.9h-28.8V51.8h143.8
		V494.8z, M261.8,477.5c4.8,0,8.6-3.9,8.6-8.6V307.8c0-4.8-3.9-8.6-8.6-8.6c-4.8,0-8.6,3.9-8.6,8.6v161.1
		C253.1,473.6,257,477.5,261.8,477.5z, M296.3,477.5c4.8,0,8.6-3.9,8.6-8.6V307.8c0-4.8-3.9-8.6-8.6-8.6s-8.6,3.9-8.6,8.6v161.1
		C287.6,473.6,291.5,477.5,296.3,477.5z, M330.8,477.5c4.8,0,8.6-3.9,8.6-8.6V307.8c0-4.8-3.9-8.6-8.6-8.6s-8.6,3.9-8.6,8.6v161.1
		C322.2,473.6,326,477.5,330.8,477.5z, M342.3,109.3c4.8,0,8.6-3.9,8.6-8.6V89.2c0-4.8-3.9-8.6-8.6-8.6c-4.8,0-8.6,3.9-8.6,8.6v11.5
		C333.7,105.4,337.5,109.3,342.3,109.3z, M376.8,109.3c4.8,0,8.6-3.9,8.6-8.6V89.2c0-4.8-3.9-8.6-8.6-8.6s-8.6,3.9-8.6,8.6v11.5C368.2,105.4,372,109.3,376.8,109.3z
		, M411.3,109.3c4.8,0,8.6-3.9,8.6-8.6V89.2c0-4.8-3.9-8.6-8.6-8.6c-4.8,0-8.6,3.9-8.6,8.6v11.5
		C402.7,105.4,406.6,109.3,411.3,109.3z, M342.3,166.8c4.8,0,8.6-3.9,8.6-8.6v-11.5c0-4.8-3.9-8.6-8.6-8.6c-4.8,0-8.6,3.9-8.6,8.6v11.5
		C333.7,163,337.5,166.8,342.3,166.8z, M376.8,166.8c4.8,0,8.6-3.9,8.6-8.6v-11.5c0-4.8-3.9-8.6-8.6-8.6c-4.8,0-8.6,3.9-8.6,8.6v11.5
		C368.2,163,372,166.8,376.8,166.8z, M411.4,138.1c-4.8,0-8.6,3.9-8.6,8.6v11.5c0,4.8,3.8,8.6,8.6,8.6c4.8,0,8.6-3.8,8.7-8.6c0,0,0,0,0,0v-11.5
		C420,141.9,416.1,138.1,411.4,138.1z, M342.3,224.4c4.8,0,8.6-3.9,8.6-8.6v-11.5c0-4.8-3.9-8.6-8.6-8.6c-4.8,0-8.6,3.9-8.6,8.6v11.5
		C333.7,220.5,337.5,224.4,342.3,224.4z, M376.8,224.4c4.8,0,8.6-3.9,8.6-8.6v-11.5c0-4.8-3.9-8.6-8.6-8.6c-4.8,0-8.6,3.9-8.6,8.6v11.5
		C368.2,220.5,372,224.4,376.8,224.4z, M411.3,224.4c4.8,0,8.6-3.9,8.6-8.6v-11.5c0-4.8-3.9-8.6-8.6-8.6c-4.8,0-8.6,3.9-8.6,8.6v11.5
		C402.7,220.5,406.6,224.4,411.3,224.4z, M100.7,247.4c4.8,0,8.6-3.9,8.6-8.6v-11.5c0-4.8-3.9-8.6-8.6-8.6c-4.8,0-8.6,3.9-8.6,8.6v11.5
		C92,243.5,95.9,247.4,100.7,247.4z, M135.2,247.4c4.8,0,8.6-3.9,8.6-8.6v-11.5c0-4.8-3.9-8.6-8.6-8.6s-8.6,3.9-8.6,8.6v11.5
		C126.6,243.5,130.4,247.4,135.2,247.4z, M169.7,247.4c4.8,0,8.6-3.9,8.6-8.6v-11.5c0-4.8-3.9-8.6-8.6-8.6c-4.8,0-8.6,3.9-8.6,8.6v11.5
		C161.1,243.5,164.9,247.4,169.7,247.4z, M100.7,304.9c4.8,0,8.6-3.9,8.6-8.6v-11.5c0-4.8-3.9-8.6-8.6-8.6c-4.8,0-8.6,3.9-8.6,8.6v11.5
		C92,301,95.9,304.9,100.7,304.9z, M135.2,304.9c4.8,0,8.6-3.9,8.6-8.6v-11.5c0-4.8-3.9-8.6-8.6-8.6s-8.6,3.9-8.6,8.6v11.5C126.6,301,130.4,304.9,135.2,304.9
		z, M169.7,304.9c4.8,0,8.6-3.9,8.6-8.6v-11.5c0-4.8-3.9-8.6-8.6-8.6c-4.8,0-8.6,3.9-8.6,8.6v11.5
		C161.1,301,164.9,304.9,169.7,304.9z, M100.7,362.4c4.8,0,8.6-3.9,8.6-8.6v-11.5c0-4.8-3.9-8.6-8.6-8.6c-4.8,0-8.6,3.9-8.6,8.6v11.5
		C92,358.6,95.9,362.4,100.7,362.4z, M135.2,362.4c4.8,0,8.6-3.9,8.6-8.6v-11.5c0-4.8-3.9-8.6-8.6-8.6s-8.6,3.9-8.6,8.6v11.5
		C126.6,358.6,130.4,362.4,135.2,362.4z, M169.7,362.4c4.8,0,8.6-3.9,8.6-8.6v-11.5c0-4.8-3.9-8.6-8.6-8.6c-4.8,0-8.6,3.9-8.6,8.6v11.5
		C161.1,358.6,164.9,362.4,169.7,362.4z, M100.7,420c4.8,0,8.6-3.9,8.6-8.6v0v-11.5c0-4.8-3.9-8.6-8.6-8.6c-4.8,0-8.6,3.9-8.6,8.6v11.5C92,416.1,95.9,420,100.7,420
		z, M135.1,420C135.2,420,135.2,420,135.1,420c4.8,0,8.7-3.9,8.7-8.6v-11.5c0-4.8-3.9-8.6-8.6-8.6s-8.6,3.9-8.6,8.6v11.5
		C126.5,416.1,130.4,420,135.1,420z, M169.7,420C169.7,420,169.7,420,169.7,420c4.8,0,8.7-3.9,8.7-8.6v-11.5c0-4.8-3.9-8.6-8.6-8.6c-4.8,0-8.6,3.9-8.6,8.6v11.5
		C161.1,416.1,164.9,420,169.7,420z, M411.3,281.9c4.8,0,8.6-3.9,8.6-8.6v-11.5c0-4.8-3.9-8.6-8.6-8.6c-4.8,0-8.6,3.9-8.6,8.6v11.5
		C402.7,278,406.6,281.9,411.3,281.9z, M411.3,339.4c4.8,0,8.6-3.9,8.6-8.6v-11.5c0-4.8-3.9-8.6-8.6-8.6c-4.8,0-8.6,3.9-8.6,8.6v11.5
		C402.7,335.6,406.6,339.4,411.3,339.4z, M411.3,396.9c4.8,0,8.6-3.9,8.6-8.6v-11.5c0-4.8-3.9-8.6-8.6-8.6c-4.8,0-8.6,3.9-8.6,8.6v11.5
		C402.7,393.1,406.6,396.9,411.3,396.9z, M411.3,454.5c4.8,0,8.6-3.9,8.6-8.6v-11.5c0-4.8-3.9-8.6-8.6-8.6c-4.8,0-8.6,3.9-8.6,8.6v11.5
		C402.7,450.6,406.6,454.5,411.3,454.5z, M250.3,126.6h-69c-4.8,0-8.6,3.9-8.6,8.6s3.9,8.6,8.6,8.6h69c4.8,0,8.6-3.9,8.6-8.6S255,126.6,250.3,126.6z"/>
</g>
</svg>
