<?xml version="1.0" encoding="utf-8"?>
<!-- Generator: Adobe Illustrator 21.0.0, SVG Export Plug-In . SVG Version: 6.00 Build 0)  -->
<svg version="1.1" id="Layer_1" xmlns="http://www.w3.org/2000/svg" xmlns:xlink="http://www.w3.org/1999/xlink" x="0px" y="0px"
	 viewBox="0 0 455 455" style="enable-background:new 0 0 455 455;" xml:space="preserve">
<g>
	<path d="M455,297.5c0-87-70.5-157.5-157.5-157.5S140,210.5,140,297.5c0,87,70.5,157.5,157.5,157.5c32.9,0,63.5-10.1,88.7-27.4
		l62.1,20.7l-20.7-62.1C444.9,361,455,330.4,455,297.5z, M164.9,164.9c17.2-17.2,37.3-30.7,59.6-40.2c23.1-9.8,47.7-14.7,73-14.7c3.4,0,6.9,0.1,10.3,0.3C287.7,46.4,228,0,157.5,0
		C70.5,0,0,70.5,0,157.5c0,32.9,10.1,63.5,27.4,88.7L6.7,308.3l62.1-20.7c12.6,8.6,26.6,15.5,41.5,20.1c-0.2-3.4-0.3-6.8-0.3-10.3
		c0-25.3,5-49.9,14.7-73C134.2,202.2,147.7,182.1,164.9,164.9z"/>
</g>
</svg>
