<?xml version="1.0" encoding="utf-8"?>
<!-- Generator: Adobe Illustrator 21.0.0, SVG Export Plug-In . SVG Version: 6.00 Build 0)  -->
<svg version="1.1" id="Capa_1" xmlns="http://www.w3.org/2000/svg" xmlns:xlink="http://www.w3.org/1999/xlink" x="0px" y="0px"
	 viewBox="0 0 512 512" style="enable-background:new 0 0 512 512;" xml:space="preserve">
<g>
	<path d="M377,0H135C60.6,0,0,60.6,0,135v30c0,24.8,20.2,45,45,45h60c24.8,0,45-20.2,45-45v-30c0-8.3,6.7-15,15-15h182
		c8.3,0,15,6.7,15,15v30c0,24.8,20.2,45,45,45h60c24.8,0,45-20.2,45-45v-30C512,60.6,451.4,0,377,0z M120,165c0,8.3-6.7,15-15,15H45
		c-8.3,0-15-6.7-15-15v-15h90V165z M347,90H165c-19.6,0-36.2,12.5-42.4,30H31.1C38.4,69.2,82.2,30,135,30h242
		c52.8,0,96.6,39.2,103.9,90h-91.5C383.2,102.5,366.6,90,347,90z M482,165c0,8.3-6.7,15-15,15h-60c-8.3,0-15-6.7-15-15v-15h90V165z, M398.6,231.8c-8.1-13.5-22.9-21.8-38.6-21.8h-28v-15c0-24.8-20.2-45-45-45h-62c-24.8,0-45,20.2-45,45v15h-28
		c-19.4,0-35.2,13.2-39.6,23.9L35.7,420.2C31.9,429.4,30,439,30,449v18c0,24.8,20.2,45,45,45h362c24.8,0,45-20.2,45-45v-18
		c0-9.9-1.9-19.6-5.7-28.7C394.6,221.6,399.5,233.3,398.6,231.8z M210,195c0-8.3,6.7-15,15-15h62c8.3,0,15,6.7,15,15v15h-92V195z
		 M452,467c0,8.3-6.7,15-15,15H75c-8.3,0-15-6.7-15-15v-18c0-6,1.2-11.8,3.5-17.3l76.2-185.1c2.8-4,7.4-6.5,12.4-6.5
		c4.6,0,196.6,0,208,0c4.9,0,9.6,2.5,12.4,6.5l76.2,185.2c2.3,5.5,3.4,11.3,3.4,17.3V467z, M257,270c-49.6,0-90,40.4-90,90c0,49.6,40.4,90,90,90c49.6,0,90-40.4,90-90C347,310.4,306.6,270,257,270z M257,420
		c-33.1,0-60-26.9-60-60s26.9-60,60-60s60,26.9,60,60S290.1,420,257,420z, M257,330c-16.5,0-30,13.5-30,30s13.5,30,30,30s30-13.5,30-30S273.5,330,257,330z"/>
</g>
</svg>
