<?xml version="1.0" encoding="utf-8"?>
<!-- Generator: Adobe Illustrator 21.0.0, SVG Export Plug-In . SVG Version: 6.00 Build 0)  -->
<svg version="1.1" id="Layer_1" xmlns="http://www.w3.org/2000/svg" xmlns:xlink="http://www.w3.org/1999/xlink" x="0px" y="0px"
	 viewBox="0 0 26 26" style="enable-background:new 0 0 26 26;" xml:space="preserve">
<g>
	<path d="M25.7,8.3C22.4,5,18,3,13,3S3.5,5,0.3,8.3C0.1,8.5,0,8.7,0,9s0.1,0.5,0.3,0.7l1.4,1.4c0.4,0.4,1,0.4,1.4,0
		C5.6,8.6,9.1,7,13,7s7.4,1.6,9.9,4.1c0.4,0.4,1,0.4,1.4,0l1.4-1.4C25.9,9.5,26,9.3,26,9S25.9,8.4,25.7,8.3z, M13,11c-2.8,0-5.2,1.1-7,2.9c-0.4,0.4-0.4,1,0,1.4l1.4,1.4c0.4,0.4,1,0.4,1.4,0C9.9,15.6,11.4,15,13,15s3.1,0.7,4.2,1.7
		c0.4,0.4,1,0.4,1.4,0l1.4-1.4c0.4-0.4,0.4-1,0-1.4C18.2,12.1,15.8,11,13,11z"/>
	<circle cx="13" cy="21" r="2"/>
</g>
</svg>
