<?xml version="1.0" encoding="utf-8"?>
<!-- Generator: Adobe Illustrator 21.0.0, SVG Export Plug-In . SVG Version: 6.00 Build 0)  -->
<svg version="1.1" id="Capa_1" xmlns="http://www.w3.org/2000/svg" xmlns:xlink="http://www.w3.org/1999/xlink" x="0px" y="0px"
	 viewBox="0 0 512 512" style="enable-background:new 0 0 512 512;" xml:space="preserve">
<path d="M491.6,157.4C451.9,64.2,359.5,0,255,0C112.9,0,0,117.3,0,257c0,140.9,114,255,255,255c139.9,0,257-113,257-255
	C512,222.6,505.1,189.1,491.6,157.4z M468.8,180.6c-26.3-20.8-60.2-35.3-92.7-44.5c-9.2-32.5-23.7-66.5-44.7-92.8
	C395.2,66.1,445.9,116.8,468.8,180.6z M377.2,242c8.2,0.1,14.8,6.8,14.8,15s-6.6,14.9-14.8,15c-0.1,0-0.1,0-0.2,0
	c-0.3,0-0.5,0-0.7,0c-7.9-0.4-14.3-6.9-14.3-15c0,0,0,0,0,0c0,0,0,0,0,0c0-7.9,6.2-14.4,14-14.9c0,0,0.1,0,0.1,0c0.3,0,0.6,0,0.9,0
	C377.1,242,377.1,242,377.2,242z M270,32.5C298.7,42,325,78,342,128c-23-4.4-47.2-7-72-7.8V32.5z M270,150.3
	c28.4,0.9,55.9,4.5,81.3,10.4c4,17.2,7,35.6,8.8,54.7c-11.9,4.8-21.2,14.6-25.5,26.7H270V150.3z M270,272h64.6
	c4.3,12.1,13.7,21.9,25.5,26.7c-1.7,18.3-4.5,36-8.3,52.8c-17.5,4-36,6.9-55.1,8.6c-4.8-11.9-14.6-21.2-26.7-25.5V272z M178.6,43.5
	C168.5,56.4,159.3,72,151.4,90c-0.5,0-0.9,0-1.4,0c-28.6,0-50.2,26.6-43.9,54.8c-24.7,9.4-45.8,21.1-62.6,34.6
	C66.3,116.4,116.1,66.3,178.6,43.5z M165,135c0,8.3-6.7,15-15,15s-15-6.7-15-15s6.7-15,15-15S165,126.7,165,135z M122.7,170.7
	c1.3,1,2.7,2,4.2,2.9c-3.7,21.4-5.9,45-6.6,68.4H32.4C41.4,214.2,74.7,187.6,122.7,170.7z M120.2,272c0.7,24.9,3.3,48.6,7.4,70.9
	c-50.2-16.5-85.8-42.2-95.1-70.9H120.2z M43.3,333.3c26.1,20.5,59.6,34.4,91.9,43.3c10.3,37.3,25.2,68.8,43.5,92.1
	C115.9,446,66,396.1,43.3,333.3z M240,479.5c-35.6-12-59.3-59.6-71-95.2c13.9,2.6,28.3,4.5,43,5.8c4.2,13.6,14.7,24.5,28,29.3V479.5
	z M240,334.6c-12.1,4.3-21.9,13.7-26.7,25.5c-18.6-1.7-36.5-4.5-53.2-8.3c-5.6-24.9-8.9-51.9-9.8-79.9H240V334.6z M240,242h-89.8
	c0.7-21.4,2.7-42.9,6-62.4c15.1-2.1,27.8-11.8,34.2-25c16.1-2.3,32.6-3.7,49.5-4.3V242z M240,120.2c-15.7,0.5-31.2,1.7-46.4,3.6
	c-2.3-9-7.4-17-14.3-22.9c16.4-36.6,38.1-60.8,60.6-68.4V120.2z M255,392c-8.2,0-14.9-6.6-15-14.8c0-0.1,0-0.1,0-0.2
	c0-0.2,0-0.5,0-0.7c0.4-7.9,6.9-14.3,15-14.3c8,0,14.6,6.3,15,14.3c0,0.2,0,0.5,0,0.7c0,0.1,0,0.1,0,0.2
	C269.9,385.4,263.2,392,255,392z M270,479.5v-60.1c13.4-4.7,23.9-15.6,28-29.3c15.2-1.3,30.2-3.4,44.6-6.1
	C330.5,419.9,305.9,467.9,270,479.5z M331.9,468.7c21.1-26.4,35.4-60.2,44.4-92.4c32.2-8.9,66.1-23,92.4-43.6
	C446,395.8,395.5,445.9,331.9,468.7z M384.3,342.5c2.6-13.8,4.6-28,5.8-42.5c13.6-4.2,24.6-14.9,29.3-28.2h60
	C467.6,306.8,419.6,330.8,384.3,342.5z M419.4,242c-4.7-13.4-15.7-23.9-29.3-28c-1.3-15-3.4-29.8-6.1-44
	c35.8,12.2,83.5,36.6,95.4,72H419.4z"/>
</svg>
