<?xml version="1.0" encoding="utf-8"?>
<!-- Generator: Adobe Illustrator 21.0.0, SVG Export Plug-In . SVG Version: 6.00 Build 0)  -->
<svg version="1.1" id="Layer_1" xmlns="http://www.w3.org/2000/svg" xmlns:xlink="http://www.w3.org/1999/xlink" x="0px" y="0px"
	 viewBox="0 0 180 180" style="enable-background:new 0 0 180 180;" xml:space="preserve">
<g>
	<path d="M90,67.7c3.6,0,7-0.3,10.2-0.7c-3.3-9.2-7.8-16.3-10.6-20.2c-0.2,0-0.3,0-0.5,0c-2.8,3.7-7.4,10.5-10.6,20
		C82.1,67.3,86,67.7,90,67.7z"/>
	<path d="M80.4,47.8c-8.5,1.9-16.1,6.4-21.9,12.6c3.8,1.9,8.4,3.7,13.6,5C74.5,58.1,77.6,52.2,80.4,47.8z"/>
	<path d="M70.3,71.7c-6.2-1.6-11.6-3.8-16.1-6.1c-4.2,6.1-6.8,13.4-7.4,21.2l21.4,0C68.5,81.4,69.2,76.3,70.3,71.7z"/>
	<path d="M90,106.3c4.2,0,8.3,0.3,12,0.9c1.2-4.3,2-8.9,2.2-13.9H74.8c0.2,5.1,1,9.8,2.1,14.1C80.9,106.7,85.3,106.3,90,106.3z"/>
	<path d="M68.3,93.4H46.9c0.6,7.7,3.2,15,7.7,21.4c4.2-2.1,9.6-4.3,15.9-5.9C69.3,104.1,68.5,99,68.3,93.4z"/>
	<path d="M102.2,73.3c-3.8,0.6-7.9,0.9-12.2,0.9c-4.7,0-9.1-0.4-13.3-1.1c-1,4.2-1.7,8.8-1.9,13.7l29.5,0
		C104,82,103.2,77.5,102.2,73.3z"/>
	<path d="M121.5,60.4c-6.1-6.6-14.3-11.2-23.4-12.9c2.8,4.5,6.1,10.7,8.7,18.2C112.4,64.4,117.4,62.5,121.5,60.4z"/>
	<path d="M108.6,72c1.2,4.6,2,9.5,2.2,14.8h22.3c-0.6-7.8-3.2-15-7.4-21.2C121,68.1,115.3,70.4,108.6,72z"/>
	<path d="M108.5,108.5c6.7,1.6,12.4,3.9,17,6.2c4.4-6.4,7.1-13.6,7.7-21.4h-22.3C110.5,98.7,109.7,103.8,108.5,108.5z"/>
	<path d="M90,2.2C41.5,2.2,2.2,41.5,2.2,90c0,48.5,39.3,87.8,87.8,87.8s87.8-39.3,87.8-87.8C177.8,41.5,138.5,2.2,90,2.2z
		 M132.7,123.4c-10.4,13.2-25.9,20.8-42.6,20.8s-32.3-7.6-42.6-20.8c-7.5-9.6-11.5-21.2-11.5-33.4c0-29.9,24.3-54.2,54.2-54.2
		s54.2,24.3,54.2,54.2C144.2,102.2,140.2,113.8,132.7,123.4z"/>
	<path d="M58.8,119.9c5.9,6.2,13.4,10.4,21.6,12.3c-2.7-4.3-5.8-10-8.2-17.1C67,116.4,62.5,118.2,58.8,119.9z"/>
	<path d="M90,112.8c-4,0-7.7,0.3-11.3,0.9c3.2,9.2,7.6,15.9,10.4,19.5c0.2,0,0.3,0,0.5,0c2.7-3.8,7.1-10.7,10.4-19.7
		C96.9,113.1,93.5,112.8,90,112.8z"/>
	<path d="M98.1,132.5c8.8-1.7,16.9-6,23.2-12.6c-4.1-2-9-3.8-14.6-5.2C104.1,122,100.8,128.1,98.1,132.5z"/>
</g>
</svg>
